<svg width="172" height="153" viewBox="0 0 246 219" fill="none" xmlns="http://www.w3.org/2000/svg"><g clip-path="url(#clip0_613_1078)"><path d="M137.78 147.776C135.144 147.776 132.795 147.348 130.964 146.55C129.789 146.041 129.248 144.665 129.755 143.485C129.778 143.427 132.115 137.98 132.795 132.903C133.221 129.758 129.029 124.195 126.301 121.419C125.472 120.587 125.402 119.268 126.116 118.343C126.577 117.753 127.256 117.441 127.947 117.441C128.35 117.441 128.765 117.545 129.133 117.765C129.202 117.811 136.571 122.136 143.756 122.136C147.257 122.136 150.112 121.096 152.254 119.037C153.762 117.591 155.558 116.793 157.32 116.793C159.243 116.793 160.959 117.753 162.029 119.419C164.033 122.53 163.641 127.595 160.901 133.678C156.238 144.086 145.529 147.776 137.78 147.776Z" fill="#FFEE00" /><path d="M157.308 119.118C160.544 119.118 162.847 123.617 158.771 132.718C154.637 141.947 144.93 145.439 137.78 145.439C135.454 145.439 133.405 145.069 131.885 144.41C131.885 144.41 134.36 138.697 135.097 133.204C135.823 127.722 127.947 119.765 127.947 119.765C127.947 119.765 135.811 124.461 143.756 124.461C147.348 124.461 150.952 123.501 153.865 120.714C154.971 119.65 156.203 119.106 157.32 119.106L157.308 119.118ZM157.308 114.457C154.959 114.457 152.587 115.486 150.641 117.348C148.926 119.002 146.669 119.8 143.756 119.8C137.239 119.8 130.388 115.799 130.319 115.752C129.57 115.313 128.753 115.093 127.947 115.093C126.554 115.093 125.183 115.718 124.274 116.886C122.823 118.736 122.996 121.385 124.642 123.05C124.654 123.061 126.427 124.866 128.062 127.213C130.146 130.197 130.561 131.99 130.491 132.579C129.858 137.321 127.647 142.49 127.624 142.537C126.611 144.896 127.682 147.648 130.042 148.666C132.161 149.591 134.844 150.089 137.792 150.089C142.489 150.089 147.394 148.863 151.597 146.654C156.779 143.913 160.74 139.761 163.042 134.615C165.207 129.781 167.141 122.992 163.998 118.123C162.49 115.776 160.06 114.434 157.331 114.434L157.308 114.457Z" fill="#040B11" /><path opacity="0.34" d="M136.456 137.587C136.456 137.587 157.274 138.42 160.521 119.465C160.521 119.465 163.929 121.998 162.951 129.549C161.972 137.101 146.531 150.748 133.244 146.954L136.456 137.587Z" fill="#040B11" /><path d="M59.6788 104.592C49.811 104.592 40.5075 100.765 33.4722 93.814C26.437 86.852 22.4876 77.5539 22.3494 67.6428L21.9925 41.2171C21.8543 31.202 25.6079 21.7419 32.5626 14.5717C39.5172 7.4015 48.8438 3.36536 58.8152 3.22658L122.662 2.34766C122.835 2.34766 123.007 2.34766 123.192 2.34766C133.059 2.34766 142.363 6.17562 149.398 13.1261C156.433 20.0881 160.394 29.3863 160.521 39.2973L160.89 65.723C161.177 86.3894 144.654 103.424 124.067 103.714L60.2199 104.592C60.0472 104.592 59.8745 104.592 59.6903 104.592H59.6788Z" fill="#FFEE00" /><path d="M123.18 4.66063C142.294 4.66063 157.93 20.0766 158.184 39.3205L158.552 65.7462C158.817 85.152 143.353 101.111 124.021 101.377L60.174 102.256C60.0128 102.256 59.8401 102.256 59.6789 102.256C40.5651 102.256 24.9287 86.8404 24.6754 67.5965L24.3184 41.1709C24.0536 21.765 39.5173 5.80555 58.8498 5.53956L122.697 4.66063C122.858 4.66063 123.019 4.66063 123.192 4.66063H123.18ZM123.18 0C122.996 0 122.812 0 122.628 0L58.7808 0.878928C48.1876 1.02927 38.2853 5.2967 30.8931 12.9179C23.5009 20.5392 19.517 30.589 19.6667 41.2171L20.0236 67.6428C20.1618 78.1784 24.3645 88.0432 31.8373 95.4447C39.3101 102.835 49.1893 106.894 59.6674 106.894C59.8516 106.894 60.0358 106.894 60.22 106.894L124.067 106.015C134.66 105.865 144.562 101.597 151.955 93.976C159.335 86.3547 163.331 76.3049 163.181 65.6768L162.812 39.2511C162.674 28.7155 158.472 18.8507 150.999 11.4492C143.538 4.05926 133.647 0 123.169 0L123.18 0Z" fill="#040B11" /><path d="M117.872 98.7522L66.2303 99.4692C50.7205 99.6889 37.9857 87.2451 37.767 71.6904L37.5712 57.7548C37.3524 42.1885 49.7533 29.4093 65.2516 29.1896L116.893 28.4726C132.403 28.2529 145.138 40.6966 145.357 56.2514L145.552 70.187C145.771 85.7417 133.37 98.5324 117.872 98.7522Z" fill="#040B11" /><path d="M92.3102 174.675C78.7349 174.675 67.6696 169.772 59.4139 160.092C53.4725 153.141 49.1316 143.913 46.5178 132.672C45.3779 127.803 46.4948 122.749 49.5691 118.794C52.6434 114.85 57.2722 112.537 62.2694 112.468L122.236 111.635C122.317 111.635 122.386 111.635 122.466 111.635C127.417 111.635 132.046 113.844 135.178 117.695C138.31 121.535 139.53 126.531 138.529 131.388C136.191 142.814 132.046 152.228 126.208 159.375C118.079 169.321 106.945 174.467 93.1162 174.652C92.8514 174.652 92.5866 174.652 92.3217 174.652L92.3102 174.675Z" fill="#FFEE00" /><path d="M122.443 113.972C131.332 113.972 138.022 122.16 136.226 130.926C132.726 148.065 122.547 171.923 93.0473 172.328C92.794 172.328 92.5407 172.328 92.2989 172.328C63.3749 172.328 52.7012 149.013 48.7633 132.128C46.7137 123.351 53.2884 114.92 62.2811 114.793L122.248 113.96C122.317 113.96 122.386 113.96 122.443 113.96V113.972ZM122.443 109.311C122.351 109.311 122.271 109.311 122.178 109.311L62.212 110.144C56.5124 110.225 51.2273 112.85 47.7155 117.36C44.2036 121.859 42.937 127.63 44.2381 133.192C46.944 144.804 51.4576 154.356 57.6408 161.596C61.7053 166.349 66.4838 170.061 71.861 172.629C77.9175 175.52 84.7915 176.989 92.3104 176.989C92.5752 176.989 92.8515 176.989 93.1279 176.989C100.773 176.884 107.74 175.3 113.819 172.27C119.219 169.587 123.986 165.747 127.982 160.856C134.061 153.419 138.368 143.659 140.786 131.862C141.914 126.311 140.521 120.621 136.951 116.227C133.382 111.832 128.097 109.311 122.455 109.311H122.443Z" fill="#040B11" /><path d="M71.0317 76.9873C73.1042 76.9642 74.6932 70.6035 74.5781 62.7857C74.4744 54.9678 72.7012 48.6534 70.6402 48.6881C68.5676 48.7113 66.9786 55.0719 67.0938 62.8898C67.1974 70.7076 68.9706 77.022 71.0317 76.9873Z" fill="#FFEE00" /><path d="M112.46 76.4092C114.533 76.3861 116.122 70.0254 116.007 62.2076C115.903 54.3897 114.13 48.0753 112.069 48.11C110.008 48.1447 108.407 54.4938 108.522 62.3116C108.626 70.1295 110.399 76.4439 112.46 76.4092Z" fill="#FFEE00" /><path d="M18.0776 46.3982L45.5162 46.0166L45.8962 73.5525L18.4576 73.9341L18.0776 46.3982Z" fill="#040B11" /><path d="M133.658 44.7908L161.097 44.4092L161.477 71.9451L134.038 72.3267L133.658 44.7908Z" fill="#040B11" /><path d="M18.2156 73.807C9.4417 73.807 2.1992 66.6368 2.08406 57.836L2.01497 52.493C1.91135 44.8718 8.00241 38.5921 15.5903 38.488L19.9773 38.4302L20.4609 73.7839L18.4459 73.807H18.2156Z" fill="#FFEE00" /><path d="M17.9853 40.4768L18.4113 71.7944C18.3422 71.7944 18.2847 71.7944 18.2156 71.7944C10.501 71.7944 4.20266 65.5725 4.08752 57.8125L4.01843 52.4695C3.92632 45.9585 9.11927 40.604 15.6133 40.5115L17.9853 40.4768ZM21.9462 36.3828L17.9277 36.4406L15.5558 36.4753C6.86247 36.591 -0.115203 43.7959 -6.00509e-05 52.5273L0.0690258 57.8703C0.138112 62.6928 2.061 67.2147 5.48075 70.5916C8.9005 73.9686 13.4256 75.8305 18.2156 75.8305C18.2962 75.8305 18.3883 75.8305 18.4689 75.8305L22.4874 75.7727L22.4298 71.7366L22.0038 40.4189L21.9462 36.3828Z" fill="#040B11" /><path d="M162.628 34.7985L167.015 34.7407H167.211C174.695 34.7407 180.867 40.847 180.97 48.3641L181.039 53.7071C181.097 58.0323 179.473 62.1263 176.468 65.2257C173.463 68.325 169.433 70.0713 165.127 70.1292L163.112 70.1523L162.628 34.7985Z" fill="#FFEE00" /><path d="M167.211 36.7529C173.624 36.7529 178.875 41.934 178.967 48.3872L179.036 53.7301C179.14 61.5595 172.91 67.9896 165.104 68.1052L164.678 36.7876L167.05 36.7529H167.211ZM167.211 32.7168C167.142 32.7168 167.061 32.7168 166.992 32.7168L164.62 32.7515L160.602 32.8093L160.659 36.8454L161.085 68.1631L161.143 72.1992L165.161 72.1414C170.009 72.072 174.545 70.1175 177.919 66.6249C181.304 63.1323 183.124 58.5411 183.054 53.6723L182.985 48.3293C182.928 44.1429 181.258 40.2108 178.288 37.2733C175.317 34.3359 171.379 32.7168 167.211 32.7168Z" fill="#040B11" /><path opacity="0.34" d="M4.09912 57.8128C4.09912 57.8128 8.3479 63.1558 13.3336 63.6878L13.0112 40.5581L21.5203 38.4648L20.5646 76.0043C20.5646 76.0043 4.32941 75.137 4.21426 66.4749L4.09912 57.8244V57.8128Z" fill="#040B11" /><path opacity="0.34" d="M164.666 36.7876L167.038 36.7529L167.395 62.7276C167.395 62.7276 177.608 62.8664 178.714 46.1667C179.819 29.4671 182.26 57.2574 182.26 57.2574C182.26 57.2574 170.7 73.0781 163.607 71.6672C156.514 70.2679 164.655 36.7761 164.655 36.7761L164.666 36.7876Z" fill="#040B11" /><path opacity="0.34" d="M70.6405 48.6763C70.6405 48.6763 75.1541 76.721 67.2437 74.5006C59.3449 72.2801 70.3987 89.0492 75.7413 83.7062C81.0839 78.3517 79.3222 49.0348 70.6405 48.6878V48.6763Z" fill="#040B11" /><path opacity="0.34" d="M112.242 48.1099C112.242 48.1099 116.755 76.1546 108.845 73.9342C100.934 71.7137 112 88.4827 117.342 83.1398C122.685 77.7853 120.923 48.4684 112.242 48.1214V48.1099Z" fill="#040B11" /><path d="M104.78 157.351L78.8728 157.71C73.3344 157.791 68.7748 153.338 68.6942 147.776L68.4869 132.672C68.4063 127.109 72.8393 122.541 78.3892 122.46L104.296 122.102C109.835 122.021 114.394 126.473 114.475 132.036L114.682 147.14C114.763 152.702 110.33 157.27 104.78 157.351Z" fill="#040B11" /><path d="M86.5417 137.413L81.959 137.483L81.8208 127.444L86.2999 127.387C88.2688 127.363 89.5008 128.358 89.5124 129.942V129.977C89.5239 131.111 88.9597 131.747 88.2803 132.163C89.3972 132.591 90.0996 133.25 90.1226 134.603V134.626C90.1456 136.465 88.7294 137.402 86.5532 137.425L86.5417 137.413ZM87.4052 130.336C87.4052 129.676 86.8986 129.306 86.0005 129.318L83.9049 129.341L83.9279 131.457L85.8853 131.434C86.818 131.434 87.4052 131.099 87.4052 130.359V130.324V130.336ZM87.9925 134.337C87.9925 133.666 87.4974 133.25 86.4035 133.273L83.951 133.308L83.9855 135.517L86.5071 135.482C87.4398 135.482 88.004 135.112 87.9925 134.372V134.349V134.337Z" fill="#FFF3D4" /><path d="M94.4057 137.309L94.2676 127.271L101.545 127.167L101.568 129.133L96.3977 129.202L96.4207 131.238L100.969 131.18L100.992 133.146L96.4438 133.215L96.4668 135.32L101.694 135.251L101.717 137.217L94.3827 137.321L94.4057 137.309Z" fill="#FFEE00" /><path d="M86.5988 152.575C83.7087 152.61 81.6822 150.528 81.6362 147.66V147.637C81.6016 144.884 83.6281 142.606 86.4376 142.56C88.1072 142.537 89.132 142.988 90.1107 143.832L88.8441 145.463C88.1187 144.85 87.4739 144.503 86.4031 144.514C84.9178 144.538 83.7548 145.925 83.7778 147.568V147.602C83.8009 149.372 84.9868 150.655 86.6334 150.632C87.3818 150.632 88.0381 150.424 88.5563 150.031L88.5332 148.643L86.4722 148.666L86.4492 146.827L90.4907 146.77L90.5482 150.968C89.6041 151.823 88.2914 152.529 86.5988 152.552V152.575Z" fill="#FFEE00" /><path d="M98.9078 152.402C96.0407 152.436 93.9451 150.239 93.9106 147.498V147.464C93.876 144.711 95.9256 142.433 98.7927 142.387C101.66 142.352 103.755 144.549 103.79 147.302V147.336C103.824 150.089 101.775 152.367 98.9078 152.413V152.402ZM101.66 147.36C101.637 145.706 100.451 144.33 98.8042 144.353C97.1576 144.376 96.0292 145.74 96.0522 147.406V147.44C96.0753 149.094 97.2613 150.47 98.9078 150.447C100.554 150.424 101.683 149.048 101.66 147.394V147.36Z" fill="#FFF3D4" /><path opacity="0.34" d="M97.7219 111.335C97.7219 111.335 120.417 114.631 122.604 125.351C124.919 136.696 120.025 158.681 99.0806 163.296C69.0168 169.934 51.2617 145 51.2617 145C51.2617 145 56.2244 171.229 86.2767 174.19C116.329 177.162 127.118 159.491 127.118 159.491C127.118 159.491 142.087 134.58 137.93 121.627C133.773 108.675 97.7219 111.323 97.7219 111.323V111.335Z" fill="#040B11" /><path opacity="0.34" d="M82.1659 2.38251C82.1659 2.38251 116.755 2.60224 132.092 14.9998C147.429 27.3973 142.006 74.2233 140.624 83.8337C139.242 93.4441 75.5107 104.639 50.6743 102.395C50.6743 102.395 110.422 106.362 128.154 103.945C145.886 101.528 161.718 88.4134 161.5 71.9682C161.269 55.523 160.244 27.8714 160.244 27.8714C160.244 27.8714 148.005 2.78728 128.488 1.74644C108.971 0.717169 82.189 2.38251 82.189 2.38251H82.1659Z" fill="#040B11" /><path d="M81.6021 111.427L102.282 111.138L102.454 123.374L81.7748 123.663L81.6021 111.427Z" fill="#040B11" /><path d="M33.5065 31.9535C32.2975 33.6072 29.7298 32.2888 30.3631 30.3344C31.6066 26.4602 33.8174 22.1233 37.6977 18.6076C47.0588 10.119 59.8973 9.94555 59.8973 9.94555L82.2581 9.6333C82.2581 9.6333 49.6265 9.80677 33.495 31.9535H33.5065Z" fill="#FFFFE3" /><path d="M63.4782 117.799C63.4782 117.799 55.4182 118.158 52.9657 124.067C50.5131 129.977 57.9629 144.919 57.9629 144.919C57.9629 144.919 51.1695 128.173 63.4667 117.799H63.4782Z" fill="#FFFFE3" /><path d="M10.9731 43.6343C10.9731 43.6343 5.66498 45.6234 5.96435 52.8283C5.96435 52.8283 7.23093 48.8963 11.0422 48.1908L10.9731 43.6343Z" fill="#FFFFE3" /><path d="M169.214 42.4314C169.191 40.662 171.252 39.6559 172.599 40.8008C173.302 41.3906 174.062 42.177 174.868 43.2294C178.011 47.3118 174.062 56.3902 170.723 59.0154C170.723 59.0154 173.428 49.7288 170.412 45.8893C169.64 44.9063 169.226 43.692 169.203 42.443L169.214 42.4314Z" fill="#FFFFE3" /><path d="M46.5295 48.4337C44.7793 48.4568 43.6624 46.5833 44.5145 45.0568C45.7811 42.7785 47.9457 39.7369 51.377 37.077C57.8596 32.0694 67.8425 32.8674 67.8425 32.8674C67.8425 32.8674 52.8969 35.7008 49.3275 46.433C48.9245 47.6242 47.7961 48.4221 46.541 48.4337H46.5295Z" fill="#FFF3D4" /><path d="M137.769 79.1037C139.519 79.0806 140.636 80.9541 139.784 82.4807C138.517 84.7589 136.352 87.8005 132.921 90.4604C126.439 95.468 116.467 94.67 116.467 94.67C116.467 94.67 131.413 91.8366 134.982 81.1044C135.385 79.9133 136.514 79.1153 137.769 79.1037Z" fill="#FFF3D4" /><path d="M144.539 113C144.539 113 156.042 114.492 156.042 122.379C156.042 127.722 151.068 128.913 146.025 127.93C140.106 126.774 136.376 116.238 144.539 113Z" fill="#FFBE00" /><g opacity="0.25"><path d="M156.03 122.379C156.03 127.722 151.067 128.913 146.013 127.93C141.821 127.109 138.736 121.604 140.175 117.302C141.027 120.182 143.284 122.703 146.013 123.235C150.238 124.068 154.395 123.362 155.65 119.997C155.892 120.714 156.03 121.512 156.03 122.379Z" fill="#371A45" /></g><path d="M170.446 121.627L170.343 121.396C170.481 121.327 170.631 121.269 170.769 121.188L170.884 121.419C170.746 121.489 170.596 121.558 170.458 121.627H170.446Z" fill="#FFBE00" /><path d="M166.497 122.714C166.336 122.726 166.174 122.738 166.013 122.738V122.414C166.163 122.414 166.324 122.402 166.474 122.391V122.714H166.497Z" fill="#FFBE00" /><path d="M166.635 122.865H166.508C166.347 122.888 166.186 122.9 166.025 122.9H165.898L165.887 122.275H166.013C166.175 122.275 166.324 122.264 166.474 122.252H166.601L166.635 122.876V122.865ZM166.14 122.587C166.221 122.587 166.29 122.587 166.37 122.576C166.29 122.576 166.221 122.576 166.14 122.576V122.587Z" fill="#FFBE00" /><path d="M142.478 94.1609L151.459 137.159C152.438 141.82 156.986 144.803 161.626 143.832L181.938 139.553C186.578 138.57 189.56 134.002 188.581 129.341L179.6 86.343L169.963 78.3633L159.036 80.6647L147.97 83.0008L142.478 94.1724V94.1609Z" fill="#FFEE00" /><path opacity="0.34" d="M141.58 93.4552L147.211 82.2489C147.406 81.8673 147.752 81.6013 148.166 81.5087L149.916 81.1387C149.398 85.0245 148.684 88.8755 148.339 92.796C147.809 98.9138 147.982 105.009 148.765 111.103C149.536 117.071 150.803 123.003 153.071 128.601C154.787 132.845 157.113 136.939 159.715 140.698C160.717 142.143 161.891 143.624 163.215 144.93L162.248 145.139C156.86 146.272 151.551 142.791 150.423 137.379L141.442 94.3804C141.373 94.0682 141.419 93.7443 141.557 93.4552H141.58Z" fill="#040B11" /><path opacity="0.34" d="M180.487 85.2559L170.849 77.2762C170.527 77.0102 170.089 76.8946 169.675 76.9871L167.913 77.3571C169.94 80.6994 172.139 83.9491 174.027 87.3954C176.963 92.7847 179.243 98.4399 180.959 104.326C182.64 110.097 183.849 116.053 184.022 122.09C184.148 126.67 183.665 131.365 182.778 135.852C182.433 137.587 181.961 139.403 181.258 141.137L182.225 140.929C187.614 139.796 191.08 134.464 189.951 129.052L180.97 86.0539C180.901 85.7417 180.74 85.4641 180.487 85.2559Z" fill="#040B11" /><path opacity="0.34" d="M162.933 89.5914C164.66 88.7777 165.404 86.7118 164.594 84.977C163.784 83.2422 161.727 82.4956 159.999 83.3093C158.272 84.1231 157.529 86.189 158.339 87.9238C159.149 89.6585 161.206 90.4052 162.933 89.5914Z" fill="#040B11" /><path d="M161.097 88.9453C159.508 89.2806 157.942 88.2514 157.608 86.6554C157.274 85.0595 158.299 83.4867 159.888 83.1513C161.477 82.8159 163.043 83.8452 163.377 85.4411C163.711 87.0371 162.686 88.6099 161.097 88.9453Z" fill="#040B11" /><path d="M159.991 83.6602C161.304 83.3827 162.605 84.2269 162.881 85.5569C163.158 86.8868 162.317 88.1821 160.993 88.4596C159.669 88.7372 158.379 87.8929 158.103 86.563C157.827 85.233 158.667 83.9378 159.991 83.6602ZM159.784 82.6541C157.919 83.0473 156.721 84.8861 157.113 86.7596C157.504 88.6331 159.335 89.8358 161.2 89.4426C163.066 89.0494 164.263 87.2106 163.872 85.3371C163.48 83.4636 161.649 82.2609 159.784 82.6541Z" fill="#040B11" /><path d="M169.963 78.3633L179.6 86.343L188.581 129.341C189.56 134.002 186.578 138.581 181.938 139.553L161.626 143.832C156.986 144.815 152.426 141.82 151.459 137.159L142.478 94.1609L147.97 82.9892L159.036 80.6531L169.963 78.3517M169.675 76.9755L158.748 79.2769L147.683 81.613C147.268 81.7055 146.911 81.9831 146.715 82.3647L141.223 93.5364C141.085 93.8139 141.039 94.1377 141.108 94.45L150.089 137.448C151.217 142.86 156.526 146.341 161.914 145.208L182.225 140.929C187.614 139.796 191.08 134.464 189.952 129.052L180.97 86.0539C180.901 85.7417 180.74 85.4641 180.487 85.2559L170.849 77.2762C170.527 77.0102 170.089 76.8946 169.675 76.9871V76.9755Z" fill="#040B11" /><path d="M169.963 78.3633L179.6 86.343L188.581 129.341C189.56 134.002 186.578 138.581 181.938 139.553L161.626 143.832C156.986 144.815 152.426 141.82 151.459 137.159L142.478 94.1609L147.97 82.9892L159.036 80.6531L169.963 78.3517M169.675 76.9755L158.748 79.2769L147.683 81.613C147.268 81.7055 146.911 81.9831 146.715 82.3647L141.223 93.5364C141.085 93.8139 141.039 94.1377 141.108 94.45L150.089 137.448C151.217 142.86 156.526 146.341 161.914 145.208L182.225 140.929C187.614 139.796 191.08 134.464 189.952 129.052L180.97 86.0539C180.901 85.7417 180.74 85.4641 180.487 85.2559L170.849 77.2762C170.527 77.0102 170.089 76.8946 169.675 76.9871V76.9755Z" stroke="#080C0F" stroke-width="3" stroke-miterlimit="10" /><path d="M160.521 83.6022C160.544 83.8682 160.532 84.1226 160.475 84.3886C160.279 85.3253 159.6 84.7355 159.289 84.2267C158.713 83.2899 158.275 82.2838 157.884 81.2545C157.147 79.3116 156.767 77.2646 156.525 75.2061C156.399 74.2 156.399 73.1823 156.687 72.2108C156.928 71.4244 157.504 70.7074 158.368 71.1584C158.828 71.4013 159.197 71.8754 159.473 72.3033C160.659 74.119 160.958 76.5939 161.2 78.7449L161.787 78.6177C161.476 75.9347 161.073 72.2108 158.69 70.6496C157.872 70.1176 157.066 70.4529 156.525 71.1584C155.731 72.2108 155.8 73.7952 155.904 75.0326C156.168 78.2014 157.032 81.4396 158.598 84.2151C158.966 84.8743 159.6 85.9267 160.486 85.441C161.05 85.1287 161.166 84.3423 161.131 83.6716C161.131 83.6716 160.912 83.6022 160.855 83.6022C160.786 83.6022 160.532 83.5906 160.532 83.5906L160.521 83.6022Z" fill="#FFEE00" /><path d="M153.451 110.571L150.481 111.195L149.974 108.778L158.667 106.951L159.174 109.368L156.203 109.993L157.781 117.533L155.029 118.111L153.451 110.571Z" fill="black" /><path d="M162.018 106.165L164.666 105.61L170.976 114.746L168.028 115.371L166.934 113.74L163.112 114.549L162.778 116.481L159.888 117.094L162.018 106.177V106.165ZM165.702 111.762L164.01 109.16L163.48 112.225L165.702 111.762Z" fill="black" /><path d="M169.929 109.796V109.773C169.318 106.87 171.103 104.118 174.177 103.47C175.916 103.1 177.263 103.389 178.507 104.072L177.298 106.362C176.469 105.911 175.686 105.726 174.707 105.922C173.279 106.223 172.427 107.668 172.738 109.183V109.207C173.084 110.814 174.442 111.728 176.008 111.404C176.676 111.265 177.148 111.011 177.505 110.652L177.252 109.438L175.294 109.854L174.868 107.83L179.428 106.87L180.361 111.346C179.497 112.433 178.173 113.405 176.377 113.786C173.291 114.434 170.539 112.792 169.906 109.773L169.929 109.796Z" fill="black" /><path d="M189.652 111.844C189.652 111.844 178.506 117.152 180.867 124.75C182.548 130.162 189.71 130.162 193.106 126.635C196.768 122.842 198.392 115.545 189.652 111.844Z" fill="#FFBE00" /><g opacity="0.25"><path d="M193.095 126.635C189.687 130.163 182.537 130.163 180.856 124.75C180.395 123.293 180.453 121.917 180.821 120.656C183.227 124.6 189.353 124.288 192.416 121.096C193.671 119.8 194.684 118.089 195.11 116.25C197.137 119.835 195.582 124.045 193.095 126.635Z" fill="#371A45" /></g><path d="M197.816 117.962C198.633 121.986 196.641 125.791 194.5 128.012C192.634 129.954 189.848 131.065 187.108 131.065C186.348 131.065 185.588 130.972 184.851 130.799C181.995 130.105 179.854 128.116 178.99 125.34C176.157 116.215 188.294 110.306 188.812 110.063L189.595 109.693L190.401 110.028C195.651 112.249 197.332 115.568 197.816 117.962ZM191.702 125.271C193.51 123.386 194.408 120.83 193.993 118.76C193.602 116.84 192.162 115.256 189.71 114.053C187.464 115.313 181.212 119.326 182.721 124.184C183.296 126.034 184.69 126.728 185.76 126.982C187.821 127.48 190.274 126.774 191.713 125.282L191.702 125.271Z" fill="#040B11" /><path d="M193.993 118.748C194.408 120.818 193.521 123.385 191.702 125.259C190.262 126.751 187.81 127.456 185.749 126.959C184.678 126.704 183.285 126.01 182.721 124.16C181.212 119.303 187.476 115.29 189.71 114.029C192.162 115.244 193.602 116.816 193.981 118.748H193.993Z" fill="#FFEE00" /><path d="M186.232 100.024C186.232 100.024 175.087 105.333 177.436 112.931C179.117 118.343 186.279 118.343 189.675 114.816C193.337 111.023 194.96 103.725 186.221 100.024H186.232Z" fill="#FFBE00" /><g opacity="0.25"><path d="M189.687 114.816C186.29 118.343 179.128 118.343 177.447 112.931C176.998 111.474 177.044 110.097 177.412 108.837C179.807 112.78 185.944 112.468 189.007 109.276C190.251 107.981 191.276 106.269 191.702 104.431C193.728 108.016 192.174 112.237 189.687 114.816Z" fill="#371A45" /></g><path d="M194.396 106.142C195.214 110.167 193.222 113.971 191.08 116.192C189.215 118.135 186.428 119.233 183.688 119.233C182.928 119.233 182.168 119.153 181.431 118.968C178.575 118.274 176.434 116.284 175.582 113.509C172.749 104.384 184.885 98.4746 185.403 98.2317L186.186 97.8501L186.992 98.197C192.243 100.417 193.924 103.737 194.408 106.131L194.396 106.142ZM188.282 113.44C190.09 111.554 190.988 109.01 190.573 106.929C190.182 105.009 188.743 103.424 186.29 102.21C184.045 103.471 177.793 107.484 179.301 112.341C179.877 114.191 181.27 114.885 182.329 115.14C184.39 115.637 186.843 114.931 188.271 113.44H188.282Z" fill="#040B11" /><path d="M190.574 106.929C190.988 109.011 190.09 111.555 188.282 113.44C186.843 114.932 184.402 115.637 182.341 115.14C181.27 114.886 179.877 114.192 179.313 112.341C177.804 107.484 184.057 103.471 186.302 102.21C188.754 103.425 190.194 104.998 190.585 106.929H190.574Z" fill="#FFEE00" /><path d="M181.834 88.7026C181.834 88.7026 170.688 94.0109 173.037 101.609C174.718 107.021 181.88 107.021 185.277 103.494C188.927 99.7008 190.562 92.4034 181.823 88.7026H181.834Z" fill="#FFEE00" /><g opacity="0.34"><path d="M185.288 103.494C181.88 107.021 174.73 107.021 173.048 101.609C172.588 100.152 172.645 98.7757 173.014 97.5151C175.409 101.459 181.546 101.146 184.609 97.9546C185.864 96.6593 186.877 94.9477 187.303 93.1089C189.33 96.694 187.775 100.915 185.288 103.494Z" fill="#040B11" /></g><path d="M179.301 107.912C178.541 107.912 177.781 107.831 177.044 107.646C174.189 106.952 172.047 104.974 171.183 102.187C168.351 93.0625 180.487 87.1528 181.005 86.91L181.788 86.5283L182.594 86.8637C187.845 89.0842 189.526 92.4033 190.009 94.7972C190.827 98.8218 188.835 102.627 186.693 104.847C184.828 106.79 182.041 107.9 179.301 107.9V107.912ZM181.903 90.8883C179.658 92.1488 173.406 96.1618 174.914 101.019C175.49 102.869 176.883 103.563 177.954 103.818C180.015 104.315 182.456 103.61 183.895 102.118C185.703 100.233 186.601 97.6768 186.186 95.6067C185.795 93.687 184.356 92.1026 181.903 90.8883Z" fill="#040B11" /><g opacity="0.34"><path d="M189.226 115.625C185.829 119.153 178.667 119.153 176.986 113.74C176.526 112.283 176.583 110.907 176.94 109.646C179.347 113.59 185.472 113.278 188.535 110.086C189.79 108.791 190.804 107.079 191.23 105.24C193.256 108.825 191.702 113.047 189.215 115.625H189.226Z" fill="#040B11" /></g><g opacity="0.34"><path d="M193.003 127.387C189.606 130.914 182.444 130.914 180.763 125.502C180.314 124.044 180.36 122.668 180.717 121.408C183.124 125.351 189.249 125.039 192.312 121.847C193.556 120.552 194.58 118.84 195.006 117.001C197.033 120.587 195.479 124.808 192.991 127.387H193.003Z" fill="#040B11" /></g><path d="M157.988 122.379C157.988 125.49 156.606 127.294 155.455 128.254C153.889 129.549 151.701 130.22 149.11 130.22C148.016 130.22 146.865 130.104 145.644 129.862C141.649 129.075 138.321 125.039 137.907 120.471C137.527 116.261 139.738 112.78 143.825 111.173L144.286 110.988L144.781 111.057C145.322 111.127 157.988 112.884 157.988 122.391V122.379ZM152.968 125.213C153.716 124.588 154.073 123.663 154.073 122.379C154.073 117.129 146.761 115.406 144.769 115.035C142.052 116.319 141.637 118.482 141.787 120.112C142.04 122.911 144.102 125.548 146.381 125.987C149.237 126.554 151.701 126.253 152.968 125.201V125.213Z" fill="#040B11" /><path d="M154.084 122.379C154.084 123.663 153.716 124.588 152.979 125.212C151.712 126.265 149.248 126.554 146.393 125.999C144.113 125.548 142.052 122.911 141.799 120.124C141.649 118.493 142.063 116.331 144.781 115.047C146.773 115.417 154.084 117.14 154.084 122.391V122.379Z" fill="#FFEE00" /><g opacity="0.34"><path d="M143.664 126.473C147.015 130 154.073 130 155.731 124.588C156.18 123.131 156.134 121.755 155.766 120.494C153.405 124.438 147.36 124.125 144.344 120.934C143.112 119.638 142.11 117.927 141.684 116.088C139.692 119.685 141.223 123.894 143.676 126.473H143.664Z" fill="#040B11" /></g></g><defs><clipPath id="clip0_613_1078"><rect width="198" height="177" fill="white" /></clipPath></defs></svg>