<?xml version="1.0" encoding="UTF-8"?>
<svg width="188px" height="29px" viewBox="0 0 188 29" version="1.1" xmlns="http://www.w3.org/2000/svg" xmlns:xlink="http://www.w3.org/1999/xlink">
    <title>EEA16481-FBD7-45FB-B1BF-CA31B2DE69CF</title>
    <g id="User" stroke="none" stroke-width="1" fill="none" fill-rule="evenodd">
        <g id="Checkout-user-pickup-new-TRANSFER-" transform="translate(-93.000000, -322.000000)" fill-rule="nonzero">
            <g id="citibanamex-vector-logo" transform="translate(93.000000, 322.000000)">
                <path d="M16.7220217,3.67870258 C15.6582431,4.6242772 14.5631769,5.60137098 14,6.95669461 C15.1263538,6.95669461 16.2839952,7.01973292 17.410349,6.95669461 C18.4741276,6.29479237 19.2876053,5.28617944 20.3826715,4.68731551 C24.4187726,2.10274487 29.8941035,2.16578318 33.898917,4.81339213 C34.9314079,5.3807369 35.6823105,6.35783068 36.6835138,6.95669461 C37.77858,7.05125207 38.9049338,6.95669461 40,6.98821377 L39.8122744,6.38934984 C37.8724428,3.58414512 34.9001203,1.59843841 31.677497,0.558306319 C29.4873646,-0.198153381 27.1407942,0.0224806982 24.856799,0.0539998523 C21.9157641,0.306153086 19.0685921,1.75603418 16.7220217,3.67870258" id="Path" fill="#FFFFFF"></path>
                <path d="M168.309956,3.98864962 C166.782738,4.79584075 165.096435,5.78930676 164.428277,7.43473484 C163.982839,9.11120872 165.700959,10.228858 166.496385,11.5327821 C164.969167,11.9674235 163.251047,12.1536984 161.946548,13.1782102 C160.7375,14.3889969 160.96022,16.2827915 161.151122,17.8040363 C161.469292,19.4184185 161.914731,21.1569841 163.123778,22.3677708 C164.587362,23.6096033 166.464568,22.2746333 167.991786,21.8710378 C167.928152,23.2680993 167.769067,24.6962067 168.05542,26.0932683 C168.405407,27.6145131 170.059894,28.2354294 171.459843,28.6079791 C173.464317,29.0426205 175.69151,29.290987 177.600533,28.3906584 C179.286836,27.4282382 178.523227,25.2860772 178.618678,23.7337865 C180.336798,24.2615653 182.182187,25.4102604 184.027575,24.7893441 C185.459342,23.982153 186.350219,22.491954 187.050194,21.0948924 C187.718352,19.5736476 188.513778,17.679853 187.559267,16.0965166 C186.604755,15.040959 185.013903,15.0099131 183.709405,14.5752718 C184.536648,13.3644851 185.650244,12.3399732 186.254768,11.0050033 C186.763841,9.5458501 185.713878,8.14878853 184.854818,7.06218508 C183.454868,5.47884863 181.641297,3.89551218 179.414104,3.83342056 C177.727801,4.05074125 177.218728,5.85139839 176.168766,6.90695602 C175.277889,5.60303188 174.51428,4.01969544 173.050696,3.24355012 C171.459843,2.62263386 169.741723,3.30564174 168.309956,3.98864962" id="Path" fill="#FFFFFF"></path>
                <path d="M24.727514,5.79786812 C24.727514,6.88943091 24.727514,8.01309849 24.7581996,9.10466128 C23.899003,9.26518522 23.0398063,9.20097564 22.1806097,9.07255649 C21.9044393,10.1320145 22.0271817,11.2235773 22.0271817,12.2830353 C22.9477495,12.2830353 23.8683174,12.2830353 24.7888852,12.3151401 C24.7581996,15.3971997 24.7581996,18.5113641 24.7581996,21.6255286 C24.727514,23.1344536 25.3412259,24.8039026 26.6913921,25.5423127 C28.1336151,26.3449324 29.882694,25.9917797 31.2635457,25.2533696 C31.5090305,24.1939116 31.7545152,23.1023488 32,22.0428908 C31.018061,22.6849866 29.7906372,23.1665584 28.6245846,22.7813009 C28.0108727,22.3960435 27.9495015,21.5934238 27.9495015,20.9192232 C27.9495015,18.0297923 27.9495015,15.1724662 27.9495015,12.2830353 L31.2021745,12.2830353 C31.2021745,11.2556821 31.2021745,10.2283289 31.2328601,9.20097564 C30.1281787,9.20097564 29.0541829,9.20097564 27.9495015,9.16887085 C27.9188159,7.43521231 27.9495015,5.70155376 27.9495015,4 C26.8448201,4.57788618 25.7708243,5.18787715 24.727514,5.79786812" id="Path" fill="#FFFFFF"></path>
                <path d="M43,5.76058518 C43,12.3867876 43,19.01299 43,25.6391924 C44.0775411,25.6391924 45.1242954,25.6391924 46.2018365,25.6391924 C46.2018365,25.1590328 46.2018365,24.6788732 46.2018365,24.1987136 C47.741181,25.5431605 49.8039026,26.3754371 51.8050504,25.8312562 C54.2987884,25.2870753 56.1767887,22.9823093 56.7001658,20.4534688 C57.2235429,17.7965857 57.1003954,14.9156281 56.0228543,12.4187982 C55.1300345,10.306096 53.0673129,8.7695853 50.8198699,8.80159594 C49.0958041,8.67355338 47.4948859,9.50583001 46.2018365,10.6262024 C46.2018365,8.41746827 46.2018365,6.20873413 46.2018365,4 C45.0935085,4.54418087 44.0467542,5.15238303 43,5.76058518" id="Path" fill="#081117"></path>
                <path d="M1.06286502,13.0725807 C-0.450069614,15.9585341 -0.357440963,19.7007594 1.40250341,22.4598578 C3.03894292,24.9969597 6.12656463,26.1703693 8.99805283,25.9800867 C10.9741307,25.8215178 12.7340751,24.7115357 14,23.1892746 C13.4442281,22.3964302 12.8267037,21.6352997 12.2091794,20.8741691 C10.6653686,22.3647165 8.38052848,23.3478435 6.34269815,22.3647165 C3.56383861,21.2864481 2.57579966,17.5442228 3.87260078,14.9436933 C4.82976351,12.8188705 7.45424197,11.6454608 9.61557717,12.4383052 C10.6036161,12.7237292 11.437274,13.4214322 12.1783032,14.1191352 C12.7340751,13.3262909 13.6603616,12.6603016 13.9073713,11.7088884 C10.6962448,7.4275289 3.44033374,8.47408344 1.06286502,13.0725807" id="Path" fill="#FFFFFF"></path>
                <path d="M60.4703869,10.5109387 C60.8607124,11.3004755 61.2510378,12.0900123 61.6413633,12.8795491 C63.4728903,11.9952679 65.6947429,11.4268014 67.616345,12.3426641 C68.8473714,13.005875 68.9074215,14.5533672 68.8473714,15.8166261 C66.8657192,15.0902522 64.6438667,15.0270893 62.6321894,15.5955558 C61.1609627,16.006115 59.8098362,17.0798851 59.2994106,18.6589587 C58.6388599,20.680173 59.0592103,23.2066908 60.6805622,24.6278571 C63.0225148,26.7122343 66.715594,26.3332567 68.8473714,24.0909721 C68.8473714,24.6278571 68.8473714,25.1331607 68.8773965,25.6700457 C69.9282727,25.6700457 70.9491238,25.6700457 72,25.6700457 C72,22.1013393 72,18.5326328 72,14.9639264 C72,13.9533192 71.9399499,12.8795491 71.4895744,11.9636864 C70.7389486,10.3214498 69.0875717,9.37400563 67.4361948,9.12135384 C65.0041671,8.77395764 62.4820642,9.15293531 60.4703869,10.5109387" id="Path" fill="#081117"></path>
                <path d="M78.2114014,10.6445246 C78.2114014,10.3416664 78.2114014,9.70566436 78.2422803,9.40280623 C77.1615202,9.3422346 76.0807601,9.31194879 75,9.40280623 C75.0308789,14.6119661 75,19.7908401 75,25 C76.0498812,25 77.1306413,25 78.2114014,25 C78.2422803,21.9108471 78.2114014,18.7914083 78.2114014,15.7022554 C78.1805226,14.3696796 78.736342,12.8856747 80.0023753,12.2193869 C81.1140143,11.7348138 82.5653207,11.7348138 83.584323,12.4616734 C84.7268409,13.4005336 84.7885986,15.0056817 84.8812352,16.3382574 C84.912114,19.2154097 84.8812352,22.1228478 84.8812352,25 C85.9311164,25 86.9501188,25 88,24.9697142 C87.9691211,21.6685606 88,18.3674069 87.9691211,15.0359675 C87.9382423,13.0976754 87.3515439,10.9170969 85.6223278,9.7965218 C83.3064133,8.49423184 80.1258907,8.79708997 78.2114014,10.6445246" id="Path" fill="#FFFFFF"></path>
                <path d="M91.566844,10.3744912 C91.867365,11.2250255 92.2580424,12.0440586 92.6186676,12.8630916 C94.451846,12.0440586 96.6456496,11.4455344 98.5689842,12.32757 C99.8311726,12.9575954 99.9213289,14.5326589 99.8612247,15.7927097 C98.1182027,15.2256869 96.2249201,15.0366793 94.4217939,15.4146945 C93.009345,15.6667047 91.566844,16.3912339 90.7554372,17.682786 C89.7036135,19.4153558 89.7937699,21.7464498 90.7554372,23.510521 C91.7171045,25.148587 93.6404392,25.9676201 95.4135133,25.9991213 C97.066379,26.0306226 98.5990363,25.2115896 99.8311726,24.1090451 C99.8311726,24.6130654 99.8311726,25.1170858 99.8612247,25.6211061 L102.986644,25.6211061 C102.986644,21.8409536 103.016696,18.0608012 102.986644,14.2806488 C103.046748,12.2330662 101.784559,10.2799874 99.951381,9.58695949 C97.2166395,8.5159163 94.1212728,8.98843535 91.566844,10.3744912" id="Path" fill="#081117"></path>
                <path d="M110.234176,11.6539966 C110.234176,11.231167 110.234176,10.8083374 110.234176,10.3855078 C109.145752,10.3855078 108.088425,10.3855078 107,10.41571 C107,15.5802712 107,20.7750345 107,25.9395958 C108.088425,25.9395958 109.145752,25.9395958 110.234176,25.9395958 C110.234176,23.0703951 110.234176,20.1709923 110.234176,17.3017916 C110.234176,16.2145156 110.32747,15.0668353 110.918329,14.1305698 C111.820166,12.6506663 114.214701,12.4392515 115.489713,13.5567297 C116.360452,14.4929951 116.422648,15.8218881 116.453746,16.9997705 C116.453746,19.9897796 116.453746,22.9797888 116.453746,25.9697979 C117.542171,25.9697979 118.599497,25.9697979 119.687922,25.9697979 C119.687922,22.9797888 119.687922,20.0199817 119.687922,17.0299726 C119.687922,15.8218881 119.812313,14.462793 120.745249,13.5567297 C121.678184,12.7412726 123.108685,12.7412726 124.228208,13.1943043 C125.50322,13.8889529 125.689807,15.4292606 125.752003,16.6977494 C125.7831,19.8085669 125.752003,22.8891824 125.7831,26 C126.840427,26 127.928852,26 128.986179,26 C128.986179,22.7985761 129.017277,19.6273543 128.986179,16.4259303 C128.923983,14.6138036 128.706298,12.6204642 127.337993,11.2613691 C126.031883,10.0230825 124.072719,10.0230825 122.362337,10.1438909 C120.838542,10.2344973 119.532433,11.1707628 118.5684,12.2580388 C116.858018,9.38883814 112.411026,9.32843391 110.234176,11.6539966" id="Path" fill="#FFFFFF"></path>
                <path d="M132.406929,12.0928005 C131.003163,14.3960522 130.697997,17.3303316 131.277813,19.9490972 C131.735563,22.2523488 133.200362,24.4293948 135.336528,25.3759366 C138.083026,26.6379923 141.500891,25.9123103 143.728607,23.8614698 C143.14879,23.1357878 142.568974,22.4416571 141.989158,21.7475265 C140.341258,22.914928 138.05251,23.5459559 136.221511,22.4732085 C134.878778,21.6844237 134.237928,20.1384055 134.085345,18.6239387 C137.68631,18.6554901 141.287275,18.6239387 144.918756,18.6239387 C145.223923,15.8789676 144.705139,12.8184825 142.752074,10.7991935 C139.883509,7.92801677 134.543095,8.59059601 132.406929,12.0928005" id="Path" fill="#081117"></path>
                <path d="M15,10.1097064 L15,26 C16.3261613,26 17.6523226,26 18.9784839,26 C18.9048083,24.981787 18.8311327,23.994429 18.9048083,22.976216 C19.162673,19.5204628 18.7942949,16.0647097 18.9784839,12.6398114 C19.0153217,11.7758732 18.9784839,10.8810799 18.8311327,10.0171416 C17.578647,9.98628669 16.2893235,9.98628669 15,10.1097064" id="Path" fill="#FFFFFF"></path>
                <path d="M34.0125261,10 C33.9843424,15.3333333 34.0125261,20.6358382 34.0125261,25.9691715 C34.9989562,25.9691715 35.9853862,25.9691715 36.9718163,26 C37.0281837,20.6666667 36.9718163,15.3641618 37,10.0308285 C36.0135699,10 35.0271399,10 34.0125261,10" id="Path" fill="#FFFFFF"></path>
                <path d="M149.972851,17.7687861 C148.294118,20.4816956 146.647059,23.2254335 145,25.9691715 C146.20362,25.9691715 147.375566,25.9691715 148.579186,26 C149.751131,24.0578035 150.891403,22.0847784 151.904977,20.0809249 C152.9819,22.0539499 154.090498,23.9961464 155.135747,25.9691715 C156.402715,26 157.701357,26 159,25.9691715 C157.352941,23.2254335 155.674208,20.4816956 153.995475,17.7379576 C155.420814,15.1483622 157.289593,12.743738 158.461538,10.0308285 C157.321267,10.1541426 156.21267,10.0308285 155.072398,10.1233141 C153.742081,11.6339114 153.235294,13.761079 151.904977,15.3025048 C151.049774,13.5452794 150.004525,11.8805395 149.117647,10.1233141 C147.882353,10.1233141 146.678733,10.0924855 145.475113,10 C146.678733,12.7129094 148.547511,15.1483622 149.972851,17.7687861" id="Path" fill="#FFFFFF"></path>
                <path d="M169.374707,8.57753609 C171.262744,7.25205835 173.6657,6.83178492 176,7.058086 C175.450753,7.96329031 174.935834,8.86849461 174.558226,9.8706851 C173.116453,8.51287864 171.262744,9.77369892 169.649331,10 C168.894116,9.93534255 168.791132,8.90082334 169.374707,8.57753609" id="Path" fill="#081117"></path>
                <path d="M179.235309,10.3276836 C178.890452,9.93220339 178.861713,9 179.580166,9 C181.505619,9.96045198 182.626405,11.9943503 183,14 C182.109119,13.8022599 181.1895,13.6610169 180.298619,13.6045198 C180.988333,12.3615819 179.896285,11.2881356 179.235309,10.3276836" id="Path" fill="#081117"></path>
                <path d="M170,13.4115523 C171.87372,13.0216606 173.440273,11.6245487 174.546075,10 C175.43686,11.7545126 177.187713,12.9891697 179,13.4440433 C177.648464,14.9061372 177.12628,17.0180505 177.31058,19 C175.62116,17.9927798 173.47099,18.1877256 171.720137,18.8700361 C171.843003,16.9205776 171.167235,14.9061372 170,13.4115523" id="Path" fill="#081117"></path>
                <path d="M166.808453,12 C167.518391,12.7 168.228328,13.4636364 169,14.1 C166.901053,14.9590909 168.691331,17.8227273 167.086254,19 C166.160248,18.3636364 166.067648,17.1545455 166.005914,16.1045455 C165.94418,14.6409091 166.376317,13.3045455 166.808453,12" id="Path" fill="#081117"></path>
                <path d="M178,19.9029624 C179.982783,20.3971705 180.122416,16.8718193 181.93764,17.0036081 C181.965566,17.4978162 182.077272,17.9920243 181.909713,18.4532853 C181.29533,20.4301178 179.954857,21.9456893 178.446824,23 C178.307192,21.9786365 178.167559,20.9243259 178,19.9029624" id="Path" fill="#081117"></path>
                <path d="M168,21.5436904 C168.975962,21.10743 169.951923,20.6040528 170.826923,20 C170.995192,21.8121583 173.115385,21.9799507 174.427885,22.5504449 C175.067308,22.6846789 174.966346,23.3894071 175,23.8592259 C172.442308,24.4297202 169.884615,23.1880562 168,21.5436904" id="Path" fill="#081117"></path>
                <path d="M16.6594465,3.70027721 C19.0060168,1.77567873 21.8219013,0.32434217 24.856799,0.0403850173 C27.1407942,0.0403850173 29.4873646,-0.212021341 31.677497,0.545197733 C34.9001203,1.58637396 37.8724428,3.57407403 39.8122744,6.38209476 L40,6.98155986 C38.9049338,6.95000906 37.77858,7.01311065 36.6835138,6.95000906 C35.6510229,6.38209476 34.9314079,5.40402012 33.898917,4.80455502 C29.8941035,2.15428826 24.4187726,2.09118668 20.3826715,4.67835184 C19.2876053,5.27781694 18.4741276,6.28744237 17.410349,6.95000906 C16.2839952,7.04466145 15.1263538,6.98155986 14,6.95000906 C14.5006017,5.62487569 15.6269555,4.64680105 16.6594465,3.70027721" id="Path" fill="#FFFFFF"></path>
                <path d="M168.29737,4.00181231 C169.731082,3.31746496 171.451536,2.6642243 173.012689,3.19303817 C174.478261,3.97070561 175.242907,5.5571472 176.166855,6.86362851 C177.218243,5.80600079 177.728007,4.00181231 179.416601,3.78406543 C181.646819,3.84627882 183.462854,5.43272041 184.864706,7.019162 C185.724933,8.13900312 186.808182,9.50769783 186.266557,10.9697126 C185.661212,12.3073006 184.546103,13.3338217 183.717736,14.5469829 C185.024007,14.95137 186.58516,15.0135833 187.572828,16.0712111 C188.496775,17.6576527 187.732129,19.5551612 187.063064,21.0793894 C186.362138,22.5102975 185.470051,23.9723123 184.036339,24.7810865 C182.188444,25.4032204 180.340549,24.2833793 178.620095,23.7234587 C178.492654,25.2476869 179.2573,27.4251558 177.600566,28.3894634 C175.688951,29.2915577 173.458732,29.0427041 171.451536,28.6072103 C170.049685,28.2650366 168.392951,27.611796 168.042488,26.0875678 C167.755746,24.6877664 167.915047,23.2568583 167.978768,21.8570569 C166.417615,22.2614439 164.56972,23.599032 163.104148,22.354764 C161.893458,21.1416028 161.447414,19.3996277 161.128812,17.7820795 C160.96951,16.2267446 160.746488,14.3603427 161.925318,13.1471815 C163.231589,12.1517671 164.952043,11.965127 166.481335,11.4985265 C165.716689,10.1920452 163.964375,9.10331076 164.410418,7.39244238 C165.079484,5.77489409 166.768078,4.81058645 168.29737,4.00181231 M169.794802,8.76113708 C169.253178,9.07220406 169.348759,10.0676184 170.049685,10.0987251 C171.547117,9.9120849 173.299431,8.66781699 174.605702,9.9742983 C174.956165,9.04109736 175.402208,8.13900312 175.943833,7.26801558 C173.809195,7.0813754 171.547117,7.48576247 169.794802,8.76113708 M179.066138,10.3786854 C179.798924,11.4363131 181.009614,12.6183676 180.244968,13.9559556 C181.264496,14.018169 182.252164,14.1737025 183.239832,14.3914494 C182.793789,12.1828738 181.551239,9.9431916 179.448461,8.88556387 C178.651955,8.91667057 178.683815,9.9431916 179.066138,10.3786854 M169.954104,14.2670226 C171.196654,15.6979307 171.89758,17.626546 171.706418,19.4929478 C173.554313,18.8397072 175.752671,18.653067 177.504986,19.6173746 C177.345684,17.7198661 177.855448,15.666824 179.2573,14.2981293 C177.377545,13.8626355 175.56151,12.7116877 174.637562,11.0008193 C173.522453,12.5561542 171.89758,13.8937422 169.954104,14.2670226 M166.736217,11.9340203 C166.258314,13.2093949 165.81227,14.5469829 165.907851,15.9156776 C165.971571,16.9421986 166.067152,18.1553598 167.02296,18.7463871 C168.679693,17.626546 166.799938,14.7958365 168.998296,13.9559556 C168.201789,13.3649284 167.500864,12.6183676 166.736217,11.9340203 M178.142191,20.3639354 C178.365213,21.328243 178.492654,22.3236573 178.620095,23.287965 C180.340549,22.2614439 181.869841,20.8616425 182.570767,18.9952407 C182.761929,18.5597469 182.634488,18.0620397 182.602627,17.626546 C180.53171,17.5021192 180.404269,20.8305358 178.142191,20.3639354 M168.424811,21.7637368 C170.208986,23.287965 172.630366,24.4700195 175.051745,23.9412056 C175.019885,23.4746052 175.115466,22.8524712 174.510121,22.7280444 C173.267571,22.1681239 171.260374,22.0436971 171.101073,20.3639354 C170.272706,20.8616425 169.348759,21.328243 168.424811,21.7637368" id="Shape" fill="#FFFFFF"></path>
                <path d="M24.7581996,5.79597707 C25.8015099,5.18662771 26.8755057,4.57727834 27.9495015,4 C27.9495015,5.73183503 27.9495015,7.46367006 27.9495015,9.16343407 C29.0541829,9.19550509 30.1281787,9.19550509 31.2328601,9.19550509 C31.2328601,10.2217777 31.2328601,11.2480503 31.2021745,12.2743229 L27.9495015,12.2743229 C27.9495015,15.1607146 27.9495015,18.0150353 27.9495015,20.901427 C27.9495015,21.5749184 28.0108727,22.3766939 28.6245846,22.7615462 C29.7906372,23.1463984 30.9873754,22.6332621 32,22.0239127 C31.7545152,23.0822563 31.5090305,24.172671 31.2635457,25.2310146 C29.882694,26.0007191 28.1336151,26.3535003 26.6913921,25.5196538 C25.3412259,24.7820204 24.727514,23.1143274 24.7581996,21.6069895 C24.7581996,18.4961006 24.727514,15.4172828 24.7888852,12.3063939 C23.8683174,12.2743229 22.9477495,12.2743229 22.0271817,12.2743229 C22.0271817,11.2159793 21.9044393,10.1255646 22.1806097,9.06722101 C23.0398063,9.19550509 23.899003,9.25964713 24.7581996,9.09929203 C24.7581996,8.00887738 24.7581996,6.88639172 24.7581996,5.79597707" id="Path" fill="#FFFFFF"></path>
                <path d="M43,5.75957053 C44.0467542,5.15171889 45.0935085,4.54386725 46.2018365,4 C46.2326234,6.20746121 46.2018365,8.41492242 46.2018365,10.6223836 C47.4948859,9.50265693 49.0958041,8.63886776 50.8198699,8.79882872 C53.0673129,8.76683653 55.1300345,10.3024617 56.0228543,12.4139464 C57.1003954,14.9093373 57.2235429,17.7886345 56.7001658,20.4439864 C56.1460018,22.9713695 54.2987884,25.2748073 51.8050504,25.8186746 C49.8039026,26.394534 47.741181,25.5307449 46.2018365,24.1870728 C46.2018365,24.6669557 46.2018365,25.1468386 46.2018365,25.6267214 C45.1242954,25.6267214 44.0467542,25.6267214 43,25.6267214 C43,19.0043378 43,12.3819542 43,5.75957053 M46.2018365,13.8216028 C46.2018365,16.1890249 46.2018365,18.5244549 46.2018365,20.8918771 C47.0330825,21.7556663 48.018263,22.5874632 49.2189517,22.875393 C50.6967224,23.3232836 52.4515751,22.6834398 53.1596735,21.2437912 C54.1140671,19.4202363 54.0217064,17.2447673 53.6830507,15.2612514 C53.3751818,13.6616418 52.2668537,11.9660557 50.5735748,11.9020713 C48.849509,11.5501572 47.3101645,12.5739073 46.2018365,13.8216028" id="Shape" fill="#FFFFFF"></path>
                <path d="M1.06814415,13.0711363 C3.45032812,8.47426996 10.7206299,7.42808658 13.9071876,11.7079277 C13.659688,12.690706 12.7625018,13.3247565 12.1746902,14.1173197 C11.4321913,13.4198641 10.6278175,12.7224085 9.6068815,12.4370858 C7.44125971,11.6445226 4.84251356,12.8175161 3.85251502,14.9415854 C2.55314195,17.5411926 3.54314048,21.2820907 6.32751136,22.3599766 C8.40032079,23.3110524 10.6587549,22.3599766 12.2056277,20.8699579 C12.8243767,21.6308185 13.4121884,22.3916792 14,23.1842423 C12.7315644,24.7059636 10.9681295,25.815552 8.98813242,25.9740647 C6.11094918,26.1959824 2.98626631,24.9912864 1.37751869,22.4550842 C-0.354978746,19.7286669 -0.447791109,15.9560663 1.06814415,13.0711363" id="Path" fill="#FFFFFF"></path>
                <path d="M60.530437,10.4980842 C62.5421143,9.13895383 65.0642171,8.75966164 67.4061698,9.13895383 C69.0575467,9.39181529 70.7389486,10.3400458 71.4595494,11.9836453 C71.9399499,12.9002681 71.969975,13.9749293 72,14.9863751 C72,18.5580433 72,22.1297114 72,25.6697719 C70.9491238,25.6697719 69.9282727,25.6697719 68.8773965,25.6697719 C68.8773965,25.1324413 68.8473714,24.6267184 68.8473714,24.0893878 C66.715594,26.3335332 63.0225148,26.7128254 60.6805622,24.6267184 C59.0592103,23.2043726 58.6388599,20.675758 59.2994106,18.6528663 C59.7798112,17.1040899 61.1609627,16.0294287 62.6321894,15.5869211 C64.6738917,15.0179828 66.8657192,15.0811982 68.8473714,15.8081749 C68.9374465,14.5438676 68.8473714,12.9950911 67.616345,12.3313298 C65.7247679,11.414707 63.4728903,11.9836453 61.6413633,12.8686604 C61.3110879,12.0784683 60.9207624,11.2882763 60.530437,10.4980842 M62.5721393,18.9057278 C61.4912381,19.9171736 61.8815635,22.0032807 63.142615,22.667042 C65.0642171,23.6784879 67.4662199,22.8250804 68.7572963,21.1182656 C68.9374465,20.3280735 68.8173464,19.4746661 68.8173464,18.6528663 C67.9165954,18.3051818 67.0158444,18.0523204 66.0550433,18.0523204 C64.8840669,17.989105 63.5029154,17.9574973 62.5721393,18.9057278" id="Shape" fill="#FFFFFF"></path>
                <path d="M78.2114014,10.6328747 C80.1258907,8.7839409 83.3064133,8.51114738 85.6223278,9.7841838 C87.3824228,10.9056683 87.9382423,13.0880164 87.9691211,15.0278814 C88,18.331714 87.9691211,21.6355466 88,24.9696896 C86.9501188,25 85.9311164,25 84.8812352,25 C84.8812352,22.1205129 84.8812352,19.2107153 84.8812352,16.3312282 C84.7885986,14.997571 84.7268409,13.3911203 83.584323,12.4514982 C82.5653207,11.7240488 81.1448931,11.6937384 80.0023753,12.2090151 C78.736342,12.8758437 78.1805226,14.3610528 78.2114014,15.69471 C78.1805226,18.7863699 78.2422803,21.9083401 78.2114014,25 C77.1306413,25 76.0807601,25 75,25 C75,19.7866128 75.0308789,14.6035359 75,9.39014871 C76.0807601,9.29921754 77.1615202,9.32952793 78.2422803,9.39014871 C78.2114014,9.69325262 78.2114014,10.2994604 78.2114014,10.6328747" id="Path" fill="#FFFFFF"></path>
                <path d="M91.5704745,10.3744938 C94.1308221,8.98843533 97.2333609,8.51591541 99.9443172,9.58696056 C101.781743,10.3114911 103.046856,12.2330721 102.986613,14.2806584 C103.016734,18.0608178 102.986613,21.8409771 102.986613,25.6211365 L99.853952,25.6211365 C99.853952,25.1171152 99.853952,24.613094 99.853952,24.1090727 C98.6189608,25.1801179 97.0827522,26.0306537 95.4260567,25.9991524 C93.6187525,25.9676511 91.7210831,25.1486166 90.7571876,23.5105475 C89.793292,21.7464731 89.7029268,19.4153749 90.7571876,17.6828018 C91.5704745,16.3912474 93.0163178,15.6667169 94.4320394,15.4147062 C96.2393436,15.0366903 98.137013,15.2256983 99.8840737,15.7927222 C99.9443172,14.532669 99.853952,12.9576026 98.588839,12.3275761 C96.6610479,11.4455389 94.4621612,12.0440641 92.6247352,12.8630987 C92.2632744,12.0440641 91.8716918,11.2250296 91.5704745,10.3744938 M94.9441089,18.1238204 C94.2211873,18.3128284 93.4982656,18.753847 93.1368048,19.4783775 C92.654857,20.6439267 93.1368048,22.1874917 94.2814307,22.691513 C95.968248,23.5105475 97.9864043,22.9120223 99.3117607,21.6519692 C100.215413,20.9589399 99.853952,19.6358842 99.7937085,18.659343 C98.2876217,17.9033111 96.540561,17.9033111 94.9441089,18.1238204" id="Shape" fill="#FFFFFF"></path>
                <path d="M110.234176,10.6551363 C112.411026,8.35025328 116.858018,8.38058069 118.5684,11.2010296 C119.532433,10.1092429 120.838542,9.16909329 122.362337,9.07811106 C124.072719,8.95680143 126.031883,8.95680143 127.337993,10.2002251 C128.706298,11.5649585 128.923983,13.5665674 128.986179,15.3862118 C129.017277,18.600917 128.986179,21.7852948 128.986179,25 C127.928852,25 126.840427,25 125.7831,25 C125.752003,21.876277 125.814198,18.7828815 125.752003,15.6591585 C125.689807,14.3854074 125.50322,12.8387096 124.228208,12.1411792 C123.108685,11.6862681 121.678184,11.6862681 120.745249,12.5051081 C119.812313,13.4149303 119.687922,14.7796637 119.687922,15.99276 C119.687922,18.9951733 119.687922,21.9672593 119.687922,24.9696726 C118.599497,24.9696726 117.542171,24.9696726 116.453746,24.9696726 C116.453746,21.9672593 116.453746,18.9648459 116.453746,15.9624326 C116.422648,14.7796637 116.329354,13.4149303 115.489713,12.5051081 C114.183603,11.382994 111.820166,11.5952859 110.918329,13.0813289 C110.32747,14.0214785 110.234176,15.17392 110.234176,16.2657066 C110.234176,19.1771378 110.234176,22.0582415 110.234176,24.9393452 C109.145752,24.9393452 108.088425,24.9393452 107,24.9393452 C107,19.7533585 107,14.5370444 107,9.35105773 C108.088425,9.32073032 109.145752,9.32073032 110.234176,9.32073032 C110.234176,9.77564144 110.234176,10.2002251 110.234176,10.6551363" id="Path" fill="#FFFFFF"></path>
                <path d="M132.396511,12.0732436 C134.531467,8.57966926 139.868856,7.91872276 142.735797,10.8457716 C144.687757,12.8600847 145.206246,15.9130281 144.931752,18.651235 C141.332826,18.651235 137.703401,18.6827086 134.104476,18.651235 C134.287472,20.1619699 134.927959,21.7041784 136.239432,22.4910194 C138.069394,23.5611233 140.356846,22.9316504 142.003812,21.7671257 C142.5833,22.4595458 143.162788,23.1834396 143.742276,23.8758597 C141.515822,25.9216465 138.099893,26.6455403 135.35495,25.3551209 C133.219994,24.4109117 131.756024,22.2392303 131.298534,19.9416544 C130.688547,17.2978684 130.99354,14.3708196 132.396511,12.0732436 M135.324451,13.0804002 C134.622965,13.8357676 134.40947,14.8743978 134.073976,15.8186071 C134.958458,16.1333436 135.873439,16.0389226 136.78842,16.0389226 C138.496385,16.007449 140.204349,16.0703963 141.912314,16.007449 C141.759817,15.1576606 141.63782,14.2763986 141.11933,13.5525048 C139.868856,11.5696653 136.78842,11.3178762 135.324451,13.0804002" id="Shape" fill="#FFFFFF"></path>
                <path d="M15,10.1097064 C16.2919816,9.98628669 17.5470494,9.98628669 18.8390309,10.0171416 C18.986686,10.8810799 19.0235997,11.7758732 18.986686,12.6398114 C18.7652034,16.0955646 19.134341,19.5513178 18.9128584,22.976216 C18.8390309,23.994429 18.9128584,24.981787 18.986686,26 C17.6577906,26 16.3288953,26 15,26 L15,10.1097064 L15,10.1097064 Z" id="Path" fill="#FFFFFF"></path>
                <path d="M34,10 C34.990566,10 35.9811321,10 37,10.0308285 C36.9716981,15.3641618 37.0283019,20.6666667 36.9716981,26 C35.9811321,25.9691715 34.990566,25.9691715 34,25.9691715 C34,20.6358382 34,15.3333333 34,10" id="Path" fill="#FFFFFF"></path>
                <path d="M149.972851,17.7687861 C148.547511,15.1483622 146.710407,12.7129094 145.475113,10 C146.678733,10.0924855 147.914027,10.1233141 149.117647,10.1233141 C150.036199,11.8805395 151.049774,13.5452794 151.904977,15.3025048 C153.235294,13.7302505 153.742081,11.6339114 155.072398,10.1233141 C156.21267,10.0308285 157.321267,10.1541426 158.461538,10.0308285 C157.289593,12.743738 155.420814,15.1483622 153.995475,17.7379576 C155.674208,20.4816956 157.352941,23.2254335 159,25.9691715 C157.701357,26 156.434389,26 155.135747,25.9691715 C154.090498,23.9961464 152.9819,22.0231214 151.904977,20.0809249 C150.891403,22.1156069 149.751131,24.0578035 148.579186,26 C147.375566,25.9691715 146.171946,26 145,25.9691715 C146.647059,23.2254335 148.262443,20.4816956 149.972851,17.7687861" id="Path" fill="#FFFFFF"></path>
            </g>
        </g>
    </g>
</svg>