<svg width="56" height="72" viewBox="0 0 56 72" fill="none" xmlns="http://www.w3.org/2000/svg">
<path d="M42.1708 1.82405L42.1704 1.82361C41.9805 1.63327 41.7544 1.4828 41.5054 1.38108L42.1708 1.82405ZM42.1708 1.82405L54.8968 14.5502M42.1708 1.82405L54.8968 14.5502M54.8968 14.5502C54.8969 14.5502 54.8969 14.5503 54.8969 14.5503M54.8968 14.5502L54.8969 14.5503M54.8969 14.5503C55.2802 14.9363 55.4968 15.4573 55.5 16.0013V64.3637C55.5 68.305 52.305 71.5 48.3636 71.5H7.63636C3.69505 71.5 0.5 68.305 0.5 64.3637V8.36365C0.5 4.42235 3.69505 1.22729 7.63636 1.22729H40.7268C40.9937 1.22783 41.2581 1.28006 41.5054 1.38107L54.8969 14.5503ZM43.6262 9.06398L42.7726 8.21042V9.41753V13.4547V13.9547H43.2726H47.3098H48.5169L47.6633 13.1011L43.6262 9.06398ZM38.6818 5.81815V5.31815H38.1818H7.63636C5.95435 5.31815 4.59086 6.68164 4.59086 8.36365V64.3637C4.59086 66.0457 5.95435 67.4092 7.63636 67.4092H48.3635C49.8752 67.4092 51.1296 66.3078 51.3681 64.8636H51.4091V64.3637V18.5455V18.0455H50.9091H40.7273C39.5976 18.0455 38.6818 17.1297 38.6818 16V5.81815Z" fill="#EDEDED" stroke="#040B11"/>
</svg>
