<svg width="35" height="45" viewBox="0 0 35 45" fill="none" xmlns="http://www.w3.org/2000/svg">
<path d="M26.2237 0.817611L26.2242 0.818053L34.1775 8.77144C34.1775 8.77149 34.1776 8.77153 34.1776 8.77157C34.3824 8.97784 34.4981 9.25615 34.5 9.5468V39.7727C34.5 42.1325 32.587 44.0455 30.2273 44.0455H4.77272C2.41296 44.0455 0.5 42.1325 0.5 39.7727V4.77272C0.5 2.41296 2.41296 0.5 4.77272 0.5H25.4541C25.5966 0.500309 25.7378 0.528212 25.87 0.582179C26.0024 0.6363 26.1227 0.716357 26.2237 0.817611ZM27.399 5.07784L26.5454 4.22429V5.4314V7.9546V8.4546H27.0454H29.5686H30.7757L29.9222 7.60105L27.399 5.07784ZM24.3636 3.18178V2.68178H23.8636H4.77272C3.61792 2.68178 2.68178 3.61792 2.68178 4.77272V39.7727C2.68178 40.9275 3.61791 41.8637 4.77272 41.8637H30.2272C31.2097 41.8637 32.0339 41.1861 32.258 40.2727H32.3182V39.7727V11.1364V10.6364H31.8182H25.4546C24.852 10.6364 24.3636 10.148 24.3636 9.54545V3.18178Z" fill="#EDEDED" stroke="#040B11"/>
</svg>
