<svg width="25" height="31" viewBox="0 0 25 31" fill="none" xmlns="http://www.w3.org/2000/svg">
<path d="M14.375 5C14.03 5 13.75 4.73206 13.75 4.40191V2.39234C13.75 1.73325 13.1888 1.19617 12.5 1.19617C11.8112 1.19617 11.25 1.73325 11.25 2.39234V4.40191C11.25 4.73206 10.97 5 10.625 5C10.28 5 10 4.73325 10 4.40191V2.39234C10 1.07297 11.1213 0 12.5 0C13.8787 0 15 1.07297 15 2.39234V4.40191C15 4.73325 14.72 5 14.375 5Z" fill="url(#paint0_radial)"/>
<path d="M12.0833 30.8333C9.55595 30.8333 7.5 28.8708 7.5 26.4583C7.5 26.1133 7.79333 25.8333 8.15476 25.8333C8.51619 25.8333 8.80952 26.1133 8.80952 26.4583C8.80952 28.1808 10.2788 29.5833 12.0833 29.5833C13.8879 29.5833 15.3571 28.1808 15.3571 26.4583C15.3571 26.1133 15.6505 25.8333 16.0119 25.8333C16.3733 25.8333 16.6667 26.1133 16.6667 26.4583C16.6667 28.8708 14.6107 30.8333 12.0833 30.8333Z" fill="url(#paint1_radial)"/>
<path fill-rule="evenodd" clip-rule="evenodd" d="M0 24.7917C0 25.8254 0.84125 26.6667 1.875 26.6667H23.125C24.16 26.6667 25 25.8254 25 24.7917C25 24.2429 24.7612 23.7242 24.3337 23.3579C22.3737 21.7017 21.25 19.2804 21.25 16.7142V12.9167C21.25 8.09167 17.325 4.16667 12.5 4.16667C7.675 4.16667 3.75 8.09167 3.75 12.9167V16.7142C3.75 19.2792 2.62625 21.7017 0.65625 23.3667C0.23875 23.7242 0 24.2429 0 24.7917ZM5 12.9167C5 8.78042 8.36375 5.41667 12.5 5.41667C16.6362 5.41667 20 8.78042 20 12.9167V16.7142C20 19.6479 21.2863 22.4179 23.5312 24.3167C23.67 24.4354 23.75 24.6092 23.75 24.7917C23.75 25.1367 23.47 25.4167 23.125 25.4167H1.875C1.53 25.4167 1.25 25.1367 1.25 24.7917C1.25 24.6092 1.33 24.4354 1.47375 24.3129C3.715 22.4179 5 19.6492 5 16.7142V12.9167Z" fill="url(#paint2_radial)"/>
<defs>
<radialGradient id="paint0_radial" cx="0" cy="0" r="1" gradientUnits="userSpaceOnUse" gradientTransform="translate(16.4537 2.5) scale(16.226 16.2041)">
<stop stop-color="#A4ADBA"/>
<stop offset="1" stop-color="#FAFAFA"/>
</radialGradient>
<radialGradient id="paint1_radial" cx="0" cy="0" r="1" gradientUnits="userSpaceOnUse" gradientTransform="translate(19.3317 28.3333) scale(29.7476 16.2041)">
<stop stop-color="#A4ADBA"/>
<stop offset="1" stop-color="#FAFAFA"/>
</radialGradient>
<radialGradient id="paint2_radial" cx="0" cy="0" r="1" gradientUnits="userSpaceOnUse" gradientTransform="translate(32.2683 15.4167) scale(81.1299 72.9182)">
<stop stop-color="#A4ADBA"/>
<stop offset="1" stop-color="#FAFAFA"/>
</radialGradient>
</defs>
</svg>
