<svg width="40" height="29" viewBox="0 0 40 29" fill="none" xmlns="http://www.w3.org/2000/svg">
<g id="Menu">
<path id="Path" d="M23.0926 3H1.8733C0.851499 3 0 2.31818 0 1.5C0 0.681818 0.851499 0 1.8733 0H23.1267C24.1485 0 25 0.681818 25 1.5C24.9659 2.31818 24.1485 3 23.0926 3Z" fill="#FFE000"/>
<rect id="Rectangle" y="13" width="40" height="3" rx="1.5" fill="#FFE000"/>
<path id="Path_2" d="M38.0926 29.0005H16.8733C15.8515 29.0005 15 28.3187 15 27.5005C15 26.6823 15.8515 26.0005 16.8733 26.0005H38.1267C39.1485 26.0005 40 26.6823 40 27.5005C39.9659 28.3187 39.1485 29.0005 38.0926 29.0005Z" fill="#FFE000"/>
</g>
</svg>
