<?xml version="1.0" encoding="UTF-8"?>
<svg width="19px" height="17px" viewBox="0 0 19 17" version="1.1" xmlns="http://www.w3.org/2000/svg" xmlns:xlink="http://www.w3.org/1999/xlink">
    <title>A3C5A358-F6A4-434F-B8C8-79C2B09EC1D5</title>
    <defs>
        <radialGradient cx="129.073274%" cy="50%" fx="129.073274%" fy="50%" r="217.218919%" gradientTransform="translate(1.290733,0.500000),scale(0.500000,1.000000),scale(1.000000,0.998649),translate(-1.290733,-0.500000)" id="radialGradient-1">
            <stop stop-color="#A4ADBA" offset="0%"></stop>
            <stop stop-color="#FAFAFA" offset="100%"></stop>
        </radialGradient>
    </defs>
    <g id="User" stroke="none" stroke-width="1" fill="none" fill-rule="evenodd">
        <g id="PICK-UP-FTL-1" transform="translate(-205.000000, -46.000000)" fill="url(#radialGradient-1)" fill-rule="nonzero">
            <g id="exchange" transform="translate(205.000000, 46.000000)">
                <path d="M16.9643144,9.41633448 C16.9643144,11.0602886 16.0143385,11.1777139 15.8333908,11.1777139 L1.92868429,11.1777139 L4.91997739,8.07181484 L4.1226762,7.23809524 L0.164443369,11.3479806 C-0.0548144564,11.5769966 -0.0548144564,11.9468129 0.164443369,12.1758289 L4.1226762,16.2857143 L4.91997739,15.4578659 L1.92868429,12.3519669 L15.8333908,12.3519669 C16.6137281,12.3519669 18.0952381,11.7648404 18.0952381,9.41633448 L18.0952381,7.65495504 L16.9643144,7.65495504 L16.9643144,9.41633448 Z" id="Path"></path>
                <path d="M2.03568557,6.87525107 C2.03568557,5.23129693 2.98566145,5.11387164 3.16660924,5.11387164 L17.0713157,5.11387164 L14.0800226,8.21977071 L14.8773238,9.04761905 L18.8355566,4.93773369 C19.0548145,4.70871767 19.0548145,4.33890138 18.8355566,4.10988536 L14.8773238,0 L14.074368,0.833719601 L17.0713157,3.93961868 L3.16660924,3.93961868 C2.38627191,3.93961868 0.904761905,4.52674516 0.904761905,6.87525107 L0.904761905,8.63663051 L2.03568557,8.63663051 L2.03568557,6.87525107 Z" id="Path"></path>
            </g>
        </g>
    </g>
</svg>