<?xml version="1.0" encoding="UTF-8"?>
<svg width="14px" height="14px" viewBox="0 0 14 14" version="1.1" xmlns="http://www.w3.org/2000/svg" xmlns:xlink="http://www.w3.org/1999/xlink">
    <title>286B9DC7-D4CD-4C1E-B0E1-7CBFB74E121D</title>
    <defs>
        <radialGradient cx="129.073274%" cy="50%" fx="129.073274%" fy="50%" r="108.60946%" gradientTransform="translate(1.290733,0.500000),scale(1.000000,0.998649),translate(-1.290733,-0.500000)" id="radialGradient-1">
            <stop stop-color="#A4ADBA" offset="0%"></stop>
            <stop stop-color="#FAFAFA" offset="100%"></stop>
        </radialGradient>
        <radialGradient cx="129.073274%" cy="50%" fx="129.073274%" fy="50%" r="108.60946%" gradientTransform="translate(1.290733,0.500000),scale(1.000000,0.666667),scale(1.000000,0.998649),translate(-1.290733,-0.500000)" id="radialGradient-2">
            <stop stop-color="#A4ADBA" offset="0%"></stop>
            <stop stop-color="#FAFAFA" offset="100%"></stop>
        </radialGradient>
    </defs>
    <g id="User" stroke="none" stroke-width="1" fill="none" fill-rule="evenodd">
        <g id="PICK-UP-FTL-1.1" transform="translate(-231.000000, -194.000000)" fill-rule="nonzero">
            <g id="question" transform="translate(231.000000, 194.000000)">
                <path d="M6.99427397,9.625 C6.51391076,9.625 6.125,10.0227273 6.125,10.5 C6.125,10.9658951 6.5024587,11.375 6.99427397,11.375 C7.48608924,11.375 7.875,10.9659277 7.875,10.5 C7.875,10.0227273 7.4747028,9.625 6.99427397,9.625 Z" id="Path" fill="url(#radialGradient-1)"></path>
                <path d="M6.93169668,3.5 C5.77925885,3.5 5.25,4.31709839 5.25,4.86865812 C5.25,5.26702471 5.53168689,5.45086819 5.76218915,5.45086819 C6.22314469,5.45086819 6.03535343,4.66439084 6.90607988,4.66439084 C7.3329205,4.66439084 7.67438809,4.88911122 7.67438809,5.35894645 C7.67438809,5.91053548 7.19633836,6.22714829 6.91462698,6.51314005 C6.6670795,6.76848146 6.34268161,7.18727186 6.34268161,8.06567094 C6.34268161,8.59677757 6.46216956,8.75 6.81218425,8.75 C7.23047777,8.75 7.3158263,8.52530893 7.3158263,8.33123891 C7.3158263,7.80010298 7.32439789,7.49368742 7.79390053,7.05450253 C8.0243783,6.84000871 8.75,6.1454531 8.75,5.18532953 C8.75,4.22520595 8.0243783,3.5 6.93169668,3.5 Z" id="Path" fill="url(#radialGradient-2)"></path>
                <path d="M7,0 C3.13129688,0 0,3.13077734 0,7 L0,13.453125 C0,13.7551641 0.244835938,14 0.546875,14 L7,14 C10.8686758,14 14,10.8692227 14,7 C14,3.13129688 10.8692227,0 7,0 Z M7,12.90625 L1.09375,12.90625 L1.09375,7 C1.09375,3.73578516 3.73534766,1.09375 7,1.09375 C10.2642148,1.09375 12.90625,3.73534766 12.90625,7 C12.90625,10.2642148 10.2646523,12.90625 7,12.90625 Z" id="Shape" fill="url(#radialGradient-1)" transform="translate(7.000000, 7.000000) scale(-1, 1) translate(-7.000000, -7.000000) "></path>
            </g>
        </g>
    </g>
</svg>