<?xml version="1.0" encoding="UTF-8"?>
<svg width="22px" height="19px" viewBox="0 0 22 19" version="1.1" xmlns="http://www.w3.org/2000/svg" xmlns:xlink="http://www.w3.org/1999/xlink">
    <title>EB41050A-23AC-4BED-B86D-034033781CB5</title>
    <defs>
        <radialGradient cx="36.4167039%" cy="43.9573458%" fx="36.4167039%" fy="43.9573458%" r="88.9384117%" gradientTransform="translate(0.364167,0.439573),scale(0.850000,1.000000),scale(1.000000,0.998649),translate(-0.364167,-0.439573)" id="radialGradient-1">
            <stop stop-color="#A4ADBA" offset="0%"></stop>
            <stop stop-color="#A4ADBA" offset="0%"></stop>
            <stop stop-color="#FAFAFA" offset="100%"></stop>
        </radialGradient>
        <radialGradient cx="41.3164613%" cy="50%" fx="41.3164613%" fy="50%" r="76.2298984%" gradientTransform="translate(0.413165,0.500000),scale(0.850000,1.000000),scale(1.000000,0.997072),translate(-0.413165,-0.500000)" id="radialGradient-2">
            <stop stop-color="#A4ADBA" offset="0%"></stop>
            <stop stop-color="#FAFAFA" offset="100%"></stop>
        </radialGradient>
        <radialGradient cx="36.4167039%" cy="43.9573458%" fx="36.4167039%" fy="43.9573458%" r="598.312504%" gradientTransform="translate(0.364167,0.439573),scale(0.126351,1.000000),scale(1.000000,0.998649),translate(-0.364167,-0.439573)" id="radialGradient-3">
            <stop stop-color="#A4ADBA" offset="0%"></stop>
            <stop stop-color="#A4ADBA" offset="0%"></stop>
            <stop stop-color="#FAFAFA" offset="100%"></stop>
        </radialGradient>
        <radialGradient cx="36.4167039%" cy="43.9573458%" fx="36.4167039%" fy="43.9573458%" r="75.5976499%" gradientTransform="translate(0.364167,0.439573),scale(1.000000,0.801198),scale(1.000000,0.998649),translate(-0.364167,-0.439573)" id="radialGradient-4">
            <stop stop-color="#A4ADBA" offset="0%"></stop>
            <stop stop-color="#A4ADBA" offset="0%"></stop>
            <stop stop-color="#FAFAFA" offset="100%"></stop>
        </radialGradient>
    </defs>
    <g id="User" stroke="none" stroke-width="1" fill="none" fill-rule="evenodd">
        <g id="PICK-UP-FTL-1" transform="translate(-58.000000, -684.000000)" fill-rule="nonzero">
            <g id="Group" transform="translate(59.000000, 685.000000)">
                <path d="M17.5184017,2.7242236 L12.2607781,2.7242236 L12.2607781,2.28074534 C12.2607781,1.0136646 11.2302839,0 9.98948475,0 C8.74868559,0 7.71819138,1.03478261 7.71819138,2.28074534 L7.71819138,2.7242236 L2.46056782,2.7242236 C1.11461619,2.7242236 0,3.82236025 0,5.19503106 L0,14.5291925 C0,15.8807453 1.0935857,17 2.46056782,17 L17.5394322,17 C18.8853838,17 20,15.9018634 20,14.5291925 L20,5.17391304 C19.9789695,3.82236025 18.8853838,2.7242236 17.5184017,2.7242236 Z M8.49631966,2.28074534 C8.49631966,1.45714286 9.16929548,0.78136646 9.98948475,0.78136646 C10.809674,0.78136646 11.4826498,1.45714286 11.4826498,2.28074534 L11.4826498,4.47701863 L8.49631966,4.47701863 L8.49631966,2.28074534 Z M19.2008412,14.5291925 C19.2008412,15.4583851 18.4437434,16.1975155 17.5394322,16.1975155 L2.46056782,16.1975155 C1.53522608,16.1975155 0.79915878,15.4372671 0.79915878,14.5291925 L0.79915878,5.17391304 C0.79915878,4.2447205 1.55625657,3.50559006 2.46056782,3.50559006 L7.71819138,3.50559006 L7.71819138,4.85714286 C7.71819138,5.06832298 7.88643533,5.25838509 8.11777077,5.25838509 L11.8822292,5.25838509 C12.0925342,5.25838509 12.2818086,5.08944099 12.2818086,4.85714286 L12.2818086,3.50559006 L17.5394322,3.50559006 C18.4647739,3.50559006 19.2008412,4.2447205 19.2008412,5.17391304 L19.2008412,14.5291925 Z" id="Shape" stroke="url(#radialGradient-2)" stroke-width="0.5" fill="url(#radialGradient-1)"></path>
                <path d="M16.6982124,7.20124224 L11.1461619,7.20124224 C10.935857,7.20124224 10.7465825,7.37018634 10.7465825,7.60248447 C10.7465825,7.83478261 10.9148265,8.00372671 11.1461619,8.00372671 L16.6982124,8.00372671 C16.9085174,8.00372671 17.0977918,7.83478261 17.0977918,7.60248447 C17.0977918,7.37018634 16.9295478,7.20124224 16.6982124,7.20124224 Z" id="Path" fill="url(#radialGradient-3)"></path>
                <path d="M16.6982124,10.3267081 L11.1461619,10.3267081 C10.935857,10.3267081 10.7465825,10.4956522 10.7465825,10.7279503 C10.7465825,10.9391304 10.9148265,11.1291925 11.1461619,11.1291925 L16.6982124,11.1291925 C16.9085174,11.1291925 17.0977918,10.9602484 17.0977918,10.7279503 C17.0977918,10.4956522 16.9295478,10.3267081 16.6982124,10.3267081 Z" id="Path" fill="url(#radialGradient-3)"></path>
                <path d="M16.6982124,13.4310559 L11.1461619,13.4310559 C10.935857,13.4310559 10.7465825,13.6 10.7465825,13.8322981 C10.7465825,14.0434783 10.9148265,14.2335404 11.1461619,14.2335404 L16.6982124,14.2335404 C16.9085174,14.2335404 17.0977918,14.0645963 17.0977918,13.8322981 C17.0977918,13.6 16.9295478,13.4310559 16.6982124,13.4310559 Z" id="Path" fill="url(#radialGradient-3)"></path>
                <path d="M7.00315457,10.4534161 C7.52891693,10.0732919 7.86540484,9.46086957 7.86540484,8.76397516 C7.86540484,7.60248447 6.9190326,6.65217391 5.76235542,6.65217391 C4.60567823,6.65217391 3.65930599,7.60248447 3.65930599,8.76397516 C3.65930599,9.46086957 3.9957939,10.0732919 4.52155626,10.4534161 C3.57518402,11.0236025 2.79705573,12.2062112 2.79705573,13.7055901 C2.79705573,13.9167702 2.96529968,14.1068323 3.19663512,14.1068323 C3.40694006,14.1068323 3.59621451,13.9378882 3.59621451,13.7055901 C3.59621451,12.2484472 4.66876972,10.8757764 5.78338591,10.8757764 C6.9190326,10.8757764 7.97055731,12.2484472 7.97055731,13.7055901 C7.97055731,13.9167702 8.13880126,14.1068323 8.3701367,14.1068323 C8.58044164,14.1068323 8.76971609,13.9378882 8.76971609,13.7055901 C8.7276551,12.2062112 7.94952681,11.0236025 7.00315457,10.4534161 Z M5.74132492,10.0732919 C5.00525762,10.0732919 4.41640379,9.48198758 4.41640379,8.74285714 C4.41640379,8.00372671 5.00525762,7.41242236 5.74132492,7.41242236 C6.47739222,7.41242236 7.06624606,8.00372671 7.06624606,8.74285714 C7.06624606,9.48198758 6.47739222,10.0732919 5.74132492,10.0732919 Z" id="Shape" fill="url(#radialGradient-4)"></path>
            </g>
        </g>
    </g>
</svg>