<?xml version="1.0" encoding="UTF-8" standalone="no"?>
<!-- Generated by IcoMoon.io -->

<svg
   version="1.1"
   width="768"
   height="768"
   viewBox="0 0 768 768"
   id="svg7"
   sodipodi:docname="trailer.svg"
   inkscape:version="1.2.1 (9c6d41e, 2022-07-14)"
   xmlns:inkscape="http://www.inkscape.org/namespaces/inkscape"
   xmlns:sodipodi="http://sodipodi.sourceforge.net/DTD/sodipodi-0.dtd"
   xmlns="http://www.w3.org/2000/svg"
   xmlns:svg="http://www.w3.org/2000/svg">
  <defs
     id="defs11" />
  <sodipodi:namedview
     id="namedview9"
     pagecolor="#ffffff"
     bordercolor="#999999"
     borderopacity="1"
     inkscape:showpageshadow="0"
     inkscape:pageopacity="0"
     inkscape:pagecheckerboard="0"
     inkscape:deskcolor="#d1d1d1"
     showgrid="false"
     inkscape:zoom="0.30729167"
     inkscape:cx="382.37288"
     inkscape:cy="384"
     inkscape:window-width="1367"
     inkscape:window-height="456"
     inkscape:window-x="0"
     inkscape:window-y="565"
     inkscape:window-maximized="0"
     inkscape:current-layer="svg7" />
  <title
     id="title2" />
  <g
     id="icomoon-ignore" />
  <path
     d="M759.685 473.039v-227.285c0-19.354-15.353-35.167-34.143-35.167h-680.795c-19.707 0-35.747 16.521-35.747 36.818v189.758c0 19.825 15.582 35.876 34.601 35.876h42.622c-2.291 6.137-3.667 12.98-3.667 20.060 0 30.682 24.061 55.465 53.849 55.465s53.849-24.783 53.849-55.465c0-7.081-1.375-13.924-3.666-20.060h28.415c-2.291 6.137-3.667 12.98-3.667 20.060 0 30.682 24.061 55.465 53.848 55.465 29.791 0 53.849-24.783 53.849-55.465 0-7.081-1.375-13.924-3.666-20.060h189.046c9.625 0 17.416-8.026 17.416-17.938 0-4.484-1.833-8.497-4.583-11.565s-6.874-4.721-11.228-4.721l-365.719-0.708c-1.145 0-2.521-0.236-3.666-0.236s-2.291 0-3.437 0l-88.451-0.236v-191.646h680.795v191.646h-115.49l0.458 0.236c-27.958 1.888-50.184 25.961-50.184 55.228 0 30.682 24.062 55.465 53.849 55.465s53.849-24.783 53.849-55.465c0-7.081-1.375-13.924-3.666-20.296h95.324v0.236zM264.727 473.039c10.77 0 19.479 8.968 19.479 20.060s-8.709 20.063-19.479 20.063c-10.769 0-19.477-8.97-19.477-20.063s8.708-20.060 19.477-20.060zM136.177 473.039c10.77 0 19.477 8.968 19.477 20.060s-8.708 20.063-19.477 20.063c-10.77 0-19.478-8.97-19.478-20.063s8.708-20.060 19.478-20.060zM613.947 513.162c-10.77 0-19.477-8.97-19.477-20.063s8.707-20.060 19.477-20.060c10.77 0 19.479 8.968 19.479 20.060s-8.709 20.063-19.479 20.063z"
     id="path5"
     style="fill:#ffffff" />
</svg>
