<?xml version="1.0" encoding="UTF-8" standalone="no"?>
<!-- Generated by IcoMoon.io -->

<svg
   version="1.1"
   width="707"
   height="768"
   viewBox="0 0 707 768"
   id="svg7"
   sodipodi:docname="truck.svg"
   inkscape:version="1.2.1 (9c6d41e, 2022-07-14)"
   xmlns:inkscape="http://www.inkscape.org/namespaces/inkscape"
   xmlns:sodipodi="http://sodipodi.sourceforge.net/DTD/sodipodi-0.dtd"
   xmlns="http://www.w3.org/2000/svg"
   xmlns:svg="http://www.w3.org/2000/svg">
  <defs
     id="defs11" />
  <sodipodi:namedview
     id="namedview9"
     pagecolor="#ffffff"
     bordercolor="#999999"
     borderopacity="1"
     inkscape:showpageshadow="0"
     inkscape:pageopacity="0"
     inkscape:pagecheckerboard="0"
     inkscape:deskcolor="#d1d1d1"
     showgrid="false"
     inkscape:zoom="0.30729167"
     inkscape:cx="353.08475"
     inkscape:cy="384"
     inkscape:window-width="1367"
     inkscape:window-height="456"
     inkscape:window-x="0"
     inkscape:window-y="565"
     inkscape:window-maximized="0"
     inkscape:current-layer="svg7" />
  <title
     id="title2" />
  <g
     id="icomoon-ignore" />
  <path
     d="M648.539 627.726v-118.429c0-25.445-20.613-46.074-46.040-46.074h-12.036v-432.356c0-3.868-1.942-7.477-5.164-9.609l-29.224-19.331c-7.655-5.061-17.857 0.429-17.857 9.609v138.858l-8.709-23.51c-11.714-31.618-41.85-52.603-75.55-52.603h-201.217c-33.896 0-64.168 21.228-75.737 53.111l-8.346 23.001v-138.858c0-9.178-10.204-14.67-17.857-9.609l-29.227 19.329c-3.224 2.132-5.164 5.741-5.164 9.609v432.357h-12.034c-25.428 0-46.042 20.629-46.042 46.074v118.429h-19.615c-6.356 0-11.51 5.158-11.51 11.52v63.677c0 6.362 5.153 11.52 11.51 11.52h49.657v30.52c0 12.725 10.306 23.037 23.021 23.037h61.002c12.715 0 23.021-10.313 23.021-23.037v-30.52h316.035v30.52c0 12.725 10.306 23.037 23.018 23.037h61.003c12.715 0 23.021-10.313 23.021-23.037v-30.52h49.656c6.359 0 11.511-5.158 11.511-11.52v-63.677c0-6.362-5.152-11.517-11.511-11.517l-19.618-0.003zM183.911 214.557h339.055v113.492h-339.055v-113.492zM176.026 595.492h-39.322c-12.015 0-21.755-9.748-21.755-21.771v-0.547c0-12.024 9.74-21.771 21.755-21.771h39.322c12.015 0 21.755 9.748 21.755 21.771v0.547c0.001 12.024-9.739 21.771-21.754 21.771zM431.687 601.912h-156.498c-12.715 0-23.021-10.315-23.021-23.037v-145.963c0-12.724 10.306-23.037 23.021-23.037h156.498c12.715 0 23.021 10.315 23.021 23.037v145.963c0 12.721-10.306 23.037-23.021 23.037zM570.173 595.492h-39.322c-12.014 0-21.756-9.748-21.756-21.771v-0.547c0-12.024 9.741-21.771 21.756-21.771h39.322c12.014 0 21.756 9.748 21.756 21.771v0.547c0 12.024-9.741 21.771-21.756 21.771zM428.188 494.183h-149.867c-6.294 0-11.396-5.106-11.396-11.406v-0.23c0-6.298 5.102-11.403 11.396-11.403h149.867c6.295 0 11.394 5.106 11.394 11.403v0.23c0 6.301-5.099 11.406-11.394 11.406zM428.188 448.106h-149.867c-6.294 0-11.396-5.106-11.396-11.403v-0.23c0-6.298 5.102-11.403 11.396-11.403h149.867c6.295 0 11.394 5.106 11.394 11.403v0.23c0 6.298-5.099 11.403-11.394 11.403zM428.188 586.331h-149.867c-6.294 0-11.396-5.106-11.396-11.403v-0.23c0-6.298 5.102-11.403 11.396-11.403h149.867c6.295 0 11.394 5.106 11.394 11.403v0.23c0 6.298-5.099 11.403-11.394 11.403zM428.188 540.257h-149.867c-6.294 0-11.396-5.106-11.396-11.403v-0.23c0-6.298 5.102-11.403 11.396-11.403h149.867c6.295 0 11.394 5.106 11.394 11.403v0.23c0 6.298-5.099 11.403-11.394 11.403z"
     id="path5"
     style="fill:#ffffff" />
</svg>
