<svg width="27" height="32" viewBox="0 0 27 32" fill="none" xmlns="http://www.w3.org/2000/svg">
<path d="M12.8924 1.0144C6.60323 1.312 1.40749 6.4276 1.02396 12.7075C0.737998 17.3907 3.0361 21.5599 6.62867 23.9266C9.00528 25.4922 11.0119 27.5558 12.4352 30.0191L12.7673 30.5939C13.0802 31.1354 13.8622 31.1354 14.175 30.5939L14.4748 30.0751C15.8699 27.6606 17.7776 25.5554 20.1403 24.0725C23.66 21.8633 26 17.951 26 13.4909C26 6.39107 20.0721 0.67465 12.8924 1.0144Z" fill="url(#paint0_linear_1749_9180)"/>
<g filter="url(#filter0_ii_1749_9180)">
<path d="M12.8924 1.0144C6.60323 1.312 1.40749 6.4276 1.02396 12.7075C0.737998 17.3907 3.0361 21.5599 6.62867 23.9266C9.00528 25.4922 11.0119 27.5558 12.4352 30.0191L12.7673 30.5939C13.0802 31.1354 13.8622 31.1354 14.175 30.5939L14.4748 30.0751C15.8699 27.6606 17.7776 25.5554 20.1403 24.0725C23.66 21.8633 26 17.951 26 13.4909C26 6.39107 20.0721 0.67465 12.8924 1.0144Z" fill="url(#paint1_linear_1749_9180)"/>
</g>
<path d="M12.8924 1.0144C6.60323 1.312 1.40749 6.4276 1.02396 12.7075C0.737998 17.3907 3.0361 21.5599 6.62867 23.9266C9.00528 25.4922 11.0119 27.5558 12.4352 30.0191L12.7673 30.5939C13.0802 31.1354 13.8622 31.1354 14.175 30.5939L14.4748 30.0751C15.8699 27.6606 17.7776 25.5554 20.1403 24.0725C23.66 21.8633 26 17.951 26 13.4909C26 6.39107 20.0721 0.67465 12.8924 1.0144Z" stroke="url(#paint2_radial_1749_9180)"/>
<path d="M20.192 10.4137C19.1603 9.09726 17.3349 8.63762 15.7745 9.30143C15.096 9.58581 14.4908 10.0653 14 10.7015C13.5092 10.0637 12.904 9.58425 12.2255 9.30143C10.6651 8.63762 8.83968 9.09726 7.80796 10.4137C7.27936 11.0864 7 11.9271 7 12.8447C7 14.1651 7.81085 15.6138 9.40979 17.1521C10.7127 18.405 12.2524 19.4312 13.054 19.9312C13.6307 20.2896 14.3693 20.2896 14.946 19.9312C15.747 19.4312 17.2873 18.405 18.5902 17.1521C20.1892 15.6144 21 14.1651 21 12.8447C21 11.9271 20.7206 11.0864 20.192 10.4137Z" fill="#050B10"/>
<defs>
<filter id="filter0_ii_1749_9180" x="-1" y="-1" width="29" height="34" filterUnits="userSpaceOnUse" color-interpolation-filters="sRGB">
<feFlood flood-opacity="0" result="BackgroundImageFix"/>
<feBlend mode="normal" in="SourceGraphic" in2="BackgroundImageFix" result="shape"/>
<feColorMatrix in="SourceAlpha" type="matrix" values="0 0 0 0 0 0 0 0 0 0 0 0 0 0 0 0 0 0 127 0" result="hardAlpha"/>
<feOffset dx="-2" dy="-2"/>
<feGaussianBlur stdDeviation="1.5"/>
<feComposite in2="hardAlpha" operator="arithmetic" k2="-1" k3="1"/>
<feColorMatrix type="matrix" values="0 0 0 0 0.553906 0 0 0 0 0.518982 0 0 0 0 0.0300483 0 0 0 1 0"/>
<feBlend mode="normal" in2="shape" result="effect1_innerShadow_1749_9180"/>
<feColorMatrix in="SourceAlpha" type="matrix" values="0 0 0 0 0 0 0 0 0 0 0 0 0 0 0 0 0 0 127 0" result="hardAlpha"/>
<feOffset dx="2" dy="2"/>
<feGaussianBlur stdDeviation="1.5"/>
<feComposite in2="hardAlpha" operator="arithmetic" k2="-1" k3="1"/>
<feColorMatrix type="matrix" values="0 0 0 0 0.779004 0 0 0 0 0.72707 0 0 0 0 0 0 0 0 1 0"/>
<feBlend mode="normal" in2="effect1_innerShadow_1749_9180" result="effect2_innerShadow_1749_9180"/>
</filter>
<linearGradient id="paint0_linear_1749_9180" x1="1251" y1="1" x2="1430.35" y2="2639.95" gradientUnits="userSpaceOnUse">
<stop stop-color="#1E1F21"/>
<stop offset="1" stop-color="#1C1E21"/>
</linearGradient>
<linearGradient id="paint1_linear_1749_9180" x1="13.5" y1="1" x2="13.5" y2="31" gradientUnits="userSpaceOnUse">
<stop stop-color="#FFEE00"/>
<stop offset="1" stop-color="#918700"/>
</linearGradient>
<radialGradient id="paint2_radial_1749_9180" cx="0" cy="0" r="1" gradientUnits="userSpaceOnUse" gradientTransform="translate(3072.18 -882.309) rotate(-85.7379) scale(3020.59 4342.48)">
<stop stop-color="#1D1F21"/>
<stop offset="1" stop-color="#202223"/>
</radialGradient>
</defs>
</svg>
