<svg width="29" height="23" viewBox="0 0 29 23" fill="none" xmlns="http://www.w3.org/2000/svg">
<path d="M26.6972 3.21165L26.6977 3.21217C27.7087 4.49885 28.25 6.11438 28.25 7.8953C28.25 10.403 26.7035 13.2563 23.4547 16.3805C20.8164 18.9176 17.6877 21.0032 16.0536 22.0234C15.031 22.6589 13.7189 22.6589 12.6964 22.0234C11.0612 21.0033 7.93377 18.9177 5.29533 16.3805C2.04649 13.255 0.5 10.403 0.5 7.8953C0.5 6.11438 1.04125 4.49885 2.05235 3.21217L2.05276 3.21165C4.02924 0.689641 7.53491 -0.197266 10.5352 1.07911L10.5386 1.08052C11.8431 1.62427 13.0181 2.55079 13.9787 3.79917L14.3745 4.31352L14.7709 3.79964C15.7316 2.5542 16.907 1.62722 18.2124 1.08015L18.2148 1.0791C21.2151 -0.197266 24.7208 0.689641 26.6972 3.21165Z" stroke="#FFEE00"/>
</svg>
