<svg width="26" height="26" viewBox="0 0 26 26" fill="none" xmlns="http://www.w3.org/2000/svg">
<g clip-path="url(#clip0_1095_52)">
<path d="M22.2295 9.22975C22.2295 16.3922 16.0643 23.3535 13.8115 25.6582C13.3659 26.114 12.6335 26.114 12.188 25.6582C9.93522 23.3535 3.77002 16.3922 3.77002 9.22975C3.77002 4.13227 7.90234 0 12.9998 0C18.0972 0 22.2295 4.13227 22.2295 9.22975Z" fill="#292C30"/>
<path d="M15.6068 0.373352C17.5834 2.06615 18.8365 4.58038 18.8365 7.38686C18.8365 14.5028 12.7512 21.4201 10.4629 23.7697C11.1396 24.5593 11.7412 25.2008 12.1883 25.6582C12.6338 26.114 13.3663 26.114 13.8118 25.6582C16.0646 23.3536 22.2298 16.3922 22.2298 9.22976C22.2298 5.03771 19.4347 1.49841 15.6068 0.373352V0.373352Z" fill="#1C232A"/>
<path d="M12.9994 16.2235C16.8554 16.2235 19.9813 13.0976 19.9813 9.2416C19.9813 5.38562 16.8554 2.25974 12.9994 2.25974C9.14346 2.25974 6.01758 5.38562 6.01758 9.2416C6.01758 13.0976 9.14346 16.2235 12.9994 16.2235Z" fill="#1C232A"/>
<path d="M16.6794 3.30713C17.3435 4.37567 17.7274 5.63697 17.7274 6.98755C17.7274 10.8435 14.6015 13.9694 10.7455 13.9694C9.39489 13.9694 8.13343 13.5853 7.06494 12.9212C8.29674 14.9033 10.4942 16.2234 12.9995 16.2234C16.8555 16.2234 19.9814 13.0976 19.9814 9.24158C19.9814 6.73623 18.6615 4.53893 16.6794 3.30713V3.30713Z" fill="#040B11"/>
<path d="M15.5656 6.50049C15.3384 6.42315 15.095 6.381 14.8417 6.38065C14.238 6.37973 13.6893 6.61622 13.284 7.00201C13.1219 7.15628 12.8648 7.15308 12.7018 6.99982C12.2927 6.61551 11.7401 6.38212 11.1328 6.38877C9.72517 6.40426 8.7002 7.68954 8.93557 9.07739C9.01738 9.55981 9.26631 9.90989 9.80932 10.4506C10.3775 11.0163 12.1641 12.7245 12.7899 13.3221C12.9125 13.4391 13.105 13.4386 13.227 13.321C13.872 12.6992 15.7535 10.8837 16.2103 10.425C16.764 9.86881 17.0921 9.36684 17.0932 8.63899C17.0946 7.64688 16.4553 6.80345 15.5656 6.50049" fill="#FFE000"/>
</g>
<defs>
<clipPath id="clip0_1095_52">
<rect width="26" height="26" fill="white"/>
</clipPath>
</defs>
</svg>
