<svg width="26" height="26" viewBox="0 0 26 26" fill="none" xmlns="http://www.w3.org/2000/svg">
<g clip-path="url(#clip0_1095_67)">
<path d="M22.2295 9.22975C22.2295 16.3922 16.0643 23.3535 13.8115 25.6582C13.3659 26.114 12.6335 26.114 12.188 25.6582C9.93522 23.3535 3.77002 16.3922 3.77002 9.22975C3.77002 4.13227 7.90234 0 12.9998 0C18.0972 0 22.2295 4.13227 22.2295 9.22975Z" fill="#292C30"/>
<path d="M15.6068 0.373352C17.5834 2.06615 18.8365 4.58038 18.8365 7.38686C18.8365 14.5028 12.7512 21.4201 10.4629 23.7697C11.1396 24.5593 11.7412 25.2008 12.1883 25.6582C12.6338 26.114 13.3663 26.114 13.8118 25.6582C16.0646 23.3536 22.2298 16.3922 22.2298 9.22976C22.2298 5.03771 19.4347 1.49841 15.6068 0.373352Z" fill="#1C232A"/>
<path d="M12.9994 16.2235C16.8554 16.2235 19.9813 13.0976 19.9813 9.2416C19.9813 5.38562 16.8554 2.25974 12.9994 2.25974C9.14346 2.25974 6.01758 5.38562 6.01758 9.2416C6.01758 13.0976 9.14346 16.2235 12.9994 16.2235Z" fill="#1C232A"/>
<path d="M16.6794 3.30713C17.3435 4.37567 17.7274 5.63697 17.7274 6.98755C17.7274 10.8435 14.6015 13.9694 10.7455 13.9694C9.39489 13.9694 8.13343 13.5853 7.06494 12.9212C8.29674 14.9033 10.4942 16.2234 12.9995 16.2234C16.8555 16.2234 19.9814 13.0976 19.9814 9.24158C19.9814 6.73623 18.6615 4.53893 16.6794 3.30713Z" fill="#040B11"/>
<mask id="path-5-inside-1_1095_67" fill="white">
<path d="M15.5656 6.50049C15.3384 6.42315 15.095 6.381 14.8417 6.38065C14.238 6.37973 13.6893 6.61622 13.284 7.00201C13.1219 7.15628 12.8648 7.15308 12.7018 6.99982C12.2927 6.61551 11.7401 6.38212 11.1328 6.38877C9.72517 6.40426 8.7002 7.68954 8.93557 9.07739C9.01738 9.55981 9.26631 9.90989 9.80932 10.4506C10.3775 11.0163 12.1641 12.7245 12.7899 13.3221C12.9125 13.4391 13.105 13.4386 13.227 13.321C13.872 12.6992 15.7535 10.8837 16.2103 10.425C16.764 9.86881 17.0921 9.36684 17.0932 8.63899C17.0946 7.64688 16.4553 6.80345 15.5656 6.50049Z"/>
</mask>
<path d="M14.8417 6.38065L14.841 6.88065L14.841 6.88065L14.8417 6.38065ZM13.284 7.00201L13.6287 7.36419L13.6288 7.36417L13.284 7.00201ZM12.7018 6.99982L13.0442 6.63549L13.0441 6.63541L12.7018 6.99982ZM11.1328 6.38877L11.1273 5.8888L11.1273 5.8888L11.1328 6.38877ZM8.93557 9.07739L9.42854 8.99379L9.42854 8.99378L8.93557 9.07739ZM9.80932 10.4506L9.45653 10.8049L9.45654 10.8049L9.80932 10.4506ZM12.7899 13.3221L12.4446 13.6837L12.4446 13.6837L12.7899 13.3221ZM13.227 13.321L13.574 13.681L13.5741 13.6809L13.227 13.321ZM16.2103 10.425L16.5646 10.7778L16.5646 10.7777L16.2103 10.425ZM17.0932 8.63899L17.5932 8.63976V8.63971L17.0932 8.63899ZM15.7267 6.02718C15.4486 5.93249 15.151 5.88108 14.8424 5.88065L14.841 6.88065C15.0389 6.88093 15.2282 6.91381 15.4044 6.97381L15.7267 6.02718ZM14.8425 5.88065C14.1051 5.87953 13.434 6.16896 12.9393 6.63985L13.6288 7.36417C13.9446 7.06349 14.3709 6.87994 14.841 6.88065L14.8425 5.88065ZM12.9393 6.63983C12.9573 6.6227 12.9794 6.61614 12.9965 6.61625C13.0129 6.61636 13.0304 6.6225 13.0442 6.63549L12.3593 7.36416C12.7093 7.6931 13.2681 7.70739 13.6287 7.36419L12.9393 6.63983ZM13.0441 6.63541C12.5447 6.16627 11.8689 5.88068 11.1273 5.8888L11.1383 6.88874C11.6114 6.88356 12.0406 7.06475 12.3594 7.36424L13.0441 6.63541ZM11.1273 5.8888C9.39749 5.90784 8.15838 7.485 8.44261 9.16099L9.42854 8.99378C9.24203 7.89407 10.0529 6.90069 11.1383 6.88874L11.1273 5.8888ZM8.44261 9.16098C8.55165 9.804 8.89679 10.2476 9.45653 10.8049L10.1621 10.0962C9.63583 9.57224 9.48311 9.31562 9.42854 8.99379L8.44261 9.16098ZM9.45654 10.8049C10.0295 11.3753 11.8212 13.0884 12.4446 13.6837L13.1352 12.9605C12.5071 12.3607 10.7256 10.6572 10.1621 10.0962L9.45654 10.8049ZM12.4446 13.6837C12.7613 13.9861 13.2592 13.9844 13.574 13.681L12.8801 12.961C12.9508 12.8928 13.0637 12.8922 13.1352 12.9605L12.4446 13.6837ZM13.5741 13.6809C14.2162 13.0619 16.1031 11.2412 16.5646 10.7778L15.856 10.0722C15.4039 10.5262 13.5278 12.3365 12.88 12.961L13.5741 13.6809ZM16.5646 10.7777C17.158 10.1818 17.5918 9.55977 17.5932 8.63976L16.5932 8.63822C16.5924 9.17391 16.3701 9.55584 15.856 10.0722L16.5646 10.7777ZM17.5932 8.63971C17.595 7.4269 16.8132 6.39713 15.7267 6.02718L15.4044 6.97381C16.0974 7.20978 16.5943 7.86685 16.5932 8.63828L17.5932 8.63971Z" fill="#EDEDED" mask="url(#path-5-inside-1_1095_67)"/>
</g>
<defs>
<clipPath id="clip0_1095_67">
<rect width="26" height="26" fill="white"/>
</clipPath>
</defs>
</svg>
