<svg width="27" height="30" viewBox="0 0 27 30" fill="none" xmlns="http://www.w3.org/2000/svg">
<path fill-rule="evenodd" clip-rule="evenodd" d="M3.179 26.5C3.22389 26.5284 3.27647 26.5593 3.33776 26.5922C3.78009 26.8299 4.48611 27.0751 5.44345 27.2926C7.34201 27.7241 10.0142 28 13 28C15.9858 28 18.658 27.7241 20.5566 27.2926C21.5139 27.0751 22.2199 26.8299 22.6622 26.5922C22.7235 26.5593 22.7761 26.5284 22.821 26.5C22.7761 26.4716 22.7235 26.4407 22.6622 26.4078C22.2199 26.1701 21.5139 25.9249 20.5566 25.7074C18.658 25.2759 15.9858 25 13 25C10.0142 25 7.34201 25.2759 5.44345 25.7074C4.48611 25.9249 3.78009 26.1701 3.33776 26.4078C3.27647 26.4407 3.22389 26.4716 3.179 26.5ZM5.0002 23.7571C7.08286 23.2838 9.91072 23 13 23C16.0893 23 18.9171 23.2838 20.9998 23.7571C22.0331 23.9919 22.938 24.2855 23.6089 24.646C23.9436 24.8259 24.268 25.0475 24.5197 25.327C24.7767 25.6125 25 26.009 25 26.5C25 26.991 24.7767 27.3875 24.5197 27.673C24.268 27.9525 23.9436 28.1741 23.6089 28.354C22.938 28.7145 22.0331 29.0081 20.9998 29.2429C18.9171 29.7162 16.0893 30 13 30C9.91072 30 7.08286 29.7162 5.0002 29.2429C3.96693 29.0081 3.06204 28.7145 2.39111 28.354C2.05635 28.1741 1.73198 27.9525 1.48032 27.673C1.22335 27.3875 1 26.991 1 26.5C1 26.009 1.22335 25.6125 1.48032 25.327C1.73198 25.0475 2.05635 24.8259 2.39111 24.646C3.06204 24.2855 3.96693 23.9919 5.0002 23.7571Z" fill="#FFEE00"/>
<g clip-path="url(#clip0_1749_11074)">
<path d="M16 13.0342C16 11.6535 14.8807 10.5342 13.5 10.5342C12.1193 10.5342 11 11.6535 11 13.0342V26C11 27.3807 12.1193 28.5 13.5 28.5C14.8807 28.5 16 27.3807 16 26V13.0342Z" fill="#A8A9A9" stroke="black" stroke-width="3" stroke-miterlimit="10" stroke-linecap="round"/>
<path d="M13.4999 13.0345C17.0993 13.0345 20.0171 10.1166 20.0171 6.51724C20.0171 2.91787 17.0993 0 13.4999 0C9.90053 0 6.98267 2.91787 6.98267 6.51724C6.98267 10.1166 9.90053 13.0345 13.4999 13.0345Z" fill="#FFEE00"/>
<path d="M11.1724 6.05189C11.9437 6.05189 12.569 5.42663 12.569 4.65534C12.569 3.88405 11.9437 3.25879 11.1724 3.25879C10.4011 3.25879 9.77588 3.88405 9.77588 4.65534C9.77588 5.42663 10.4011 6.05189 11.1724 6.05189Z" fill="#0A0F12"/>
</g>
<defs>
<clipPath id="clip0_1749_11074">
<rect width="27" height="27" fill="white"/>
</clipPath>
</defs>
</svg>
