<?xml version="1.0" encoding="UTF-8" standalone="no"?>
<!-- Created with Inkscape (http://www.inkscape.org/) -->

<svg
   width="47.625mm"
   height="14.111mm"
   viewBox="0 0 47.625 14.111"
   version="1.1"
   id="svg157"
   inkscape:version="1.1.1 (c3084ef, 2021-09-22)"
   sodipodi:docname="google-play-en.svg"
   xmlns:inkscape="http://www.inkscape.org/namespaces/inkscape"
   xmlns:sodipodi="http://sodipodi.sourceforge.net/DTD/sodipodi-0.dtd"
   xmlns="http://www.w3.org/2000/svg"
   xmlns:svg="http://www.w3.org/2000/svg">
  <sodipodi:namedview
     id="namedview159"
     pagecolor="#505050"
     bordercolor="#eeeeee"
     borderopacity="1"
     inkscape:pageshadow="0"
     inkscape:pageopacity="0"
     inkscape:pagecheckerboard="0"
     inkscape:document-units="mm"
     showgrid="false"
     inkscape:zoom="6.9331266"
     inkscape:cx="73.055063"
     inkscape:cy="43.126286"
     inkscape:window-width="1920"
     inkscape:window-height="1080"
     inkscape:window-x="0"
     inkscape:window-y="0"
     inkscape:window-maximized="0"
     inkscape:current-layer="layer1" />
  <defs
     id="defs154">
    <clipPath
       clipPathUnits="userSpaceOnUse"
       id="clipPath56">
      <path
         d="m 205.098,176.105 -0.743,0.711 c -2.91,3.079 -4.628,7.86 -4.628,14.051 v -1.457 0 221.16 c 0,0.02 0,0.035 0,0.051 0,-0.019 0,-0.035 0,-0.055 v -1.461 c 0,6.704 2.003,11.754 5.359,14.782 L 328.984,299.992 205.098,176.105 m -5.371,234.528 c 0,0.551 0.015,1.086 0.043,1.613 -0.028,-0.523 -0.043,-1.062 -0.043,-1.613 m 0.043,1.637 c 0,0.007 0,0.015 0.003,0.023 -0.003,-0.008 -0.003,-0.016 -0.003,-0.023 m 0.003,0.07 c 0,0.004 0,0.008 0,0.012 0,-0.004 0,-0.008 0,-0.012"
         id="path54" />
    </clipPath>
    <linearGradient
       x1="0"
       y1="0"
       x2="1"
       y2="0"
       gradientUnits="userSpaceOnUse"
       gradientTransform="matrix(-167.825,-167.825,167.825,-167.825,317.998,412.903)"
       spreadMethod="pad"
       id="linearGradient70">
      <stop
         style="stop-opacity:1;stop-color:#00a0ff"
         offset="0"
         id="stop58" />
      <stop
         style="stop-opacity:1;stop-color:#00a1ff"
         offset="0.00657445"
         id="stop60" />
      <stop
         style="stop-opacity:1;stop-color:#00beff"
         offset="0.2601"
         id="stop62" />
      <stop
         style="stop-opacity:1;stop-color:#00d2ff"
         offset="0.5122"
         id="stop64" />
      <stop
         style="stop-opacity:1;stop-color:#00dfff"
         offset="0.7604"
         id="stop66" />
      <stop
         style="stop-opacity:1;stop-color:#00e3ff"
         offset="1"
         id="stop68" />
    </linearGradient>
    <clipPath
       clipPathUnits="userSpaceOnUse"
       id="clipPath80">
      <path
         d="m 370.277,257.215 v 0 l 0.942,0.535 48.929,27.801 c 4.665,2.652 7.774,5.867 9.325,9.269 -1.547,-3.402 -4.657,-6.621 -9.325,-9.273 l -48.929,-27.801 -0.942,-0.531 m 0.012,1.465 -41.305,41.312 41.301,41.305 49.863,-28.328 c 6.332,-3.598 9.887,-8.235 10.481,-12.973 0,-0.004 0,-0.012 0,-0.019 -0.594,-4.727 -4.149,-9.368 -10.481,-12.965 L 370.289,258.68"
         id="path78" />
    </clipPath>
    <linearGradient
       x1="0"
       y1="0"
       x2="1"
       y2="0"
       gradientUnits="userSpaceOnUse"
       gradientTransform="matrix(-241.97,0,0,-241.97,438.344,299.986)"
       spreadMethod="pad"
       id="linearGradient90">
      <stop
         style="stop-opacity:1;stop-color:#ffe000"
         offset="0"
         id="stop82" />
      <stop
         style="stop-opacity:1;stop-color:#ffbd00"
         offset="0.4087"
         id="stop84" />
      <stop
         style="stop-opacity:1;stop-color:#ffa500"
         offset="0.7754"
         id="stop86" />
      <stop
         style="stop-opacity:1;stop-color:#ff9c00"
         offset="1"
         id="stop88" />
    </linearGradient>
    <clipPath
       clipPathUnits="userSpaceOnUse"
       id="clipPath100">
      <path
         d="m 213.93,171.387 c -3.461,0 -6.481,1.125 -8.836,3.25 l 0.004,0.004 c 2.355,-2.125 5.379,-3.254 8.84,-3.254 0.3,0 0.605,0.008 0.914,0.023 -0.313,-0.015 -0.622,-0.023 -0.922,-0.023 m 0.004,1.465 c -3.461,-0.004 -6.481,1.125 -8.836,3.25 v 0 0.003 l 123.886,123.887 41.305,-41.312 v 0 L 225.137,176.207 c -4.016,-2.277 -7.821,-3.355 -11.203,-3.355 m -8.871,1.812 c -0.219,0.199 -0.434,0.41 -0.645,0.629 l 0.645,-0.629"
         id="path98" />
    </clipPath>
    <linearGradient
       x1="0"
       y1="0"
       x2="1"
       y2="0"
       gradientUnits="userSpaceOnUse"
       gradientTransform="matrix(-227.583,-227.583,227.583,-227.583,348.27,277.039)"
       spreadMethod="pad"
       id="linearGradient106">
      <stop
         style="stop-opacity:1;stop-color:#ff3a44"
         offset="0"
         id="stop102" />
      <stop
         style="stop-opacity:1;stop-color:#c31162"
         offset="1"
         id="stop104" />
    </linearGradient>
    <clipPath
       clipPathUnits="userSpaceOnUse"
       id="clipPath116">
      <path
         d="m 328.984,299.992 v 0 L 205.086,423.887 c 2.355,2.121 5.371,3.246 8.828,3.246 3.391,0 7.199,-1.082 11.223,-3.363 l 145.148,-82.473 -41.301,-41.305 m 42.235,42.238 -146.082,83 c -4.024,2.282 -7.832,3.364 -11.223,3.364 -0.016,0 -0.027,0 -0.043,0 0.02,0 0.035,0 0.059,0 3.383,0 7.187,-1.078 11.207,-3.36 L 371.219,342.23 M 213.84,428.594 v 0 0"
         id="path114" />
    </clipPath>
    <linearGradient
       x1="0"
       y1="0"
       x2="1"
       y2="0"
       gradientUnits="userSpaceOnUse"
       gradientTransform="matrix(101.625,-101.625,101.625,101.625,172.973,498.238)"
       spreadMethod="pad"
       id="linearGradient128">
      <stop
         style="stop-opacity:1;stop-color:#32a071"
         offset="0"
         id="stop118" />
      <stop
         style="stop-opacity:1;stop-color:#2da771"
         offset="0.0685"
         id="stop120" />
      <stop
         style="stop-opacity:1;stop-color:#15cf74"
         offset="0.4762"
         id="stop122" />
      <stop
         style="stop-opacity:1;stop-color:#06e775"
         offset="0.8009"
         id="stop124" />
      <stop
         style="stop-opacity:1;stop-color:#00f076"
         offset="1"
         id="stop126" />
    </linearGradient>
    <clipPath
       clipPathUnits="userSpaceOnUse"
       id="clipPath140">
      <path
         d="m 370.277,257.215 v 0 l 0.942,0.535 -0.942,-0.535"
         id="path138" />
    </clipPath>
    <linearGradient
       x1="0"
       y1="0"
       x2="1"
       y2="0"
       gradientUnits="userSpaceOnUse"
       gradientTransform="matrix(-241.97,0,0,-241.97,438.344,299.986)"
       spreadMethod="pad"
       id="linearGradient150">
      <stop
         style="stop-opacity:1;stop-color:#ccb300"
         offset="0"
         id="stop142" />
      <stop
         style="stop-opacity:1;stop-color:#cc9700"
         offset="0.4087"
         id="stop144" />
      <stop
         style="stop-opacity:1;stop-color:#cc8400"
         offset="0.7754"
         id="stop146" />
      <stop
         style="stop-opacity:1;stop-color:#cc7d00"
         offset="1"
         id="stop148" />
    </linearGradient>
    <clipPath
       clipPathUnits="userSpaceOnUse"
       id="clipPath160">
      <path
         d="m 213.938,171.387 c -3.461,0 -6.485,1.129 -8.84,3.254 l -0.004,-0.004 c -0.008,0.008 -0.02,0.019 -0.031,0.027 l -0.645,0.629 c -0.02,0.02 -0.039,0.043 -0.063,0.066 l 0.743,0.743 c 2.355,-2.125 5.375,-3.254 8.836,-3.25 3.382,0 7.187,1.078 11.203,3.355 l 145.152,82.473 0.93,-0.93 -0.942,-0.535 -145.14,-82.469 c -3.66,-2.074 -7.141,-3.156 -10.285,-3.336 -0.309,-0.015 -0.614,-0.023 -0.914,-0.023"
         id="path158" />
    </clipPath>
    <linearGradient
       x1="0"
       y1="0"
       x2="1"
       y2="0"
       gradientUnits="userSpaceOnUse"
       gradientTransform="matrix(-227.583,-227.583,227.583,-227.583,348.27,277.039)"
       spreadMethod="pad"
       id="linearGradient166">
      <stop
         style="stop-opacity:1;stop-color:#cc2e36"
         offset="0"
         id="stop162" />
      <stop
         style="stop-opacity:1;stop-color:#9c0e4e"
         offset="1"
         id="stop164" />
    </linearGradient>
    <clipPath
       clipPathUnits="userSpaceOnUse"
       id="clipPath178">
      <path
         d="m 204.355,175.359 v 0 c -2.91,3.079 -4.628,7.856 -4.628,14.051 v 1.457 c 0,-6.191 1.718,-10.972 4.628,-14.051 l 0.743,-0.711 -0.743,-0.746"
         id="path176" />
    </clipPath>
    <linearGradient
       x1="0"
       y1="0"
       x2="1"
       y2="0"
       gradientUnits="userSpaceOnUse"
       gradientTransform="matrix(-167.825,-167.825,167.825,-167.825,317.998,412.903)"
       spreadMethod="pad"
       id="linearGradient192">
      <stop
         style="stop-opacity:1;stop-color:#008de0"
         offset="0"
         id="stop180" />
      <stop
         style="stop-opacity:1;stop-color:#008de0"
         offset="0.00657445"
         id="stop182" />
      <stop
         style="stop-opacity:1;stop-color:#00a7e0"
         offset="0.2601"
         id="stop184" />
      <stop
         style="stop-opacity:1;stop-color:#00b8e0"
         offset="0.5122"
         id="stop186" />
      <stop
         style="stop-opacity:1;stop-color:#00c4e0"
         offset="0.7604"
         id="stop188" />
      <stop
         style="stop-opacity:1;stop-color:#00c7e0"
         offset="1"
         id="stop190" />
    </linearGradient>
    <clipPath
       clipPathUnits="userSpaceOnUse"
       id="clipPath202">
      <path
         d="m 204.355,175.359 v 0 0 l 0.743,0.746 v -0.003 l -0.743,-0.743"
         id="path200" />
    </clipPath>
    <linearGradient
       x1="0"
       y1="0"
       x2="1"
       y2="0"
       gradientUnits="userSpaceOnUse"
       gradientTransform="matrix(-227.583,-227.583,227.583,-227.583,348.27,277.039)"
       spreadMethod="pad"
       id="linearGradient208">
      <stop
         style="stop-opacity:1;stop-color:#e0333c"
         offset="0"
         id="stop204" />
      <stop
         style="stop-opacity:1;stop-color:#ab0f56"
         offset="1"
         id="stop206" />
    </linearGradient>
    <clipPath
       clipPathUnits="userSpaceOnUse"
       id="clipPath220">
      <path
         d="m 371.219,257.75 v 0 l -0.93,0.93 49.859,28.332 c 6.332,3.597 9.887,8.238 10.481,12.965 0,-1.735 -0.387,-3.469 -1.156,-5.157 -1.551,-3.402 -4.66,-6.617 -9.325,-9.269 L 371.219,257.75"
         id="path218" />
    </clipPath>
    <linearGradient
       x1="0"
       y1="0"
       x2="1"
       y2="0"
       gradientUnits="userSpaceOnUse"
       gradientTransform="matrix(-241.97,0,0,-241.97,438.344,299.986)"
       spreadMethod="pad"
       id="linearGradient230">
      <stop
         style="stop-opacity:1;stop-color:#e0c500"
         offset="0"
         id="stop222" />
      <stop
         style="stop-opacity:1;stop-color:#e0a600"
         offset="0.4087"
         id="stop224" />
      <stop
         style="stop-opacity:1;stop-color:#e09100"
         offset="0.7754"
         id="stop226" />
      <stop
         style="stop-opacity:1;stop-color:#e08900"
         offset="1"
         id="stop228" />
    </linearGradient>
    <clipPath
       clipPathUnits="userSpaceOnUse"
       id="clipPath242">
      <path
         d="m 430.629,299.996 c -0.594,4.738 -4.149,9.375 -10.481,12.973 l -49.863,28.328 0.93,0.93 h 0.004 l 48.929,-27.801 c 6.981,-3.969 10.477,-9.199 10.481,-14.43"
         id="path240" />
    </clipPath>
    <linearGradient
       x1="0"
       y1="0"
       x2="1"
       y2="0"
       gradientUnits="userSpaceOnUse"
       gradientTransform="matrix(-241.97,0,0,-241.97,438.344,299.986)"
       spreadMethod="pad"
       id="linearGradient252">
      <stop
         style="stop-opacity:1;stop-color:#ffe840"
         offset="0"
         id="stop244" />
      <stop
         style="stop-opacity:1;stop-color:#ffce40"
         offset="0.4087"
         id="stop246" />
      <stop
         style="stop-opacity:1;stop-color:#ffbc40"
         offset="0.7754"
         id="stop248" />
      <stop
         style="stop-opacity:1;stop-color:#ffb540"
         offset="1"
         id="stop250" />
    </linearGradient>
    <clipPath
       clipPathUnits="userSpaceOnUse"
       id="clipPath264">
      <path
         d="m 199.727,409.105 v 1.461 c 0,0.02 0,0.036 0,0.055 0,0.004 0,0.008 0,0.012 0,0.551 0.015,1.09 0.043,1.613 0,0.008 0,0.016 0,0.024 0,0.007 0,0.015 0.003,0.023 0,0.016 0,0.031 0,0.047 0,0.004 0,0.008 0,0.012 0.301,5.332 1.957,9.492 4.582,12.269 v 0 0 l 0.731,-0.734 c -3.356,-3.028 -5.359,-8.078 -5.359,-14.782 m 5.339,16.215 0.028,0.028 c -0.008,-0.012 -0.02,-0.02 -0.028,-0.028"
         id="path262" />
    </clipPath>
    <linearGradient
       x1="0"
       y1="0"
       x2="1"
       y2="0"
       gradientUnits="userSpaceOnUse"
       gradientTransform="matrix(-167.825,-167.825,167.825,-167.825,317.998,412.903)"
       spreadMethod="pad"
       id="linearGradient278">
      <stop
         style="stop-opacity:1;stop-color:#40b8ff"
         offset="0"
         id="stop266" />
      <stop
         style="stop-opacity:1;stop-color:#40b9ff"
         offset="0.00657445"
         id="stop268" />
      <stop
         style="stop-opacity:1;stop-color:#40ceff"
         offset="0.2601"
         id="stop270" />
      <stop
         style="stop-opacity:1;stop-color:#40ddff"
         offset="0.5122"
         id="stop272" />
      <stop
         style="stop-opacity:1;stop-color:#40e7ff"
         offset="0.7604"
         id="stop274" />
      <stop
         style="stop-opacity:1;stop-color:#40eaff"
         offset="1"
         id="stop276" />
    </linearGradient>
    <clipPath
       clipPathUnits="userSpaceOnUse"
       id="clipPath290">
      <path
         d="M 370.285,341.297 225.137,423.77 c -4.024,2.281 -7.832,3.363 -11.223,3.363 -3.457,0 -6.473,-1.125 -8.828,-3.246 l -0.731,0.734 v 0 c 0.231,0.242 0.465,0.477 0.711,0.699 0.008,0.008 0.02,0.016 0.028,0.024 2.336,2.105 5.32,3.23 8.746,3.25 v 0 c 0.008,0 0.019,0 0.031,0 0.016,0 0.027,0 0.043,0 3.391,0 7.199,-1.082 11.223,-3.364 l 146.082,-83 -0.004,-0.003 -0.93,-0.93"
         id="path288" />
    </clipPath>
    <linearGradient
       x1="0"
       y1="0"
       x2="1"
       y2="0"
       gradientUnits="userSpaceOnUse"
       gradientTransform="matrix(101.625,-101.625,101.625,101.625,172.973,498.238)"
       spreadMethod="pad"
       id="linearGradient302">
      <stop
         style="stop-opacity:1;stop-color:#65b895"
         offset="0"
         id="stop292" />
      <stop
         style="stop-opacity:1;stop-color:#62bd95"
         offset="0.0685"
         id="stop294" />
      <stop
         style="stop-opacity:1;stop-color:#50db97"
         offset="0.4762"
         id="stop296" />
      <stop
         style="stop-opacity:1;stop-color:#44ed98"
         offset="0.8009"
         id="stop298" />
      <stop
         style="stop-opacity:1;stop-color:#40f498"
         offset="1"
         id="stop300" />
    </linearGradient>
    <clipPath
       clipPathUnits="userSpaceOnUse"
       id="clipPath56-9">
      <path
         d="m 205.098,176.105 -0.743,0.711 c -2.91,3.079 -4.628,7.86 -4.628,14.051 v -1.457 0 221.16 c 0,0.02 0,0.035 0,0.051 0,-0.019 0,-0.035 0,-0.055 v -1.461 c 0,6.704 2.003,11.754 5.359,14.782 L 328.984,299.992 205.098,176.105 m -5.371,234.528 c 0,0.551 0.015,1.086 0.043,1.613 -0.028,-0.523 -0.043,-1.062 -0.043,-1.613 m 0.043,1.637 c 0,0.007 0,0.015 0.003,0.023 -0.003,-0.008 -0.003,-0.016 -0.003,-0.023 m 0.003,0.07 c 0,0.004 0,0.008 0,0.012 0,-0.004 0,-0.008 0,-0.012"
         id="path54-7" />
    </clipPath>
    <clipPath
       clipPathUnits="userSpaceOnUse"
       id="clipPath80-7">
      <path
         d="m 370.277,257.215 v 0 l 0.942,0.535 48.929,27.801 c 4.665,2.652 7.774,5.867 9.325,9.269 -1.547,-3.402 -4.657,-6.621 -9.325,-9.273 l -48.929,-27.801 -0.942,-0.531 m 0.012,1.465 -41.305,41.312 41.301,41.305 49.863,-28.328 c 6.332,-3.598 9.887,-8.235 10.481,-12.973 0,-0.004 0,-0.012 0,-0.019 -0.594,-4.727 -4.149,-9.368 -10.481,-12.965 L 370.289,258.68"
         id="path78-6" />
    </clipPath>
    <clipPath
       clipPathUnits="userSpaceOnUse"
       id="clipPath100-9">
      <path
         d="m 213.93,171.387 c -3.461,0 -6.481,1.125 -8.836,3.25 l 0.004,0.004 c 2.355,-2.125 5.379,-3.254 8.84,-3.254 0.3,0 0.605,0.008 0.914,0.023 -0.313,-0.015 -0.622,-0.023 -0.922,-0.023 m 0.004,1.465 c -3.461,-0.004 -6.481,1.125 -8.836,3.25 v 0 0.003 l 123.886,123.887 41.305,-41.312 v 0 L 225.137,176.207 c -4.016,-2.277 -7.821,-3.355 -11.203,-3.355 m -8.871,1.812 c -0.219,0.199 -0.434,0.41 -0.645,0.629 l 0.645,-0.629"
         id="path98-9" />
    </clipPath>
    <clipPath
       clipPathUnits="userSpaceOnUse"
       id="clipPath116-7">
      <path
         d="m 328.984,299.992 v 0 L 205.086,423.887 c 2.355,2.121 5.371,3.246 8.828,3.246 3.391,0 7.199,-1.082 11.223,-3.363 l 145.148,-82.473 -41.301,-41.305 m 42.235,42.238 -146.082,83 c -4.024,2.282 -7.832,3.364 -11.223,3.364 -0.016,0 -0.027,0 -0.043,0 0.02,0 0.035,0 0.059,0 3.383,0 7.187,-1.078 11.207,-3.36 L 371.219,342.23 M 213.84,428.594 v 0 0"
         id="path114-2" />
    </clipPath>
    <clipPath
       clipPathUnits="userSpaceOnUse"
       id="clipPath140-1">
      <path
         d="m 370.277,257.215 v 0 l 0.942,0.535 -0.942,-0.535"
         id="path138-4" />
    </clipPath>
    <clipPath
       clipPathUnits="userSpaceOnUse"
       id="clipPath160-4">
      <path
         d="m 213.938,171.387 c -3.461,0 -6.485,1.129 -8.84,3.254 l -0.004,-0.004 c -0.008,0.008 -0.02,0.019 -0.031,0.027 l -0.645,0.629 c -0.02,0.02 -0.039,0.043 -0.063,0.066 l 0.743,0.743 c 2.355,-2.125 5.375,-3.254 8.836,-3.25 3.382,0 7.187,1.078 11.203,3.355 l 145.152,82.473 0.93,-0.93 -0.942,-0.535 -145.14,-82.469 c -3.66,-2.074 -7.141,-3.156 -10.285,-3.336 -0.309,-0.015 -0.614,-0.023 -0.914,-0.023"
         id="path158-8" />
    </clipPath>
    <clipPath
       clipPathUnits="userSpaceOnUse"
       id="clipPath178-6">
      <path
         d="m 204.355,175.359 v 0 c -2.91,3.079 -4.628,7.856 -4.628,14.051 v 1.457 c 0,-6.191 1.718,-10.972 4.628,-14.051 l 0.743,-0.711 -0.743,-0.746"
         id="path176-0" />
    </clipPath>
    <clipPath
       clipPathUnits="userSpaceOnUse"
       id="clipPath202-3">
      <path
         d="m 204.355,175.359 v 0 0 l 0.743,0.746 v -0.003 l -0.743,-0.743"
         id="path200-7" />
    </clipPath>
    <clipPath
       clipPathUnits="userSpaceOnUse"
       id="clipPath220-3">
      <path
         d="m 371.219,257.75 v 0 l -0.93,0.93 49.859,28.332 c 6.332,3.597 9.887,8.238 10.481,12.965 0,-1.735 -0.387,-3.469 -1.156,-5.157 -1.551,-3.402 -4.66,-6.617 -9.325,-9.269 L 371.219,257.75"
         id="path218-8" />
    </clipPath>
    <clipPath
       clipPathUnits="userSpaceOnUse"
       id="clipPath242-4">
      <path
         d="m 430.629,299.996 c -0.594,4.738 -4.149,9.375 -10.481,12.973 l -49.863,28.328 0.93,0.93 h 0.004 l 48.929,-27.801 c 6.981,-3.969 10.477,-9.199 10.481,-14.43"
         id="path240-3" />
    </clipPath>
    <clipPath
       clipPathUnits="userSpaceOnUse"
       id="clipPath264-4">
      <path
         d="m 199.727,409.105 v 1.461 c 0,0.02 0,0.036 0,0.055 0,0.004 0,0.008 0,0.012 0,0.551 0.015,1.09 0.043,1.613 0,0.008 0,0.016 0,0.024 0,0.007 0,0.015 0.003,0.023 0,0.016 0,0.031 0,0.047 0,0.004 0,0.008 0,0.012 0.301,5.332 1.957,9.492 4.582,12.269 v 0 0 l 0.731,-0.734 c -3.356,-3.028 -5.359,-8.078 -5.359,-14.782 m 5.339,16.215 0.028,0.028 c -0.008,-0.012 -0.02,-0.02 -0.028,-0.028"
         id="path262-9" />
    </clipPath>
    <clipPath
       clipPathUnits="userSpaceOnUse"
       id="clipPath290-8">
      <path
         d="M 370.285,341.297 225.137,423.77 c -4.024,2.281 -7.832,3.363 -11.223,3.363 -3.457,0 -6.473,-1.125 -8.828,-3.246 l -0.731,0.734 v 0 c 0.231,0.242 0.465,0.477 0.711,0.699 0.008,0.008 0.02,0.016 0.028,0.024 2.336,2.105 5.32,3.23 8.746,3.25 v 0 c 0.008,0 0.019,0 0.031,0 0.016,0 0.027,0 0.043,0 3.391,0 7.199,-1.082 11.223,-3.364 l 146.082,-83 -0.004,-0.003 -0.93,-0.93"
         id="path288-8" />
    </clipPath>
    <clipPath
       clipPathUnits="userSpaceOnUse"
       id="clipPath56-5">
      <path
         d="m 205.098,176.105 -0.743,0.711 c -2.91,3.079 -4.628,7.86 -4.628,14.051 v -1.457 0 221.16 c 0,0.02 0,0.035 0,0.051 0,-0.019 0,-0.035 0,-0.055 v -1.461 c 0,6.704 2.003,11.754 5.359,14.782 L 328.984,299.992 205.098,176.105 m -5.371,234.528 c 0,0.551 0.015,1.086 0.043,1.613 -0.028,-0.523 -0.043,-1.062 -0.043,-1.613 m 0.043,1.637 c 0,0.007 0,0.015 0.003,0.023 -0.003,-0.008 -0.003,-0.016 -0.003,-0.023 m 0.003,0.07 c 0,0.004 0,0.008 0,0.012 0,-0.004 0,-0.008 0,-0.012"
         id="path54-6" />
    </clipPath>
    <clipPath
       clipPathUnits="userSpaceOnUse"
       id="clipPath80-9">
      <path
         d="m 370.277,257.215 v 0 l 0.942,0.535 48.929,27.801 c 4.665,2.652 7.774,5.867 9.325,9.269 -1.547,-3.402 -4.657,-6.621 -9.325,-9.273 l -48.929,-27.801 -0.942,-0.531 m 0.012,1.465 -41.305,41.312 41.301,41.305 49.863,-28.328 c 6.332,-3.598 9.887,-8.235 10.481,-12.973 0,-0.004 0,-0.012 0,-0.019 -0.594,-4.727 -4.149,-9.368 -10.481,-12.965 L 370.289,258.68"
         id="path78-0" />
    </clipPath>
    <clipPath
       clipPathUnits="userSpaceOnUse"
       id="clipPath100-3">
      <path
         d="m 213.93,171.387 c -3.461,0 -6.481,1.125 -8.836,3.25 l 0.004,0.004 c 2.355,-2.125 5.379,-3.254 8.84,-3.254 0.3,0 0.605,0.008 0.914,0.023 -0.313,-0.015 -0.622,-0.023 -0.922,-0.023 m 0.004,1.465 c -3.461,-0.004 -6.481,1.125 -8.836,3.25 v 0 0.003 l 123.886,123.887 41.305,-41.312 v 0 L 225.137,176.207 c -4.016,-2.277 -7.821,-3.355 -11.203,-3.355 m -8.871,1.812 c -0.219,0.199 -0.434,0.41 -0.645,0.629 l 0.645,-0.629"
         id="path98-0" />
    </clipPath>
    <clipPath
       clipPathUnits="userSpaceOnUse"
       id="clipPath116-0">
      <path
         d="m 328.984,299.992 v 0 L 205.086,423.887 c 2.355,2.121 5.371,3.246 8.828,3.246 3.391,0 7.199,-1.082 11.223,-3.363 l 145.148,-82.473 -41.301,-41.305 m 42.235,42.238 -146.082,83 c -4.024,2.282 -7.832,3.364 -11.223,3.364 -0.016,0 -0.027,0 -0.043,0 0.02,0 0.035,0 0.059,0 3.383,0 7.187,-1.078 11.207,-3.36 L 371.219,342.23 M 213.84,428.594 v 0 0"
         id="path114-4" />
    </clipPath>
    <clipPath
       clipPathUnits="userSpaceOnUse"
       id="clipPath140-8">
      <path
         d="m 370.277,257.215 v 0 l 0.942,0.535 -0.942,-0.535"
         id="path138-40" />
    </clipPath>
    <clipPath
       clipPathUnits="userSpaceOnUse"
       id="clipPath160-5">
      <path
         d="m 213.938,171.387 c -3.461,0 -6.485,1.129 -8.84,3.254 l -0.004,-0.004 c -0.008,0.008 -0.02,0.019 -0.031,0.027 l -0.645,0.629 c -0.02,0.02 -0.039,0.043 -0.063,0.066 l 0.743,0.743 c 2.355,-2.125 5.375,-3.254 8.836,-3.25 3.382,0 7.187,1.078 11.203,3.355 l 145.152,82.473 0.93,-0.93 -0.942,-0.535 -145.14,-82.469 c -3.66,-2.074 -7.141,-3.156 -10.285,-3.336 -0.309,-0.015 -0.614,-0.023 -0.914,-0.023"
         id="path158-7" />
    </clipPath>
    <clipPath
       clipPathUnits="userSpaceOnUse"
       id="clipPath178-7">
      <path
         d="m 204.355,175.359 v 0 c -2.91,3.079 -4.628,7.856 -4.628,14.051 v 1.457 c 0,-6.191 1.718,-10.972 4.628,-14.051 l 0.743,-0.711 -0.743,-0.746"
         id="path176-5" />
    </clipPath>
    <clipPath
       clipPathUnits="userSpaceOnUse"
       id="clipPath202-5">
      <path
         d="m 204.355,175.359 v 0 0 l 0.743,0.746 v -0.003 l -0.743,-0.743"
         id="path200-5" />
    </clipPath>
    <clipPath
       clipPathUnits="userSpaceOnUse"
       id="clipPath220-2">
      <path
         d="m 371.219,257.75 v 0 l -0.93,0.93 49.859,28.332 c 6.332,3.597 9.887,8.238 10.481,12.965 0,-1.735 -0.387,-3.469 -1.156,-5.157 -1.551,-3.402 -4.66,-6.617 -9.325,-9.269 L 371.219,257.75"
         id="path218-1" />
    </clipPath>
    <clipPath
       clipPathUnits="userSpaceOnUse"
       id="clipPath242-8">
      <path
         d="m 430.629,299.996 c -0.594,4.738 -4.149,9.375 -10.481,12.973 l -49.863,28.328 0.93,0.93 h 0.004 l 48.929,-27.801 c 6.981,-3.969 10.477,-9.199 10.481,-14.43"
         id="path240-6" />
    </clipPath>
    <clipPath
       clipPathUnits="userSpaceOnUse"
       id="clipPath264-9">
      <path
         d="m 199.727,409.105 v 1.461 c 0,0.02 0,0.036 0,0.055 0,0.004 0,0.008 0,0.012 0,0.551 0.015,1.09 0.043,1.613 0,0.008 0,0.016 0,0.024 0,0.007 0,0.015 0.003,0.023 0,0.016 0,0.031 0,0.047 0,0.004 0,0.008 0,0.012 0.301,5.332 1.957,9.492 4.582,12.269 v 0 0 l 0.731,-0.734 c -3.356,-3.028 -5.359,-8.078 -5.359,-14.782 m 5.339,16.215 0.028,0.028 c -0.008,-0.012 -0.02,-0.02 -0.028,-0.028"
         id="path262-7" />
    </clipPath>
    <clipPath
       clipPathUnits="userSpaceOnUse"
       id="clipPath290-87">
      <path
         d="M 370.285,341.297 225.137,423.77 c -4.024,2.281 -7.832,3.363 -11.223,3.363 -3.457,0 -6.473,-1.125 -8.828,-3.246 l -0.731,0.734 v 0 c 0.231,0.242 0.465,0.477 0.711,0.699 0.008,0.008 0.02,0.016 0.028,0.024 2.336,2.105 5.32,3.23 8.746,3.25 v 0 c 0.008,0 0.019,0 0.031,0 0.016,0 0.027,0 0.043,0 3.391,0 7.199,-1.082 11.223,-3.364 l 146.082,-83 -0.004,-0.003 -0.93,-0.93"
         id="path288-1" />
    </clipPath>
    <clipPath
       clipPathUnits="userSpaceOnUse"
       id="clipPath56-0">
      <path
         d="m 205.098,176.105 -0.743,0.711 c -2.91,3.079 -4.628,7.86 -4.628,14.051 v -1.457 0 221.16 c 0,0.02 0,0.035 0,0.051 0,-0.019 0,-0.035 0,-0.055 v -1.461 c 0,6.704 2.003,11.754 5.359,14.782 L 328.984,299.992 205.098,176.105 m -5.371,234.528 c 0,0.551 0.015,1.086 0.043,1.613 -0.028,-0.523 -0.043,-1.062 -0.043,-1.613 m 0.043,1.637 c 0,0.007 0,0.015 0.003,0.023 -0.003,-0.008 -0.003,-0.016 -0.003,-0.023 m 0.003,0.07 c 0,0.004 0,0.008 0,0.012 0,-0.004 0,-0.008 0,-0.012"
         id="path54-64" />
    </clipPath>
    <clipPath
       clipPathUnits="userSpaceOnUse"
       id="clipPath80-2">
      <path
         d="m 370.277,257.215 v 0 l 0.942,0.535 48.929,27.801 c 4.665,2.652 7.774,5.867 9.325,9.269 -1.547,-3.402 -4.657,-6.621 -9.325,-9.273 l -48.929,-27.801 -0.942,-0.531 m 0.012,1.465 -41.305,41.312 41.301,41.305 49.863,-28.328 c 6.332,-3.598 9.887,-8.235 10.481,-12.973 0,-0.004 0,-0.012 0,-0.019 -0.594,-4.727 -4.149,-9.368 -10.481,-12.965 L 370.289,258.68"
         id="path78-4" />
    </clipPath>
    <clipPath
       clipPathUnits="userSpaceOnUse"
       id="clipPath100-5">
      <path
         d="m 213.93,171.387 c -3.461,0 -6.481,1.125 -8.836,3.25 l 0.004,0.004 c 2.355,-2.125 5.379,-3.254 8.84,-3.254 0.3,0 0.605,0.008 0.914,0.023 -0.313,-0.015 -0.622,-0.023 -0.922,-0.023 m 0.004,1.465 c -3.461,-0.004 -6.481,1.125 -8.836,3.25 v 0 0.003 l 123.886,123.887 41.305,-41.312 v 0 L 225.137,176.207 c -4.016,-2.277 -7.821,-3.355 -11.203,-3.355 m -8.871,1.812 c -0.219,0.199 -0.434,0.41 -0.645,0.629 l 0.645,-0.629"
         id="path98-8" />
    </clipPath>
    <clipPath
       clipPathUnits="userSpaceOnUse"
       id="clipPath116-9">
      <path
         d="m 328.984,299.992 v 0 L 205.086,423.887 c 2.355,2.121 5.371,3.246 8.828,3.246 3.391,0 7.199,-1.082 11.223,-3.363 l 145.148,-82.473 -41.301,-41.305 m 42.235,42.238 -146.082,83 c -4.024,2.282 -7.832,3.364 -11.223,3.364 -0.016,0 -0.027,0 -0.043,0 0.02,0 0.035,0 0.059,0 3.383,0 7.187,-1.078 11.207,-3.36 L 371.219,342.23 M 213.84,428.594 v 0 0"
         id="path114-3" />
    </clipPath>
    <clipPath
       clipPathUnits="userSpaceOnUse"
       id="clipPath140-5">
      <path
         d="m 370.277,257.215 v 0 l 0.942,0.535 -0.942,-0.535"
         id="path138-6" />
    </clipPath>
    <clipPath
       clipPathUnits="userSpaceOnUse"
       id="clipPath160-0">
      <path
         d="m 213.938,171.387 c -3.461,0 -6.485,1.129 -8.84,3.254 l -0.004,-0.004 c -0.008,0.008 -0.02,0.019 -0.031,0.027 l -0.645,0.629 c -0.02,0.02 -0.039,0.043 -0.063,0.066 l 0.743,0.743 c 2.355,-2.125 5.375,-3.254 8.836,-3.25 3.382,0 7.187,1.078 11.203,3.355 l 145.152,82.473 0.93,-0.93 -0.942,-0.535 -145.14,-82.469 c -3.66,-2.074 -7.141,-3.156 -10.285,-3.336 -0.309,-0.015 -0.614,-0.023 -0.914,-0.023"
         id="path158-4" />
    </clipPath>
    <clipPath
       clipPathUnits="userSpaceOnUse"
       id="clipPath178-68">
      <path
         d="m 204.355,175.359 v 0 c -2.91,3.079 -4.628,7.856 -4.628,14.051 v 1.457 c 0,-6.191 1.718,-10.972 4.628,-14.051 l 0.743,-0.711 -0.743,-0.746"
         id="path176-53" />
    </clipPath>
    <clipPath
       clipPathUnits="userSpaceOnUse"
       id="clipPath202-8">
      <path
         d="m 204.355,175.359 v 0 0 l 0.743,0.746 v -0.003 l -0.743,-0.743"
         id="path200-4" />
    </clipPath>
    <clipPath
       clipPathUnits="userSpaceOnUse"
       id="clipPath220-31">
      <path
         d="m 371.219,257.75 v 0 l -0.93,0.93 49.859,28.332 c 6.332,3.597 9.887,8.238 10.481,12.965 0,-1.735 -0.387,-3.469 -1.156,-5.157 -1.551,-3.402 -4.66,-6.617 -9.325,-9.269 L 371.219,257.75"
         id="path218-0" />
    </clipPath>
    <clipPath
       clipPathUnits="userSpaceOnUse"
       id="clipPath242-89">
      <path
         d="m 430.629,299.996 c -0.594,4.738 -4.149,9.375 -10.481,12.973 l -49.863,28.328 0.93,0.93 h 0.004 l 48.929,-27.801 c 6.981,-3.969 10.477,-9.199 10.481,-14.43"
         id="path240-37" />
    </clipPath>
    <clipPath
       clipPathUnits="userSpaceOnUse"
       id="clipPath264-0">
      <path
         d="m 199.727,409.105 v 1.461 c 0,0.02 0,0.036 0,0.055 0,0.004 0,0.008 0,0.012 0,0.551 0.015,1.09 0.043,1.613 0,0.008 0,0.016 0,0.024 0,0.007 0,0.015 0.003,0.023 0,0.016 0,0.031 0,0.047 0,0.004 0,0.008 0,0.012 0.301,5.332 1.957,9.492 4.582,12.269 v 0 0 l 0.731,-0.734 c -3.356,-3.028 -5.359,-8.078 -5.359,-14.782 m 5.339,16.215 0.028,0.028 c -0.008,-0.012 -0.02,-0.02 -0.028,-0.028"
         id="path262-5" />
    </clipPath>
    <clipPath
       clipPathUnits="userSpaceOnUse"
       id="clipPath290-80">
      <path
         d="M 370.285,341.297 225.137,423.77 c -4.024,2.281 -7.832,3.363 -11.223,3.363 -3.457,0 -6.473,-1.125 -8.828,-3.246 l -0.731,0.734 v 0 c 0.231,0.242 0.465,0.477 0.711,0.699 0.008,0.008 0.02,0.016 0.028,0.024 2.336,2.105 5.32,3.23 8.746,3.25 v 0 c 0.008,0 0.019,0 0.031,0 0.016,0 0.027,0 0.043,0 3.391,0 7.199,-1.082 11.223,-3.364 l 146.082,-83 -0.004,-0.003 -0.93,-0.93"
         id="path288-6" />
    </clipPath>
  </defs>
  <g
     inkscape:label="Layer 1"
     inkscape:groupmode="layer"
     id="layer1">
    <g
       id="g2521"
       transform="translate(-105.4375,-121.64444)">
      <g
         id="g732">
        <path
           d="m 151.29861,135.75555 h -44.09722 c -0.97014,0 -1.76389,-0.79375 -1.76389,-1.76389 v -10.58333 c 0,-0.97014 0.79375,-1.76389 1.76389,-1.76389 h 44.09722 c 0.97014,0 1.76389,0.79375 1.76389,1.76389 v 10.58333 c 0,0.97014 -0.79375,1.76389 -1.76389,1.76389"
           style="fill:#000000;fill-opacity:1;fill-rule:nonzero;stroke:none;stroke-width:0.0352778"
           id="path16" />
        <path
           d="m 151.29861,121.64444 h -44.09722 c -0.97014,0 -1.76389,0.79375 -1.76389,1.76389 v 10.58333 c 0,0.97014 0.79375,1.76389 1.76389,1.76389 h 44.09722 c 0.97014,0 1.76389,-0.79375 1.76389,-1.76389 v -10.58333 c 0,-0.97014 -0.79375,-1.76389 -1.76389,-1.76389 m 0,0.28222 c 0.81704,0 1.48167,0.66478 1.48167,1.48167 v 10.58333 c 0,0.81704 -0.66463,1.48181 -1.48167,1.48181 h -44.09722 c -0.8169,0 -1.48167,-0.66477 -1.48167,-1.48181 v -10.58333 c 0,-0.81689 0.66477,-1.48167 1.48167,-1.48167 h 44.09722"
           style="fill:#a6a6a6;fill-opacity:1;fill-rule:nonzero;stroke:none;stroke-width:0.0352778"
           id="path18" />
        <path
           d="m 122.16566,125.25808 c 0,0.29556 -0.0875,0.53093 -0.26282,0.70651 -0.19911,0.20878 -0.45861,0.31323 -0.77763,0.31323 -0.30551,0 -0.56526,-0.10583 -0.77886,-0.31778 -0.214,-0.21181 -0.32078,-0.47445 -0.32078,-0.78782 0,-0.31352 0.10678,-0.57602 0.32078,-0.78797 0.2136,-0.2118 0.47335,-0.31778 0.77886,-0.31778 0.15159,0 0.29672,0.0296 0.43452,0.0888 0.13779,0.0593 0.24832,0.13794 0.33101,0.23647 l -0.18606,0.18616 c -0.14012,-0.16743 -0.33306,-0.25107 -0.57947,-0.25107 -0.22282,0 -0.41547,0.0783 -0.57806,0.23495 -0.16263,0.15684 -0.24391,0.36022 -0.24391,0.61048 0,0.25026 0.0813,0.45363 0.24391,0.61048 0.16259,0.15667 0.35524,0.23495 0.57806,0.23495 0.23636,0 0.43342,-0.0787 0.59118,-0.23633 0.10242,-0.10269 0.16165,-0.24542 0.17749,-0.42873 h -0.76867 v -0.25424 h 1.0257 c 0.01,0.0553 0.0148,0.10833 0.0148,0.15973"
           style="fill:#ffffff;fill-opacity:1;fill-rule:nonzero;stroke:none;stroke-width:0.0352778"
           id="path20" />
        <path
           d="m 122.16566,125.25808 h -0.0353 c -2.8e-4,0.28882 -0.0846,0.51315 -0.25248,0.68157 l -3.9e-4,2.8e-4 -1.4e-4,2.9e-4 c -0.1928,0.20157 -0.44059,0.3019 -0.75216,0.30233 -0.29736,-4.3e-4 -0.54624,-0.10185 -0.75406,-0.30745 -0.20737,-0.20602 -0.30992,-0.45752 -0.31031,-0.76288 3.9e-4,-0.30551 0.10294,-0.55686 0.31031,-0.76274 0.20782,-0.20574 0.4567,-0.30731 0.75406,-0.30773 0.14704,0 0.28705,0.0287 0.42058,0.0859 0.13367,0.0576 0.23925,0.1331 0.31792,0.22683 l 0.027,-0.0228 -0.0249,-0.0249 -0.18606,0.1863 0.0249,0.0248 0.0272,-0.0226 c -0.14665,-0.17572 -0.3525,-0.2643 -0.60664,-0.26377 -0.23107,-2.8e-4 -0.43434,0.0823 -0.60247,0.2449 -0.16976,0.16316 -0.25506,0.37796 -0.25478,0.63581 -2.8e-4,0.25784 0.085,0.47265 0.25478,0.63581 0.16813,0.16263 0.3714,0.24518 0.60247,0.2449 0.24419,4.2e-4 0.4523,-0.0824 0.61613,-0.24666 v 0 c 0.10943,-0.10972 0.17145,-0.2617 0.18771,-0.45064 l 0.003,-0.0383 h -0.77184 v -0.1837 h 0.99042 v -0.0353 l -0.0348,0.006 c 0.01,0.0535 0.0142,0.10431 0.0142,0.15352 h 0.0353 0.0353 c 0,-0.0536 -0.005,-0.10872 -0.0153,-0.16605 l -0.005,-0.029 h -1.09047 v 0.28952 0.0353 h 0.80395 v -0.0353 l -0.0351,-0.003 c -0.0156,0.17752 -0.0721,0.31118 -0.16729,0.40682 v 0 c -0.15159,0.15103 -0.33761,0.22557 -0.56624,0.22599 -0.21456,-2.8e-4 -0.39659,-0.0742 -0.55354,-0.22503 -0.15544,-0.15036 -0.23277,-0.34231 -0.23316,-0.58512 3.9e-4,-0.24282 0.0777,-0.43477 0.23316,-0.58512 0.15695,-0.15088 0.33898,-0.22475 0.55354,-0.22504 0.23855,5.7e-4 0.41868,0.0794 0.55248,0.23855 l 0.0248,0.0295 0.21319,-0.21346 0.0229,-0.0229 -0.0208,-0.0247 c -0.0867,-0.10332 -0.20214,-0.18535 -0.34409,-0.24623 -0.14221,-0.0611 -0.29228,-0.0917 -0.44842,-0.0917 -0.31362,-2.8e-4 -0.58427,0.10996 -0.8038,0.32812 -0.22035,0.21774 -0.3314,0.49142 -0.33112,0.81291 -2.8e-4,0.32134 0.11077,0.59517 0.33126,0.81304 0.21939,0.21802 0.49004,0.32812 0.80366,0.32784 0.3266,2.8e-4 0.59753,-0.1082 0.80313,-0.32413 l -0.0255,-0.0244 0.0249,0.0249 c 0.18274,-0.18259 0.2734,-0.42926 0.27315,-0.73145 h -0.0353"
           style="fill:#ffffff;fill-opacity:1;fill-rule:nonzero;stroke:none;stroke-width:0.0352778"
           id="path22" />
        <path
           d="m 123.79172,124.37392 h -0.96393 v 0.67112 h 0.86928 v 0.25435 h -0.86928 v 0.67113 h 0.96393 v 0.26003 h -1.23568 v -2.11667 h 1.23568 v 0.26004"
           style="fill:#ffffff;fill-opacity:1;fill-rule:nonzero;stroke:none;stroke-width:0.0352778"
           id="path24" />
        <path
           d="m 123.79172,124.37392 v -0.0353 h -0.99921 v 0.74168 h 0.86928 v 0.18369 l -0.86928,1.1e-4 v 0.74168 h 0.96393 v 0.18947 h -1.16512 v -2.04611 h 1.16512 v 0.22476 h 0.0353 v -0.0353 0.0353 h 0.0353 v -0.26004 -0.0353 h -1.30623 v 2.18722 h 1.30623 v -0.29531 -0.0353 h -0.96393 v -0.60057 h 0.86928 v -0.28963 -0.0353 h -0.86928 v -0.60057 h 0.96393 v -0.0353 h -0.0353"
           style="fill:#ffffff;fill-opacity:1;fill-rule:nonzero;stroke:none;stroke-width:0.0352778"
           id="path26" />
        <path
           d="m 124.93867,126.23055 h -0.27217 v -1.85663 h -0.59119 v -0.26004 h 1.45454 v 0.26004 h -0.59118 v 1.85663"
           style="fill:#ffffff;fill-opacity:1;fill-rule:nonzero;stroke:none;stroke-width:0.0352778"
           id="path28" />
        <path
           d="m 124.93867,126.23055 v -0.0353 h -0.23689 v -1.85663 h -0.59119 v -0.18948 h 1.38398 v 0.18948 h -0.59118 v 1.89191 h 0.0353 v -0.0353 0.0353 h 0.0353 v -1.82136 h 0.59119 v -0.29531 -0.0353 h -1.52509 v 0.29531 0.0353 h 0.59118 v 1.85664 h 0.30745 0.0353 v -0.0353 h -0.0353"
           style="fill:#ffffff;fill-opacity:1;fill-rule:nonzero;stroke:none;stroke-width:0.0352778"
           id="path30" />
        <path
           d="m 126.58226,126.23055 v -2.11667 h 0.27188 v 2.11667 h -0.27188"
           style="fill:#ffffff;fill-opacity:1;fill-rule:nonzero;stroke:none;stroke-width:0.0352778"
           id="path32" />
        <path
           d="m 126.58226,126.23055 h 0.0353 v -2.08139 h 0.20133 v 2.04611 h -0.23661 v 0.0353 h 0.0353 -0.0353 v 0.0353 h 0.27188 0.0353 v -2.18722 h -0.30716 -0.0353 v 2.18722 h 0.0353 v -0.0353"
           style="fill:#ffffff;fill-opacity:1;fill-rule:nonzero;stroke:none;stroke-width:0.0352778"
           id="path34" />
        <path
           d="m 128.06061,126.23055 h -0.27217 v -1.85663 h -0.59115 v -0.26004 h 1.4545 v 0.26004 h -0.59118 v 1.85663"
           style="fill:#ffffff;fill-opacity:1;fill-rule:nonzero;stroke:none;stroke-width:0.0352778"
           id="path36" />
        <path
           d="m 128.06061,126.23055 v -0.0353 h -0.23689 v -1.85663 h -0.59115 v -0.18948 h 1.38395 v 0.18948 h -0.59119 v 1.89191 h 0.0353 v -0.0353 0.0353 h 0.0353 v -1.82136 h 0.59118 v -0.29531 -0.0353 h -1.52506 v 0.29531 0.0353 h 0.59115 v 1.85664 h 0.30745 0.0353 v -0.0353 h -0.0353"
           style="fill:#ffffff;fill-opacity:1;fill-rule:nonzero;stroke:none;stroke-width:0.0352778"
           id="path38" />
        <path
           d="m 130.05409,125.77981 c 0.15666,0.15861 0.34836,0.23784 0.57506,0.23784 0.22669,0 0.4185,-0.0792 0.57492,-0.23784 0.15681,-0.15861 0.23537,-0.36135 0.23537,-0.60759 0,-0.24624 -0.0786,-0.44898 -0.23537,-0.60759 -0.15642,-0.15861 -0.34823,-0.23784 -0.57492,-0.23784 -0.2267,0 -0.4184,0.0792 -0.57506,0.23784 -0.15643,0.15861 -0.23495,0.36135 -0.23495,0.60759 0,0.24624 0.0785,0.44898 0.23495,0.60759 z m 1.35117,0.1772 c -0.2081,0.21399 -0.4669,0.32081 -0.77611,0.32081 -0.30953,0 -0.56818,-0.10682 -0.77583,-0.32081 -0.20824,-0.21375 -0.31186,-0.47541 -0.31186,-0.78479 0,-0.30939 0.10362,-0.57108 0.31186,-0.78479 0.20765,-0.21403 0.4663,-0.32096 0.77583,-0.32096 0.30759,0 0.56568,0.10749 0.77473,0.32233 0.20878,0.21485 0.31324,0.47597 0.31324,0.78342 0,0.30938 -0.10421,0.57104 -0.31186,0.78479"
           style="fill:#ffffff;fill-opacity:1;fill-rule:nonzero;stroke:none;stroke-width:0.0352778"
           id="path40" />
        <path
           d="m 130.05409,125.77981 -0.0251,0.0248 c 0.16249,0.16496 0.3652,0.24874 0.60015,0.24832 0.23481,4.2e-4 0.4378,-0.0834 0.6,-0.24832 0.16355,-0.1651 0.24582,-0.37871 0.24557,-0.63239 2.5e-4,-0.25368 -0.082,-0.46729 -0.24557,-0.63239 v 0 c -0.1622,-0.16496 -0.36519,-0.24875 -0.6,-0.24832 -0.23495,-4.3e-4 -0.43766,0.0834 -0.60015,0.24832 v 0 c -0.16316,0.1651 -0.24557,0.37871 -0.24514,0.63239 -4.3e-4,0.25368 0.082,0.46729 0.24514,0.63239 l 0.0251,-0.0248 0.0251,-0.0248 c -0.14965,-0.1523 -0.22447,-0.34386 -0.22476,-0.58279 2.9e-4,-0.23894 0.0751,-0.4305 0.22476,-0.58279 v 0 c 0.15102,-0.15226 0.3314,-0.22694 0.54998,-0.22737 0.2184,4.3e-4 0.3992,0.0751 0.54984,0.22737 v 0 c 0.14993,0.15229 0.22475,0.34385 0.22504,0.58279 -2.9e-4,0.23893 -0.0751,0.43049 -0.22504,0.58279 -0.15064,0.15226 -0.33144,0.22694 -0.54984,0.22736 -0.21858,-4.2e-4 -0.39896,-0.0751 -0.54998,-0.22736 z m 1.35117,0.1772 -0.0252,-0.0245 c -0.20229,0.20726 -0.44965,0.30963 -0.75089,0.31006 -0.30138,-4.3e-4 -0.54875,-0.1028 -0.75064,-0.31006 l -9.5e-4,-10e-4 9.5e-4,10e-4 c -0.20186,-0.20796 -0.30149,-0.45875 -0.30177,-0.76027 2.8e-4,-0.30152 0.0999,-0.55231 0.30177,-0.76027 v 0 c 0.20189,-0.20726 0.44926,-0.30978 0.75064,-0.3102 0.2993,4.2e-4 0.5461,0.10336 0.74951,0.31171 0.20257,0.20892 0.30275,0.45932 0.30318,0.75876 -4.3e-4,0.30152 -0.10033,0.55231 -0.3018,0.76027 l 0.0252,0.0245 0.0254,0.0245 c 0.21386,-0.21964 0.32202,-0.49209 0.32177,-0.80931 2.5e-4,-0.31542 -0.10833,-0.58731 -0.32318,-0.80793 -0.21494,-0.22148 -0.48422,-0.33348 -0.80006,-0.3331 -0.3175,-3.8e-4 -0.58759,0.11109 -0.80119,0.33172 v -1.4e-4 c -0.21428,0.21978 -0.32206,0.49223 -0.32177,0.80945 -2.9e-4,0.31722 0.10749,0.58967 0.32177,0.80945 l 9.5e-4,9.8e-4 -9.5e-4,-0.001 c 0.2136,0.22062 0.48369,0.33185 0.80119,0.33157 0.31736,2.8e-4 0.58744,-0.11095 0.80147,-0.33157 l -0.0254,-0.0245"
           style="fill:#ffffff;fill-opacity:1;fill-rule:nonzero;stroke:none;stroke-width:0.0352778"
           id="path42" />
        <path
           d="m 132.09882,126.23055 v -2.11667 h 0.33101 l 1.0287,1.64663 h 0.0117 l -0.0117,-0.40792 v -1.23871 h 0.27217 v 2.11667 h -0.28388 l -1.07625,-1.72642 h -0.0117 l 0.0117,0.40806 v 1.31836 h -0.27175"
           style="fill:#ffffff;fill-opacity:1;fill-rule:nonzero;stroke:none;stroke-width:0.0352778"
           id="path44" />
        <path
           d="m 132.09882,126.23055 h 0.0353 v -2.08139 h 0.27615 l 1.0287,1.64663 h 0.0313 0.0362 l -0.0127,-0.44373 v -1.2029 h 0.20161 v 2.04611 h -0.22902 l -1.07625,-1.72642 h -0.0313 -0.0362 l 0.0127,0.4439 v 1.28252 h -0.23647 v 0.0353 h 0.0353 -0.0353 v 0.0353 h 0.27175 0.0353 v -1.35421 l -0.0117,-0.40845 -0.0353,9.6e-4 v 0.0353 h 0.0117 v -0.0353 l -0.0299,0.0188 1.08659,1.74293 h 0.30346 0.0353 v -2.18722 h -0.30745 -0.0353 v 1.27441 l 0.0117,0.40844 0.0353,-9.5e-4 v -0.0353 h -0.0117 v 0.0353 l 0.0299,-0.0187 -1.03907,-1.66317 h -0.35056 -0.0353 v 2.18722 h 0.0353 v -0.0353"
           style="fill:#ffffff;fill-opacity:1;fill-rule:nonzero;stroke:none;stroke-width:0.0352778"
           id="path46" />
        <path
           d="m 143.16214,132.22777 h 0.65829 v -4.41014 h -0.65829 z m 5.92914,-2.82151 -0.75459,1.91202 h -0.0226 l -0.78316,-1.91202 h -0.70909 l 1.1744,2.67239 -0.66957,1.4865 h 0.68686 l 1.80975,-4.15889 z m -3.73309,2.3206 c -0.2159,0 -0.51647,-0.10777 -0.51647,-0.37454 0,-0.34039 0.37465,-0.47089 0.69779,-0.47089 0.28963,0 0.42545,0.0624 0.60149,0.14761 -0.0511,0.40844 -0.40287,0.69782 -0.78281,0.69782 z m 0.0794,-2.41709 c -0.4766,0 -0.97014,0.21001 -1.1744,0.67525 l 0.5842,0.24391 c 0.12489,-0.24391 0.35737,-0.32342 0.60149,-0.32342 0.34043,0 0.68651,0.20436 0.69215,0.56748 v 0.0453 c -0.11924,-0.0681 -0.3743,-0.17018 -0.68651,-0.17018 -0.6297,0 -1.27105,0.346 -1.27105,0.99286 0,0.59009 0.51646,0.97028 1.09502,0.97028 0.44273,0 0.6865,-0.19858 0.83996,-0.43117 h 0.0226 v 0.34036 h 0.63535 v -1.69086 c 0,-0.78285 -0.5842,-1.21984 -1.33879,-1.21984 z m -4.06823,0.63334 h -0.93627 v -1.51168 h 0.93627 c 0.49212,0 0.77152,0.40745 0.77152,0.75582 0,0.34177 -0.2794,0.75586 -0.77152,0.75586 z m -0.0169,-2.12548 h -1.57726 v 4.41014 h 0.65793 v -1.67086 h 0.91933 c 0.72955,0 1.44675,-0.52821 1.44675,-1.36966 0,-0.84141 -0.7172,-1.36962 -1.44675,-1.36962 z m -8.60107,3.91005 c -0.45477,0 -0.83552,-0.38076 -0.83552,-0.90371 0,-0.52847 0.38075,-0.915 0.83552,-0.915 0.44898,0 0.80133,0.38653 0.80133,0.915 0,0.52295 -0.35235,0.90371 -0.80133,0.90371 z m 0.75586,-2.07448 h -0.0228 c -0.14771,-0.17614 -0.43201,-0.33528 -0.79001,-0.33528 -0.75022,0 -1.43786,0.65924 -1.43786,1.50605 0,0.84116 0.68764,1.49475 1.43786,1.49475 0.358,0 0.6423,-0.15917 0.79001,-0.34092 h 0.0228 v 0.21593 c 0,0.57411 -0.30688,0.88099 -0.80133,0.88099 -0.40351,0 -0.6536,-0.28995 -0.75601,-0.53428 l -0.57393,0.23869 c 0.16482,0.39783 0.60247,0.88664 1.32994,0.88664 0.77293,0 1.42652,-0.45477 1.42652,-1.56299 v -2.69391 h -0.62519 z m 1.07982,2.57457 h 0.65927 v -4.41028 H 134.587 Z m 1.63117,-1.45492 c -0.0171,-0.57976 0.44898,-0.87521 0.78426,-0.87521 0.26162,0 0.48317,0.13063 0.5569,0.31835 z m 2.04601,-0.5001 c -0.12489,-0.33542 -0.50589,-0.95483 -1.2845,-0.95483 -0.77294,0 -1.4151,0.60812 -1.4151,1.5004 0,0.84116 0.63652,1.5004 1.48897,1.5004 0.68781,0 1.08574,-0.42058 1.25049,-0.66492 l -0.51153,-0.34106 c -0.17039,0.25012 -0.40357,0.41494 -0.73896,0.41494 -0.33528,0 -0.57393,-0.1535 -0.72746,-0.45463 l 2.00617,-0.82984 z m -15.98373,-0.49445 v 0.63651 h 1.52312 c -0.0455,0.35804 -0.16482,0.61945 -0.34671,0.80134 -0.22158,0.22172 -0.56829,0.46605 -1.17641,0.46605 -0.93779,0 -1.6709,-0.75586 -1.6709,-1.69361 0,-0.93776 0.73311,-1.69372 1.6709,-1.69372 0.50585,0 0.87517,0.19896 1.14801,0.45473 l 0.44898,-0.44895 c -0.38075,-0.36382 -0.88664,-0.6423 -1.59699,-0.6423 -1.2845,0 -2.36432,1.04577 -2.36432,2.33024 0,1.28446 1.07982,2.33013 2.36432,2.33013 0.69342,0 1.21624,-0.22722 1.62539,-0.65359 0.42058,-0.42058 0.55136,-1.01163 0.55136,-1.48897 0,-0.14789 -0.0113,-0.28416 -0.0342,-0.39786 z m 3.90839,1.94938 c -0.45477,0 -0.84695,-0.37511 -0.84695,-0.90936 0,-0.53993 0.39218,-0.90935 0.84695,-0.90935 0.45459,0 0.84677,0.36942 0.84677,0.90935 0,0.53425 -0.39218,0.90936 -0.84677,0.90936 z m 0,-2.40976 c -0.82987,0 -1.50622,0.63084 -1.50622,1.5004 0,0.86388 0.67635,1.5004 1.50622,1.5004 0.8297,0 1.50604,-0.63652 1.50604,-1.5004 0,-0.86956 -0.67634,-1.5004 -1.50604,-1.5004 z m 3.28549,2.40976 c -0.45459,0 -0.84681,-0.37511 -0.84681,-0.90936 0,-0.53993 0.39222,-0.90935 0.84681,-0.90935 0.45463,0 0.84681,0.36942 0.84681,0.90935 0,0.53425 -0.39218,0.90936 -0.84681,0.90936 z m 0,-2.40976 c -0.82984,0 -1.50604,0.63084 -1.50604,1.5004 0,0.86388 0.6762,1.5004 1.50604,1.5004 0.82973,0 1.50608,-0.63652 1.50608,-1.5004 0,-0.86956 -0.67635,-1.5004 -1.50608,-1.5004"
           style="fill:#ffffff;fill-opacity:1;fill-rule:nonzero;stroke:none;stroke-width:0.0352778"
           id="path48" />
        <g
           id="g52"
           clip-path="url(#clipPath56)"
           transform="matrix(0.03527778,0,0,-0.03527778,101.90972,139.28333)">
          <path
             d="m 205.098,176.105 -0.743,0.711 c -2.91,3.079 -4.628,7.86 -4.628,14.051 v -1.457 0 221.16 c 0,0.02 0,0.035 0,0.051 0,-0.019 0,-0.035 0,-0.055 v -1.461 c 0,6.704 2.003,11.754 5.359,14.782 L 328.984,299.992 205.098,176.105 m -5.371,234.528 c 0,0.551 0.015,1.086 0.043,1.613 -0.028,-0.523 -0.043,-1.062 -0.043,-1.613 m 0.043,1.637 c 0,0.007 0,0.015 0.003,0.023 -0.003,-0.008 -0.003,-0.016 -0.003,-0.023 m 0.003,0.07 c 0,0.004 0,0.008 0,0.012 0,-0.004 0,-0.008 0,-0.012"
             style="fill:url(#linearGradient70);fill-opacity:1;fill-rule:nonzero;stroke:none"
             id="path72" />
        </g>
        <g
           id="g76"
           clip-path="url(#clipPath80)"
           transform="matrix(0.03527778,0,0,-0.03527778,101.90972,139.28333)">
          <path
             d="m 370.277,257.215 v 0 l 0.942,0.535 48.929,27.801 c 4.665,2.652 7.774,5.867 9.325,9.269 -1.547,-3.402 -4.657,-6.621 -9.325,-9.273 l -48.929,-27.801 -0.942,-0.531 m 0.012,1.465 -41.305,41.312 41.301,41.305 49.863,-28.328 c 6.332,-3.598 9.887,-8.235 10.481,-12.973 0,-0.004 0,-0.012 0,-0.019 -0.594,-4.727 -4.149,-9.368 -10.481,-12.965 L 370.289,258.68"
             style="fill:url(#linearGradient90);fill-opacity:1;fill-rule:nonzero;stroke:none"
             id="path92" />
        </g>
        <g
           id="g96"
           clip-path="url(#clipPath100)"
           transform="matrix(0.03527778,0,0,-0.03527778,101.90972,139.28333)">
          <path
             d="m 213.93,171.387 c -3.461,0 -6.481,1.125 -8.836,3.25 l 0.004,0.004 c 2.355,-2.125 5.379,-3.254 8.84,-3.254 0.3,0 0.605,0.008 0.914,0.023 -0.313,-0.015 -0.622,-0.023 -0.922,-0.023 m 0.004,1.465 c -3.461,-0.004 -6.481,1.125 -8.836,3.25 v 0 0.003 l 123.886,123.887 41.305,-41.312 v 0 L 225.137,176.207 c -4.016,-2.277 -7.821,-3.355 -11.203,-3.355 m -8.871,1.812 c -0.219,0.199 -0.434,0.41 -0.645,0.629 l 0.645,-0.629"
             style="fill:url(#linearGradient106);fill-opacity:1;fill-rule:nonzero;stroke:none"
             id="path108" />
        </g>
        <g
           id="g112"
           clip-path="url(#clipPath116)"
           transform="matrix(0.03527778,0,0,-0.03527778,101.90972,139.28333)">
          <path
             d="m 328.984,299.992 v 0 L 205.086,423.887 c 2.355,2.121 5.371,3.246 8.828,3.246 3.391,0 7.199,-1.082 11.223,-3.363 l 145.148,-82.473 -41.301,-41.305 m 42.235,42.238 -146.082,83 c -4.024,2.282 -7.832,3.364 -11.223,3.364 -0.016,0 -0.027,0 -0.043,0 0.02,0 0.035,0 0.059,0 3.383,0 7.187,-1.078 11.207,-3.36 L 371.219,342.23 M 213.84,428.594 v 0 0"
             style="fill:url(#linearGradient128);fill-opacity:1;fill-rule:nonzero;stroke:none"
             id="path130" />
        </g>
        <path
           d="m 109.48922,133.23637 c 0.11091,-0.006 0.23372,-0.0445 0.36283,-0.11769 l 5.12022,-2.90932 v 0 l -5.12022,2.90932 c -0.12901,0.0733 -0.25192,0.11134 -0.36283,0.11769 m -0.34424,-0.11385 -0.001,-9.5e-4 c 3.9e-4,2.8e-4 8.1e-4,6.7e-4 0.001,9.5e-4 v 0 m -0.0239,-0.0231 -0.002,-0.002 v -1.4e-4 c 8.5e-4,8.2e-4 0.002,0.002 0.002,0.002"
           style="fill:#000000;fill-opacity:1;fill-rule:nonzero;stroke:none;stroke-width:0.0352778"
           id="path132" />
        <g
           id="g136"
           clip-path="url(#clipPath140)"
           transform="matrix(0.03527778,0,0,-0.03527778,101.90972,139.28333)">
          <path
             d="m 370.277,257.215 v 0 l 0.942,0.535 -0.942,-0.535"
             style="fill:url(#linearGradient150);fill-opacity:1;fill-rule:nonzero;stroke:none"
             id="path152" />
        </g>
        <g
           id="g156"
           clip-path="url(#clipPath160)"
           transform="matrix(0.03527778,0,0,-0.03527778,101.90972,139.28333)">
          <path
             d="m 213.938,171.387 c -3.461,0 -6.485,1.129 -8.84,3.254 l -0.004,-0.004 c -0.008,0.008 -0.02,0.019 -0.031,0.027 l -0.645,0.629 c -0.02,0.02 -0.039,0.043 -0.063,0.066 l 0.743,0.743 c 2.355,-2.125 5.375,-3.254 8.836,-3.25 3.382,0 7.187,1.078 11.203,3.355 l 145.152,82.473 0.93,-0.93 -0.942,-0.535 -145.14,-82.469 c -3.66,-2.074 -7.141,-3.156 -10.285,-3.336 -0.309,-0.015 -0.614,-0.023 -0.914,-0.023"
             style="fill:url(#linearGradient166);fill-opacity:1;fill-rule:nonzero;stroke:none"
             id="path168" />
        </g>
        <path
           d="m 109.11891,133.09719 c -0.10266,-0.10862 -0.16326,-0.27728 -0.16326,-0.49568 v -1.4e-4 c 0,0.21854 0.0606,0.38706 0.16326,0.49568 v 0 0 1.4e-4"
           style="fill:#000000;fill-opacity:1;fill-rule:nonzero;stroke:none;stroke-width:0.0352778"
           id="path170" />
        <g
           id="g174"
           clip-path="url(#clipPath178)"
           transform="matrix(0.03527778,0,0,-0.03527778,101.90972,139.28333)">
          <path
             d="m 204.355,175.359 v 0 c -2.91,3.079 -4.628,7.856 -4.628,14.051 v 1.457 c 0,-6.191 1.718,-10.972 4.628,-14.051 l 0.743,-0.711 -0.743,-0.746"
             style="fill:url(#linearGradient192);fill-opacity:1;fill-rule:nonzero;stroke:none"
             id="path194" />
        </g>
        <g
           id="g198"
           clip-path="url(#clipPath202)"
           transform="matrix(0.03527778,0,0,-0.03527778,101.90972,139.28333)">
          <path
             d="m 204.355,175.359 v 0 0 l 0.743,0.746 v -0.003 l -0.743,-0.743"
             style="fill:url(#linearGradient208);fill-opacity:1;fill-rule:nonzero;stroke:none"
             id="path210" />
        </g>
        <path
           d="m 117.06057,128.88273 c 0.0271,-0.0595 0.0408,-0.12072 0.0408,-0.18192 0,-1.1e-4 0,-2.5e-4 0,-2.5e-4 0,0.0613 -0.0137,0.12248 -0.0408,0.18217"
           style="fill:#000000;fill-opacity:1;fill-rule:nonzero;stroke:none;stroke-width:0.0352778"
           id="path212" />
        <g
           id="g216"
           clip-path="url(#clipPath220)"
           transform="matrix(0.03527778,0,0,-0.03527778,101.90972,139.28333)">
          <path
             d="m 371.219,257.75 v 0 l -0.93,0.93 49.859,28.332 c 6.332,3.597 9.887,8.238 10.481,12.965 0,-1.735 -0.387,-3.469 -1.156,-5.157 -1.551,-3.402 -4.66,-6.617 -9.325,-9.269 L 371.219,257.75"
             style="fill:url(#linearGradient230);fill-opacity:1;fill-rule:nonzero;stroke:none"
             id="path232" />
        </g>
        <path
           d="m 117.10136,128.70028 v -1.4e-4 c -1.5e-4,-0.18454 -0.12348,-0.36904 -0.36975,-0.50906 l -1.72611,-0.98076 h -1.4e-4 l 1.4e-4,-10e-5 1.72611,0.98072 c 0.24656,0.14002 0.37003,0.3248 0.36975,0.50934"
           style="fill:#404040;fill-opacity:1;fill-rule:nonzero;stroke:none;stroke-width:0.0352778"
           id="path234" />
        <g
           id="g238"
           clip-path="url(#clipPath242)"
           transform="matrix(0.03527778,0,0,-0.03527778,101.90972,139.28333)">
          <path
             d="m 430.629,299.996 c -0.594,4.738 -4.149,9.375 -10.481,12.973 l -49.863,28.328 0.93,0.93 h 0.004 l 48.929,-27.801 c 6.981,-3.969 10.477,-9.199 10.481,-14.43"
             style="fill:url(#linearGradient252);fill-opacity:1;fill-rule:nonzero;stroke:none"
             id="path254" />
        </g>
        <path
           d="m 108.95565,124.79753 c 0,-1.4e-4 0,-2.8e-4 0,-4.2e-4 0,1.4e-4 0,2.8e-4 0,4.2e-4 m 0.002,-0.0573 c 0,-2.9e-4 0,-5.7e-4 0,-8.5e-4 0,2.8e-4 0,5.6e-4 0,8.5e-4 m 1.1e-4,-0.002 c 0,-5.7e-4 0,-0.001 0,-0.002 0,5.6e-4 0,10e-4 0,0.002 m 0,-0.002 c 0.0204,-0.36241 0.21749,-0.57175 0.49625,-0.57298 -0.12086,7e-4 -0.22613,0.0404 -0.30854,0.11465 v -1.4e-4 l -9.9e-4,9.8e-4 c -0.009,0.008 -0.0169,0.0161 -0.0251,0.0247 v 0 c -0.0926,0.098 -0.15102,0.24473 -0.16164,0.43283"
           style="fill:#404040;fill-opacity:1;fill-rule:nonzero;stroke:none;stroke-width:0.0352778"
           id="path256" />
        <g
           id="g260"
           clip-path="url(#clipPath264)"
           transform="matrix(0.03527778,0,0,-0.03527778,101.90972,139.28333)">
          <path
             d="m 199.727,409.105 v 1.461 c 0,0.02 0,0.036 0,0.055 0,0.004 0,0.008 0,0.012 0,0.551 0.015,1.09 0.043,1.613 0,0.008 0,0.016 0,0.024 0,0.007 0,0.015 0.003,0.023 0,0.016 0,0.031 0,0.047 0,0.004 0,0.008 0,0.012 0.301,5.332 1.957,9.492 4.582,12.269 v 0 0 l 0.731,-0.734 c -3.356,-3.028 -5.359,-8.078 -5.359,-14.782 m 5.339,16.215 0.028,0.028 c -0.008,-0.012 -0.02,-0.02 -0.028,-0.028"
             style="fill:url(#linearGradient278);fill-opacity:1;fill-rule:nonzero;stroke:none"
             id="path280" />
        </g>
        <path
           d="m 109.45352,124.16349 c 2.8e-4,0 6.7e-4,0 0.001,0 -4.2e-4,0 -8.1e-4,0 -0.001,0"
           style="fill:#404040;fill-opacity:1;fill-rule:nonzero;stroke:none;stroke-width:0.0352778"
           id="path282" />
        <g
           id="g286"
           clip-path="url(#clipPath290)"
           transform="matrix(0.03527778,0,0,-0.03527778,101.90972,139.28333)">
          <path
             d="M 370.285,341.297 225.137,423.77 c -4.024,2.281 -7.832,3.363 -11.223,3.363 -3.457,0 -6.473,-1.125 -8.828,-3.246 l -0.731,0.734 v 0 c 0.231,0.242 0.465,0.477 0.711,0.699 0.008,0.008 0.02,0.016 0.028,0.024 2.336,2.105 5.32,3.23 8.746,3.25 v 0 c 0.008,0 0.019,0 0.031,0 0.016,0 0.027,0 0.043,0 3.391,0 7.199,-1.082 11.223,-3.364 l 146.082,-83 -0.004,-0.003 -0.93,-0.93"
             style="fill:url(#linearGradient302);fill-opacity:1;fill-rule:nonzero;stroke:none"
             id="path304" />
        </g>
      </g>
    </g>
  </g>
</svg>
