<?xml version="1.0" encoding="UTF-8" standalone="no"?>
<!-- Created with Inkscape (http://www.inkscape.org/) -->

<svg
   width="47.625mm"
   height="14.111mm"
   viewBox="0 0 47.625 14.111"
   version="1.1"
   id="svg167"
   inkscape:version="1.1.1 (c3084ef, 2021-09-22)"
   sodipodi:docname="google-play-es.svg"
   xmlns:inkscape="http://www.inkscape.org/namespaces/inkscape"
   xmlns:sodipodi="http://sodipodi.sourceforge.net/DTD/sodipodi-0.dtd"
   xmlns="http://www.w3.org/2000/svg"
   xmlns:svg="http://www.w3.org/2000/svg">
  <sodipodi:namedview
     id="namedview169"
     pagecolor="#505050"
     bordercolor="#eeeeee"
     borderopacity="1"
     inkscape:pageshadow="0"
     inkscape:pageopacity="0"
     inkscape:pagecheckerboard="0"
     inkscape:document-units="mm"
     showgrid="false"
     width="47.625mm"
     inkscape:zoom="1.3165118"
     inkscape:cx="-99.885168"
     inkscape:cy="219.51949"
     inkscape:window-width="1920"
     inkscape:window-height="1080"
     inkscape:window-x="0"
     inkscape:window-y="0"
     inkscape:window-maximized="0"
     inkscape:current-layer="layer1" />
  <defs
     id="defs164">
    <clipPath
       clipPathUnits="userSpaceOnUse"
       id="clipPath28">
      <path
         d="m 205.098,176.105 -0.743,0.711 c -2.91,3.079 -4.628,7.86 -4.628,14.051 v -1.457 0 221.16 c 0,0.02 0,0.035 0,0.051 0,-0.019 0,-0.035 0,-0.055 v -1.461 c 0,6.704 2.003,11.754 5.359,14.782 L 328.984,299.992 205.098,176.105 m -5.371,234.528 c 0,0.551 0.015,1.086 0.043,1.613 -0.028,-0.523 -0.043,-1.062 -0.043,-1.613 m 0.043,1.637 c 0,0.007 0,0.015 0.003,0.023 -0.003,-0.008 -0.003,-0.016 -0.003,-0.023 m 0.003,0.07 c 0,0.004 0,0.008 0,0.012 0,-0.004 0,-0.008 0,-0.012"
         id="path26" />
    </clipPath>
    <linearGradient
       x1="0"
       y1="0"
       x2="1"
       y2="0"
       gradientUnits="userSpaceOnUse"
       gradientTransform="matrix(-167.825,-167.825,167.825,-167.825,317.998,412.903)"
       spreadMethod="pad"
       id="linearGradient42">
      <stop
         style="stop-opacity:1;stop-color:#00a0ff"
         offset="0"
         id="stop30" />
      <stop
         style="stop-opacity:1;stop-color:#00a1ff"
         offset="0.00657445"
         id="stop32" />
      <stop
         style="stop-opacity:1;stop-color:#00beff"
         offset="0.2601"
         id="stop34" />
      <stop
         style="stop-opacity:1;stop-color:#00d2ff"
         offset="0.5122"
         id="stop36" />
      <stop
         style="stop-opacity:1;stop-color:#00dfff"
         offset="0.7604"
         id="stop38" />
      <stop
         style="stop-opacity:1;stop-color:#00e3ff"
         offset="1"
         id="stop40" />
    </linearGradient>
    <clipPath
       clipPathUnits="userSpaceOnUse"
       id="clipPath52">
      <path
         d="m 370.277,257.215 v 0 l 0.942,0.535 48.929,27.801 c 4.665,2.652 7.774,5.867 9.325,9.269 -1.547,-3.402 -4.657,-6.621 -9.325,-9.273 l -48.929,-27.801 -0.942,-0.531 m 0.012,1.465 -41.305,41.312 41.301,41.305 49.863,-28.328 c 6.332,-3.598 9.887,-8.235 10.481,-12.973 0,-0.004 0,-0.012 0,-0.019 -0.594,-4.727 -4.149,-9.368 -10.481,-12.965 L 370.289,258.68"
         id="path50" />
    </clipPath>
    <linearGradient
       x1="0"
       y1="0"
       x2="1"
       y2="0"
       gradientUnits="userSpaceOnUse"
       gradientTransform="matrix(-241.97,0,0,-241.97,438.344,299.986)"
       spreadMethod="pad"
       id="linearGradient62">
      <stop
         style="stop-opacity:1;stop-color:#ffe000"
         offset="0"
         id="stop54" />
      <stop
         style="stop-opacity:1;stop-color:#ffbd00"
         offset="0.4087"
         id="stop56" />
      <stop
         style="stop-opacity:1;stop-color:#ffa500"
         offset="0.7754"
         id="stop58" />
      <stop
         style="stop-opacity:1;stop-color:#ff9c00"
         offset="1"
         id="stop60" />
    </linearGradient>
    <clipPath
       clipPathUnits="userSpaceOnUse"
       id="clipPath72">
      <path
         d="m 213.93,171.387 c -3.461,0 -6.481,1.125 -8.836,3.25 l 0.004,0.004 c 2.355,-2.125 5.379,-3.254 8.84,-3.254 0.3,0 0.605,0.008 0.914,0.023 -0.313,-0.015 -0.622,-0.023 -0.922,-0.023 m 0.004,1.465 c -3.461,-0.004 -6.481,1.125 -8.836,3.25 v 0 0.003 l 123.886,123.887 41.305,-41.312 v 0 L 225.137,176.207 c -4.016,-2.277 -7.821,-3.355 -11.203,-3.355 m -8.871,1.812 c -0.219,0.199 -0.434,0.41 -0.645,0.629 l 0.645,-0.629"
         id="path70" />
    </clipPath>
    <linearGradient
       x1="0"
       y1="0"
       x2="1"
       y2="0"
       gradientUnits="userSpaceOnUse"
       gradientTransform="matrix(-227.583,-227.583,227.583,-227.583,348.27,277.039)"
       spreadMethod="pad"
       id="linearGradient78">
      <stop
         style="stop-opacity:1;stop-color:#ff3a44"
         offset="0"
         id="stop74" />
      <stop
         style="stop-opacity:1;stop-color:#c31162"
         offset="1"
         id="stop76" />
    </linearGradient>
    <clipPath
       clipPathUnits="userSpaceOnUse"
       id="clipPath88">
      <path
         d="m 328.984,299.992 v 0 L 205.086,423.887 c 2.355,2.121 5.371,3.246 8.828,3.246 3.391,0 7.199,-1.082 11.223,-3.363 l 145.148,-82.473 -41.301,-41.305 m 42.235,42.238 -146.082,83 c -4.024,2.282 -7.832,3.364 -11.223,3.364 -0.016,0 -0.027,0 -0.043,0 0.02,0 0.035,0 0.059,0 3.383,0 7.187,-1.078 11.207,-3.36 L 371.219,342.23 M 213.84,428.594 v 0 0"
         id="path86" />
    </clipPath>
    <linearGradient
       x1="0"
       y1="0"
       x2="1"
       y2="0"
       gradientUnits="userSpaceOnUse"
       gradientTransform="matrix(101.625,-101.625,101.625,101.625,172.973,498.238)"
       spreadMethod="pad"
       id="linearGradient100">
      <stop
         style="stop-opacity:1;stop-color:#32a071"
         offset="0"
         id="stop90" />
      <stop
         style="stop-opacity:1;stop-color:#2da771"
         offset="0.0685"
         id="stop92" />
      <stop
         style="stop-opacity:1;stop-color:#15cf74"
         offset="0.4762"
         id="stop94" />
      <stop
         style="stop-opacity:1;stop-color:#06e775"
         offset="0.8009"
         id="stop96" />
      <stop
         style="stop-opacity:1;stop-color:#00f076"
         offset="1"
         id="stop98" />
    </linearGradient>
    <clipPath
       clipPathUnits="userSpaceOnUse"
       id="clipPath112">
      <path
         d="m 370.277,257.215 v 0 l 0.942,0.535 -0.942,-0.535"
         id="path110" />
    </clipPath>
    <linearGradient
       x1="0"
       y1="0"
       x2="1"
       y2="0"
       gradientUnits="userSpaceOnUse"
       gradientTransform="matrix(-241.97,0,0,-241.97,438.344,299.986)"
       spreadMethod="pad"
       id="linearGradient122">
      <stop
         style="stop-opacity:1;stop-color:#ccb300"
         offset="0"
         id="stop114" />
      <stop
         style="stop-opacity:1;stop-color:#cc9700"
         offset="0.4087"
         id="stop116" />
      <stop
         style="stop-opacity:1;stop-color:#cc8400"
         offset="0.7754"
         id="stop118" />
      <stop
         style="stop-opacity:1;stop-color:#cc7d00"
         offset="1"
         id="stop120" />
    </linearGradient>
    <clipPath
       clipPathUnits="userSpaceOnUse"
       id="clipPath132">
      <path
         d="m 213.938,171.387 c -3.461,0 -6.485,1.129 -8.84,3.254 l -0.004,-0.004 c -0.008,0.008 -0.02,0.019 -0.031,0.027 l -0.645,0.629 c -0.02,0.02 -0.039,0.043 -0.063,0.066 l 0.743,0.743 c 2.355,-2.125 5.375,-3.254 8.836,-3.25 3.382,0 7.187,1.078 11.203,3.355 l 145.152,82.473 0.93,-0.93 -0.942,-0.535 -145.14,-82.469 c -3.66,-2.074 -7.141,-3.156 -10.285,-3.336 -0.309,-0.015 -0.614,-0.023 -0.914,-0.023"
         id="path130" />
    </clipPath>
    <linearGradient
       x1="0"
       y1="0"
       x2="1"
       y2="0"
       gradientUnits="userSpaceOnUse"
       gradientTransform="matrix(-227.583,-227.583,227.583,-227.583,348.27,277.039)"
       spreadMethod="pad"
       id="linearGradient138">
      <stop
         style="stop-opacity:1;stop-color:#cc2e36"
         offset="0"
         id="stop134" />
      <stop
         style="stop-opacity:1;stop-color:#9c0e4e"
         offset="1"
         id="stop136" />
    </linearGradient>
    <clipPath
       clipPathUnits="userSpaceOnUse"
       id="clipPath150">
      <path
         d="m 204.355,175.359 v 0 c -2.91,3.079 -4.628,7.856 -4.628,14.051 v 1.457 c 0,-6.191 1.718,-10.972 4.628,-14.051 l 0.743,-0.711 -0.743,-0.746"
         id="path148" />
    </clipPath>
    <linearGradient
       x1="0"
       y1="0"
       x2="1"
       y2="0"
       gradientUnits="userSpaceOnUse"
       gradientTransform="matrix(-167.825,-167.825,167.825,-167.825,317.998,412.903)"
       spreadMethod="pad"
       id="linearGradient164">
      <stop
         style="stop-opacity:1;stop-color:#008de0"
         offset="0"
         id="stop152" />
      <stop
         style="stop-opacity:1;stop-color:#008de0"
         offset="0.00657445"
         id="stop154" />
      <stop
         style="stop-opacity:1;stop-color:#00a7e0"
         offset="0.2601"
         id="stop156" />
      <stop
         style="stop-opacity:1;stop-color:#00b8e0"
         offset="0.5122"
         id="stop158" />
      <stop
         style="stop-opacity:1;stop-color:#00c4e0"
         offset="0.7604"
         id="stop160" />
      <stop
         style="stop-opacity:1;stop-color:#00c7e0"
         offset="1"
         id="stop162" />
    </linearGradient>
    <clipPath
       clipPathUnits="userSpaceOnUse"
       id="clipPath174">
      <path
         d="m 204.355,175.359 v 0 0 l 0.743,0.746 v -0.003 l -0.743,-0.743"
         id="path172" />
    </clipPath>
    <linearGradient
       x1="0"
       y1="0"
       x2="1"
       y2="0"
       gradientUnits="userSpaceOnUse"
       gradientTransform="matrix(-227.583,-227.583,227.583,-227.583,348.27,277.039)"
       spreadMethod="pad"
       id="linearGradient180">
      <stop
         style="stop-opacity:1;stop-color:#e0333c"
         offset="0"
         id="stop176" />
      <stop
         style="stop-opacity:1;stop-color:#ab0f56"
         offset="1"
         id="stop178" />
    </linearGradient>
    <clipPath
       clipPathUnits="userSpaceOnUse"
       id="clipPath192">
      <path
         d="m 371.219,257.75 v 0 l -0.93,0.93 49.859,28.332 c 6.332,3.597 9.887,8.238 10.481,12.965 0,-1.735 -0.387,-3.469 -1.156,-5.157 -1.551,-3.402 -4.66,-6.617 -9.325,-9.269 L 371.219,257.75"
         id="path190" />
    </clipPath>
    <linearGradient
       x1="0"
       y1="0"
       x2="1"
       y2="0"
       gradientUnits="userSpaceOnUse"
       gradientTransform="matrix(-241.97,0,0,-241.97,438.344,299.986)"
       spreadMethod="pad"
       id="linearGradient202">
      <stop
         style="stop-opacity:1;stop-color:#e0c500"
         offset="0"
         id="stop194" />
      <stop
         style="stop-opacity:1;stop-color:#e0a600"
         offset="0.4087"
         id="stop196" />
      <stop
         style="stop-opacity:1;stop-color:#e09100"
         offset="0.7754"
         id="stop198" />
      <stop
         style="stop-opacity:1;stop-color:#e08900"
         offset="1"
         id="stop200" />
    </linearGradient>
    <clipPath
       clipPathUnits="userSpaceOnUse"
       id="clipPath214">
      <path
         d="m 430.629,299.996 c -0.594,4.738 -4.149,9.375 -10.481,12.973 l -49.863,28.328 0.93,0.93 h 0.004 l 48.929,-27.801 c 6.981,-3.969 10.477,-9.199 10.481,-14.43"
         id="path212" />
    </clipPath>
    <linearGradient
       x1="0"
       y1="0"
       x2="1"
       y2="0"
       gradientUnits="userSpaceOnUse"
       gradientTransform="matrix(-241.97,0,0,-241.97,438.344,299.986)"
       spreadMethod="pad"
       id="linearGradient224">
      <stop
         style="stop-opacity:1;stop-color:#ffe840"
         offset="0"
         id="stop216" />
      <stop
         style="stop-opacity:1;stop-color:#ffce40"
         offset="0.4087"
         id="stop218" />
      <stop
         style="stop-opacity:1;stop-color:#ffbc40"
         offset="0.7754"
         id="stop220" />
      <stop
         style="stop-opacity:1;stop-color:#ffb540"
         offset="1"
         id="stop222" />
    </linearGradient>
    <clipPath
       clipPathUnits="userSpaceOnUse"
       id="clipPath236">
      <path
         d="m 199.727,409.105 v 1.461 c 0,0.02 0,0.036 0,0.055 0,0.004 0,0.008 0,0.012 0,0.551 0.015,1.09 0.043,1.613 0,0.008 0,0.016 0,0.024 0,0.007 0,0.015 0.003,0.023 0,0.016 0,0.031 0,0.047 0,0.004 0,0.008 0,0.012 0.301,5.332 1.957,9.492 4.582,12.269 v 0 0 l 0.731,-0.734 c -3.356,-3.028 -5.359,-8.078 -5.359,-14.782 m 5.339,16.215 0.028,0.028 c -0.008,-0.012 -0.02,-0.02 -0.028,-0.028"
         id="path234" />
    </clipPath>
    <linearGradient
       x1="0"
       y1="0"
       x2="1"
       y2="0"
       gradientUnits="userSpaceOnUse"
       gradientTransform="matrix(-167.825,-167.825,167.825,-167.825,317.998,412.903)"
       spreadMethod="pad"
       id="linearGradient250">
      <stop
         style="stop-opacity:1;stop-color:#40b8ff"
         offset="0"
         id="stop238" />
      <stop
         style="stop-opacity:1;stop-color:#40b9ff"
         offset="0.00657445"
         id="stop240" />
      <stop
         style="stop-opacity:1;stop-color:#40ceff"
         offset="0.2601"
         id="stop242" />
      <stop
         style="stop-opacity:1;stop-color:#40ddff"
         offset="0.5122"
         id="stop244" />
      <stop
         style="stop-opacity:1;stop-color:#40e7ff"
         offset="0.7604"
         id="stop246" />
      <stop
         style="stop-opacity:1;stop-color:#40eaff"
         offset="1"
         id="stop248" />
    </linearGradient>
    <clipPath
       clipPathUnits="userSpaceOnUse"
       id="clipPath262">
      <path
         d="M 370.285,341.297 225.137,423.77 c -4.024,2.281 -7.832,3.363 -11.223,3.363 -3.457,0 -6.473,-1.125 -8.828,-3.246 l -0.731,0.734 v 0 c 0.231,0.242 0.465,0.477 0.711,0.699 0.008,0.008 0.02,0.016 0.028,0.024 2.336,2.105 5.32,3.23 8.746,3.25 v 0 c 0.008,0 0.019,0 0.031,0 0.016,0 0.027,0 0.043,0 3.391,0 7.199,-1.082 11.223,-3.364 l 146.082,-83 -0.004,-0.003 -0.93,-0.93"
         id="path260" />
    </clipPath>
    <linearGradient
       x1="0"
       y1="0"
       x2="1"
       y2="0"
       gradientUnits="userSpaceOnUse"
       gradientTransform="matrix(101.625,-101.625,101.625,101.625,172.973,498.238)"
       spreadMethod="pad"
       id="linearGradient274">
      <stop
         style="stop-opacity:1;stop-color:#65b895"
         offset="0"
         id="stop264" />
      <stop
         style="stop-opacity:1;stop-color:#62bd95"
         offset="0.0685"
         id="stop266" />
      <stop
         style="stop-opacity:1;stop-color:#50db97"
         offset="0.4762"
         id="stop268" />
      <stop
         style="stop-opacity:1;stop-color:#44ed98"
         offset="0.8009"
         id="stop270" />
      <stop
         style="stop-opacity:1;stop-color:#40f498"
         offset="1"
         id="stop272" />
    </linearGradient>
  </defs>
  <g
     inkscape:label="Layer 1"
     inkscape:groupmode="layer"
     id="layer1">
    <g
       id="g780"
       transform="translate(-97.926014,-157.71123)">
      <path
         d="M 143.78713,171.82234 H 99.689903 c -0.970139,0 -1.763889,-0.79375 -1.763889,-1.76389 v -10.58333 c 0,-0.97014 0.79375,-1.76389 1.763889,-1.76389 h 44.097227 c 0.97014,0 1.76389,0.79375 1.76389,1.76389 v 10.58333 c 0,0.97014 -0.79375,1.76389 -1.76389,1.76389"
         style="fill:#000000;fill-opacity:1;fill-rule:nonzero;stroke:none;stroke-width:0.0352778"
         id="path16" />
      <path
         d="M 143.78713,157.71123 H 99.689903 c -0.970139,0 -1.763889,0.79375 -1.763889,1.76389 v 10.58333 c 0,0.97014 0.79375,1.76389 1.763889,1.76389 h 44.097227 c 0.97014,0 1.76389,-0.79375 1.76389,-1.76389 v -10.58333 c 0,-0.97014 -0.79375,-1.76389 -1.76389,-1.76389 m 0,0.28222 c 0.81703,0 1.48166,0.66478 1.48166,1.48167 v 10.58333 c 0,0.81704 -0.66463,1.48181 -1.48166,1.48181 H 99.689903 c -0.816892,0 -1.481667,-0.66477 -1.481667,-1.48181 v -10.58333 c 0,-0.81689 0.664775,-1.48167 1.481667,-1.48167 h 44.097227"
         style="fill:#a6a6a6;fill-opacity:1;fill-rule:nonzero;stroke:none;stroke-width:0.0352778"
         id="path18" />
      <path
         d="m 135.65066,168.29456 h 0.65828 v -4.41014 h -0.65828 z m 5.92914,-2.82151 -0.75459,1.91202 h -0.0226 l -0.78317,-1.91202 h -0.70908 l 1.1744,2.67239 -0.66958,1.4865 h 0.68686 l 1.80975,-4.15889 z m -3.7331,2.3206 c -0.2159,0 -0.51646,-0.10777 -0.51646,-0.37454 0,-0.34039 0.37465,-0.47089 0.69779,-0.47089 0.28963,0 0.42545,0.0624 0.60149,0.14761 -0.0512,0.40844 -0.40288,0.69782 -0.78282,0.69782 z m 0.0794,-2.41709 c -0.47661,0 -0.97014,0.21001 -1.1744,0.67525 l 0.5842,0.24391 c 0.12488,-0.24391 0.35736,-0.32342 0.60149,-0.32342 0.34043,0 0.6865,0.20436 0.69215,0.56748 v 0.0453 c -0.11924,-0.0681 -0.3743,-0.17018 -0.68651,-0.17018 -0.62971,0 -1.27106,0.346 -1.27106,0.99286 0,0.59009 0.51647,0.97028 1.09502,0.97028 0.44274,0 0.68651,-0.19858 0.83997,-0.43117 h 0.0226 v 0.34036 h 0.63535 v -1.69086 c 0,-0.78285 -0.5842,-1.21984 -1.33879,-1.21984 z m -4.06824,0.63334 h -0.93627 v -1.51168 h 0.93627 c 0.49213,0 0.77153,0.40745 0.77153,0.75582 0,0.34177 -0.2794,0.75586 -0.77153,0.75586 z m -0.0169,-2.12548 h -1.57727 v 4.41014 h 0.65793 v -1.67086 h 0.91934 c 0.72955,0 1.44674,-0.52821 1.44674,-1.36966 0,-0.84141 -0.71719,-1.36962 -1.44674,-1.36962 z m -8.60107,3.91005 c -0.45477,0 -0.83552,-0.38076 -0.83552,-0.90371 0,-0.52847 0.38075,-0.915 0.83552,-0.915 0.44898,0 0.80133,0.38653 0.80133,0.915 0,0.52295 -0.35235,0.90371 -0.80133,0.90371 z m 0.75586,-2.07448 h -0.0228 c -0.14771,-0.17614 -0.43201,-0.33528 -0.79001,-0.33528 -0.75022,0 -1.43785,0.65924 -1.43785,1.50605 0,0.84116 0.68763,1.49475 1.43785,1.49475 0.358,0 0.6423,-0.15917 0.79001,-0.34092 h 0.0228 v 0.21593 c 0,0.57411 -0.30688,0.88099 -0.80134,0.88099 -0.40351,0 -0.65359,-0.28995 -0.756,-0.53428 l -0.57393,0.23869 c 0.16481,0.39783 0.60247,0.88664 1.32993,0.88664 0.77294,0 1.42653,-0.45477 1.42653,-1.56299 v -2.69391 h -0.62519 z m 1.07981,2.57457 h 0.65928 v -4.41028 h -0.65928 z m 1.63118,-1.45492 c -0.0171,-0.57976 0.44898,-0.87521 0.78426,-0.87521 0.26162,0 0.48316,0.13063 0.55689,0.31835 z m 2.046,-0.5001 c -0.12488,-0.33542 -0.50588,-0.95483 -1.2845,-0.95483 -0.77293,0 -1.41509,0.60812 -1.41509,1.5004 0,0.84116 0.63651,1.5004 1.48897,1.5004 0.68781,0 1.08574,-0.42058 1.25049,-0.66492 l -0.51153,-0.34106 c -0.17039,0.25012 -0.40358,0.41494 -0.73896,0.41494 -0.33528,0 -0.57394,-0.1535 -0.72747,-0.45463 l 2.00618,-0.82984 z m -15.98372,-0.49445 v 0.63651 h 1.52311 c -0.0455,0.35804 -0.16481,0.61945 -0.34671,0.80134 -0.22157,0.22172 -0.56828,0.46605 -1.1764,0.46605 -0.93779,0 -1.6709,-0.75586 -1.6709,-1.69361 0,-0.93776 0.73311,-1.69372 1.6709,-1.69372 0.50584,0 0.87517,0.19896 1.14801,0.45473 l 0.44898,-0.44895 c -0.38076,-0.36382 -0.88664,-0.6423 -1.59699,-0.6423 -1.2845,0 -2.36432,1.04577 -2.36432,2.33024 0,1.28446 1.07982,2.33013 2.36432,2.33013 0.69342,0 1.21623,-0.22722 1.62539,-0.65359 0.42058,-0.42058 0.55135,-1.01163 0.55135,-1.48897 0,-0.14789 -0.0113,-0.28416 -0.0342,-0.39786 z m 3.90839,1.94938 c -0.45477,0 -0.84695,-0.37511 -0.84695,-0.90936 0,-0.53993 0.39218,-0.90935 0.84695,-0.90935 0.45459,0 0.84677,0.36942 0.84677,0.90935 0,0.53425 -0.39218,0.90936 -0.84677,0.90936 z m 0,-2.40976 c -0.82988,0 -1.50622,0.63084 -1.50622,1.5004 0,0.86388 0.67634,1.5004 1.50622,1.5004 0.82969,0 1.50604,-0.63652 1.50604,-1.5004 0,-0.86956 -0.67635,-1.5004 -1.50604,-1.5004 z m 3.28549,2.40976 c -0.45459,0 -0.84681,-0.37511 -0.84681,-0.90936 0,-0.53993 0.39222,-0.90935 0.84681,-0.90935 0.45462,0 0.8468,0.36942 0.8468,0.90935 0,0.53425 -0.39218,0.90936 -0.8468,0.90936 z m 0,-2.40976 c -0.82984,0 -1.50605,0.63084 -1.50605,1.5004 0,0.86388 0.67621,1.5004 1.50605,1.5004 0.82973,0 1.50608,-0.63652 1.50608,-1.5004 0,-0.86956 -0.67635,-1.5004 -1.50608,-1.5004"
         style="fill:#ffffff;fill-opacity:1;fill-rule:nonzero;stroke:none;stroke-width:0.0352778"
         id="path20" />
      <g
         id="g22"
         transform="matrix(0.03527778,0,0,-0.03527778,94.398236,175.35012)">
        <g
           id="g24"
           clip-path="url(#clipPath28)">
          <path
             d="m 205.098,176.105 -0.743,0.711 c -2.91,3.079 -4.628,7.86 -4.628,14.051 v -1.457 0 221.16 c 0,0.02 0,0.035 0,0.051 0,-0.019 0,-0.035 0,-0.055 v -1.461 c 0,6.704 2.003,11.754 5.359,14.782 L 328.984,299.992 205.098,176.105 m -5.371,234.528 c 0,0.551 0.015,1.086 0.043,1.613 -0.028,-0.523 -0.043,-1.062 -0.043,-1.613 m 0.043,1.637 c 0,0.007 0,0.015 0.003,0.023 -0.003,-0.008 -0.003,-0.016 -0.003,-0.023 m 0.003,0.07 c 0,0.004 0,0.008 0,0.012 0,-0.004 0,-0.008 0,-0.012"
             style="fill:url(#linearGradient42);fill-opacity:1;fill-rule:nonzero;stroke:none"
             id="path44" />
        </g>
      </g>
      <g
         id="g46"
         transform="matrix(0.03527778,0,0,-0.03527778,94.398236,175.35012)">
        <g
           id="g48"
           clip-path="url(#clipPath52)">
          <path
             d="m 370.277,257.215 v 0 l 0.942,0.535 48.929,27.801 c 4.665,2.652 7.774,5.867 9.325,9.269 -1.547,-3.402 -4.657,-6.621 -9.325,-9.273 l -48.929,-27.801 -0.942,-0.531 m 0.012,1.465 -41.305,41.312 41.301,41.305 49.863,-28.328 c 6.332,-3.598 9.887,-8.235 10.481,-12.973 0,-0.004 0,-0.012 0,-0.019 -0.594,-4.727 -4.149,-9.368 -10.481,-12.965 L 370.289,258.68"
             style="fill:url(#linearGradient62);fill-opacity:1;fill-rule:nonzero;stroke:none"
             id="path64" />
        </g>
      </g>
      <g
         id="g66"
         transform="matrix(0.03527778,0,0,-0.03527778,94.398236,175.35012)">
        <g
           id="g68"
           clip-path="url(#clipPath72)">
          <path
             d="m 213.93,171.387 c -3.461,0 -6.481,1.125 -8.836,3.25 l 0.004,0.004 c 2.355,-2.125 5.379,-3.254 8.84,-3.254 0.3,0 0.605,0.008 0.914,0.023 -0.313,-0.015 -0.622,-0.023 -0.922,-0.023 m 0.004,1.465 c -3.461,-0.004 -6.481,1.125 -8.836,3.25 v 0 0.003 l 123.886,123.887 41.305,-41.312 v 0 L 225.137,176.207 c -4.016,-2.277 -7.821,-3.355 -11.203,-3.355 m -8.871,1.812 c -0.219,0.199 -0.434,0.41 -0.645,0.629 l 0.645,-0.629"
             style="fill:url(#linearGradient78);fill-opacity:1;fill-rule:nonzero;stroke:none"
             id="path80" />
        </g>
      </g>
      <g
         id="g82"
         transform="matrix(0.03527778,0,0,-0.03527778,94.398236,175.35012)">
        <g
           id="g84"
           clip-path="url(#clipPath88)">
          <path
             d="m 328.984,299.992 v 0 L 205.086,423.887 c 2.355,2.121 5.371,3.246 8.828,3.246 3.391,0 7.199,-1.082 11.223,-3.363 l 145.148,-82.473 -41.301,-41.305 m 42.235,42.238 -146.082,83 c -4.024,2.282 -7.832,3.364 -11.223,3.364 -0.016,0 -0.027,0 -0.043,0 0.02,0 0.035,0 0.059,0 3.383,0 7.187,-1.078 11.207,-3.36 L 371.219,342.23 M 213.84,428.594 v 0 0"
             style="fill:url(#linearGradient100);fill-opacity:1;fill-rule:nonzero;stroke:none"
             id="path102" />
        </g>
      </g>
      <path
         d="m 101.97774,169.30316 c 0.11091,-0.006 0.23371,-0.0445 0.36283,-0.11769 l 5.12022,-2.90932 v 0 l -5.12022,2.90932 c -0.12901,0.0733 -0.25192,0.11134 -0.36283,0.11769 m -0.34424,-0.11385 -0.001,-9.5e-4 c 3.9e-4,2.8e-4 8.1e-4,6.7e-4 0.001,9.5e-4 v 0 m -0.0238,-0.0231 -0.002,-0.002 v -1.4e-4 c 8.4e-4,8.2e-4 0.002,0.002 0.002,0.002"
         style="fill:#000000;fill-opacity:1;fill-rule:nonzero;stroke:none;stroke-width:0.0352778"
         id="path104" />
      <g
         id="g106"
         transform="matrix(0.03527778,0,0,-0.03527778,94.398236,175.35012)">
        <g
           id="g108"
           clip-path="url(#clipPath112)">
          <path
             d="m 370.277,257.215 v 0 l 0.942,0.535 -0.942,-0.535"
             style="fill:url(#linearGradient122);fill-opacity:1;fill-rule:nonzero;stroke:none"
             id="path124" />
        </g>
      </g>
      <g
         id="g126"
         transform="matrix(0.03527778,0,0,-0.03527778,94.398236,175.35012)">
        <g
           id="g128"
           clip-path="url(#clipPath132)">
          <path
             d="m 213.938,171.387 c -3.461,0 -6.485,1.129 -8.84,3.254 l -0.004,-0.004 c -0.008,0.008 -0.02,0.019 -0.031,0.027 l -0.645,0.629 c -0.02,0.02 -0.039,0.043 -0.063,0.066 l 0.743,0.743 c 2.355,-2.125 5.375,-3.254 8.836,-3.25 3.382,0 7.187,1.078 11.203,3.355 l 145.152,82.473 0.93,-0.93 -0.942,-0.535 -145.14,-82.469 c -3.66,-2.074 -7.141,-3.156 -10.285,-3.336 -0.309,-0.015 -0.614,-0.023 -0.914,-0.023"
             style="fill:url(#linearGradient138);fill-opacity:1;fill-rule:nonzero;stroke:none"
             id="path140" />
        </g>
      </g>
      <path
         d="m 101.60743,169.16398 c -0.10266,-0.10862 -0.16327,-0.27728 -0.16327,-0.49568 v -1.4e-4 c 0,0.21854 0.0606,0.38706 0.16327,0.49568 v 0 0 1.4e-4"
         style="fill:#000000;fill-opacity:1;fill-rule:nonzero;stroke:none;stroke-width:0.0352778"
         id="path142" />
      <g
         id="g144"
         transform="matrix(0.03527778,0,0,-0.03527778,94.398236,175.35012)">
        <g
           id="g146"
           clip-path="url(#clipPath150)">
          <path
             d="m 204.355,175.359 v 0 c -2.91,3.079 -4.628,7.856 -4.628,14.051 v 1.457 c 0,-6.191 1.718,-10.972 4.628,-14.051 l 0.743,-0.711 -0.743,-0.746"
             style="fill:url(#linearGradient164);fill-opacity:1;fill-rule:nonzero;stroke:none"
             id="path166" />
        </g>
      </g>
      <g
         id="g168"
         transform="matrix(0.03527778,0,0,-0.03527778,94.398236,175.35012)">
        <g
           id="g170"
           clip-path="url(#clipPath174)">
          <path
             d="m 204.355,175.359 v 0 0 l 0.743,0.746 v -0.003 l -0.743,-0.743"
             style="fill:url(#linearGradient180);fill-opacity:1;fill-rule:nonzero;stroke:none"
             id="path182" />
        </g>
      </g>
      <path
         d="m 109.54909,164.94952 c 0.0271,-0.0595 0.0408,-0.12072 0.0408,-0.18192 0,-1.1e-4 0,-2.5e-4 0,-2.5e-4 0,0.0613 -0.0136,0.12248 -0.0408,0.18217"
         style="fill:#000000;fill-opacity:1;fill-rule:nonzero;stroke:none;stroke-width:0.0352778"
         id="path184" />
      <g
         id="g186"
         transform="matrix(0.03527778,0,0,-0.03527778,94.398236,175.35012)">
        <g
           id="g188"
           clip-path="url(#clipPath192)">
          <path
             d="m 371.219,257.75 v 0 l -0.93,0.93 49.859,28.332 c 6.332,3.597 9.887,8.238 10.481,12.965 0,-1.735 -0.387,-3.469 -1.156,-5.157 -1.551,-3.402 -4.66,-6.617 -9.325,-9.269 L 371.219,257.75"
             style="fill:url(#linearGradient202);fill-opacity:1;fill-rule:nonzero;stroke:none"
             id="path204" />
        </g>
      </g>
      <path
         d="m 109.58987,164.76707 v -1.4e-4 c -1.4e-4,-0.18454 -0.12347,-0.36904 -0.36975,-0.50906 l -1.7261,-0.98076 h -1.4e-4 l 1.4e-4,-1e-4 1.7261,0.98072 c 0.24656,0.14002 0.37003,0.3248 0.36975,0.50934"
         style="fill:#404040;fill-opacity:1;fill-rule:nonzero;stroke:none;stroke-width:0.0352778"
         id="path206" />
      <g
         id="g208"
         transform="matrix(0.03527778,0,0,-0.03527778,94.398236,175.35012)">
        <g
           id="g210"
           clip-path="url(#clipPath214)">
          <path
             d="m 430.629,299.996 c -0.594,4.738 -4.149,9.375 -10.481,12.973 l -49.863,28.328 0.93,0.93 h 0.004 l 48.929,-27.801 c 6.981,-3.969 10.477,-9.199 10.481,-14.43"
             style="fill:url(#linearGradient224);fill-opacity:1;fill-rule:nonzero;stroke:none"
             id="path226" />
        </g>
      </g>
      <path
         d="m 101.44416,160.86432 c 0,-1.4e-4 0,-2.8e-4 0,-4.2e-4 0,1.4e-4 0,2.8e-4 0,4.2e-4 m 0.002,-0.0573 c 0,-2.9e-4 0,-5.7e-4 0,-8.5e-4 0,2.8e-4 0,5.6e-4 0,8.5e-4 m 10e-5,-0.002 c 0,-5.7e-4 0,-0.001 0,-0.002 0,5.6e-4 0,0.001 0,0.002 m 0,-0.002 c 0.0204,-0.36241 0.21749,-0.57175 0.49626,-0.57298 -0.12087,7e-4 -0.22613,0.0404 -0.30854,0.11465 v -1.4e-4 l -9.9e-4,9.8e-4 c -0.009,0.008 -0.0169,0.0161 -0.0251,0.0247 v 0 c -0.0926,0.098 -0.15103,0.24473 -0.16165,0.43283"
         style="fill:#404040;fill-opacity:1;fill-rule:nonzero;stroke:none;stroke-width:0.0352778"
         id="path228" />
      <g
         id="g230"
         transform="matrix(0.03527778,0,0,-0.03527778,94.398236,175.35012)">
        <g
           id="g232"
           clip-path="url(#clipPath236)">
          <path
             d="m 199.727,409.105 v 1.461 c 0,0.02 0,0.036 0,0.055 0,0.004 0,0.008 0,0.012 0,0.551 0.015,1.09 0.043,1.613 0,0.008 0,0.016 0,0.024 0,0.007 0,0.015 0.003,0.023 0,0.016 0,0.031 0,0.047 0,0.004 0,0.008 0,0.012 0.301,5.332 1.957,9.492 4.582,12.269 v 0 0 l 0.731,-0.734 c -3.356,-3.028 -5.359,-8.078 -5.359,-14.782 m 5.339,16.215 0.028,0.028 c -0.008,-0.012 -0.02,-0.02 -0.028,-0.028"
             style="fill:url(#linearGradient250);fill-opacity:1;fill-rule:nonzero;stroke:none"
             id="path252" />
        </g>
      </g>
      <path
         d="m 101.94204,160.23028 c 2.8e-4,0 6.7e-4,0 10e-4,0 -4.2e-4,0 -8.1e-4,0 -10e-4,0"
         style="fill:#404040;fill-opacity:1;fill-rule:nonzero;stroke:none;stroke-width:0.0352778"
         id="path254" />
      <g
         id="g256"
         transform="matrix(0.03527778,0,0,-0.03527778,94.398236,175.35012)">
        <g
           id="g258"
           clip-path="url(#clipPath262)">
          <path
             d="M 370.285,341.297 225.137,423.77 c -4.024,2.281 -7.832,3.363 -11.223,3.363 -3.457,0 -6.473,-1.125 -8.828,-3.246 l -0.731,0.734 v 0 c 0.231,0.242 0.465,0.477 0.711,0.699 0.008,0.008 0.02,0.016 0.028,0.024 2.336,2.105 5.32,3.23 8.746,3.25 v 0 c 0.008,0 0.019,0 0.031,0 0.016,0 0.027,0 0.043,0 3.391,0 7.199,-1.082 11.223,-3.364 l 146.082,-83 -0.004,-0.003 -0.93,-0.93"
             style="fill:url(#linearGradient274);fill-opacity:1;fill-rule:nonzero;stroke:none"
             id="path276" />
        </g>
      </g>
      <path
         d="m 112.7606,162.03731 h 0.3755 c 0.24419,0 0.43783,-0.07 0.58085,-0.21001 0.14305,-0.13988 0.21428,-0.33613 0.21428,-0.58829 0,-0.25026 -0.0712,-0.44581 -0.21428,-0.58692 -0.14302,-0.14069 -0.33666,-0.21138 -0.58085,-0.21138 h -0.3755 z m -0.27174,0.26003 v -2.11667 h 0.64724 c 0.32523,0 0.58526,0.098 0.78066,0.29422 0.19502,0.19597 0.29242,0.4506 0.29242,0.76412 0,0.31337 -0.0974,0.56815 -0.29242,0.76411 -0.1954,0.19626 -0.45543,0.29422 -0.78066,0.29422 h -0.64724"
         style="fill:#ffffff;fill-opacity:1;fill-rule:nonzero;stroke:none;stroke-width:0.0352778"
         id="path278" />
      <path
         d="m 112.7606,162.03731 v 0.0353 h 0.3755 c 0.25068,2.8e-4 0.45533,-0.0726 0.60551,-0.22007 0.15106,-0.1476 0.22518,-0.355 0.22489,-0.61351 2.9e-4,-0.25658 -0.0738,-0.46345 -0.22475,-0.612 v 0 c -0.15032,-0.14827 -0.35483,-0.22186 -0.60565,-0.22158 h -0.3755 -0.0353 v 1.66716 h 0.0353 v -0.0353 h 0.0353 v -1.56133 h 0.34022 c 0.23774,4.3e-4 0.42044,0.0681 0.55619,0.20134 l -1.4e-4,-1.5e-4 c 0.13504,0.13367 0.20355,0.31793 0.2038,0.56184 -2.5e-4,0.24585 -0.0688,0.43077 -0.20366,0.56307 -0.13575,0.13257 -0.31831,0.19953 -0.55619,0.19995 h -0.3755 v 0.0353 h 0.0353 z m -0.27174,0.26003 h 0.0353 v -2.08139 h 0.61196 c 0.31835,2.8e-4 0.5672,0.0949 0.75572,0.28388 0.18796,0.18934 0.28183,0.43283 0.28208,0.73918 -2.5e-4,0.30621 -0.0941,0.54984 -0.28222,0.73917 -0.18838,0.18895 -0.43723,0.2836 -0.75558,0.28388 h -0.64724 v 0.0353 h 0.0353 -0.0353 v 0.0353 h 0.64724 c 0.3321,2.8e-4 0.60346,-0.101 0.8056,-0.30455 0.20204,-0.20271 0.30318,-0.46867 0.30276,-0.78906 4.2e-4,-0.32068 -0.10072,-0.58635 -0.30276,-0.78892 -0.20214,-0.20369 -0.4735,-0.30498 -0.8056,-0.30469 h -0.68252 v 2.18722 h 0.0353 v -0.0353"
         style="fill:#ffffff;fill-opacity:1;fill-rule:nonzero;stroke:none;stroke-width:0.0352778"
         id="path280" />
      <path
         d="m 114.59106,162.29734 v -2.11667 h 0.27175 v 2.11667 h -0.27175"
         style="fill:#ffffff;fill-opacity:1;fill-rule:nonzero;stroke:none;stroke-width:0.0352778"
         id="path282" />
      <path
         d="m 114.59106,162.29734 h 0.0353 v -2.08139 h 0.20119 v 2.04611 h -0.23647 v 0.0353 h 0.0353 -0.0353 v 0.0353 h 0.27175 0.0353 v -2.18722 h -0.30702 -0.0353 v 2.18722 h 0.0353 v -0.0353"
         style="fill:#ffffff;fill-opacity:1;fill-rule:nonzero;stroke:none;stroke-width:0.0352778"
         id="path284" />
      <path
         d="m 115.94456,162.34461 c -0.15367,0 -0.30388,-0.0502 -0.45063,-0.15063 -0.14718,-0.10058 -0.24321,-0.24141 -0.2884,-0.42291 l 0.24843,-0.10047 c 0.0296,0.11631 0.0898,0.21441 0.18164,0.29407 0.0919,0.0798 0.19459,0.11977 0.30896,0.11977 0.11808,0 0.21936,-0.031 0.30315,-0.093 0.0838,-0.062 0.12541,-0.14633 0.12541,-0.25287 0,-0.11811 -0.0416,-0.2093 -0.12541,-0.2734 -0.0838,-0.0641 -0.21633,-0.12361 -0.39755,-0.17886 -0.18743,-0.059 -0.32935,-0.13547 -0.4258,-0.22916 -0.0965,-0.0936 -0.14514,-0.21319 -0.14514,-0.35913 0,-0.15187 0.0604,-0.28374 0.18056,-0.39607 0.12029,-0.11228 0.27696,-0.16866 0.47004,-0.16866 0.17942,0 0.32522,0.0451 0.43737,0.13466 0.11247,0.0897 0.18535,0.18767 0.21883,0.29418 l -0.24804,0.10322 c -0.0179,-0.0667 -0.0616,-0.12897 -0.13158,-0.18616 -0.07,-0.0569 -0.16013,-0.0856 -0.2708,-0.0856 -0.10431,0 -0.1936,0.0289 -0.26733,0.0872 -0.0742,0.0581 -0.11095,0.13049 -0.11095,0.21717 0,0.0788 0.0342,0.14538 0.10199,0.19953 0.0682,0.0542 0.1681,0.10308 0.30014,0.14637 0.10432,0.0336 0.19138,0.066 0.2618,0.0975 0.0699,0.0314 0.14086,0.0734 0.21251,0.12569 0.0721,0.0521 0.12608,0.11727 0.1626,0.19513 0.0365,0.0778 0.0549,0.16799 0.0549,0.27036 0,0.10252 -0.0211,0.19417 -0.0635,0.27492 -0.0423,0.081 -0.0988,0.145 -0.16867,0.19223 -0.07,0.0473 -0.14509,0.0833 -0.22599,0.10792 -0.081,0.0247 -0.16372,0.0369 -0.24846,0.0369"
         style="fill:#ffffff;fill-opacity:1;fill-rule:nonzero;stroke:none;stroke-width:0.0352778"
         id="path286" />
      <path
         d="m 115.94456,162.34461 v -0.0353 c -0.1458,-1.5e-4 -0.28857,-0.0473 -0.43063,-0.14443 -0.1403,-0.0962 -0.23054,-0.22821 -0.27411,-0.40224 l -0.0343,0.008 0.0132,0.0328 0.24842,-0.10048 -0.0132,-0.0328 -0.0341,0.009 c 0.0311,0.1228 0.0958,0.22793 0.19251,0.31185 l 1.4e-4,1.4e-4 c 0.0971,0.0845 0.2093,0.12859 0.3321,0.12831 0.12415,1.4e-4 0.234,-0.0331 0.3241,-0.0999 0.0921,-0.0674 0.14044,-0.16566 0.13974,-0.28127 7e-4,-0.12622 -0.0466,-0.2311 -0.13918,-0.30138 -0.0897,-0.0683 -0.22531,-0.12855 -0.40872,-0.18464 h 2.8e-4 c -0.18412,-0.0577 -0.3211,-0.13229 -0.4119,-0.22077 -0.0894,-0.0872 -0.13395,-0.19568 -0.13438,-0.33376 4.3e-4,-0.14221 0.0551,-0.26293 0.16937,-0.37028 0.11342,-0.10555 0.25965,-0.15889 0.44595,-0.15917 0.17378,1.4e-4 0.31048,0.0433 0.41546,0.12693 0.10845,0.0867 0.17625,0.179 0.20712,0.27711 l 0.0336,-0.0105 -0.0135,-0.0326 -0.24821,0.10332 0.0136,0.0325 0.034,-0.009 c -0.0203,-0.0756 -0.0693,-0.144 -0.14333,-0.20437 v 0 c -0.0772,-0.063 -0.17664,-0.0937 -0.29309,-0.0935 -0.1108,-1.4e-4 -0.20905,0.0313 -0.28924,0.0948 l 1.4e-4,-1.4e-4 c -0.081,0.063 -0.12499,0.14799 -0.12446,0.24501 -5.3e-4,0.0893 0.0407,0.16827 0.11522,0.22712 l 1.4e-4,1e-4 c 0.0733,0.058 0.17653,0.10806 0.31101,0.15216 l 1.4e-4,1.4e-4 c 0.1035,0.0332 0.18962,0.0653 0.25809,0.0962 h 1.4e-4 c 0.0673,0.0302 0.13618,0.071 0.20617,0.12196 h 1.4e-4 c 0.0674,0.0489 0.11726,0.10901 0.1513,0.18164 0.034,0.0724 0.0515,0.1571 0.0515,0.25534 -1.4e-4,0.0979 -0.02,0.18327 -0.0594,0.25866 -0.0401,0.0762 -0.0925,0.13533 -0.15738,0.17928 v 0 c -0.0671,0.0453 -0.13889,0.0798 -0.21646,0.10337 -0.0777,0.0237 -0.15685,0.0354 -0.23813,0.0354 v 0.0353 0.0353 c 0.0882,0 0.17445,-0.0128 0.25866,-0.0384 0.0843,-0.0257 0.16274,-0.0633 0.23551,-0.11233 v -1.4e-4 c 0.0748,-0.0506 0.13544,-0.11931 0.18024,-0.20503 0.0453,-0.0863 0.0675,-0.18398 0.0675,-0.29133 0,-0.1065 -0.0192,-0.202 -0.0581,-0.28539 -0.039,-0.0831 -0.0973,-0.15336 -0.17392,-0.20878 l 1.4e-4,1.4e-4 c -0.0733,-0.0534 -0.14636,-0.0967 -0.21896,-0.12925 l -2.9e-4,-1.4e-4 4.3e-4,1.4e-4 c -0.0721,-0.0325 -0.16027,-0.0652 -0.26557,-0.0991 h 1.4e-4 c -0.12954,-0.0423 -0.22599,-0.0901 -0.28911,-0.1403 h 1.5e-4 c -0.0612,-0.0496 -0.0882,-0.10361 -0.0888,-0.17198 5.6e-4,-0.0763 0.0303,-0.136 0.0974,-0.18948 l 1.5e-4,-1.4e-4 c 0.0672,-0.0529 0.14742,-0.0794 0.24542,-0.0795 0.10474,1.4e-4 0.18574,0.0266 0.24846,0.0777 l 4.3e-4,2.8e-4 -4.3e-4,-4.2e-4 c 0.0659,0.0541 0.10432,0.1101 0.11988,0.16813 l 0.0103,0.0389 0.28526,-0.11882 0.0298,-0.0124 -0.01,-0.0307 c -0.0359,-0.11479 -0.11423,-0.21844 -0.2304,-0.31132 -0.11959,-0.0955 -0.27436,-0.14235 -0.45942,-0.14221 -0.19967,-2.8e-4 -0.36686,0.0591 -0.49403,0.17819 -0.12623,0.11726 -0.19209,0.26046 -0.19184,0.42182 -2.5e-4,0.15367 0.0525,0.28469 0.15585,0.38446 0.10213,0.099 0.24903,0.17737 0.43974,0.23745 h 2.8e-4 v 0 c 0.179,0.0546 0.30868,0.11356 0.38654,0.17321 0.0747,0.058 0.11081,0.13533 0.11148,0.24543 -6.7e-4,0.0973 -0.0357,0.16785 -0.11105,0.22447 -0.0773,0.0572 -0.17018,0.086 -0.28223,0.0862 -0.10597,-2.8e-4 -0.19914,-0.0361 -0.28596,-0.11109 v 0 c -0.0865,-0.0755 -0.14234,-0.1663 -0.17046,-0.27615 l -0.01,-0.0391 -0.28582,0.11561 -0.0285,0.0114 0.007,0.0298 c 0.0467,0.18867 0.14855,0.33846 0.30275,0.44348 0.15131,0.10375 0.30896,0.15681 0.47046,0.15681 v -0.0353"
         style="fill:#ffffff;fill-opacity:1;fill-rule:nonzero;stroke:none;stroke-width:0.0352778"
         id="path288" />
      <path
         d="m 117.31338,161.17974 h 0.45543 c 0.11437,0 0.20602,-0.0383 0.27492,-0.11504 0.0689,-0.077 0.10319,-0.16154 0.10319,-0.25425 0,-0.0926 -0.0343,-0.17751 -0.10319,-0.25424 -0.0689,-0.077 -0.16055,-0.1155 -0.27492,-0.1155 h -0.45543 z m 0,1.1176 h -0.27192 v -2.11667 h 0.72143 c 0.17914,0 0.33443,0.0595 0.46535,0.17872 0.13133,0.11921 0.19677,0.2697 0.19677,0.45106 0,0.18119 -0.0654,0.3314 -0.19677,0.45061 -0.13092,0.11934 -0.28621,0.179 -0.46535,0.179 h -0.44951 v 0.85728"
         style="fill:#ffffff;fill-opacity:1;fill-rule:nonzero;stroke:none;stroke-width:0.0352778"
         id="path290" />
      <path
         d="m 117.31338,161.17974 v 0.0353 h 0.45543 c 0.12196,4.2e-4 0.22585,-0.0423 0.3011,-0.12675 v 0 c 0.0737,-0.082 0.11257,-0.17629 0.11229,-0.27782 2.8e-4,-0.10156 -0.0386,-0.19596 -0.11229,-0.27781 v 0 c -0.0752,-0.0848 -0.179,-0.12763 -0.3011,-0.12721 h -0.45543 -0.0354 v 0.80959 h 0.0354 v -0.0353 h 0.0353 v -0.70376 h 0.42016 c 0.10651,5.7e-4 0.18602,0.0345 0.24861,0.10376 v 0 c 0.0641,0.0718 0.0941,0.14693 0.0942,0.23071 -1e-4,0.0838 -0.0302,0.15861 -0.0942,0.23068 v 0 c -0.0626,0.0692 -0.14196,0.10295 -0.24861,0.10333 h -0.45543 v 0.0353 h 0.0353 z m 0,1.1176 v -0.0353 h -0.23665 v -2.04611 h 0.68616 c 0.17127,2.8e-4 0.31651,0.0561 0.44164,0.16965 v 0 c 0.12432,0.11339 0.18482,0.25189 0.18521,0.42485 -3.9e-4,0.17265 -0.0609,0.31101 -0.18521,0.42457 v 0 c -0.12513,0.11367 -0.27037,0.16948 -0.44164,0.16976 h -0.44951 -0.0354 v 0.89256 h 0.0354 v -0.0353 0.0353 h 0.0353 v -0.82201 h 0.41424 c 0.18697,2.9e-4 0.35249,-0.0633 0.48919,-0.18824 v 0 c 0.13822,-0.12485 0.20864,-0.28691 0.20821,-0.47664 4.3e-4,-0.1899 -0.07,-0.3521 -0.20821,-0.47709 v 0 c -0.1367,-0.12485 -0.30222,-0.18825 -0.48919,-0.18796 h -0.75671 v 2.18722 h 0.3072 0.0353 v -0.0353 h -0.0353"
         style="fill:#ffffff;fill-opacity:1;fill-rule:nonzero;stroke:none;stroke-width:0.0352778"
         id="path292" />
      <path
         d="m 119.14754,161.8466 c 0.15667,0.15861 0.34823,0.23784 0.57492,0.23784 0.22666,0 0.41864,-0.0792 0.57489,-0.23784 0.15684,-0.15861 0.23537,-0.36135 0.23537,-0.60759 0,-0.24624 -0.0785,-0.44898 -0.23537,-0.60759 -0.15625,-0.15861 -0.34823,-0.23784 -0.57489,-0.23784 -0.22669,0 -0.41825,0.0792 -0.57492,0.23784 -0.15656,0.15861 -0.23495,0.36135 -0.23495,0.60759 0,0.24624 0.0784,0.44898 0.23495,0.60759 z m 1.35114,0.1772 c -0.20821,0.21399 -0.46687,0.32081 -0.77622,0.32081 -0.30939,0 -0.56818,-0.10682 -0.77586,-0.32081 -0.20807,-0.21375 -0.31182,-0.47541 -0.31182,-0.78479 0,-0.30939 0.10375,-0.57108 0.31182,-0.78479 0.20768,-0.21403 0.46647,-0.32096 0.77586,-0.32096 0.30755,0 0.56568,0.10749 0.77474,0.32233 0.20873,0.21485 0.31319,0.47597 0.31319,0.78342 0,0.30938 -0.10403,0.57104 -0.31171,0.78479"
         style="fill:#ffffff;fill-opacity:1;fill-rule:nonzero;stroke:none;stroke-width:0.0352778"
         id="path294" />
      <path
         d="m 119.14754,161.8466 -0.0252,0.0248 c 0.16259,0.16496 0.36516,0.24874 0.60014,0.24832 0.23495,4.2e-4 0.43794,-0.0834 0.60011,-0.24832 0.16344,-0.1651 0.24571,-0.37871 0.24543,-0.63239 2.8e-4,-0.25368 -0.082,-0.46729 -0.24543,-0.63239 l -5.3e-4,-4.2e-4 5.3e-4,4.2e-4 c -0.16217,-0.16496 -0.36516,-0.24875 -0.60011,-0.24832 -0.23498,-4.3e-4 -0.43755,0.0834 -0.60014,0.24832 l -10e-4,0.001 10e-4,-0.001 c -0.16316,0.1651 -0.24543,0.37871 -0.24501,0.63239 -4.2e-4,0.25368 0.0819,0.46729 0.24501,0.63239 l 0.0252,-0.0248 0.0251,-0.0248 c -0.14968,-0.1523 -0.22451,-0.34386 -0.22475,-0.58279 2.4e-4,-0.23894 0.0751,-0.4305 0.22475,-0.58279 v 0 c 0.15088,-0.15226 0.3314,-0.22694 0.54984,-0.22737 0.21841,4.3e-4 0.3992,0.0751 0.54984,0.22737 v 0 c 0.15004,0.15229 0.2249,0.34385 0.22514,0.58279 -2.4e-4,0.23893 -0.0751,0.43049 -0.22514,0.58279 -0.15064,0.15226 -0.33143,0.22694 -0.54984,0.22736 -0.21844,-4.2e-4 -0.39896,-0.0751 -0.54984,-0.22736 z m 1.35114,0.1772 -0.0253,-0.0245 c -0.20218,0.20726 -0.44965,0.30963 -0.75089,0.31006 -0.30124,-4.3e-4 -0.54874,-0.1028 -0.7505,-0.31006 h -1.4e-4 c -0.20175,-0.20796 -0.30138,-0.45875 -0.30177,-0.76027 3.9e-4,-0.30152 0.10002,-0.55231 0.30177,-0.76027 h 1.4e-4 c 0.20176,-0.20726 0.44926,-0.30978 0.7505,-0.3102 0.29944,4.2e-4 0.54624,0.10336 0.74951,0.31171 0.20257,0.20892 0.3029,0.45932 0.30314,0.75876 -2.4e-4,0.30152 -0.10029,0.55231 -0.30176,0.76027 l 0.0253,0.0245 0.0252,0.0245 c 0.21403,-0.21964 0.32205,-0.49209 0.32177,-0.80931 2.8e-4,-0.31542 -0.10816,-0.58731 -0.32314,-0.80793 -0.21495,-0.22148 -0.48423,-0.33348 -0.80007,-0.3331 -0.3175,-3.8e-4 -0.58748,0.11109 -0.80119,0.33172 l 1.4e-4,-1.4e-4 c -0.21446,0.21978 -0.32219,0.49223 -0.32191,0.80945 -2.8e-4,0.31722 0.10745,0.58967 0.32191,0.80945 l 8.1e-4,9.8e-4 -9.5e-4,-0.001 c 0.21371,0.22062 0.48369,0.33185 0.80119,0.33157 0.3175,2.8e-4 0.58745,-0.11095 0.80144,-0.33157 l -0.0252,-0.0245"
         style="fill:#ffffff;fill-opacity:1;fill-rule:nonzero;stroke:none;stroke-width:0.0352778"
         id="path296" />
      <path
         d="m 121.19213,162.29734 v -2.11667 h 0.33101 l 1.02885,1.64663 h 0.0117 l -0.0117,-0.40792 v -1.23871 h 0.27202 v 2.11667 h -0.28374 l -1.07625,-1.72642 h -0.0117 l 0.0117,0.40806 v 1.31836 h -0.27189"
         style="fill:#ffffff;fill-opacity:1;fill-rule:nonzero;stroke:none;stroke-width:0.0352778"
         id="path298" />
      <path
         d="m 121.19213,162.29734 h 0.0353 v -2.08139 h 0.2763 l 1.0287,1.64663 h 0.0313 0.0362 l -0.0128,-0.44373 1.4e-4,-1.2029 h 0.20148 v 2.04611 h -0.22906 l -1.07612,-1.72642 h -0.0312 -0.0364 l 0.0128,0.44376 v 1.28266 h -0.23661 v 0.0353 h 0.0353 -0.0353 v 0.0353 h 0.27189 0.0353 v -1.35421 l -0.0119,-0.40845 -0.0351,9.6e-4 v 0.0353 h 0.0117 v -0.0353 l -0.0301,0.0188 1.08673,1.74293 h 0.30332 0.0353 v -2.18722 h -0.3073 -0.0353 v 1.27441 l 0.0117,0.40844 0.0353,-9.5e-4 v -0.0353 h -0.0117 v 0.0353 l 0.0299,-0.0187 -1.03918,-1.66317 h -0.35056 -0.0353 v 2.18722 h 0.0353 v -0.0353"
         style="fill:#ffffff;fill-opacity:1;fill-rule:nonzero;stroke:none;stroke-width:0.0352778"
         id="path300" />
      <path
         d="m 123.3088,162.29734 v -2.11667 h 0.27189 v 2.11667 h -0.27189"
         style="fill:#ffffff;fill-opacity:1;fill-rule:nonzero;stroke:none;stroke-width:0.0352778"
         id="path302" />
      <path
         d="m 123.3088,162.29734 h 0.0353 v -2.08139 h 0.20133 v 2.04611 h -0.23661 v 0.0353 h 0.0353 -0.0353 v 0.0353 h 0.27189 0.0353 v -2.18722 h -0.30716 -0.0353 v 2.18722 h 0.0353 v -0.0353"
         style="fill:#ffffff;fill-opacity:1;fill-rule:nonzero;stroke:none;stroke-width:0.0352778"
         id="path304" />
      <path
         d="m 124.33708,162.03731 h 0.54723 c 0.10431,0 0.18905,-0.0365 0.25424,-0.10968 0.065,-0.0726 0.0974,-0.15258 0.0974,-0.23939 0,-0.0867 -0.0335,-0.16592 -0.10061,-0.23785 -0.0668,-0.0719 -0.15477,-0.10802 -0.26321,-0.10802 h -0.53509 z m 0,-0.94919 h 0.49374 c 0.10266,0 0.18493,-0.0338 0.24695,-0.10198 0.0622,-0.0679 0.0932,-0.14221 0.0932,-0.2231 0,-0.0807 -0.0301,-0.1549 -0.0904,-0.22158 -0.0599,-0.0671 -0.13903,-0.10075 -0.2377,-0.10075 h -0.50574 z m -0.27175,1.20922 v -2.11667 h 0.76549 c 0.16577,0 0.30911,0.0549 0.43036,0.16398 0.12128,0.10957 0.18193,0.24694 0.18193,0.41246 0,0.10044 -0.0262,0.1892 -0.0787,0.2661 -0.0519,0.0769 -0.12153,0.13505 -0.20835,0.17445 v 0.0117 c 0.10446,0.0354 0.19018,0.0966 0.25742,0.18327 0.0667,0.0868 0.10047,0.18743 0.10047,0.30166 0,0.17336 -0.0637,0.31722 -0.19088,0.43149 -0.12704,0.11437 -0.27725,0.17155 -0.45089,0.17155 h -0.80684"
         style="fill:#ffffff;fill-opacity:1;fill-rule:nonzero;stroke:none;stroke-width:0.0352778"
         id="path306" />
      <path
         d="m 124.33708,162.03731 v 0.0353 h 0.54723 c 0.11243,4.2e-4 0.2093,-0.0409 0.28056,-0.12143 h -1.4e-4 c 0.0699,-0.0776 0.10678,-0.16715 0.10654,-0.26292 2.4e-4,-0.0959 -0.038,-0.18507 -0.1101,-0.26194 v 0 c -0.0732,-0.0793 -0.17283,-0.11963 -0.289,-0.11921 h -0.57037 v 0.7655 h 0.0353 v -0.0353 h 0.0353 v -0.65966 h 0.49982 c 0.10089,3.9e-4 0.17695,0.0324 0.23745,0.0967 v 0 c 0.0623,0.0672 0.0908,0.13656 0.0911,0.21386 -2.8e-4,0.0778 -0.0281,0.14816 -0.0885,0.21593 h -1.5e-4 c -0.059,0.0656 -0.13162,0.0973 -0.22778,0.0979 h -0.54723 v 0.0353 h 0.0353 z m 0,-0.94919 v 0.0353 h 0.49374 c 0.11025,3.9e-4 0.20465,-0.0376 0.27313,-0.11356 l -1.1e-4,1.4e-4 c 0.0668,-0.0728 0.10252,-0.15684 0.10238,-0.24694 1.4e-4,-0.0896 -0.0342,-0.17335 -0.0994,-0.24529 v 1.4e-4 c -0.0662,-0.0747 -0.15748,-0.11288 -0.26402,-0.11246 h -0.54102 v 0.71797 h 0.0353 v -0.0353 h 0.0353 v -0.61214 h 0.47047 c 0.0907,5.7e-4 0.1578,0.0295 0.21152,0.0889 v 1.5e-4 c 0.0554,0.0617 0.081,0.12622 0.0813,0.19801 -2.8e-4,0.0715 -0.0266,0.13628 -0.0838,0.19925 l -1.5e-4,1.4e-4 c -0.0555,0.0605 -0.1258,0.09 -0.22091,0.0904 h -0.49374 v 0.0353 h 0.0353 z m -0.27175,1.20922 h 0.0353 v -2.08139 h 0.73021 c 0.15794,2.8e-4 0.29119,0.0513 0.40669,0.15491 v 0 c 0.11437,0.10389 0.16975,0.22944 0.17032,0.38625 -1.4e-4,0.0944 -0.0243,0.1753 -0.0725,0.24624 h -1.4e-4 c -0.0485,0.0717 -0.11229,0.12513 -0.19374,0.16221 l -0.0207,0.009 v 0.0344 0.0252 l 0.024,0.008 c 0.0982,0.0337 0.17748,0.0901 0.24074,0.17159 v -1.4e-4 c 0.0622,0.081 0.093,0.17279 0.0932,0.28014 -4.3e-4,0.16482 -0.0588,0.29669 -0.17918,0.40531 -0.12125,0.10873 -0.26141,0.16217 -0.42732,0.16245 h -0.80684 v 0.0353 h 0.0353 -0.0353 v 0.0353 h 0.80684 c 0.18136,2.8e-4 0.34163,-0.0606 0.47459,-0.18066 0.13395,-0.11977 0.20299,-0.27562 0.20246,-0.45766 2.5e-4,-0.12111 -0.0364,-0.23054 -0.10791,-0.32314 v -1.4e-4 c -0.0711,-0.0918 -0.16345,-0.15766 -0.27397,-0.19498 l -0.0113,0.0333 h 0.0353 v -0.0117 h -0.0353 l 0.0146,0.0321 c 0.0922,-0.0417 0.16756,-0.10446 0.22309,-0.18687 l -1.4e-4,1.4e-4 c 0.0565,-0.0828 0.0848,-0.17942 0.0848,-0.28593 3.9e-4,-0.17406 -0.0655,-0.32342 -0.19364,-0.43864 l -8.1e-4,-6.7e-4 8.1e-4,6.7e-4 c -0.12703,-0.11479 -0.28042,-0.17336 -0.45392,-0.17307 h -0.80077 v 2.18722 h 0.0353 v -0.0353"
         style="fill:#ffffff;fill-opacity:1;fill-rule:nonzero;stroke:none;stroke-width:0.0352778"
         id="path308" />
      <path
         d="m 125.88048,162.29734 v -2.11667 h 0.27189 v 1.85664 h 0.91641 v 0.26003 h -1.1883"
         style="fill:#ffffff;fill-opacity:1;fill-rule:nonzero;stroke:none;stroke-width:0.0352778"
         id="path310" />
      <path
         d="m 125.88048,162.29734 h 0.0353 v -2.08139 h 0.20133 v 1.85664 h 0.91641 v 0.18947 h -1.15302 v 0.0353 h 0.0353 -0.0353 v 0.0353 h 1.22357 v -0.29531 -0.0353 h -0.91641 v -1.85663 h -0.30716 -0.0353 v 2.18722 h 0.0353 v -0.0353"
         style="fill:#ffffff;fill-opacity:1;fill-rule:nonzero;stroke:none;stroke-width:0.0352778"
         id="path312" />
      <path
         d="m 128.64774,160.44071 h -0.96411 v 0.67112 h 0.86928 v 0.25435 h -0.86928 v 0.67113 h 0.96411 v 0.26003 h -1.23585 v -2.11667 h 1.23585 v 0.26004"
         style="fill:#ffffff;fill-opacity:1;fill-rule:nonzero;stroke:none;stroke-width:0.0352778"
         id="path314" />
      <path
         d="m 128.64774,160.44071 v -0.0353 h -0.99938 v 0.74168 h 0.86927 v 0.18369 l -0.86927,1.1e-4 v 0.74168 h 0.9641 v 0.18947 h -1.16529 v -2.04611 h 1.16529 v 0.22476 h 0.0353 v -0.0353 0.0353 h 0.0353 v -0.26004 -0.0353 h -1.30641 v 2.18722 h 1.30641 v -0.29531 -0.0353 h -0.96411 v -0.60057 h 0.86928 v -0.28963 -0.0353 h -0.86928 v -0.60057 h 0.96411 v -0.0353 h -0.0353"
         style="fill:#ffffff;fill-opacity:1;fill-rule:nonzero;stroke:none;stroke-width:0.0352778"
         id="path316" />
      <path
         d="m 131.01869,160.44071 h -0.96414 v 0.67112 h 0.86924 v 0.25435 h -0.86924 v 0.67113 h 0.96414 v 0.26003 h -1.23578 v -2.11667 h 1.23578 v 0.26004"
         style="fill:#ffffff;fill-opacity:1;fill-rule:nonzero;stroke:none;stroke-width:0.0352778"
         id="path318" />
      <path
         d="m 131.01869,160.44071 v -0.0353 h -0.99942 v 0.74168 h 0.86924 v 0.18369 l -0.86924,1.1e-4 v 0.74168 h 0.96414 v 0.18947 h -1.16522 v -2.04611 h 1.16522 v 0.22476 h 0.0353 v -0.0353 0.0353 h 0.0353 v -0.26004 -0.0353 h -1.30634 v 2.18722 h 1.30634 v -0.29531 -0.0353 h -0.96415 v -0.60057 h 0.86925 v -0.28963 -0.0353 h -0.86925 v -0.60057 h 0.96415 v -0.0353 h -0.0353"
         style="fill:#ffffff;fill-opacity:1;fill-rule:nonzero;stroke:none;stroke-width:0.0352778"
         id="path320" />
      <path
         d="m 131.44414,162.29734 v -2.11667 h 0.3309 l 1.0287,1.64663 h 0.0117 l -0.0117,-0.40792 v -1.23871 h 0.27235 v 2.11667 h -0.28399 l -1.07632,-1.72642 h -0.0116 l 0.0116,0.40806 v 1.31836 h -0.27164"
         style="fill:#ffffff;fill-opacity:1;fill-rule:nonzero;stroke:none;stroke-width:0.0352778"
         id="path322" />
      <path
         d="m 131.44414,162.29734 h 0.0353 v -2.08139 h 0.27622 l 1.0287,1.64663 h 0.0311 0.0363 l -0.0127,-0.44373 v -1.2029 h 0.20179 v 2.04611 h -0.2293 l -1.07598,-1.72642 h -0.0314 -0.0363 l 0.0127,0.44376 v 1.28266 h -0.23636 v 0.0353 h 0.0353 -0.0353 v 0.0353 h 0.27164 0.0353 v -1.35421 l -0.0117,-0.40845 -0.0353,9.6e-4 v 0.0353 h 0.0116 v -0.0353 l -0.03,0.0188 1.08691,1.74293 h 0.30339 0.0353 v -2.18722 h -0.30763 -0.0353 v 1.27441 l 0.0116,0.40844 0.0353,-9.5e-4 v -0.0353 h -0.0117 v 0.0353 l 0.03,-0.0187 -1.03893,-1.66317 h -0.35066 -0.0353 v 2.18722 h 0.0353 v -0.0353"
         style="fill:#ffffff;fill-opacity:1;fill-rule:nonzero;stroke:none;stroke-width:0.0352778"
         id="path324" />
    </g>
  </g>
</svg>
