<svg width="53" height="46" viewBox="0 0 53 46" fill="none" xmlns="http://www.w3.org/2000/svg">
<path d="M28.1801 2.84H37.5601V5.12H30.7001V8.6H37.2001V10.88H30.7001V14.72H37.9201V17H28.1801V2.84Z" fill="white"/>
<path d="M14.7601 39.96C13.0134 40.8933 11.0601 41.36 8.9001 41.36C7.80676 41.36 6.8001 41.1867 5.8801 40.84C4.97343 40.48 4.18676 39.98 3.5201 39.34C2.86676 38.6867 2.35343 37.9067 1.9801 37C1.60676 36.0933 1.4201 35.0867 1.4201 33.98C1.4201 32.8467 1.60676 31.82 1.9801 30.9C2.35343 29.9667 2.86676 29.1733 3.5201 28.52C4.18676 27.8667 4.97343 27.3667 5.8801 27.02C6.8001 26.66 7.80676 26.48 8.9001 26.48C9.9801 26.48 10.9934 26.6133 11.9401 26.88C12.8868 27.1333 13.7334 27.5933 14.4801 28.26L12.6201 30.14C12.1668 29.7 11.6134 29.36 10.9601 29.12C10.3201 28.88 9.6401 28.76 8.9201 28.76C8.18676 28.76 7.5201 28.8933 6.9201 29.16C6.33343 29.4133 5.82676 29.7733 5.4001 30.24C4.97343 30.6933 4.6401 31.2267 4.4001 31.84C4.17343 32.4533 4.0601 33.1133 4.0601 33.82C4.0601 34.58 4.17343 35.28 4.4001 35.92C4.6401 36.56 4.97343 37.1133 5.4001 37.58C5.82676 38.0467 6.33343 38.4133 6.9201 38.68C7.5201 38.9467 8.18676 39.08 8.9201 39.08C9.5601 39.08 10.1601 39.02 10.7201 38.9C11.2934 38.78 11.8001 38.5933 12.2401 38.34V35H9.3401V32.72H14.7601V39.96ZM24.9045 33.98C24.9045 32.8467 25.0911 31.82 25.4645 30.9C25.8378 29.9667 26.3511 29.1733 27.0045 28.52C27.6711 27.8667 28.4578 27.3667 29.3645 27.02C30.2845 26.66 31.2911 26.48 32.3845 26.48C33.4911 26.4667 34.5045 26.6333 35.4245 26.98C36.3445 27.3133 37.1378 27.8067 37.8045 28.46C38.4711 29.1133 38.9911 29.9 39.3645 30.82C39.7378 31.74 39.9245 32.7667 39.9245 33.9C39.9245 35.0067 39.7378 36.0133 39.3645 36.92C38.9911 37.8267 38.4711 38.6067 37.8045 39.26C37.1378 39.9133 36.3445 40.4267 35.4245 40.8C34.5045 41.16 33.4911 41.3467 32.3845 41.36C31.2911 41.36 30.2845 41.1867 29.3645 40.84C28.4578 40.48 27.6711 39.98 27.0045 39.34C26.3511 38.6867 25.8378 37.9067 25.4645 37C25.0911 36.0933 24.9045 35.0867 24.9045 33.98ZM27.5445 33.82C27.5445 34.58 27.6578 35.28 27.8845 35.92C28.1245 36.56 28.4578 37.1133 28.8845 37.58C29.3111 38.0467 29.8178 38.4133 30.4045 38.68C31.0045 38.9467 31.6711 39.08 32.4045 39.08C33.1378 39.08 33.8045 38.9467 34.4045 38.68C35.0045 38.4133 35.5178 38.0467 35.9445 37.58C36.3711 37.1133 36.6978 36.56 36.9245 35.92C37.1645 35.28 37.2845 34.58 37.2845 33.82C37.2845 33.1133 37.1645 32.4533 36.9245 31.84C36.6978 31.2267 36.3711 30.6933 35.9445 30.24C35.5178 29.7733 35.0045 29.4133 34.4045 29.16C33.8045 28.8933 33.1378 28.76 32.4045 28.76C31.6711 28.76 31.0045 28.8933 30.4045 29.16C29.8178 29.4133 29.3111 29.7733 28.8845 30.24C28.4578 30.6933 28.1245 31.2267 27.8845 31.84C27.6578 32.4533 27.5445 33.1133 27.5445 33.82Z" fill="white"/>
<path d="M3.1801 2.84H8.7001C9.23343 2.84 9.7601 2.90667 10.2801 3.04C10.8001 3.16 11.2601 3.36667 11.6601 3.66C12.0734 3.94 12.4068 4.30667 12.6601 4.76C12.9134 5.21333 13.0401 5.76 13.0401 6.4C13.0401 7.2 12.8134 7.86 12.3601 8.38C11.9068 8.9 11.3134 9.27333 10.5801 9.5V9.54C11.0201 9.59333 11.4268 9.72 11.8001 9.92C12.1868 10.1067 12.5134 10.3533 12.7801 10.66C13.0468 10.9533 13.2534 11.3 13.4001 11.7C13.5601 12.0867 13.6401 12.5067 13.6401 12.96C13.6401 13.7333 13.4868 14.38 13.1801 14.9C12.8734 15.4067 12.4668 15.82 11.9601 16.14C11.4668 16.4467 10.8934 16.6667 10.2401 16.8C9.6001 16.9333 8.94676 17 8.2801 17H3.1801V2.84ZM5.7001 8.6H8.0001C8.8401 8.6 9.46676 8.44 9.8801 8.12C10.3068 7.78667 10.5201 7.35333 10.5201 6.82C10.5201 6.20667 10.3001 5.75333 9.8601 5.46C9.43343 5.15333 8.7401 5 7.7801 5H5.7001V8.6ZM5.7001 14.84H8.0201C8.3401 14.84 8.6801 14.82 9.0401 14.78C9.41343 14.74 9.75343 14.6467 10.0601 14.5C10.3668 14.3533 10.6201 14.1467 10.8201 13.88C11.0201 13.6 11.1201 13.2267 11.1201 12.76C11.1201 12.0133 10.8734 11.4933 10.3801 11.2C9.9001 10.9067 9.14676 10.76 8.1201 10.76H5.7001V14.84Z" fill="white"/>
</svg>
