<svg width="31" height="30" viewBox="0 0 31 30" fill="none" xmlns="http://www.w3.org/2000/svg">
<g clip-path="url(#clip0)">
<path d="M15.5395 0C15.5314 0.00803789 15.5154 0.00803789 15.4912 0.00803789C7.35689 0.00803789 0.741699 6.62322 0.741699 14.7576C0.741699 18.0772 1.87504 21.3004 3.94882 23.8967L1.8027 28.8801C1.62587 29.2901 1.81878 29.7643 2.22067 29.9331C2.36535 29.9974 2.52611 30.0135 2.67883 29.9894L10.5479 28.6069C12.1234 29.1775 13.7792 29.4669 15.451 29.4589C23.5854 29.4589 30.2006 22.8437 30.2006 14.7093C30.2167 6.59911 23.6497 0.00803789 15.5395 0ZM15.4591 27.8593C13.9078 27.8593 12.3725 27.578 10.9177 27.0314C10.781 26.9752 10.6363 26.9671 10.4917 26.9912L3.86844 28.1487L5.6207 24.0735C5.74127 23.7922 5.69304 23.4626 5.4921 23.2295C4.54362 22.1283 3.78806 20.8744 3.25756 19.516C2.66276 17.9968 2.35732 16.3812 2.35732 14.7495C2.35732 7.49935 8.25713 1.60758 15.4993 1.60758C22.7253 1.5915 28.593 7.43505 28.601 14.6611C28.601 14.6772 28.601 14.6933 28.601 14.7093C28.601 21.9676 22.7012 27.8593 15.4591 27.8593Z" fill="url(#paint0_radial)"/>
<path d="M14.8322 11.7916H10.4918C10.0497 11.7916 9.68799 12.1533 9.68799 12.5954C9.68799 13.0375 10.0497 13.3992 10.4918 13.3992H14.8322C15.2743 13.3992 15.636 13.0375 15.636 12.5954C15.636 12.1533 15.2743 11.7916 14.8322 11.7916Z" fill="url(#paint1_radial)"/>
<path d="M20.4588 15.8105H10.4918C10.0497 15.8105 9.68799 16.1723 9.68799 16.6143C9.68799 17.0564 10.0497 17.4181 10.4918 17.4181H20.4588C20.9009 17.4181 21.2626 17.0564 21.2626 16.6143C21.2626 16.1723 20.9009 15.8105 20.4588 15.8105Z" fill="url(#paint2_radial)"/>
</g>
<defs>
<radialGradient id="paint0_radial" cx="0" cy="0" r="1" gradientUnits="userSpaceOnUse" gradientTransform="translate(38.7653 15) scale(31.9952 32.5388)">
<stop stop-color="#A4ADBA"/>
<stop offset="1" stop-color="#FAFAFA"/>
</radialGradient>
<radialGradient id="paint1_radial" cx="0" cy="0" r="1" gradientUnits="userSpaceOnUse" gradientTransform="translate(17.3653 12.5954) scale(6.46014 1.74362)">
<stop stop-color="#A4ADBA"/>
<stop offset="1" stop-color="#FAFAFA"/>
</radialGradient>
<radialGradient id="paint2_radial" cx="0" cy="0" r="1" gradientUnits="userSpaceOnUse" gradientTransform="translate(24.6277 16.6143) scale(12.5711 1.74363)">
<stop stop-color="#A4ADBA"/>
<stop offset="1" stop-color="#FAFAFA"/>
</radialGradient>
<clipPath id="clip0">
<rect width="30" height="30" fill="white" transform="translate(0.471191)"/>
</clipPath>
</defs>
</svg>
