<svg width="38" height="24" viewBox="0 0 38 24" fill="none" xmlns="http://www.w3.org/2000/svg">
<path d="M26.023 1.6351C30.0541 1.80934 33.2661 5.13446 33.2578 9.2076C33.2578 9.20785 33.2578 9.2081 33.2578 9.20835M26.023 1.6351L32.9078 9.2076L33.2578 9.20835M26.023 1.6351L26.0187 1.62638H25.8022H25.802H25.8019H25.8017H25.8015H25.8013H25.8011H25.8009H25.8007H25.8005H25.8003H25.8001H25.7999H25.7997H25.7996H25.7994H25.7992H25.799H25.7988H25.7986H25.7984H25.7982H25.798H25.7978H25.7976H25.7974H25.7972H25.7971H25.7969H25.7967H25.7965H25.7963H25.7961H25.7959H25.7957H25.7955H25.7953H25.7951H25.7949H25.7947H25.7945H25.7944H25.7942H25.794H25.7938H25.7936H25.7934H25.7932H25.793H25.7928H25.7926H25.7924H25.7922H25.792H25.7918H25.7916H25.7914H25.7913H25.7911H25.7909H25.7907H25.7905H25.7903H25.7901H25.7899H25.7897H25.7895H25.7893H25.7891H25.7889H25.7887H25.7885H25.7883H25.7881H25.7879H25.7878H25.7876H25.7874H25.7872H25.787H25.7868H25.7866H25.7864H25.7862H25.786H25.7858H25.7856H25.7854H25.7852H25.785H25.7848H25.7846H25.7844H25.7842H25.784H25.7838H25.7836H25.7835H25.7833H25.7831H25.7829H25.7827H25.7825H25.7823H25.7821H25.7819H25.7817H25.7815H25.7813H25.7811H25.7809H25.7807H25.7805H25.7803H25.7801H25.7799H25.7797H25.7795H25.7793H25.7791H25.7789H25.7787H25.7785H25.7783H25.7782H25.778H25.7778H25.7776H25.7774H25.7772H25.777H25.7768H25.7766H25.7764H25.7762H25.776H25.7758H25.7756H25.7754H25.7752H25.775H25.7748H25.7746H25.7744H25.7742H25.774H25.7738H25.7736H25.7734H25.7732H25.773H25.7728H25.7726H25.7724H25.7722H25.772H25.7718H25.7716H25.7714H25.7712H25.771H25.7708H25.7706H25.7705H25.7703H25.7701H25.7699H25.7697H25.7695H25.7693H25.7691H25.7689H25.7687H25.7685H25.7683H25.7681H25.7679H25.7677H25.7675H25.7673H25.7671H25.7669H25.7667H25.7665H25.7663H25.7661H25.7659H25.7657H25.7655H25.7653H25.7651H25.7649H25.7647H25.7645H25.7643H25.7641H25.7639H25.7637H25.7635H25.7633H25.7631H25.7629H25.7627H25.7625H25.7623H25.7621H25.7619H25.7617H25.7615H25.7613H25.7611H25.7609H25.7607H25.7605H25.7603H25.7601H25.7599H25.7597H25.7595H25.7593H25.7591H25.7589H25.7587H25.7585H25.7583H25.7581H25.7579H25.7577H25.7575H25.7573H25.7571H25.7569H25.7567H25.7565H25.7563H25.7561H25.7559H25.7557H25.7555H25.7553H25.7551H25.7549H25.7547H25.7545H25.7543H25.7541H25.7539H25.7537H25.7535H25.7533H25.7531H25.7529H25.7527H25.7525H25.7523H25.7521H25.7519H25.7517H25.7515H25.7513H25.7511H25.7509H25.7507H25.7505H25.7503H25.7501H25.7499H25.7497H25.7495H25.7493H25.7491H25.7489H25.7487H25.7485H25.7483H25.7481H25.7479H25.7477H25.7475H25.7473H25.7471H25.7469H25.7467H25.7465H25.7463H25.7461H25.7459H25.7457H25.7455H25.7453H25.7451H25.7449H25.7447H25.7445H25.7443H25.7441H25.7439H25.7437H25.7435H25.7433H25.7431H25.7429H25.7427H25.7425H25.7423H25.7421H25.7419H25.7417H25.7415H25.7413H25.7411H25.7409H25.7407H25.7405H25.7403H25.7401H25.7399H25.7397H25.7395H25.7393H25.7391H25.7389H25.7387H25.7385H25.7383H25.7381H25.7379H25.7377H25.7375H25.7373H25.7371H25.7369H25.7367H25.7365H25.7363H25.7361H25.7359H25.7357H25.7355H25.7353H25.7351H25.7349H25.7347H25.7345H25.7343H25.7341H25.7339H25.7337H25.7335H25.7333H25.7331H25.7329H25.7327H25.7325H25.7323H25.7321H25.7319H25.7317H25.7315H25.7313H25.7311H25.7309H25.7307H25.7305H25.7303H25.7301H25.7299H25.7297H25.7295H25.7293H25.7291H25.7289H25.7287H25.7285H25.7283H25.7281H25.7279H25.7277H25.7275H25.7273H25.7271H25.7269H25.7267H25.7265H25.7263H25.7261H25.7259H25.7257H25.7255H25.7253H25.7251H25.7249H25.7247H25.7245H25.7243H25.7241H25.7239H25.7237H25.7235H25.7233H25.7231H25.7229H25.7227H25.7225H25.7223H25.7221H25.7219H25.7217H25.7215H25.7213H25.7211H25.7209H25.7207H25.7205H25.7203H25.7201H25.7199H25.7197H25.7195H25.7193H25.7191H25.7189H25.7187H25.7185H25.7183H25.7181H25.7178H25.7176H25.7175H25.7173H25.7171H25.7169H25.7167H25.7164H25.7162H25.7161H25.7159H25.7157H25.7155H25.7153H25.7151H25.7149H25.7147H25.7145H25.7143H25.7141H25.7139H25.7137H25.7135H25.7133H25.7131H25.7129H25.7127H25.7125H25.7123H25.7121H25.7119H25.7117H25.7115H25.7113H25.7111H25.7109H25.7107H25.7105H25.7103H25.7101H25.7099H25.7097H25.7095H25.7093H25.7091H25.7089H25.7087H25.7085H25.7083H25.7081H25.7079H25.7077H25.7075H25.7073H25.7071H25.7069H25.7067H25.7065H25.7063H25.7061H25.7059H25.7057H25.7055H25.7053H25.7051H25.7049H25.7047H25.7045H25.7043H25.7041H25.7039H25.7037H25.7035H25.7033H25.7031H25.7029H25.7027H25.7025H25.7023H25.7021H25.7019H25.7017H25.7015H25.7013H25.7011H25.7009H25.7007M26.023 1.6351L25.7007 1.62638M33.2578 9.20835L33.2578 10.2615V10.6121L32.9072 10.6115L29.7032 10.6067L29.4776 10.6063L29.3847 10.4008C28.5327 8.51486 26.6382 7.20176 24.436 7.19836L13.7904 7.18264H13.7903C11.5882 7.17924 9.69033 8.4866 8.83255 10.3703L8.73907 10.5756L8.51349 10.5753L5.31063 10.5704L4.96116 10.5699V10.2204V9.1653V9.16477C4.96749 4.98425 8.36108 1.60071 12.5405 1.60704M33.2578 9.20835L12.5405 1.60704M12.5405 1.60704C12.5405 1.60704 12.5405 1.60704 12.5405 1.60704M12.5405 1.60704L12.5405 1.60704M12.5405 1.60704L25.7007 1.62638M12.5405 1.60704L25.7007 1.62638" fill="#0C0F11" stroke="#EDEDED" stroke-width="0.7"/>
<path d="M24.4153 20.9336H24.4153L13.7697 20.9179L13.7696 20.9179C10.8961 20.9145 8.54748 18.6801 8.35444 15.8548L8.33218 15.5291L8.00574 15.5286L5.41565 15.525L4.99731 15.5244L5.07057 15.9363C5.69407 19.4416 8.72864 22.1144 12.4029 22.1714L12.4028 22.1715H12.4083H12.4085H12.4087H12.4089H12.4091H12.4093H12.4095H12.4097H12.4099H12.4101H12.4103H12.4105H12.4107H12.4109H12.4111H12.4113H12.4115H12.4117H12.4119H12.412H12.4122H12.4124H12.4126H12.4128H12.413H12.4132H12.4134H12.4136H12.4138H12.414H12.4142H12.4144H12.4146H12.4148H12.415H12.4152H12.4154H12.4156H12.4158H12.416H12.4162H12.4164H12.4166H12.4168H12.417H12.4172H12.4174H12.4176H12.4178H12.418H12.4182H12.4184H12.4186H12.4188H12.419H12.4192H12.4194H12.4196H12.4198H12.42H12.4202H12.4204H12.4206H12.4208H12.421H12.4212H12.4214H12.4216H12.4218H12.422H12.4222H12.4224H12.4226H12.4228H12.423H12.4232H12.4234H12.4236H12.4237H12.4239H12.4241H12.4243H12.4245H12.4247H12.4249H12.4251H12.4253H12.4255H12.4257H12.4259H12.4261H12.4263H12.4265H12.4267H12.4269H12.4271H12.4273H12.4275H12.4277H12.4279H12.4281H12.4283H12.4285H12.4287H12.4289H12.4291H12.4293H12.4295H12.4297H12.4299H12.4301H12.4303H12.4305H12.4307H12.4309H12.4311H12.4313H12.4315H12.4317H12.4319H12.4321H12.4323H12.4325H12.4327H12.4329H12.4331H12.4333H12.4335H12.4337H12.4339H12.4341H12.4343H12.4345H12.4347H12.4349H12.4351H12.4352H12.4354H12.4356H12.4358H12.436H12.4362H12.4364H12.4366H12.4368H12.437H12.4372H12.4374H12.4376H12.4378H12.438H12.4382H12.4384H12.4386H12.4388H12.439H12.4392H12.4394H12.4396H12.4398H12.44H12.4402H12.4404H12.4406H12.4408H12.441H12.4412H12.4414H12.4416H12.4418H12.442H12.4422H12.4424H12.4426H12.4428H12.443H12.4432H12.4434H12.4436H12.4438H12.444H12.4442H12.4444H12.4446H12.4448H12.445H12.4452H12.4454H12.4456H12.4458H12.446H12.4462H12.4464H12.4466H12.4468H12.4469H12.4471H12.4473H12.4475H12.4477H12.4479H12.4481H12.4483H12.4485H12.4487H12.4489H12.4491H12.4493H12.4495H12.4497H12.4499H12.4501H12.4503H12.4505H12.4507H12.4509H12.4511H12.4513H12.4515H12.4517H12.4519H12.4521H12.4523H12.4525H12.4527H12.4529H12.4531H12.4533H12.4535H12.4537H12.4539H12.4541H12.4543H12.4545H12.4547H12.4549H12.4551H12.4553H12.4555H12.4557H12.4559H12.4561H12.4563H12.4565H12.4567H12.4569H12.4571H12.4573H12.4575H12.4577H12.4579H12.4581H12.4583H12.4584H12.4586H12.4588H12.459H12.4592H12.4594H12.4596H12.4598H12.46H12.4602H12.4604H12.4606H12.4608H12.461H12.4612H12.4614H12.4616H12.4618H12.462H12.4622H12.4624H12.4626H12.4628H12.463H12.4632H12.4634H12.4636H12.4638H12.464H12.4642H12.4644H12.4646H12.4648H12.465H12.4652H12.4654H12.4656H12.4658H12.466H12.4662H12.4664H12.4666H12.4668H12.467H12.4672H12.4674H12.4676H12.4678H12.468H12.4682H12.4684H12.4686H12.4688H12.469H12.4692H12.4694H12.4696H12.4698H12.47H12.4701H12.4703H12.4705H12.4707H12.4709H12.4711H12.4713H12.4715H12.4717H12.4719H12.4721H12.4723H12.4725H12.4727H12.4729H12.4731H12.4733H12.4735H12.4737H12.4739H12.4741H12.4743H12.4745H12.4747H12.4749H12.4751H12.4753H12.4755H12.4757H12.4759H12.4761H12.4763H12.4765H12.4767H12.4769H12.4771H12.4773H12.4775H12.4777H12.4779H12.4781H12.4783H12.4785H12.4787H12.4789H12.4791H12.4793H12.4795H12.4797H12.4799H12.4801H12.4803H12.4805H12.4807H12.4809H12.4811H12.4813H12.4815H12.4816H12.4818H12.482H12.4822H12.4824H12.4826H12.4828H12.483H12.4832H12.4834H12.4836H12.4838H12.484H12.4842H12.4844H12.4846H12.4848H12.485H12.4852H12.4854H12.4856H12.4858H12.486H12.4862H12.4864H12.4866H12.4868H12.487H12.4872H12.4874H12.4876H12.4878H12.488H12.4882H12.4884H12.4886H12.4888H12.489H12.4892H12.4894H12.4896H12.4898H12.49H12.4902H12.4904H12.4906H12.4908H12.491H12.4912H12.4914H12.4916H12.4918H12.492H12.4922H12.4924H12.4926H12.4928H12.493H12.4932H12.4933H12.4935H12.4937H12.4939H12.4941H12.4943H12.4945H12.4947H12.4949H12.4951H12.4953H12.4955H12.4957H12.4959H12.4961H12.4963H12.4965H12.4967H12.4969H12.4971H12.4973H12.4975H12.4977H12.4979H12.4981H12.4983H12.4985H12.4987H12.4989H12.4991H12.4993H12.4995H12.4997H12.4999H12.5001H12.5003H12.5005H12.5007H12.5009H12.5011H12.5013H12.5015H12.5017H12.5019H12.5021H12.5023H12.5025H12.5027H12.5029H12.5031H12.5033H12.5035H12.5037H12.5039H12.5041H12.5043H12.5045H12.5047H12.5048H12.505H12.5052H12.5054H12.5056H12.5058H12.506H12.5062H12.5064H12.5066H12.5068H12.507H12.5072H12.5074H12.5076H12.5078H12.508H12.5082H12.5084H12.5086H12.5088H12.509H12.5092L12.5093 22.1714L12.5094 22.1715H12.5096H12.5098L25.67 22.1908L25.6701 22.1908C29.3912 22.1959 32.4866 19.5141 33.1265 15.9772L33.201 15.5655L32.7826 15.5649L30.1937 15.5613L29.8672 15.5608L29.8441 15.8866C29.6443 18.7104 27.289 20.9382 24.4153 20.9336Z" fill="#0C0F11" stroke="#EDEDED" stroke-width="0.7"/>
<path d="M4.49103 8.52322V8.77363V8.78237V8.78358H4.84103H4.86524L5.19059 8.79982C5.28173 6.97477 6.03677 5.27174 7.34098 3.97095L4.49103 8.52322ZM4.49103 8.52322H4.41559H4.02069L4.06812 8.13118C4.29632 6.24507 5.1427 4.49988 6.50835 3.13801C8.11996 1.53021 10.2637 0.646249 12.5405 0.650012C12.5405 0.650012 12.5405 0.650012 12.5406 0.650012M4.49103 8.52322L12.54 1.00001L12.5406 0.650012M12.5406 0.650012L25.7007 0.66935M12.5406 0.650012L25.7007 0.66935M25.7007 0.66935H25.701H25.7012H25.7014H25.7016H25.7019H25.7021H25.7023H25.7025H25.7028H25.703H25.7032H25.7035H25.7037H25.7039H25.7041H25.7044H25.7046H25.7048H25.705H25.7053H25.7055H25.7057H25.7059H25.7062H25.7064H25.7066H25.7068H25.7071H25.7073H25.7075H25.7077H25.708H25.7082H25.7084H25.7087H25.7089H25.7091H25.7093H25.7096H25.7098H25.71H25.7102H25.7105H25.7107H25.7109H25.7111H25.7114H25.7116H25.7118H25.712H25.7123H25.7125H25.7127H25.7129H25.7132H25.7134H25.7136H25.7138H25.7141H25.7143H25.7145H25.7147H25.715H25.7152H25.7154H25.7156H25.7159H25.7161H25.7163H25.7165H25.7168H25.717H25.7172H25.7174H25.7177H25.7179H25.7181H25.7183H25.7186H25.7188H25.719H25.7192H25.7195H25.7197H25.7199H25.7201H25.7204H25.7206H25.7208H25.721H25.7213H25.7215H25.7217H25.7219H25.7222H25.7224H25.7226H25.7228H25.7231H25.7233H25.7235H25.7237H25.7239H25.7242H25.7244H25.7246H25.7248H25.7251H25.7253H25.7255H25.7257H25.726H25.7262H25.7264H25.7266H25.7269H25.7271H25.7273H25.7275H25.7278H25.728H25.7282H25.7284H25.7287H25.7289H25.7291H25.7293H25.7296H25.7298H25.73H25.7302H25.7304H25.7307H25.7309H25.7311H25.7313H25.7316H25.7318H25.732H25.7322H25.7325H25.7327H25.7329H25.7331H25.7334H25.7336H25.7338H25.734H25.7343H25.7345H25.7347H25.7349H25.7351H25.7354H25.7356H25.7358H25.736H25.7363H25.7365H25.7367H25.7369H25.7372H25.7374H25.7376H25.7378H25.7381H25.7383H25.7385H25.7387H25.7389H25.7392H25.7394H25.7396H25.7398H25.7401H25.7403H25.7405H25.7407H25.741H25.7412H25.7414H25.7416H25.7419H25.7421H25.7423H25.7425H25.7427H25.743H25.7432H25.7434H25.7436H25.7439H25.7441H25.7443H25.7445H25.7448H25.745H25.7452H25.7454H25.7456H25.7459H25.7461H25.7463H25.7465H25.7468H25.747H25.7472H25.7474H25.7477H25.7479H25.7481H25.7483H25.7486H25.7488H25.749H25.7492H25.7494H25.7497H25.7499H25.7501H25.7503H25.7506H25.7508H25.751H25.7512H25.7515H25.7517H25.7519H25.7521H25.7523H25.7526H25.7528H25.753H25.7532H25.7535H25.7537H25.7539H25.7541H25.7544H25.7546H25.7548H25.755H25.7552H25.7555H25.7557H25.7559H25.7561H25.7564H25.7566H25.7568H25.757H25.7573H25.7575H25.7577H25.7579H25.7581H25.7584H25.7586H25.7588H25.759H25.7593H25.7595H25.7597H25.7599H25.7602H25.7604H25.7606H25.7608H25.761H25.7613H25.7615H25.7617H25.7619H25.7622H25.7624H25.7626H25.7628H25.7631H25.7633H25.7635H25.7637H25.7639H25.7642H25.7644H25.7646H25.7648H25.7651H25.7653H25.7655H25.7657H25.766H25.7662H25.7664H25.7666H25.7668H25.7671H25.7673H25.7675H25.7677H25.768H25.7682H25.7684H25.7686H25.7689H25.7691H25.7693H25.7695H25.7697H25.77H25.7702H25.7704H25.7706H25.7709H25.7711H25.7713H25.7715H25.7718H25.772H25.7722H25.7724H25.7726H25.7729H25.7731H25.7733H25.7735H25.7738H25.774H25.7742H25.7744H25.7747H25.7749H25.7751H25.7753H25.7756H25.7758H25.776H25.7762H25.7764H25.7767H25.7769H25.7771H25.7773H25.7776H25.7778H25.778H25.7782H25.7785H25.7787H25.7789H25.7791H25.7794H25.7796H25.7798H25.78H25.7802H25.7805H25.7807H25.7809H25.7811H25.7814H25.7816H25.7818H25.782H25.7823H25.7825H25.7827H25.7829H25.7832H25.7834H25.7836H25.7838H25.784H25.7843H25.7845H25.7847H25.7849H25.7852H25.7854H25.7856H25.7858H25.7861H25.7863H25.7865H25.7867H25.787H25.7872H25.7874H25.7876H25.7879H25.7881H25.7883H25.7885H25.7888H25.789H25.7892H25.7894H25.7896H25.7899H25.7901H25.7903H25.7905H25.7908H25.791H25.7912H25.7914H25.7917H25.7919H25.7921H25.7923H25.7926H25.7928H25.793H25.7932H25.7935H25.7937H25.7939H25.7941H25.7944H25.7946H25.7948H25.795H25.7953H25.7955H25.7957H25.7959H25.7962H25.7964H25.7966H25.7968H25.7971H25.7973H25.7975H25.7977H25.798H25.7982H25.7984H25.7986H25.7989H25.7991H25.7993H25.7995H25.7998H25.8H25.8002H25.8004H25.8007H25.8009H25.8011H25.8013H25.8016H25.8018H25.802H25.8022H25.8025H25.8027H25.8029H25.8031H25.8034H25.8036H25.8038H25.804H25.8043H25.8045H25.8047H25.8049H25.8052H25.8054H25.8056H25.8058H25.8061H25.8063H25.8065H25.8067H25.807H25.8072H25.8074H25.8076H25.8079H25.8081H25.8083H25.8085H25.8088H25.809H25.8092H25.8094H25.8097H25.8099H25.8101H25.8103H25.8106H25.8108H25.811H25.8113H25.8115H25.8117H25.8119H25.8122H25.8124H25.8126H25.8128H25.8131H25.8133H25.8135H25.8137H25.814H25.8142H25.8144H25.8146H25.8149H25.8151H25.8153H25.8156H26.1709L26.1655 1.02467L26.1583 1.50207L26.153 1.84676H25.8083H25.8081H25.8079H25.8077H25.8075H25.8073H25.8071H25.8069H25.8067H25.8065H25.8062H25.806H25.8058H25.8056H25.8054H25.8052H25.805H25.8048H25.8046H25.8044H25.8042H25.804H25.8038H25.8036H25.8034H25.8032H25.803H25.8027H25.8025H25.8023H25.8021H25.8019H25.8017H25.8015H25.8013H25.8011H25.8009H25.8007H25.8005H25.8003H25.8001H25.7999H25.7997H25.7994H25.7992H25.799H25.7988H25.7986H25.7984H25.7982H25.798H25.7978H25.7976H25.7974H25.7972H25.797H25.7968H25.7966H25.7963H25.7961H25.7959H25.7957H25.7955H25.7953H25.7951H25.7949H25.7947H25.7945H25.7943H25.7941H25.7939H25.7937H25.7934H25.7932H25.793H25.7928H25.7926H25.7924H25.7922H25.792H25.7918H25.7916H25.7914H25.7912H25.791H25.7908H25.7905H25.7903H25.7901H25.7899H25.7897H25.7895H25.7893H25.7891H25.7889H25.7887H25.7885H25.7883H25.7881H25.7878H25.7876H25.7874H25.7872H25.787H25.7868H25.7866H25.7864H25.7862H25.786H25.7858H25.7856H25.7853H25.7851H25.7849H25.7847H25.7845H25.7843H25.7841H25.7839H25.7837H25.7835H25.7833H25.7831H25.7828H25.7826H25.7824H25.7822H25.782H25.7818H25.7816H25.7814H25.7812H25.781H25.7808H25.7806H25.7803H25.7801H25.7799H25.7797H25.7795H25.7793H25.7791H25.7789H25.7787H25.7785H25.7783H25.7781H25.7778H25.7776H25.7774H25.7772H25.777H25.7768H25.7766H25.7764H25.7762H25.776H25.7758H25.7755H25.7753H25.7751H25.7749H25.7747H25.7745H25.7743H25.7741H25.7739H25.7737H25.7735H25.7732H25.773H25.7728H25.7726H25.7724H25.7722H25.772H25.7718H25.7716H25.7714H25.7711H25.7709H25.7707H25.7705H25.7703H25.7701H25.7699H25.7697H25.7695H25.7693H25.7691H25.7688H25.7686H25.7684H25.7682H25.768H25.7678H25.7676H25.7674H25.7672H25.767H25.7667H25.7665H25.7663H25.7661H25.7659H25.7657H25.7655H25.7653H25.7651H25.7649H25.7646H25.7644H25.7642H25.764H25.7638H25.7636H25.7634H25.7632H25.763H25.7628H25.7625H25.7623H25.7621H25.7619H25.7617H25.7615H25.7613H25.7611H25.7609H25.7607H25.7604H25.7602H25.76H25.7598H25.7596H25.7594H25.7592H25.759H25.7588H25.7586H25.7583H25.7581H25.7579H25.7577H25.7575H25.7573H25.7571H25.7569H25.7567H25.7564H25.7562H25.756H25.7558H25.7556H25.7554H25.7552H25.755H25.7548H25.7546H25.7543H25.7541H25.7539H25.7537H25.7535H25.7533H25.7531H25.7529H25.7527H25.7524H25.7522H25.752H25.7518H25.7516H25.7514H25.7512H25.751H25.7508H25.7505H25.7503H25.7501H25.7499H25.7497H25.7495H25.7493H25.7491H25.7489H25.7486H25.7484H25.7482H25.748H25.7478H25.7476H25.7474H25.7472H25.747H25.7467H25.7465H25.7463H25.7461H25.7459H25.7457H25.7455H25.7453H25.7451H25.7448H25.7446H25.7444H25.7442H25.744H25.7438H25.7436H25.7434H25.7432H25.7429H25.7427H25.7425H25.7423H25.7421H25.7419H25.7417H25.7415H25.7413H25.741H25.7408H25.7406H25.7404H25.7402H25.74H25.7398H25.7396H25.7393H25.7391H25.7389H25.7387H25.7385H25.7383H25.7381H25.7379H25.7377H25.7374H25.7372H25.737H25.7368H25.7366H25.7364H25.7362H25.736H25.7358H25.7355H25.7353H25.7351H25.7349H25.7347H25.7345H25.7343H25.7341H25.7338H25.7336H25.7334H25.7332H25.733H25.7328H25.7326H25.7324H25.7321H25.7319H25.7317H25.7315H25.7313H25.7311H25.7309H25.7307H25.7305H25.7302H25.73H25.7298H25.7296H25.7294H25.7292H25.729H25.7288H25.7285H25.7283H25.7281H25.7279H25.7277H25.7275H25.7273H25.7271H25.7269H25.7266H25.7264H25.7262H25.726H25.7258H25.7256H25.7254H25.7252H25.7249H25.7247H25.7245H25.7243H25.7241H25.7239H25.7237H25.7235H25.7232H25.723H25.7228H25.7226H25.7224H25.7222H25.722H25.7218H25.7215H25.7213H25.7211H25.7209H25.7207H25.7205H25.7203H25.7201H25.7198H25.7196H25.7194H25.7192H25.719H25.7188H25.7186H25.7184H25.7182H25.7179H25.7177H25.7175H25.7173H25.7171H25.7169H25.7167H25.7165H25.7162H25.716H25.7158H25.7156H25.7154H25.7152H25.715H25.7148H25.7145H25.7143H25.7141H25.7139H25.7137H25.7135H25.7133H25.7131H25.7128H25.7126H25.7124H25.7122H25.712H25.7118H25.7116H25.7114H25.7111H25.7109H25.7107H25.7105H25.7103H25.7101H25.7099H25.7097H25.7094H25.7092H25.709H25.7088H25.7086H25.7084H25.7082H25.708H25.7077H25.7075H25.7073H25.7071H25.7069H25.7067H25.7065H25.7063H25.706H25.7058H25.7056H25.7054H25.7052H25.705H25.7048H25.7046H25.7043H25.7041H25.7039H25.7037H25.7035H25.7033H25.7031H25.7029H25.7026H25.7024H25.7022H25.702H25.7018H25.7016H25.7014H25.7012H25.7009H25.7007H25.7002L12.5395 1.82742L12.5394 1.82742C10.5753 1.82396 8.73177 2.58482 7.34107 3.97087L25.7007 0.66935Z" fill="#EDEDED" stroke="#EDEDED" stroke-width="0.7"/>
<path d="M25.6711 23.1468C27.9479 23.1506 30.0917 22.2666 31.7033 20.6588C32.9832 19.3827 33.8069 17.77 34.0943 16.02L34.1612 15.6132H33.7666V15.3485L33.3315 15.5661H33.2679H32.9724L32.9229 15.8575C32.3334 19.3266 29.3041 21.9752 25.6711 21.9694H25.671L12.5103 21.9501H12.5097H12.5095H12.5093H12.5091H12.5089H12.5087H12.5085H12.5083H12.5081H12.5079H12.5077H12.5075H12.5073H12.5071H12.5069H12.5067H12.5065H12.5063H12.506H12.5058H12.5056H12.5054H12.5052H12.505H12.5048H12.5046H12.5044H12.5042H12.504H12.5038H12.5036H12.5034H12.5032H12.503H12.5027H12.5025H12.5023H12.5021H12.5019H12.5017H12.5015H12.5013H12.5011H12.5009H12.5007H12.5005H12.5003H12.5001H12.4999H12.4997H12.4994H12.4992H12.499H12.4988H12.4986H12.4984H12.4982H12.498H12.4978H12.4976H12.4974H12.4972H12.497H12.4968H12.4965H12.4963H12.4961H12.4959H12.4957H12.4955H12.4953H12.4951H12.4949H12.4947H12.4945H12.4943H12.4941H12.4939H12.4936H12.4934H12.4932H12.493H12.4928H12.4926H12.4924H12.4922H12.492H12.4918H12.4916H12.4914H12.4912H12.491H12.4907H12.4905H12.4903H12.4901H12.4899H12.4897H12.4895H12.4893H12.4891H12.4889H12.4887H12.4885H12.4882H12.488H12.4878H12.4876H12.4874H12.4872H12.487H12.4868H12.4866H12.4864H12.4862H12.486H12.4858H12.4855H12.4853H12.4851H12.4849H12.4847H12.4845H12.4843H12.4841H12.4839H12.4837H12.4835H12.4833H12.483H12.4828H12.4826H12.4824H12.4822H12.482H12.4818H12.4816H12.4814H12.4812H12.481H12.4807H12.4805H12.4803H12.4801H12.4799H12.4797H12.4795H12.4793H12.4791H12.4789H12.4787H12.4785H12.4782H12.478H12.4778H12.4776H12.4774H12.4772H12.477H12.4768H12.4766H12.4764H12.4762H12.4759H12.4757H12.4755H12.4753H12.4751H12.4749H12.4747H12.4745H12.4743H12.4741H12.4739H12.4736H12.4734H12.4732H12.473H12.4728H12.4726H12.4724H12.4722H12.472H12.4718H12.4715H12.4713H12.4711H12.4709H12.4707H12.4705H12.4703H12.4701H12.4699H12.4697H12.4694H12.4692H12.469H12.4688H12.4686H12.4684H12.4682H12.468H12.4678H12.4676H12.4674H12.4671H12.4669H12.4667H12.4665H12.4663H12.4661H12.4659H12.4657H12.4655H12.4653H12.465H12.4648H12.4646H12.4644H12.4642H12.464H12.4638H12.4636H12.4634H12.4632H12.4629H12.4627H12.4625H12.4623H12.4621H12.4619H12.4617H12.4615H12.4613H12.461H12.4608H12.4606H12.4604H12.4602H12.46H12.4598H12.4596H12.4594H12.4592H12.4589H12.4587H12.4585H12.4583H12.4581H12.4579H12.4577H12.4575H12.4573H12.457H12.4568H12.4566H12.4564H12.4562H12.456H12.4558H12.4556H12.4554H12.4552H12.4549H12.4547H12.4545H12.4543H12.4541H12.4539H12.4537H12.4535H12.4533H12.453H12.4528H12.4526H12.4524H12.4522H12.452H12.4518H12.4516H12.4514H12.4511H12.4509H12.4507H12.4505H12.4503H12.4501H12.4499H12.4497H12.4495H12.4492H12.449H12.4488H12.4486H12.4484H12.4482H12.448H12.4478H12.4476H12.4473H12.4471H12.4469H12.4467H12.4465H12.4463H12.4461H12.4459H12.4457H12.4454H12.4452H12.445H12.4448H12.4446H12.4444H12.4442H12.444H12.4438H12.4435H12.4433H12.4431H12.4429H12.4427H12.4425H12.4423H12.4421H12.4418H12.4416H12.4414H12.4412H12.441H12.4408H12.4406H12.4404H12.4402H12.4399H12.4397H12.4395H12.4393H12.4391H12.4389H12.4387H12.4385H12.4383H12.438H12.4378H12.4376H12.4374H12.4372H12.437H12.4368H12.4366H12.4363H12.4361H12.4359H12.4357H12.4355H12.4353H12.4351H12.4349H12.4347H12.4344H12.4342H12.434H12.4338H12.4336H12.4334H12.4332H12.433H12.4327H12.4325H12.4323H12.4321H12.4319H12.4317H12.4315H12.4313H12.431H12.4308H12.4306H12.4304H12.4302H12.43H12.4298H12.4296H12.4294H12.4291H12.4289H12.4287H12.4285H12.4283H12.4281H12.4279H12.4277H12.4274H12.4272H12.427H12.4268H12.4266H12.4264H12.4262H12.426H12.4257H12.4255H12.4253H12.4251H12.4249H12.4247H12.4245H12.4243H12.4241H12.4238H12.4236H12.4234H12.4232H12.423H12.4228H12.4226H12.4224H12.4221H12.4219H12.4217H12.4215H12.4213H12.4211H12.4209H12.4207H12.4204H12.4202H12.42H12.4198H12.4196H12.4194H12.4192H12.419H12.4187H12.4185H12.4183H12.4181H12.4179H12.4177H12.4175H12.4173H12.417H12.4168H12.4166H12.4164H12.4162H12.416H12.4158H12.4156H12.4153H12.4151H12.4149H12.4147H12.4145H12.4143H12.4141H12.4139H12.4137H12.4134H12.4132H12.413H12.4128H12.4126H12.4124H12.4122H12.412H12.4117H12.4115H12.4113H12.4111H12.4109H12.4107H12.4105H12.4103H12.41H12.4098H12.4096H12.4094H12.4092H12.409H12.4088H12.4086H12.4083H12.4081H12.4079H12.4077H12.4075H12.4073H12.4071H12.4069H12.4066H12.4064H12.4062H12.406H12.4058H12.4056H12.4054H12.4052H12.4049H12.4049L25.6717 22.7968M25.6711 23.1468L25.6717 22.7968M25.6711 23.1468H25.6712L25.6717 22.7968M25.6711 23.1468L12.511 23.1275V22.7775M25.6717 22.7968L12.511 22.7775M12.511 22.7775L12.5104 23.1275M12.511 22.7775L12.5104 23.1275M12.5104 23.1275L12.5103 23.1275H12.51H12.5098H12.5096H12.5094H12.5091H12.5089H12.5087H12.5085H12.5082H12.508H12.5078H12.5076H12.5073H12.5071H12.5069H12.5067H12.5064H12.5062H12.506H12.5058H12.5055H12.5053H12.5051H12.5048H12.5046H12.5044H12.5042H12.5039H12.5037H12.5035H12.5033H12.503H12.5028H12.5026H12.5024H12.5021H12.5019H12.5017H12.5015H12.5012H12.501H12.5008H12.5006H12.5003H12.5001H12.4999H12.4997H12.4994H12.4992H12.499H12.4988H12.4985H12.4983H12.4981H12.4979H12.4976H12.4974H12.4972H12.497H12.4967H12.4965H12.4963H12.4961H12.4958H12.4956H12.4954H12.4952H12.4949H12.4947H12.4945H12.4943H12.494H12.4938H12.4936H12.4934H12.4931H12.4929H12.4927H12.4925H12.4922H12.492H12.4918H12.4916H12.4913H12.4911H12.4909H12.4907H12.4904H12.4902H12.49H12.4898H12.4895H12.4893H12.4891H12.4889H12.4886H12.4884H12.4882H12.488H12.4877H12.4875H12.4873H12.4871H12.4868H12.4866H12.4864H12.4862H12.4859H12.4857H12.4855H12.4853H12.4851H12.4848H12.4846H12.4844H12.4842H12.4839H12.4837H12.4835H12.4833H12.483H12.4828H12.4826H12.4824H12.4821H12.4819H12.4817H12.4815H12.4812H12.481H12.4808H12.4806H12.4803H12.4801H12.4799H12.4797H12.4795H12.4792H12.479H12.4788H12.4786H12.4783H12.4781H12.4779H12.4777H12.4774H12.4772H12.477H12.4768H12.4765H12.4763H12.4761H12.4759H12.4756H12.4754H12.4752H12.475H12.4748H12.4745H12.4743H12.4741H12.4739H12.4736H12.4734H12.4732H12.473H12.4727H12.4725H12.4723H12.4721H12.4718H12.4716H12.4714H12.4712H12.471H12.4707H12.4705H12.4703H12.4701H12.4698H12.4696H12.4694H12.4692H12.4689H12.4687H12.4685H12.4683H12.4681H12.4678H12.4676H12.4674H12.4672H12.4669H12.4667H12.4665H12.4663H12.466H12.4658H12.4656H12.4654H12.4651H12.4649H12.4647H12.4645H12.4643H12.464H12.4638H12.4636H12.4634H12.4631H12.4629H12.4627H12.4625H12.4622H12.462H12.4618H12.4616H12.4614H12.4611H12.4609H12.4607H12.4605H12.4602H12.46H12.4598H12.4596H12.4593H12.4591H12.4589H12.4587H12.4585H12.4582H12.458H12.4578H12.4576H12.4573H12.4571H12.4569H12.4567H12.4564H12.4562H12.456H12.4558H12.4556H12.4553H12.4551H12.4549H12.4547H12.4544H12.4542H12.454H12.4538H12.4535H12.4533H12.4531H12.4529H12.4527H12.4524H12.4522H12.452H12.4518H12.4515H12.4513H12.4511H12.4509H12.4506H12.4504H12.4502H12.45H12.4498H12.4495H12.4493H12.4491H12.4489H12.4486H12.4484H12.4482H12.448H12.4477H12.4475H12.4473H12.4471H12.4469H12.4466H12.4464H12.4462H12.446H12.4457H12.4455H12.4453H12.4451H12.4448H12.4446H12.4444H12.4442H12.444H12.4437H12.4435H12.4433H12.4431H12.4428H12.4426H12.4424H12.4422H12.4419H12.4417H12.4415H12.4413H12.4411H12.4408H12.4406H12.4404H12.4402H12.4399H12.4397H12.4395H12.4393H12.439H12.4388H12.4386H12.4384H12.4381H12.4379H12.4377H12.4375H12.4373H12.437H12.4368H12.4366H12.4364H12.4361H12.4359H12.4357H12.4355H12.4352H12.435H12.4348H12.4346H12.4344H12.4341H12.4339H12.4337H12.4335H12.4332H12.433H12.4328H12.4326H12.4323H12.4321H12.4319H12.4317H12.4314H12.4312H12.431H12.4308H12.4305H12.4303H12.4301H12.4299H12.4297H12.4294H12.4292H12.429H12.4288H12.4285H12.4283H12.4281H12.4279H12.4276H12.4274H12.4272H12.427H12.4267H12.4265H12.4263H12.4261H12.4259H12.4256H12.4254H12.4252H12.425H12.4247H12.4245H12.4243H12.4241H12.4238H12.4236H12.4234H12.4232H12.4229H12.4227H12.4225H12.4223H12.422H12.4218H12.4216H12.4214H12.4211H12.4209H12.4207H12.4205H12.4202H12.42H12.4198H12.4196H12.4194H12.4191H12.4189H12.4187H12.4185H12.4182H12.418H12.4178H12.4176H12.4173H12.4171H12.4169H12.4167H12.4164H12.4162H12.416H12.4158H12.4155H12.4153H12.4151H12.4149H12.4146H12.4144H12.4142H12.414H12.4137H12.4135H12.4133H12.4131H12.4128H12.4126H12.4124H12.4122H12.4119H12.4117H12.4115H12.4113H12.411H12.4108H12.4106H12.4104H12.4101H12.4099H12.4097H12.4095H12.4092H12.409H12.4088H12.4086H12.4083H12.4081H12.4079H12.4077H12.4074H12.4072H12.407H12.4068H12.4065H12.4063H12.4061H12.4059H12.4056H12.4054H12.4052H12.405H12.4047H12.4045H12.4043H12.4041H12.4038H12.4036H12.4034H12.4031H12.4029H12.4027H12.4025H12.4022H12.402H12.4018H12.4016H12.4013H12.4011H12.4009H12.4007H12.4004H12.4002H12.4H12.3998H12.3995H12.3993H12.3991H12.3989H12.3986H12.3984H12.3982H12.3979H12.3977H12.3975H12.3973H12.397H12.3968H12.3966H12.3964H12.3961H12.3908L12.3908 23.1274C10.139 23.0934 8.02811 22.1905 6.44681 20.584M12.5104 23.1275L12.3961 22.7775C10.2363 22.7448 8.21307 21.8795 6.69625 20.3385M6.44681 20.584C6.44684 20.584 6.44688 20.5841 6.44691 20.5841L6.69625 20.3385M6.44681 20.584L6.69625 20.3385M6.44681 20.584L4.83254 15.9154M6.69625 20.3385C5.66306 19.2897 4.94814 18.0081 4.59715 16.6154H4.51709V16.2654H4.48254V15.9154H4.51709H4.68698M4.83254 15.9154V15.8912L4.68698 15.9154M4.83254 15.9154H4.68698M4.83254 15.9154L4.64228 16.2396C4.62129 16.1377 4.60224 16.0352 4.58516 15.9323L4.68698 15.9154M5.09099 16.6154H5.18254V16.2654V15.875H4.93044C4.95217 16.006 4.97723 16.1362 5.00557 16.2654C5.03134 16.3829 5.05982 16.4996 5.09099 16.6154Z" fill="#EDEDED" stroke="#EDEDED" stroke-width="0.7"/>
<path d="M25.8041 1.84787C27.7457 1.87787 29.5623 2.65567 30.9252 4.03981L30.9252 4.03982C32.2892 5.42578 33.0387 7.25914 33.0364 9.20492V9.20534V10.2593V10.6093H33.3864H33.4214H33.7709L33.7714 10.2598L33.7739 8.7043V8.70376V8.22585H34.1686L34.103 7.81998C33.8231 6.089 33.0185 4.48781 31.7662 3.21414L31.7661 3.214C30.1848 1.60747 28.0726 0.704571 25.8221 0.670548L25.4721 0.665258L25.4668 1.01519L25.4595 1.4926L25.4542 1.84247L25.8041 1.84787Z" fill="#EDEDED" stroke="#EDEDED" stroke-width="0.7"/>
<path d="M4.48862 10.5683V10.2183V10.2171V10.2164L4.49104 9.00368V9.00334V8.7825V8.77377L4.49148 8.76505C4.5913 6.7648 5.41956 4.89879 6.84676 3.47537L6.84685 3.47528C8.36892 1.95826 10.3918 1.12379 12.5405 1.12755L4.48862 10.5683ZM4.48862 10.5683H4.83862H5.30878H5.65838L5.65878 10.2188L5.65999 9.16496M4.48862 10.5683L5.65999 9.16496M5.65999 9.16496C5.65999 9.16491 5.65999 9.16487 5.65999 9.16483C5.66581 5.37217 8.74551 2.30162 12.5383 2.30617C12.5383 2.30617 12.5383 2.30617 12.5384 2.30617L25.699 2.32551H25.6995H25.6997H25.6999H25.7001H25.7003H25.7005H25.7007H25.7009H25.7011H25.7013H25.7015H25.7017H25.7019H25.7021H25.7023H25.7025H25.7027H25.7029H25.7031H25.7033H25.7035H25.7037H25.7039H25.7041H25.7043H25.7045H25.7047H25.7049H25.7051H25.7053H25.7055H25.7057H25.7059H25.7061H25.7063H25.7065H25.7067H25.7069H25.7071H25.7073H25.7075H25.7077H25.7079H25.7081H25.7083H25.7085H25.7087H25.7089H25.7091H25.7093H25.7095H25.7097H25.7099H25.7101H25.7103H25.7105H25.7107H25.7109H25.7111H25.7113H25.7115H25.7117H25.7119H25.7121H25.7123H25.7125H25.7127H25.7129H25.7131H25.7133H25.7135H25.7137H25.7139H25.7141H25.7143H25.7145H25.7147H25.7149H25.7151H25.7153H25.7155H25.7157H25.7159H25.7161H25.7163H25.7165H25.7167H25.7169H25.7171H25.7173H25.7175H25.7177H25.7179H25.7181H25.7183H25.7185H25.7187H25.7189H25.7191H25.7193H25.7195H25.7197H25.7199H25.7201H25.7203H25.7205H25.7207H25.7209H25.7211H25.7213H25.7215H25.7217H25.7219H25.7221H25.7223H25.7225H25.7227H25.7229H25.7231H25.7233H25.7235H25.7237H25.7239H25.7241H25.7243H25.7245H25.7247H25.7249H25.7251H25.7253H25.7255H25.7257H25.7259H25.7261H25.7263H25.7265H25.7267H25.7269H25.7271H25.7273H25.7275H25.7277H25.7279H25.7281H25.7283H25.7285H25.7287H25.7289H25.7291H25.7293H25.7295H25.7297H25.7299H25.7301H25.7303H25.7305H25.7307H25.7309H25.7311H25.7313H25.7315H25.7317H25.7319H25.7321H25.7323H25.7325H25.7327H25.7329H25.7331H25.7333H25.7335H25.7337H25.7339H25.7341H25.7343H25.7345H25.7347H25.7349H25.7351H25.7353H25.7355H25.7357H25.7359H25.7361H25.7363H25.7365H25.7367H25.7369H25.7371H25.7373H25.7375H25.7377H25.7379H25.7381H25.7383H25.7385H25.7387H25.7389H25.7391H25.7393H25.7395H25.7397H25.7399H25.7401H25.7403H25.7405H25.7407H25.7409H25.7411H25.7413H25.7415H25.7417H25.7419H25.7421H25.7423H25.7425H25.7427H25.7429H25.7431H25.7433H25.7435H25.7437H25.7439H25.7441H25.7443H25.7445H25.7447H25.7449H25.7451H25.7453H25.7456H25.7458H25.746H25.7462H25.7464H25.7466H25.7468H25.747H25.7472H25.7474H25.7476H25.7478H25.748H25.7482H25.7484H25.7486H25.7488H25.749H25.7492H25.7494H25.7496H25.7498H25.75H25.7502H25.7504H25.7506H25.7508H25.751H25.7512H25.7514H25.7516H25.7518H25.752H25.7522H25.7524H25.7526H25.7528H25.753H25.7532H25.7534H25.7536H25.7538H25.754H25.7542H25.7544H25.7546H25.7548H25.755H25.7552H25.7554H25.7556H25.7558H25.756H25.7562H25.7564H25.7566H25.7568H25.757H25.7572H25.7573H25.7575H25.7577H25.7579H25.7581H25.7583H25.7585H25.7587H25.7589H25.7591H25.7593H25.7595H25.7597H25.7599H25.7601H25.7603H25.7605H25.7607H25.7609H25.7611H25.7613H25.7615H25.7617H25.7619H25.7621H25.7623H25.7625H25.7627H25.7629H25.7631H25.7633H25.7635H25.7637H25.7639H25.7641H25.7643H25.7645H25.7647H25.7649H25.7651H25.7653H25.7655H25.7657H25.7659H25.7661H25.7663H25.7665H25.7667H25.7669H25.7671H25.7673H25.7675H25.7677H25.7679H25.7681H25.7683H25.7685H25.7687H25.7689H25.7691H25.7693H25.7695H25.7697H25.7699H25.7701H25.7703H25.7705H25.7707H25.7709H25.7711H25.7713H25.7715H25.7717H25.7719H25.7721H25.7722H25.7724H25.7726H25.7728H25.773H25.7732H25.7734H25.7736H25.7738H25.774H25.7742H25.7744H25.7746H25.7748H25.775H25.7752H25.7754H25.7756H25.7758H25.776H25.7762H25.7764H25.7766H25.7768H25.777H25.7772H25.7774H25.7776H25.7778H25.778H25.7782H25.7784H25.7786H25.7788H25.7789H25.7791H25.7793H25.7795H25.7797H25.7799H25.7801H25.7803H25.7805H25.7807H25.7809H25.7811H25.7813H25.7815H25.7817H25.7819H25.7821H25.7823H25.7825H25.7827H25.7829H25.7831H25.7833H25.7835H25.7837H25.7838H25.784H25.7842H25.7844H25.7846H25.7848H25.785H25.7852H25.7854H25.7856H25.7858H25.786H25.7862H25.7864H25.7866H25.7868H25.787H25.7872H25.7874H25.7876H25.7877H25.7879H25.7881H25.7883H25.7885H25.7887H25.7889H25.7891H25.7893H25.7895H25.7897H25.7899H25.7901H25.7903H25.7905H25.7907H25.7909H25.7911H25.7912H25.7914H25.7916H25.7918H25.792H25.7922H25.7924H25.7926H25.7928H25.793H25.7932H25.7934H25.7936H25.7938H25.794H25.7941H25.7943H25.7945H25.7947H25.7949H25.7951H25.7953H25.7955H25.7957H25.7959H25.7961H25.7963H25.7965H25.7967H25.7968H25.797H25.7972H25.7974H25.7976H25.7978H25.798H25.7982H25.7984H25.7986H25.7988H25.799H25.7992H25.7993H25.7995H25.7997H25.7999H25.8001H25.8003H25.8005H25.8007H25.8009H25.8011H26.1458L26.151 1.98081L26.1583 1.50219L26.1637 1.14689H25.8083H25.8081H25.8079H25.8077H25.8075H25.8073H25.8071H25.8069H25.8067H25.8065H25.8063H25.8061H25.8059H25.8056H25.8054H25.8052H25.805H25.8048H25.8046H25.8044H25.8042H25.804H25.8038H25.8036H25.8034H25.8032H25.803H25.8028H25.8026H25.8024H25.8021H25.8019H25.8017H25.8015H25.8013H25.8011H25.8009H25.8007H25.8005H25.8003H25.8001H25.7999H25.7997H25.7995H25.7993H25.799H25.7988H25.7986H25.7984H25.7982H25.798H25.7978H25.7976H25.7974H25.7972H25.797H25.7968H25.7966H25.7964H25.7962H25.7959H25.7957H25.7955H25.7953H25.7951H25.7949H25.7947H25.7945H25.7943H25.7941H25.7939H25.7937H25.7935H25.7933H25.793H25.7928H25.7926H25.7924H25.7922H25.792H25.7918H25.7916H25.7914H25.7912H25.791H25.7908H25.7906H25.7904H25.7901H25.7899H25.7897H25.7895H25.7893H25.7891H25.7889H25.7887H25.7885H25.7883H25.7881H25.7879H25.7877H25.7874H25.7872H25.787H25.7868H25.7866H25.7864H25.7862H25.786H25.7858H25.7856H25.7854H25.7852H25.7849H25.7847H25.7845H25.7843H25.7841H25.7839H25.7837H25.7835H25.7833H25.7831H25.7829H25.7827H25.7824H25.7822H25.782H25.7818H25.7816H25.7814H25.7812H25.781H25.7808H25.7806H25.7804H25.7802H25.7799H25.7797H25.7795H25.7793H25.7791H25.7789H25.7787H25.7785H25.7783H25.7781H25.7779H25.7776H25.7774H25.7772H25.777H25.7768H25.7766H25.7764H25.7762H25.776H25.7758H25.7756H25.7754H25.7751H25.7749H25.7747H25.7745H25.7743H25.7741H25.7739H25.7737H25.7735H25.7733H25.773H25.7728H25.7726H25.7724H25.7722H25.772H25.7718H25.7716H25.7714H25.7712H25.771H25.7707H25.7705H25.7703H25.7701H25.7699H25.7697H25.7695H25.7693H25.7691H25.7689H25.7687H25.7684H25.7682H25.768H25.7678H25.7676H25.7674H25.7672H25.767H25.7668H25.7666H25.7663H25.7661H25.7659H25.7657H25.7655H25.7653H25.7651H25.7649H25.7647H25.7645H25.7642H25.764H25.7638H25.7636H25.7634H25.7632H25.763H25.7628H25.7626H25.7624H25.7621H25.7619H25.7617H25.7615H25.7613H25.7611H25.7609H25.7607H25.7605H25.7602H25.76H25.7598H25.7596H25.7594H25.7592H25.759H25.7588H25.7586H25.7584H25.7581H25.7579H25.7577H25.7575H25.7573H25.7571H25.7569H25.7567H25.7565H25.7563H25.756H25.7558H25.7556H25.7554H25.7552H25.755H25.7548H25.7546H25.7544H25.7541H25.7539H25.7537H25.7535H25.7533H25.7531H25.7529H25.7527H25.7525H25.7522H25.752H25.7518H25.7516H25.7514H25.7512H25.751H25.7508H25.7506H25.7503H25.7501H25.7499H25.7497H25.7495H25.7493H25.7491H25.7489H25.7487H25.7484H25.7482H25.748H25.7478H25.7476H25.7474H25.7472H25.747H25.7468H25.7465H25.7463H25.7461H25.7459H25.7457H25.7455H25.7453H25.7451H25.7449H25.7446H25.7444H25.7442H25.744H25.7438H25.7436H25.7434H25.7432H25.743H25.7427H25.7425H25.7423H25.7421H25.7419H25.7417H25.7415H25.7413H25.7411H25.7408H25.7406H25.7404H25.7402H25.74H25.7398H25.7396H25.7394H25.7391H25.7389H25.7387H25.7385H25.7383H25.7381H25.7379H25.7377H25.7375H25.7372H25.737H25.7368H25.7366H25.7364H25.7362H25.736H25.7358H25.7356H25.7353H25.7351H25.7349H25.7347H25.7345H25.7343H25.7341H25.7339H25.7336H25.7334H25.7332H25.733H25.7328H25.7326H25.7324H25.7322H25.732H25.7317H25.7315H25.7313H25.7311H25.7309H25.7307H25.7305H25.7303H25.73H25.7298H25.7296H25.7294H25.7292H25.729H25.7288H25.7286H25.7283H25.7281H25.7279H25.7277H25.7275H25.7273H25.7271H25.7269H25.7267H25.7264H25.7262H25.726H25.7258H25.7256H25.7254H25.7252H25.725H25.7247H25.7245H25.7243H25.7241H25.7239H25.7237H25.7235H25.7233H25.723H25.7228H25.7226H25.7224H25.7222H25.722H25.7218H25.7216H25.7213H25.7211H25.7209H25.7207H25.7205H25.7203H25.7201H25.7199H25.7197H25.7194H25.7192H25.719H25.7188H25.7186H25.7184H25.7182H25.718H25.7177H25.7175H25.7173H25.7171H25.7169H25.7167H25.7165H25.7163H25.716H25.7158H25.7156H25.7154H25.7152H25.715H25.7148H25.7146H25.7143H25.7141H25.7139H25.7137H25.7135H25.7133H25.7131H25.7129H25.7126H25.7124H25.7122H25.712H25.7118H25.7116H25.7114H25.7112H25.7109H25.7107H25.7105H25.7103H25.7101H25.7099H25.7097H25.7095H25.7092H25.709H25.7088H25.7086H25.7084H25.7082H25.708H25.7078H25.7075H25.7073H25.7071H25.7069H25.7067H25.7065H25.7063H25.7061H25.7058H25.7056H25.7054H25.7052H25.705H25.7048H25.7046H25.7044H25.7041H25.7039H25.7037H25.7035H25.7033H25.7031H25.7029H25.7027H25.7024H25.7022H25.702H25.7018H25.7016H25.7014H25.7012H25.701H25.7007M5.65999 9.16496L25.7007 1.14689M25.7007 1.14689L12.5406 1.12755L25.7007 1.14689Z" fill="#0C0F11" stroke="#EDEDED" stroke-width="0.7"/>
<path d="M12.4109 21.4714C9.07884 21.4196 6.32537 18.995 5.75971 15.8137L5.70837 15.525H5.41512H4.92804H4.51514L4.58277 15.9323C4.85199 17.554 5.60937 19.0532 6.78401 20.2468L6.78402 20.2468C8.27583 21.7626 10.2683 22.616 12.3944 22.6488L12.3944 22.6489H12.3998H12.4H12.4002H12.4004H12.4006H12.4008H12.4011H12.4013H12.4015H12.4017H12.4019H12.4021H12.4023H12.4025H12.4028H12.403H12.4032H12.4034H12.4036H12.4038H12.404H12.4042H12.4045H12.4047H12.4049H12.4051H12.4053H12.4055H12.4057H12.4059H12.4062H12.4064H12.4066H12.4068H12.407H12.4072H12.4074H12.4076H12.4079H12.4081H12.4083H12.4085H12.4087H12.4089H12.4091H12.4093H12.4096H12.4098H12.41H12.4102H12.4104H12.4106H12.4108H12.411H12.4112H12.4115H12.4117H12.4119H12.4121H12.4123H12.4125H12.4127H12.4129H12.4132H12.4134H12.4136H12.4138H12.414H12.4142H12.4144H12.4146H12.4149H12.4151H12.4153H12.4155H12.4157H12.4159H12.4161H12.4163H12.4166H12.4168H12.417H12.4172H12.4174H12.4176H12.4178H12.418H12.4183H12.4185H12.4187H12.4189H12.4191H12.4193H12.4195H12.4197H12.42H12.4202H12.4204H12.4206H12.4208H12.421H12.4212H12.4214H12.4217H12.4219H12.4221H12.4223H12.4225H12.4227H12.4229H12.4231H12.4233H12.4236H12.4238H12.424H12.4242H12.4244H12.4246H12.4248H12.425H12.4253H12.4255H12.4257H12.4259H12.4261H12.4263H12.4265H12.4267H12.427H12.4272H12.4274H12.4276H12.4278H12.428H12.4282H12.4284H12.4286H12.4289H12.4291H12.4293H12.4295H12.4297H12.4299H12.4301H12.4303H12.4306H12.4308H12.431H12.4312H12.4314H12.4316H12.4318H12.432H12.4323H12.4325H12.4327H12.4329H12.4331H12.4333H12.4335H12.4337H12.4339H12.4342H12.4344H12.4346H12.4348H12.435H12.4352H12.4354H12.4356H12.4359H12.4361H12.4363H12.4365H12.4367H12.4369H12.4371H12.4373H12.4375H12.4378H12.438H12.4382H12.4384H12.4386H12.4388H12.439H12.4392H12.4394H12.4397H12.4399H12.4401H12.4403H12.4405H12.4407H12.4409H12.4411H12.4414H12.4416H12.4418H12.442H12.4422H12.4424H12.4426H12.4428H12.443H12.4433H12.4435H12.4437H12.4439H12.4441H12.4443H12.4445H12.4447H12.4449H12.4452H12.4454H12.4456H12.4458H12.446H12.4462H12.4464H12.4466H12.4468H12.4471H12.4473H12.4475H12.4477H12.4479H12.4481H12.4483H12.4485H12.4487H12.449H12.4492H12.4494H12.4496H12.4498H12.45H12.4502H12.4504H12.4506H12.4509H12.4511H12.4513H12.4515H12.4517H12.4519H12.4521H12.4523H12.4525H12.4528H12.453H12.4532H12.4534H12.4536H12.4538H12.454H12.4542H12.4544H12.4546H12.4549H12.4551H12.4553H12.4555H12.4557H12.4559H12.4561H12.4563H12.4565H12.4568H12.457H12.4572H12.4574H12.4576H12.4578H12.458H12.4582H12.4584H12.4586H12.4589H12.4591H12.4593H12.4595H12.4597H12.4599H12.4601H12.4603H12.4605H12.4607H12.461H12.4612H12.4614H12.4616H12.4618H12.462H12.4622H12.4624H12.4626H12.4629H12.4631H12.4633H12.4635H12.4637H12.4639H12.4641H12.4643H12.4645H12.4647H12.465H12.4652H12.4654H12.4656H12.4658H12.466H12.4662H12.4664H12.4666H12.4668H12.467H12.4673H12.4675H12.4677H12.4679H12.4681H12.4683H12.4685H12.4687H12.4689H12.4691H12.4694H12.4696H12.4698H12.47H12.4702H12.4704H12.4706H12.4708H12.471H12.4712H12.4714H12.4717H12.4719H12.4721H12.4723H12.4725H12.4727H12.4729H12.4731H12.4733H12.4735H12.4738H12.474H12.4742H12.4744H12.4746H12.4748H12.475H12.4752H12.4754H12.4756H12.4758H12.4761H12.4763H12.4765H12.4767H12.4769H12.4771H12.4773H12.4775H12.4777H12.4779H12.4781H12.4783H12.4786H12.4788H12.479H12.4792H12.4794H12.4796H12.4798H12.48H12.4802H12.4804H12.4806H12.4809H12.4811H12.4813H12.4815H12.4817H12.4819H12.4821H12.4823H12.4825H12.4827H12.4829H12.4831H12.4834H12.4836H12.4838H12.484H12.4842H12.4844H12.4846H12.4848H12.485H12.4852H12.4854H12.4856H12.4858H12.4861H12.4863H12.4865H12.4867H12.4869H12.4871H12.4873H12.4875H12.4877H12.4879H12.4881H12.4883H12.4885H12.4888H12.489H12.4892H12.4894H12.4896H12.4898H12.49H12.4902H12.4904H12.4906H12.4908H12.491H12.4912H12.4915H12.4917H12.4919H12.4921H12.4923H12.4925H12.4927H12.4929H12.4931H12.4933H12.4935H12.4937H12.4939H12.4941H12.4944H12.4946H12.4948H12.495H12.4952H12.4954H12.4956H12.4958H12.496H12.4962H12.4964H12.4966H12.4968H12.497H12.4973H12.4975H12.4977H12.4979H12.4981H12.4983H12.4985H12.4987H12.4989H12.4991H12.4993H12.4995H12.4997H12.4999H12.5001H12.5003H12.5006H12.5008H12.501H12.5012H12.5014H12.5016H12.5018H12.502H12.5022H12.5024H12.5026H12.5028H12.503H12.5032H12.5034H12.5036H12.5039H12.5041H12.5043H12.5045H12.5047H12.5049H12.5051H12.5053H12.5055H12.5057H12.5059H12.5061H12.5063H12.5065H12.5067L12.5068 22.6489L12.5069 22.6489H12.5071H12.5073L25.6675 22.6682L12.4109 21.4714ZM12.4109 21.4714H12.411H12.4112H12.4114H12.4116H12.4118H12.412H12.4122H12.4124H12.4126H12.4128H12.413H12.4132H12.4134H12.4136H12.4138H12.414H12.4142H12.4144H12.4146H12.4148H12.415H12.4152H12.4154H12.4156H12.4158H12.416H12.4162H12.4164H12.4166H12.4168H12.417H12.4172H12.4174H12.4176H12.4178H12.418H12.4182H12.4184H12.4185H12.4187H12.4189H12.4191H12.4193H12.4195H12.4197H12.4199H12.4201H12.4203H12.4205H12.4207H12.4209H12.4211H12.4213H12.4215H12.4217H12.4219H12.4221H12.4223H12.4225H12.4227H12.4229H12.4231H12.4233H12.4235H12.4237H12.4239H12.4241H12.4243H12.4245H12.4247H12.4249H12.4251H12.4253H12.4255H12.4257H12.4259H12.4261H12.4263H12.4265H12.4267H12.4269H12.4271H12.4273H12.4275H12.4277H12.4279H12.4281H12.4283H12.4285H12.4287H12.4289H12.4291H12.4293H12.4295H12.4297H12.4299H12.4301H12.4302H12.4304H12.4306H12.4308H12.431H12.4312H12.4314H12.4316H12.4318H12.432H12.4322H12.4324H12.4326H12.4328H12.433H12.4332H12.4334H12.4336H12.4338H12.434H12.4342H12.4344H12.4346H12.4348H12.435H12.4352H12.4354H12.4356H12.4358H12.436H12.4362H12.4364H12.4366H12.4368H12.437H12.4372H12.4374H12.4376H12.4378H12.438H12.4382H12.4384H12.4386H12.4388H12.439H12.4392H12.4394H12.4396H12.4398H12.44H12.4402H12.4404H12.4406H12.4408H12.441H12.4412H12.4414H12.4416H12.4417H12.4419H12.4421H12.4423H12.4425H12.4427H12.4429H12.4431H12.4433H12.4435H12.4437H12.4439H12.4441H12.4443H12.4445H12.4447H12.4449H12.4451H12.4453H12.4455H12.4457H12.4459H12.4461H12.4463H12.4465H12.4467H12.4469H12.4471H12.4473H12.4475H12.4477H12.4479H12.4481H12.4483H12.4485H12.4487H12.4489H12.4491H12.4493H12.4495H12.4497H12.4499H12.4501H12.4503H12.4505H12.4507H12.4509H12.4511H12.4513H12.4515H12.4517H12.4519H12.4521H12.4523H12.4525H12.4527H12.4529H12.4531H12.4533H12.4534H12.4536H12.4538H12.454H12.4542H12.4544H12.4546H12.4548H12.455H12.4552H12.4554H12.4556H12.4558H12.456H12.4562H12.4564H12.4566H12.4568H12.457H12.4572H12.4574H12.4576H12.4578H12.458H12.4582H12.4584H12.4586H12.4588H12.459H12.4592H12.4594H12.4596H12.4598H12.46H12.4602H12.4604H12.4606H12.4608H12.461H12.4612H12.4614H12.4616H12.4618H12.462H12.4622H12.4624H12.4626H12.4628H12.463H12.4632H12.4634H12.4636H12.4638H12.464H12.4642H12.4644H12.4646H12.4648H12.4649H12.4651H12.4653H12.4655H12.4657H12.4659H12.4661H12.4663H12.4665H12.4667H12.4669H12.4671H12.4673H12.4675H12.4677H12.4679H12.4681H12.4683H12.4685H12.4687H12.4689H12.4691H12.4693H12.4695H12.4697H12.4699H12.4701H12.4703H12.4705H12.4707H12.4709H12.4711H12.4713H12.4715H12.4717H12.4719H12.4721H12.4723H12.4725H12.4727H12.4729H12.4731H12.4733H12.4735H12.4737H12.4739H12.4741H12.4743H12.4745H12.4747H12.4749H12.4751H12.4753H12.4755H12.4757H12.4759H12.4761H12.4763H12.4764H12.4766H12.4768H12.477H12.4772H12.4774H12.4776H12.4778H12.478H12.4782H12.4784H12.4786H12.4788H12.479H12.4792H12.4794H12.4796H12.4798H12.48H12.4802H12.4804H12.4806H12.4808H12.481H12.4812H12.4814H12.4816H12.4818H12.482H12.4822H12.4824H12.4826H12.4828H12.483H12.4832H12.4834H12.4836H12.4838H12.484H12.4842H12.4844H12.4846H12.4848H12.485H12.4852H12.4854H12.4856H12.4858H12.486H12.4862H12.4864H12.4866H12.4868H12.487H12.4872H12.4874H12.4876H12.4878H12.488H12.4881H12.4883H12.4885H12.4887H12.4889H12.4891H12.4893H12.4895H12.4897H12.4899H12.4901H12.4903H12.4905H12.4907H12.4909H12.4911H12.4913H12.4915H12.4917H12.4919H12.4921H12.4923H12.4925H12.4927H12.4929H12.4931H12.4933H12.4935H12.4937H12.4939H12.4941H12.4943H12.4945H12.4947H12.4949H12.4951H12.4953H12.4955H12.4957H12.4959H12.4961H12.4963H12.4965H12.4967H12.4969H12.4971H12.4973H12.4975H12.4977H12.4979H12.4981H12.4983H12.4985H12.4987H12.4989H12.4991H12.4993H12.4995H12.4997H12.4998H12.5H12.5002H12.5004H12.5006H12.5008H12.501H12.5012H12.5014H12.5016H12.5018H12.502H12.5022H12.5024H12.5026H12.5028H12.503H12.5032H12.5034H12.5036H12.5038H12.504H12.5042H12.5044H12.5046H12.5048H12.505H12.5052H12.5054H12.5056H12.5058H12.506H12.5062H12.5064H12.5066H12.5068H12.507H12.5072H12.5074H12.5076H12.5078H12.508H12.5082H12.5084H12.5086H12.5088H12.509H12.5092H12.5094H12.5096H12.5098H12.5103L25.6693 21.4908H25.6698C25.67 21.4908 25.6703 21.4908 25.6705 21.4908C25.6707 21.4908 25.6709 21.4908 25.671 21.4908C29.0464 21.4948 31.8558 19.0618 32.4365 15.8526L32.4885 15.5649H32.7809H33.2655H33.68L33.6106 15.9735C32.9649 19.7731 29.6489 22.6745 25.6676 22.6682L12.4109 21.4714Z" fill="#0C0F11" stroke="#EDEDED" stroke-width="0.7"/>
<path d="M33.734 9.20612C33.739 7.07626 32.9172 5.06622 31.4241 3.54917C29.9323 2.03336 27.9399 1.17996 25.8137 1.14711L25.4637 1.1417L25.4584 1.49177L25.4511 1.97038L25.4458 2.32028L25.7957 2.32565C29.5448 2.38315 32.5636 5.44228 32.5578 9.20396V9.20449V9.2057V10.2596V10.6096H32.9078H33.384H33.734V10.2596V9.20612ZM33.734 9.20612C33.734 9.20626 33.734 9.20639 33.734 9.20653L33.384 9.2057M33.734 9.20612V9.2057H33.384M33.384 9.2057V9.90962V10.2596H33.2578H33.034H32.9078V9.90962V9.2057V9.20449C32.9139 5.25107 29.7412 2.03612 25.8011 1.97569L25.803 1.84703C25.803 1.84703 25.803 1.84703 25.8029 1.84703L25.8083 1.49707L26.1583 1.50237L26.1582 1.51026C28.0601 1.6245 29.8294 2.42779 31.1746 3.79467C32.6032 5.24623 33.3889 7.16795 33.384 9.2057Z" fill="#0C0F11" stroke="#EDEDED" stroke-width="0.7"/>
<path d="M15.955 13.759C15.9562 12.935 15.8689 12.1765 15.7201 11.6134C15.6464 11.3344 15.5524 11.0834 15.4337 10.8938C15.3261 10.722 15.1336 10.5011 14.8373 10.5007C14.5409 10.5003 14.3478 10.7206 14.2397 10.8921C14.1204 11.0814 14.0258 11.3321 13.9513 11.6109C13.801 12.1737 13.7115 12.9319 13.7104 13.7559C13.7092 14.5798 13.7966 15.3383 13.9453 15.9014C14.0191 16.1804 14.113 16.4315 14.2317 16.6211C14.3393 16.7929 14.5318 17.0138 14.8282 17.0142C15.1245 17.0146 15.3176 16.7942 15.4257 16.6227C15.545 16.4335 15.6396 16.1827 15.7141 15.9039C15.8644 15.3412 15.9539 14.583 15.955 13.759Z" fill="#0C0F11" stroke="#EDEDED" stroke-width="0.7"/>
<path d="M23.3693 17.0268C23.6654 17.0268 23.8584 16.8067 23.9665 16.6351C24.0858 16.4459 24.1805 16.1951 24.2551 15.9164C24.4056 15.3537 24.4953 14.5956 24.4965 13.7718C24.4977 12.9479 24.4103 12.1892 24.2614 11.6259C24.1877 11.3468 24.0937 11.0957 23.9748 10.9061C23.8672 10.7343 23.6745 10.5133 23.3778 10.5133C23.0818 10.5133 22.8888 10.7334 22.7806 10.9049C22.6613 11.0942 22.5666 11.3449 22.492 11.6237C22.3415 12.1864 22.2519 12.9444 22.2507 13.7683C22.2494 14.5922 22.3368 15.3508 22.4857 15.9141C22.5595 16.1932 22.6535 16.4443 22.7723 16.634C22.88 16.8057 23.0727 17.0268 23.3693 17.0268Z" fill="#0C0F11" stroke="#EDEDED" stroke-width="0.7"/>
<path d="M4.48135 15.2913L4.48014 15.2925V15.4376V15.8751V16.2251H4.83014H4.92804H5.34009L5.27343 15.8185C5.22696 15.535 5.19473 15.2499 5.18095 14.9627L4.48135 14.9795V15.2913Z" fill="#EDEDED" stroke="#EDEDED" stroke-width="0.7"/>
<path d="M7.65612 15.9047L7.6795 16.2291L8.0047 16.2295L9.65811 16.232L10.0081 16.2325L10.0086 15.8825L10.0171 10.2261L10.0176 9.87559H9.66708H8.51284H8.2879L8.19446 10.0802C7.84301 10.8498 7.64563 11.7064 7.64434 12.6096C7.64434 12.6096 7.64434 12.6097 7.64434 12.6097L7.6395 15.4734C7.6395 15.4739 7.6395 15.4743 7.6395 15.4747C7.63954 15.621 7.64602 15.7646 7.65612 15.9047Z" fill="#EDEDED" stroke="#EDEDED" stroke-width="0.7"/>
<path d="M33.0255 14.6332L33.0252 14.8274C33.0154 15.1758 32.9793 15.5193 32.9217 15.8573L32.852 16.2661H33.2667H33.413H33.763V15.9161V15.1368V15.1366L33.7702 10.2603L33.7707 9.90977H33.4202H33.3828H33.0333L33.0328 10.2592L33.0255 14.6332Z" fill="#EDEDED" stroke="#EDEDED" stroke-width="0.7"/>
<path d="M27.4803 15.9059L27.8288 15.9064L27.8286 16.2564L27.8291 16.2564H27.8303L30.1926 16.26L30.5188 16.2605L30.5423 15.9352C30.5524 15.7946 30.5588 15.6518 30.5601 15.507H30.5601L30.5601 15.5045L30.5649 12.64V12.6395C30.5649 11.738 30.3715 10.8815 30.0213 10.1081L29.9283 9.90271L29.7029 9.90242L27.8392 9.9L27.4893 9.89955L27.4888 10.2495L27.4803 15.9059Z" fill="#EDEDED" stroke="#EDEDED" stroke-width="0.7"/>
<path d="M1.03917 11.4207V11.4203C1.04055 9.88762 2.28542 8.64839 3.8164 8.65098M1.03917 11.4207L3.81672 8.65098C3.81662 8.65098 3.81651 8.65098 3.8164 8.65098M1.03917 11.4207V12.5165M1.03917 11.4207V12.5165M3.8164 8.65098H4.30559H4.65611L4.65559 9.00151L4.64592 15.4338L4.64539 15.7833H4.29592H4.29584H4.29576H4.29568H4.29561H4.29553H4.29545H4.29537H4.29529H4.29522H4.29514H4.29506H4.29498H4.29491H4.29483H4.29475H4.29467H4.29459H4.29452H4.29444H4.29436H4.29428H4.2942H4.29413H4.29405H4.29397H4.29389H4.29381H4.29374H4.29366H4.29358H4.2935H4.29342H4.29335H4.29327H4.29319H4.29311H4.29304H4.29296H4.29288H4.2928H4.29272H4.29265H4.29257H4.29249H4.29241H4.29233H4.29226H4.29218H4.2921H4.29202H4.29194H4.29187H4.29179H4.29171H4.29163H4.29155H4.29148H4.2914H4.29132H4.29124H4.29116H4.29109H4.29101H4.29093H4.29085H4.29077H4.2907H4.29062H4.29054H4.29046H4.29038H4.29031H4.29023H4.29015H4.29007H4.28999H4.28992H4.28984H4.28976H4.28968H4.2896H4.28953H4.28945H4.28937H4.28929H4.28921H4.28913H4.28906H4.28898H4.2889H4.28882H4.28874H4.28867H4.28859H4.28851H4.28843H4.28835H4.28828H4.2882H4.28812H4.28804H4.28796H4.28788H4.28781H4.28773H4.28765H4.28757H4.28749H4.28742H4.28734H4.28726H4.28718H4.2871H4.28702H4.28695H4.28687H4.28679H4.28671H4.28663H4.28655H4.28648H4.2864H4.28632H4.28624H4.28616H4.28608H4.28601H4.28593H4.28585H4.28577H4.28569H4.28561H4.28554H4.28546H4.28538H4.2853H4.28522H4.28514H4.28507H4.28499H4.28491H4.28483H4.28475H4.28467H4.2846H4.28452H4.28444H4.28436H4.28428H4.2842H4.28412H4.28405H4.28397H4.28389H4.28381H4.28373H4.28365H4.28357H4.2835H4.28342H4.28334H4.28326H4.28318H4.2831H4.28302H4.28295H4.28287H4.28279H4.28271H4.28263H4.28255H4.28247H4.28239H4.28232H4.28224H4.28216H4.28208H4.282H4.28192H4.28184H4.28176H4.28169H4.28161H4.28153H4.28145H4.28137H4.28129H4.28121H4.28113H4.28106H4.28098H4.2809H4.28082H4.28074H4.28066H4.28058H4.2805H4.28042H4.28034H4.28027H4.28019H4.28011H4.28003H4.27995H4.27987H4.27979H4.27971H4.27963H4.27955H4.27948H4.2794H4.27932H4.27924H4.27916H4.27908H4.279H4.27892H4.27884H4.27876H4.27868H4.2786H4.27853H4.27845H4.27837H4.27829H4.27821H4.27813H4.27805H4.27797H4.27789H4.27781H4.27773H4.27765H4.27757H4.27749H4.27742H4.27734H4.27726H4.27718H4.2771H4.27702H4.27694H4.27686H4.27678H4.2767H4.27662H4.27654H4.27646H4.27638H4.2763H4.27622H4.27614H4.27606H4.27598H4.2759H4.27582H4.27574H4.27567H4.27559H4.27551H4.27543H4.27535H4.27527H4.27519H4.27511H4.27503H4.27495H4.27487H4.27479H4.27471H4.27463H4.27455H4.27447H4.27439H4.27431H4.27423H4.27415H4.27407H4.27399H4.27391H4.27383H4.27375H4.27367H4.27359H4.27351H4.27343H4.27335H4.27327H4.27319H4.27311H4.27303H4.27295H4.27287H4.27279H4.27271H4.27263H4.27255H4.27247H4.27239H4.2723H4.27222H4.27214H4.27206H4.27198H4.2719H4.27182H4.27174H4.27166H4.27158H4.2715H4.27142H4.27134H4.27126H4.27118H4.2711H4.27102H4.27094H4.27086H4.27078H4.27069H4.27061H4.27053H4.27045H4.27037H4.27029H4.27021H4.27013H4.27005H4.26997H4.26989H4.26981H4.26973H4.26964H4.26956H4.26948H4.2694H4.26932H4.26924H4.26916H4.26908H4.269H4.26892H4.26883H4.26875H4.26867H4.26859H4.26851H4.26843H4.26835H4.26827H4.26819H4.2681H4.26802H4.26794H4.26786H4.26778H4.2677H4.26762H4.26754H4.26745H4.26737H4.26729H4.26721H4.26713H4.26705H4.26697H4.26688H4.2668H4.26672H4.26664H4.26656H4.26648H4.26639H4.26631H4.26623H4.26615H4.26607H4.26599H4.2659H4.26582H4.26574H4.26566H4.26558H4.26549H4.26541H4.26533H4.26525H4.26517H4.26508H4.265H4.26492H4.26484H4.26476H4.26467H4.26459H4.26451H4.26443H4.26435H4.26426H4.26418H4.2641H4.26402H4.26393H4.26385H4.26377H4.26369H4.26361H4.26352H4.26344H4.26336H4.26328H4.26319H4.26311H4.26303H4.26295H4.26286H4.26278H4.2627H4.26262H4.26253H4.26245H4.26237H4.26228H4.2622H4.26212H4.26204H4.26195H4.26187H4.26179H4.26171H4.26162H4.26154H4.26146H4.26137H4.26129H4.26121H4.26112H4.26104H4.26096H4.26087H4.26079H4.26071H4.26063H4.26054H4.26046H4.26038H4.26029H4.26021H4.26013H4.26004H4.25996H4.25988H4.25979H4.25971H4.25963H4.25954H4.25946H4.25937H4.25929H4.25921H4.25912H4.25904H4.25896H4.25887H4.25879H4.25871H4.25862H4.25854H4.25845H4.25837H4.25829H4.2582H4.25812H4.25803H4.25795H4.25787H4.25778H4.2577H4.25761H4.25753H4.25745H4.25736H4.25728H4.25719H4.25711H4.25703H4.25694H4.25686H4.25677H4.25669H4.2566H4.25652H4.25643H4.25635H4.25627H4.25618H4.2561H4.25601H4.25593H4.25584H4.25576H4.25567H4.25559H4.2555H4.25542H4.25533H4.25525H4.25516H4.25508H4.25499H4.25491H4.25482H4.24924L4.24924 15.7833C2.46798 15.7548 1.03532 14.3025 1.03917 12.5165M3.8164 8.65098L1.03917 12.5165M1.03917 12.5165C1.03917 12.5164 1.03917 12.5162 1.03917 12.5161L1.38917 12.5169H1.03917V12.5165Z" fill="#0C0F11" stroke="#EDEDED" stroke-width="0.7"/>
<path d="M4.83983 7.8248H4.77641L4.77653 7.74182L4.69356 7.8248H4.4144H4.10475L4.06701 8.13214C4.04934 8.27596 4.03546 8.41987 4.02536 8.56507L3.99932 8.93936H4.07475L4.07286 10.2181L4.07234 10.5686H4.42286H4.82896H5.17855L5.17896 10.219L5.18016 9.16507V9.16467C5.18016 9.04438 5.1836 8.92313 5.18944 8.8006L5.18983 8.79228V8.78395V8.1748V7.8248H4.83983Z" fill="#EDEDED" stroke="#EDEDED" stroke-width="0.7"/>
<path d="M4.44342 15.525H4.03402L4.09768 15.9294C4.11887 16.064 4.14277 16.2001 4.17069 16.3359L4.22816 16.6154H4.51352H4.82897H5.17897V16.2654V15.875H4.83018V15.525H4.82897H4.47897H4.44342Z" fill="#EDEDED" stroke="#EDEDED" stroke-width="0.7"/>
<path d="M5.19253 8.85997L5.19103 8.85847V8.78223L5.11296 8.78037L5.08977 8.75717L5.08856 8.75597L5.06529 8.77923L4.49143 8.76558C4.48517 8.89686 4.48136 9.02943 4.48136 9.16294V10.2181V10.5681H4.83136H4.83982H5.18912L5.18982 10.2188L5.19224 9.00531L5.19253 8.85997Z" fill="#EDEDED" stroke="#EDEDED" stroke-width="0.7"/>
<path d="M4.00226 15.4499H3.65226V15.7999V15.8241V16.1741H4.00226H4.44462H4.85422L4.79033 15.7695C4.78008 15.7046 4.77101 15.6399 4.76309 15.5743L4.44462 15.5934V15.4741H4.41561V15.4499H4.4144H4.00226Z" fill="#EDEDED" stroke="#EDEDED" stroke-width="0.7"/>
<path d="M5.18014 15.872V15.8227L5.22317 15.8658L5.18096 14.9625C5.17512 14.8375 5.17168 14.715 5.17168 14.5911C5.17168 14.591 5.17168 14.5909 5.17168 14.5908L5.17893 10.2174L5.17951 9.8668H4.82893H4.42283H4.07337L4.07283 10.2163L4.06437 15.6635L4.06433 15.6849L4.06689 15.706C4.07589 15.7806 4.08615 15.8537 4.09766 15.9266L4.1443 16.222H4.44337H4.83014H5.18014V15.872Z" fill="#EDEDED" stroke="#EDEDED" stroke-width="0.7"/>
<path d="M5.18858 10.2193L5.18911 9.86875H4.83858H4.82891H4.47949L4.47891 10.2182L4.47166 14.5922V14.5928C4.47166 14.7263 4.47414 14.8625 4.48187 15.0003L5.18132 14.9807V14.9798V14.9795L5.18858 10.2193Z" fill="#EDEDED" stroke="#EDEDED" stroke-width="0.7"/>
<path d="M4.67961 10.7192L4.67252 15.4321L4.672 15.7816H4.67142L4.67132 15.8479L4.67079 16.1974H4.32132H4.3189H4.30302L4.29067 16.1963C4.2906 16.1963 4.29052 16.1963 4.29045 16.1962L4.27418 16.1962H4.2688L4.2688 16.1961C2.2695 16.1654 0.646187 14.5156 0.650007 12.5148M4.67961 10.7192L4.34517 8.58594C4.34572 8.57784 4.34627 8.56973 4.34684 8.56163L4.69599 8.58594V8.93594H4.68229L4.68219 8.99982L4.68195 9.16125H5.02182V9.16343M4.67961 10.7192L5.02182 11.0615V10.2164V9.16343M4.67961 10.7192L4.68195 9.16137L5.02179 9.16562C5.0218 9.16489 5.02181 9.16416 5.02182 9.16343M0.650007 12.5148C0.650007 12.5147 0.650007 12.5146 0.650007 12.5145L1.00001 12.5152M0.650007 12.5148V12.5152H1.00001M0.650007 12.5148V11.419V11.4184C0.652723 9.6612 2.08466 8.23338 3.84296 8.23594M1.00001 12.5152V11.419L4.32136 15.8203L4.32132 15.8474H4.3189C4.31889 15.8474 4.31887 15.8474 4.31886 15.8474L4.27418 15.8473H4.27416L3.97132 15.8469L3.97135 15.8276C2.3048 15.6487 0.996586 14.2223 1.00001 12.5152ZM3.84296 8.23594C3.84305 8.23594 3.84315 8.23594 3.84324 8.23594L3.8427 8.58594V8.23594H3.84296ZM3.84296 8.23594H4.69599H5.07121L5.04515 8.61025C5.03231 8.7946 5.02418 8.97815 5.02182 9.16343M3.8427 9.34929H3.98167L3.98089 9.86517H3.9803L3.97978 10.2146L3.9725 15.0577C2.72285 14.8851 1.7626 13.8117 1.76457 12.5157V12.5152V11.4193C1.76681 10.2736 2.69746 9.34722 3.84207 9.34929H3.8427ZM4.29195 16.1963L4.2917 16.1963L4.29195 16.1963Z" fill="#EDEDED" stroke="#EDEDED" stroke-width="0.7"/>
<path d="M4.70277 10.5664H4.77235L4.77287 10.2169L4.77529 8.58646L4.77581 8.23594H4.42529H4.37574H4.04926L4.02658 8.56163C4.013 8.75664 4.00277 8.95652 4.00277 9.16124V10.2164H4.35156V10.5664H4.35277H4.42287H4.70277Z" fill="#EDEDED" stroke="#EDEDED" stroke-width="0.7"/>
<path d="M4.31455 14.59L4.31455 14.5902L4.3244 14.5903L4.31455 14.59ZM4.74396 15.6641L5.08174 15.6203C5.03757 15.2797 5.0134 14.9374 5.01455 14.592L5.01455 14.5914L5.0218 10.2174L5.02238 9.8668H4.6718H4.33097H3.9815L3.98097 10.2163L3.97251 15.8473L3.97198 16.1978H4.32251H4.73465H5.08465V15.8478V15.6653V15.6641H4.74396Z" fill="#EDEDED" stroke="#EDEDED" stroke-width="0.7"/>
<path d="M3.9943 14.5902V14.5908C3.9943 14.969 4.01952 15.3418 4.06731 15.7103L4.7644 15.6658L4.77286 10.2173L4.7734 9.8668H4.42286H4.35155H4.00213L4.00155 10.2162L3.9943 14.5902Z" fill="#EDEDED" stroke="#EDEDED" stroke-width="0.7"/>
<path d="M37.0952 11.1331C37.0978 9.61579 35.8793 8.37921 34.3656 8.35707L34.3656 8.35703H34.3605H34.3605H34.3604H34.3603H34.3602H34.3602H34.3601H34.36H34.36H34.3599H34.3598H34.3598H34.3597H34.3596H34.3595H34.3595H34.3594H34.3593H34.3593H34.3592H34.3591H34.359H34.359H34.3589H34.3588H34.3588H34.3587H34.3586H34.3586H34.3585H34.3584H34.3583H34.3583H34.3582H34.3581H34.3581H34.358H34.3579H34.3579H34.3578H34.3577H34.3577H34.3576H34.3575H34.3574H34.3574H34.3573H34.3572H34.3572H34.3571H34.357H34.357H34.3569H34.3568H34.3567H34.3567H34.3566H34.3565H34.3565H34.3564H34.3563H34.3563H34.3562H34.3561H34.3561H34.356H34.3559H34.3558H34.3558H34.3557H34.3556H34.3556H34.3555H34.3554H34.3554H34.3553H34.3552H34.3552H34.3551H34.355H34.355H34.3549H34.3548H34.3547H34.3547H34.3546H34.3545H34.3545H34.3544H34.3543H34.3543H34.3542H34.3541H34.3541H34.354H34.3539H34.3539H34.3538H34.3537H34.3537H34.3536H34.3535H34.3535H34.3534H34.3533H34.3532H34.3532H34.3531H34.353H34.353H34.3529H34.3528H34.3528H34.3527H34.3526H34.3526H34.3525H34.3524H34.3524H34.3523H34.3522H34.3522H34.3521H34.352H34.352H34.3519H34.3518H34.3518H34.3517H34.3516H34.3516H34.3515H34.3514H34.3514H34.3513H34.3512H34.3512H34.3511H34.351H34.351H34.3509H34.3508H34.3508H34.3507H34.3506H34.3506H34.3505H34.3504H34.3504H34.3503H34.3502H34.3502H34.3501H34.35H34.35H34.3499H34.3498H34.3498H34.3497H34.3496H34.3496H34.3495H34.3494H34.3494H34.3493H34.3492H34.3492H34.3491H34.349H34.349H34.3489H34.3488H34.3488H34.3487H34.3486H34.3486H34.3485H34.3484H34.3484H34.3483H34.3482H34.3482H34.3481H34.348H34.348H34.3479H34.3478H34.3478H34.3477H34.3476H34.3476H34.3475H34.3474H34.3474H34.3473H34.3472H34.3472H34.3471H34.3471H34.347H34.3469H34.3469H34.3468H34.3467H34.3467H34.3466H34.3465H34.3465H34.3464H34.3463H34.3463H34.3462H34.3461H34.3461H34.346H34.3459H34.3459H34.3458H34.3458H34.3457H34.3456H34.3456H34.3455H34.3454H34.3454H34.3453H34.3452H34.3452H34.3451H34.345H34.345H34.3449H34.3448H34.3448H34.3447H34.3447H34.3446H34.3445H34.3445H34.3444H34.3443H34.3443H34.3442H34.3441H34.3441H34.344H34.3439H34.3439H34.3438H34.3438H34.3437H34.3436H34.3436H34.3435H34.3434H34.3434H34.3433H34.3432H34.3432H34.3431H34.3431H34.343H34.3429H34.3429H34.3428H34.3427H34.3427H34.3426H34.3425H34.3425H34.3424H34.3424H34.3423H34.3422H34.3422H34.3421H34.342H34.342H34.3419H34.3419H34.3418H34.3417H34.3417H34.3416H34.3415H34.3415H34.3414H34.3413H34.3413H34.3412H34.3412H34.3411H34.341H34.341H34.3409H34.3408H34.3408H34.3407H34.3407H34.3406H34.3405H34.3405H34.3404H34.3403H34.3403H34.3402H34.3402H34.3401H34.34H34.34H34.3399H34.3398H34.3398H34.3397H34.3397H34.3396H34.3395H34.3395H34.3394H34.3393H34.3393H34.3392H34.3392H34.3391H34.339H34.339H34.3389H34.3389H34.3388H34.3387H34.3387H34.3386H34.3385H34.3385H34.3384H34.3384H34.3383H34.3382H34.3382H34.3381H34.3381H34.338H34.3379H34.3379H34.3378H34.3377H34.3377H34.3376H34.3376H34.3375H34.3374H34.3374H34.3373H34.3373H34.3372H34.3371H34.3371H34.337H34.337H34.3369H34.3368H34.3368H34.3367H34.3366H34.3366H34.3365H34.3365H34.3364H34.3363H34.3363H34.3362H34.3362H34.3361H34.336H34.336H34.3359H34.3359H34.3358H34.3357H34.3357H34.3356H34.3356H34.3355H34.3354H34.3354H34.3353H34.3353H34.3352H34.3351H34.3351H34.335H34.335H34.3349H34.3348H34.3348H34.3347H34.3347H34.3346H34.3345H34.3345H34.3344H34.3344H34.3343H34.3342H34.3342H34.3341H34.3341H34.334H34.3339H34.3339H34.3338H34.3338H34.3337H34.3336H34.3336H34.3335H34.3335H34.3334H34.3333H34.3333H34.3332H34.3332H34.3331H34.3331H34.333H34.3329H34.3329H34.3328H34.3328H34.3327H34.3326H34.3326H34.3325H34.3325H34.3324H34.3323H34.3323H34.3322H34.3322H34.3321H34.3321H34.332H34.3319H34.3319H34.3318H34.3318H34.3317H34.3316H34.3316H34.3315H34.3315H34.3314H34.3313H34.3313H34.3312H34.3312H34.3311H34.3311H34.331H34.3309H34.3309H34.3308H34.3308H34.3307H34.3307H34.3306H34.3305H34.3305H34.3304H34.3304H34.3303H34.3302H34.3302H34.3301H34.3301H34.33H34.33H34.3299H34.3298H34.3298H34.3297H34.3297H34.3296H34.3296H34.3295H34.3294H34.3294H34.3293H34.3293H34.3292H34.3292H34.3291H34.329H34.329H34.3289H34.3289H34.3288H34.3288H34.3287H34.3286H34.3286H34.3285H34.3285H34.3284H34.3284H34.3283H34.3282H34.3282H34.3281H34.3281H34.328H34.328H34.3279H33.8384H33.4889L33.4884 8.70651L33.4787 15.1388L33.4782 15.4888L33.8282 15.4893C35.6302 15.4921 37.0924 14.0339 37.0952 12.2319V12.2314V12.229V11.1331ZM37.0952 11.1331C37.0952 11.1332 37.0952 11.1333 37.0952 11.1334L36.7452 11.1327H37.0952V11.1331Z" fill="#0C0F11" stroke="#EDEDED" stroke-width="0.7"/>
<path d="M33.0642 15.9161V16.2661H33.4142H33.4867H33.8362L33.8367 15.9167L33.8452 10.2603L33.8457 9.90977H33.4952H33.4214H33.072L33.0714 10.2592L33.0642 15.1361V15.1366V15.9161Z" fill="#EDEDED" stroke="#EDEDED" stroke-width="0.7"/>
<path d="M37.5109 11.1334C37.516 9.39808 36.1074 7.96868 34.3745 7.94152L34.3745 7.94148H34.369H34.3308L33.4284 7.93906L33.0775 7.93812V8.28906V8.55617V8.56893L33.0784 8.58166C33.0937 8.79166 33.1041 8.99884 33.1041 9.20614C33.1041 9.20623 33.1041 9.20632 33.1041 9.20641L33.0962 14.2856H33.0932V14.6356C33.0932 14.8469 33.0818 15.0583 33.0652 15.2721L33.0642 15.2856V15.2991V15.5517V15.9017H33.4142H33.8287C34.8091 15.9017 35.7345 15.5222 36.4302 14.8291C37.1258 14.1361 37.5096 13.2119 37.5109 12.2297V12.2292V11.1334ZM37.5109 11.1334C37.5109 11.1336 37.5109 11.1338 37.5109 11.1341L37.1609 11.133M37.5109 11.1334V11.133H37.1609M37.1609 11.133V12.2292L34.3303 8.29148H34.369C35.9112 8.31565 37.1658 9.58955 37.1609 11.133ZM34.363 8.70604C34.3521 8.70483 34.34 8.70483 34.3303 8.70483H34.3303H34.1908L34.363 8.70604ZM34.363 8.70604C35.6852 8.72659 36.75 9.80589 36.7488 11.1318L34.363 8.70604ZM34.1817 14.7628L34.1903 9.05483H34.3303L34.3327 9.05484L34.3409 9.05574L34.3575 9.056C35.4887 9.07357 36.3998 9.99714 36.3988 11.1314V11.1318V12.2275C36.3957 13.5243 35.4315 14.594 34.1817 14.7628ZM34.3367 9.05485L34.3365 9.05485L34.3367 9.05485Z" fill="#EDEDED" stroke="#EDEDED" stroke-width="0.7"/>
<path d="M4.82892 16.2653H7.69128C8.0764 19.2811 10.6467 21.6146 13.7686 21.6183C13.7687 21.6183 13.7687 21.6183 13.7687 21.6183L24.4142 21.6341H24.4143C27.5462 21.6378 30.1314 19.296 30.5104 16.2653H33.3864H33.7364V15.9153V10.2179V9.86786H33.3864H29.9052C28.8961 7.87143 26.8283 6.49951 24.4358 6.49579L13.7902 6.48008L13.79 6.48008C11.3862 6.4776 9.30483 7.8579 8.29495 9.86786H4.82892H4.47892V10.2179V15.9153V16.2653H4.82892ZM14.8873 16.3284C14.8873 16.3285 14.8863 16.328 14.8844 16.3264C14.8864 16.3276 14.8873 16.3283 14.8873 16.3284ZM14.8341 16.2497C14.8325 16.2522 14.8309 16.2546 14.8294 16.2569C14.828 16.2548 14.8266 16.2526 14.8252 16.2503C14.7596 16.1456 14.6876 15.9708 14.6222 15.7236C14.4929 15.2344 14.4092 14.539 14.4104 13.7573C14.4116 12.9767 14.4972 12.282 14.628 11.7929C14.6941 11.5459 14.7666 11.371 14.8326 11.2662C14.8342 11.2637 14.8357 11.2613 14.8372 11.259C14.8386 11.2612 14.84 11.2634 14.8414 11.2657C14.9071 11.3705 14.9791 11.5454 15.0444 11.7927C15.1738 12.2821 15.2574 12.9775 15.2563 13.7586C15.2551 14.5392 15.1694 15.2339 15.0386 15.7229C14.9726 15.97 14.9001 16.1449 14.8341 16.2497ZM14.8953 11.1877C14.8953 11.1878 14.8944 11.1885 14.8925 11.1896C14.8943 11.1881 14.8953 11.1876 14.8953 11.1877ZM14.7793 11.1874C14.7793 11.1873 14.7803 11.1879 14.7821 11.1894C14.7802 11.1883 14.7793 11.1875 14.7793 11.1874ZM14.7741 16.3263C14.7723 16.3278 14.7714 16.3283 14.7714 16.3282C14.7714 16.3281 14.7723 16.3274 14.7741 16.3263ZM23.4281 16.3404C23.4281 16.3405 23.4272 16.3399 23.4253 16.3384C23.4272 16.3395 23.4281 16.3402 23.4281 16.3404ZM23.3754 16.2618C23.3738 16.2644 23.3721 16.2669 23.3705 16.2694C23.3691 16.2671 23.3675 16.2647 23.366 16.2623C23.3004 16.1577 23.2285 15.9829 23.1632 15.7358C23.034 15.2466 22.9506 14.5512 22.9518 13.7693C22.953 12.9888 23.0386 12.294 23.1694 11.805C23.2355 11.558 23.308 11.3831 23.374 11.2783C23.3755 11.2758 23.3771 11.2734 23.3786 11.2711C23.3799 11.2733 23.3814 11.2755 23.3828 11.2778C23.4485 11.3826 23.5204 11.5575 23.5858 11.8048C23.7152 12.2942 23.7988 12.9895 23.7976 13.7707C23.7965 14.5513 23.7108 15.246 23.58 15.735C23.5139 15.9821 23.4415 16.1569 23.3754 16.2618ZM23.4367 11.1997C23.4367 11.1998 23.4358 11.2006 23.4339 11.2016C23.4357 11.2002 23.4367 11.1996 23.4367 11.1997ZM23.3207 11.1995C23.3207 11.1994 23.3216 11.2 23.3235 11.2014C23.3216 11.2003 23.3207 11.1996 23.3207 11.1995ZM23.3155 16.3384C23.3137 16.3399 23.3128 16.3404 23.3128 16.3403C23.3127 16.3402 23.3136 16.3395 23.3155 16.3384Z" fill="#0C0F11" stroke="#EDEDED" stroke-width="0.7" stroke-miterlimit="10"/>
<path d="M13.7688 21.5129V21.5132V21.5129ZM13.7688 21.5129L13.7688 21.5106L13.7688 21.5129ZM32.7946 10.8101V15.3241H29.9681H29.6423L29.619 15.6491L29.6029 15.8736C29.4098 18.5706 27.1603 20.696 24.4155 20.6929C24.4155 20.6929 24.4154 20.6929 24.4154 20.6929L24.415 20.6929L13.7699 20.6771H13.7698C11.034 20.6739 8.79732 18.5563 8.59767 15.872L8.58103 15.6482L8.55693 15.3241H8.23199H5.42061V10.8101H8.67053H8.89544L8.98889 10.6055L9.05343 10.4642C9.87443 8.66695 11.6871 7.42026 13.7888 7.42232C13.7888 7.42232 13.7889 7.42232 13.7889 7.42232L13.7893 7.42232L24.4343 7.43803L24.4344 7.43803M32.7946 10.8101L24.4344 7.43803M32.7946 10.8101H29.5306H29.3063L29.2126 10.6063L29.1479 10.4656C28.3269 8.68031 26.5264 7.4413 24.4344 7.43803M32.7946 10.8101L24.4344 7.43803M14.6429 16.1298L14.6606 16.141L14.6606 16.141L14.6429 16.1298ZM14.6429 16.1298C14.6728 16.2006 14.7033 16.2602 14.7334 16.3083C14.782 16.3857 14.8153 16.4118 14.8291 16.4202L14.6429 16.1298ZM13.7903 6.23887C11.3448 6.23635 9.22097 7.61066 8.14783 9.62665H4.58716H4.23716V9.97665V16.1576V16.5076H4.58716H7.48202C7.97263 19.5392 10.5963 21.8567 13.7683 21.8606C13.7683 21.8606 13.7684 21.8606 13.7684 21.8606H13.7688L24.4139 21.8763H24.414C27.5961 21.8801 30.235 19.5544 30.7201 16.5076H33.6281H33.9781V16.1576V9.97665V9.62665H33.6281H30.0519C28.9799 7.62433 26.8699 6.25837 24.4361 6.25458L24.4361 6.25458L13.7904 6.23887L13.7903 6.23887ZM30.414 16.1576C30.0844 19.1805 27.5236 21.53 24.4144 21.5263L30.414 16.1576ZM14.6521 13.7581C14.6532 13.046 14.7261 12.4142 14.8361 11.9564C14.9445 12.4145 15.0156 13.0465 15.0145 13.7588C15.0134 14.471 14.9404 15.103 14.8305 15.5608C14.722 15.1029 14.651 14.4709 14.6521 13.7581ZM15.0236 11.387L15.0062 11.3761L15.0062 11.3761L15.0236 11.387ZM15.9484 15.9668L15.6102 15.8763L15.9484 15.9668C16.1057 15.3785 16.1967 14.5986 16.1979 13.7606C16.1992 12.9219 16.1105 12.1414 15.9548 11.5526C15.8782 11.2625 15.7766 10.9851 15.6394 10.7662C15.5222 10.5792 15.2666 10.26 14.8375 10.26C14.4093 10.26 14.1534 10.578 14.0358 10.7647C13.8981 10.9833 13.7958 11.2603 13.7182 11.5501C13.5609 12.1384 13.4699 12.9183 13.4687 13.7564C13.4674 14.5956 13.5561 15.3761 13.7118 15.9648C13.7885 16.2549 13.8901 16.5322 14.0273 16.751C14.1446 16.9381 14.4003 17.2569 14.8291 17.2569C15.2573 17.2569 15.5132 16.9389 15.6308 16.7522C15.7685 16.5336 15.8708 16.2566 15.9484 15.9668ZM23.3774 11.9684C23.4859 12.4265 23.5569 13.0586 23.5559 13.7709C23.5548 14.4836 23.4817 15.1158 23.3717 15.5737C23.2633 15.1158 23.1924 14.4835 23.1935 13.7702C23.1946 13.0581 23.2675 12.4263 23.3774 11.9684ZM24.1808 10.7783L23.8842 10.9641L24.1808 10.7783C24.0636 10.5912 23.8079 10.2721 23.3789 10.2721C22.9507 10.2721 22.6948 10.5901 22.5772 10.7768C22.4395 10.9954 22.3371 11.2724 22.2596 11.5622C22.1023 12.1505 22.0113 12.9304 22.01 13.7684C22.0088 14.6075 22.0971 15.388 22.2526 15.9768C22.3293 16.2668 22.4309 16.5443 22.5683 16.7633C22.686 16.9509 22.9418 17.269 23.3704 17.269C23.7987 17.269 24.0546 16.951 24.1722 16.7642C24.3099 16.5457 24.4122 16.2687 24.4897 15.9788C24.6471 15.3906 24.7381 14.6107 24.7393 13.7726C24.7406 12.934 24.6519 12.1535 24.4962 11.5646L24.1578 11.6541L24.4962 11.5646C24.4195 11.2745 24.3179 10.9972 24.1808 10.7783Z" fill="#EDEDED" stroke="#EDEDED" stroke-width="0.7" stroke-miterlimit="10"/>
<path d="M13.7104 13.8142C13.7092 14.6387 13.7966 15.3973 13.9455 15.9605C14.0193 16.2395 14.1133 16.4906 14.2322 16.6801C14.3399 16.8519 14.5326 17.0727 14.8291 17.0727C15.1253 17.0727 15.3183 16.8523 15.4263 16.6808C15.5456 16.4914 15.6403 16.2406 15.7149 15.9618C15.8654 15.399 15.955 14.641 15.9563 13.8177C15.9575 12.9938 15.8701 12.2351 15.7212 11.6718C15.6474 11.3927 15.5534 11.1416 15.4346 10.952C15.327 10.7802 15.1343 10.5592 14.8376 10.5592C14.5414 10.5592 14.3484 10.7795 14.2404 10.9511C14.1211 11.1404 14.0264 11.3912 13.9518 11.6701C13.8013 12.2329 13.7117 12.9909 13.7104 13.8142Z" fill="#EDEDED" stroke="#EDEDED" stroke-width="0.7"/>
<path d="M22.2507 13.8142C22.2494 14.6387 22.3368 15.3973 22.4857 15.9605C22.5595 16.2395 22.6535 16.4906 22.7724 16.6801C22.8801 16.8519 23.0728 17.0727 23.3693 17.0727C23.6655 17.0727 23.8585 16.8523 23.9666 16.6808C24.0859 16.4914 24.1805 16.2406 24.2551 15.9618C24.4056 15.399 24.4953 14.641 24.4965 13.8177C24.4977 12.9938 24.4103 12.2351 24.2614 11.6718C24.1877 11.3927 24.0937 11.1416 23.9748 10.952C23.8672 10.7802 23.6745 10.5592 23.3778 10.5592C23.0816 10.5592 22.8887 10.7795 22.7806 10.9511C22.6613 11.1404 22.5666 11.3912 22.492 11.6701C22.3415 12.2329 22.2519 12.9909 22.2507 13.8142Z" fill="#EDEDED" stroke="#EDEDED" stroke-width="0.7"/>
<path d="M25.8022 1.97638C25.7696 1.97638 25.7346 1.97638 25.7007 1.97638L12.54 1.95704C8.55391 1.951 5.3172 5.17803 5.31116 9.1653V10.2204L8.51402 10.2253C9.42654 8.22136 11.4462 6.82902 13.7909 6.83264L24.4365 6.84836C26.7812 6.85198 28.7972 8.25036 29.7037 10.2567L32.9078 10.2615V9.2076C32.9162 5.25418 29.7436 2.03923 25.8034 1.9788L25.8022 1.97638Z" fill="#0C0F11"/>
<path d="M24.4148 21.2836L13.7692 21.2679C10.7102 21.2643 8.21072 18.8857 8.00525 15.8786L5.41516 15.875C6.00981 19.2181 8.90447 21.7671 12.4083 21.8215C12.4421 21.8215 12.476 21.8215 12.5098 21.8215L25.6706 21.8408C29.2191 21.8456 32.1718 19.2882 32.7821 15.9149L30.1932 15.9113C29.9805 18.9171 27.4738 21.2884 24.4148 21.2836Z" fill="#0C0F11"/>
<path d="M4.84103 8.78237C4.93651 6.87032 5.72816 5.08517 7.09391 3.72305C8.5503 2.27149 10.4829 1.47379 12.54 1.47742L25.7007 1.49676C25.737 1.49676 25.7733 1.49676 25.8083 1.49676L25.8156 1.01935C25.7769 1.01935 25.7394 1.01935 25.7007 1.01935L12.54 1.00001C10.356 0.996386 8.30133 1.84363 6.75549 3.38584C5.44534 4.69237 4.63435 6.36511 4.41559 8.17322H4.84103V8.78358V8.78237Z" fill="#EDEDED"/>
<path d="M33.4142 15.9161H33.2679C32.6503 19.5504 29.4777 22.3254 25.6705 22.3194L12.5097 22.3001C12.4747 22.3001 12.4384 22.3001 12.4022 22.3001C10.3681 22.2686 8.46326 21.454 7.03587 20.0025C5.91185 18.8603 5.18788 17.4269 4.93044 15.875H4.83254V16.2654H4.51709C4.83133 17.7931 5.57706 19.2024 6.69625 20.3385C8.21307 21.8795 10.2363 22.7448 12.3961 22.7775C12.4348 22.7775 12.4723 22.7775 12.511 22.7775L25.6717 22.7968C27.8557 22.8004 29.9104 21.9532 31.4562 20.411C32.6842 19.1866 33.4734 17.6408 33.749 15.9632H33.4166V15.9149L33.4142 15.9161Z" fill="#EDEDED"/>
<path d="M31.1746 3.79431C32.6032 5.24587 33.3888 7.16759 33.3864 9.20534V10.2593H33.4214L33.4239 8.70376V7.87585H33.7574C33.4891 6.2164 32.718 4.68144 31.5167 3.45952C29.9998 1.91852 27.9754 1.05314 25.8168 1.02051L25.8095 1.49792C27.8436 1.52934 29.7484 2.34516 31.1758 3.79552L31.1746 3.79431Z" fill="#EDEDED"/>
<path d="M4.83862 10.2183H5.30878L5.30999 9.16443C5.31603 5.17837 8.55274 1.95133 12.5388 1.95617L25.6995 1.97551C25.7334 1.97551 25.7684 1.97551 25.8011 1.97551L25.8083 1.49689C25.7733 1.49689 25.737 1.49689 25.7007 1.49689L12.54 1.47755C10.4841 1.47393 8.55032 2.27162 7.09392 3.72318C5.72817 5.08531 4.93652 6.86924 4.84104 8.7825V9.00368L4.83862 10.2171V10.2183Z" fill="#0C0F11"/>
<path d="M25.6705 21.8408L12.5098 21.8214C12.4759 21.8214 12.4421 21.8214 12.4082 21.8214C8.90443 21.7683 6.00976 19.2193 5.41512 15.875H4.92804C5.18548 17.4257 5.90945 18.8591 7.03347 20.0013C8.46086 21.4516 10.3657 22.2674 12.3998 22.2989C12.436 22.2989 12.4723 22.2989 12.5073 22.2989L25.6681 22.3182C29.4753 22.3242 32.6479 19.5492 33.2655 15.9149H32.7809C32.1705 19.2882 29.2178 21.8456 25.6693 21.8408H25.6705Z" fill="#0C0F11"/>
<path d="M32.9078 9.2057V10.2596H33.384V9.2057C33.3889 7.16795 32.6032 5.24623 31.1746 3.79467C29.7473 2.34432 27.8425 1.52849 25.8083 1.49707L25.8011 1.97569C29.7412 2.03612 32.9139 5.25107 32.9078 9.20449V9.2057Z" fill="#0C0F11"/>
<path d="M15.605 13.7585C15.6073 12.1531 15.2633 10.8513 14.8368 10.8507C14.4102 10.8501 14.0626 12.151 14.0604 13.7563C14.0582 15.3617 14.4021 16.6636 14.8286 16.6642C15.2552 16.6648 15.6028 15.3638 15.605 13.7585Z" fill="#0C0F11"/>
<path d="M23.3693 16.6768C23.796 16.6768 24.1441 15.3763 24.1465 13.7712C24.1489 12.1662 23.8045 10.8633 23.3778 10.8633C22.9512 10.8633 22.6031 12.1638 22.6007 13.7688C22.5982 15.3739 22.9427 16.6768 23.3693 16.6768Z" fill="#0C0F11"/>
<path d="M4.83014 15.4376V15.8751H4.92804C4.87969 15.5802 4.84585 15.2816 4.83135 14.9795V15.4364L4.83014 15.4376Z" fill="#EDEDED"/>
<path d="M7.9895 15.4734C7.9895 15.61 7.99555 15.7454 8.00521 15.8795L9.65862 15.882L9.66708 10.2256H8.51284C8.18167 10.9508 7.99555 11.7581 7.99434 12.6102L7.9895 15.4747V15.4734Z" fill="#EDEDED"/>
<path d="M33.3779 14.6338C33.3779 15.0701 33.338 15.498 33.2667 15.9161H33.413V15.1366L33.4202 10.2598H33.3828L33.3755 14.6338H33.3779Z" fill="#EDEDED"/>
<path d="M27.8291 15.9064L30.1932 15.91C30.2028 15.7758 30.2089 15.6405 30.2101 15.5039L30.2149 12.6395C30.2149 11.7886 30.0324 10.9812 29.7025 10.2524L27.8388 10.25L27.8303 15.9064H27.8291Z" fill="#EDEDED"/>
<path d="M3.81609 9.00098C2.47814 8.99856 1.39038 10.0815 1.38917 11.4207V12.5169C1.38554 14.1111 2.66427 15.4079 4.25482 15.4333C4.26933 15.4333 4.28262 15.4333 4.29592 15.4333L4.30559 9.00098H3.81609Z" fill="#0C0F11"/>
<path d="M4.42527 8.58816L4.42286 10.2186H4.82896L4.83016 9.16467C4.83016 9.03777 4.83379 8.91086 4.83983 8.78395V8.1748H4.4144C4.39748 8.31259 4.38418 8.45037 4.37451 8.58936H4.42407L4.42527 8.58816Z" fill="#EDEDED"/>
<path d="M4.83018 15.875H4.44342C4.46397 16.0055 4.48693 16.1361 4.51352 16.2654H4.82897V15.875H4.83018Z" fill="#EDEDED"/>
<path d="M4.84103 9.00341V8.78223C4.83499 8.90913 4.83136 9.03604 4.83136 9.16294V10.2181H4.83982L4.84224 9.00461L4.84103 9.00341Z" fill="#EDEDED"/>
<path d="M4.4144 15.7999H4.00226V15.8241H4.44462C4.43374 15.7552 4.42407 15.6863 4.41561 15.6162V15.7999H4.4144Z" fill="#EDEDED"/>
<path d="M4.83134 14.9788C4.8253 14.8495 4.82168 14.7214 4.82168 14.5908L4.82893 10.2168H4.42283L4.41437 15.6641C4.42283 15.7342 4.4325 15.8031 4.44337 15.872H4.83014V15.4344V14.9776L4.83134 14.9788Z" fill="#EDEDED"/>
<path d="M4.83132 14.9795L4.83858 10.2188H4.82891L4.82166 14.5928C4.82166 14.7221 4.82407 14.8514 4.83132 14.9807V14.9795Z" fill="#EDEDED"/>
<path d="M4.67182 10.2164V9.16125C4.67424 8.96787 4.6827 8.7769 4.69599 8.58594H3.8427C2.27753 8.58352 1.00242 9.855 1.00001 11.419V12.5152C0.996381 14.3245 2.46607 15.8184 4.27418 15.8462C4.28989 15.8462 4.3056 15.8462 4.3189 15.8474H4.32132L4.32978 10.2152H4.67061L4.67182 10.2164ZM4.28143 15.4316C2.69088 15.4074 1.41215 14.1094 1.41457 12.5152V11.419C1.41698 10.0798 2.50475 8.99687 3.8427 8.99929H4.33219L4.32252 15.4316C4.30923 15.4316 4.29593 15.4316 4.28143 15.4316Z" fill="#EDEDED"/>
<path d="M4.35156 10.2164H4.42287L4.42529 8.58594H4.37574C4.36244 8.7769 4.35277 8.96786 4.35277 9.16124V10.2164H4.35156Z" fill="#EDEDED"/>
<path d="M4.73465 15.6653C4.68872 15.3112 4.66334 14.9534 4.66455 14.5908L4.6718 10.2168H4.33097L4.32251 15.8478H4.73465V15.6641V15.6653Z" fill="#EDEDED"/>
<path d="M4.3443 14.5908C4.3443 14.9534 4.36847 15.3112 4.4144 15.6653L4.42286 10.2168H4.35155L4.3443 14.5908Z" fill="#EDEDED"/>
<path d="M36.7452 12.229V11.1327C36.7476 9.80688 35.6828 8.72637 34.3605 8.70703C34.3484 8.70703 34.3376 8.70703 34.3279 8.70703H33.8384L33.8287 15.1393C35.4374 15.1418 36.7427 13.8401 36.7452 12.2314V12.229Z" fill="#0C0F11"/>
<path d="M33.8384 8.55667C33.8203 8.32703 33.7937 8.10101 33.7574 7.875H33.4251V8.70291L33.4227 10.2584H33.4964L33.4879 15.9148H33.4154V15.9631H33.7478C33.784 15.7444 33.8106 15.522 33.8288 15.2984L33.8396 8.55546L33.8384 8.55667Z" fill="#EDEDED"/>
<path d="M33.4142 15.9161H33.4867L33.4952 10.2598H33.4214L33.4142 15.1366V15.9161Z" fill="#EDEDED"/>
<path d="M33.4432 14.6356C33.4432 14.8592 33.4311 15.0803 33.4142 15.2991V15.5517H33.8287C34.7171 15.5517 35.5535 15.2085 36.1831 14.5812C36.8128 13.9539 37.1597 13.1187 37.1609 12.2292V11.133C37.1658 9.58955 35.9112 8.31565 34.369 8.29148H34.3303L33.4275 8.28906V8.55617C33.4432 8.7713 33.4541 8.98765 33.4541 9.20641L33.4456 14.6356H33.4432ZM33.8408 8.70483H34.3303C34.34 8.70483 34.3521 8.70483 34.363 8.70604C35.6852 8.72659 36.75 9.80589 36.7488 11.1318V12.228C36.7452 13.8367 35.4398 15.1384 33.8312 15.1359L33.8408 8.70362V8.70483Z" fill="#EDEDED"/>
<path d="M33.8565 14.636L33.865 9.20688C33.865 8.98812 33.8553 8.77178 33.8384 8.55664L33.8275 15.2996C33.8456 15.0796 33.8565 14.8584 33.8565 14.636Z" fill="#EDEDED"/>
<path d="M29.6856 10.2179C28.7718 8.23088 26.7667 6.84942 24.4353 6.84579L13.7897 6.83008C11.4474 6.82766 9.42896 8.21759 8.51523 10.2179H4.82892V15.9153H8.00761C8.23 18.9055 10.721 21.2647 13.7691 21.2683L24.4147 21.2841C27.4726 21.2877 29.9781 18.92 30.1932 15.9153H33.3864V10.2179H29.6856ZM14.8291 16.6647C14.4025 16.6647 14.058 15.363 14.0604 13.7567C14.0628 12.1529 14.4109 10.8512 14.8376 10.8512C15.2642 10.8512 15.6087 12.1541 15.6063 13.7591C15.6038 15.363 15.2558 16.6647 14.8291 16.6647ZM23.3705 16.6768C22.9426 16.6768 22.5994 15.3751 22.6018 13.7688C22.6042 12.165 22.9523 10.8633 23.3789 10.8633C23.8056 10.8633 24.15 12.1662 24.1476 13.7712C24.1452 15.3751 23.7971 16.6768 23.3705 16.6768Z" fill="#0C0F11"/>
<path fill-rule="evenodd" clip-rule="evenodd" d="M8.3621 9.97665C9.34282 7.96958 11.4049 6.58641 13.7899 6.58887L24.4356 6.60458C26.8094 6.60827 28.858 7.98304 29.8382 9.97665H33.6281V16.1576H30.414C30.0844 19.1805 27.5236 21.53 24.4144 21.5263L13.7688 21.5106C13.7688 21.5106 13.7688 21.5106 13.7688 21.5106C10.6695 21.5069 8.12346 19.1657 7.78733 16.1576H4.58716V9.97665H8.3621ZM13.7893 7.07232C11.5453 7.07005 9.61092 8.40145 8.73507 10.3188L8.67053 10.4601H5.07061V15.6741H8.23199L8.24864 15.8979C8.46173 18.7632 10.8489 21.0237 13.7694 21.0271L24.415 21.0429C24.415 21.0429 24.415 21.0429 24.415 21.0429C27.3449 21.0463 29.7459 18.7776 29.952 15.8986L29.9681 15.6741H33.1446V10.4601H29.5306L29.4659 10.3194C28.5901 8.41477 26.6685 7.09151 24.4349 7.08803L13.7893 7.07232C13.7893 7.07232 13.7893 7.07232 13.7893 7.07232ZM14.5234 11.7655C14.3896 12.2659 14.3033 12.9704 14.3021 13.7576C14.3009 14.546 14.3851 15.2511 14.5175 15.7518C14.5842 16.0039 14.6596 16.1905 14.7334 16.3083C14.782 16.3857 14.8153 16.4118 14.8291 16.4202C14.843 16.4118 14.8766 16.3857 14.9256 16.3079C14.9999 16.19 15.0758 16.0034 15.1432 15.7514C15.2771 15.251 15.3633 14.5465 15.3645 13.7593C15.3657 12.9715 15.2815 12.2664 15.1491 11.7656C15.0824 11.5134 15.007 11.3266 14.9331 11.2087C14.8846 11.1313 14.8513 11.1052 14.8374 11.0967C14.8235 11.1051 14.79 11.1312 14.741 11.209C14.6667 11.3269 14.5908 11.5135 14.5234 11.7655ZM14.3319 10.9513C14.4352 10.7873 14.6 10.61 14.8375 10.61C15.0754 10.61 15.2399 10.7878 15.3428 10.952C15.4534 11.1285 15.544 11.3678 15.6165 11.642C15.7624 12.1939 15.8492 12.9427 15.8479 13.76C15.8467 14.5767 15.7577 15.3249 15.6102 15.8763C15.537 16.1503 15.4457 16.3893 15.3347 16.5656C15.2314 16.7296 15.0666 16.9069 14.8291 16.9069C14.5913 16.9069 14.4268 16.7293 14.3238 16.5651C14.2132 16.3887 14.1226 16.1495 14.0501 15.8754C13.9042 15.3236 13.8174 14.5748 13.8187 13.7569C13.8199 12.9402 13.9089 12.192 14.0564 11.6406C14.1296 11.3666 14.2209 11.1276 14.3319 10.9513ZM23.0648 11.7776C22.9309 12.278 22.8447 12.9825 22.8435 13.7697C22.8423 14.5582 22.9262 15.2633 23.0585 15.7639C23.1251 16.016 23.2004 16.2026 23.2743 16.3203C23.3231 16.3982 23.3565 16.4241 23.3704 16.4324C23.3842 16.4241 23.4178 16.3981 23.467 16.32C23.5413 16.2021 23.6172 16.0155 23.6846 15.7635C23.8184 15.2631 23.9047 14.5585 23.9059 13.7714C23.9071 12.9836 23.8228 12.2785 23.6904 11.7776C23.6238 11.5254 23.5484 11.3387 23.4745 11.2208C23.426 11.1434 23.3927 11.1172 23.3788 11.1088C23.3649 11.1172 23.3313 11.1433 23.2823 11.2211C23.2081 11.339 23.1322 11.5256 23.0648 11.7776ZM22.8733 10.9634C22.9766 10.7994 23.1413 10.6221 23.3789 10.6221C23.6168 10.6221 23.7813 10.7999 23.8842 10.9641C23.9948 11.1406 24.0854 11.3799 24.1578 11.6541C24.3037 12.206 24.3905 12.9548 24.3893 13.7721C24.3881 14.5888 24.2991 15.337 24.1516 15.8884C24.0784 16.1623 23.9871 16.4014 23.876 16.5777C23.7728 16.7416 23.608 16.919 23.3704 16.919C23.1325 16.919 22.9679 16.7417 22.8647 16.5773C22.754 16.4008 22.6634 16.1615 22.591 15.8874C22.4453 15.3356 22.3588 14.5868 22.36 13.769C22.3613 12.9523 22.4503 12.204 22.5977 11.6527C22.671 11.3787 22.7622 11.1397 22.8733 10.9634Z" fill="#EDEDED"/>
<path d="M14.8291 16.7227C14.4025 16.7227 14.058 15.421 14.0604 13.8147C14.0629 12.2109 14.4109 10.9092 14.8376 10.9092C15.2642 10.9092 15.6087 12.2121 15.6063 13.8171C15.6039 15.421 15.2558 16.7227 14.8291 16.7227Z" fill="#EDEDED"/>
<path d="M23.3693 16.7227C22.9427 16.7227 22.5982 15.421 22.6007 13.8147C22.6031 12.2109 22.9512 10.9092 23.3778 10.9092C23.8045 10.9092 24.1489 12.2121 24.1465 13.8171C24.1441 15.421 23.796 16.7227 23.3693 16.7227Z" fill="#EDEDED"/>
</svg>
