<svg width="41" height="24" viewBox="0 0 41 24" fill="none" xmlns="http://www.w3.org/2000/svg">
<path d="M13.9265 22.8671C11.761 22.8671 9.71972 22.03 8.17687 20.5092C6.63273 18.9872 5.76512 16.9543 5.73522 14.7856L5.65594 9.00744C5.62604 6.81925 6.45011 4.74999 7.97606 3.1805C9.50266 1.61101 11.5479 0.731048 13.7367 0.701153L27.7465 0.508135C27.7848 0.508135 27.8238 0.506836 27.8608 0.506836C30.0263 0.506836 32.0676 1.3439 33.6104 2.86465C35.1546 4.3867 36.0222 6.41956 36.0521 8.58826L36.1314 14.3665C36.1931 18.8839 32.5687 22.611 28.0513 22.6727L14.0415 22.8658C14.0038 22.8658 13.9648 22.8671 13.9265 22.8671Z" fill="#FFEE00"/>
<path d="M27.8615 1.01773C32.0566 1.01773 35.486 4.38873 35.5432 8.59679L35.6225 14.3756C35.681 18.6188 32.2879 22.1068 28.0448 22.1653L14.035 22.3583C13.9986 22.3583 13.9635 22.3596 13.9271 22.3596C9.73208 22.3596 6.3026 18.9886 6.24541 14.7805L6.16612 9.00167C6.10763 4.75852 9.50072 1.27054 13.7439 1.21205L27.7536 1.01903C27.79 1.01773 27.8264 1.01773 27.8615 1.01773ZM27.8615 0C27.8206 0 27.7803 1.26935e-06 27.7393 0.00130106L13.7296 0.194319C11.4049 0.226164 9.23167 1.16136 7.61083 2.82769C5.99 4.49401 5.11394 6.69195 5.14709 9.01597L5.22637 14.7948C5.25822 17.0974 6.17912 19.257 7.8201 20.8739C9.45913 22.4896 11.6272 23.378 13.9265 23.378C13.9674 23.378 14.0077 23.378 14.0487 23.3767L28.0584 23.1836C30.3831 23.1518 32.5563 22.2166 34.1772 20.5503C35.798 18.8839 36.6741 16.686 36.6409 14.362L36.5616 8.58314C36.5298 6.28057 35.6089 4.12162 33.9679 2.50404C32.3295 0.888404 30.1608 0 27.8615 0Z" fill="#040B11"/>
<path d="M26.6981 21.591L15.3659 21.7476C11.9637 21.795 9.16789 19.0746 9.12045 15.673L9.07886 12.6244C9.03142 9.2222 11.7519 6.42636 15.1534 6.37892L26.4856 6.22229C29.8878 6.17485 32.6836 8.8953 32.7311 12.2968L32.7727 15.3455C32.8201 18.747 30.1003 21.5435 26.6981 21.591Z" fill="#040B11"/>
<path d="M16.4203 16.8309C16.8747 16.8247 17.2239 15.4341 17.2003 13.7251C17.1767 12.0161 16.7892 10.6357 16.3349 10.642C15.8805 10.6482 15.5313 12.0388 15.5549 13.7478C15.5785 15.4568 15.9659 16.8372 16.4203 16.8309Z" fill="#FFEE00"/>
<path d="M25.5117 16.705C25.966 16.6987 26.3152 15.3082 26.2917 13.5991C26.2681 11.8901 25.8806 10.5097 25.4263 10.516C24.9719 10.5223 24.6227 11.9128 24.6463 13.6218C24.6699 15.3309 25.0573 16.7112 25.5117 16.705Z" fill="#FFEE00"/>
<path d="M10.8208 10.0585L4.7995 10.1416L4.8826 16.1629L10.9039 16.0798L10.8208 10.0585Z" fill="#040B11"/>
<path d="M36.1848 9.70987L30.1635 9.79297L30.2466 15.8143L36.2679 15.7312L36.1848 9.70987Z" fill="#040B11"/>
<path d="M4.83121 16.138C2.90623 16.138 1.31724 14.5711 1.2906 12.6455L1.27435 11.4783C1.25095 9.81326 2.58843 8.43874 4.25346 8.41534L5.21465 8.40234L5.32123 16.1322L4.87931 16.1387C4.86371 16.138 4.84746 16.138 4.83121 16.138Z" fill="#FFEE00"/>
<path d="M4.78043 8.84803L4.87532 15.6946C4.86102 15.6946 4.84672 15.6946 4.83113 15.6946C3.13815 15.6946 1.75518 14.3344 1.73179 12.6376L1.71554 11.4703C1.69539 10.0451 2.83465 8.87467 4.25922 8.85583L4.78043 8.84803ZM5.64999 7.95312L4.76809 7.96547L4.24687 7.97327C2.33814 7.99992 0.806338 9.57331 0.832984 11.4833L0.849231 12.6506C0.863529 13.7047 1.28531 14.6925 2.03659 15.4327C2.78656 16.1717 3.77895 16.5792 4.83178 16.5792C4.85062 16.5792 4.86947 16.5792 4.88767 16.5792L5.76957 16.5668L5.75722 15.6849L5.66234 8.83828L5.64999 7.95312Z" fill="#040B11"/>
<path d="M36.5186 7.60577L37.4797 7.59277H37.5213C39.1643 7.59277 40.5193 8.9296 40.5414 10.5719L40.5576 11.7391C40.5706 12.6853 40.2151 13.5796 39.5555 14.2581C38.8959 14.9366 38.0114 15.3161 37.0658 15.3298L36.6238 15.3363L36.5186 7.60577Z" fill="#FFEE00"/>
<path d="M37.5226 8.0323C38.9309 8.0323 40.0819 9.16441 40.102 10.576L40.1183 11.7432C40.1417 13.4557 38.7736 14.862 37.0612 14.8861L36.9663 8.03945L37.4875 8.03165C37.4986 8.0323 37.5109 8.0323 37.5226 8.0323ZM37.5226 7.15039C37.5064 7.15039 37.4908 7.15039 37.4739 7.15039L36.9526 7.15819L36.0707 7.17054L36.0831 8.05244L36.178 14.8991L36.1903 15.781L37.0722 15.7686C38.1361 15.7543 39.1304 15.326 39.872 14.5637C40.6141 13.8014 41.0138 12.7947 40.9995 11.7315L40.9833 10.5643C40.9709 9.64793 40.6044 8.78877 39.9513 8.14603C39.3001 7.50393 38.437 7.15039 37.5226 7.15039Z" fill="#040B11"/>
<g opacity="0.34">
<path d="M1.73187 12.6374C1.73187 12.6374 2.66447 13.8072 3.75824 13.9216L3.6887 8.86345L5.55649 8.40527L5.34593 16.6141C5.34593 16.6141 1.78322 16.4237 1.75787 14.5318C1.73187 12.6374 1.73187 12.6374 1.73187 12.6374Z" fill="#040B11"/>
</g>
<g opacity="0.34">
<path d="M36.9658 8.041L37.487 8.0332L37.565 13.7139C37.565 13.7139 39.8071 13.7458 40.0482 10.0927C40.2893 6.43967 40.8255 12.5168 40.8255 12.5168C40.8255 12.5168 38.2883 15.9749 36.7344 15.6688C35.1805 15.3627 36.9658 8.041 36.9658 8.041Z" fill="#040B11"/>
</g>
<g opacity="0.34">
<path d="M16.3343 10.6396C16.3343 10.6396 17.324 16.7707 15.5895 16.2859C13.8549 15.8004 16.2823 19.4678 17.454 18.2967C18.6258 17.1275 18.2391 10.7157 16.3343 10.6396Z" fill="#040B11"/>
</g>
<g opacity="0.34">
<path d="M25.4627 10.5156C25.4627 10.5156 26.4525 16.6467 24.7179 16.1619C22.9833 15.6764 25.4107 19.3438 26.5824 18.1727C27.7542 17.0022 27.3688 10.5917 25.4627 10.5156Z" fill="#040B11"/>
</g>
<g opacity="0.34">
<path d="M18.8622 0.519598C18.8622 0.519598 26.451 0.567041 29.8168 3.2784C33.1826 5.98975 31.992 16.2288 31.6892 18.328C31.3863 20.4271 17.4006 22.8772 11.9506 22.3866C11.9506 22.3866 25.0603 23.2555 28.9512 22.7271C32.8421 22.1987 36.3164 19.3308 36.267 15.7336C36.2176 12.1364 35.9915 6.09178 35.9915 6.09178C35.9915 6.09178 33.3055 0.607335 29.0233 0.380522C24.7412 0.154359 18.8622 0.519598 18.8622 0.519598Z" fill="#040B11"/>
</g>
<path d="M8.1846 6.98324C7.92009 7.34588 7.35664 7.05732 7.49506 6.6297C7.76932 5.78418 8.25284 4.83469 9.10485 4.06457C11.1598 2.20912 13.9771 2.16948 13.9771 2.16948L18.8844 2.10254C18.8844 2.10254 11.7259 2.14088 8.1846 6.98324Z" fill="#FFEE00"/>
<path d="M3.23957 9.53906C3.23957 9.53906 2.07431 9.97384 2.1406 11.5498C2.1406 11.5498 2.41811 10.6907 3.25387 10.5366L3.23957 9.53906Z" fill="#FFEE00"/>
<path d="M37.9646 9.27329C37.9594 8.88595 38.4118 8.66759 38.7081 8.9165C38.8615 9.04518 39.0298 9.2174 39.2072 9.44616C39.8955 10.3385 39.0311 12.3239 38.2967 12.8977C38.2967 12.8977 38.8894 10.8655 38.2298 10.0265C38.0602 9.81205 37.9679 9.54624 37.9646 9.27329Z" fill="#FFEE00"/>
<path d="M11.0409 10.5866C10.6574 10.5918 10.4111 10.181 10.5983 9.84634C10.8771 9.34852 11.3502 8.68238 12.1047 8.10203C13.5274 7.00631 15.7168 7.18113 15.7168 7.18113C15.7168 7.18113 12.4375 7.80113 11.6531 10.1472C11.5653 10.4091 11.3164 10.5833 11.0409 10.5866Z" fill="#EDEDED"/>
<path d="M31.0628 17.294C31.4462 17.2888 31.6925 17.6995 31.5053 18.0342C31.2265 18.532 30.7534 19.1982 29.9989 19.7785C28.5763 20.8743 26.3868 20.6994 26.3868 20.6994C26.3868 20.6994 29.6661 20.0794 30.4506 17.7333C30.5376 17.4714 30.7866 17.2985 31.0628 17.294Z" fill="#EDEDED"/>
</svg>
