<svg width="34" height="33" viewBox="0 0 34 33" fill="none" xmlns="http://www.w3.org/2000/svg">
<path d="M31.2621 16.495L28.8514 12.4814C28.8321 12.4493 28.8101 12.4188 28.7855 12.3905C28.7129 12.3067 28.6177 12.2406 28.5051 12.2026L20.3692 9.45527L22.863 6.1418C23.0099 5.94657 23.0338 5.68509 22.9247 5.46646C22.8157 5.24784 22.5923 5.10971 22.348 5.10971H19.9985V0.644531C19.9985 0.288557 19.7099 0 19.354 0H14.5881C14.2321 0 13.9436 0.288557 13.9436 0.644531V5.10971H11.5941C11.3497 5.10971 11.1265 5.2479 11.0173 5.46646C10.9082 5.68509 10.9321 5.94657 11.0791 6.1418L13.5728 9.45527L5.43692 12.2026C5.29048 12.2516 5.16692 12.3533 5.09061 12.4814L2.67987 16.495C2.58152 16.6589 2.56089 16.8578 2.62354 17.0384C2.68625 17.2189 2.82579 17.3623 3.00459 17.4298L4.99857 18.1833V28.5303C4.99857 28.8068 5.17492 29.0525 5.43692 29.141L16.7648 32.9662C16.8975 33.0112 17.0446 33.0112 17.1772 32.9662L28.5051 29.1411C28.7671 29.0526 28.9434 28.8069 28.9434 28.5304V18.1833L30.9373 17.4299C31.1161 17.3623 31.2557 17.2189 31.3184 17.0384C31.3812 16.8578 31.3605 16.6588 31.2621 16.495ZM14.5881 6.39878C14.9441 6.39878 15.2326 6.11022 15.2326 5.75425V1.28906H18.7094V5.75425C18.7094 6.11022 18.998 6.39878 19.354 6.39878H21.0562L16.971 11.8268L12.8858 6.39878H14.5881ZM16.4561 13.2862C16.5778 13.448 16.7686 13.5431 16.9711 13.5431C17.1736 13.5431 17.3643 13.448 17.486 13.2862L19.5527 10.5401L26.2843 12.8132L16.971 15.958L7.65772 12.8132L14.3893 10.5401L16.4561 13.2862ZM5.9285 13.5899L15.8359 16.9353L13.1709 19.8934L4.18247 16.4969L5.9285 13.5899ZM6.28764 18.6704L13.1272 21.2549C13.2014 21.2829 13.2785 21.2965 13.3549 21.2965C13.5341 21.2965 13.7093 21.2217 13.8339 21.0834L16.3265 18.3167V31.4575L6.28764 28.0677V18.6704ZM27.6544 28.0677L17.6156 31.4576V18.3167L20.1082 21.0834C20.2328 21.2218 20.408 21.2965 20.5872 21.2965C20.6636 21.2965 20.7407 21.2829 20.8149 21.2549L27.6545 18.6704V28.0677H27.6544ZM20.7711 19.8934L18.1061 16.9353L28.0135 13.5899L29.7595 16.4969L20.7711 19.8934Z" fill="url(#paint0_radial)"/>
<defs>
<radialGradient id="paint0_radial" cx="0" cy="0" r="1" gradientUnits="userSpaceOnUse" gradientTransform="translate(39.7174 16.5) scale(31.2429 35.7926)">
<stop stop-color="#A4ADBA"/>
<stop offset="1" stop-color="#FAFAFA"/>
</radialGradient>
</defs>
</svg>
