<svg width="36" height="35" viewBox="0 0 36 35" fill="none" xmlns="http://www.w3.org/2000/svg">
<g clip-path="url(#clip0)">
<path d="M32.9188 7.17773C32.4189 7.17773 16.484 7.17773 15.9845 7.17773C14.6877 7.17773 13.5977 8.14967 13.4491 9.43858L11.6577 24.9763C11.4832 26.4907 12.668 27.8223 14.1931 27.8223H31.1274C32.4242 27.8223 33.5142 26.8503 33.6629 25.5614L35.4542 10.0237C35.6287 8.50937 34.444 7.17773 32.9188 7.17773ZM26.4853 9.22852L25.9695 12.8989H22.1452L22.661 9.22852H26.4853ZM33.4169 9.78893L31.6255 25.3265C31.5963 25.5802 31.3821 25.7715 31.1274 25.7715H14.1931C13.8922 25.7715 13.6607 25.5086 13.695 25.2111L15.4864 9.67353C15.5156 9.41985 15.7298 9.22858 15.9845 9.22858H20.59L19.9502 13.7817C19.8636 14.3989 20.3434 14.9497 20.9656 14.9497H26.8608C27.372 14.9497 27.8051 14.5732 27.8762 14.067L28.5561 9.22852H32.9187C33.2197 9.22852 33.4512 9.49143 33.4169 9.78893Z" fill="#EDEDED"/>
<path d="M8.67315 20.857H1.49658C0.930293 20.857 0.471191 21.3161 0.471191 21.8824C0.471191 22.4486 0.930293 22.9077 1.49658 22.9077H8.67315C9.23944 22.9077 9.69855 22.4486 9.69855 21.8824C9.69855 21.3161 9.23951 20.857 8.67315 20.857Z" fill="#EDEDED"/>
<path d="M8.67312 16.482H2.65723C2.09094 16.482 1.63184 16.9411 1.63184 17.5074C1.63184 18.0736 2.09094 18.5327 2.65723 18.5327H8.67312C9.23941 18.5327 9.69851 18.0736 9.69851 17.5074C9.69851 16.9411 9.23948 16.482 8.67312 16.482Z" fill="#EDEDED"/>
<path d="M8.67306 12.1069H3.75098C3.18469 12.1069 2.72559 12.566 2.72559 13.1323C2.72559 13.6986 3.18469 14.1577 3.75098 14.1577H8.67306C9.23935 14.1577 9.69845 13.6986 9.69845 13.1323C9.69845 12.566 9.23942 12.1069 8.67306 12.1069Z" fill="#EDEDED"/>
</g>
<defs>
<clipPath id="clip0">
<rect width="35" height="35" fill="white" transform="translate(0.471191)"/>
</clipPath>
</defs>
</svg>
