<svg width="31" height="30" viewBox="0 0 31 30" fill="none" xmlns="http://www.w3.org/2000/svg">
<path fill-rule="evenodd" clip-rule="evenodd" d="M29.6639 13.047C29.6644 13.0475 29.6649 13.0481 29.6655 13.0486C30.7402 14.1254 30.7398 15.8766 29.6639 16.9528C29.1418 17.4749 28.4482 17.7621 27.7107 17.7621H27.2584V26.7677C27.2584 28.55 25.8083 30 24.0255 30H19.2373C18.7518 30 18.3583 29.6063 18.3583 29.1211V22.0605C18.3583 21.2473 17.6968 20.5859 16.8835 20.5859H14.0592C13.2459 20.5859 12.5842 21.2473 12.5842 22.0605V29.1211C12.5842 29.6063 12.1907 30 11.7052 30H6.91696C5.13447 30 3.68413 28.55 3.68413 26.7677V17.7621H3.19656C3.16795 17.7621 3.13957 17.7608 3.11118 17.758C2.41783 17.728 1.76957 17.4438 1.27857 16.9526C0.203861 15.878 0.20203 14.13 1.27331 13.0527C1.27719 13.0486 1.28154 13.0442 1.28566 13.0401L1.28567 13.0401L13.5181 0.809097C14.04 0.287247 14.7336 0 15.4714 0C16.2091 0 16.9027 0.287247 17.4244 0.809097L29.6632 13.0463C29.6635 13.0465 29.6637 13.0467 29.6639 13.047ZM27.7107 16.0043C27.9787 16.0043 28.231 15.8997 28.4207 15.71C28.8113 15.3193 28.8119 14.6837 28.4226 14.2916L28.4169 14.2861L16.1812 2.05193C15.9914 1.86218 15.7394 1.75781 15.4714 1.75781C15.2031 1.75781 14.9511 1.86218 14.7615 2.05193L2.52313 14.2886L2.52244 14.2893C2.52221 14.2896 2.52221 14.2898 2.52198 14.2898C2.13055 14.6814 2.13055 15.3184 2.52198 15.7098C2.70602 15.894 2.95164 15.9979 3.2135 16.0025C3.22747 16.0027 3.24097 16.0034 3.25471 16.0043H4.56313C5.04863 16.0043 5.44212 16.3978 5.44212 16.8832V26.7677C5.44212 27.5807 6.10389 28.2422 6.91696 28.2422H10.8262V22.0605C10.8262 20.2782 12.2765 18.828 14.0592 18.828H16.8835C18.6662 18.828 20.1163 20.2782 20.1163 22.0605V28.2422H24.0255C24.8388 28.2422 25.5004 27.5807 25.5004 26.7677V16.8832C25.5004 16.3978 25.8939 16.0043 26.3794 16.0043H27.7107Z" fill="url(#paint0_radial)"/>
<defs>
<radialGradient id="paint0_radial" cx="0" cy="0" r="1" gradientUnits="userSpaceOnUse" gradientTransform="translate(39.7174 16.5) scale(31.2429 35.7926)">
<stop stop-color="#A4ADBA"/>
<stop offset="1" stop-color="#FAFAFA"/>
</radialGradient>
</defs>
</svg>
