<?xml version="1.0" encoding="UTF-8"?>
<svg width="20px" height="20px" viewBox="0 0 20 20" version="1.1" xmlns="http://www.w3.org/2000/svg" xmlns:xlink="http://www.w3.org/1999/xlink">
    <title>77CA0CCE-65E8-4374-9A6F-1CE1BBDAD62E</title>
    <defs>
        <filter id="filter-1">
            <feColorMatrix in="SourceGraphic" type="matrix" values="0 0 0 0 0.929461 0 0 0 0 0.929461 0 0 0 0 0.929461 0 0 0 1.000000 0"></feColorMatrix>
        </filter>
        <linearGradient x1="50%" y1="0%" x2="50%" y2="100%" id="linearGradient-2">
            <stop stop-color="#FFD200" offset="0%"></stop>
            <stop stop-color="#FFBE00" offset="100%"></stop>
        </linearGradient>
    </defs>
    <g id="Page-1" stroke="none" stroke-width="1" fill="none" fill-rule="evenodd">
        <g id="linkedin" transform="translate(-1363.000000, -465.000000)" filter="url(#filter-1)">
            <g transform="translate(1363.000000, 465.000000)">
                <path d="M20,11.5397652 L20,18.8235294 L15.9646239,18.8235294 L15.9646239,12.0279109 C15.9646239,10.3216054 15.3819937,9.15635426 13.920904,9.15635426 C12.8059015,9.15635426 12.1435208,9.9408517 11.851002,10.7004694 C11.7447683,10.9719415 11.7173822,11.3489159 11.7173822,11.7296696 L11.7173822,18.8232145 L7.68170516,18.8232145 C7.68170516,18.8232145 7.73587532,7.31368284 7.68170516,6.12229232 L11.7176832,6.12229232 L11.7176832,7.92213288 C11.7095576,7.93630485 11.6981217,7.9501619 11.690899,7.963704 L11.7176832,7.963704 L11.7176832,7.92213288 C12.2539678,7.05858733 13.2103721,5.82405102 15.3546077,5.82405102 C18.0095475,5.82405102 20,7.63932329 20,11.5397652 L20,11.5397652 Z M3.46004386,0 C2.07960757,0 1.17647059,0.948262457 1.17647059,2.19413635 C1.17647059,3.41355589 2.05342532,4.38921749 3.40707748,4.38921749 L3.43325973,4.38921749 C4.8407811,4.38921749 5.71593017,3.41355589 5.71593017,2.19413635 C5.68914603,0.948262457 4.8407811,0 3.46004386,0 L3.46004386,0 Z M1.41632403,18.8235294 L5.45049637,18.8235294 L5.45049637,6.12229232 L1.41632403,6.12229232 L1.41632403,18.8235294 Z" id="Shape" fill="url(#linearGradient-2)" fill-rule="nonzero"></path>
            </g>
        </g>
    </g>
</svg>