<svg width="38" height="37" viewBox="0 0 38 37" fill="none" xmlns="http://www.w3.org/2000/svg">
<path d="M18.5611 1.54166C14.5146 1.54166 11.2225 4.83382 11.2225 8.88031C11.2225 11.3867 12.4858 13.6034 14.4089 14.9279C12.6135 15.5475 10.9678 16.5709 9.58523 17.9535C7.1876 20.3512 5.86719 23.5388 5.86719 26.9295H7.85061C7.85061 21.0237 12.6553 16.219 18.5611 16.219C22.6077 16.219 25.8998 12.9268 25.8998 8.88031C25.8998 4.83377 22.6077 1.54166 18.5611 1.54166ZM18.5611 14.2356C15.6082 14.2356 13.2059 11.8332 13.2059 8.88036C13.2059 5.92748 15.6082 3.52508 18.5611 3.52508C21.514 3.52508 23.9163 5.92743 23.9163 8.88036C23.9163 11.8333 21.514 14.2356 18.5611 14.2356Z" fill="url(#paint0_radial)"/>
<path d="M27.1394 20.7809V16.6157H25.156V20.7809H20.9907V22.7643H25.156V26.9295H27.1394V22.7643H31.3046V20.7809H27.1394Z" fill="url(#paint1_radial)"/>
<defs>
<radialGradient id="paint0_radial" cx="0" cy="0" r="1" gradientUnits="userSpaceOnUse" gradientTransform="translate(31.7239 14.2356) scale(21.7573 27.5364)">
<stop stop-color="#A4ADBA"/>
<stop offset="1" stop-color="#FAFAFA"/>
</radialGradient>
<radialGradient id="paint1_radial" cx="0" cy="0" r="1" gradientUnits="userSpaceOnUse" gradientTransform="translate(34.3031 21.7726) scale(11.2018 11.1867)">
<stop stop-color="#A4ADBA"/>
<stop offset="1" stop-color="#FAFAFA"/>
</radialGradient>
</defs>
</svg>
