<?xml version="1.0" encoding="UTF-8"?>
<svg width="18px" height="13px" viewBox="0 0 18 13" version="1.1" xmlns="http://www.w3.org/2000/svg" xmlns:xlink="http://www.w3.org/1999/xlink">
    <title>38D7E5F0-1F5F-470A-A183-8DAF184A1EC1</title>
    <g id="Page-1" stroke="none" stroke-width="1" fill="none" fill-rule="evenodd">
        <g id="About-us-2-RESUMIDO" transform="translate(-755.000000, -4014.000000)" fill="#EDEDED" fill-rule="nonzero">
            <g id="Footer-" transform="translate(0.000000, 3942.000000)">
                <g id="redes" transform="translate(668.000000, 71.000000)">
                    <g id="youtube" transform="translate(87.000000, 1.000000)">
                        <path d="M17.7490455,2.12757515 C17.6545613,1.32401496 16.9117836,0.553475328 16.13464,0.450246853 C11.3956197,-0.150082284 6.60346845,-0.150082284 1.86598623,0.450246853 C1.08818343,0.553251308 0.345405705,1.32401496 0.250921496,2.12757515 C-0.0836404986,5.07258855 -0.0836404986,7.92808351 0.250921496,10.8724248 C0.345405705,11.675985 1.08818343,12.4472415 1.86598623,12.5497531 C6.60346845,13.1500823 11.3957955,13.1500823 16.13464,12.5497531 C16.9117836,12.4474208 17.6545613,11.675985 17.7490455,10.8724248 C18.0836515,7.92835233 18.0836515,5.07258855 17.7490455,2.12757515 Z M7,10 L7,4 L12,7.00010986 L7,10 Z" id="Shape"></path>
                    </g>
                </g>
            </g>
        </g>
    </g>
</svg>