<?xml version="1.0" encoding="UTF-8"?>
<svg width="33px" height="26px" viewBox="0 0 33 26" version="1.1" xmlns="http://www.w3.org/2000/svg"  xmlns:xlink="http://www.w3.org/1999/xlink">
    <title>C24E5DBF-3D80-4D68-9672-BD3FCBAFD7BE</title>
    <g id="User" stroke="none" stroke-width="1" fill="none" fill-rule="evenodd">
        <g id="Map-user-Menu-new" transform="translate(-64.000000, -113.000000)" fill="#0b1117" fill-rule="nonzero">
            <g id="camera" transform="translate(64.000000, 113.000000)">
                <path d="M31.9020913,4.05072464 C31.243346,3.35990338 30.3336502,2.95169082 29.2984791,2.95169082 L24.0912548,2.95169082 L24.0912548,2.88888889 C24.0912548,2.10386473 23.7775665,1.35024155 23.2442966,0.847826087 C22.7110266,0.314009662 21.9895437,0 21.2053232,0 L11.7946768,0 C10.9790875,0 10.2576046,0.314009662 9.7243346,0.847826087 C9.19106464,1.38164251 8.87737643,2.10386473 8.87737643,2.88888889 L8.87737643,2.95169082 L3.70152091,2.95169082 C2.66634981,2.95169082 1.75665399,3.35990338 1.09790875,4.05072464 C0.439163498,4.71014493 0,5.65217391 0,6.65700483 L0,22.294686 C0,23.3309179 0.407794677,24.2415459 1.09790875,24.9009662 C1.75665399,25.5603865 2.69771863,26 3.70152091,26 L29.2984791,26 C30.3336502,26 31.243346,25.5917874 31.9020913,24.9009662 C32.5608365,24.2415459 33,23.2995169 33,22.294686 L33,6.65700483 C33,5.62077295 32.5922053,4.71014493 31.9020913,4.05072464 Z M31.35,22.3085468 L31.3186378,22.3085468 C31.3186378,22.8736526 31.0991024,23.3759687 30.7227561,23.7527059 C30.3464097,24.129443 29.8446146,24.3492063 29.280095,24.3492063 L3.68854277,24.3492063 C3.12402323,24.3492063 2.62222809,24.129443 2.24588173,23.7527059 C1.86953537,23.3759687 1.65,22.8736526 1.65,22.3085468 L1.65,6.67395552 C1.65,6.10884981 1.86953537,5.60653362 2.24588173,5.22979648 C2.62222809,4.85305934 3.12402323,4.63329601 3.68854277,4.63329601 L9.74144667,4.63329601 C10.2118796,4.63329601 10.588226,4.25655887 10.588226,3.78563745 L10.588226,2.87518936 C10.588226,2.52984698 10.7136748,2.21589936 10.9332101,1.99613603 C11.1527455,1.7763727 11.4663675,1.65079365 11.8113516,1.65079365 L21.1886484,1.65079365 C21.5336325,1.65079365 21.8472545,1.7763727 22.0667899,1.99613603 C22.2863252,2.21589936 22.411774,2.52984698 22.411774,2.87518936 L22.411774,3.78563745 C22.411774,4.25655887 22.7881204,4.63329601 23.2585533,4.63329601 L29.3114572,4.63329601 C29.8759768,4.63329601 30.3777719,4.85305934 30.7541183,5.22979648 C31.1304646,5.60653362 31.35,6.10884981 31.35,6.67395552 L31.35,22.3085468 Z" id="Shape"></path>
                <path d="M17,6 C14.7886179,6 12.7723577,6.91056911 11.3414634,8.34146341 C9.87804878,9.80487805 9,11.7886179 9,14 C9,16.2113821 9.91056911,18.2276423 11.3414634,19.6585366 C12.804878,21.1219512 14.7886179,22 17,22 C19.2113821,22 21.2276423,21.0894309 22.6585366,19.6585366 C24.1219512,18.195122 25,16.2113821 25,14 C25,11.7886179 24.0894309,9.77235772 22.6585366,8.34146341 C21.2276423,6.91056911 19.2113821,6 17,6 Z M21.440529,18.4736842 C20.2976084,19.5921053 18.7301743,20.3157895 16.9994659,20.3157895 C15.2687575,20.3157895 13.7013234,19.5921053 12.5584028,18.4736842 C11.4154821,17.3223684 10.7297297,15.7434211 10.7297297,14 C10.7297297,12.2565789 11.448137,10.6776316 12.5584028,9.52631579 C13.7013234,8.375 15.2687575,7.68421053 16.9994659,7.68421053 C18.7301743,7.68421053 20.2976084,8.40789474 21.440529,9.52631579 C22.5834497,10.6776316 23.2692021,12.2565789 23.2692021,14 C23.3018569,15.7434211 22.5834497,17.3223684 21.440529,18.4736842 Z" id="Shape"></path>
                <ellipse id="Oval" cx="28" cy="9" rx="2" ry="1"></ellipse>
            </g>
        </g>
    </g>
</svg>