<svg width="14" height="15" viewBox="0 0 14 15" fill="none" xmlns="http://www.w3.org/2000/svg">
<path d="M13.4532 0.414169H0.546904C0.244825 0.414169 0 0.658982 0 0.961046C0 2.48397 0.652867 3.93789 1.79122 4.94972L4.18638 7.07848C4.60169 7.44762 4.83989 7.97804 4.83989 8.53379V13.8667C4.83989 14.3025 5.32698 14.5637 5.69005 14.3216L8.91667 12.1707C9.06878 12.0693 9.16022 11.8986 9.16022 11.7157V8.53379C9.16022 7.97804 9.39842 7.44762 9.81373 7.07848L12.2088 4.94972C13.3471 3.93789 14 2.48397 14 0.961046C14 0.658982 13.7552 0.414169 13.4532 0.414169ZM11.4821 4.13218L9.08705 6.26105C8.43845 6.83762 8.06641 7.66594 8.06641 8.53368V11.423L5.93359 12.8448V8.53379C5.93359 7.66594 5.56155 6.83762 4.91295 6.26105L2.5179 4.13229C1.75031 3.44987 1.26034 2.51484 1.12916 1.50782H12.8708C12.7397 2.51484 12.2498 3.44987 11.4821 4.13218Z" fill="#FFE000"/>
</svg>
