<?xml version="1.0" encoding="UTF-8"?>
<svg width="150px" height="154px" viewBox="0 0 150 154" version="1.1" xmlns="http://www.w3.org/2000/svg" xmlns:xlink="http://www.w3.org/1999/xlink">
    <title>058327BC-8D6C-44BF-8EE1-4C6BEF0B6C73</title>
    <defs>
        <polygon id="path-1" points="7.77547205 0 5.49897177 0 3.22452795 0 0 37.1548633 5.49897177 43 11 37.1548633"></polygon>
        <polygon id="path-3" points="6.74949176 0 4.49898351 0 2.25050824 0 0 2.29880018 2.25050824 9 4.49898351 9 6.74949176 9 9 2.29880018"></polygon>
    </defs>
    <g id="Manager" stroke="none" stroke-width="1" fill="none" fill-rule="evenodd">
        <g id="Select-app" transform="translate(-133.000000, -504.000000)">
            <g id="Group-2" transform="translate(111.000000, 481.000000)">
                <g id="botsibot-rol-01" transform="translate(22.000000, 23.000000)">
                    <path d="M53.3256635,93 C39.065289,92.9991058 27.4512362,81.5664978 27.2566199,67.3382294 L27.0024564,48.9846259 C26.8068379,34.6156103 38.3196947,22.8078872 52.7197377,22.6086758 L97.3081518,22 L97.6741473,22 C111.93206,22.0030515 123.544192,33.431961 123.743191,47.6577128 L123.997354,66.0072584 C124.200685,80.3537464 112.657595,92.1803166 98.2800731,92.3832086 L53.691659,92.9918843 L53.3256635,93 Z" id="Path" fill="#FFD000" fill-rule="nonzero"></path>
                    <path d="M97.1217013,24.2236342 C110.463954,24.2268062 121.32929,34.9142126 121.512319,48.2148342 L121.763852,66.5029925 C121.85432,72.9543454 119.370053,79.1772059 114.857743,83.8021602 C110.345433,88.4271146 104.174841,91.0751705 97.7038792,91.1635921 L53.2189958,91.7824328 L52.8761802,91.7824328 C39.5331586,91.7781245 28.6684115,81.0886062 28.4875914,67.7871881 L28.2360581,49.4949851 C28.05219,36.0636801 38.8239641,25.0266239 52.2960308,24.8424749 L96.7788857,24.2357684 L97.1217013,24.2357684 M97.1217013,21.0121341 L97.1217013,21.0121341 L96.7322304,21.0121341 L52.2514039,21.6188407 C36.9934958,21.8273933 24.7939521,34.32774 25.0026379,49.5394769 L25.2541712,67.8296576 C25.461608,82.8932438 37.7674706,94.9969959 52.8782087,95 L53.2656512,95 L97.7464776,94.3932934 C105.075916,94.2931555 112.065114,91.2936848 117.175895,86.0550017 C122.286676,80.8163186 125.100201,73.7677448 124.997272,66.4605231 L124.745739,48.1683201 C124.537215,33.106313 112.232899,21.0040944 97.1237298,21 L97.1217013,21.0121341 Z" id="Shape" fill="#040B11" fill-rule="nonzero"></path>
                    <path d="M93.7692852,88.5061309 L57.9000169,88.9981505 C52.7290899,89.0692321 47.7416564,87.0889336 44.035008,83.492943 C40.3283596,79.8969523 38.2061604,74.979868 38.1353181,69.823504 L38.0018548,60.2029089 C37.9305723,55.046551 39.916466,50.0731696 43.522617,46.3769646 C47.128768,42.6807597 52.0597453,40.5645397 57.2306783,40.493897 L93.0999467,40.0018775 C98.2712214,39.9302561 103.259175,41.9103152 106.966263,45.5063638 C110.67335,49.1024125 112.795828,54.0198057 112.866668,59.1765239 L112.998109,68.7951025 C113.146552,79.5330482 104.537568,88.3579215 93.7692852,88.5061309 Z" id="Path" fill="#040B11" fill-rule="nonzero"></path>
                    <path d="M76.3862616,141.99388 C66.8763994,141.99388 59.1208233,138.570501 53.3357591,131.813511 C49.1764694,126.957945 46.135027,120.517179 44.2991462,112.670747 C43.5110164,109.284208 44.2988726,105.722886 46.4418884,102.984974 C48.5849042,100.247062 51.8524633,98.6271962 55.3287097,98.5794037 L97.3499796,98 L97.513169,98 C100.963294,98.0005414 104.230516,99.5518108 106.41197,102.225129 C108.593423,104.898446 109.458123,108.410748 108.767118,111.791441 C107.135224,119.772523 104.224333,126.345899 100.134399,131.332035 C94.4370489,138.268558 86.6365957,141.86739 76.949265,142 C76.7513979,141.99388 76.5678098,141.99388 76.3862616,141.99388 Z" id="Path" fill="#FFD000" fill-rule="nonzero"></path>
                    <path d="M96.9420688,100.241659 C99.8916745,100.242707 102.684821,101.566047 104.550391,103.846338 C106.415961,106.126629 107.156636,109.122689 106.567935,112.007381 C104.128949,123.906988 97.0152384,140.472312 76.4281607,140.754284 L75.9037786,140.754284 C55.7130362,140.754284 48.2619328,124.570331 45.5079107,112.845181 C44.8311104,109.952973 45.5041184,106.91046 47.3380612,104.571494 C49.1720041,102.232528 51.9692416,100.849175 54.9447555,100.809659 L96.814022,100.233545 L96.9522312,100.233545 M96.9522312,97 L96.7571123,97 L54.8878458,97.5882861 C50.9313332,97.6412149 47.2121009,99.4812127 44.7741322,102.591795 C42.3361634,105.702377 41.442255,109.748243 42.3433258,113.593724 C44.2315078,121.651215 47.3798327,128.286676 51.6927737,133.313479 C54.4242987,136.536492 57.8069941,139.147431 61.6194483,140.975398 C65.8470247,142.981657 70.6497954,144 75.8915837,144 L76.4606805,144 C81.7979957,143.926971 86.6576761,142.825456 90.9035449,140.727912 C94.7290134,138.821411 98.1007301,136.118859 100.791602,132.802279 C105.035439,127.639561 108.043522,120.868186 109.734552,112.672752 C110.521611,108.83435 109.537988,104.846152 107.055676,101.810982 C104.573363,98.7758117 100.855397,97.0152863 96.9298738,97.0162286 L96.9522312,97 Z" id="Shape" fill="#040B11" fill-rule="nonzero"></path>
                    <polygon id="Rectangle" fill="#040B11" fill-rule="nonzero" transform="translate(33.884924, 62.217944) rotate(-0.790000) translate(-33.884924, -62.217944) " points="24.3128104 52.6458307 43.4570377 52.6458307 43.4570377 71.7900581 24.3128104 71.7900581"></polygon>
                    <polygon id="Rectangle" fill="#040B11" fill-rule="nonzero" transform="translate(114.515045, 61.106340) rotate(-0.790000) translate(-114.515045, -61.106340) " points="104.942932 51.5342262 124.087159 51.5342262 124.087159 70.6784536 104.942932 70.6784536"></polygon>
                    <path d="M24.4220432,71.9979356 C18.2118434,71.9730571 13.1603535,66.9587894 13.0521363,60.7118084 L13.0008373,56.9401321 C12.9312124,51.550816 17.2124369,47.1226109 22.5691239,47.0433526 L25.6573228,47 L26,71.9793559 L24.5820961,72 L24.4220432,71.9979356 Z" id="Path" fill="#FFBE00" fill-rule="nonzero"></path>
                    <path d="M23.789011,48.8022065 L24.0931446,70.2377861 L23.9628016,70.2377861 C18.4723998,70.2371832 14.0010758,65.9724443 13.9263919,60.6650807 L13.8746685,57.0108114 C13.8125064,52.5562304 17.493094,48.8942054 22.100759,48.8262083 L23.7848731,48.8022065 M26.6006953,46.0020001 L23.7434944,46.0400029 L22.0573113,46.0640047 C15.8688299,46.1528635 10.922655,51.0679086 11.000916,57.0508143 L11.0526395,60.7050836 C11.1522509,67.5276431 16.9049014,73.006141 23.9628016,73 L24.1427991,73 L27,72.963987 L26.9606902,70.2017835 L26.6524187,48.7622035 L26.6131089,46 L26.6006953,46.0020001 Z" id="Shape" fill="#040B11" fill-rule="nonzero"></path>
                    <path d="M125,44.0433061 L128.085646,44 L128.223472,44 C133.533424,44.0216189 137.852496,48.2936767 137.945315,53.6160191 L137.9988,57.3836509 C138.089211,63.6956946 133.059341,68.8866591 126.762933,68.979378 L125.343535,69 L125,44.0433061 Z" id="Path" fill="#FFBE00" fill-rule="nonzero"></path>
                    <path d="M127.713566,45.7599556 C132.290826,45.7628087 136.01755,49.3072117 136.081027,53.7180607 L136.13287,57.369356 C136.20899,62.724857 131.767105,67.1264389 126.210119,67.2020725 L125.903208,45.7819393 L127.59329,45.7599556 L127.711492,45.7599556 M127.711492,43 L127.55389,43 L125.863808,43.0219837 L123,43.0599556 L123.039401,45.8219097 L123.346311,67.2400444 L123.385712,70 L126.24952,69.9620281 C129.678041,69.9172832 132.947626,68.5614897 135.338698,66.1930327 C137.729771,63.8245757 139.046375,60.6375579 138.998752,57.3333827 L138.946909,53.6820873 C138.857404,47.7635071 133.855503,43.0097346 127.713566,43.0059956 L127.711492,43 Z" id="Shape" fill="#040B11" fill-rule="nonzero"></path>
                    <path d="M15,60.4087796 C15,60.4087796 17.9288579,64.1120797 21.3588522,64.4743151 L21.1403429,48.4509651 L27,47 L26.3384581,73 C26.3384581,73 15.1604055,72.3929016 15.0782139,66.4028643 C14.9960223,60.4128269 15,60.4087796 15,60.4087796 Z" id="Path" fill="#040B11" fill-rule="nonzero" opacity="0.34"></path>
                    <path d="M126.741042,46.0220257 L128.394369,46 L128.643889,63.8027423 C128.643889,63.8027423 135.762321,63.9008566 136.529139,52.4535191 C137.295958,41.0061816 139,60.0623844 139,60.0623844 C139,60.0623844 130.944345,70.8990103 126.016825,69.9398928 C121.089304,68.9807753 126.741042,46.0220257 126.741042,46.0220257 Z" id="Path" fill="#040B11" fill-rule="nonzero" opacity="0.34"></path>
                    <path d="M84.1416545,129.747111 L66.191106,129.999333 C64.347189,130.025069 62.5687562,129.30494 61.2471303,127.997402 C59.9255045,126.689864 59.1689735,124.90205 59.144003,123.027348 L59.000802,112.429932 C58.9727853,110.553279 59.6798286,108.742305 60.9661321,107.396065 C62.2524356,106.049826 64.0124376,105.278801 65.8583149,105.252889 L83.8088634,105.000667 C85.6527804,104.974931 87.4312132,105.69506 88.7528391,107.002598 C90.0744649,108.310136 90.8309959,110.09795 90.8559664,111.972652 L90.9991674,122.572119 C91.0277212,124.448738 90.3207915,126.259812 89.0343166,127.605847 C87.7478418,128.951881 85.9875208,129.722282 84.1416545,129.747111 L84.1416545,129.747111 Z" id="Path" fill="#040B11" fill-rule="nonzero"></path>
                    <path d="M72.4234754,115.957456 L69.0991395,116 L69,109.042976 L72.2420713,109.000431 C73.667992,108.980172 74.5623565,109.675064 74.5623565,110.769063 L74.5623565,110.789323 C74.5949804,111.418203 74.2454153,112.008315 73.6658827,112.302688 C74.4779825,112.600499 74.9842265,113.060384 74.998992,113.994335 L74.998992,114.014594 C75.0369603,115.290926 73.99916,115.93517 72.4234754,115.957456 Z M73.0562804,111.046615 C73.0562804,110.590782 72.6871442,110.337541 72.0374643,110.345645 L70.5208415,110.363878 L70.541935,111.836725 L71.9594183,111.818492 C72.6365198,111.818492 73.0626085,111.583485 73.0562804,111.0689 L73.0562804,111.046615 Z M73.4781505,113.824157 C73.4781505,113.358195 73.1195609,113.072539 72.330664,113.084695 L70.5545911,113.10698 L70.577794,114.636553 L72.4044912,114.612242 C73.0815926,114.612242 73.4865879,114.359001 73.4802598,113.844416 L73.4781505,113.824157 Z" id="Shape" fill="#FFF3D4" fill-rule="nonzero"></path>
                    <polygon id="Path" fill="#FFBE00" fill-rule="nonzero" points="77.0933489 116 77 109.070626 81.8619214 109 81.8794243 110.35601 78.4294049 110.404439 78.4488526 111.81695 81.4846363 111.772557 81.5021392 113.128567 78.4663555 113.172961 78.4838584 114.627847 81.9844419 114.5774 82 115.93341"></polygon>
                    <path d="M72.3302247,126.999643 C70.3832279,127.026201 69.0218971,125.569599 69.0003508,123.565494 L69.0003508,123.547108 C68.9748871,121.622677 70.3381766,120.0292 72.234246,120.000599 C73.3605268,119.984255 74.0441303,120.302951 74.7042289,120.893355 L73.8521729,122.03739 C73.3624856,121.608377 72.9315607,121.363226 72.2087822,121.373441 C71.2059026,121.387742 70.4243616,122.356086 70.4459078,123.50625 L70.4459078,123.526679 C70.4615778,124.764688 71.2607475,125.66153 72.3674409,125.645187 C72.8300872,125.652437 73.2826819,125.504162 73.6582567,125.222302 L73.6465042,124.253958 L72.2616685,124.274387 L72.2440397,122.989391 L74.960825,122.948532 L75,125.888294 C74.2725615,126.590495 73.3213343,126.986462 72.3302247,126.999643 L72.3302247,126.999643 Z" id="Path" fill="#FFBE00" fill-rule="nonzero"></path>
                    <path d="M80.5424219,125.998437 C79.6098441,126.026124 78.7058922,125.684887 78.0391933,125.053483 C77.3724944,124.422079 77.0006585,123.555067 77.0095031,122.652549 L77.0095031,122.634624 C76.9140703,121.38227 77.5430153,120.181687 78.643466,119.515579 C79.7439168,118.849472 81.1350928,118.827267 82.2576613,119.457893 C83.3802297,120.088519 84.0497767,121.268376 83.9971059,122.523095 L83.9971059,122.543011 C84.0271872,123.448372 83.6767367,124.326884 83.0257529,124.978008 C82.3747691,125.629132 81.4788183,125.997288 80.5424219,125.998437 L80.5424219,125.998437 Z M82.4838802,122.560935 C82.4674097,121.429706 81.627415,120.499629 80.4641871,120.515562 C79.3009592,120.531494 78.5041995,121.463563 78.52067,122.594792 L78.52067,122.614708 C78.5371405,123.745937 79.3750764,124.676015 80.5403631,124.660082 C81.7056498,124.644149 82.4982918,123.71208 82.4838802,122.580851 L82.4838802,122.560935 Z" id="Shape" fill="#FFF3D4" fill-rule="nonzero"></path>
                    <path d="M79.4336718,98.1550687 C79.4336718,98.1550687 95.2837213,100.441486 96.7976042,107.884502 C98.4110579,115.757236 94.9951691,131.006096 80.3785786,134.210729 C59.3955515,138.809913 47,121.515844 47,121.515844 C47,121.515844 50.4666903,139.709886 71.4415891,141.767255 C92.416488,143.824625 99.9432294,131.565539 99.9432294,131.565539 C99.9432294,131.565539 110.394102,114.283632 107.490291,105.300122 C104.586481,96.3166111 79.4336718,98.1550687 79.4336718,98.1550687 Z" id="Path" fill="#040B11" fill-rule="nonzero" opacity="0.34"></path>
                    <path d="M68.8943619,21.6792947 C68.8943619,21.6792947 92.9227363,21.8320144 103.576617,30.4739126 C114.230498,39.1158109 110.454003,71.7469181 109.503306,78.4401131 C108.552608,85.1333081 64.2642626,92.9403387 47,91.3724165 C47,91.3724165 88.5050269,94.1417336 100.82364,92.4557082 C113.142252,90.7696828 124.152139,81.6309365 123.998409,70.1688147 C123.844679,58.7066928 123.124576,39.4395766 123.124576,39.4395766 C123.124576,39.4395766 114.628981,21.9562264 101.064348,21.2353895 C87.4997149,20.5145525 68.8943619,21.6792947 68.8943619,21.6792947 Z" id="Path" fill="#040B11" fill-rule="nonzero" opacity="0.34"></path>
                    <polygon id="Rectangle" fill="#040B11" fill-rule="nonzero" transform="translate(75.771373, 102.138882) rotate(-0.790000) translate(-75.771373, -102.138882) " points="68.5562372 97.885963 82.9865083 97.885963 82.9865083 106.391801 68.5562372 106.391801"></polygon>
                    <path d="M35.2425181,42.4772452 C34.4080544,43.6267864 32.6322996,42.7124247 33.067672,41.3581151 C33.9323698,38.6717973 35.4581887,35.661094 38.147016,33.2180654 C44.6272109,27.3284404 53.5180787,27.202741 53.5180787,27.202741 L69,27 C69,27 46.4150594,27.1135349 35.2425181,42.4772452 Z" id="Path" fill="#F9CF70" fill-rule="nonzero"></path>
                    <path d="M56,102 C56,102 50.142325,102.253797 48.3598304,106.388237 C46.5773359,110.522676 51.9967967,121 51.9967967,121 C51.9967967,121 47.0621236,109.263923 56,102 Z" id="Path" fill="#F9CF70" fill-rule="nonzero"></path>
                    <path d="M18.9518956,51 C18.9518956,51 14.7736888,52.297967 15.0096292,57 C15.0096292,57 16.0060766,54.4364676 19,53.9771283 L18.9518956,51 Z" id="Path" fill="#F9CF70" fill-rule="nonzero"></path>
                    <path d="M129.000153,50.4664716 C128.991778,49.9027561 129.328434,49.3858068 129.86263,49.1421008 C130.396826,48.8983949 131.031149,48.9723734 131.4877,49.3316261 C132.106291,49.8347212 132.665895,50.4000073 133.156751,51.0176242 C135.462648,53.8649068 132.569057,60.169604 130.111428,62 C130.111428,62 132.094628,55.5305671 129.897721,52.8602228 C129.333764,52.1743639 129.022164,51.3311928 129.010838,50.4603703 L129.000153,50.4664716 Z" id="Path" fill="#F9CF70" fill-rule="nonzero"></path>
                    <path d="M44.5602967,53.9998468 C44.0115284,54.0077382 43.5002522,53.7102666 43.2184249,53.2191167 C42.9365975,52.7279668 42.9268666,52.117462 43.1928856,51.6168141 C44.3656252,49.4361823 45.9481055,47.5246933 47.8456351,45.9967257 C52.2398984,42.4674502 59,43.033369 59,43.033369 C59,43.033369 48.8716867,45.0315769 46.4505995,52.5860787 C46.170855,53.4270497 45.4137738,53.993275 44.5602967,53.9998468 L44.5602967,53.9998468 Z" id="Path" fill="#FFF3D4" fill-rule="nonzero"></path>
                    <path d="M107.438432,75.0002062 C107.987648,74.9910367 108.499808,75.2882781 108.781874,75.7798981 C109.063941,76.2715182 109.073033,76.882777 108.805723,77.383287 C107.633887,79.563934 106.052193,81.4754906 104.155356,83.0034889 C99.7614795,86.5307778 93,85.9669054 93,85.9669054 C93,85.9669054 103.127422,83.9686572 105.548296,76.4140028 C105.828511,75.5734004 106.585222,75.0073907 107.438432,75.0002062 Z" id="Path" fill="#FFF3D4" fill-rule="nonzero"></path>
                    <path d="M126.319143,49 C126.319143,24.2217174 103.565877,4.13274958 75.4989859,4.13274958 C47.4320952,4.13274958 24.6788292,24.2196935 24.6788292,49 L20,49 C20,21.9387882 44.8482944,0 75.4989859,0 C106.149678,0 131,21.9387882 131,49 L126.319143,49 Z" id="Path" fill="#565656" fill-rule="nonzero"></path>
                    <path d="M136,42 C137.865283,42.7338806 139.604639,43.7359207 141.158946,44.9720603 C149.901714,51.956705 150.32063,64.5480575 142.093127,73.0965191 C140.639179,74.6057817 138.980655,75.9187995 137.162491,77 L136,42 Z" id="Path" fill="#00FFD2" fill-rule="nonzero"></path>
                    <path d="M137.342511,78 C136.682831,78 136.141857,77.4686878 136.120086,76.7985889 L135.000538,41.2812914 C134.988281,40.8605073 135.186163,40.4619495 135.526478,40.221986 C135.866794,39.9820224 136.303403,39.9331866 136.68692,40.0921877 C138.597052,40.8844553 140.377704,41.9669939 141.967958,43.3027677 C146.097436,46.7500892 148.629637,51.7880962 148.957567,57.2091305 C149.336801,63.0808425 147.160239,69.071465 142.982611,73.6413135 C141.509003,75.2551865 139.82758,76.6592781 137.983981,77.8154776 C137.791369,77.9368019 137.569114,78.0007327 137.342511,78 L137.342511,78 Z" id="Path" fill="#FFD000" fill-rule="nonzero"></path>
                    <path d="M135.525615,41.454973 C137.382048,42.1907133 139.113152,43.1952926 140.660085,44.4345645 C149.361375,51.4369083 149.778304,64.0601674 141.589835,72.6302908 C140.142784,74.1433779 138.492129,75.4597229 136.68259,76.5436631 L135.525615,41.454973 M135.525615,39 C134.842295,39.001349 134.188576,39.2711305 133.713111,39.7479965 C133.237647,40.2248625 132.98085,40.8682829 133.001115,41.5319441 L134.15809,76.6246853 C134.187336,77.4999818 134.694242,78.2938598 135.488365,78.70806 C136.282488,79.1222602 137.24356,79.0940531 138.010506,78.634036 C140.014291,77.4329387 141.842898,75.9756806 143.44725,74.3013737 C145.722731,71.9405587 147.483401,69.1570307 148.623413,66.1181313 C149.701862,63.2503264 150.154783,60.1959522 149.953413,57.1489736 C149.593064,51.4559758 146.81161,46.1652126 142.275681,42.5447217 C140.533187,41.1470457 138.582746,40.014048 136.490803,39.1843258 C136.186664,39.0624631 135.860852,39 135.531868,39 L135.525615,39 Z" id="Shape" fill="#040B11" fill-rule="nonzero"></path>
                    <path d="M129.740673,83.9979496 C128.001987,83.9979496 126.487916,83.4279295 125.475069,82.3945118 C124.592604,81.4882132 124.130958,80.2616507 124.200172,79.0071983 C124.510522,66.979433 124.118879,54.9440249 123.027182,42.9606055 C122.731855,40.0797487 124.867777,37.6663904 128.226602,37.104572 C128.638864,37.0354186 129.056277,37 129.474463,37 C132.325825,37 134.415992,38.732615 134.673883,41.305907 C135.809,53.7582602 136.215921,66.2647208 135.892627,78.7631969 C135.784479,81.7322223 133.27004,83.9282349 129.909135,84 L129.740673,83.9979496 Z" id="Path" fill="#FFD000" fill-rule="nonzero"></path>
                    <path d="M129.457808,38.4661316 C131.453537,38.4661316 133.075443,39.5643658 133.276422,41.6309138 C134.363841,53.9082414 134.754381,66.2383882 134.446124,78.5608153 C134.359703,80.9968247 132.299661,82.4909104 129.855748,82.5457206 L129.723101,82.5457206 C127.345512,82.5457206 125.502528,81.1856154 125.592969,78.8693765 C125.89145,66.9106835 125.512319,54.9445358 124.457433,43.0295891 C124.224297,40.6991402 126.033114,38.9695736 128.477027,38.553422 C128.809019,38.4962436 129.145143,38.4670463 129.481926,38.4661316 M129.481926,36.0077922 C129.01042,36.0084432 128.539806,36.0491873 128.075068,36.1295927 C126.413002,36.3848236 124.876616,37.1742669 123.69371,38.3808713 C122.457787,39.6792737 121.849916,41.4610885 122.031608,43.25289 C123.081782,55.0670246 123.458236,66.9323967 123.159105,78.7902062 C123.085049,80.361728 123.650742,81.8954368 124.724736,83.0349525 C125.930615,84.3016773 127.711295,85 129.723101,85 L129.924081,85 C133.837156,84.9127097 136.76945,82.2412194 136.896067,78.6440456 L136.896067,78.6318656 C137.209008,66.2152557 136.815109,53.7907414 135.716316,41.419793 C135.717278,41.4110231 135.717278,41.4021727 135.716316,41.3934029 C135.582032,39.7953822 134.797502,38.3252157 133.549755,37.3333873 C132.372955,36.4371255 130.931277,35.9679453 129.457808,36.0017022 L129.481926,36.0077922 Z" id="Shape" fill="#040B11" fill-rule="nonzero"></path>
                    <path d="M140.000229,53.0967178 C139.985886,54.7544602 140.645678,56.0543469 141.474003,55.9982506 C142.302328,55.9421543 142.985427,54.5610246 142.999771,52.9032822 C143.014114,51.2455398 142.354322,49.9456531 141.525997,50.0017494 C140.697672,50.0578457 140.014573,51.4389754 140.000229,53.0967178 Z" id="Path" fill="#F9CF70" fill-rule="nonzero"></path>
                    <path d="M146.398543,48.7235982 C146.398543,48.7235982 146.293765,65.2264137 136.876117,69.4656875 L134.299823,73.7431529 C134.299823,73.7431529 129.841643,76.4326495 128.547333,71.1963725 C127.253023,65.9600955 128.101515,38.1786811 128.101515,38.1786811 C128.101515,38.1786811 125.019824,36.6369443 124.002866,42.6109232 C122.985907,48.5849022 122.655139,57.1237524 122.655139,57.1237524 C122.655139,57.1237524 118.862605,84.6740068 129.527311,81.7372695 C129.527311,81.7372695 133.24383,83.7473566 137.106217,76.6477288 C137.118543,76.6497389 155.68676,69.2646788 146.398543,48.7235982 Z" id="Path" fill="#040B11" fill-rule="nonzero" opacity="0.34"></path>
                    <ellipse id="Oval" fill="#FFBE00" fill-rule="nonzero" cx="60" cy="64.5" rx="2" ry="7.5"></ellipse>
                    <ellipse id="Oval" fill="#FFBE00" fill-rule="nonzero" cx="90" cy="64.5" rx="2" ry="7.5"></ellipse>
                    <path d="M59.6337656,57 C59.6337656,57 61.9328029,71.7909451 57.5460605,70.5548259 C53.159318,69.3187067 59.1940241,78.2426376 62.2103098,75.4588406 C65.2265955,72.6750435 64.4709231,57.2468192 59.6337656,57 Z" id="Path" fill="#040B11" fill-rule="nonzero" opacity="0.34"></path>
                    <path d="M89.6337656,57 C89.6337656,57 91.9328029,71.7909451 87.5460605,70.5548259 C83.159318,69.3187067 89.1940241,78.2426376 92.2103098,75.4588406 C95.2265955,72.6750435 94.4709231,57.2468192 89.6337656,57 Z" id="Path" fill="#040B11" fill-rule="nonzero" opacity="0.34"></path>
                    <path d="M22.4931501,91.9917437 C18.3617917,91.9917437 15,88.3218164 15,83.809746 L15,69 L19.4553866,69 L19.4553866,83.8180023 C19.4553866,85.7107601 20.8163046,87.252625 22.4931501,87.252625 L66,87.252625 L66,92 L22.4931501,91.9917437 Z" id="Path" fill="#FFD000" fill-rule="nonzero"></path>
                    <path d="M18.4573196,70.0587993 L18.4573196,83.8095199 C18.4573196,86.2656675 20.2791124,88.2647616 22.505748,88.2647616 L64.9757858,88.2647616 L64.9757858,90.9412007 L22.5016996,90.9412007 C18.9309858,90.9412007 16.0242142,87.7418266 16.0242142,83.8095199 L16.0242142,70.0587993 L18.4532712,70.0587993 M20.4774854,68 L14,68 L14,83.8095199 C14,88.876225 17.8136195,93 22.5016996,93 L67,93 L67,86.1977271 L22.5016996,86.1977271 C21.3863576,86.1977271 20.4774854,85.1230338 20.4774854,83.8012847 L20.4774854,68 Z" id="Shape" fill="#040B11" fill-rule="nonzero"></path>
                    <path d="M14,42 C12.1351572,42.7338948 10.3962999,43.7359426 8.84257236,44.9720603 C0.0967314186,51.956705 -0.32013621,64.5480575 7.90828612,73.0965191 C9.36186922,74.6063233 11.0206583,75.9194048 12.839474,77 L14,42 Z" id="Path" fill="#00FFD2" fill-rule="nonzero"></path>
                    <path d="M12.6608633,78 C12.4337745,77.9994018 12.2111877,77.9355863 12.0172776,77.8154843 C10.1735178,76.6582578 8.49130171,75.2542871 7.01586988,73.6413297 C2.84164135,69.0714915 0.664747876,63.0808827 1.04202228,57.2091839 C1.36945407,51.7874337 3.90209156,46.7485927 8.032695,43.3008025 C9.62332344,41.9657553 11.4042401,40.8839146 13.3145366,40.09228 C13.697851,39.9332977 14.1342606,39.9818872 14.474605,40.2214409 C14.8166509,40.4600597 15.0146093,40.8600654 14.9991576,41.281381 L13.881457,76.7985979 C13.8661114,77.466731 13.3286181,78 12.6709509,78 L12.6608633,78 Z" id="Path" fill="#FFD000" fill-rule="nonzero"></path>
                    <path d="M14.4777596,41.450673 L13.3219935,76.5539305 C11.5111724,75.4697947 9.85928287,74.1533719 8.41103078,72.640289 C0.216357207,64.0675505 0.631515059,51.445449 9.34148506,44.4426236 C10.8882752,43.2019847 12.620104,42.1965857 14.4777596,41.4608015 M14.4777596,39.00566 L14.4005694,39.00566 C14.077146,39.0140437 13.7584107,39.0828188 13.4617703,39.2082294 C11.38894,40.0350724 9.45626387,41.160489 7.72883672,42.5465737 C3.18835468,46.1673132 0.404595538,51.4595488 0.0452871379,57.1538557 C-0.153190952,60.1987777 0.302192689,63.2505227 1.38255439,66.1155275 C2.5233862,69.1552585 4.28537958,71.939649 6.56263954,74.3013584 C8.16292997,75.974785 9.98726997,77.4321118 11.9868125,78.6343186 C12.7546601,79.0940728 13.7165059,79.1221677 14.5114266,78.708061 C15.3063473,78.2939542 15.8141299,77.5002697 15.8442339,76.6248298 L17,41.5803175 C17,41.5377779 17,41.497264 17,41.4547244 C17,40.1085604 15.8828647,39.0138363 14.4965356,39.0016086 C14.4876302,38.9994638 14.4783201,38.9994638 14.4694147,39.0016086 L14.4777596,39.00566 Z" id="Shape" fill="#040B11" fill-rule="nonzero"></path>
                    <path d="M20.2569161,84 L20.0925721,84 C16.7328813,83.9282411 14.2157137,81.7324202 14.1075378,78.7800558 C13.7840929,66.2820288 14.1904234,53.7760124 15.3245156,41.3239836 C15.5866339,38.7324638 17.6794196,37 20.5252753,37 C20.9435634,37.0005633 21.3610739,37.0355391 21.7734576,37.1045629 C25.1269074,37.6663322 27.2612992,40.07948 26.9742172,42.972387 C25.879626,54.9525599 25.4844103,66.9848228 25.7905243,79.0096842 C25.8626983,80.2614825 25.402933,81.4864025 24.521539,82.3905514 C23.5105113,83.4300297 21.9960501,84 20.2569161,84 Z" id="Path" fill="#FFD000" fill-rule="nonzero"></path>
                    <path d="M20.5289606,38.4594522 C20.865791,38.4607366 21.201949,38.4899266 21.5340508,38.5467284 C23.9663692,38.9648424 25.7755316,40.6920995 25.5443609,43.0221714 C24.4886255,54.9351531 24.1087508,66.8993636 24.4065987,78.8561606 C24.4890161,81.1720247 22.6557315,82.5319099 20.2756778,82.5319099 L20.1389855,82.5319099 C17.6925959,82.4771086 15.6301507,80.9792052 15.5457231,78.5476493 C15.2390909,66.2271805 15.6303745,53.899087 16.7176584,41.6237223 C16.9186764,39.5575087 18.5368717,38.4594522 20.5370013,38.4594522 M20.5370013,36.0015105 L20.5370013,36.0015105 C19.0697842,35.9698795 17.6344217,36.4358234 16.4603553,37.3248614 C15.2123699,38.3165294 14.4276899,39.786458 14.2933807,41.3842202 C14.2933807,41.3842202 14.2933807,41.4024873 14.2933807,41.410606 C13.1902771,53.7799928 12.7922749,66.2031774 13.1013437,78.6186881 L13.1013437,78.6450739 C13.227985,82.2416657 16.1608384,84.9127238 20.0746598,85 L20.2756778,85 C22.2858583,85 24.0628578,84.30382 25.2749967,83.0352704 C26.3491962,81.8959391 26.9149972,80.3624783 26.8409273,78.7912108 C26.5417388,66.9353197 26.9182645,55.0718672 27.9686385,43.2596439 C28.1495311,41.4682296 27.541662,39.6870481 26.3062193,38.3884134 C25.1275969,37.184732 23.5968984,36.3955925 21.9401073,36.137499 C21.47532,36.056799 21.0045899,36.0160594 20.5329809,36.0157182 L20.5370013,36.0015105 Z" id="Shape" fill="#040B11" fill-rule="nonzero"></path>
                    <path d="M9.99977064,53.0967178 C10.0141054,54.7544602 9.35470787,56.0543469 8.52687731,55.9982506 C7.69904675,55.9421543 7.01456348,54.5610246 7.00022875,52.9032822 C6.98589402,51.2455398 7.64708336,49.9456531 8.47491392,50.0017494 C9.30274448,50.0578457 9.98543591,51.4389754 9.99977064,53.0967178 Z" id="Path" fill="#F9CF70" fill-rule="nonzero"></path>
                    <path d="M3.60009104,48.7191115 C3.60009104,48.7191115 3.70484795,65.2191987 13.1206451,69.458288 L15.7025947,73.7415972 C15.7025947,73.7415972 20.1598983,76.4309768 21.4539542,71.1949277 C22.74801,65.9588786 21.8996845,38.1786733 21.8996845,38.1786733 C21.8996845,38.1786733 24.9910403,36.6370036 25.9975282,42.6107226 C27.0040161,48.5844415 27.3449895,57.1229201 27.3449895,57.1229201 C27.3449895,57.1229201 31.1367787,84.6719754 20.474169,81.7373759 C20.474169,81.7373759 16.7583799,83.7473755 12.8988069,76.6460467 C12.8864826,76.6581067 -5.68630049,69.265328 3.60009104,48.7191115 Z" id="Path" fill="#040B11" fill-rule="nonzero" opacity="0.34"></path>
                    <path d="M58.5,96 C53.2608178,96 49,92.8578503 49,89 C49,85.1421497 53.2608178,82 58.5,82 C63.7391822,82 68,85.1401107 68,89 C68,92.8598893 63.7391822,96 58.5,96 Z" id="Path" fill="#FFD000" fill-rule="nonzero"></path>
                    <path d="M58.5,83.2093899 C63.0658353,83.2093899 66.7668213,85.8004017 66.7668213,89 C66.7668213,92.1995983 63.0658353,94.7906101 58.5,94.7906101 C53.9341647,94.7906101 50.2331787,92.1975898 50.2331787,89 C50.2331787,85.8024102 53.9341647,83.2093899 58.5,83.2093899 M58.5,81 C55.8343968,81 53.2987239,81.745167 51.3639791,83.1009289 C49.2262181,84.599297 48,86.7484308 48,89 C48,91.2515692 49.2180974,93.3986945 51.3639791,94.8970625 C53.2987239,96.2528245 55.8303364,97 58.5,97 C61.1696636,97 63.7012761,96.2528245 65.6360209,94.8970625 C67.7737819,93.3986945 69,91.2495606 69,89 C69,86.7504394 67.7819026,84.599297 65.6360209,83.1009289 C63.7012761,81.745167 61.1696636,81 58.5,81 Z" id="Shape" fill="#040B11" fill-rule="nonzero"></path>
                    <path d="M17.2133399,83.2414761 C17.2133399,83.2414761 17.807901,88.1366634 21.0107936,89.2602778 C24.2136862,90.3838922 49.2198682,89.2602778 49.2198682,89.2602778 C49.2198682,89.2602778 52.1845291,92.1086011 59.178767,91.74323 C66.1730048,91.3778588 66.1668963,84.5025958 63.2735013,83.5695243 C63.2735013,83.5695243 68.4311154,84.7481409 67.9709414,89.6236846 C67.5107673,94.4992283 58.7145206,96 58.7145206,96 L49.9895398,92.9493476 L41.1607144,91.411253 L21.4241358,91.3248211 C21.4241358,91.3248211 17.3864142,90.9849867 16.0466155,87.8577241 C15.2415376,86.0075813 14.8930145,84.002293 15.0285314,82 L17.2133399,83.2414761 Z" id="Path" fill="#040B11" fill-rule="nonzero" opacity="0.34"></path>
                    <path d="M100.186705,83 C92.4534715,83 87.9071443,81.9164496 84.9909013,79.372372 C81.9729052,76.7417752 80.9777602,72.9514087 80.3814872,70.6874886 C80.2675238,70.2507725 80.1779811,69.8634959 80.0721579,69.5627386 C79.5674626,67.9497728 79.1767309,66.4192063 78.8307704,65.0678582 C78.4034075,63.4054529 78.0370965,61.9778855 77.6097336,61.0055741 C77.1721954,59.992063 76.5535367,59.3575886 75.9959299,59.3575886 C75.4383231,59.3575886 74.8176293,59.9755832 74.3800911,61.0055741 C73.9730788,61.9675856 73.5965925,63.4054529 73.1712646,65.0678582 C72.8232691,66.4192063 72.4325374,67.9518328 71.9278421,69.5627386 C71.8321942,69.8717358 71.724336,70.2507725 71.6185128,70.6874886 C71.0222398,72.9534686 70.0270948,76.7417752 67.0090987,79.372372 C64.0948908,81.9164496 59.5505987,83 51.8132952,83 C44.5583013,83 40.8239636,82.5035444 38.4999235,81.2304756 C36.0171486,79.8729476 35.3435432,77.6976068 34.4888174,74.9434111 L34.3036268,74.3439564 C33.6381618,72.2180551 33.0683446,69.8264162 32.5168429,67.5151166 C31.7720105,64.3880642 30.7524447,60.0991821 29.9506305,59.5120872 C28.078374,58.1215995 27.414944,57.5283248 27.083229,55.2994244 C26.6029545,52.0508331 28.2228634,51.1403211 31.3833137,50.5964859 C33.214869,50.2792487 42.7125006,49 52.1307648,49 C57.5114671,49 61.8441129,49.4264162 65.0065983,50.2689488 C67.3469189,50.8869434 69.1377729,51.4081188 70.5765614,51.8221751 C73.3299994,52.6173281 74.7138412,53.0149046 75.9959299,53.0149046 C77.2780186,53.0149046 78.6598253,52.6173281 81.4132633,51.8221751 C82.8520518,51.4101787 84.6429058,50.8910633 86.9832264,50.2689488 C90.1457118,49.4264162 94.4783576,49 99.8590599,49 C109.277324,49 118.76478,50.2792487 120.616686,50.5964859 C123.777137,51.1403211 125.397046,52.0508331 124.916771,55.2994244 C124.585056,57.5283248 123.921626,58.1215995 122.051405,59.5120872 C121.247555,60.107422 120.219849,64.3880642 119.483157,67.5151166 C118.931655,69.8264162 118.361838,72.2180551 117.696373,74.3439564 L117.511183,74.9434111 C116.658492,77.6976068 115.984887,79.8729476 113.500077,81.2304756 C111.174001,82.5035444 107.441699,83 100.186705,83 Z M99.032825,53.5422599 C95.9207271,53.5487925 92.8195482,53.9150963 89.7895761,54.6340503 C86.7837904,55.3612239 85.1089349,56.2243563 84.5269073,56.7887913 C83.7373035,57.5674644 83.2794146,59.425568 83.273232,61.8851863 C83.257029,68.2896698 85.811031,74.2965768 88.2225788,76.6943956 C89.8506279,78.3114814 94.757161,79.2384732 101.694685,79.2384732 C102.207521,79.2384732 102.734602,79.2384732 103.255577,79.2219933 C106.629709,79.151954 108.864207,78.8388367 111.005091,77.3824296 C112.539528,76.3380188 113.040153,74.609694 113.740214,72.2180551 C113.825686,71.9214178 113.915229,71.6186004 114.006807,71.3075432 C117.456236,59.7860648 112.543598,55.8144199 112.244444,55.5857619 C109.336341,53.5649197 104.132689,53.5607998 99.097947,53.5546198 L99.032825,53.5422599 Z M39.7657317,55.5795819 C39.4686127,55.8082399 34.5559745,59.7798849 38.0033685,71.3013632 C38.0949462,71.6124205 38.184489,71.9193578 38.2699615,72.2118752 C38.9679876,74.6035141 39.4706478,76.3318388 41.0050841,77.3762496 C43.1459687,78.8326568 45.3804661,79.145774 48.7545979,79.2158134 C49.2755736,79.2158134 49.8026545,79.2322932 50.3175251,79.2322932 C57.2530143,79.2322932 62.1636175,78.3053014 63.7875965,76.6882157 C66.1991443,74.2903968 68.7531463,68.2834899 68.7369433,61.8790064 C68.7369433,59.4193881 68.2728718,57.5530445 67.483268,56.7826113 C66.1116366,55.4333232 59.9311551,53.5484399 52.9793854,53.5484399 L52.9122283,53.5484399 C47.8795215,53.5546198 42.6738344,53.5587398 39.7657317,55.5795819 Z" id="Shape" fill="#4D6277" fill-rule="nonzero"></path>
                    <path d="M99.8629775,50.0509714 C108.977445,50.0509714 118.423534,51.2852571 120.435634,51.6308571 C123.467008,52.1513143 124.24011,52.8466286 123.894249,55.1609143 C123.615525,57.0349714 123.151664,57.4237714 121.434563,58.6889143 C119.717463,59.9540571 118.551706,68.1785143 116.720674,74.0208 C114.889643,79.8630857 114.773677,81.9469714 100.184425,81.9469714 C92.5246101,81.9469714 88.2888239,80.8669714 85.658242,78.5753143 C82.3379715,75.6788571 81.6706622,71.2621714 81.0399736,69.2544 C79.9149065,65.6502857 79.3533901,62.4555429 78.5518052,60.6041143 C77.9007718,59.1003429 76.9527044,58.3412571 76.0066714,58.3412571 C75.0606385,58.3412571 74.1105366,59.0921143 73.4595031,60.6041143 C72.6579182,62.4555429 72.0964019,65.6502857 70.9713348,69.2544 C70.3426806,71.2683429 69.6814748,75.6850286 66.3571354,78.5814857 C63.7265534,80.8731429 59.4907672,81.9531429 51.830952,81.9531429 C37.2416998,81.9531429 37.1257345,79.8713143 35.294703,74.0269714 C33.4636715,68.1826286 32.2918113,59.9684571 30.5747107,58.6950857 C28.85761,57.4217143 28.3937487,57.0493714 28.115025,55.1670857 C27.771198,52.8528 28.5443002,52.1574857 31.5736401,51.6370286 C33.5857403,51.2914286 43.0318284,50.0571429 52.1462963,50.0571429 C56.7747371,50.0571429 61.3197642,50.376 64.760069,51.2914286 C71.7261266,53.1428571 73.8643645,54.0685714 76.0046369,54.0685714 C78.1449093,54.0685714 80.2770438,53.1428571 87.2471704,51.2914286 C90.6895097,50.3780571 95.2304678,50.0571429 99.860943,50.0571429 M101.691975,80.2477714 C102.229077,80.2477714 102.758042,80.2477714 103.272765,80.2313143 C106.527932,80.1634286 109.127997,79.8774857 111.567338,78.2194286 C113.622162,76.8205714 114.100265,74.5165714 114.975091,71.5974857 C118.740912,59.0262857 112.828715,54.7618286 112.828715,54.7618286 C109.658996,52.5483429 104.371384,52.5483429 99.0654616,52.5421714 L99.020703,52.5421714 C92.2560588,52.5421714 85.5931386,54.3154286 83.8089001,56.064 C80.6351122,59.1867429 82.5231091,72.4656 87.4994459,77.4109714 C89.7373733,79.6347429 96.1378456,80.2477714 101.681802,80.2477714 M50.3172993,80.2477714 C55.8612558,80.2477714 62.2617282,79.6306286 64.4996556,77.4109714 C69.4759924,72.4738286 71.3660238,59.1867429 68.1902013,56.064 C66.4141008,54.3154286 59.7450771,52.5421714 52.9804329,52.5421714 L52.9458468,52.5421714 C47.6378899,52.5421714 42.3502778,52.5421714 39.1805588,54.7618286 C39.1805588,54.7618286 33.2683615,59.0262857 37.0341829,71.5974857 C37.9110436,74.5206857 38.3871118,76.8205714 40.441936,78.2194286 C42.8833114,79.8774857 45.4711692,80.1634286 48.7365088,80.2313143 C49.2512321,80.2313143 49.7801967,80.2477714 50.3172993,80.2477714 M99.8568741,48 C94.3902278,48 89.9733729,48.4381714 86.7263437,49.3001143 C84.3765199,49.9172571 82.5800745,50.4418286 81.1376286,50.8594286 C78.474495,51.6246857 77.1398765,52.0093714 76.000568,52.0093714 C74.8612595,52.0093714 73.5246065,51.6246857 70.8614729,50.8594286 C69.4190269,50.448 67.6225816,49.9254857 65.2727578,49.3001143 C62.0175907,48.4381714 57.6088737,48 52.1422274,48 C42.6554497,48 33.0893273,49.2898286 31.229813,49.6086857 C29.4720228,49.9110857 28.1048526,50.3081143 27.1445783,51.2544 C25.8384425,52.5565714 25.9238906,54.2784 26.0968214,55.4612571 C26.485407,58.0779429 27.4151641,58.8946286 29.3051955,60.2996571 C29.3926781,60.4169143 29.7263327,60.9394286 30.2512284,62.688 C30.6764346,64.1053714 31.0996064,65.8745143 31.5451574,67.7485714 C32.1005703,70.0752 32.6742935,72.48 33.3497406,74.6379429 C33.4128095,74.8436571 33.4758784,75.0493714 33.5348783,75.2345143 C34.4198768,78.0898286 35.1848411,80.5542857 38.0310779,82.1094857 C40.5192462,83.4692571 44.3867917,84 51.8248486,84 C59.8244218,84 64.5647589,82.8418286 67.679547,80.1284571 C70.9347141,77.2937143 71.982471,73.3172571 72.6070562,70.9412571 C72.7189526,70.5154286 72.8105042,70.1492571 72.9040902,69.8633143 C73.4147446,68.2176 73.8114681,66.6829714 74.1613985,65.3211429 C74.5682944,63.7042286 74.9345007,62.3053714 75.3169829,61.4125714 C75.5936721,60.7769143 75.8703613,60.4971429 76.000568,60.4107429 C76.1287402,60.4971429 76.4074639,60.7769143 76.6821186,61.4125714 C77.0666352,62.3012571 77.4247036,63.6980571 77.8397374,65.3211429 C78.1876334,66.6829714 78.5843569,68.2258286 79.0950112,69.8633143 C79.1845283,70.1492571 79.2801489,70.5154286 79.3920452,70.9412571 C80.0186649,73.3172571 81.0643873,77.2937143 84.3195545,80.1284571 C87.4343425,82.8418286 92.1746797,84 100.174253,84 C107.61231,84 111.479855,83.4692571 113.968024,82.1094857 C116.816295,80.5542857 117.579225,78.0898286 118.464223,75.2345143 C118.523223,75.0411429 118.586292,74.8416 118.649361,74.6379429 C119.324808,72.48 119.898531,70.0752 120.453944,67.7485714 C120.899495,65.8745143 121.322667,64.1053714 121.747873,62.688 C122.272769,60.9394286 122.606423,60.4251429 122.693906,60.2996571 C124.583937,58.8946286 125.513695,58.0779429 125.90228,55.4612571 C126.077245,54.2784 126.160659,52.5565714 124.854523,51.2544 C123.896283,50.2978286 122.527079,49.9008 120.769288,49.6086857 C118.909774,49.2898286 109.343652,48 99.8568741,48 L99.8568741,48 Z M101.687906,78.1906286 C93.9568837,78.1906286 90.0242349,77.0304 88.9317194,75.9442286 C86.6388611,73.6649143 84.2747959,67.7856 84.2889733,61.8918857 C84.2889733,59.3574857 84.8017261,57.9627429 85.2350702,57.5369143 C86.2767237,56.5083429 91.9325766,54.5993143 99.0268065,54.5993143 L99.0898753,54.5993143 C103.950247,54.5993143 108.977445,54.5993143 111.630407,56.4281143 C111.780958,56.5515429 112.80837,57.4566857 113.518404,59.4994286 C114.553954,62.4843429 114.383057,66.4628571 113.024025,71.0009143 C112.930439,71.3136 112.840922,71.6180571 112.753439,71.9184 C112.033234,74.3869714 111.601924,75.7117714 110.428029,76.512 C108.497308,77.8244571 106.407898,78.1083429 103.228007,78.1741714 C102.713283,78.1741714 102.194491,78.1906286 101.687906,78.1906286 L101.687906,78.1906286 Z M40.3809016,56.4219429 C43.0257249,54.6034286 48.0610616,54.5993143 52.921433,54.5931429 L52.9865364,54.5931429 C60.0787317,54.5931429 65.7345846,56.5062857 66.7762381,57.5307429 C67.2095822,57.9565714 67.7161676,59.3513143 67.7223156,61.8857143 C67.7324435,66.5142857 65.999067,73.0354286 63.0795889,75.9380571 C61.9870735,77.0242286 58.0625626,78.1844571 50.3234028,78.1844571 C49.8168174,78.1844571 49.306163,78.1844571 48.7833018,78.168 C45.6034104,78.1021714 43.514,77.8182857 41.583279,76.5058286 C40.4093844,75.7056 39.9780747,74.3808 39.257869,71.9122286 C39.1703864,71.6139429 39.0808693,71.3074286 38.9872832,70.9947429 C37.6282509,66.4566857 37.4573547,62.4781714 38.4929047,59.4932571 C39.202938,57.4464 40.2303502,56.5453714 40.3809016,56.4219429 L40.3809016,56.4219429 Z M40.3402121,56.4507429 L40.3788672,56.424 L40.3402121,56.4507429 Z" id="Shape" fill="#040B11" fill-rule="nonzero"></path>
                    <path d="M27,54 C27,54 31.6129643,55.4498036 32.612236,56.875544 C33.6115076,58.3012844 32.5102695,79.2281862 43.6817189,79.8758854 C54.8531682,80.5235847 65.2843409,80.9446894 68.8817189,74.4376181 C72.4790969,67.9305468 76.1743627,73.0459671 76.1743627,73.0459671 L82.0211216,73.0459671 C82.0211216,73.0459671 84.5315368,79.56507 94.7771304,80.4253269 C105.022724,81.2855838 111.752513,81.2153997 114.780918,75.2116488 C117.809323,69.207898 117.228114,59.2838622 119.483613,57.3808697 C121.739111,55.4778772 125,54.6557203 125,54.6557203 L119.628405,69.9237761 C119.628405,69.9237761 118.404807,82.7373926 108.014421,82.5930138 C97.624035,82.4486351 73.3784414,80.9747684 73.3784414,80.9747684 L48.1662054,82.9278924 C48.1662054,82.9278924 36.7704297,84.285454 34.3599417,75.2196698 C31.9494538,66.1538857 27.6709395,60.958255 27.6709395,60.958255 L27,54 Z" id="Path" fill="#040B11" fill-rule="nonzero" opacity="0.34"></path>
                    <polygon id="Path" fill="#FFBE00" fill-rule="nonzero" points="72.6474861 110 70 102.709575 72.8682852 100 78.1317148 100 81 102.709575 78.3525139 110"></polygon>
                    <path d="M77.2015247,100.466224 L79.4030494,102.784954 L77.2015247,109.544249 L72.800464,109.544249 L70.5989393,102.784954 L72.800464,100.466224 L77.2015247,100.466224 M77.7782565,99 L72.2237322,99 L71.8160424,99.4189213 L69.6145177,101.737651 L69,102.384884 L69.2823997,103.249956 L71.4839244,110.009251 L71.8060988,111 L78.19589,111 L78.5180643,110.009251 L80.719589,103.249956 L81,102.384884 L80.387471,101.737651 L78.1859463,99.4189213 L77.7782565,99 Z" id="Shape" fill="#040B11" fill-rule="nonzero"></path>
                    <polygon id="Path" fill="#FFBE00" fill-rule="nonzero" points="69 146.474781 72.1793183 109 77.8206817 109 81 146.474781 74.999012 153"></polygon>
                    <path d="M77.2852729,109.415385 L80.5149331,146.148659 L75.0051493,151.927473 L69.4974253,146.148659 L72.7270855,109.415385 L77.2852729,109.415385 M78.607621,108 L71.3985582,108 L71.2832132,109.294066 L68.0556128,146.025319 L68,146.654154 L68.438723,147.115165 L73.946447,152.896 L74.9989701,154 L76.053553,152.896 L81.561277,147.115165 L82,146.654154 L81.9443872,146.025319 L78.7209063,109.294066 L78.607621,108 L78.607621,108 Z" id="Shape" fill="#040B11" fill-rule="nonzero"></path>
                    <polygon id="Path" fill="#FFBE00" fill-rule="nonzero" points="77.7754721 110 75.4989718 110 73.2245279 110 70 147.154863 75.4989718 153 81 147.154863"></polygon>
                    <g id="Clipped" transform="translate(70.000000, 110.000000)">
                        <mask id="mask-2" fill="white">
                            <use xlink:href="#path-1"></use>
                        </mask>
                        <g id="Path"></g>
                        <g id="Group" mask="url(#mask-2)" fill-rule="nonzero">
                            <g transform="translate(-26.357637, -8.360713)">
                                <polygon id="Rectangle" fill="#FFBE00" transform="translate(43.199047, 11.416317) rotate(-63.580000) translate(-43.199047, -11.416317) " points="42.3711567 -11.8566981 43.9251458 -11.8532881 44.0269381 34.6893324 42.472949 34.6859224"></polygon>
                                <path d="M22.8225837,0.82216409 L63.9990652,21.1574316 L63.5877734,22.0000476 L22.403066,1.66478002 L22.8143578,0.82216409 M22.5367358,0.00409036861 L22.2796784,0.550154578 L21.8683866,1.39072533 L21.574313,1.93269917 L22.1275005,2.20470868 L63.3039821,22.5502021 L63.8551131,22.8222117 L64.1306786,22.2720571 L64.5419705,21.4314863 L64.817536,20.8813317 L64.2643485,20.6093222 L23.1022621,0.274054697 L22.5511311,0 L22.5367358,0.00409036861 Z" id="Shape" fill="#040B11"></path>
                                <polygon id="Rectangle" fill="#FFBE00" transform="translate(42.219133, 13.380370) rotate(-63.580000) translate(-42.219133, -13.380370) " points="41.3912418 -9.89264553 42.9452309 -9.88923553 43.0470233 36.653385 41.4930342 36.649975"></polygon>
                                <path d="M21.8416526,2.78554102 L63.0181342,23.1289893 L62.5965601,23.9716052 L21.422135,3.62815696 L21.8334268,2.78554102 M21.5558048,1.9674673 L21.2802393,2.51762188 L20.8689475,3.35819263 L20.5954384,3.90834721 L21.1465695,4.18035672 L62.323051,24.5258502 L62.8741821,24.7978597 L63.1497476,24.2477051 L63.5610394,23.4071344 L63.836605,22.8569798 L63.2916433,22.5890606 L22.1172182,2.23743163 L21.5640307,1.96337693 L21.5558048,1.9674673 Z" id="Shape" fill="#040B11"></path>
                                <polygon id="Rectangle" fill="#FFBE00" transform="translate(41.238076, 15.340546) rotate(-63.580000) translate(-41.238076, -15.340546) " points="40.4101855 -7.93246973 41.9641747 -7.92905973 42.065967 38.6135608 40.5119779 38.6101508"></polygon>
                                <path d="M20.8607216,4.74891795 L62.0372032,25.0923662 L61.6156291,25.9349822 L20.441204,5.59153389 L20.8524958,4.74891795 M20.5748738,3.93084423 L20.2993083,4.48099881 L19.8880165,5.32156956 L19.6062815,5.86763377 L20.1574126,6.13964328 L61.3524023,26.4851367 L61.9055898,26.7571463 L62.1790989,26.2069917 L62.5903907,25.3664209 L62.8659563,24.8162663 L62.3127687,24.5442568 L21.1362872,4.20080856 L20.5830996,3.92675386 L20.5748738,3.93084423 Z" id="Shape" fill="#040B11"></path>
                                <polygon id="Rectangle" fill="#FFBE00" transform="translate(40.258161, 17.304598) rotate(-63.580000) translate(-40.258161, -17.304598) " points="39.4302707 -5.96841717 40.9842598 -5.96500717 41.0860521 40.5776134 39.532063 40.5742034"></polygon>
                                <path d="M19.8797906,6.71229489 L61.0562722,27.0557432 L60.6449804,27.8983591 L19.4602729,7.55491082 L19.8715648,6.71229489 M19.5939428,5.89422117 L19.3286596,6.43210464 L18.9173677,7.27267539 L18.6438587,7.82282996 L19.1949897,8.09483948 L60.3714713,28.4403329 L60.9246588,28.7123424 L61.1981679,28.1621879 L61.6094597,27.3216171 L61.8850252,26.7714625 L61.3318377,26.499453 L20.1553561,6.16418549 L19.6062815,5.8901308 L19.5939428,5.89422117 Z" id="Shape" fill="#040B11"></path>
                                <polygon id="Rectangle" fill="#FFBE00" transform="translate(39.276190, 19.268651) rotate(-63.580000) translate(-39.276190, -19.268651) " points="38.4482994 -4.00436461 40.0022885 -4.0009546 40.1040808 42.5416659 38.5500917 42.5382559"></polygon>
                                <path d="M18.8988596,8.68180737 L60.0753412,29.0252556 L59.6640494,29.8678716 L18.4793419,9.51828775 L18.8906338,8.67567182 M18.6130118,7.8575981 L18.3395027,8.40775268 L17.9282109,9.24832342 L17.6547018,9.798478 L18.2058329,10.0704875 L59.3823145,30.4139358 L59.935502,30.6879905 L60.209011,30.1378359 L60.6305852,29.2972652 L60.9040942,28.7471106 L60.3509067,28.4751011 L19.1744251,8.12756243 L18.6212376,7.86373365 L18.6130118,7.8575981 Z" id="Shape" fill="#040B11"></path>
                                <polygon id="Rectangle" fill="#FFBE00" transform="translate(38.296275, 21.232703) rotate(-63.580000) translate(-38.296275, -21.232703) " points="37.4683845 -2.04031204 39.0223736 -2.03690204 39.124166 44.5057185 37.5701769 44.5023085"></polygon>
                                <path d="M17.9179286,10.6390488 L59.0902973,30.9743163 L58.6790054,31.8169322 L17.4984109,11.4816647 L17.9097027,10.6390488 M17.6320808,9.82097503 L17.3585717,10.3711296 L16.9369976,11.2117004 L16.6717143,11.7495838 L17.2249019,12.0215933 L58.399327,32.3650416 L58.9525145,32.6390963 L59.2260236,32.0889417 L59.6475977,31.248371 L59.9211067,30.6982164 L59.3679192,30.4262069 L18.1934941,10.0909394 L17.6403066,9.81688466 L17.6320808,9.82097503 Z" id="Shape" fill="#040B11"></path>
                                <polygon id="Rectangle" fill="#FFBE00" transform="translate(37.316360, 23.194711) rotate(-63.580000) translate(-37.316360, -23.194711) " points="36.4884697 -0.0783046644 38.0424588 -0.0748946635 38.1442511 46.4677259 36.590262 46.4643159"></polygon>
                                <path d="M16.9328847,12.6024257 L58.1073098,32.945874 L57.6960179,33.7884899 L16.5215928,13.4450416 L16.9328847,12.6024257 M16.6532062,11.784352 L16.3796971,12.3345065 L15.9642924,13.1812128 L15.6990092,13.7211415 L16.2521967,13.993151 L57.4266218,34.3365993 L57.9798093,34.610654 L58.2533184,34.0604994 L58.6748925,33.2199287 L58.9484016,32.6697741 L58.3890447,32.4059453 L17.2125631,12.0543163 L16.6593756,11.7802616 L16.6532062,11.784352 Z" id="Shape" fill="#040B11"></path>
                                <polygon id="Rectangle" fill="#FFBE00" transform="translate(36.334389, 25.158763) rotate(-63.580000) translate(-36.334389, -25.158763) " points="35.5064984 1.8857479 37.0604875 1.8891579 37.1622798 48.4317784 35.6082907 48.4283684"></polygon>
                                <path d="M15.958123,14.5658026 L57.1325481,34.9092509 L56.7212563,35.7518668 L15.5365489,15.4084185 L15.9478407,14.5658026 M15.6681623,13.7477289 L15.3946532,14.2978835 L14.9833614,15.1384542 L14.7077958,15.6886088 L15.2609834,15.9606183 L56.4374649,36.2917955 L56.9906525,36.5658502 L57.2641615,36.0156956 L57.6754534,35.1751249 L57.9489624,34.6249703 L57.3978314,34.3529608 L16.2316321,14.0176932 L15.6784446,13.7436385 L15.6681623,13.7477289 Z" id="Shape" fill="#040B11"></path>
                                <polygon id="Rectangle" fill="#FFBE00" transform="translate(35.354474, 27.122816) rotate(-63.580000) translate(-35.354474, -27.122816) " points="34.5265835 3.84980046 36.0805726 3.85321046 36.182365 50.395831 34.6283758 50.392421"></polygon>
                                <path d="M14.977192,16.5291795 L56.1516171,36.8726278 L55.7403253,37.7152438 L14.5556179,17.3717955 L14.9669097,16.5291795 M14.6872313,15.7111058 L14.4240045,16.2489893 L14.0127127,17.08956 L13.7371471,17.6397146 L14.2903346,17.9117241 L55.4647598,38.2551724 L56.0056085,38.5414982 L56.2811741,37.9913436 L56.6924659,37.1507729 L56.9659749,36.6006183 L56.4148439,36.3286088 L15.2507011,15.9810702 L14.6975136,15.7070155 L14.6872313,15.7111058 Z" id="Shape" fill="#040B11"></path>
                                <polygon id="Rectangle" fill="#FFBE00" transform="translate(34.372503, 29.086868) rotate(-63.580000) translate(-34.372503, -29.086868) " points="33.5446122 5.81385302 35.0986013 5.81726302 35.2003936 52.3598836 33.6464045 52.3564736"></polygon>
                                <path d="M13.996261,18.498692 L55.1706861,38.8421403 L54.7593943,39.6847562 L13.5746869,19.3351724 L13.996261,18.4925565 M13.718639,17.6744828 L13.4369041,18.220547 L13.0256123,19.0611177 L12.7500467,19.6112723 L13.3032342,19.8832818 L54.4776594,40.2267301 L55.0308469,40.5007848 L55.3064124,39.9506302 L55.7177042,39.1100595 L55.9912133,38.5599049 L55.4400823,38.2878954 L14.2697701,17.9444471 L13.718639,17.6806183 L13.718639,17.6744828 Z" id="Shape" fill="#040B11"></path>
                                <polygon id="Rectangle" fill="#FFBE00" transform="translate(33.392588, 31.048876) rotate(-63.580000) translate(-33.392588, -31.048876) " points="32.5646973 7.7758604 34.1186864 7.7792704 34.2204788 54.3218909 32.6664897 54.3184809"></polygon>
                                <path d="M13.0256123,20.4559334 L54.1897551,40.791201 L53.7784633,41.6338169 L12.5937558,21.2985493 L13.01533,20.4559334 M12.737708,19.6378597 L12.4621425,20.1880143 L12.0508506,21.028585 L11.7670593,21.5664685 L12.3202468,21.838478 L53.4967284,42.190107 L54.0478594,42.4641617 L54.3234249,41.9140071 L54.7347168,41.0734364 L55.0102823,40.5232818 L54.4570948,40.2512723 L13.288839,19.907824 L12.737708,19.6337693 L12.737708,19.6378597 Z" id="Shape" fill="#040B11"></path>
                                <polygon id="Rectangle" fill="#FFBE00" transform="translate(32.410617, 33.012928) rotate(-63.580000) translate(-32.410617, -33.012928) " points="31.582726 9.73991296 33.1367151 9.74332296 33.2385075 56.2859435 31.6845184 56.2825335"></polygon>
                                <path d="M12.034399,22.4193103 L53.2088241,42.7627586 L52.7975322,43.6053746 L11.6148813,23.2619263 L12.0261731,22.4193103 M11.7485511,21.6012366 L11.4729856,22.1513912 L11.0616938,22.991962 L10.7861282,23.5421165 L11.3393158,23.8161712 L52.509628,44.1534839 L53.060759,44.4275386 L53.3363245,43.8773841 L53.7476164,43.0368133 L54.0231819,42.4866587 L53.4843896,42.22283 L12.307908,21.871201 L11.756777,21.5971463 L11.7485511,21.6012366 Z" id="Shape" fill="#040B11"></path>
                                <polygon id="Rectangle" fill="#FFBE00" transform="translate(31.430702, 34.976981) rotate(-63.580000) translate(-31.430702, -34.976981) " points="30.6028112 11.7039655 32.1568003 11.7073755 32.2585926 58.2499961 30.7046035 58.2465861"></polygon>
                                <path d="M11.0534679,24.3826873 L52.2299495,44.7261356 L51.8186577,45.5687515 L10.6339503,25.2253032 L11.0452421,24.3826873 M10.7676201,23.5646136 L10.4920546,24.1147681 L10.0807628,24.9553389 L9.80519723,25.5054935 L10.3583847,25.777503 L51.5348663,46.1086801 L52.0859974,46.3827348 L52.3615629,45.8325803 L52.7728547,44.9920095 L53.0484203,44.4418549 L52.509628,44.1780262 L11.326977,23.8345779 L10.775846,23.5605232 L10.7676201,23.5646136 Z" id="Shape" fill="#040B11"></path>
                                <polygon id="Rectangle" fill="#FFBE00" transform="translate(30.450787, 36.938988) rotate(-63.580000) translate(-30.450787, -36.938988) " points="29.6228963 13.6659729 31.1768854 13.6693829 31.2786778 60.2120034 29.7246887 60.2085934"></polygon>
                                <path d="M10.0725369,26.3460642 L51.2490185,46.6895125 L50.8377267,47.5321284 L9.65301926,27.1886801 L10.0643111,26.3460642 M9.7866891,25.5279905 L9.52963171,26.065874 L9.11833988,26.9064447 L8.84483081,27.4565993 L9.39596186,27.7286088 L50.5724434,48.0720571 L51.1235745,48.3461118 L51.39914,47.7959572 L51.8104319,46.9553864 L52.0859974,46.4052319 L51.5328099,46.1332224 L10.3522154,25.7959096 L9.79902786,25.5239001 L9.7866891,25.5279905 Z" id="Shape" fill="#040B11"></path>
                                <polygon id="Rectangle" fill="#FFBE00" transform="translate(29.469731, 38.901209) rotate(-63.580000) translate(-29.469731, -38.901209) " points="28.64184 15.6281939 30.1958291 15.6316039 30.2976215 62.1742244 28.7436324 62.1708144"></polygon>
                                <path d="M9.09160591,28.3155767 L50.2680875,48.659025 L49.8465134,49.5016409 L8.67208824,29.1520571 L9.08338007,28.3094411 M8.80575809,27.4913674 L8.53224902,28.041522 L8.11067489,28.8820927 L7.83716583,29.4322473 L8.38829688,29.7042568 L49.5647785,50.0477051 L50.117966,50.3217598 L50.391475,49.7716052 L50.8027669,48.9310345 L51.0783324,48.3808799 L50.5251449,48.1088704 L9.36717143,27.7592866 L8.81398392,27.497503 L8.80575809,27.4913674 Z" id="Shape" fill="#040B11"></path>
                                <polygon id="Rectangle" fill="#FFBE00" transform="translate(28.489816, 40.865262) rotate(-63.580000) translate(-28.489816, -40.865262) " points="27.6619252 17.5922465 29.2159143 17.5956565 29.3177066 64.138277 27.7637175 64.134867"></polygon>
                                <path d="M8.11067489,30.2728181 L49.2871565,50.6080856 L48.8655824,51.4507015 L7.69115723,31.115434 L8.10244906,30.2728181 M7.82482707,29.4547444 L7.551318,30.0048989 L7.12974388,30.8454697 L6.85623481,31.3833532 L7.40736586,31.6553627 L48.6023556,52.0069917 L49.1555431,52.2810464 L49.4290522,51.7308918 L49.840344,50.890321 L50.1159095,50.3401665 L49.562722,50.068157 L8.38624042,29.7226635 L7.83305291,29.450654 L7.82482707,29.4547444 Z" id="Shape" fill="#040B11"></path>
                                <polygon id="Rectangle" fill="#FFBE00" transform="translate(27.507845, 42.829314) rotate(-63.580000) translate(-27.507845, -42.829314) " points="26.6799538 19.556299 28.233943 19.559709 28.3357353 66.1023295 26.7817462 66.0989195"></polygon>
                                <path d="M7.12974388,32.236195 L48.3062255,52.5796433 L47.8949336,53.4222592 L6.71022621,33.0788109 L7.12151804,32.236195 M6.84389606,31.4181213 L6.57038699,31.9682759 L6.15909516,32.8088466 L5.88558609,33.3590012 L6.44494298,33.6330559 L47.6214246,53.9765042 L48.1746121,54.2505589 L48.4481211,53.7004043 L48.859413,52.8598335 L49.132922,52.309679 L48.5797345,52.0376694 L7.4053094,31.6860404 L6.85623481,31.4140309 L6.84389606,31.4181213 Z" id="Shape" fill="#040B11"></path>
                                <polygon id="Rectangle" fill="#FFBE00" transform="translate(26.527930, 44.791322) rotate(-63.580000) translate(-26.527930, -44.791322) " points="25.700039 21.5183064 27.2540281 21.5217164 27.3558204 68.0643369 25.8018313 68.0609269"></polygon>
                                <path d="M6.14881286,34.1995719 L47.3252944,54.5430202 L46.9140026,55.3856361 L5.7292952,35.0421879 L6.14058703,34.1995719 M5.86296504,33.3814982 L5.58945597,33.9316528 L5.16788185,34.7722235 L4.89437278,35.3223781 L5.44756029,35.5943876 L46.6302113,55.9255648 L47.1833988,56.1996195 L47.4569078,55.6494649 L47.878482,54.8088942 L48.151991,54.2587396 L47.5988035,53.9867301 L6.42437839,33.6494174 L5.87119088,33.3774078 L5.86296504,33.3814982 Z" id="Shape" fill="#040B11"></path>
                                <polygon id="Rectangle" fill="#FFBE00" transform="translate(25.545958, 46.755374) rotate(-63.580000) translate(-25.545958, -46.755374) " points="24.7180677 23.482359 26.2720568 23.485769 26.3738491 70.0283895 24.81986 70.0249795"></polygon>
                                <path d="M5.16993831,36.1629489 L46.3402505,56.5063971 L45.9289587,57.3490131 L4.74836418,37.0055648 L5.16993831,36.1629489 M4.89025986,35.3448751 L4.61675079,35.8827586 L4.19517667,36.7233294 L3.9216676,37.2734839 L4.47485511,37.5454935 L45.6492802,57.8889417 L46.2024678,58.1629964 L46.4759768,57.6128419 L46.8975509,56.7722711 L47.17106,56.2221165 L46.619929,55.950107 L5.44344737,35.6127943 L4.89025986,35.3407848 L4.89025986,35.3448751 Z" id="Shape" fill="#040B11"></path>
                                <polygon id="Rectangle" fill="#FFBE00" transform="translate(24.566044, 48.719427) rotate(-63.580000) translate(-24.566044, -48.719427) " points="23.7381528 25.4464115 25.2921419 25.4498215 25.3939343 71.9924421 23.8399452 71.9890321"></polygon>
                                <path d="M4.18283791,38.1324614 L45.357263,58.4759096 L44.9459712,59.3185256 L3.77154608,38.9689417 L4.18283791,38.1263258 M3.90315947,37.3082521 L3.6296504,37.8584067 L3.21835857,38.6989774 L2.94896242,39.2450416 L3.50214993,39.5170511 L44.6765751,59.8604994 L45.2297626,60.1345541 L45.5032716,59.5843995 L45.9248458,58.7438288 L46.1983548,58.1936742 L45.6472238,57.9216647 L4.46251636,37.5761712 L3.90932885,37.3143876 L3.90315947,37.3082521 Z" id="Shape" fill="#040B11"></path>
                                <polygon id="Rectangle" fill="#FFBE00" transform="translate(23.586129, 50.683479) rotate(-63.580000) translate(-23.586129, -50.683479) " points="22.758238 27.4104641 24.3122271 27.4138741 24.4140194 73.9564946 22.8600303 73.9530846"></polygon>
                                <path d="M3.20807628,40.0897027 L44.3825014,60.4249703 L43.9712096,61.2675862 L2.78650215,40.9302735 L3.20807628,40.0897027 M2.92839783,39.271629 L2.65488876,39.8217836 L2.24359693,40.6623543 L1.95980557,41.2002378 L2.51299308,41.4722473 L43.6874182,61.8156956 L44.2406057,62.0897503 L44.5161712,61.5395957 L44.9274631,60.699025 L45.2009721,60.1488704 L44.6498411,59.8748157 L3.48158534,39.5395482 L2.92839783,39.2675386 L2.92839783,39.271629 Z" id="Shape" fill="#040B11"></path>
                                <polygon id="Rectangle" fill="#FFBE00" transform="translate(22.604157, 52.645487) rotate(-63.580000) translate(-22.604157, -52.645487) " points="21.7762667 29.3724715 23.3302558 29.3758815 23.4320481 75.918502 21.878059 75.915092"></polygon>
                                <path d="M2.22714526,42.0530797 L43.4015704,62.3965279 L42.9902786,63.2391439 L1.80557113,42.8936504 L2.22714526,42.0530797 M1.94952328,41.2350059 L1.67395775,41.7851605 L1.26266592,42.6257313 L0.987100393,43.1758859 L1.5402879,43.4478954 L42.714713,63.7913436 L43.2679005,64.0653983 L43.5434661,63.5152438 L43.9547579,62.674673 L44.228267,62.1245184 L43.6771359,61.8504637 L2.50065433,41.5029251 L1.94952328,41.2309156 L1.94952328,41.2350059 Z" id="Shape" fill="#040B11"></path>
                                <polygon id="Rectangle" fill="#FFBE00" transform="translate(21.624243, 54.609539) rotate(-63.580000) translate(-21.624243, -54.609539) " points="20.7963518 31.336524 22.3503409 31.339934 22.4521333 77.8825546 20.8981441 77.8791446"></polygon>
                                <path d="M1.24621425,44.0164566 L42.4206394,64.3599049 L42.0093475,65.2025208 L0.832865956,44.8570273 L1.25444008,44.0164566 M0.976818097,43.1983829 L0.686857357,43.7444471 L0.275565526,44.5850178 L0,45.1351724 L0.553187512,45.4071819 L41.7276126,65.7424495 L42.2787437,66.0165042 L42.5543092,65.4663496 L42.965601,64.6257788 L43.2411666,64.0756243 L42.6879791,63.8015696 L1.51972331,43.466302 L0.96859226,43.1942925 L0.976818097,43.1983829 Z" id="Shape" fill="#040B11"></path>
                            </g>
                        </g>
                    </g>
                    <polygon id="Path" fill="#FFBE00" fill-rule="nonzero" points="77.7494918 101 75.4989835 101 73.2505082 101 71 103.2988 73.2505082 110 75.4989835 110 77.7494918 110 80 103.2988"></polygon>
                    <g id="Clipped" transform="translate(71.000000, 101.000000)">
                        <mask id="mask-4" fill="white">
                            <use xlink:href="#path-3"></use>
                        </mask>
                        <g id="Path"></g>
                        <g id="Group" mask="url(#mask-4)" fill-rule="nonzero">
                            <g transform="translate(-27.827423, -51.584910)">
                                <polygon id="Rectangle" fill="#FFBE00" transform="translate(21.379819, 11.578889) rotate(-26.420000) translate(-21.379819, -11.578889) " points="-1.74203247 10.9910212 44.5148633 10.5971706 44.5016695 12.1667575 -1.7552263 12.5606081"></polygon>
                                <path d="M41.5215722,0.83064144 L41.938333,1.68412552 L1.23198554,22.3401015 L0.825389654,21.4866174 L41.5215722,0.83064144 M41.7980574,0 L41.2511859,0.274111675 L0.544838491,20.9280111 L0,21.206276 L0.270386266,21.7628057 L0.687147052,22.6183664 L0.957533318,23.1748962 L1.51253671,22.9090909 L42.2168511,2.25311491 L42.7637226,1.97485002 L42.4913034,1.41832026 L42.0847075,0.562759575 L41.8143212,0.0062298108 L41.7980574,0 Z" id="Shape" fill="#040B11"></path>
                                <polygon id="Rectangle" fill="#FFBE00" transform="translate(22.348188, 13.571378) rotate(-26.420000) translate(-22.348188, -13.571378) " points="-0.77366266 12.9835101 45.4832331 12.5896595 45.4700393 14.1592464 -0.78685649 14.553097"></polygon>
                                <path d="M42.4913034,2.8241809 L42.8978993,3.67766497 L2.20171674,24.333641 L1.79512085,23.4801569 L42.4994353,2.8241809 M42.7738875,1.99353946 L42.229049,2.26972773 L1.51253671,22.9215505 L0.967698215,23.1998154 L1.23808448,23.7563452 L1.64468037,24.6119059 L1.91709962,25.1684356 L2.46397109,24.8922473 L43.1886153,4.23627134 L43.7354868,3.95800646 L43.4630675,3.4014767 L43.0564717,2.54591601 L42.7840524,1.98938625 L42.7738875,1.99353946 Z" id="Shape" fill="#040B11"></path>
                                <polygon id="Rectangle" fill="#FFBE00" transform="translate(23.316770, 15.566868) rotate(-26.420000) translate(-23.316770, -15.566868) " points="0.194919485 14.9789997 46.4518153 14.5851491 46.4386214 16.154736 0.181725655 16.5485866"></polygon>
                                <path d="M43.4610346,4.81772035 L43.8676304,5.67120443 L3.17144793,26.3271804 L2.76485204,25.4736964 L43.4691665,4.81772035 M43.7436187,3.98707891 L43.1886153,4.25911398 L2.48430088,24.91509 L1.93742941,25.1933549 L2.20984866,25.7498846 L2.61644454,26.6054453 L2.88886379,27.1619751 L3.43573526,26.8857868 L44.1400497,6.2298108 L44.6869212,5.95154592 L44.4145019,5.39501615 L44.007906,4.53945547 L43.7354868,3.9829257 L43.7436187,3.98707891 Z" id="Shape" fill="#040B11"></path>
                                <polygon id="Rectangle" fill="#FFBE00" transform="translate(24.287173, 17.559357) rotate(-26.420000) translate(-24.287173, -17.559357) " points="1.16532228 16.9714886 47.4222181 16.577638 47.4090242 18.147225 1.15212845 18.5410756"></polygon>
                                <path d="M44.4307658,6.81125981 L44.8373616,7.66474389 L4.14117913,28.3207199 L3.73458324,27.4672358 L44.4388977,6.81125981 M44.7133499,5.98061837 L44.1685114,6.25680665 L3.45403208,26.9086294 L2.90716061,27.1868943 L3.17957985,27.7434241 L3.58617574,28.5989848 L3.85859499,29.1555145 L4.40343348,28.8793263 L45.1097809,8.22335025 L45.6566524,7.94508537 L45.3842331,7.38855561 L44.9776372,6.53299492 L44.705218,5.97646516 L44.7133499,5.98061837 Z" id="Shape" fill="#040B11"></path>
                                <polygon id="Rectangle" fill="#FFBE00" transform="translate(25.255543, 19.553922) rotate(-26.420000) translate(-25.255543, -19.553922) " points="2.13369209 18.9660542 48.3905879 18.5722036 48.3773941 20.1417905 2.12049826 20.5356411"></polygon>
                                <path d="M45.400497,8.80479926 L45.8070928,9.65828334 L5.11091032,30.3142593 L4.69414954,29.4607753 L45.400497,8.80479926 M45.6749492,7.97415782 L45.1301107,8.2503461 L4.42376327,28.9021689 L3.8768918,29.1804338 L4.14931105,29.7369635 L4.55590693,30.5925242 L4.82832618,31.149054 L5.37316467,30.8728657 L46.0795121,10.2168897 L46.6263836,9.93862483 L46.3539643,9.38209506 L45.9473684,8.52653438 L45.6749492,7.97000461 L45.6749492,7.97415782 Z" id="Shape" fill="#040B11"></path>
                                <polygon id="Rectangle" fill="#FFBE00" transform="translate(26.225946, 21.546411) rotate(-26.420000) translate(-26.225946, -21.546411) " points="3.10409489 20.9585432 49.3609907 20.5646926 49.3477968 22.1342795 3.09090106 22.5281301"></polygon>
                                <path d="M46.3702281,10.7983387 L46.776824,11.6518228 L6.08064152,32.3077988 L5.66388073,31.4543147 L46.3702281,10.7983387 M46.6446804,9.96769728 L46.0978089,10.241809 L5.39349447,30.8957084 L4.846623,31.1739732 L5.11904224,31.730503 L5.52563813,32.5860637 L5.79805738,33.1425934 L6.35102778,32.8767882 L47.0512763,12.2104292 L47.5961148,11.9321643 L47.3257285,11.3756345 L46.9191326,10.5200738 L46.6446804,9.96354407 L46.6446804,9.96769728 Z" id="Shape" fill="#040B11"></path>
                                <polygon id="Rectangle" fill="#FFBE00" transform="translate(27.196349, 23.538900) rotate(-26.420000) translate(-27.196349, -23.538900) " points="4.07449768 22.9510321 50.3313935 22.5571816 50.3181996 24.1267685 4.06130385 24.5206191"></polygon>
                                <path d="M47.3399593,12.7918782 L47.7465552,13.6453623 L7.05037271,34.3013383 L6.63361193,33.4478542 L47.3399593,12.7918782 M47.6144116,11.9612367 L47.0675401,12.237425 L6.36322566,32.8892478 L5.81635419,33.1675127 L6.08877344,33.7240425 L6.49536932,34.5796031 L6.76575559,35.1361329 L7.31262706,34.8599446 L48.0271064,14.2039686 L48.5719449,13.9257037 L48.3015586,13.369174 L47.8949627,12.5136133 L47.6225435,11.9570835 L47.6144116,11.9612367 Z" id="Shape" fill="#040B11"></path>
                                <polygon id="Rectangle" fill="#FFBE00" transform="translate(28.164718, 25.533466) rotate(-26.420000) translate(-28.164718, -25.533466) " points="5.04286749 24.9455977 51.2997633 24.5517471 51.2865695 26.121334 5.02967366 26.5151846"></polygon>
                                <path d="M48.3096905,14.7854176 L48.7162864,15.6389017 L8.01807093,36.2948777 L7.61147504,35.4413936 L48.3178225,14.7854176 M48.5922747,13.9547762 L48.0454032,14.2330411 L7.33295686,34.8827873 L6.78608539,35.1610521 L7.05850463,35.7175819 L7.46510052,36.5731426 L7.73548679,37.1296724 L8.28235826,36.8534841 L48.9887057,16.1975081 L49.5335442,15.9192432 L49.2631579,15.3627134 L48.856562,14.5071527 L48.5861757,13.9485464 L48.5922747,13.9547762 Z" id="Shape" fill="#040B11"></path>
                                <polygon id="Rectangle" fill="#FFBE00" transform="translate(29.135121, 27.525955) rotate(-26.420000) translate(-29.135121, -27.525955) " points="6.01327029 26.9380867 52.2701661 26.5442361 52.2569722 28.113823 6.00007646 28.5076736"></polygon>
                                <path d="M49.2875536,16.7789571 L49.6941495,17.6324412 L8.9898351,38.2884172 L8.58323921,37.4349331 L49.2875536,16.7789571 M49.5620059,15.9483156 L49.0151344,16.2265805 L8.30268805,36.8763267 L7.75581658,37.1545916 L8.02620285,37.7111214 L8.43279874,38.566682 L8.703185,39.1232118 L9.25005647,38.8470235 L49.9564039,18.1910475 L50.5012424,17.9127826 L50.2308561,17.3562529 L49.8140953,16.5006922 L49.5437091,15.9420858 L49.5620059,15.9483156 Z" id="Shape" fill="#040B11"></path>
                                <polygon id="Rectangle" fill="#FFBE00" transform="translate(30.105524, 29.520520) rotate(-26.420000) translate(-30.105524, -29.520520) " points="6.98367308 28.9326522 53.2405689 28.5388017 53.227375 30.1083886 6.97047925 30.5022392"></polygon>
                                <path d="M50.2491529,18.7724965 L50.6557488,19.6259806 L9.95753332,40.2819566 L9.55093743,39.4284725 L50.2572848,18.7724965 M50.5317371,17.9418551 L49.9848656,18.22012 L9.27241925,38.8698662 L8.72554778,39.1481311 L8.99593404,39.7046608 L9.41269483,40.5602215 L9.68308109,41.1167513 L10.2299526,40.840563 L50.934267,20.184587 L51.4811385,19.9063221 L51.2107522,19.3497923 L50.7939914,18.4942317 L50.5236052,17.9356253 L50.5317371,17.9418551 Z" id="Shape" fill="#040B11"></path>
                                <polygon id="Rectangle" fill="#FFBE00" transform="translate(31.075927, 31.513009) rotate(-26.420000) translate(-31.075927, -31.513009) " points="7.95407587 30.9251412 54.2109717 30.5312906 54.1977778 32.1008775 7.94088204 32.4947281"></polygon>
                                <path d="M51.2188841,20.766036 L51.62548,21.6195201 L10.9272645,42.2754961 L10.5206686,41.422012 L51.2188841,20.766036 M51.4933363,19.9353946 L50.9464649,20.2095062 L10.2401175,40.8634056 L9.69527897,41.1395939 L9.96566524,41.6982003 L10.382426,42.553761 L10.6528123,43.1102907 L11.1996838,42.8341024 L51.9039982,22.1781264 L52.4508697,21.8998616 L52.1804834,21.3433318 L51.7637226,20.4877711 L51.4933363,19.9291647 L51.4933363,19.9353946 Z" id="Shape" fill="#040B11"></path>
                                <polygon id="Rectangle" fill="#FFBE00" transform="translate(32.044297, 33.507575) rotate(-26.420000) translate(-32.044297, -33.507575) " points="8.92244569 32.9197068 55.1793415 32.5258562 55.1661476 34.0954431 8.90925186 34.4892937"></polygon>
                                <path d="M52.1865823,22.7595754 L52.5931782,23.6130595 L11.8969957,44.2690355 L11.4903998,43.4155515 L52.1947143,22.7595754 M52.4711995,21.928934 L51.924328,22.2071989 L11.2098487,42.8569451 L10.6609442,43.1331334 L10.9313305,43.6917397 L11.3379264,44.5473004 L11.6083126,45.1038302 L12.1551841,44.8276419 L52.8594985,24.1716659 L53.40637,23.893401 L53.1502146,23.3368713 L52.7436187,22.4813106 L52.4732324,21.9227042 L52.4711995,21.928934 Z" id="Shape" fill="#040B11"></path>
                                <polygon id="Rectangle" fill="#FFBE00" transform="translate(33.014699, 35.500064) rotate(-26.420000) translate(-33.014699, -35.500064) " points="9.89284848 34.9121958 56.1497443 34.5183452 56.1365504 36.0879321 9.87965465 36.4817827"></polygon>
                                <path d="M53.1502146,24.7531149 L53.5669754,25.606599 L12.8667269,46.262575 L12.460131,45.4090909 L53.1502146,24.7531149 M53.4266998,23.9224735 L52.8798283,24.2007383 L12.1795799,44.8504845 L11.6347414,45.1287494 L11.9051276,45.6873558 L12.3117235,46.5429165 L12.5821098,47.0994462 L13.1289813,46.823258 L53.8332957,26.167282 L54.3801672,25.8890171 L54.1077479,25.3324873 L53.701152,24.4769266 L53.4307658,23.9183203 L53.4266998,23.9224735 Z" id="Shape" fill="#040B11"></path>
                                <polygon id="Rectangle" fill="#FFBE00" transform="translate(33.985102, 37.494629) rotate(-26.420000) translate(-33.985102, -37.494629) " points="10.8632513 36.9067613 57.1201471 36.5129107 57.1069532 38.0824976 10.8500574 38.4763482"></polygon>
                                <path d="M54.1260447,26.7466544 L54.5428055,27.6001384 L13.8364581,48.2561144 L13.4298622,47.4026304 L54.1260447,26.7466544 M54.400497,25.9160129 L53.8556585,26.1942778 L13.149311,46.844024 L12.6044726,47.1202123 L12.8748588,47.6788186 L13.2814547,48.5343793 L13.553874,49.0909091 L14.1007454,48.8147208 L54.8050599,28.1587448 L55.3519313,27.8804799 L55.0795121,27.3218736 L54.6729162,26.4683895 L54.400497,25.9097831 L54.400497,25.9160129 Z" id="Shape" fill="#040B11"></path>
                                <polygon id="Rectangle" fill="#FFBE00" transform="translate(34.951651, 39.488042) rotate(-26.420000) translate(-34.951651, -39.488042) " points="11.8298004 38.9001743 58.0866962 38.5063237 58.0735024 40.0759106 11.8166066 40.4697612"></polygon>
                                <path d="M55.0957759,28.7401938 L55.5023718,29.5936779 L14.8061893,50.2496539 L14.3995934,49.3961698 L55.1039078,28.7401938 M55.3783601,27.9095524 L54.8335216,28.1878173 L14.1170093,48.8375635 L13.5701378,49.1137517 L13.842557,49.6723581 L14.2491529,50.5279188 L14.5215722,51.0844485 L15.0664107,50.8082603 L55.7930879,30.1522843 L56.3399593,29.8740194 L56.0675401,29.315413 L55.6609442,28.4619289 L55.388525,27.9033226 L55.3783601,27.9095524 Z" id="Shape" fill="#040B11"></path>
                                <polygon id="Rectangle" fill="#FFBE00" transform="translate(35.922054, 41.482608) rotate(-26.420000) translate(-35.922054, -41.482608) " points="12.8002032 40.8947398 59.057099 40.5008892 59.0439052 42.0704762 12.7870094 42.4643268"></polygon>
                                <path d="M56.0655071,30.7337333 L56.472103,31.5872174 L15.7759205,52.2431934 L15.3693246,51.3897093 L56.073639,30.7337333 M56.3480913,29.9030918 L55.7930879,30.1772035 L15.0887734,50.8311029 L14.541902,51.1072912 L14.8143212,51.6658976 L15.2209171,52.5214582 L15.4933363,53.077988 L16.0381748,52.8017997 L56.7445222,32.1458237 L57.2913937,31.8675588 L57.0189745,31.3089525 L56.6123786,30.4554684 L56.3399593,29.896862 L56.3480913,29.9030918 Z" id="Shape" fill="#040B11"></path>
                                <polygon id="Rectangle" fill="#FFBE00" transform="translate(36.892457, 43.475097) rotate(-26.420000) translate(-36.892457, -43.475097) " points="13.770606 42.8872288 60.0275018 42.4933782 60.014308 44.0629651 13.7574122 44.4568157"></polygon>
                                <path d="M57.0352383,32.7272727 L57.4418342,33.5807568 L16.7456517,54.2367328 L16.3390558,53.3832487 L57.0454032,32.7272727 M57.3198554,31.8966313 L56.7750169,32.1748962 L16.0585046,52.8246424 L15.5116332,53.1008306 L15.7840524,53.659437 L16.1906483,54.5129211 L16.4630675,55.0715275 L17.007906,54.7953392 L57.7142534,34.1393632 L58.2611249,33.8610983 L57.9887057,33.3024919 L57.5821098,32.4490078 L57.3096905,31.8904015 L57.3198554,31.8966313 Z" id="Shape" fill="#040B11"></path>
                                <polygon id="Rectangle" fill="#FFBE00" transform="translate(37.860827, 45.467586) rotate(-26.420000) translate(-37.860827, -45.467586) " points="14.7389758 44.8797178 60.9958716 44.4858672 60.9826778 46.0554541 14.725782 46.4493047"></polygon>
                                <path d="M58.0049695,34.7187356 L58.4115654,35.5742963 L17.7153829,56.2302723 L17.2986221,55.3767882 L58.0049695,34.7187356 M58.2794217,33.8880941 L57.7325503,34.166359 L17.0282358,54.8181818 L16.4813644,55.0964467 L16.7537836,55.6550531 L17.1603795,56.5085371 L17.4327987,57.0671435 L17.9776372,56.7909552 L58.6839846,36.1349792 L59.2288231,35.8567144 L58.9584369,35.298108 L58.551841,34.4446239 L58.2794217,33.8860175 L58.2794217,33.8880941 Z" id="Shape" fill="#040B11"></path>
                                <polygon id="Rectangle" fill="#FFBE00" transform="translate(38.831230, 47.462152) rotate(-26.420000) translate(-38.831230, -47.462152) " points="15.7093786 46.8742833 61.9662744 46.4804328 61.9530806 48.0500197 15.6961848 48.4438703"></polygon>
                                <path d="M58.9747007,36.712275 L59.3812966,37.5678357 L18.6851141,58.2238117 L18.2683533,57.3807107 L58.9747007,36.7226581 M59.2491529,35.8920166 L58.7022815,36.1702815 L17.997967,56.8117213 L17.4510956,57.0879096 L17.7235148,57.6465159 L18.1301107,58.5 L18.400497,59.0586064 L18.9473684,58.7824181 L59.6557488,38.1264421 L60.2005873,37.8481772 L59.930201,37.2895708 L59.5236052,36.4360868 L59.2491529,35.8774804 L59.2491529,35.8920166 Z" id="Shape" fill="#040B11"></path>
                                <polygon id="Rectangle" fill="#FFBE00" transform="translate(39.801632, 49.454640) rotate(-26.420000) translate(-39.801632, -49.454640) " points="16.6797814 48.8667723 62.9366772 48.4729217 62.9234834 50.0425086 16.6665876 50.4363592"></polygon>
                                <path d="M59.9444319,38.7058145 L60.3510278,39.5613752 L19.6548453,60.2173512 L19.2482494,59.3638671 L59.9545968,38.7058145 M60.229049,37.8751731 L59.6821775,38.1534379 L18.9676982,58.8052607 L18.4208267,59.081449 L18.693246,59.6400554 L19.0998419,60.4935395 L19.3702281,61.0521458 L19.9170996,60.7759575 L60.6315789,40.1199815 L61.1764174,39.8417167 L60.9060312,39.2831103 L60.4994353,38.4296262 L60.229049,37.8710198 L60.229049,37.8751731 Z" id="Shape" fill="#040B11"></path>
                                <polygon id="Rectangle" fill="#FFBE00" transform="translate(40.772035, 51.449206) rotate(-26.420000) translate(-40.772035, -51.449206) " points="17.6501842 50.8613379 63.90708 50.4674873 63.8938862 52.0370742 17.6369904 52.4309248"></polygon>
                                <path d="M60.9141631,40.6993539 L61.320759,41.5549146 L20.6225435,62.2108906 L20.2159476,61.3574066 L60.922295,40.6993539 M61.1967472,39.8687125 L60.6417438,40.1449008 L19.9374294,60.7988002 L19.3905579,61.0749885 L19.6609442,61.6335948 L20.077705,62.4870789 L20.3480913,63.0456853 L20.8949627,62.769497 L61.6013101,42.113521 L62.1461486,41.8352561 L61.8757624,41.2766497 L61.4691665,40.4231657 L61.1987802,39.8645593 L61.1967472,39.8687125 Z" id="Shape" fill="#040B11"></path>
                                <polygon id="Rectangle" fill="#FFBE00" transform="translate(41.740405, 53.441695) rotate(-26.420000) translate(-41.740405, -53.441695) " points="18.618554 52.8538268 64.8754498 52.4599763 64.862256 54.0295632 18.6053602 54.4234138"></polygon>
                                <path d="M61.8920262,42.6928934 L62.2986221,43.5484541 L21.5922747,64.2044301 L21.1856788,63.350946 L61.8920262,42.6928934 M62.1664784,41.862252 L61.619607,42.1405168 L20.9071606,62.7923396 L20.3602891,63.0685279 L20.6306754,63.6271343 L21.0474362,64.4806184 L21.3178225,65.0392247 L21.8646939,64.7630365 L62.5690084,44.1070605 L63.1158798,43.8287956 L62.8454936,43.2701892 L62.4287328,42.4167051 L62.1583465,41.8580988 L62.1664784,41.862252 Z" id="Shape" fill="#040B11"></path>
                                <polygon id="Rectangle" fill="#FFBE00" transform="translate(42.710808, 55.436261) rotate(-26.420000) translate(-42.710808, -55.436261) " points="19.5889568 54.8483924 65.8458526 54.4545418 65.8326588 56.0241287 19.575763 56.4179793"></polygon>
                                <path d="M62.8536255,44.6864329 L63.2602214,45.5419935 L22.5620059,66.1979695 L22.15541,65.3444855 L62.8617574,44.6864329 M63.1362096,43.8557914 L62.5893382,44.1340563 L21.8748588,64.7858791 L21.3300203,65.064144 L21.6004066,65.6227503 L22.0171674,66.4762344 L22.2875536,67.0348408 L22.8344251,66.7586525 L63.5387396,46.1005999 L64.085611,45.822335 L63.8152248,45.2637287 L63.398464,44.4102446 L63.1280777,43.8516382 L63.1362096,43.8557914 Z" id="Shape" fill="#040B11"></path>
                            </g>
                        </g>
                    </g>
                    <rect id="Rectangle" fill="#040B11" fill-rule="nonzero" x="72" y="109" width="6" height="2"></rect>
                </g>
            </g>
        </g>
    </g>
</svg>