<?xml version="1.0" encoding="UTF-8"?>
<svg width="133px" height="140px" viewBox="0 0 133 140" version="1.1" xmlns="http://www.w3.org/2000/svg" xmlns:xlink="http://www.w3.org/1999/xlink">
    <title>F69EAFEB-B719-4F09-9CC6-843E27FFBCD4</title>
    <g id="Manager" stroke="none" stroke-width="1" fill="none" fill-rule="evenodd">
        <g id="Select-app" transform="translate(-143.000000, -211.000000)" fill-rule="nonzero">
            <g id="Group-3" transform="translate(105.000000, 181.000000)">
                <g id="botsibot-rol-02" transform="translate(38.000000, 30.000000)">
                    <path d="M98.760611,82 L95.0192781,81.8543601 C94.5939866,81.8380417 94.2197435,81.5705292 94.0688757,81.1750033 C93.9180079,80.7794774 94.0197667,80.3326252 94.3272953,80.040208 L117.155016,58.2952869 C117.351976,58.1073258 117.614418,58.0023077 117.887477,58.0021873 C117.932405,57.9992709 117.977476,57.9992709 118.022404,58.0021873 L120.075222,58.264636 C120.473492,58.3156033 120.808604,58.5858357 120.940841,58.962666 C121.073078,59.3394963 120.979739,59.7582377 120.699741,60.0443057 L99.5624629,81.6800329 C99.3603596,81.8870716 99.0816839,82.0027038 98.7914515,82 L98.760611,82 Z" id="Path" fill="#040B11"></path>
                    <path d="M117.840849,59.1041898 L119.884755,59.3636366 L98.8373208,80.9034412 L95.1122301,80.7584563 L117.840849,59.1041898 M117.840849,57.0057233 C117.296516,57.0058665 116.773277,57.2150056 116.380368,57.5894786 L93.6517489,79.243745 C93.0393617,79.8261413 92.8367277,80.7161197 93.1371534,81.5038736 C93.437579,82.2916275 94.1828158,82.8244222 95.0297062,82.8569227 L98.756716,83 L98.8373208,83 C99.4079479,83 99.9541745,82.7699159 100.351538,82.3628293 L121.398973,60.8249323 C121.958949,60.2551327 122.146095,59.4193007 121.882094,58.6672072 C121.618093,57.9151138 120.948468,57.3764444 120.153437,57.2766163 L118.109531,57.0171695 C118.020437,57.0056909 117.930688,57 117.840849,57 L117.840849,57.0057233 Z" id="Shape" fill="#000000"></path>
                    <path d="M118.814516,61 C116.157834,60.9979642 114.004104,58.8598765 114,56.2204523 L114,52.7869435 C114,50.1446311 116.15493,48.0020412 118.814516,48 L127.189206,48 C129.844859,48.0030567 131.996923,50.1411435 132,52.7795477 L132,56.2130565 C131.996923,58.8514606 129.844859,60.9895475 127.189206,60.9926042 L118.814516,61 Z" id="Path" fill="#040B11"></path>
                    <path d="M127.171927,49.0302622 C128.175285,49.0283089 129.138223,49.4231634 129.848401,50.1277623 C130.558579,50.8323613 130.957668,51.7888348 130.957668,52.786268 L130.957668,56.213732 C130.9546,58.2868483 129.264787,59.9666811 127.179354,59.9697323 L118.824359,59.9697323 C117.821645,59.9707102 116.859662,59.5754226 116.150287,58.87093 C115.440912,58.1664374 115.042332,57.2105247 115.042332,56.213732 L115.042332,52.786268 C115.046424,50.7121338 116.737899,49.0322999 118.824359,49.0302622 L127.179354,49.0302622 M127.179354,47 L118.824359,47 C115.609952,47.0020334 113.004095,49.5908472 113,52.786268 L113,56.213732 C113.004095,59.4091528 115.609952,61.9979666 118.824359,62 L127.179354,62 C130.393159,61.9979638 132.997952,59.4085558 133,56.213732 L133,52.786268 C132.995908,49.5922867 130.392312,47.0040675 127.179354,47 L127.179354,47 Z" id="Shape" fill="#000000"></path>
                    <path d="M127.283485,60 C124.079991,60 121.05395,59.1736262 118.762004,57.6726913 C116.3337,56.0836866 115,53.9250387 115,51.5958727 C115.001254,50.9121287 115.1181,50.2335504 115.345566,49.5890047 C115.406415,49.4161862 115.511401,49.262409 115.650038,49.1430341 C116.52144,48.4048438 117.625196,48 118.76574,48 L127.17141,48 C129.836886,48.0030978 131.996912,50.1699457 132,52.843841 L132,56.3235364 C132.000325,57.4414524 131.614134,58.5248779 130.907263,59.3891162 C130.750575,59.5804968 130.530429,59.7088775 130.287111,59.7507647 C129.294615,59.9179799 128.289881,60.0013454 127.283485,60 L127.283485,60 Z" id="Path" fill="#040B11"></path>
                    <path d="M127.151554,49.0533128 C128.158098,49.0513406 129.124094,49.4506786 129.836528,50.1632784 C130.548963,50.8758782 130.949331,51.8432125 130.949331,52.8519717 L130.949331,56.3183549 C130.951552,57.1947034 130.648535,58.0443558 130.09254,58.7207432 C129.161983,58.877407 128.21994,58.9554588 127.276345,58.9540935 C121.077737,58.9540935 116.048819,55.6724913 116.048819,51.6087777 C116.050205,51.0433573 116.147189,50.4822608 116.335653,49.949319 C117.017955,49.3688771 117.884368,49.0511998 118.779335,49.0533128 L127.160867,49.0533128 M127.160867,47 L118.779335,47 C117.39656,47.0012831 116.0592,47.4947995 115.005784,48.3925266 C114.728982,48.6293132 114.519516,48.9351884 114.398588,49.279189 C114.136386,50.0278418 114.001646,50.8153479 114,51.6087777 C114,54.289298 115.49005,56.7439528 118.216841,58.5154109 C120.664249,60.1170031 123.880894,60.9999667 127.27262,60.9999667 C128.333595,61.0019673 129.392834,60.9139196 130.438977,60.7367335 C130.924888,60.6537017 131.364641,60.3978852 131.677581,60.0162036 C132.532369,58.9713527 132.999662,57.6620332 133,56.3108882 L133,52.8519717 C132.995895,49.6217224 130.384029,47.0041137 127.160867,47 L127.160867,47 Z" id="Shape" fill="#000000"></path>
                    <polygon id="Path" fill="#ABC9CE" points="117.939262 59 95 80.8556051 98.7592966 81 120 59.261836"></polygon>
                    <path d="M115,53.1201275 L115,56.8798705 C115,57.9732982 115.400654,59.0218829 116.113719,59.7946732 C116.826784,60.5674635 117.793772,61.0010726 118.801703,61 L127.200163,61 C129.297175,60.997768 130.996914,59.1547563 131,56.8798705 L131,53.1201275 C131,50.8446439 129.299591,49 127.20203,49 L118.803569,49 C116.706254,49.0022273 115.00598,50.8449143 115.001866,53.1201275 L115,53.1201275 Z" id="Path" fill="#ABC9CE"></path>
                    <path d="M116,51.8391815 C116,56.3478412 121.063763,60 127.301566,60 C128.251698,60.0015169 129.200268,59.9147995 130.137273,59.7407424 C130.69712,58.9892601 131.002237,58.0452763 131,57.0716324 L131,53.2203992 C131,50.8895436 129.291249,49 127.183412,49 L118.74381,49 C117.842641,48.9976524 116.970226,49.3505993 116.283197,49.995484 C116.095342,50.5879614 115.999589,51.2113428 116,51.8391815 Z" id="Path" fill="#E5F5F6"></path>
                    <path d="M34.2052518,82 C33.9182778,82 33.6434988,81.8846778 33.4436606,81.6799779 L12.3003448,60.0449627 C12.0202665,59.7588027 11.9269014,59.3399268 12.0591759,58.9629754 C12.1914505,58.586024 12.5266583,58.3157048 12.9250424,58.264721 L14.9784467,58.002188 C15.0233873,57.9992707 15.0684716,57.9992707 15.1134122,58.002188 C15.3866264,58.0019091 15.6492882,58.1070188 15.8460823,58.2953818 L38.6726112,80.039626 C38.9802277,80.3321373 39.0820155,80.779133 38.9311046,81.174786 C38.7801938,81.570439 38.4058437,81.8380376 37.9804308,81.8543612 L34.2380292,82 L34.2052518,82 Z" id="Path" fill="#040B11"></path>
                    <path d="M15.1520479,59.1097579 L37.8871659,80.7586207 L34.16101,80.903595 L13.1075574,59.3653705 L15.1520479,59.1097579 M15.1520479,57.0114453 C15.0621851,57.0114798 14.9724162,57.0172142 14.8832886,57.0286134 L12.8387981,57.2880411 C12.0475619,57.3905204 11.3820273,57.9274165 11.1185215,58.6758125 C10.8550157,59.4242085 11.0385442,60.2562817 11.5929067,60.8265591 L32.6463594,82.362876 C33.0438369,82.7699328 33.5902198,83 34.16101,83 L34.2435575,83 L37.9697134,82.8569332 C38.8168459,82.8244351 39.5622959,82.2916795 39.8628074,81.5039834 C40.163319,80.7162873 39.960627,79.8263742 39.3480647,79.2440205 L16.6129467,57.5837124 C16.2199252,57.2092669 15.6965362,57 15.1520479,57 L15.1520479,57.0114453 Z" id="Shape" fill="#000000"></path>
                    <path d="M5.81079404,61 C3.15556564,60.9959251 1.00409916,58.8572158 1,56.2177316 L1,52.7822684 C1.00307664,50.1423624 3.15514129,48.0030584 5.81079404,48 L14.1854839,48 C16.8425901,48.0010188 18.9969201,50.1409191 19,52.7822684 L19,56.2177316 C18.9958962,58.8586583 16.8421657,60.997963 14.1854839,61 L5.81079404,61 Z" id="Path" fill="#040B11"></path>
                    <path d="M14.1756405,49.0302695 C16.2621009,49.0322999 17.9535759,50.7121338 17.957668,52.786268 L17.957668,56.213732 C17.957668,57.2105247 17.5590876,58.1664374 16.8497129,58.87093 C16.1403382,59.5754226 15.178355,59.9707102 14.1756405,59.9697323 L5.82064612,59.9697323 C3.73521279,59.9666811 2.04539954,58.2868483 2.04233197,56.213732 L2.04233197,52.786268 C2.04233197,51.7901153 2.44040321,50.8347623 3.14897456,50.130376 C3.85754592,49.4259896 4.8185749,49.0302695 5.82064612,49.0302695 L14.1756405,49.0302695 M14.1756405,47 L5.82064612,47 C2.60768837,47.0040675 0.00409164171,49.5922867 0,52.786268 L0,56.213732 C0.00307060061,59.4081344 2.60726478,61.9969475 5.82064612,62 L14.1756405,62 C17.3900483,61.9979666 19.9959046,59.4091528 20,56.213732 L20,52.786268 C19.9959046,49.5908472 17.3900483,47.0020334 14.1756405,47 L14.1756405,47 Z" id="Shape" fill="#000000"></path>
                    <path d="M5.71587765,60 C4.71006965,60.0011146 3.70593608,59.91775 2.71401498,59.7507697 C2.47053687,59.7088825 2.25024608,59.5805018 2.09345558,59.3891211 C1.38693788,58.5244181 1.00060115,57.4412954 1,56.3235401 L1,52.8438432 C1.00309005,50.1699468 3.16453598,48.0030981 5.83176525,48 L14.242962,48 C15.3843131,47.9995934 16.4889021,48.4045596 17.3607123,49.1430348 C17.5000404,49.2618693 17.6052155,49.4158216 17.6653845,49.5890056 C17.8892173,50.2348527 18.0023427,50.9140344 18,51.5977482 C18,53.9250414 16.6635175,56.0836902 14.2354854,57.6726955 C11.9476399,59.173631 8.92147819,60 5.71587765,60 Z" id="Path" fill="#040B11"></path>
                    <path d="M14.2164706,49.0522151 C15.1115834,49.049779 15.978191,49.3673272 16.6603922,49.9477473 C16.8488749,50.480405 16.945869,51.0412026 16.9472549,51.6063216 C16.9472549,55.6622726 11.9178431,58.947725 5.72421569,58.947725 C4.7799079,58.9491656 3.8371472,58.8711552 2.90588235,58.714497 C2.35052047,58.0380791 2.04756542,57.1891359 2.0490144,56.3133889 L2.0490144,52.848853 C2.0490144,51.8419257 2.44839434,50.8762396 3.15928591,50.1642345 C3.87017749,49.4522294 4.83435337,49.0522151 5.83970588,49.0522151 L14.2220588,49.0522151 M14.2220588,47 L5.83970588,47 C2.61622727,47.0041115 0.00410503983,49.6203252 0,52.848853 L0,56.3133889 C0.000645250977,57.6637604 0.467948559,58.9722815 1.32254902,60.0167296 C1.63551938,60.3982078 2.07531586,60.653888 2.56127451,60.7368755 C3.60752268,60.9139406 4.66686376,61.0019412 5.72794118,60.9999675 C9.11813725,60.9999675 12.335098,60.1174754 14.7846078,58.5167367 C17.5023529,56.73876 19,54.2854134 19,51.6137842 C18.9982032,50.8174319 18.8621737,50.027099 18.5976471,49.2761087 C18.4774286,48.9319251 18.2678212,48.6260372 17.9903922,48.3899188 C16.9367045,47.4965825 15.6007078,47.006699 14.2201961,47.0074627 L14.2220588,47 Z" id="Shape" fill="#000000"></path>
                    <polygon id="Path" fill="#ABC9CE" points="15.0626743 59 38 80.8556051 34.2407034 81 13 59.261836"></polygon>
                    <path d="M18,53.1201275 L18,56.8798705 C18,57.9732982 17.5992992,59.0218829 16.8861509,59.7946732 C16.1730026,60.5674635 15.205902,61.0010726 14.1978535,61 L5.79841344,61 C3.70188634,60.9966529 2.00308389,59.1539671 2,56.8798705 L2,53.1201275 C2,52.0274018 2.40018884,50.9794312 3.11252954,50.2067574 C3.82487024,49.4340836 4.79101156,49 5.79841344,49 L14.1978535,49 C16.2954131,49.0022273 17.9958861,50.8449143 18,53.1201275 Z" id="Path" fill="#ABC9CE"></path>
                    <path d="M17,51.8391838 C17,56.3478409 11.936235,60 5.7003037,60 C4.74954609,60.0016014 3.80034613,59.9148839 2.86272055,59.7407402 C2.30356542,58.9888238 1.99854113,58.0451255 2,57.0716318 L2,53.2204008 C2,52.101085 2.40210779,51.0276136 3.11785491,50.2361378 C3.83360202,49.4446621 4.80436344,49 5.81658272,49 L14.2561889,49 C15.1574156,48.9972921 16.0299423,49.3502835 16.716803,49.9954873 C16.9046582,50.5879644 17.0004108,51.2113454 17,51.8391838 L17,51.8391838 Z" id="Path" fill="#E5F5F6"></path>
                    <path d="M47.1486437,66.9867786 C34.0655915,66.9797432 23.4134046,56.5181743 23.2338881,43.4999709 L23.0023325,26.7069507 C22.8197193,13.5574965 33.3826349,2.74999314 46.5963267,2.56662986 L87.5114366,2 L87.845484,2 C100.930035,2.00287666 111.586217,12.4633655 111.767832,25.4830302 L111.997489,42.2930493 C112.187289,55.423752 101.592672,66.2539374 88.399699,66.4333701 L47.484589,67 L47.1486437,66.9867786 Z" id="Path" fill="#FFD000"></path>
                    <path d="M87.3524886,2.96400078 C99.6313209,2.96022017 109.633549,12.7832349 109.800755,25.0087566 L110.032357,41.817363 C110.113459,47.7461964 107.825557,53.4641994 103.672127,57.7130705 C99.518697,61.9619417 93.8400877,64.3935108 87.8859316,64.4726878 L46.9626937,65.0397798 L46.6475637,65.0397798 C34.3717085,65.0367497 24.3757769,55.213829 24.2106871,42.9912434 L23.9790856,26.1845273 C23.8091133,13.8418292 33.7187754,3.69839167 46.1141207,3.52731215 L87.0373586,2.96022017 C87.1436675,2.96022017 87.2499764,2.96022017 87.3524886,2.96022017 M87.3524886,0 L87.3524886,0 C87.2328911,0 87.1151919,0 86.9955944,0 L46.0723565,0.567091986 C39.330556,0.658707478 32.9015062,3.41368612 28.1998479,8.22582548 C23.4981897,13.0379648 20.9091564,19.5129793 21.0024359,26.226114 L21.2340375,43.0328302 C21.4250408,56.8742122 32.7458018,67.9961384 46.6475637,68 C46.7671612,68 46.8867588,68 47.0044579,68 L87.9276958,67.432908 C94.6688293,67.3412878 101.097298,64.58683 105.798847,59.7755113 C110.500396,54.9641926 113.08988,48.4901511 112.997616,41.7776666 L112.766015,24.9709504 C112.572977,11.1304322 101.25341,0.00967996758 87.3524886,0.00378061324 L87.3524886,0 Z" id="Shape" fill="#040B11"></path>
                    <path d="M84.3076791,62.5444391 L51.3092034,62.9983223 C46.5508244,63.0631992 41.9614592,61.2441573 38.5508149,57.9414043 C35.1401707,54.6386513 33.1876601,50.1227611 33.1228554,45.3872755 L33.0017392,36.5544438 C32.9355308,31.8199584 34.7620027,27.2532318 38.0793098,23.8589975 C41.3966168,20.4647633 45.9329905,18.5210918 50.6903755,18.4556137 L83.6888512,18.0017305 C88.4465539,17.9358431 93.0356468,19.7537832 96.4463485,23.0555322 C99.8570502,26.3572812 101.809902,30.8723076 101.875199,35.6071273 L101.998208,44.439959 C102.065429,49.1755915 100.239208,53.7437666 96.9214368,57.1391718 C93.6036661,60.534577 89.066231,62.4789658 84.3076791,62.5444391 L84.3076791,62.5444391 Z" id="Path" fill="#040B11"></path>
                    <path d="M68.4044531,111.994342 C59.7729614,111.994342 52.7313822,108.880423 47.4775126,102.74123 C43.7099475,98.3278012 40.9389033,92.4752929 39.2736395,85.3421358 C38.5551932,82.2640127 39.2684546,79.0257336 41.213347,76.535668 C43.1582393,74.0456025 46.1252769,72.571957 49.2821763,72.5281038 L87.4193544,72 L87.5662894,72 C90.701707,71.9984964 93.6714089,73.4095008 95.6530325,75.8422826 C97.6346561,78.2750644 98.4178779,81.4714153 97.7858099,84.5462098 C96.2995054,91.79819 93.6622098,97.7714074 89.9492744,102.303659 C84.7782912,108.614485 77.7046877,111.879291 68.899888,112 C68.7378827,111.994342 68.5721098,111.994342 68.4044531,111.994342 Z" id="Path" fill="#FFD000"></path>
                    <path d="M87.0788496,72.9628475 C89.7699618,72.9624241 92.3186525,74.1742469 94.020019,76.2631566 C95.7213854,78.3520663 96.3951049,81.0966656 95.8548437,83.7378683 C93.6250325,94.6261912 87.1467052,109.786 68.3789706,110.044706 L67.9002114,110.044706 C49.4924885,110.044706 42.6975017,95.2361337 40.1924983,84.5026569 C39.5764985,81.8562723 40.1903882,79.0727777 41.8620053,76.9327879 C43.5336225,74.7927981 46.0829646,73.5267509 48.7950835,73.4897018 L86.9582174,72.9609591 L87.0845043,72.9609591 M87.0845043,70 L86.9167501,70 L48.755501,70.5287427 C45.1476764,70.5758297 41.75564,72.2588637 39.5316722,75.1053497 C37.3077045,77.9518358 36.491575,81.6548895 37.312404,85.1749155 C39.0370678,92.5395459 41.9058528,98.6181986 45.8377092,103.220148 C48.3265999,106.169985 51.409807,108.559388 54.8851258,110.231654 C58.7397022,112.067147 63.1163899,113 67.890787,113 C68.0641958,113 68.2376047,113 68.4128984,113 C73.2777696,112.932019 77.707234,111.925519 81.5787743,110.00505 C85.0718165,108.260122 88.1510926,105.785574 90.609227,102.748057 C94.4769975,98.0271398 97.2194957,91.8276316 98.7575565,84.3251504 C99.4758651,80.8129872 98.5793643,77.1634007 96.3161442,74.386347 C94.0529242,71.6092932 90.6630123,69.9992945 87.0845043,70.0018884 L87.0845043,70 Z" id="Shape" fill="#040B11"></path>
                    <ellipse id="Oval" fill="#FFD000" transform="translate(54.179455, 40.462004) rotate(-0.790000) translate(-54.179455, -40.462004) " cx="54.1794551" cy="40.4620041" rx="2.41073946" ry="9.06788414"></ellipse>
                    <ellipse id="Oval" fill="#FFD000" transform="translate(80.817546, 40.092858) rotate(-0.790000) translate(-80.817546, -40.092858) " cx="80.8175463" cy="40.0928578" rx="2.41073946" ry="9.06788414"></ellipse>
                    <polygon id="Rectangle" fill="#040B11" transform="translate(29.198045, 38.633901) rotate(-0.790000) translate(-29.198045, -38.633901) " points="20.3758052 29.8116611 38.0202853 29.8116611 38.0202853 47.4561413 20.3758052 47.4561413"></polygon>
                    <polygon id="Rectangle" fill="#040B11" transform="translate(103.515554, 37.605522) rotate(-0.790000) translate(-103.515554, -37.605522) " points="94.6933137 28.7832815 112.337794 28.7832815 112.337794 46.4277616 94.6933137 46.4277616"></polygon>
                    <path d="M20.5472909,48 C14.815643,47.9757169 10.1533929,43.364938 10.050793,37.6193836 L10.0006996,34.1424372 C9.93959204,29.1863607 13.8894295,25.1149003 18.8325546,25.0386327 L21.6820995,25 L22,47.9748887 L20.6898644,47.9942051 L20.5472909,48 Z" id="Path" fill="#FFD000"></path>
                    <path d="M20.1924187,26.5877656 L20.4597196,46.4291849 L20.3362081,46.4291849 C15.5304831,46.4286843 11.6152974,42.486575 11.5447731,37.577294 L11.4986868,34.1872081 C11.4701356,32.2043606 12.214721,30.291337 13.5682545,28.8699773 C14.9217881,27.4486176 16.7731036,26.6356588 18.7139681,26.6103661 L20.1887317,26.5877656 M22.6626478,24 L20.1610799,24.0357842 L18.6863162,24.0583848 C13.2652272,24.1399932 8.93210326,28.6899843 9.0008058,34.2286425 L9.04873562,37.6187283 C9.13735256,43.9260174 14.1638403,48.9934477 20.3380516,49 L20.4984321,49 L23,48.9642158 L22.9668178,46.4084677 L22.6976734,26.5670484 L22.6626478,24 Z" id="Shape" fill="#040B11"></path>
                    <path d="M113,22.0385938 L115.854952,22 L115.980424,22 C120.879028,22.0192074 124.8637,25.9494132 124.948719,30.8457085 L124.998907,34.3191543 C125.039113,37.1084042 123.968351,39.7991949 122.022543,41.7986573 C120.076735,43.7981197 117.415551,44.9421833 114.625335,44.9787734 L113.314643,45 L113,22.0385938 Z" id="Path" fill="#FFD000"></path>
                    <path d="M116.122317,23.5573956 C120.128529,23.5590466 123.39109,26.8394967 123.4476,30.9228453 L123.495598,34.3101242 C123.562328,39.2680904 119.67357,43.3424872 114.809748,43.4106135 L114.542065,23.5856229 L116.018936,23.563041 L116.120471,23.563041 M116.120471,21.0075273 L115.982015,21.0075273 L114.505143,21.0301091 L112,21.0658638 L112.035076,23.6194957 L112.302759,43.4463681 L112.337834,46 L114.842978,45.9642454 C117.843253,45.9226104 120.704358,44.6674787 122.796611,42.4750829 C124.888865,40.2826872 126.0408,37.3327025 125.998895,34.2743696 L125.952743,30.8870907 C125.87906,25.4066517 121.501044,21.002572 116.124164,21 L116.120471,21.0075273 Z" id="Shape" fill="#040B11"></path>
                    <g id="Group" opacity="0.34" transform="translate(11.000000, 25.000000)" fill="#040B11">
                        <path d="M0,12.3638667 C0,12.3638667 2.92608326,15.7840234 6.35785896,16.1184388 L6.13967715,1.33006096 L12,0 L11.3413764,24 C11.3413764,24 0.163126593,23.4432745 0.0836023789,17.9197213 L0,12.3638667 Z" id="Path"></path>
                    </g>
                    <g id="Group" opacity="0.34" transform="translate(112.000000, 24.000000)" fill="#040B11">
                        <path d="M2.39243545,0.0224155842 L3.8208232,0 L4.03508137,16.3278851 C4.03508137,16.3278851 10.1950036,16.4194154 10.8574184,5.91958218 C11.5198332,-4.58025103 13,12.885225 13,12.885225 C13,12.885225 6.0366097,22.8246686 1.75144645,21.9448569 C-2.53371681,21.0650452 2.39243545,0.0224155842 2.39243545,0.0224155842 Z" id="Path"></path>
                    </g>
                    <g id="Group" opacity="0.34" transform="translate(50.000000, 32.000000)" fill="#040B11">
                        <path d="M4.30941441,0 C4.30941441,0 7.46895671,17.8708399 1.93197812,16.4594357 C-3.60500046,15.0480315 4.14345027,25.7424968 7.88386705,22.3210257 C11.6242838,18.8995546 10.3899255,0.221656765 4.30941441,0 Z" id="Path"></path>
                    </g>
                    <g id="Group" opacity="0.34" transform="translate(77.000000, 31.000000)" fill="#040B11">
                        <path d="M4.30793996,0 C4.30793996,0 7.46976167,17.8735385 1.9324243,16.4620708 C-3.60491307,15.0506031 4.14196507,25.7360767 7.88262422,22.3239246 C11.6232834,18.9117725 10.3929945,0.221666738 4.30793996,0 Z" id="Path"></path>
                    </g>
                    <path d="M76.5724471,101.769001 L59.743126,101.999393 C58.013068,102.022969 56.3445765,101.359381 55.105171,100.154798 C53.8657655,98.9502152 53.1571164,97.3034509 53.135318,95.5772387 L53.0006219,85.8201726 C52.9513986,82.2272668 55.8304453,79.2747222 59.4314006,79.2252254 L76.2568733,79.000594 C79.8570868,78.9525511 82.8150696,81.8248474 82.8646812,85.4169881 L82.9993774,95.1740542 C83.0486103,98.7654816 80.1718912,101.717406 76.5724471,101.769001 L76.5724471,101.769001 Z" id="Path" fill="#040B11"></path>
                    <path d="M64.4168141,87.9546549 L61.0964596,88 L61,81.0415865 L64.2388997,81.0003636 C65.662215,80.9818134 66.5539306,81.6743569 66.5667919,82.7667619 L66.5667919,82.7894344 C66.600015,83.4179455 66.250256,84.0077001 65.6707892,84.3002511 C66.4831936,84.5970555 66.9890707,85.0587511 66.9997884,85.9945094 L66.9997884,86.0151208 C67.0169368,87.2827228 65.9901777,87.9340435 64.4168141,87.9546549 Z M65.047017,83.0429548 C65.047017,82.5853814 64.6761833,82.331861 64.0288321,82.3421667 L62.5133443,82.3627781 L62.5369233,83.832372 L63.953808,83.8158829 C64.6311689,83.8055771 65.0577347,83.5809127 65.0491606,83.0635662 L65.047017,83.0429548 Z M65.4757264,85.8193123 C65.4757264,85.3514332 65.1156105,85.0690569 64.3267852,85.0793626 L62.5540717,85.1040963 L62.5755071,86.6334632 L64.3996658,86.6087295 C65.0791702,86.6087295 65.4714393,86.3572703 65.4714393,85.8419849 L65.4757264,85.8193123 Z" id="Shape" fill="#FFF3D4"></path>
                    <polygon id="Path" fill="#FFBE00" points="69.0910891 88 69 81.0697947 73.8633663 81 73.8792079 82.3568915 70.4257426 82.4061584 70.4455446 83.8102639 73.4871287 83.7692082 73.5029703 85.1260997 70.4633663 85.1671554 70.4831683 86.6225806 73.9841584 86.5733138 74 87.9302053"></polygon>
                    <path d="M64.3415032,97.9996314 C62.3895439,98.0266466 61.0263657,96.5657478 61.0004194,94.5645449 L61.0004194,94.5479202 C60.9724773,92.6256849 62.3436389,91.0297101 64.2397139,91.0006168 C65.3673796,90.983992 66.0539583,91.3040182 66.7125949,91.8921183 L65.8603591,93.0371472 C65.3693755,92.6069821 64.936272,92.3638453 64.2137676,92.3742357 C63.2158334,92.3887824 62.417486,93.3571734 62.4414364,94.5084365 L62.4414364,94.5271393 C62.4574034,95.7615261 63.2557508,96.66134 64.3654536,96.6467934 C64.8278213,96.6579272 65.2811029,96.5120368 65.6567805,96.2311749 L65.6428094,95.264862 L64.2576767,95.287721 L64.2397139,94.001382 L66.9620785,93.9618982 L67,96.9003206 C66.2746917,97.5961208 65.3276702,97.9877221 64.3415032,97.9996314 L64.3415032,97.9996314 Z" id="Path" fill="#FFBE00"></path>
                    <path d="M72.539204,97.9984026 C71.6053324,98.0267992 70.700142,97.6755918 70.0324043,97.0257824 C69.3646667,96.3759729 68.9920376,95.4836692 69.0004597,94.5546707 L69.0004597,94.5359094 C68.9802373,93.2929218 69.62844,92.1336261 70.7008961,91.494718 C71.7733522,90.8558099 73.1071301,90.8343547 74.1998086,91.4384343 C75.292487,92.0425139 75.9780622,93.1803542 75.9982845,94.4233419 L75.9982845,94.4400186 C76.027746,95.3718393 75.6766959,96.2758502 75.0250835,96.9461691 C74.3734711,97.616488 73.4767723,97.9960464 72.539204,97.9984026 Z M74.4825783,94.4546107 C74.4637106,93.2914131 73.6251456,92.3304201 72.4595403,92.3491814 C71.2939349,92.3679426 70.4993946,93.326851 70.5140695,94.4900486 L70.5140695,94.5067253 C70.5308408,95.6699228 71.3694058,96.6309158 72.5350111,96.6121546 C73.7006165,96.5933933 74.4951568,95.6344849 74.4825783,94.4712873 L74.4825783,94.4546107 Z" id="Shape" fill="#FFF3D4"></path>
                    <g id="Group" opacity="0.34" transform="translate(41.000000, 72.000000)" fill="#040B11">
                        <path d="M30.3059553,0.140319917 C30.3059553,0.140319917 45.1112547,2.22061303 46.530941,8.98250272 C48.0375468,16.1379614 44.8466329,29.9972115 31.1906033,32.9096218 C11.5834808,37.0908236 0,21.3743028 0,21.3743028 C0,21.3743028 3.24113404,37.9135701 22.8405304,39.7877081 C42.4399267,41.661846 49.4707538,30.5107253 49.4707538,30.5107253 C49.4707538,30.5107253 59.2347184,14.8035752 56.5247595,6.63795616 C53.8148006,-1.52766285 30.3059553,0.140319917 30.3059553,0.140319917 Z" id="Path"></path>
                    </g>
                    <g id="Group" opacity="0.34" transform="translate(41.000000, 1.000000)" fill="#040B11">
                        <path d="M20.1798339,0.622133693 C20.1798339,0.622133693 42.3387525,0.760743552 52.1639692,8.68239193 C61.9891859,16.6040403 58.514877,46.5171871 57.6306454,52.6501987 C56.7464139,58.7832102 15.9142705,65.941555 0,64.5079873 C0,64.5079873 38.2781183,67.0466364 49.6384066,65.5010415 C60.9986948,63.9554466 71.1426903,55.5780946 70.9984808,45.0760243 C70.8542714,34.5739541 70.193944,16.905944 70.193944,16.905944 C70.193944,16.905944 62.351607,0.882264524 49.8490282,0.217696708 C37.3464495,-0.446871109 20.1798339,0.622133693 20.1798339,0.622133693 Z" id="Path"></path>
                    </g>
                    <polygon id="Rectangle" fill="#040B11" transform="translate(67.804058, 75.422672) rotate(-0.790000) translate(-67.804058, -75.422672) " points="61.1535784 71.5037921 74.4545382 71.5037921 74.4545382 79.3415517 61.1535784 79.3415517"></polygon>
                    <path d="M30.1188666,20.5434822 C29.3308893,21.5483736 27.6503875,20.7473471 28.0647047,19.5620443 C28.8817229,17.2166964 30.3221531,14.579082 32.8603304,12.4412072 C38.9821585,7.29046232 47.3807956,7.18041138 47.3807956,7.18041138 L62,7 C62,7 40.6665325,7.10103037 30.1188666,20.5434822 Z" id="Path" fill="#F9CF70"></path>
                    <path d="M49,76 C49,76 43.8773081,76.2272877 42.3154429,79.9272329 C40.7535777,83.6271781 45.4994625,93 45.4994625,93 C45.4994625,93 41.1793696,82.5000548 49,76 Z" id="Path" fill="#F9CF70"></path>
                    <path d="M14.9580674,28 C14.9580674,28 11.8323419,29.2988691 12.007061,34 C12.007061,34 12.7531118,31.4371567 15,30.977706 L14.9580674,28 Z" id="Path" fill="#F9CF70"></path>
                    <path d="M117.000097,27.3515778 C116.993446,26.8321226 117.330253,26.3563425 117.863736,26.1315838 C118.397219,25.9068251 119.03072,25.9738102 119.488158,26.3033469 C120.106141,26.7686469 120.666053,27.2902812 121.158465,27.8594638 C123.461662,30.4790864 120.566898,36.3140476 118.113635,38 C118.113635,38 120.097124,32.0294753 117.896147,29.5645097 C117.33201,28.9323505 117.020906,28.1545923 117.010971,27.3515778 L117.000097,27.3515778 Z" id="Path" fill="#F9CF70"></path>
                    <path d="M39.4635119,30.9998203 C38.9485733,31.0079825 38.4684761,30.7375605 38.2041951,30.290491 C37.939914,29.8434216 37.9316331,29.2876819 38.182474,28.8327605 C39.2814677,26.8511958 40.7645454,25.1143339 42.5428936,23.7261858 C46.6625308,20.5165019 53,21.0302036 53,21.0302036 C53,21.0302036 43.5060234,22.8452826 41.2374013,29.7117611 C40.975366,30.4776657 40.2647988,30.9936238 39.4635119,30.9998203 L39.4635119,30.9998203 Z" id="Path" fill="#FFF3D4"></path>
                    <path d="M97.5360399,51.0002163 C98.0509363,50.9912562 98.5313269,51.2612542 98.795764,51.7082298 C99.0602012,52.1552053 99.0683808,52.711033 98.8172133,53.1657717 C97.7194614,55.149202 96.236029,56.8872623 94.4563321,58.2751886 C90.3381401,61.4835599 84,60.9697637 84,60.9697637 C84,60.9697637 93.4931004,59.1543508 95.763844,52.2866095 C96.0234573,51.519817 96.7347504,51.0035069 97.5360399,51.0002163 L97.5360399,51.0002163 Z" id="Path" fill="#FFF3D4"></path>
                    <path d="M115,83 L115,120.789563 C115,122.561907 113.536526,123.998967 111.730551,124 L25.2713568,124 C23.4646363,124 22,122.562638 22,120.789563 L22,83 L115,83 Z" id="Path" fill="#FFD000"></path>
                    <g id="Group" opacity="0.35" transform="translate(22.000000, 116.000000)" fill="#040B11">
                        <path d="M89.7305507,3.41860465 L3.27135678,3.41860465 C1.46463632,3.41860465 0,1.88804321 0,0 L0,5.58139535 C0,7.46943856 1.46463632,9 3.27135678,9 L89.7305507,9 C91.5365262,8.99889955 93,7.46866038 93,5.58139535 L93,0 C93,1.88726503 91.5365262,3.41750421 89.7305507,3.41860465 Z" id="Path"></path>
                    </g>
                    <g id="Group" opacity="0.6" transform="translate(108.000000, 83.000000)" fill="#FFFFFF">
                        <path d="M3.43873745,0 L3.43873745,37.7895626 C3.43874035,39.5604474 1.90013657,40.9969022 0,41 L3.55523673,41 C5.45772695,41 7,39.5626382 7,37.7895626 L7,0 L3.43873745,0 Z" id="Path"></path>
                    </g>
                    <polygon id="Rectangle" fill="#FFD000" transform="translate(18.023497, 68.116764) rotate(145.890000) translate(-18.023497, -68.116764) " points="6.02597382 66.4029685 30.0210196 66.4029685 30.0210196 69.8305601 6.02597382 69.8305601"></polygon>
                    <path d="M9.777668,77 C9.59965102,76.9995783 9.42205636,76.9830363 9.24715828,76.950586 C8.14680939,76.7407489 7.28315083,75.9048144 7.05716741,74.8308956 C6.83118399,73.7569767 7.28714124,72.6554322 8.21334447,72.037694 L27.8907855,59 L31,63.5004751 L11.330332,76.530567 C10.8725365,76.8356119 10.3316162,76.9991539 9.777668,77 Z M27.3408432,61.7956921 L9.36764034,73.7025657 C9.03869463,73.9208905 8.952997,74.3586786 9.17622933,74.6803928 C9.39946165,75.002107 9.84709039,75.0859206 10.1760361,74.8675958 L28.1472957,62.9569211 L27.3408432,61.7956921 Z" id="Shape" fill="#040B11"></path>
                    <polygon id="Rectangle" fill="#FFD000" transform="translate(118.084344, 68.124204) rotate(34.110000) translate(-118.084344, -68.124204) " points="106.086821 66.410408 130.081867 66.410408 130.081867 69.8379996 106.086821 69.8379996"></polygon>
                    <path d="M126.217712,76.9962001 C125.663949,76.9970905 125.122726,76.834897 124.664439,76.5307156 L124.664439,76.5307156 L105,63.49905 L108.106546,59 L127.778752,72.0354655 C128.789075,72.7035675 129.235208,73.9388563 128.878234,75.0798052 C128.521261,76.2207542 127.444864,77 126.225478,77 L126.217712,76.9962001 Z M125.829394,74.8644712 C126.15777,75.0592576 126.584563,74.9677331 126.799595,74.6564143 C127.014628,74.3450954 126.94229,73.9234482 126.635154,73.6979101 L108.667666,61.7948068 L107.859964,62.961368 L125.819686,74.8644712 L125.829394,74.8644712 Z" id="Shape" fill="#040B11"></path>
                    <g id="Group" opacity="0.35" transform="translate(32.000000, 57.000000)" fill="#040B11">
                        <path d="M71,0 C70.8518783,1.76378837 70.2851571,3.47303481 69.34219,5 L1.66162104,5 C0.717801918,3.47313787 0.14980762,1.76398072 0,0 L71,0 Z" id="Path"></path>
                    </g>
                    <path d="M118.354049,82 L16.6517739,82 C16.0700047,82 15.5311632,81.6927927 15.233171,81.1914318 C14.9351787,80.6900709 14.9219687,80.0683909 15.1983932,79.5547409 L26.2467606,59 L108.751423,59 L117.632134,75.5246626 L119.799791,79.5489918 C120.077193,80.0619833 120.065648,80.6834813 119.769386,81.1857432 C119.473124,81.6880051 118.9357,81.9971901 118.354049,82 Z" id="Path" fill="#FFD000"></path>
                    <g id="Group" opacity="0.35" transform="translate(32.000000, 50.000000)" fill="#040B11">
                        <path d="M22.6156054,3.48826854 C20.5526572,1.59613116 16.1220501,-1.27424125 9.64363565,0.621680407 C3.82952839,2.32460405 1.53189616,5.80613683 0.627227128,8.42863924 C-0.633253157,12.0861408 0.188140903,15.6982311 1.48647345,17.5108987 C3.69326025,20.5837298 7.24569493,21 9.67202485,21 C10.184923,21 10.6467206,20.9810786 11.0347062,20.9659415 C11.2864238,20.9659415 11.5040743,20.9470202 11.6819799,20.9470202 C13.3645129,20.9470202 17.1364907,20.6158961 19.3754519,19.4087125 C21.6144131,18.2015288 21.7733926,14.5572722 21.6957955,12.6178314 C22.1008147,12.6386449 22.5758606,12.6594584 23.0546917,12.6727034 C25.2747267,12.7408203 26.3856906,12.7748788 26.5919854,11.7379875 C27.0310716,9.50337327 25.3220421,5.9612921 22.6156054,3.48826854 Z" id="Path"></path>
                        <path d="M69.3726106,8.42863924 C68.4698342,5.80802897 66.1722019,2.32460405 60.3562021,0.621680407 C53.8777876,-1.27045697 49.4471805,1.60369971 47.3842323,3.48826854 C44.6777956,5.9612921 42.9687661,9.50337327 43.4097449,11.7323111 C43.6160397,12.7692024 44.734574,12.7351439 46.9470387,12.667027 C47.4258698,12.653782 47.8933452,12.6329685 48.3059348,12.612155 C48.2283377,14.5515958 48.3986729,18.1996367 50.628171,19.4030361 C52.8576692,20.6064354 56.63911,20.9375595 58.3197504,20.9413437 C58.4976561,20.9413437 58.7153066,20.9413437 58.9670241,20.9602651 C59.3569024,20.9754022 59.8187,20.9943236 60.3297055,20.9943236 C62.757928,20.9943236 66.3103627,20.5837298 68.5171495,17.5071144 C69.8116968,15.7020153 70.6330909,12.0861408 69.3726106,8.42863924 Z" id="Path"></path>
                    </g>
                    <g id="Group" opacity="0.6" transform="translate(15.000000, 59.000000)" fill="#FFFFFF">
                        <path d="M1.03368224,23 L11.24445,3.90108049 L88.0591371,3.90108049 C90.5709106,3.90089921 92.9096143,5.19202607 94.2635104,7.32632549 L102.62958,20.5129408 L103.966318,23 C104.401977,22.8222455 104.742097,22.4659002 104.901701,22.0199945 C105.061306,21.5740888 105.025319,21.0807388 104.802734,20.6632046 L102.637218,16.6176397 L93.7536404,0 L11.2578173,0 L0.197266258,20.6632046 C-0.0253194079,21.0807388 -0.061305508,21.5740888 0.0982988262,22.0199945 C0.25790316,22.4659002 0.598023142,22.8222455 1.03368224,23 L1.03368224,23 Z" id="Path"></path>
                    </g>
                    <g id="Group" opacity="0.35" transform="translate(15.000000, 78.000000)" fill="#371A45">
                        <path d="M104.802902,2.23929035 L103.735353,0 C103.448378,0.568527903 102.913593,0.918158694 102.335508,0.91518823 L2.66386879,0.91518823 C2.08625177,0.918288868 1.55198163,0.568517491 1.26593352,0 L0.198384585,2.23929035 C-0.0780279114,2.8192038 -0.0648184953,3.52108351 0.233160891,4.08712246 C0.531140276,4.65316141 1.0699585,4.9999084 1.65170254,5 L103.349584,5 C103.93086,4.99863589 104.468829,4.65165571 104.76657,4.08607111 C105.06431,3.52048651 105.078104,2.81934189 104.802902,2.23929035 Z" id="Path"></path>
                    </g>
                    <path d="M118.362601,83 L17.6373993,83 C16.7089467,83.0009106 15.8485471,82.5072223 15.3725744,81.7004633 C14.8966017,80.8937043 14.8753186,79.8929675 15.3165509,79.0662296 L26.5406053,58 L109.457503,58 L120.683449,79.0662296 C121.124681,79.8929675 121.103398,80.8937043 120.627426,81.7004633 C120.151453,82.5072223 119.291053,83.0009106 118.362601,83 L118.362601,83 Z M27.7379134,60.0290962 L17.0794121,80.0271819 C16.9735037,80.2259475 16.9787078,80.4664409 17.0931132,80.6603265 C17.2075185,80.8542122 17.4142589,80.9728143 17.6373993,80.9728143 L118.362601,80.9728143 C118.585404,80.972234 118.791534,80.8532716 118.905481,80.659506 C119.019428,80.4657403 119.024446,80.2256473 118.918696,80.0271819 L108.262087,60.0271819 L27.7379134,60.0290962 Z" id="Shape" fill="#040B11"></path>
                    <path d="M111.72048,126 L25.2795198,126 C22.9165694,125.996831 21.0021011,124.072355 21,121.69811 L21,82 L116,82 L116,121.69811 C115.997899,124.072355 114.083431,125.996831 111.72048,126 L111.72048,126 Z M23.019613,84.0350144 L23.019613,121.69811 C23.0206645,122.951749 24.0318436,123.967761 25.2795198,123.968818 L111.72048,123.968818 C112.968156,123.967761 113.979335,122.951749 113.980387,121.69811 L113.980387,84.0292657 L23.019613,84.0350144 Z" id="Shape" fill="#040B11"></path>
                    <g id="Group" opacity="0.6" transform="translate(33.000000, 49.000000)" fill="#FFFFFF">
                        <path d="M0,11 C10.9844227,-2.43296615 24,7.33646378 24,7.33646378 L24,7.33646378 C21.9341577,3.13357361 16.5980408,-1.74707075 8.93207002,0.619980705 C3.09105508,2.42325465 0.632086077,7.08815743 0,11 Z" id="Path"></path>
                    </g>
                    <path d="M57.9502989,59.5407185 C57.8850297,59.8663956 52.8823411,59.5520793 52.8823411,59.5520793 C52.8823411,59.5520793 53.5772656,65.2324946 51.1450297,66.5295228 C49.1082482,67.6125886 45.5126857,67.9439462 43.8233664,67.9477331 C42.1340471,67.9515201 37.0046595,68.6369568 34.3094274,64.9295391 C32.0864368,61.8734757 31.5758016,52.6049314 42.0438221,49.5791635 C52.5118426,46.5533956 58.6183479,56.2063147 57.9502989,59.5407185 Z" id="Path" fill="#FFD000"></path>
                    <path d="M77.0497715,59.5407185 C77.1150605,59.8663956 82.1211955,59.5520793 82.1211955,59.5520793 C82.1211955,59.5520793 81.426059,65.2324946 83.8494354,66.5295228 C85.8868382,67.6125886 89.4834975,67.9439462 91.1752524,67.9477331 C92.8670072,67.9515201 97.9941189,68.6369568 100.690173,64.9295391 C102.913842,61.8734757 103.424633,52.6049314 92.9534192,49.5791635 C82.4822056,46.5533956 76.3815187,56.2063147 77.0497715,59.5407185 Z" id="Path" fill="#FFD000"></path>
                    <g id="Group" opacity="0.35" transform="translate(77.000000, 57.000000)" fill="#040B11">
                        <path d="M23.682425,7.82592045 C20.9946632,11.6518826 15.8591184,10.9539426 14.1696681,10.9441675 C12.4802178,10.9343925 8.88437656,10.5961751 6.84551727,9.47790715 C4.4150127,8.14067768 5.11767042,2.27368111 5.11767042,2.27368111 C5.11767042,2.27368111 0.114593855,2.60016842 0.0493196409,2.25999601 C-0.0620304898,1.68522194 0.0166825336,0.930586593 0.270100072,0.0840655956 C1.24729346,0.252196787 5.11767042,0 5.11767042,0 C5.11767042,0 6.56138246,4.71940344 8.25467237,6.10746327 C9.55823683,7.17490083 12.5992473,7.97059147 14.2906174,7.97645651 C15.9819875,7.98232155 21.019621,7.78095513 23.7150621,3.96085806 C24.2904693,3.11178864 24.6830251,2.14839104 24.86696,1.13390803 C25.2912424,3.87483745 24.6480994,6.45350072 23.682425,7.82592045 Z" id="Path"></path>
                    </g>
                    <g id="Group" opacity="0.35" transform="translate(33.000000, 57.000000)" fill="#040B11">
                        <path d="M1.31269601,7.82592045 C3.99992231,11.6518826 9.13444398,10.9539426 10.8235577,10.9441675 C12.5126713,10.9343925 16.1077962,10.5961751 18.1462493,9.47790715 C20.5762697,8.14067768 19.8833492,2.27368111 19.8833492,2.27368111 C19.8833492,2.27368111 24.885429,2.60016842 24.9506902,2.25999601 C25.0620181,1.68522194 24.9833208,0.930586593 24.7299537,0.0840655956 C23.752955,0.252196787 19.8833492,0 19.8833492,0 C19.8833492,0 18.4399248,4.71940344 16.7469722,6.10746327 C15.4436674,7.17490083 12.4090212,7.98036654 10.7122297,7.98036654 C9.01543825,7.98036654 3.98456673,7.78486515 1.28966265,3.96476809 C0.714370051,3.11569867 0.321892445,2.15230107 0.137994233,1.13781806 C-0.295800869,3.87483745 0.347213994,6.45350072 1.31269601,7.82592045 Z" id="Path"></path>
                    </g>
                    <path d="M41.7970765,69 C39.3379401,69 35.7402793,68.5893207 33.5053978,65.5120645 C32.1905361,63.7028044 31.3586849,60.0899618 32.6352124,56.4279133 C33.5513988,53.8048647 35.8763656,50.3226068 41.7664091,48.6193284 C48.3273005,46.7267969 52.8143139,49.6015523 54.9054423,51.4865136 C57.6444179,53.9581597 59.3752052,57.5028712 58.930529,59.7303808 L58.930529,59.7303808 C58.7216078,60.7693806 57.5888334,60.7334225 55.3482018,60.6766465 C54.8632747,60.6615063 54.3898478,60.642581 53.9720055,60.6217631 C54.0505905,62.5616079 53.8780868,66.2104086 51.6221215,67.4140586 C49.3661562,68.6177086 45.534657,68.9489016 43.8307036,68.9526867 C43.6505331,68.9526867 43.4281949,68.9526867 43.1732728,68.971612 C42.7803477,68.9810747 42.3145876,69 41.7970765,69 Z M45.9467492,50.0122316 C44.7260271,50.0201165 43.5126796,50.1998229 42.3433382,50.5459255 C37.2870626,52.0088523 35.3205202,54.9101031 34.5615039,57.0846218 C33.576316,59.9063862 34.134078,62.9306515 35.1614335,64.34248 C37.2295614,67.1812772 41.0476437,67.0431224 43.1004379,66.9617436 C43.3841107,66.9522809 43.631366,66.9428183 43.8307036,66.9409257 C45.5384904,66.9409257 48.9042296,66.5813448 50.6637675,65.6426491 C52.0380471,64.912132 52.0706312,61.304967 51.8712935,59.6736048 L51.723707,58.4756324 L52.9427333,58.5532262 C54.3725974,58.6421752 56.0458835,58.7046287 56.96782,58.6838109 C56.8240669,57.2928002 55.7334601,54.9403836 53.5503297,52.9702583 C51.4828298,51.0750431 48.7678673,50.0188391 45.9467492,50.0122316 Z" id="Shape" fill="#040B11"></path>
                    <g id="Group" opacity="0.6" transform="translate(78.000000, 49.000000)" fill="#FFFFFF">
                        <path d="M24,11 C13.0155773,-2.43296615 0,7.33646378 0,7.33646378 L0,7.33646378 C2.0658423,3.13357361 7.40195921,-1.74707075 15.06793,0.619980705 C20.9089449,2.42325465 23.3679139,7.08815743 24,11 Z" id="Path"></path>
                    </g>
                    <path d="M93.2011512,69 C92.6855687,69 92.2179027,68.9810827 91.8249867,68.9659489 C91.5700704,68.9659489 91.3477374,68.9470317 91.167571,68.9470317 C89.463657,68.9470317 85.6418297,68.6159795 83.3782499,67.4090579 C81.1146701,66.2021363 80.9479204,62.5586709 81.0265036,60.6196511 C80.6163376,60.6404601 80.135255,60.6593773 79.6503391,60.6745111 C77.4040093,60.7407216 76.277011,60.7747726 76.0700114,59.7286478 L76.0700114,59.7286478 C75.6234287,57.5020856 77.354176,53.9607734 80.0950051,51.4882867 C82.1860851,49.59656 86.6729947,46.724919 93.2337345,48.6223208 C99.1236419,50.3248748 101.450472,53.8056518 102.36472,56.4275849 C103.641218,60.0842924 102.809386,63.6955986 101.496472,65.5078727 C99.2578084,68.5894953 95.6602307,69 93.2011512,69 Z M83.2766667,58.4801083 L83.1290836,59.6756795 C82.9374173,61.3082396 82.9700005,64.9157622 84.3384984,65.644077 C86.0979956,66.5899403 89.4617404,66.938018 91.1694877,66.9418014 C91.3611541,66.9418014 91.6160703,66.9531518 91.8997366,66.9626104 C93.9524833,67.0439547 97.772394,67.1915093 99.8404741,64.3444608 C100.865889,62.9332327 101.425555,59.9102536 100.438473,57.0896892 C99.681391,54.9160953 97.7148941,52.0160784 92.6568187,50.5537737 C87.0505775,48.932564 83.2345001,51.3766748 81.4596696,52.9770755 C79.2765897,54.9463629 78.186008,57.2977791 78.0422583,58.6881982 C78.9565068,58.7090072 80.6278376,58.6465802 82.0576686,58.557669 L83.2766667,58.4801083 Z" id="Shape" fill="#040B11"></path>
                    <path d="M81.0518256,59.5357262 C81.1637203,59.1721653 81.2685106,58.7438321 81.3573159,58.3384826 C81.4461212,57.9331332 81.5242699,57.5027106 81.5793292,57.0994505 C81.6403953,56.69516 81.6730676,56.2856417 81.677015,55.8750444 C81.6886636,55.5004701 81.6472475,55.1262263 81.5544637,54.7676464 L81.5420309,54.7279473 C81.4651345,54.4643229 81.5681791,54.1747253 81.7817807,54.0541521 C81.9953823,53.9335788 82.2518856,54.0202197 82.3785769,54.255736 C82.6041127,54.7077018 82.7604165,55.2027565 82.8403645,55.7183372 C82.9218902,56.2005401 82.9705916,56.6896247 82.9860052,57.1809383 C83.0055424,57.6615073 83.0037663,58.1378974 82.9860052,58.612198 C82.9682442,59.0864987 82.9398265,59.5461733 82.881215,60.0539048 L82.881215,60.064352 C82.7991205,60.6603392 82.3282867,61.0708251 81.8197052,60.9898052 C81.3111238,60.9087853 80.9500472,60.3657715 81.0056469,59.7655635 C81.0143264,59.6872966 81.0298001,59.610282 81.0518256,59.5357262 Z" id="Path" fill="#371A45"></path>
                    <path d="M52.1209463,60.0920114 C52.0619298,59.5810839 52.0368926,59.1248236 52.015432,58.6412297 C51.9939715,58.1576358 51.9957599,57.6845548 52.015432,57.2009609 C52.0309522,56.7065546 52.07999,56.2143914 52.162079,55.7291533 C52.2425794,55.2103273 52.3999631,54.7121565 52.627057,54.2573458 C52.7546236,54.020347 53.0128991,53.9331608 53.2279764,54.054493 C53.4430538,54.1758252 53.5468103,54.4672456 53.4693826,54.7325293 L53.456864,54.7724784 C53.3634391,55.1333154 53.3217369,55.5099149 53.3334659,55.886847 C53.3377206,56.2999182 53.3700139,56.7119311 53.4300383,57.1189602 C53.4872664,57.5394766 53.5641666,57.959993 53.6553738,58.3657914 C53.7465811,58.7715898 53.8503069,59.2068243 53.9629747,59.570571 C54.1009397,60.136998 53.8422795,60.7322968 53.3710583,60.9328489 C52.8998371,61.1334011 52.3769984,60.8707089 52.1745976,60.3317058 C52.1518311,60.2596358 52.1356448,60.1849249 52.1263114,60.1088321 L52.1209463,60.0920114 Z" id="Path" fill="#371A45"></path>
                    <polygon id="Path" fill="#070C10" points="64.0932228 68 67.3228766 66.1015625 67.5010358 65.9971591 67.5238236 66.0120739 67.6771234 66.1015625 70.9067772 68 70.9067772 64.0838068 71 64.1392045 71 64.1392045 70.9067772 64.0838068 67.4678899 62 64 64.015625 64 64.1008523 64.0932228 64.0454545"></polygon>
                    <path d="M67.3498299,70 L69.6993504,68.7401392 L70,68.5783063 L67.0528921,67 L67.0528921,69.262181 C67.0528921,69.2833241 67.0346123,69.300464 67.0120631,69.300464 C67.0009168,69.3009396 66.9900485,69.2971171 66.9819853,69.2898855 C66.9739222,69.2826538 66.9693668,69.2726431 66.9693783,69.262181 L66.9693783,67 L64,68.587007 L66.611197,70 L66.9823693,69.8033643 L67.3498299,70 Z" id="Path" fill="#070C10"></path>
                    <path d="M67.8401464,70.3320186 L70,71.9433489 L70,68 L69.6558877,68.2323413 L67.3660769,69.7791323 L67.3660769,70.2653281 L67,70.508426 L67,74 L69.9560708,72.0337038 L67.7925564,70.4202223 C67.7805422,70.4115702 67.7735186,70.3958856 67.7742526,70.3793474 C67.772605,70.3708511 67.772605,70.362028 67.7742526,70.3535317 C67.7795203,70.3391984 67.7900235,70.3284365 67.8028231,70.3242577 C67.8156227,70.3200788 67.8293437,70.322932 67.8401464,70.3320186 L67.8401464,70.3320186 Z" id="Path" fill="#070C10"></path>
                    <polygon id="Path" fill="#070C10" points="73.9370881 69.8987276 70.5692031 68 70.5692031 68 70.5692031 68 70.5692031 71.9989613 70.5440383 72.013503 67.0838826 73.9517009 67.0146794 73.9953259 67 74.0036354 70.4119233 75.9709166 70.4643499 76 74 73.9413139 74 69.9340431"></polygon>
                    <polygon id="Path" fill="#070C10" points="63.4895272 72.0083247 63.4895272 68.049948 63.4874327 68.049948 63.4874327 68 60.0586475 69.9292404 60.0314183 69.9458897 60 74.0228928 63.5083782 76 63.5523639 75.9729448 67 74.0166493 66.9748654 74.0020812"></polygon>
                    <path d="M64.0298507,72.0165826 L64.0298507,72.0165826 L67,74 L67,70.4938717 L66.6268657,70.2494593 L66.6268657,69.7563086 L64,68 L64,71.925739 L65.9925373,70.2927181 C66.0048683,70.2830588 66.0207076,70.2817599 66.0340886,70.2893108 C66.0474696,70.2968616 66.0563594,70.312115 66.0574095,70.3293252 C66.0584595,70.3465354 66.0515101,70.3630876 66.0391791,70.3727469 L64.0298507,72.0165826 Z" id="Path" fill="#070C10"></path>
                    <path d="M70.8011172,64.7796002 L70.780097,64.7688365 L67.4971336,63 L61,66.501794 L61,73.498206 L67.4971336,77 L73.9770689,73.5107637 L74,73.498206 L74,66.501794 L70.8011172,64.7796002 Z M67.4971336,76.7990774 L64.3574893,75.1073808 L61.170072,73.3905689 L61.170072,66.5914915 L64.2982508,64.9069708 L64.3842422,64.860328 L67.4818462,63.2045105 L67.4971336,63.1955407 L70.6692636,64.9033829 L70.6692636,64.9033829 L70.755255,64.9500256 L70.755255,64.9500256 L73.8337498,66.5968734 L73.8337498,73.3959508 L70.6234014,75.1253203 L67.4971336,76.7990774 Z M64.2982508,64.8405946 L64.2982508,64.9123526 L64.3842422,64.8657099 L64.3842422,64.8405946 L64.2982508,64.8405946 Z" id="Shape" fill="#070C10"></path>
                    <path d="M112.137536,139 C111.801234,138.999329 111.46653,138.953901 111.142311,138.864919 C110.409953,138.657546 109.740983,138.271776 109.195798,137.742439 C107.224451,135.912225 106,132.225162 106,128.12906 L106,112.870937 C106,108.772933 107.224451,105.087773 109.199618,103.253754 C109.745012,102.725106 110.413965,102.34 111.146132,102.133176 C111.469271,102.045503 111.802622,102.000723 112.137536,102 L117.851003,102 C118.292992,102 118.731512,102.077703 119.146132,102.230204 C119.876573,102.497684 120.531728,102.936171 121.056351,103.50869 C122.897803,105.432127 124,108.932744 124,112.870937 L124,128.12906 C124,132.065352 122.897803,135.567871 121.054441,137.49321 C120.533432,138.063743 119.882161,138.500957 119.155683,138.767891 C118.741421,138.92191 118.302739,139.000529 117.860554,139 L112.137536,139 Z" id="Path" fill="#25272A"></path>
                    <path d="M117.794104,103.443609 C118.085389,103.442924 118.374354,103.495796 118.646795,103.59963 C119.178869,103.800207 119.655066,104.127122 120.034985,104.552637 C121.548185,106.15226 122.578132,109.315792 122.578132,112.962407 L122.578132,128.037586 C122.578132,131.6842 121.548185,134.847732 120.034985,136.447355 C119.655066,136.872871 119.178869,137.199785 118.646795,137.400362 C118.374354,137.504197 118.085389,137.557068 117.794104,137.556384 L112.213359,137.556384 C111.99206,137.555546 111.771843,137.525207 111.558448,137.466152 C111.035105,137.312916 110.557972,137.030584 110.170258,136.644724 C108.550704,135.124048 107.431197,131.840215 107.431197,128.037586 L107.431197,112.962407 C107.431197,109.159777 108.550704,105.875945 110.170258,104.353389 C110.558512,103.968652 111.035511,103.687046 111.558448,103.533841 C111.771843,103.474785 111.99206,103.444447 112.213359,103.443609 L117.794104,103.443609 M117.794104,101.000004 L112.213359,101.000004 C111.778405,101.000004 111.345435,101.059087 110.925926,101.17482 C110.01633,101.429905 109.184451,101.909994 108.505924,102.571435 C106.31169,104.639103 105,108.5188 105,112.962407 L105,128.037586 C105,132.481192 106.306092,136.366528 108.509656,138.432317 C109.186524,139.091255 110.015666,139.569952 110.922194,139.825173 C111.341043,139.941027 111.773412,139.999989 112.207762,139.999989 L117.788506,139.999989 C118.361522,140.000707 118.930109,139.898875 119.467768,139.699233 C120.355584,139.368835 121.152521,138.830163 121.792611,138.127806 C123.798395,136.007506 125,132.233072 125,128.037586 L125,112.962407 C125,108.765041 123.798395,104.992486 121.787014,102.866548 C121.148231,102.166594 120.353239,101.629872 119.467768,101.300759 C118.930109,101.101118 118.361522,100.999285 117.788506,101.000004 L117.794104,101.000004 Z" id="Shape" fill="#000000"></path>
                    <path d="M110,103 L110,138 C109.623004,137.841943 109.279294,137.550727 109,137.152725 L109,103.845336 C109.279684,103.448493 109.623296,103.158025 110,103 L110,103 Z" id="Path" fill="#393939"></path>
                    <path d="M119,103.98682 L119,137.01318 C118.726321,137.453793 118.383286,137.792306 118,138 L118,103 C118.383286,103.207694 118.726321,103.546207 119,103.98682 Z" id="Path" fill="#393939"></path>
                    <rect id="Rectangle" fill="#040B11" x="46" y="98" width="44" height="16" rx="8"></rect>
                    <path d="M51.5008606,113 L51.5008606,113 C51.3681826,113.000495 51.2407819,112.943466 51.1468025,112.841507 C51.0528232,112.739549 51,112.601052 51,112.456613 L51,100.543387 C51,100.398948 51.0528232,100.260451 51.1468025,100.158493 C51.2407819,100.056534 51.3681826,99.9995052 51.5008606,100 L51.5008606,100 C51.7765277,100 52,100.243285 52,100.543387 L52,112.456613 C52,112.600727 51.9474122,112.738939 51.8538055,112.840843 C51.7601987,112.942748 51.6332406,113 51.5008606,113 L51.5008606,113 Z" id="Path" fill="#FFD000"></path>
                    <path d="M54.5008606,113 L54.5008606,113 C54.3681826,113.000495 54.2407819,112.943466 54.1468025,112.841507 C54.0528232,112.739549 54,112.601052 54,112.456613 L54,100.543387 C54,100.398948 54.0528232,100.260451 54.1468025,100.158493 C54.2407819,100.056534 54.3681826,99.9995052 54.5008606,100 L54.5008606,100 C54.7765277,100 55,100.243285 55,100.543387 L55,112.456613 C55,112.756715 54.7765277,113 54.5008606,113 L54.5008606,113 Z" id="Path" fill="#FFD000"></path>
                    <path d="M57.5008606,113 L57.5008606,113 C57.3681826,113.000495 57.2407819,112.943466 57.1468025,112.841507 C57.0528232,112.739549 57,112.601052 57,112.456613 L57,100.543387 C57,100.398948 57.0528232,100.260451 57.1468025,100.158493 C57.2407819,100.056534 57.3681826,99.9995052 57.5008606,100 L57.5008606,100 C57.7765277,100 58,100.243285 58,100.543387 L58,112.456613 C58,112.756715 57.7765277,113 57.5008606,113 L57.5008606,113 Z" id="Path" fill="#FFD000"></path>
                    <path d="M59.5008606,113 L59.5008606,113 C59.3681826,113.000495 59.2407819,112.943466 59.1468025,112.841507 C59.0528232,112.739549 59,112.601052 59,112.456613 L59,100.543387 C59,100.398948 59.0528232,100.260451 59.1468025,100.158493 C59.2407819,100.056534 59.3681826,99.9995052 59.5008606,100 L59.5008606,100 C59.7765277,100 60,100.243285 60,100.543387 L60,112.456613 C60,112.600727 59.9474122,112.738939 59.8538055,112.840843 C59.7601987,112.942748 59.6332406,113 59.5008606,113 L59.5008606,113 Z" id="Path" fill="#FFD000"></path>
                    <path d="M62.5008606,113 L62.5008606,113 C62.3681826,113.000495 62.2407819,112.943466 62.1468025,112.841507 C62.0528232,112.739549 62,112.601052 62,112.456613 L62,100.543387 C62,100.398948 62.0528232,100.260451 62.1468025,100.158493 C62.2407819,100.056534 62.3681826,99.9995052 62.5008606,100 L62.5008606,100 C62.7765277,100 63,100.243285 63,100.543387 L63,112.456613 C63,112.756715 62.7765277,113 62.5008606,113 L62.5008606,113 Z" id="Path" fill="#FFD000"></path>
                    <path d="M65.5008606,113 L65.5008606,113 C65.3681826,113.000495 65.2407819,112.943466 65.1468025,112.841507 C65.0528232,112.739549 65,112.601052 65,112.456613 L65,100.543387 C65,100.398948 65.0528232,100.260451 65.1468025,100.158493 C65.2407819,100.056534 65.3681826,99.9995052 65.5008606,100 L65.5008606,100 C65.7765277,100 66,100.243285 66,100.543387 L66,112.456613 C66,112.600727 65.9474122,112.738939 65.8538055,112.840843 C65.7601987,112.942748 65.6332406,113 65.5008606,113 L65.5008606,113 Z" id="Path" fill="#FFD000"></path>
                    <path d="M68.5008606,113 L68.5008606,113 C68.3681826,113.000495 68.2407819,112.943466 68.1468025,112.841507 C68.0528232,112.739549 68,112.601052 68,112.456613 L68,100.543387 C68,100.398948 68.0528232,100.260451 68.1468025,100.158493 C68.2407819,100.056534 68.3681826,99.9995052 68.5008606,100 L68.5008606,100 C68.7765277,100 69,100.243285 69,100.543387 L69,112.456613 C69,112.756715 68.7765277,113 68.5008606,113 L68.5008606,113 Z" id="Path" fill="#FFD000"></path>
                    <path d="M71.5008606,113 L71.5008606,113 C71.3681826,113.000495 71.2407819,112.943466 71.1468025,112.841507 C71.0528232,112.739549 71,112.601052 71,112.456613 L71,100.543387 C71,100.398948 71.0528232,100.260451 71.1468025,100.158493 C71.2407819,100.056534 71.3681826,99.9995052 71.5008606,100 L71.5008606,100 C71.7765277,100 72,100.243285 72,100.543387 L72,112.456613 C72,112.756715 71.7765277,113 71.5008606,113 L71.5008606,113 Z" id="Path" fill="#FFD000"></path>
                    <path d="M74.5008606,113 L74.5008606,113 C74.3681826,113.000495 74.2407819,112.943466 74.1468025,112.841507 C74.0528232,112.739549 74,112.601052 74,112.456613 L74,100.543387 C74,100.398948 74.0528232,100.260451 74.1468025,100.158493 C74.2407819,100.056534 74.3681826,99.9995052 74.5008606,100 L74.5008606,100 C74.7765277,100 75,100.243285 75,100.543387 L75,112.456613 C75,112.756715 74.7765277,113 74.5008606,113 L74.5008606,113 Z" id="Path" fill="#FFD000"></path>
                    <path d="M77.5008606,113 L77.5008606,113 C77.3681826,113.000495 77.2407819,112.943466 77.1468025,112.841507 C77.0528232,112.739549 77,112.601052 77,112.456613 L77,100.543387 C77,100.398948 77.0528232,100.260451 77.1468025,100.158493 C77.2407819,100.056534 77.3681826,99.9995052 77.5008606,100 L77.5008606,100 C77.7765277,100 78,100.243285 78,100.543387 L78,112.456613 C78,112.756715 77.7765277,113 77.5008606,113 L77.5008606,113 Z" id="Path" fill="#FFD000"></path>
                    <rect id="Rectangle" fill="#FFD000" x="80" y="100" width="1" height="13" rx="0.5"></rect>
                    <path d="M82.5008606,113 L82.5008606,113 C82.3681826,113.000495 82.2407819,112.943466 82.1468025,112.841507 C82.0528232,112.739549 82,112.601052 82,112.456613 L82,100.543387 C82,100.398948 82.0528232,100.260451 82.1468025,100.158493 C82.2407819,100.056534 82.3681826,99.9995052 82.5008606,100 L82.5008606,100 C82.7765277,100 83,100.243285 83,100.543387 L83,112.456613 C83,112.756715 82.7765277,113 82.5008606,113 L82.5008606,113 Z" id="Path" fill="#FFD000"></path>
                    <path d="M84.5008606,113 L84.5008606,113 C84.3681826,113.000495 84.2407819,112.943466 84.1468025,112.841507 C84.0528232,112.739549 84,112.601052 84,112.456613 L84,100.543387 C84,100.398948 84.0528232,100.260451 84.1468025,100.158493 C84.2407819,100.056534 84.3681826,99.9995052 84.5008606,100 L84.5008606,100 C84.7765277,100 85,100.243285 85,100.543387 L85,112.456613 C85,112.600727 84.9474122,112.738939 84.8538055,112.840843 C84.7601987,112.942748 84.6332406,113 84.5008606,113 L84.5008606,113 Z" id="Path" fill="#FFD000"></path>
                    <path d="M46.3545486,98.8777541 C44.6874259,101.621097 39.80976,102.902946 36.8028493,101.293618 L36.7191125,101.248706 C32.4504411,98.8571696 30.2770917,89.0851792 33.6589148,86.6244041 C35.9616755,84.9402235 40.1389977,87.1595993 40.7517985,87.4945641 C44.7882906,89.7176826 48.5431228,95.2623796 46.3545486,98.8777541 Z" id="Path" fill="#9EC1C9"></path>
                    <path d="M44.4799452,98.2668161 C43.1468892,100.666483 39.2435736,101.790909 36.8472679,100.382036 C36.8241144,100.370019 36.8015962,100.356635 36.7798164,100.341946 C35.9952481,99.8608669 35.2976569,99.0399785 34.7243186,98.0320039 C32.7983989,94.6568162 32.2392609,89.208408 34.3302595,87.5456317 C36.1727523,86.0737597 39.5151549,88.0133472 40.0103914,88.3092489 C40.3705874,88.5280458 40.7168893,88.7723033 41.0470155,89.0404123 C43.8302801,91.2854466 46.0473066,95.4471599 44.4799452,98.2668161 Z" id="Path" fill="#CBE9EC"></path>
                    <path d="M42.4160982,97.1685931 C40.9370689,99.6121983 36.6620937,100.77761 33.9442022,99.4341218 C31.7726909,95.9359081 31.1422521,90.2889048 33.4998929,88.5655201 C35.5773387,87.0399982 39.3459615,89.0502839 39.9043502,89.3569711 C40.3104781,89.5837432 40.70094,89.836904 41.0731636,90.1147855 C42.7843545,92.3723997 43.6569618,95.1147776 42.4160982,97.1685931 Z" id="Path" fill="#E5F5F6"></path>
                    <path d="M91.6516145,98.8777541 C93.3179232,101.621097 98.1932078,102.902946 101.19865,101.293618 L101.282346,101.248706 C105.548934,98.8571696 107.723124,89.0851792 104.34105,86.6244041 C102.039414,84.9402235 97.8736417,87.1595993 97.2535314,87.4945641 C93.2037925,89.7176826 89.4507935,95.2623796 91.6516145,98.8777541 Z" id="Path" fill="#9EC1C9"></path>
                    <path d="M92.5197087,98.2668161 C93.8520972,100.666483 97.7534586,101.790909 100.159209,100.382036 C100.159209,100.382036 100.191144,100.364854 100.224853,100.341946 C101.010803,99.8608669 101.70627,99.0399785 102.281096,98.0320039 C104.204277,94.6568162 104.756039,89.208408 102.673184,87.5456317 C100.831613,86.0737597 97.490884,88.0133472 96.9958955,88.3092489 C96.6350485,88.5275778 96.2883015,88.7718536 95.9580163,89.0404123 C93.1690485,91.2854466 90.953132,95.4471599 92.5197087,98.2668161 Z" id="Path" fill="#CBE9EC"></path>
                    <path d="M94.5863692,97.1685931 C96.0637754,99.6121983 100.339846,100.77761 103.060435,99.4341218 C105.230501,95.9359081 105.853093,90.2889048 103.502856,88.5655201 C101.424878,87.0399982 97.6552903,89.0502839 97.0967587,89.3569711 C96.6895888,89.5832582 96.2983288,89.8364379 95.925644,90.1147855 C94.2120128,92.3723997 93.3431858,95.1147776 94.5863692,97.1685931 Z" id="Path" fill="#E5F5F6"></path>
                    <g id="Group" opacity="0.35" transform="translate(23.000000, 82.000000)" fill="#040B11">
                        <path d="M93,0 C93,0 56.9769254,29.4081926 0,35 L0,0 L93,0 Z" id="Path"></path>
                    </g>
                    <path d="M20.1427055,139 C19.8055879,138.999448 19.4700582,138.95402 19.1450414,138.864915 C18.4122946,138.657542 17.7429687,138.271772 17.1974942,137.742435 C15.2270121,135.912221 14,132.225159 14,128.129058 L14,112.870938 C14,108.772935 15.2270121,105.087775 17.2013166,103.253757 C17.7472432,102.725429 18.4164652,102.340373 19.1488639,102.133179 C19.4728009,102.045383 19.8069767,102.000603 20.1427055,102 L25.8572945,102 C26.299551,101.999397 26.7383678,102.077353 27.1531111,102.230207 C27.8805008,102.49903 28.5325965,102.93743 29.0547887,103.508693 C30.8991293,105.432129 32,108.932745 32,112.870938 L32,128.129058 C32,132.067251 30.8991293,135.567867 29.0528775,137.493206 C28.5315915,138.063739 27.8799746,138.500953 27.1531111,138.767887 C26.7387175,138.922227 26.2997437,139.000856 25.8572945,139 L20.1427055,139 Z" id="Path" fill="#25272A"></path>
                    <path d="M25.7959698,103.443612 C26.0872551,103.442928 26.3762199,103.495799 26.6486613,103.599634 C27.1807347,103.800211 27.6569318,104.127126 28.0368505,104.552641 C29.5519172,106.156023 30.5799981,109.315796 30.5799981,112.96241 L30.5799981,128.03759 C30.5799981,131.684204 29.5519172,134.847736 28.0368505,136.447359 C27.6569318,136.872874 27.1807347,137.199789 26.6486613,137.400366 C26.3762199,137.504201 26.0872551,137.557072 25.7959698,137.556388 L20.2170911,137.556388 C19.9957748,137.555794 19.7755262,137.525451 19.5621793,137.466156 C19.0380753,137.313426 18.5602198,137.031046 18.1721243,136.644727 C16.5525702,135.124052 15.4330628,131.840219 15.4330628,128.03759 L15.4330628,112.96241 C15.4330628,109.159781 16.5525702,105.875948 18.1721243,104.353393 C18.5608106,103.968263 19.0385131,103.686619 19.5621793,103.533844 C19.7755262,103.474549 19.9957748,103.444206 20.2170911,103.443612 L25.7959698,103.443612 M25.7959698,101.000006 L20.2170911,101.000006 C19.7828845,101.000453 19.350633,101.058598 18.9315235,101.172944 C18.0197088,101.428622 17.185866,101.910026 16.5059241,102.573319 C14.3116895,104.640987 13,108.518804 13,112.96241 L13,128.03759 C13,132.481196 14.306092,136.366532 16.5115216,138.43232 C17.1882347,139.091876 18.0173767,139.571219 18.9240601,139.827056 C19.3431696,139.941402 19.7754211,139.999547 20.2096278,139.999994 L25.7885064,139.999994 C26.3615361,140.000871 26.930151,139.899033 27.4677675,139.699237 C28.3560452,139.369749 29.1531817,138.830942 29.7926113,138.127809 C31.7983954,136.00751 33,132.233076 33,128.03759 L33,112.96241 C33,108.765044 31.7983954,104.99249 29.7870137,102.866552 C29.1485599,102.166211 28.3534688,101.629423 27.4677675,101.300763 C26.930151,101.100967 26.3615361,100.999129 25.7885064,101.000006 L25.7959698,101.000006 Z" id="Shape" fill="#000000"></path>
                    <path d="M20,103 L20,138 C19.6230035,137.841943 19.2792944,137.550727 19,137.152725 L19,103.845336 C19.2796838,103.448493 19.6232957,103.158025 20,103 Z" id="Path" fill="#393939"></path>
                    <path d="M29,103.98682 L29,137.01318 C28.7263207,137.453793 28.3832859,137.792306 28,138 L28,103 C28.3832859,103.207694 28.7263207,103.546207 29,103.98682 Z" id="Path" fill="#393939"></path>
                </g>
            </g>
        </g>
    </g>
</svg>