<?xml version="1.0" encoding="UTF-8"?>
<svg width="217px" height="183px" viewBox="0 0 217 183" version="1.1" xmlns="http://www.w3.org/2000/svg" xmlns:xlink="http://www.w3.org/1999/xlink">
    <title>D2E70EAB-8933-4BF1-AD1A-00F33E03CB94</title>
    <g id="Manager" stroke="none" stroke-width="1" fill="none" fill-rule="evenodd">
        <g id="Invite-unactive" transform="translate(-79.000000, -223.000000)" fill-rule="nonzero">
            <g id="undraw_design_team_af2y" transform="translate(79.000000, 223.000000)">
                <ellipse id="Oval" fill="#E6E6E6" cx="190.5" cy="180.791022" rx="23.5" ry="2"></ellipse>
                <ellipse id="Oval" fill="#E6E6E6" cx="75.5" cy="180.791022" rx="23.5" ry="2"></ellipse>
                <path d="M180.479633,158.791022 L20.5203666,158.791022 C19.1290361,158.791022 18,157.666364 18,156.280428 L18,3.30161489 C18,1.91567965 19.1290361,0.791021672 20.5203666,0.791021672 L180.479633,0.791021672 C181.870964,0.791021672 183,1.91567965 183,3.30161489 L183,156.280428 C183,157.666364 181.870964,158.791022 180.479633,158.791022 L180.479633,158.791022 Z M20.5203666,1.79525896 C19.6855683,1.79525896 19.0081466,2.47005375 19.0081466,3.30161489 L19.0081466,156.280428 C19.0081466,157.111989 19.6855691,157.786784 20.5203666,157.786784 L180.479633,157.786784 C181.314432,157.786784 181.991853,157.11199 181.991853,156.280428 L181.991853,3.30161489 C181.991853,2.47005299 181.314432,1.79525896 180.479633,1.79525896 L20.5203666,1.79525896 Z" id="Shape" fill="#E6E6E6"></path>
                <path d="M29.0153846,13.7910217 C28.4548568,13.7916335 28.0006118,14.2458785 28,14.8064063 L28,56.7756371 C28.0006118,57.3361649 28.4548568,57.7904098 29.0153846,57.7910217 L70.9846154,57.7910217 C71.5451432,57.7904098 71.9993882,57.3361649 72,56.7756371 L72,14.8064063 C71.9993882,14.2458785 71.5451432,13.7916335 70.9846154,13.7910217 L29.0153846,13.7910217 Z" id="Path" fill="#E6E6E6"></path>
                <path d="M95.2006953,44.7911596 C94.5343681,44.8002245 94,45.2452025 94,45.7910005 C94,46.3367985 94.5343681,46.7817765 95.2006953,46.7908414 L152.755889,46.7908414 C153.19276,46.7976226 153.600753,46.6126868 153.825726,46.3059035 C154.0507,45.9991202 154.058354,45.6172617 153.845797,45.3045959 C153.63324,44.9919301 153.232878,44.7961261 152.795971,44.7911596 C152.782608,44.7909757 152.769248,44.7909757 152.755889,44.7911596 L95.2006953,44.7911596 Z" id="b9d15c13-74bb-46fd-a6fd-5a7002be597d" fill="#E6E6E6"></path>
                <path d="M95.2065431,33.7911596 C94.5369706,33.8002245 94,34.2452025 94,34.7910005 C94,35.3367985 94.5369706,35.7817765 95.2065431,35.7908414 L111.74983,35.7908414 C112.188829,35.7976226 112.598809,35.6126868 112.824878,35.3059035 C113.050947,34.9991202 113.058638,34.6172617 112.845046,34.3045959 C112.631453,33.9919301 112.229142,33.7961261 111.790107,33.7911596 C111.776679,33.7909757 111.763253,33.7909757 111.74983,33.7911596 L95.2065431,33.7911596 Z" id="fb98932a-aea9-43a1-946e-96a095a0002f" fill="#E6E6E6"></path>
                <path d="M95.2008192,55.7911596 C94.5344232,55.8002249 94,56.2452212 94,56.7910415 C94,57.3368618 94.5344232,57.7818581 95.2008192,57.7909234 L152.76195,57.7909234 C153.435071,57.7985746 153.988783,57.3586454 154,56.807414 C154.010882,56.2561827 153.475101,55.8016065 152.802036,55.7911596 C152.788672,55.7909757 152.77531,55.7909757 152.76195,55.7911596 L95.2008192,55.7911596 Z" id="a8382d7c-76a2-4f66-b41d-b5784413a475" fill="#E6E6E6"></path>
                <path d="M163.229334,99.7910217 L84.7706663,99.7910217 C83.2411703,99.7910217 82.0016705,98.9078066 82,97.8194103 L82,80.762633 C82.0016705,79.6742367 83.2411703,78.7910217 84.7706663,78.7910217 L163.229334,78.7910217 C164.75883,78.7910217 165.99833,79.6742367 166,80.762633 L166,97.8190762 C165.998667,98.9074958 164.758833,99.789685 163.229334,99.7910217 Z" id="a69b3c31-ebec-4776-89b9-9c88b713759e" fill="#E6E6E6"></path>
                <path d="M110.229334,141.791022 L31.7706663,141.791022 C30.2411703,141.791022 29.0016705,140.907807 29,139.81941 L29,122.762633 C29.0016705,121.674237 30.2411703,120.791022 31.7706663,120.791022 L110.229334,120.791022 C111.75883,120.791022 112.99833,121.674237 113,122.762633 L113,139.819076 C112.998667,140.907496 111.758833,141.789685 110.229334,141.791022 Z" id="ac481be8-039b-4a38-bb10-2d9a81406e5c" fill="#E6E6E6"></path>
                <path d="M86.2293337,150.791022 L7.77066628,150.791022 C6.24117029,150.791022 5.00167048,149.907807 5,148.81941 L5,131.762633 C5.00167048,130.674237 6.24117029,129.791022 7.77066628,129.791022 L86.2293337,129.791022 C87.7588297,129.791022 88.9983295,130.674237 89,131.762633 L89,148.819076 C88.998667,149.907472 87.758833,150.789685 86.2293337,150.791022 Z M7.77066628,130.578998 C6.85290187,130.578998 6.10920199,131.108994 6.10819969,131.761965 L6.10819969,148.818408 C6.10819969,149.471379 6.85290187,150.000706 7.77066628,150.001375 L86.2293337,150.001375 C87.1470981,150.001375 87.890798,149.471379 87.8918003,148.818408 L87.8918003,131.762633 C87.8918003,131.109662 87.1470981,130.580335 86.2293337,130.579666 L7.77066628,130.578998 Z" id="e05581d0-cd6a-412e-af3c-57495fab8d46" fill="#C1C7D0"></path>
                <circle id="Oval" fill="#FFBE00" cx="114.5" cy="97.2910217" r="6.5"></circle>
                <circle id="Oval" fill="#FFBE00" cx="18.5" cy="140.291022" r="6.5"></circle>
                <path d="M128.195587,92.7911596 C127.532094,92.8002249 127,93.2452212 127,93.7910415 C127,94.3368618 127.532094,94.7818581 128.195587,94.7909234 L173.767345,94.7909234 C174.437533,94.7985746 174.988831,94.3586454 175,93.807414 C175.010834,93.2561827 174.477388,92.8016065 173.807256,92.7911596 C173.79395,92.7909757 173.780646,92.7909757 173.767345,92.7911596 L128.195587,92.7911596 Z" id="f4993879-8a0d-4ea4-907e-e549be7081a0" fill="#1C232A"></path>
                <path d="M128.195587,99.7911596 C127.532094,99.8002249 127,100.245221 127,100.791041 C127,101.336862 127.532094,101.781858 128.195587,101.790923 L173.767345,101.790923 C174.437533,101.798575 174.988831,101.358645 175,100.807414 C175.010834,100.256183 174.477388,99.8016065 173.807256,99.7911596 C173.79395,99.7909757 173.780646,99.7909757 173.767345,99.7911596 L128.195587,99.7911596 Z" id="a649136c-96b9-48c7-9686-75389104c34a" fill="#1C232A"></path>
                <path d="M32.1955867,135.79116 C31.5320945,135.800225 31,136.245221 31,136.791041 C31,137.336862 31.5320945,137.781858 32.1955867,137.790923 L77.7673447,137.790923 C78.4375326,137.798575 78.9888314,137.358645 79,136.807414 C79.0108343,136.256183 78.4773879,135.801606 77.8072558,135.79116 C77.7939498,135.790976 77.7806461,135.790976 77.7673447,135.79116 L32.1955867,135.79116 Z" id="bf4cb793-0df2-4753-9628-c376ea3545d1" fill="#1C232A"></path>
                <path d="M32.1955867,142.79116 C31.5320945,142.800225 31,143.245221 31,143.791041 C31,144.336862 31.5320945,144.781858 32.1955867,144.790923 L77.7673447,144.790923 C78.4375326,144.798575 78.9888314,144.358645 79,143.807414 C79.0108343,143.256183 78.4773879,142.801606 77.8072558,142.79116 C77.7939498,142.790976 77.7806461,142.790976 77.7673447,142.79116 L32.1955867,142.79116 Z" id="bf2170fd-291c-4664-b596-01f8e04656d6" fill="#1C232A"></path>
                <circle id="Oval" fill="#1C232A" cx="191.5" cy="160.291022" r="14.5"></circle>
                <rect id="Rectangle" fill="#1C232A" x="194" y="171.791022" width="4" height="8"></rect>
                <rect id="Rectangle" fill="#1C232A" x="185" y="171.791022" width="4" height="8"></rect>
                <ellipse id="Oval" fill="#1C232A" cx="194.5" cy="180.291022" rx="3.5" ry="1.5"></ellipse>
                <ellipse id="Oval" fill="#1C232A" cx="185.5" cy="179.291022" rx="3.5" ry="1.5"></ellipse>
                <circle id="Oval" fill="#FFFFFF" cx="191" cy="156.791022" r="5"></circle>
                <circle id="Oval" fill="#3F3D56" cx="190.5" cy="157.291022" r="1.5"></circle>
                <path d="M204.78948,147.152578 C205.939287,141.80482 202.263791,136.401143 196.580028,135.083112 C190.896265,133.765082 185.356554,137.031843 184.206744,142.379604 C183.056934,147.727365 186.82377,149.69971 192.507533,151.01772 C198.191296,152.335729 203.63965,152.500357 204.78948,147.152578 Z" id="Path" fill="#E6E6E6"></path>
                <path d="M37,64.9006545 C37.003617,67.0631632 36.4932069,69.1972052 35.5086299,71.1360438 C35.397536,71.3587363 35.2797092,71.574879 35.1551494,71.7910217 L9.84931576,71.7910217 C9.72475598,71.574879 9.60692917,71.3587363 9.49583531,71.1360438 C6.85052491,65.9183081 7.76967515,59.6559218 11.8103318,55.3668359 C15.8509885,51.07775 22.1841005,49.6419875 27.757633,51.751467 C33.3311655,53.8609465 37.0015561,59.0828506 37,64.9006545 L37,64.9006545 Z" id="Path" fill="#1C232A"></path>
                <circle id="Oval" fill="#FFFFFF" cx="23" cy="60.7910217" r="5"></circle>
                <circle id="Oval" fill="#3F3D56" cx="22.5" cy="61.2910217" r="1.5"></circle>
                <path d="M9.2105209,51.1525784 C8.06071034,45.8048205 11.7362072,40.4011427 17.4199709,39.0831124 C23.1037345,37.7650821 28.6434495,41.0318426 29.7932568,46.379604 C30.9430641,51.7273654 27.1762332,53.69971 21.4924695,55.0177197 C15.8087058,56.3357294 10.3603513,56.500357 9.2105209,51.1525784 Z" id="Path" fill="#FFBE00"></path>
                <path d="M43.3208955,26.7910217 L1.67910448,26.7910217 C0.751899671,26.7910217 0,27.5429213 0,28.4701261 L0,70.1119172 C0,71.039122 0.751899671,71.7910217 1.67910448,71.7910217 L43.3208955,71.7910217 C44.2481003,71.7910217 45,71.039122 45,70.1119172 L45,28.4701261 C45,27.5429213 44.2481003,26.7910217 43.3208955,26.7910217 L43.3208955,26.7910217 Z M44.3283582,70.1119172 C44.3267297,70.6676475 43.8766258,71.1177514 43.3208955,71.1193799 L1.67910448,71.1193799 C1.12337415,71.1177514 0.673270311,70.6676475 0.671641791,70.1119172 L0.671641791,28.4701261 C0.673262975,27.9143928 1.1233711,27.4642846 1.67910448,27.4626635 L43.3208955,27.4626635 C43.8766297,27.4642828 44.3267389,27.914392 44.3283582,28.4701261 L44.3283582,70.1119172 Z" id="Shape" fill="#C1C7D0"></path>
                <ellipse id="Oval" fill="#1C232A" transform="translate(86.931301, 149.619440) rotate(-69.082170) translate(-86.931301, -149.619440) " cx="86.9313012" cy="149.61944" rx="7.21958046" ry="2.27016759"></ellipse>
                <ellipse id="Oval" fill="#1C232A" transform="translate(73.559554, 160.520023) rotate(-80.782520) translate(-73.559554, -160.520023) " cx="73.559554" cy="160.520023" rx="14.4359139" ry="14.4660812"></ellipse>
                <rect id="Rectangle" fill="#1C232A" x="67" y="171.791022" width="4" height="8"></rect>
                <rect id="Rectangle" fill="#1C232A" x="76" y="171.791022" width="4" height="8"></rect>
                <ellipse id="Oval" fill="#1C232A" cx="70.5" cy="180.291022" rx="3.5" ry="1.5"></ellipse>
                <ellipse id="Oval" fill="#1C232A" cx="79.5" cy="179.291022" rx="3.5" ry="1.5"></ellipse>
                <path d="M59.2105209,147.152594 C58.0607104,141.804834 61.7362071,136.401144 67.4199705,135.083113 C73.103734,133.765082 78.6434455,137.031834 79.793256,142.379594 C80.9430665,147.727353 77.1762292,149.699695 71.4924658,151.017712 C65.8087023,152.335729 60.3603446,152.500364 59.2105209,147.152594 Z" id="Path" fill="#FFBE00"></path>
                <ellipse id="Oval" fill="#1C232A" transform="translate(57.265010, 153.822076) rotate(-64.625740) translate(-57.265010, -153.822076) " cx="57.2650103" cy="153.822076" rx="2.26673129" ry="7.23053029"></ellipse>
                <circle id="Oval" fill="#1C232A" cx="195" cy="116.791022" r="14"></circle>
                <polygon id="Rectangle" fill="#1C232A" transform="translate(199.847442, 131.379092) rotate(-0.266340) translate(-199.847442, -131.379092) " points="197.703732 127.546765 201.991074 127.546809 201.991152 135.211419 197.70381 135.211375"></polygon>
                <polygon id="Rectangle" fill="#1C232A" transform="translate(191.272874, 131.418843) rotate(-0.266340) translate(-191.272874, -131.418843) " points="189.129164 127.586516 193.416506 127.586559 193.416585 135.25117 189.129243 135.251126"></polygon>
                <ellipse id="Oval" fill="#1C232A" transform="translate(190.401272, 136.057365) rotate(-30.266340) translate(-190.401272, -136.057365) " cx="190.401272" cy="136.057365" rx="3.57078595" ry="1.33760795"></ellipse>
                <ellipse id="Oval" fill="#1C232A" transform="translate(198.797232, 136.018413) rotate(-30.266340) translate(-198.797232, -136.018413) " cx="198.797232" cy="136.018413" rx="3.57079602" ry="1.33760795"></ellipse>
                <circle id="Oval" fill="#FFFFFF" cx="195" cy="112.791022" r="5"></circle>
                <circle id="Oval" fill="#3F3D56" cx="193.5" cy="111.291022" r="1.5"></circle>
                <path d="M208.798283,103.390037 C209.923904,98.3458447 206.225052,93.2709016 200.536627,92.054847 C194.848203,90.8387924 189.324333,93.9420979 188.198698,98.9862906 C187.073063,104.030483 190.847912,105.871796 196.536323,107.087871 C202.224734,108.303945 207.672658,108.434233 208.798283,103.390037 Z" id="Path" fill="#FFBE00"></path>
                <ellipse id="Oval" fill="#1C232A" transform="translate(180.752481, 109.386218) rotate(-67.095170) translate(-180.752481, -109.386218) " cx="180.752481" cy="109.386218" rx="2.21104923" ry="7.05389958"></ellipse>
                <ellipse id="Oval" fill="#1C232A" transform="translate(209.586215, 121.056802) rotate(-67.095170) translate(-209.586215, -121.056802) " cx="209.586215" cy="121.056802" rx="2.21104923" ry="7.05389958"></ellipse>
                <path d="M197.999937,122.774987 C198.006862,123.846167 197.440853,124.839577 196.515325,125.380648 C195.589798,125.921718 194.445523,125.928154 193.513955,125.397528 C192.582386,124.866902 192.005215,123.879921 192.000064,122.808731 L192,122.802849 C191.99233,121.147845 193.333857,120.798831 194.990694,120.791149 C196.647532,120.783467 197.992243,121.119974 197.999937,122.774987 Z" id="Path" fill="#FFFFFF"></path>
                <path d="M183.229334,107.791022 L104.770666,107.791022 C103.24117,107.791022 102.00167,106.907807 102,105.81941 L102,88.762633 C102.00167,87.6742367 103.24117,86.7910217 104.770666,86.7910217 L183.229334,86.7910217 C184.75883,86.7910217 185.99833,87.6742367 186,88.762633 L186,105.819076 C185.998664,106.907479 184.758833,107.789688 183.229334,107.791022 Z M104.770666,87.5789979 C103.852902,87.5789979 103.109202,88.1089937 103.1082,88.7619647 L103.1082,105.818408 C103.1082,106.471379 103.852902,107.000706 104.770666,107.001375 L183.229334,107.001375 C184.147098,107.001375 184.890798,106.471379 184.8918,105.818408 L184.8918,88.762633 C184.8918,88.1096621 184.147098,87.5803346 183.229334,87.5796662 L104.770666,87.5789979 Z" id="acccf4df-3a09-4c7b-a8c8-af469fe66e6d" fill="#C1C7D0"></path>
            </g>
        </g>
    </g>
</svg>