<?xml version="1.0" encoding="UTF-8"?>
<svg width="228px" height="173px" viewBox="0 0 228 173" version="1.1" xmlns="http://www.w3.org/2000/svg" xmlns:xlink="http://www.w3.org/1999/xlink">
    <title>19DA445F-687A-4CD4-AC60-D303D06DD573</title>
    <g id="User" stroke="none" stroke-width="1" fill="none" fill-rule="evenodd">
        <g id="History-status-user-unactive-completed" transform="translate(-74.000000, -274.000000)" fill-rule="nonzero">
            <g id="logistics" transform="translate(74.000000, 274.000000)">
                <path d="M226.65527,154 L0.395793545,154 C0.191303693,154 0.0255319149,153.776142 0.0255319149,153.5 C0.0255319149,153.223858 0.191303693,153 0.395793545,153 L226.65527,153 C226.85976,153 227.025532,153.223858 227.025532,153.5 C227.025532,153.776142 226.85976,154 226.65527,154 Z" id="Path" fill="#D1D3D4"></path>
                <rect id="Rectangle" fill="#EDEDED" x="140.025532" y="100" width="42" height="54"></rect>
                <path d="M181.653817,154 L139.397247,154 C139.191954,154 139.025532,153.835219 139.025532,153.631952 L139.025532,100.368048 C139.025532,100.164781 139.191954,100 139.397247,100 L181.653817,100 C181.859109,100 182.025532,100.164781 182.025532,100.368048 L182.025532,153.646674 C182.017547,153.84417 181.85344,154 181.653817,154 L181.653817,154 Z M139.768962,153.263904 L181.282102,153.263904 L181.282102,100.736096 L139.739225,100.736096 L139.768962,153.263904 Z" id="Shape" fill="#EDEDED"></path>
                <rect id="Rectangle" fill="#FFE000" x="144.025532" y="104" width="34" height="46"></rect>
                <path d="M177.653319,150 L143.397075,150 C143.191877,150 143.025532,149.834231 143.025532,149.629746 L143.025532,103.370254 C143.025532,103.165768 143.191877,103 143.397075,103 L177.653319,103 C177.858516,103 178.024862,103.165768 178.024862,103.370254 L178.024862,149.607531 C178.031014,149.709517 177.994602,149.809504 177.924246,149.883822 C177.853891,149.95814 177.755845,150 177.653319,150 Z M143.753756,149.259492 L177.281776,149.259492 L177.281776,103.740507 L143.768617,103.740507 L143.753756,149.259492 Z" id="Shape" fill="#494C50"></path>
                <polygon id="Path" fill="#10161C" points="178.025532 145.589243 178.025532 150 175.238888 150 160.347301 130.412998 157.295263 126.421963 144.025532 108.970386 144.025532 104 146.332991 104 160.347301 122.401473 163.391967 126.421963"></polygon>
                <path d="M177.660782,149.999979 L174.851313,149.999979 C174.736088,150.001245 174.627638,149.945834 174.561447,149.851856 L143.099856,108.5909 C143.053387,108.525898 143.027502,108.448529 143.025532,108.368748 L143.025532,103.370338 C143.025532,103.165853 143.191913,103.000041 143.397155,103.000041 L145.701216,103.000041 C145.816895,102.998321 145.926799,103.050333 145.998515,103.140781 L163.19722,125.696573 L177.950648,144.949711 C177.997118,145.014713 178.023003,145.092081 178.025273,145.171862 L178.025273,149.614894 C178.028987,149.714359 177.992633,149.811244 177.924113,149.883692 C177.855592,149.95614 177.760677,149.998046 177.660782,149.999979 Z M175.037125,149.259452 L177.266862,149.259452 L177.266862,145.319963 L159.518154,122.097717 L145.50054,103.74059 L143.768778,103.74059 L143.768778,108.242862 L175.037125,149.259452 Z" id="Shape" fill="#494C50"></path>
                <polygon id="Path" fill="#10161C" points="178.025532 104 178.025532 107.225228 163.391967 126.421963 160.347301 130.412998 145.448342 150 144.025532 150 144.025532 143.844085 157.295263 126.421963 160.347301 122.401473 174.383728 104"></polygon>
                <path d="M144.831264,150.000006 L143.397082,150.000006 C143.19188,150.000006 143.025532,149.834232 143.025532,149.629746 L143.025532,143.439107 C143.027501,143.359326 143.053381,143.281957 143.099842,143.216955 L173.700691,103.140708 C173.773104,103.051155 173.882521,102.999363 173.997931,103.000006 L177.653982,103.000006 C177.859183,103.000006 178.025532,103.16578 178.025532,103.370266 L178.025532,106.613687 C178.023563,106.693468 177.997683,106.770837 177.951222,106.835839 L145.113642,149.851899 C145.045976,149.940273 144.942676,149.994452 144.831264,150.000006 Z M143.768632,149.259493 L144.645489,149.259493 L177.297294,106.487801 L177.297294,103.740519 L174.183706,103.740519 L143.768632,143.564993 L143.768632,149.259493 Z" id="Shape" fill="#494C50"></path>
                <rect id="Rectangle" fill="#EDEDED" transform="translate(113.525532, 127.000000) rotate(180.000000) translate(-113.525532, -127.000000) " x="87.0255319" y="100" width="53" height="54"></rect>
                <path d="M139.658038,154 L87.393026,154 C87.1900646,154 87.0255319,153.835219 87.0255319,153.631952 L87.0255319,100.368048 C87.0255319,100.164781 87.1900646,100 87.393026,100 L139.658038,100 C139.860999,100 140.025532,100.164781 140.025532,100.368048 L140.025532,153.646674 C140.017638,153.84417 139.855394,154 139.658038,154 L139.658038,154 Z M87.7605201,153.263904 L139.261144,153.263904 L139.261144,100.736096 L87.7605201,100.736096 L87.7605201,153.263904 Z" id="Shape" fill="#EDEDED"></path>
                <rect id="Rectangle" fill="#FFE000" x="91.0255319" y="104" width="45" height="46"></rect>
                <path d="M135.652758,150 L90.3976346,150 C90.1921279,150 90.0255319,149.834231 90.0255319,149.629746 L90.0255319,103.370254 C90.0255319,103.165768 90.1921279,103 90.3976346,103 L135.652758,103 C135.858265,103 136.024861,103.165768 136.024861,103.370254 L136.024861,149.607531 C136.031022,149.709517 135.994555,149.809504 135.924094,149.883822 C135.853632,149.95814 135.755439,150 135.652758,150 Z M90.7697372,149.259492 L135.280655,149.259492 L135.280655,103.740507 L90.7697372,103.740507 L90.7697372,149.259492 Z" id="Shape" fill="#89898A"></path>
                <polygon id="Path" fill="#10161C" points="91.0255319 150 94.7039859 150 114.428492 130.412998 118.46221 126.421963 136.025532 108.970386 136.025532 104 132.968788 104 114.428492 122.401473 110.387374 126.421963 91.0255319 145.589243"></polygon>
                <path d="M94.1187195,150.000007 L90.3976399,150.000007 C90.1921303,150.000007 90.0255319,149.834284 90.0255319,149.629863 L90.0255319,145.18822 C90.0277177,145.090758 90.0677196,144.997914 90.1371643,144.929124 L113.669272,121.610498 L132.319323,103.103652 C132.38923,103.036625 132.482706,102.999433 132.579799,103.000007 L135.653411,103.000007 C135.85892,103.000007 136.025532,103.165729 136.025532,103.37015 L136.025532,108.366999 C136.026102,108.463578 135.988712,108.556558 135.921328,108.626094 L94.371753,149.874153 C94.3078695,149.948262 94.2166523,149.993629 94.1187195,150.000007 Z M90.7846322,149.259726 L93.9698764,149.259726 L135.296187,108.226347 L135.296187,103.784704 L132.750969,103.784704 L110.156573,126.215001 L90.8069586,145.380691 L90.7846322,149.259726 Z" id="Shape" fill="#494C50"></path>
                <polygon id="Path" fill="#10161C" points="91.0255319 107.225228 110.387374 126.421963 114.428492 130.412998 134.145598 150 136.025532 150 136.025532 143.844085 118.46221 126.421963 114.428492 122.401473 95.8437885 104 91.0255319 104"></polygon>
                <path d="M135.66751,149.999975 L133.776618,149.999975 C133.677901,150.001147 133.58327,149.960793 133.516062,149.888838 L109.619348,126.185167 L90.1371988,106.874082 C90.0677327,106.805249 90.0277184,106.712347 90.0255319,106.614823 L90.0255319,103.370383 C90.0255319,103.165833 90.1921818,103.000007 90.3977549,103.000007 L95.2515422,103.000007 C95.3486654,102.999433 95.44217,103.036648 95.5120982,103.103717 L118.254921,125.651834 L135.920622,143.177736 C135.988026,143.247316 136.025532,143.340356 136.024844,143.436995 L136.024844,149.607357 C136.030928,149.706853 135.996449,149.804588 135.929202,149.878471 C135.861954,149.952354 135.767615,149.996146 135.66751,149.999975 Z M133.932951,149.25921 L135.295287,149.25921 L135.295287,143.592551 L113.706356,122.111098 L95.0952085,103.711123 L90.7699778,103.711123 L90.7699778,106.429638 L114.205135,129.651829 L133.932951,149.25921 Z" id="Shape" fill="#494C50"></path>
                <rect id="Rectangle" fill="#EDEDED" x="160.025532" y="46" width="42" height="54"></rect>
                <path d="M201.676119,100 L159.397247,100 C159.191954,100 159.025532,99.8352418 159.025532,99.6320022 L159.025532,46.3679978 C159.029487,46.1664024 159.193615,46.0039156 159.397247,46 L201.653816,46 C201.857448,46.0039156 202.021576,46.1664024 202.025532,46.3679978 L202.025532,99.6320022 C202.025532,99.8269223 201.872654,99.9883051 201.676119,100 Z M159.791265,99.2640044 L201.304404,99.2640044 L201.304404,46.7359956 L159.791265,46.7359956 L159.791265,99.2640044 Z" id="Shape" fill="#1C232A"></path>
                <rect id="Rectangle" fill="#FFE000" x="164.025532" y="50" width="34" height="46"></rect>
                <path d="M197.65414,97 L163.396924,97 C163.19181,97 163.025532,96.8342579 163.025532,96.6298047 L163.025532,50.3701953 C163.025532,50.1657421 163.19181,50 163.396924,50 L197.65414,50 C197.859254,50 198.025532,50.1657421 198.025532,50.3701953 L198.025532,96.6298047 C198.025532,96.8342579 197.859254,97 197.65414,97 Z M163.768316,96.2596093 L197.27532,96.2596093 L197.27532,50.7403907 L163.768316,50.7403907 L163.768316,96.2596093 Z" id="Shape" fill="#1C232A"></path>
                <polygon id="Path" fill="#10161C" points="198.025532 91.5966064 198.025532 96 195.238888 96 180.347301 76.4203618 177.295263 72.4293261 164.025532 54.9703858 164.025532 50 166.332991 50 180.347301 68.4014727 183.391967 72.4293261"></polygon>
                <path d="M197.646044,96.9999184 L194.838373,96.9999184 C194.724098,96.9975341 194.617249,96.9429154 194.548693,96.8517525 L163.099809,55.5899294 C163.052066,55.5256053 163.026056,55.4478263 163.025532,55.367813 L163.025532,50.370194 C163.025532,50.1657415 163.191807,50 163.396917,50 L165.721787,50 C165.838411,50.001137 165.948008,50.0557598 166.018895,50.1480776 L183.206594,72.6928921 L197.95058,91.9429801 C197.998323,92.0073042 198.024333,92.0850832 198.024857,92.1650965 L198.024857,96.6074245 C198.031109,96.7106945 197.993722,96.8118606 197.921756,96.8864095 C197.849789,96.9609583 197.74981,97.0020872 197.646044,96.9999184 Z M195.024066,96.2594421 L197.252376,96.2594421 L197.252376,92.320578 L179.515027,69.0946065 L165.506384,50.740388 L163.738591,50.740388 L163.738591,55.241947 L195.024066,96.2594421 Z" id="Shape" fill="#494C50"></path>
                <polygon id="Path" fill="#10161C" points="198.025532 50 198.025532 53.2252281 183.391967 72.4293261 180.347301 76.4203618 165.448342 96 164.025532 96 164.025532 89.8514487 177.295263 72.4293261 180.347301 68.4014727 194.383728 50"></polygon>
                <path d="M164.830498,96.999971 L163.396924,96.999971 C163.19181,96.999971 163.025532,96.8341988 163.025532,96.6297458 L163.025532,90.4400876 C163.026056,90.3600741 163.052066,90.2822949 163.09981,90.2179707 L193.687671,50.1480779 C193.75927,50.0566212 193.868424,50.0022203 193.984785,50 L197.65414,50 C197.859254,50 198.025532,50.1657419 198.025532,50.3701949 L198.025532,53.6131019 C198.025008,53.6931154 197.998998,53.7708946 197.951253,53.8352189 L165.127612,96.8740744 C165.050632,96.955659 164.942851,97.0013184 164.830498,96.999971 Z M163.768316,96.259551 L164.644802,96.259551 L197.27532,53.4872357 L197.27532,50.7403897 L194.163053,50.7403897 L163.760888,90.5659539 L163.768316,96.259551 Z" id="Shape" fill="#494C50"></path>
                <rect id="Rectangle" fill="#EDEDED" transform="translate(133.525532, 73.000000) rotate(180.000000) translate(-133.525532, -73.000000) " x="107.025532" y="46" width="53" height="54"></rect>
                <path d="M159.657885,100 L107.393179,100 C107.190133,100 107.025532,99.8352418 107.025532,99.6320022 L107.025532,46.3679978 C107.029444,46.1664024 107.191776,46.0039156 107.393179,46 L159.657885,46 C159.860931,46 160.025532,46.1647582 160.025532,46.3679978 L160.025532,99.6320022 C160.025532,99.8352418 159.860931,100 159.657885,100 Z M107.738767,99.2640044 L159.290238,99.2640044 L159.290238,46.7359956 L107.760826,46.7359956 L107.738767,99.2640044 Z" id="Shape" fill="#1C232A"></path>
                <rect id="Rectangle" fill="#FFE000" x="111.025532" y="50" width="45" height="46"></rect>
                <path d="M156.653364,97 L111.3977,97 C111.192157,97 111.025532,96.8342579 111.025532,96.6298047 L111.025532,50.3701953 C111.025532,50.1657421 111.192157,50 111.3977,50 L156.653364,50 C156.858906,50 157.025532,50.1657421 157.025532,50.3701953 L157.025532,96.6298047 C157.025532,96.8342579 156.858906,97 156.653364,97 Z M111.769868,96.2596093 L156.281195,96.2596093 L156.281195,50.7403907 L111.769868,50.7403907 L111.769868,96.2596093 Z" id="Shape" fill="#1C232A"></path>
                <polygon id="Path" fill="#10161C" points="111.025532 91.5966064 111.025532 96 114.710781 96 134.432044 76.4203618 138.465098 72.4293261 156.025532 54.9703858 156.025532 50 152.969291 50 134.432044 68.4014727 130.39159 72.4293261"></polygon>
                <path d="M115.119383,97 L111.3977,97 C111.192157,97 111.025532,96.8343101 111.025532,96.6299213 L111.025532,92.1889764 C111.026041,92.0904193 111.063153,91.9955246 111.129739,91.9225197 L134.665661,68.6149606 L153.318736,50.1110236 C153.387903,50.0419577 153.481256,50.0021738 153.579254,50 L156.653364,50 C156.858906,50 157.025532,50.1656899 157.025532,50.3700787 L157.025532,55.3661417 C157.025023,55.4646988 156.987911,55.5595935 156.921325,55.6325984 L115.387344,96.8741732 C115.317862,96.9491484 115.221753,96.9942781 115.119383,97 L115.119383,97 Z M111.792199,96.2598425 L114.970516,96.2598425 L156.303525,55.2255118 L156.303525,50.7845669 L153.787668,50.7845669 L131.159836,73.1891339 L111.807085,92.351811 L111.792199,96.2598425 Z" id="Shape" fill="#494C50"></path>
                <polygon id="Path" fill="#10161C" points="111.025532 50 111.025532 53.2252281 130.39159 72.4293261 134.432044 76.4203618 154.145907 96 156.025532 96 156.025532 89.8514487 138.465098 72.4293261 134.432044 68.4014727 115.850396 50"></polygon>
                <path d="M156.653303,96.9999953 L154.762383,96.9999953 C154.664854,96.9920431 154.574177,96.9469523 154.509267,96.8741243 L130.612196,73.1816531 L111.129756,53.8796929 C111.063159,53.8066651 111.026041,53.7117405 111.025532,53.6131526 L111.025532,50.3702456 C111.025532,50.1657926 111.192184,50.0000248 111.39776,50.0000248 L116.244176,50.0000248 C116.342894,49.9988538 116.437526,50.0391889 116.504736,50.1111092 L139.262787,72.6559764 L156.921308,90.2106168 C156.987905,90.2836446 157.025022,90.3785691 157.025532,90.4771571 L157.025532,96.6668152 C157.006347,96.8566886 156.845179,97.0009469 156.653303,96.9999953 L156.653303,96.9999953 Z M154.918719,96.2596009 L156.281075,96.2596009 L156.281075,90.5956195 L134.691821,69.1243174 L116.080395,50.7256326 L111.762544,50.7256326 L111.762544,53.4428629 L135.190607,76.6540809 L154.918719,96.2596009 Z" id="Shape" fill="#494C50"></path>
                <rect id="Rectangle" fill="#EDEDED" x="182.025532" y="100" width="42" height="54"></rect>
                <path d="M223.653753,154 L181.397311,154 C181.191983,154 181.025532,153.835219 181.025532,153.631952 L181.025532,100.368048 C181.025532,100.164781 181.191983,100 181.397311,100 L223.653753,100 C223.859081,100 224.025532,100.164781 224.025532,100.368048 L224.025532,153.646674 C224.017546,153.84417 223.853411,154 223.653753,154 L223.653753,154 Z M181.769091,153.263904 L223.281973,153.263904 L223.281973,100.736096 L181.769091,100.736096 L181.769091,153.263904 Z" id="Shape" fill="#EDEDED"></path>
                <rect id="Rectangle" fill="#FFE000" x="186.025532" y="104" width="34" height="46"></rect>
                <path d="M219.653477,150 L185.396917,150 C185.191807,150 185.025532,149.834231 185.025532,149.629746 L185.025532,103.370254 C185.025532,103.165768 185.191807,103 185.396917,103 L219.653477,103 C219.858587,103 220.024862,103.165768 220.024862,103.370254 L220.024862,149.607531 C220.031011,149.709517 219.994615,149.809504 219.924289,149.883822 C219.853963,149.95814 219.75596,150 219.653477,150 Z M185.768302,149.259492 L219.282092,149.259492 L219.282092,103.740507 L185.768302,103.740507 L185.768302,149.259492 Z" id="Shape" fill="#89898A"></path>
                <polygon id="Path" fill="#10161C" points="220.025532 145.589243 220.025532 150 217.24626 150 202.347301 130.412998 199.295263 126.421963 186.025532 108.970386 186.025532 104 188.340363 104 202.347301 122.401473 205.399339 126.421963"></polygon>
                <path d="M219.653591,149.999927 L216.853338,149.999927 C216.735874,150.002302 216.624739,149.946903 216.556229,149.851747 L185.099809,108.590821 C185.053369,108.525819 185.0275,108.44845 185.025532,108.36867 L185.025532,103.370262 C185.025532,103.165778 185.191807,103.000005 185.396918,103.000005 L187.729224,103.000005 C187.842483,102.999418 187.949564,103.051426 188.018906,103.140706 L205.214091,125.696481 L219.9507,144.949606 C220.000454,145.01288 220.026699,145.091376 220.025275,145.171757 L220.025275,149.614786 C220.029022,149.715523 219.991687,149.813549 219.921596,149.886221 C219.851504,149.958894 219.754717,149.999927 219.653591,149.999927 Z M217.039031,149.259344 L219.267349,149.259344 L219.267349,145.319858 L201.529939,122.097628 L187.528676,103.740515 L185.753449,103.740515 L185.753449,108.242784 L217.039031,149.259344 Z" id="Shape" fill="#494C50"></path>
                <polygon id="Path" fill="#10161C" points="220.025532 104 220.025532 107.225228 205.399339 126.421963 202.347301 130.412998 187.448342 150 186.025532 150 186.025532 143.844085 199.295263 126.421963 202.347301 122.401473 216.383728 104"></polygon>
                <path d="M186.83049,149.999982 L185.396922,149.999982 C185.191809,149.999982 185.025532,149.834194 185.025532,149.629709 L185.025532,143.439073 C185.0275,143.359292 185.053369,143.281923 185.09981,143.216921 L215.687538,103.140696 C215.761235,103.05282 215.869763,103.001428 215.98465,103 L219.653989,103 C219.859102,103 220.025459,103.165768 220.025459,103.370253 L220.025459,106.613673 C220.027102,106.694054 220.000856,106.77255 219.951101,106.835825 L187.127603,149.851861 C187.058255,149.946033 186.947668,150.001158 186.83049,149.999982 Z M185.768313,149.259456 L186.644795,149.259456 L219.282598,106.487787 L219.282598,103.740507 L216.170345,103.740507 L185.768313,143.564959 L185.768313,149.259456 Z" id="Shape" fill="#494C50"></path>
                <path d="M30.3621861,34 C30.3621861,34 3.4601553,74.024911 4.03460243,74.4416047 C4.60904957,74.8582983 17.1946641,80 17.1946641,80 L33.0255319,64.7013911 L30.3621861,34 Z" id="Path" fill="#1C232A"></path>
                <path d="M17.2144817,80.9947775 C17.1686123,81.0017408 17.1219961,81.0017408 17.0761268,80.9947775 C15.0153674,80.126829 4.69700688,75.7571572 4.15815107,75.3605945 C3.73580463,75.0463373 3.5246314,74.8892087 16.7047532,54.3652193 C23.1273319,44.3688468 29.7028291,34.2901688 29.7683656,34.1629694 C29.8545259,34.0334962 30.0101382,33.9729936 30.1581299,34.0114279 C30.3061216,34.0498622 30.4150693,34.1790725 30.4310127,34.3350627 L33.023346,65.2370226 C33.0357144,65.3490077 32.9950983,65.4602995 32.9141185,65.5363152 L17.4693459,80.8900251 C17.4001321,80.956468 17.3091969,80.9938435 17.2144817,80.9947775 L17.2144817,80.9947775 Z M4.83536175,74.8443148 C6.15337393,75.5027585 12.6633346,78.2786972 17.1707907,80.1792052 L32.3242898,65.1098233 L29.797493,35.4574099 C20.0179882,50.4519687 6.02230089,72.2030577 4.79895257,74.8443148 L4.83536175,74.8443148 Z" id="Shape" fill="#231F20"></path>
                <path d="M72.7091901,34 L90.0255319,63.5466535 C90.0255319,63.5466535 86.0825034,73.0453999 81.3523685,71.9049501 C76.6222336,70.7645003 65.0255319,45.96722 65.0255319,45.96722 L72.7091901,34 Z" id="Path" fill="#231F20"></path>
                <path d="M82.0617412,71.9999452 C81.7699588,72.0015726 81.4790786,71.9669728 81.1956501,71.8968658 C76.4867347,70.7415633 65.5332299,47.2234306 65.0747111,46.222659 C65.0091389,46.1142542 65.0091389,45.9778503 65.0747111,45.8694455 L72.5347393,34.1692481 C72.6015504,34.063961 72.7166941,34 72.8404185,34 L72.8404185,34 C72.9648245,34.0044625 73.077926,34.0741899 73.1388196,34.1839654 L89.9875663,63.1621901 C90.0381871,63.2640487 90.0381871,63.3841106 89.9875663,63.4859692 C89.8856732,63.8538999 86.4795335,71.9999452 82.0617412,71.9999452 Z M65.8097968,46.1049212 C69.0048723,52.9631501 77.7676762,70.3147636 81.3630458,71.1904388 C85.2786509,72.1470587 88.7575714,64.5676855 89.296149,63.3755899 L72.8476966,35.0669991 L65.8097968,46.1049212 Z" id="Shape" fill="#231F20"></path>
                <polygon id="Path" fill="#494C50" points="31.2915782 74 28.0255319 157 39.3344951 157 49.4510921 97.8044178 55.0870587 155.96083 66.6478259 155.96083 67.0255319 79.5447147"></polygon>
                <path d="M39.7814165,157.999928 L28.3988004,157.999928 C28.297313,157.999928 28.200181,157.958678 28.1298392,157.885612 C28.0594973,157.812545 28.0220291,157.713989 28.02579,157.612707 L31.3134061,74.3612618 C31.3174152,74.2546935 31.3661097,74.1547215 31.4475823,74.085792 C31.531294,74.0183632 31.6392906,73.9887004 31.7457517,74.0038956 L67.704979,79.5728529 C67.889066,79.595532 68.0269062,79.752414 68.0255216,79.9376643 L67.6453451,156.622505 C67.6374823,156.823521 67.4740128,156.983525 67.2726334,156.987316 L55.6142106,156.987316 C55.4220859,156.988278 55.2607092,156.843216 55.2414989,156.652285 L49.8371789,101.081834 L40.146674,157.731829 C40.0995454,157.89334 39.949819,158.003209 39.7814165,157.999928 Z M28.7864206,157.255341 L39.4683386,157.255341 L49.5911891,98.1931234 C49.5911891,97.9875318 49.7580578,97.8208669 49.9639008,97.8208669 C50.1697438,97.8208669 50.3366126,97.9875318 50.3366126,98.1931234 L55.9794681,156.190687 L66.9073759,156.190687 L67.2875419,80.2503598 L32.0513753,74.8005245 L28.7864206,157.255341 Z" id="Shape" fill="#231F20"></path>
                <path d="M53.0255319,144.456184 C54.3428883,144.649117 62.0535164,146.155478 62.6489317,144.456184 C62.9985074,143.448024 63.6739065,142.584108 64.5691461,142 L69.4962077,142 L67.2261869,165.048062 C67.2261869,165.048062 78.0255319,171.659725 78.0255319,172.78764 C78.0255319,173.915556 59.7760529,170.183046 59.7760529,170.183046 L59.3592622,171.978806 L56.1440196,171.600361 L53.0255319,144.456184 Z" id="Path" fill="#FFE000"></path>
                <path d="M43.0255319,144.470969 C41.7097424,144.663898 34.0082854,146.170225 33.4135783,144.470969 C33.0769749,143.46273 32.4157073,142.593947 31.5328171,142 L26.5744466,142 L28.8045982,165.04754 C28.8045982,165.04754 18.0255319,171.659053 18.0255319,172.786943 C18.0255319,173.914832 36.2830401,170.197248 36.2830401,170.197248 L36.6993351,171.992967 L39.9107534,171.614531 L43.0255319,144.470969 Z" id="Path" fill="#FFE000"></path>
                <path d="M62.8688636,32.6967324 C62.8688636,32.6967324 41.1966925,30.4726388 36.9806295,33.9718794 C32.7645665,37.4711199 31.0255319,83.6433029 31.0255319,83.6433029 L67.2310639,85 C67.2310639,85 70.7822018,40.458819 62.8688636,32.6967324 Z" id="Path" fill="#1C232A"></path>
                <path d="M66.8467402,84.9996753 L66.8467402,84.9996753 L30.372048,83.6372536 C30.2772113,83.6291335 30.1884039,83.5868773 30.1217675,83.5181656 C30.0552612,83.445661 30.0207244,83.3489577 30.0260721,83.2502175 C30.0923228,81.3522518 31.8295634,36.6644645 36.1505814,33.0843803 C40.4715995,29.5042961 61.6055735,31.5957798 62.5036386,31.7148678 C62.5869774,31.7226449 62.6650478,31.7594827 62.7244743,31.8190699 C66.1032601,35.123763 67.8773067,45.0303994 68.0171693,61.2710309 C68.1202259,73.3138091 67.2368832,84.5452999 67.229522,84.6569449 C67.213857,84.8566368 67.0446729,85.007963 66.8467402,84.9996753 Z M30.7769134,82.9078393 L66.5081255,84.2550228 C66.8172954,80.0497264 69.563019,39.9170566 62.2901641,32.4591681 C60.4866728,32.280536 40.5231278,30.4346714 36.599614,33.6723775 C33.2576341,36.4262884 31.2627519,69.7858259 30.7548298,82.9078393 L30.7769134,82.9078393 Z" id="Shape" fill="#231F20"></path>
                <path d="M50.4833913,56.9956086 L50.4833913,56.9956086 C50.3316071,56.9875576 50.1990442,56.8919212 50.1456159,56.7519233 C48.839551,53.2738691 42.3542633,35.8466759 43.0823569,34.2147226 C43.1705604,34.0325645 43.3890203,33.9511564 43.5777609,34.0301125 C43.764809,34.1111418 43.8515652,34.3245154 43.77292,34.5100988 C43.4051201,35.5365309 46.9254904,45.9928468 50.528428,55.6294939 C51.8269868,52.6314259 56.1354997,42.3375669 57.2839361,35.8762135 C57.3220296,35.6761255 57.514848,35.542033 57.7192911,35.5734529 C57.921984,35.6108211 58.0560596,35.8020783 58.0195359,36.0017484 C56.6984587,43.6667596 50.9412646,56.6780793 50.8812157,56.7740765 C50.8170184,56.9298705 50.6522086,57.0216463 50.4833913,56.9956086 Z" id="Path" fill="#FFFFFF"></path>
                <path d="M45.0255319,30.3387564 L44.2927899,47.3648832 L44.102277,52.0550712 L43.8384899,58.5990002 L43.647977,63.2891882 L43.0544559,78 L26.0255319,77.2555257 C26.0255319,77.2555257 26.1500981,70.9423838 26.4505223,63.1105143 C26.5091416,61.6215658 26.5750884,60.0135013 26.6483626,58.4128816 C26.7509465,56.2464614 26.8608578,54.0353728 26.9854239,51.8763974 C27.0806804,50.2757777 27.1832643,48.6974922 27.300503,47.1862094 C27.7694579,40.8432885 28.3922886,35.5202974 29.2129596,33.7856723 C31.7409195,28.4031232 45.0255319,30.3387564 45.0255319,30.3387564 Z" id="Path" fill="#FFE000"></path>
                <path d="M74.0181579,52.9526573 C74.0181579,55.0899133 73.9591657,57.2640185 73.9075475,59.423384 C73.8706773,61.0005315 73.8264332,62.5555695 73.782189,64.0663883 C73.501976,72.7849187 73.0964045,80 73.0964045,80 L56.0255319,78.6218384 L56.320493,63.8821421 L56.4163553,59.231768 L56.5417138,52.7610413 L56.6375762,48.118037 L56.9767814,31.3368928 C56.9767814,31.3368928 70.3458924,29.4281021 72.8456876,34.6975435 C73.6568306,36.4147181 73.9665397,41.8241867 74.0255319,48.3317626 C74.0255319,49.8057322 74.0255319,51.3607701 74.0181579,52.9526573 Z" id="Path" fill="#FFE000"></path>
                <path d="M33.3905871,91.9996788 C33.2488095,91.997995 33.1200162,91.9195083 33.0573128,91.7965813 C32.9756953,91.6205821 33.0566776,91.4139219 33.2384402,91.3343593 C35.8014843,90.1819956 37.6723496,87.9524423 38.310006,85.2904572 C38.3467409,85.1038021 38.528222,84.9776184 38.7229764,85.0033193 C38.8182959,85.0187146 38.9033001,85.070288 38.9590847,85.1465698 C39.0148693,85.2228516 39.0368092,85.3175174 39.0200252,85.4095143 C38.3718348,88.3056949 36.3466614,90.7358238 33.5572243,91.964662 C33.5057601,91.9901058 33.4483345,92.0021731 33.3905871,91.9996788 L33.3905871,91.9996788 Z" id="Path" fill="#FFFFFF"></path>
                <path d="M65.6184077,92 C65.5297365,91.9989679 65.4439311,91.9718823 65.3743865,91.9229351 C63.1843758,90.2946588 61.9519657,87.8646366 62.0289342,85.3264919 C62.0441501,85.1331206 62.2326979,84.9873353 62.4500676,85.0008713 C62.6674373,85.0144073 62.8313153,85.1821388 62.8160994,85.37551 C62.7846943,87.681116 63.906613,89.8799155 65.8781723,91.3767328 C66.0093066,91.4702927 66.0591721,91.6276142 66.0022968,91.7683347 C65.9454214,91.9090551 65.7943608,92.0021094 65.6262794,92 L65.6184077,92 Z" id="Path" fill="#FFFFFF"></path>
                <path d="M50.2916999,97 L50.2916999,97 C50.1446994,97 50.0255319,96.8397232 50.0255319,96.6421038 C50.0255319,96.2623748 50.4655238,85.7906178 50.4872518,85.3451665 C50.4868392,85.2474455 50.5174323,85.1541217 50.5713602,85.0885948 C50.6252882,85.023068 50.6974368,84.9915523 50.7697157,85.0019499 C50.8413204,85.0056967 50.9087764,85.0480993 50.9568265,85.1195671 C51.0048766,85.1910349 51.0294612,85.2855299 51.0250197,85.3816789 C50.9000837,88.4122083 50.5632998,96.3353997 50.5632998,96.6421038 C50.5633147,96.7382829 50.5345276,96.8304206 50.4834304,96.8977391 C50.4323332,96.9650576 50.3632284,97.0018882 50.2916999,97 Z" id="Path" fill="#FFFFFF"></path>
                <path d="M66.6450692,85 L66.6450692,85 L30.3913615,83.7067138 C30.1893194,83.7067138 30.0255319,83.5485105 30.0255319,83.3533569 C30.0255319,83.1582033 30.1893194,83 30.3913615,83 L30.3913615,83 L66.6597024,84.2932862 C66.8617444,84.2932862 67.0255319,84.4514895 67.0255319,84.6466431 C67.0255319,84.8417967 66.8617444,85 66.6597024,85 L66.6450692,85 Z" id="Path" fill="#FFFFFF"></path>
                <path d="M27.3350154,48 L44.0255319,48.2200303 L43.8384024,53 L27.0255319,52.7799697 C27.1190967,51.1487102 27.227056,49.5402124 27.3350154,48 Z" id="Path" fill="#FFFFFF"></path>
                <path d="M75.0179402,53 L57.0255319,52.7727273 L57.1242244,48 L75.0255319,48.219697 C75.0255319,49.7651515 75.0255319,51.3636364 75.0179402,53 Z" id="Path" fill="#FFFFFF"></path>
                <path d="M26.2228338,59 L44.0255319,59.2272727 L43.8282301,64 L26.0255319,63.780303 C26.0786516,62.2348485 26.1469484,60.6439394 26.2228338,59 Z" id="Path" fill="#FFFFFF"></path>
                <path d="M74.0255319,59.2272727 C73.9877961,60.8484848 73.942513,62.4469697 73.89723,64 L56.0255319,63.780303 L56.1236451,59 L74.0255319,59.2272727 Z" id="Path" fill="#FFFFFF"></path>
                <path d="M60.1921186,18.4540306 C60.0586673,18.1803422 61.3783528,15.0958004 60.933515,10.2285857 C60.4886772,5.36137094 51.5251949,3.64527092 48.3297765,4.05950196 C45.1343581,4.473733 41.872214,7.75799338 41.2049572,10.9978719 C40.5377005,14.2377504 41.9463536,20 41.9463536,20 L60.1921186,18.4540306 Z" id="Path" fill="#FFFFFF"></path>
                <path d="M42.3431418,20.9999864 C42.1653684,21.0014777 42.0099982,20.8801868 41.968174,20.7072513 C41.9081792,20.4670698 40.5282977,14.7027128 41.2182385,11.4077222 C41.968174,7.85753884 45.3953797,4.48749159 48.7175943,4.05966822 C50.9674011,3.76694696 56.6444135,4.51751428 59.7941429,7.06193748 C60.9815224,7.91155883 61.7571834,9.22175965 61.9314593,10.6721663 C62.1690022,13.2537615 61.9558401,15.8570374 61.3015134,18.3654813 C61.2415186,18.6206742 61.1815238,18.8833727 61.1740244,18.9809465 C61.1890203,19.073516 61.1732109,19.1684526 61.1290283,19.2511507 C61.0640807,19.3621191 60.9495384,19.4348168 60.8215547,19.4462982 L42.3731393,20.9999864 L42.3431418,20.9999864 Z M49.8424977,4.77270717 C49.4942944,4.76953812 49.1462107,4.78708228 48.8000872,4.82524688 C45.8003449,5.21554188 42.5906206,8.36041894 41.9306773,11.5803527 C41.3757249,14.2974064 42.3281431,18.9584294 42.6056193,20.2268882 L60.4165895,18.7257536 C60.4165895,18.5906515 60.4840837,18.4255267 60.5365791,18.2078621 C61.1710914,15.7803871 61.3766691,13.260575 61.144027,10.7622344 C60.9867269,9.52520438 60.3172911,8.41126175 59.2991854,7.69241403 C56.9443877,5.740939 52.5722632,4.78021284 49.8799945,4.78021284 L49.8424977,4.77270717 Z" id="Shape" fill="#231F20"></path>
                <path d="M58.0255319,18.6920927 C58.4843069,15.5472467 63.2500892,14.7666644 63.017278,18.4744303 C62.9793016,19.7632824 62.5283806,20.9962903 61.7436637,21.9570282 C60.9291,22.9280062 59.6574509,23.2579028 58.5322386,22.7901497" id="Path" fill="#FFFFFF"></path>
                <path d="M60.0009329,23 C59.5909161,23.0025445 59.1851505,22.9104265 58.8110107,22.7298071 C58.6265415,22.6386698 58.543696,22.4053701 58.6246374,22.2049649 C58.7121925,22.0053119 58.9310949,21.9164974 59.1192436,22.0042899 C60.1496871,22.4011903 61.3006697,22.0974392 62.0438717,21.2324631 C62.7888233,20.3119055 63.2143987,19.1417758 63.2481303,17.9213259 C63.3269805,16.7018395 62.8037015,15.9377309 61.8144891,15.8142386 C60.3770327,15.6773772 59.0690911,16.7121201 58.7608333,18.2300566 C58.7278052,18.4465574 58.5394359,18.5943784 58.3379091,18.5619422 C58.1368378,18.5263796 57.9995517,18.3235555 58.0296763,18.1065643 C58.389587,16.1580773 60.0645433,14.8221614 61.9005075,15.019257 C62.5538451,15.0792926 63.1531702,15.4338999 63.5505192,15.9955318 C63.9478681,16.5571638 64.106211,17.2734808 63.9864555,17.9676355 C63.9485994,19.3963401 63.4404938,20.7640794 62.5528143,21.8267697 C61.877985,22.5630261 60.96153,22.9843481 60.0009329,23 L60.0009329,23 Z" id="Path" fill="#231F20"></path>
                <path d="M45.0255319,18.6988121 C44.5661723,15.5461166 39.7943174,14.763586 40.0342814,18.4806065 C40.0662898,19.7726549 40.5158595,21.010121 41.3026623,21.971897 C42.1178267,22.9305222 43.3795859,23.2544193 44.4976112,22.7920493" id="Path" fill="#FFFFFF"></path>
                <path d="M43.0876663,22.9991479 C42.1101116,22.9834201 41.1783852,22.5506368 40.4973822,21.7959709 C39.6049546,20.7264768 39.0936779,19.3513558 39.054327,17.9147545 C38.9538425,17.2322267 39.1188225,16.5352867 39.5105218,15.9876095 C39.9022211,15.4399324 40.4861273,15.0897735 41.1251112,15.0193671 C42.9731313,14.8211438 44.6590862,16.1647038 45.0213603,18.1243402 C45.0516827,18.342573 44.9134951,18.5465577 44.7111035,18.5823237 C44.5082534,18.6149456 44.3186471,18.4662788 44.2854022,18.2485391 C43.985723,16.7251967 42.6836259,15.6762271 41.2405556,15.7956104 C40.2448475,15.9198093 39.7181324,16.6882902 39.7975004,17.9147545 C39.8407833,19.1397101 40.2767167,20.3108178 41.0313126,21.2293133 C41.7858092,22.1152965 42.963575,22.4220954 44.0112217,22.0055566 C44.2006059,21.9172617 44.4209456,22.0065844 44.5090757,22.2073798 C44.5905487,22.4089317 44.5071591,22.6435664 44.3214786,22.7352252 C43.9332486,22.9197292 43.5119721,23.0098437 43.0876663,22.9991479 Z" id="Path" fill="#231F20"></path>
                <path d="M45.0255319,32.5582474 C45.0255319,32.5582474 46.9262953,36.9975945 51.1324021,36.9975945 C53.5101545,37.0598974 55.7472549,35.9083252 57.0255319,33.9640406 L56.8346922,31.751766 L56.4224785,26.7131069 L56.0331655,22 L46.46828,22 L46.1476693,25.8548331 L46.0484327,27.1052492 L45.0255319,32.5582474 Z" id="Path" fill="#FFFFFF"></path>
                <path d="M51.1040362,36.9962066 C46.9690215,36.9962066 45.1200894,32.4754313 45.041259,32.2644618 C45.0202896,32.1932955 45.0202896,32.117124 45.041259,32.0459577 L46.001557,26.5080079 L46.3885428,21.3543241 C46.4037058,21.151018 46.5672816,20.995574 46.7611958,21.0000962 L55.7406991,21.0000962 C55.9332502,20.9957849 56.0946756,21.1521933 56.1061857,21.3543241 L57.0234853,33.4926058 C57.0313841,33.5659755 57.0162866,33.6400507 56.9804869,33.7035753 C55.7198346,35.8238435 53.4810144,37.0782758 51.1040362,36.9962066 L51.1040362,36.9962066 Z M45.7650657,32.0459577 C46.0588882,32.6939355 47.7859914,36.2050709 51.1040362,36.2050709 C53.1661825,36.2746271 55.1156529,35.2170256 56.2566802,33.4097249 L55.3752126,21.7611938 L47.0765175,21.7611938 L46.7110309,26.5984234 L45.7650657,32.0459577 Z" id="Shape" fill="#231F20"></path>
                <path d="M45.0255319,26 C45.127508,26.5423473 45.3397044,27.0603164 45.6501144,27.5245994 C46.4238873,28.5950149 47.464339,29.4642802 48.6775025,30.0538888 C50.6614705,31.1077594 53.6227263,32.2880944 56.0255319,31.9368042 L55.6287383,27.1522318 C53.8640814,27.3529008 52.08077,27.3529008 50.3161131,27.1522318 C48.7539807,27.0973468 47.2099784,26.8129883 45.7382908,26.3091354 C45.4958058,26.2318515 45.2606689,26.1194387 45.0255319,26 Z" id="Path" fill="#231F20"></path>
                <path d="M55.7163798,31.986685 C53.198887,31.986685 50.455947,30.7309657 48.9529662,29.9158497 C47.6535843,29.2715726 46.5420011,28.3167155 45.7215574,27.1400493 C45.3770623,26.6149149 45.1421087,26.0284593 45.0301863,25.4143532 C45.0075117,25.2747249 45.0688899,25.1347779 45.1879992,25.0545272 C45.3103389,24.9818243 45.4639495,24.9818243 45.5862892,25.0545272 C45.8131125,25.1788675 46.0463884,25.2916179 46.2851752,25.3923231 C47.7545896,25.9042115 49.2953521,26.1939398 50.8542369,26.2514994 C52.6288393,26.4606404 54.4227313,26.4606404 56.1973337,26.2514994 C56.2996957,26.2406098 56.4023195,26.2696386 56.4829,26.3322766 C56.5642946,26.3944884 56.613726,26.4884113 56.6181683,26.5892952 L57.0239731,31.5901421 C57.0419165,31.7813953 56.9029891,31.9527072 56.7083472,31.9793416 C56.3782615,32.0041674 56.0468125,32.006621 55.7163798,31.986685 Z M45.9470045,26.0385412 C46.0424409,26.2955173 46.1658948,26.5417137 46.3152348,26.7728799 C47.0670984,27.8465675 48.0859696,28.7158371 49.2761071,29.2990052 C50.8316922,30.1361513 53.7850495,31.5020214 56.2123635,31.2596896 L55.8666779,26.9931815 C54.1655784,27.1697286 52.4501277,27.1697286 50.7490282,26.9931815 C49.1125584,26.9314561 47.4955152,26.6243449 45.9545195,26.0826015 L45.9470045,26.0385412 Z" id="Shape" fill="#231F20"></path>
                <path d="M51.1160386,28 L51.9424035,28 C55.8543073,28 59.0255319,24.8829463 59.0255319,21.0378704 L59.0255319,10 L44.0255319,10 L44.0255319,21.0378704 C44.0255319,22.8855982 44.7727997,24.657542 46.1027401,25.9634026 C47.4326806,27.2692631 49.2361981,28.0019209 51.1160386,28 L51.1160386,28 Z" id="Path" fill="#FFFFFF"></path>
                <path d="M59.2207083,9.74487896 L59.2207083,21.0819367 C59.2207083,25.0312355 55.9573261,28.2327786 51.93174,28.2327786 L51.0813604,28.2327786 C49.1468906,28.2347516 47.2909619,27.4822347 45.9223725,26.1409781 C44.5537832,24.7997215 43.7847994,22.9797481 43.7847994,21.0819367 L43.7847994,9.74487896 L59.2207083,9.74487896 M59.2207083,9 L43.7847994,9 C43.3654676,9 43.0255319,9.33349367 43.0255319,9.74487896 L43.0255319,21.0819367 C43.0338999,25.4544649 46.6471417,28.995902 51.1041384,29 L51.9545181,29 C56.410281,28.9958935 60.0213461,25.4532602 60.0255319,21.0819367 L60.0255319,9.74487896 C60.0255319,9.33349367 59.6855963,9 59.2662644,9 L59.2207083,9 Z" id="Shape" fill="#231F20"></path>
                <path d="M51.628705,20.999099 C51.291953,20.997669 50.9555842,20.9759298 50.6213856,20.9339968 C50.4264185,20.9113569 50.2538631,20.7957753 50.1570185,20.6229531 C49.6212104,19.7187562 50.8714294,16.2828081 51.2500672,15.2411733 C51.2837537,15.1487616 51.352542,15.0738288 51.4411088,15.033067 C51.5296756,14.9923052 51.6306643,14.9891002 51.7215784,15.024166 C51.9126717,15.0983597 52.0085059,15.3150697 51.9359016,15.5088155 C51.1214732,17.678888 50.6070974,19.7549241 50.7714119,20.2034057 C51.3841446,20.2680892 52.0018592,20.2680892 52.614592,20.2034057 C52.7113485,20.1911921 52.8089029,20.2187558 52.8854334,20.2799312 C52.9619638,20.3411066 53.011084,20.4307887 53.0218062,20.5289166 C53.0359395,20.6272444 53.0094977,20.7271289 52.9486891,20.8051177 C52.8878805,20.8831066 52.7980615,20.9323299 52.7003213,20.9412304 C52.3448354,20.9852212 51.9867954,21.0045558 51.628705,20.999099 L51.628705,20.999099 Z" id="Shape" fill="#231F20"></path>
                <path d="M62.0255319,10.3791343 C62.0255319,10.3791343 59.0814838,14.7563185 57.3015364,13.8853482 C55.521589,13.0143778 54.5978188,10.6099042 51.4960539,10.5503506 C48.8073569,10.5056855 47.26774,14.384109 45.0296626,13.8257946 C43.6720174,13.4400008 42.5659907,12.4615646 42.0255319,11.1682185 C44.4972425,7.60067569 48.7267667,5.64275881 53.0732225,6.05405933 C60.6811834,6.61237365 62.0255319,10.3791343 62.0255319,10.3791343 Z" id="Path" fill="#10161C"></path>
                <path d="M56.593599,14 C56.3671648,14.0006265 56.143991,13.9427155 55.9433681,13.8312624 C55.3283313,13.4575563 54.7684355,12.989826 54.2816667,12.4430965 C53.3279946,11.476749 52.3381986,10.4797239 50.5247767,10.4413767 C49.4049345,10.4413767 48.4512624,11.3233605 47.5337142,12.1900055 C46.6161661,13.0566505 45.5035487,14.1457088 44.2247611,13.8005847 C42.7913724,13.3804928 41.6225351,12.2785293 41.0603037,10.8171785 C41.0139413,10.7074009 41.0139413,10.5818321 41.0603037,10.4720544 C43.5321917,6.69153976 47.7335825,4.6213688 52.0492071,5.05744074 C59.5485375,5.640317 60.9501465,9.60540946 61.00072,9.7741368 C61.0437458,9.89093044 61.0302557,10.0226774 60.9645961,10.1269303 C60.7189533,10.5410792 58.4503697,14 56.593599,14 Z M50.481428,9.65909543 L50.5392263,9.65909543 C52.6488645,9.65909543 53.7903811,10.8555257 54.7946267,11.8832285 C55.2319117,12.3732826 55.7331106,12.794269 56.2829331,13.1333447 C57.2582796,13.662535 59.1728485,11.4690796 60.2348924,9.85083104 C59.873653,9.0838886 58.0674559,6.29988751 52.0058583,5.83205261 C48.039136,5.44282431 44.172961,7.30249983 41.8333561,10.7251454 C42.3363047,11.8513401 43.2745798,12.6906824 44.4053808,13.0259728 C45.2940298,13.2637249 46.1032061,12.4891131 47.0352038,11.5994598 C47.9672016,10.7098066 49.079819,9.65909543 50.481428,9.65909543 Z" id="Shape" fill="#231F20"></path>
                <path d="M41.0260301,11 C41.0127448,8.81459588 41.265191,6.63525492 41.7781739,4.50682269 C42.5904891,1.59834462 48.7731106,-0.452132427 51.9998072,0.0859360174 C55.2265038,0.624004462 59.6566303,2.99441409 60.2733882,4.39775477 C60.890146,5.80109544 61.0255319,10.2147109 61.0255319,10.2147109 C61.0255319,10.2147109 48.6226818,3.93966947 41.0260301,11 Z" id="Path" fill="#1C232A"></path>
                <path d="M41.3953749,11.9948092 C41.3498145,12.0017303 41.3035123,12.0017303 41.2579519,11.9948092 C41.1201965,11.9358248 41.029384,11.7986797 41.0265027,11.6452744 C41.0081184,9.37539154 41.2508977,7.1112388 41.7497815,4.89999614 C42.6032505,1.62775532 48.7655856,-0.484327391 52.0058745,0.0957516642 C55.2461633,0.675830719 59.5786032,3.13001134 60.265718,4.72894719 C60.9528328,6.32788305 61.0251607,10.678476 61.0251607,10.8569618 C61.0311377,10.9927536 60.9645766,11.1210778 60.8515738,11.1916228 C60.7363619,11.2550855 60.5979135,11.2550855 60.4827016,11.1916228 C60.366977,11.1246906 48.6643265,4.95205452 41.6412897,11.9353139 C41.5692088,11.9855325 41.4816712,12.0067109 41.3953749,11.9948092 Z M50.8847924,0.742762918 C47.8542543,0.742762918 43.1384767,2.55736919 42.4875259,5.06360818 C42.0433961,6.9217989 41.8008239,8.82485854 41.7642471,10.7379712 C48.273756,5.17516185 57.8355013,9.08697701 60.2512524,10.2173875 C60.2006229,8.93080188 60.027036,6.05271734 59.5786032,5.01154981 C59.0361441,3.75471186 54.9568518,1.37490035 51.8684515,0.824568938 C51.5432193,0.770304948 51.2142784,0.742948574 50.8847924,0.742762918 L50.8847924,0.742762918 Z" id="Shape" fill="#494C50"></path>
                <path d="M52.1573303,24.9999611 C51.126386,24.9559507 50.1213056,24.676819 49.2256637,24.1857763 C49.1384457,24.1430625 49.0726486,24.0687508 49.0428922,23.9793529 C49.0131358,23.889955 49.0218848,23.7928756 49.0671953,23.7096852 C49.1629892,23.5347573 49.388374,23.4669041 49.5714131,23.5578881 C50.9328013,24.2478752 52.0925023,24.4410716 53.0217038,24.1581769 C53.5663175,24.0056738 54.0298984,23.6602901 54.3182639,23.1921949 C54.4140578,23.0172669 54.6394426,22.9494138 54.8224818,23.0403977 C55.0027141,23.1267858 55.0766364,23.3361381 54.9881533,23.509589 C54.609062,24.1431898 53.9942171,24.6163299 53.2666096,24.8343642 C52.9084126,24.9457858 52.5339359,25.0016889 52.1573303,24.9999611 L52.1573303,24.9999611 Z" id="Path" fill="#231F20"></path>
                <ellipse id="Oval" fill="#231F20" transform="translate(54.514981, 14.466202) rotate(-3.780000) translate(-54.514981, -14.466202) " cx="54.514981" cy="14.4662016" rx="1" ry="1"></ellipse>
                <ellipse id="Oval" fill="#231F20" transform="translate(48.176565, 14.927468) rotate(-3.780000) translate(-48.176565, -14.927468) " cx="48.1765651" cy="14.9274677" rx="1" ry="1"></ellipse>
                <path d="M53.6719966,66 L47.3790673,66 C47.1838151,66 47.0255319,65.8315593 47.0255319,65.6237773 L47.0255319,56.3762227 C47.0255319,56.1684407 47.1838151,56 47.3790673,56 L53.6719966,56 C53.8672487,56 54.0255319,56.1684407 54.0255319,56.3762227 L54.0255319,65.6237773 C54.0217702,65.8298784 53.8656692,65.9959969 53.6719966,66 Z M47.7255319,65.2475546 L53.3184612,65.2475546 L53.3184612,56.7524454 L47.7255319,56.7524454 L47.7255319,65.2475546 Z" id="Shape" fill="#FFFFFF"></path>
                <path d="M100.341167,47.4894952 C100.230353,47.4218165 90.3236264,68.9210859 84.3101472,69.8761077 C78.296668,70.8311295 75.3564165,66.1161795 78.0011653,60.85228 C80.6459142,55.5883805 90.5821913,46.3013579 90.5821913,46.3013579 L102.025532,42 L100.341167,47.4894952 Z" id="Path" fill="#FFFFFF"></path>
                <path d="M82.2615672,69.9888499 C80.2419217,70.1095404 78.2914917,69.244635 77.0478023,67.6768401 C75.6847751,65.8184524 75.6847751,63.1625677 77.0478023,60.5652148 C79.7217188,55.443674 89.4267699,46.6638897 89.843871,46.2834324 C89.8800482,46.2484031 89.9231383,46.2210145 89.9704911,46.202951 L101.507808,42.025237 C101.646361,41.9724761 101.803511,42.0039218 101.910013,42.1057183 C102.014288,42.2066194 102.05175,42.3566457 102.00684,42.4934921 L100.286297,47.8272111 C100.268067,47.8759741 100.240225,47.9207268 100.204367,47.9589079 C100.137333,48.0759716 99.9138856,48.5076444 99.6606456,48.997849 C92.7263382,62.2992222 87.3934015,69.3230496 83.8108002,69.8717861 C83.2980465,69.9483854 82.7802146,69.987514 82.2615672,69.9888499 L82.2615672,69.9888499 Z M90.3205581,46.8907008 C89.5161487,47.6223495 80.2505436,56.1387402 77.7479364,60.9090897 C76.5189775,63.2503655 76.4966328,65.6135908 77.6883505,67.2378509 C78.8800682,68.862111 81.054953,69.5279113 83.7065249,69.1255045 C85.9931332,68.7743131 90.4993158,64.940474 98.9903044,48.6393411 C99.3105785,48.0174398 99.4744397,47.7101473 99.578715,47.5418681 L101.068362,42.9836968 L90.3205581,46.8907008 Z" id="Shape" fill="#231F20"></path>
                <polygon id="Path" fill="#FFFFFF" points="94.4159223 55 74.0255319 55 83.6351415 30 104.025532 30"></polygon>
                <path d="M94.2802165,54.9999943 L74.4008873,54.9999943 C74.2779642,55.0006729 74.1625858,54.940466 74.0923877,54.8390073 C74.0221897,54.7375485 74.0061718,54.6078452 74.0495589,54.492206 L83.418315,29.2502594 C83.4709711,29.1005144 83.6116746,29.0003071 83.7696433,29.0000234 L103.648973,29.0000234 C103.771996,28.9986297 103.887495,29.0594586 103.956385,29.1619494 C104.029164,29.2647821 104.045665,29.3975084 104.000301,29.5151895 L94.6315449,54.757136 C94.5747501,54.902628 94.435663,54.9987707 94.2802165,54.9999943 L94.2802165,54.9999943 Z M74.9425185,54.2640717 L94.0167203,54.2640717 L103.107341,29.758042 L84.0331396,29.758042 L74.9425185,54.2640717 Z" id="Shape" fill="#231F20"></path>
                <path d="M99.3098491,50 C99.4167496,49.6834268 103.243787,43.344768 103.015732,41.1791195 C102.851818,39.5962535 96.8867716,36.7830689 95.6110925,37.013304 C94.3354134,37.2435391 98.1624507,39.8192937 98.1624507,39.8192937 C98.1624507,39.8192937 92.3043043,37.2363442 91.933716,38.7544566 C91.5631276,40.272569 97.4854143,41.7906814 97.4854143,41.7906814 C97.4854143,41.7906814 91.1782859,40.6538958 91.0286252,41.9417731 C90.8789646,43.2296505 96.2097352,43.9851092 96.2097352,43.9851092 C96.2097352,43.9851092 91.2566796,43.6829257 92.0833766,44.8197113 C92.9100737,45.9564969 98.2052108,47.5105835 98.2052108,47.5105835" id="Path" fill="#FFFFFF"></path>
                <path d="M98.8467193,49.9922451 C98.8036744,50.002585 98.7588383,50.002585 98.7157934,49.9922451 C98.5270469,49.9230138 98.4293793,49.7119863 98.4975837,49.5207658 C98.6175333,49.2679794 98.7510844,49.0220477 98.8976349,48.7840793 C99.7704737,47.2002033 102.439906,42.3822735 102.265338,40.6805277 C102.265338,40.5700247 102.141686,40.1648472 101.17429,39.4281607 C99.2831387,37.9547877 96.1772871,36.7318881 95.2608064,36.7318881 L95.2608064,36.7318881 C96.0376764,37.5837556 96.9231563,38.3269823 97.8938702,38.9419476 C98.0527157,39.0509034 98.1058627,39.2630491 98.0175224,39.4355275 C97.9268721,39.6116401 97.7165462,39.6858747 97.537461,39.6049654 C95.755415,38.8240777 92.6277425,37.7337817 91.791272,38.1315924 C91.7112617,38.1757936 91.6967144,38.2126279 91.6894408,38.2494623 C91.514873,38.9861488 94.3952412,40.2016815 97.0864943,40.8941668 C97.2848849,40.941602 97.408316,41.1422803 97.3628932,41.3435456 C97.3192107,41.5445696 97.1264876,41.674698 96.9264738,41.6382202 C93.6460545,41.0415041 90.9257068,41.0562378 90.77296,41.4614154 C90.6202132,41.866593 93.1368985,42.7653505 95.7408677,43.1336938 C95.9423893,43.1640702 96.0857786,43.3480241 96.0681823,43.5536051 C96.0489626,43.7584628 95.8706084,43.9095433 95.6681311,43.8924809 C93.9079062,43.7819779 92.1767758,43.8924809 91.791272,44.1429543 C92.4677221,44.9606763 95.8281516,46.1688422 97.8284073,46.7581914 C98.0292638,46.8171862 98.1448705,47.0299238 98.0866221,47.2333542 C98.0283737,47.4367845 97.8183277,47.5538727 97.6174712,47.4948779 C97.050126,47.32544 92.0676709,45.8299664 91.1730111,44.5996999 C91.0037853,44.3927258 90.969655,44.104662 91.0857272,43.8630134 C91.2530213,43.5462382 91.7621773,43.3546997 92.4095328,43.2515636 C91.0711799,42.8390192 89.9364894,42.2423031 90.031047,41.4172142 C90.0605346,41.189478 90.1816159,40.9842012 90.3656352,40.8499656 C90.8820648,40.4668886 92.0822182,40.4079537 93.3332872,40.4742555 C91.9221978,39.848072 90.729318,39.0008825 90.9620751,38.1094918 C91.0283927,37.836978 91.2128943,37.6094891 91.4639574,37.4906752 C92.2422387,37.1002313 93.9006325,37.4906752 95.3553639,37.9768882 C94.6789138,37.3580716 94.3806939,36.8644916 94.4534304,36.5035152 C94.5115633,36.2327095 94.7403774,36.0340699 95.013502,36.0173021 C96.1845608,35.8110299 99.8432103,37.4906752 101.625256,38.8388115 C102.505369,39.5091962 102.956335,40.0911785 103.014525,40.6215928 C103.189093,42.3454392 101.2543,46.1025404 99.552264,49.18189 C99.3631489,49.5207658 99.2322231,49.7565055 99.2031285,49.8301741 C99.120219,49.9432734 98.9852615,50.0046431 98.8467193,49.9922451 L98.8467193,49.9922451 Z" id="Path" fill="#231F20"></path>
                <polygon id="Path" fill="#231F20" points="90.2898176 28 89.0255319 32 96.7826748 31.7299578 98.0255319 28"></polygon>
                <path d="M89.3907484,32.0000085 C89.2733273,31.9995183 89.1635088,31.9449178 89.0964114,31.8536592 C89.0257739,31.7608821 89.0066036,31.6415793 89.0449025,31.5331031 L90.3473435,28.2230128 C90.4024336,28.0877974 90.5401547,27.9989972 90.6931894,28.0000085 L98.6623625,28.0000085 C98.7828063,28.0014911 98.8948605,28.0587052 98.9623519,28.1531898 C99.0298433,28.2476744 99.0442234,28.367462 99.00085,28.4738828 L97.7204842,31.5609775 C97.6666876,31.6899974 97.535819,31.7753754 97.3893552,31.7770044 L89.3981068,32.0000085 L89.3907484,32.0000085 Z M90.9433758,28.6968784 L89.9205549,31.2892017 L97.1244519,31.0940806 L98.1251976,28.6968784 L90.9433758,28.6968784 Z" id="Shape" fill="#231F20"></path>
                <path d="M96.9488863,29.1243095 C97.0510805,28.7853202 97.0510805,28.4238537 96.9488863,28.0848644 C96.7361978,27.5246461 96.2404989,27.119694 95.647809,27.0219731 C95.0586282,26.9388531 94.4605391,27.0935735 93.9861922,27.4518189 C93.5274854,27.7710609 93.2014068,28.2462729 93.0691679,28.7882483 C92.9570253,29.2917342 93.0633041,29.8190299 93.3618189,30.2402192 C93.6603338,30.6614085 94.123329,30.9373294 94.6367309,31 C95.7436856,30.966829 96.6910979,30.1982595 96.9488863,29.1243095 Z" id="Path" fill="#231F20"></path>
                <path d="M94.8167073,32 L94.697574,32 C94.1850494,31.9541384 93.7150898,31.6304023 93.4135812,31.1155092 C93.0826424,30.560708 92.9553534,29.8593568 93.0627996,29.1827329 C93.1993091,28.5214215 93.5205081,27.9412019 93.9695368,27.5447869 C94.4443276,27.1090482 95.0391957,26.9235541 95.6241667,27.0288339 C96.2328342,27.1662964 96.7367851,27.6932273 96.9478707,28.4128983 C97.051419,28.8430755 97.051419,29.3012676 96.9478707,29.7314448 L96.9478707,29.7314448 C96.6870822,30.9618511 95.8388614,31.864755 94.8167073,32 L94.8167073,32 Z M95.2932408,27.7904788 C94.9536549,27.7986212 94.6247885,27.9390434 94.353411,28.1917756 C94.0262963,28.4674998 93.7911303,28.8807104 93.691559,29.3547172 C93.620868,29.7979567 93.7076663,30.2574065 93.9298257,30.6159356 C94.1143628,30.943941 94.4085614,31.1515341 94.7306666,31.181027 C95.5015974,31.1342275 96.1571889,30.4692879 96.3455854,29.543081 L96.3455854,29.543081 C96.4056677,29.2751518 96.4056677,28.9920372 96.3455854,28.724108 C96.2000545,28.2883578 95.8814961,27.9779776 95.5050334,27.905135 C95.4375338,27.8586926 95.3666168,27.8203009 95.2932408,27.7904788 Z" id="Shape" fill="#231F20"></path>
                <path d="M20.2365525,77.1468213 C20.2365525,77.1468213 16.9510394,71.8404181 12.1945124,72.003692 C8.91646628,72.1224367 4.02553191,74.5270166 4.02553191,74.5270166 L26.2848836,96.9474978 C26.2848836,96.9474978 33.460743,102.39491 34.6032055,100.658269 C35.7456681,98.9216282 36.432639,97.1849871 35.7606022,96.0569126 C35.0885654,94.9288381 31.280357,92.9398646 31.280357,92.9398646 L30.8099313,88.4053019 C30.8099313,88.4053019 28.1441853,89.3478378 27.2929388,88.8728591 C26.4416922,88.3978803 20.2365525,77.1468213 20.2365525,77.1468213 Z" id="Path" fill="#FFFFFF"></path>
                <path d="M33.5522933,102 C31.3639438,102 26.4912191,98.262148 25.9222482,97.8136058 L4.13358213,75.1921256 C4.04799636,75.1037991 4.00987311,74.978216 4.03145916,74.8557189 C4.05341623,74.733931 4.12870731,74.6292119 4.23570511,74.5716422 C4.43265656,74.474458 9.12301889,72.1121356 12.3690706,72 L12.6024945,72 C17.2782679,72 20.4294911,77.1432843 20.560792,77.3675554 L20.560792,77.3675554 C23.4202353,82.7276352 26.7611155,88.6558684 27.3227919,89.0745078 C27.7896397,89.3361575 29.4236073,88.9399452 30.4375426,88.56616 C30.5470198,88.5287373 30.6670035,88.5424 30.765795,88.6035385 C30.8639128,88.6653525 30.9285612,88.7702552 30.940863,88.8876153 L31.3858273,93.2534264 C32.2028111,93.7019686 35.0987269,95.3466235 35.7187593,96.445552 C36.5430376,97.8883628 35.5509858,99.9890356 34.573523,101.491652 C34.3929035,101.75188 34.1160589,101.924815 33.8076007,101.970097 C33.7234055,101.98698 33.6380343,101.996979 33.5522933,102 Z M5.04539441,75.0351358 L26.4182741,97.2305009 C27.8771737,98.4041864 32.2101056,101.469225 33.7127723,101.215051 C33.815503,101.206243 33.9103108,101.154963 33.9753742,101.073013 C35.1862609,99.2040867 35.5874583,97.7014702 35.0987269,96.8417643 C34.6099955,95.9820583 31.8891477,94.3897334 30.882507,93.8514827 C30.7729667,93.7909532 30.6993662,93.6792067 30.6855555,93.5524545 L30.2697691,89.4632445 C29.4090183,89.7398455 27.7385783,90.2108149 26.9799504,89.7547969 C26.1119052,89.2688762 21.3704813,80.4624969 19.9334652,77.7936706 C19.7948697,77.5693995 16.694708,72.6653377 12.4128376,72.807376 C9.8889412,72.859706 6.31463709,74.4370795 5.04539441,75.0351358 Z" id="Shape" fill="#231F20"></path>
                <path d="M38.6981299,148.96 L31.3529341,148.96 C31.2359646,148.96 31.1278803,148.872325 31.0693955,148.73 C31.0109107,148.587676 31.0109107,148.412324 31.0693955,148.27 C31.1278803,148.127675 31.2359646,148.04 31.3529341,148.04 L38.6981299,148.04 C38.878949,148.04 39.0255319,148.245949 39.0255319,148.5 C39.0255319,148.754051 38.878949,148.96 38.6981299,148.96 L38.6981299,148.96 Z" id="Path" fill="#231F20"></path>
                <path d="M64.6972537,148.96 L57.3538102,148.96 C57.1725071,148.96 57.0255319,148.754051 57.0255319,148.5 C57.0255319,148.245949 57.1725071,148.04 57.3538102,148.04 L64.6972537,148.04 C64.8785567,148.04 65.0255319,148.245949 65.0255319,148.5 C65.0255319,148.754051 64.8785567,148.96 64.6972537,148.96 L64.6972537,148.96 Z" id="Path" fill="#231F20"></path>
                <circle id="Oval" fill="#FFE000" cx="51.0255319" cy="4" r="2"></circle>
            </g>
        </g>
    </g>
</svg>