<svg width="20" height="20" viewBox="0 0 20 20" fill="none" xmlns="http://www.w3.org/2000/svg">
<path d="M18 10C18 14.4183 14.4183 18 10 18C5.58171 18 2 14.4183 2 10C2 5.58171 5.58171 2 10 2C14.4183 2 18 5.58171 18 10Z" fill="#614C10" fill-opacity="0.65"/>
<path d="M10 20C4.47721 20 0 15.5228 0 10C0 4.47721 4.47721 0 10 0C15.5228 0 20 4.47721 20 10C19.9938 15.5202 15.5202 19.9938 10 20ZM10 0.666667C4.84538 0.666667 0.666667 4.84538 0.666667 10C0.666667 15.1546 4.84538 19.3333 10 19.3333C15.1546 19.3333 19.3333 15.1546 19.3333 10C19.3275 4.84782 15.1522 0.672526 10 0.666667Z" fill="#FFE000"/>
<path d="M14.6668 10C14.6668 12.5774 12.5775 14.6667 10.0002 14.6667C7.42285 14.6667 5.3335 12.5774 5.3335 10C5.3335 7.42273 7.42285 5.33337 10.0002 5.33337C12.5775 5.33337 14.6668 7.42273 14.6668 10Z" fill="url(#paint0_linear)"/>
<defs>
<linearGradient id="paint0_linear" x1="5.3335" y1="5.33337" x2="5.3335" y2="14.6667" gradientUnits="userSpaceOnUse">
<stop stop-color="#FFD200"/>
<stop offset="1" stop-color="#FFE000"/>
</linearGradient>
</defs>
</svg>
