<?xml version="1.0" encoding="UTF-8"?>
<svg width="78px" height="79px" viewBox="0 0 78 79" version="1.1" xmlns="http://www.w3.org/2000/svg" xmlns:xlink="http://www.w3.org/1999/xlink">
    <title>273769D6-5353-4C9A-9381-DCB99C56AC1C</title>
    <defs>
        <filter id="filter-1">
            <feColorMatrix in="SourceGraphic" type="matrix" values="0 0 0 0 0.756863 0 0 0 0 0.780392 0 0 0 0 0.815686 0 0 0 1.000000 0"></feColorMatrix>
        </filter>
    </defs>
    <g id="Manager" stroke="none" stroke-width="1" fill="none" fill-rule="evenodd">
        <g id="user" transform="translate(-149.000000, -230.000000)" filter="url(#filter-1)">
            <g transform="translate(149.000000, 230.000000)">
                <path d="M39.5,39 C27.6452076,39 18,48.5811001 18,60.3570989 C18,61.2639519 18.740973,62 19.6538939,62 C20.5668147,62 21.3077877,61.2637979 21.3077877,60.3569448 C21.3077877,50.3914179 29.4677933,42.2856483 39.5,42.2856483 C49.5322067,42.2856483 57.6922123,50.3914179 57.6922123,60.3569448 C57.6922123,61.2637979 58.4331853,62 59.3461061,62 C60.259027,62 61,61.2637979 61,60.3569448 C61,48.5811001 51.3547924,39 39.5,39 Z" id="Path" fill="#000000" fill-rule="nonzero"></path>
                <path d="M39.5,12 C33.1586511,12 28,17.1584971 28,23.5 C28,29.8415029 33.1584971,35 39.5,35 C45.8415029,35 51,29.8413489 51,23.5 C51,17.1586511 45.8415029,12 39.5,12 Z M39.5,31.7141977 C34.9723573,31.7141977 31.2858023,28.0276427 31.2858023,23.5 C31.2858023,18.9723573 34.9723573,15.2858023 39.5,15.2858023 C44.0276427,15.2858023 47.7141977,18.9723573 47.7141977,23.5 C47.7141977,28.0276427 44.0277968,31.7141977 39.5,31.7141977 Z" id="Shape" fill="#000000" fill-rule="nonzero"></path>
            </g>
        </g>
    </g>
</svg>