<svg width="30" height="30" viewBox="0 0 30 30" fill="none" xmlns="http://www.w3.org/2000/svg">
<path d="M26.0833 29H3.91667C2.309 29 1 27.691 1 26.0834V6.25004C1 4.64237 2.309 3.33337 3.91667 3.33337H26.0833C27.691 3.33337 29 4.64237 29 6.25004V26.0834C29 27.691 27.691 29 26.0833 29ZM3.91667 4.50004C2.95183 4.50004 2.16667 5.28521 2.16667 6.25004V26.0834C2.16667 27.0482 2.95183 27.8334 3.91667 27.8334H26.0833C27.0482 27.8334 27.8333 27.0482 27.8333 26.0834V6.25004C27.8333 5.28521 27.0482 4.50004 26.0833 4.50004H3.91667Z" fill="#040B11" stroke="black" stroke-width="0.5"/>
<path d="M28.4167 11.5H1.58333C1.26133 11.5 1 11.2387 1 10.9167C1 10.5947 1.26133 10.3334 1.58333 10.3334H28.4167C28.7387 10.3334 29 10.5947 29 10.9167C29 11.2387 28.7387 11.5 28.4167 11.5Z" fill="#040B11" stroke="black" stroke-width="0.5"/>
<path d="M7.41683 6.83333C7.09483 6.83333 6.8335 6.572 6.8335 6.25V1.58333C6.8335 1.26133 7.09483 1 7.41683 1C7.73883 1 8.00016 1.26133 8.00016 1.58333V6.25C8.00016 6.572 7.73883 6.83333 7.41683 6.83333Z" fill="#040B11" stroke="black" stroke-width="0.5"/>
<path d="M22.5833 6.83333C22.2613 6.83333 22 6.572 22 6.25V1.58333C22 1.26133 22.2613 1 22.5833 1C22.9053 1 23.1667 1.26133 23.1667 1.58333V6.25C23.1667 6.572 22.9053 6.83333 22.5833 6.83333Z" fill="#040B11" stroke="black" stroke-width="0.5"/>
</svg>
