<?xml version="1.0" encoding="UTF-8"?>
<svg id="Layer_1" data-name="Layer 1" xmlns="http://www.w3.org/2000/svg" viewBox="0 0 2834.98 2305.62">
  <defs>
    <style>
      .cls-1 {
        opacity: .34;
      }

      .cls-2 {
        opacity: .25;
      }

      .cls-3 {
        opacity: .8;
      }

      .cls-4 {
        fill: #371a45;
      }

      .cls-4, .cls-5, .cls-6, .cls-7, .cls-8, .cls-9, .cls-10, .cls-11, .cls-12, .cls-13 {
        stroke-width: 0px;
      }

      .cls-5 {
        fill: #070c10;
      }

      .cls-6 {
        fill: #080c0f;
      }

      .cls-7 {
        fill: #cad3db;
      }

      .cls-8 {
        fill: #d8b316;
      }

      .cls-9 {
        fill: #fff;
      }

      .cls-10 {
        fill: #fff2d3;
      }

      .cls-11 {
        fill: #feda24;
      }

      .cls-12 {
        fill: #fbb987;
      }

      .cls-13 {
        fill: #ffdf05;
      }
    </style>
  </defs>
  <g>
    <g>
      <g>
        <path class="cls-7" d="m242.14,1393.93c-16.86,0-32.19-9.27-40.01-24.19-5.6-10.68-6.71-22.9-3.11-34.41,3.59-11.51,11.45-20.94,22.13-26.54l29.44-15.44c3.43-1.8,5.77-5.46,5.97-9.32l4.07-78.52c1.86-35.83,22.79-68.35,54.64-84.85l431.6-223.74c14.2-7.46,30.31-11.4,46.59-11.4,18.97,0,37.46,5.22,53.47,15.11l67.21,41.49c1.79,1.1,3.85,1.69,5.96,1.69,1.76,0,3.47-.42,4.94-1.21l29.89-15.68.42-.22c6.27-3.15,13.26-4.8,20.23-4.8,16.85,0,32.18,9.27,40.01,24.19,11.56,22.04,3.04,49.39-19.01,60.96l-29.44,15.44c-14.43,7.54-30.71,11.52-47.13,11.52-18.95,0-37.38-5.2-53.32-15.03l-67.21-41.49c-1.74-1.07-3.77-1.64-5.88-1.64-1.76,0-3.49.4-5.02,1.17l-.24.12-431.54,223.71c-3.51,1.82-5.82,5.4-6.02,9.35l-4.07,78.52c-1.84,35.63-22.62,68.06-54.22,84.63l-29.72,15.58-.45.23c-6.25,3.14-13.24,4.79-20.21,4.79Z"/>
        <path class="cls-6" d="m793.46,905.02c15.06,0,30.12,4.11,43.23,12.2l67.21,41.49c4.92,3.04,10.56,4.59,16.2,4.59,4.88,0,9.75-1.16,14.17-3.53l29.43-15.44c.14-.07.28-.15.42-.22,3.68-1.85,7.6-2.72,11.47-2.72,9.23,0,18.15,5,22.74,13.74,6.58,12.55,1.75,28.05-10.8,34.63l-29.44,15.44c-11.85,6.19-24.97,9.29-38.07,9.29-15,0-29.99-4.05-43.07-12.13l-67.21-41.49c-4.9-3.02-10.51-4.55-16.13-4.55-4.72,0-9.44,1.08-13.76,3.24-.12.06-.24.12-.36.18l-431.65,223.77c-9.63,4.99-15.96,14.82-16.52,25.65l-4.07,78.52c-1.49,28.79-18.27,54.98-43.8,68.37l-29.44,15.44c-.14.07-.28.15-.42.22-3.68,1.85-7.6,2.72-11.47,2.72-9.23,0-18.15-5-22.74-13.75-6.58-12.54-1.74-28.05,10.8-34.63l29.44-15.44c9.55-5.01,15.83-14.81,16.39-25.58l4.07-78.52c1.5-28.95,18.41-55.21,44.14-68.55l431.66-223.77c11.69-6.15,24.63-9.18,37.56-9.18m0-39c-19.4,0-38.61,4.7-55.58,13.59l-431.59,223.74c-37.97,19.68-62.93,58.44-65.14,101.15l-3.82,73.78-25.24,13.23c-15.29,8.02-26.55,21.52-31.69,38-5.14,16.48-3.56,33.99,4.46,49.28,11.2,21.36,33.15,34.64,57.28,34.64,9.99,0,20.01-2.37,28.96-6.86.21-.1.41-.21.61-.31l.14-.07.29-.15,29.44-15.44c37.67-19.75,62.44-58.42,64.63-100.9l3.82-73.75,423.24-219.41,63.2,39.01c19.01,11.74,40.99,17.94,63.56,17.94,19.55,0,38.96-4.74,56.13-13.72h.03s.03-.03.03-.03l29.44-15.44c31.57-16.57,43.78-55.72,27.22-87.29-11.2-21.36-33.15-34.63-57.27-34.63-9.99,0-20,2.37-28.96,6.86h-.03s-.03.03-.03.03c-.2.1-.39.2-.59.3l-.12.06-.29.15-25.23,13.24-63.17-39c-19.1-11.79-41.13-18.02-63.72-18.02h0Z"/>
      </g>
      <g class="cls-2">
        <g>
          <path class="cls-4" d="m242.17,1393.92c-13.74,0-27.01-6.44-35.5-17.23l-15.07-19.16,22-10.5c.28-.13.55-.25.8-.36l30.73-16.06c21.2-11.08,35.52-31.78,37.39-54.01l6.6-78.63c1.47-17.47,12.38-33.5,28.5-41.83l457.69-236.72.38-.19c7.48-3.75,15.84-5.74,24.18-5.74,9.03,0,17.82,2.3,25.42,6.65l68.95,39.47c9.48,5.43,20.67,8.3,32.34,8.3s23.27-2.85,33.62-8.25l52.93-27.68,6.15,23.77c5.28,20.41-4.05,41.49-22.68,51.27l-29.44,15.44c-14.43,7.54-30.71,11.52-47.13,11.52-18.95,0-37.38-5.2-53.32-15.03l-67.21-41.49c-1.74-1.07-3.77-1.64-5.88-1.64-1.76,0-3.49.4-5.02,1.17l-.24.12-431.54,223.71c-3.51,1.82-5.82,5.4-6.02,9.35l-4.07,78.52c-1.84,35.63-22.62,68.06-54.22,84.63l-29.72,15.58-.45.23c-6.24,3.13-13.22,4.79-20.18,4.79Z"/>
          <path class="cls-6" d="m799.86,932.99c5.54,0,10.99,1.36,15.74,4.08l68.95,39.47c12.69,7.26,27.25,10.88,42.02,10.88s29.28-3.5,42.64-10.46l31.19-16.31c2.92,11.27-2.11,23.47-12.87,29.12l-29.44,15.44c-11.85,6.19-24.96,9.29-38.07,9.29-15,0-29.99-4.05-43.07-12.13l-67.21-41.49c-4.9-3.02-10.51-4.55-16.13-4.55-4.72,0-9.45,1.08-13.76,3.24-.12.06-.24.12-.36.18l-431.65,223.77c-9.63,4.99-15.96,14.82-16.52,25.65l-4.07,78.52c-1.49,28.79-18.27,54.98-43.8,68.37l-29.44,15.44c-.14.07-.28.15-.42.22-3.67,1.84-7.58,2.72-11.44,2.72-7.73,0-15.24-3.52-20.17-9.79.17-.08.34-.12.51-.2.15-.07.3-.15.44-.23l31.2-16.31c27.06-14.15,45.37-40.84,47.78-69.66l6.59-78.62c.91-10.85,7.81-20.86,18.02-26.14l457.49-236.62c.13-.06.25-.13.38-.19,4.87-2.44,10.19-3.67,15.44-3.67m0-39h0c-11.33,0-22.69,2.69-32.86,7.77h0l-.28.14-.12.06-.24.12-.24.12-457.49,236.62c-22.01,11.38-36.94,33.42-38.97,57.52l-6.59,78.63c-1.29,15.41-11.88,30.47-26.99,38.36l-30.16,15.77c-.24.11-.47.22-.71.33l-44.03,20.99,30.15,38.33c12.34,15.68,30.86,24.68,50.83,24.68,9.98,0,19.98-2.37,28.92-6.86.2-.1.41-.21.63-.32l.14-.07.27-.14,29.44-15.44c37.67-19.75,62.44-58.42,64.64-100.89l3.82-73.75,423.24-219.41,63.2,39.01c19.01,11.74,40.99,17.94,63.56,17.94,19.55,0,38.96-4.74,56.13-13.72h.03s.03-.03.03-.03l29.44-15.44c13.02-6.83,23.4-18.01,29.23-31.48,5.7-13.17,6.87-28.06,3.27-41.94l-12.31-47.55-43.52,22.76-31.16,16.29c-7.58,3.95-16.09,6.04-24.6,6.04s-16.11-1.98-22.65-5.72l-68.95-39.47c-10.55-6.04-22.69-9.23-35.11-9.23h0Z"/>
        </g>
      </g>
      <g>
        <path class="cls-5" d="m242.27,1403.94c-20.7,0-39.5-11.32-49.05-29.54-6.84-13.06-8.19-28-3.8-42.08,4.39-14.08,14-25.6,27.06-32.45l29.43-15.44c.32-.17.58-.58.6-.94l4.07-78.52c2.04-39.38,25.06-75.12,60.06-93.26l431.59-223.74c15.54-8.21,33.23-12.56,51.15-12.56,20.86,0,41.2,5.75,58.83,16.64l67.21,41.49c.19.12.4.18.61.18.11,0,.26-.02.41-.09l30.27-15.87.16-.08c7.59-3.81,16.09-5.82,24.59-5.82,20.7,0,39.49,11.32,49.04,29.53,14.13,26.95,3.71,60.38-23.24,74.52l-29.43,15.44c-15.78,8.33-33.67,12.75-51.71,12.75-20.79,0-41.09-5.75-58.69-16.62l-67.21-41.48c-.14-.09-.37-.14-.6-.14-.17,0-.34.03-.48.09l-431.7,223.79c-.33.17-.59.57-.6.94l-4.07,78.52c-2.02,39.16-24.86,74.8-59.59,93.01l-30.33,15.89c-7.59,3.81-16.09,5.82-24.59,5.82Z"/>
        <path class="cls-6" d="m793.38,894.94c16.87,0,33.8,4.6,48.59,13.73l67.21,41.49c3.34,2.06,7.1,3.08,10.86,3.08,3.27,0,6.52-.78,9.48-2.33l30.1-15.79c5.07-2.54,10.49-3.75,15.85-3.75,12.9,0,25.43,6.99,31.77,19.09,9.14,17.43,2.4,39.05-15.03,48.2l-29.43,15.44c-13.34,7.04-28.01,10.52-42.65,10.52-16.89,0-33.73-4.62-48.45-13.71l-67.21-41.49c-3.29-2.03-7.06-3.05-10.84-3.05-3.17,0-6.35.72-9.25,2.18l-431.89,223.89c-6.47,3.35-10.72,9.96-11.1,17.24l-4.07,78.52c-1.67,32.31-20.51,61.73-49.17,76.75l-30.01,15.73c-5.07,2.54-10.49,3.75-15.85,3.75-12.9,0-25.43-6.99-31.78-19.09-4.43-8.44-5.3-18.11-2.46-27.21,2.84-9.1,9.05-16.56,17.5-20.99l29.44-15.44c6.42-3.36,10.64-9.95,11.02-17.2l4.07-78.52c1.69-32.5,20.67-61.98,49.56-76.95l431.66-223.77c13.03-6.9,27.54-10.33,42.11-10.33m-551.2,469.42c2.34,0,4.7-.52,6.92-1.63l29.7-15.57c22.39-11.74,37.12-34.73,38.43-59.99l4.07-78.52c.75-14.38,9.15-27.43,21.93-34.05l432.13-224.01c5.72-2.87,11.99-4.29,18.25-4.29,7.47,0,14.93,2.02,21.42,6.03l67.21,41.49c11.44,7.07,24.5,10.59,37.61,10.59,11.5,0,23.04-2.71,33.59-8.1l29.42-15.43c7.62-4,10.56-13.44,6.56-21.06-2.77-5.29-8.24-8.34-13.88-8.34-2.34,0-4.71.53-6.92,1.64l-29.7,15.57c-5.84,3.14-12.31,4.7-18.81,4.7-7.45,0-14.92-2.05-21.51-6.11l-67.21-41.49c-11.57-7.14-24.76-10.74-37.92-10.74-10.91,0-21.8,2.47-31.74,7.46-.39.2-.78.4-1.18.6l-431.71,223.8c-22.57,11.7-37.41,34.74-38.73,60.14l-4.07,78.52c-.74,14.3-9.08,27.32-21.76,33.96l-29.43,15.44c-3.69,1.94-6.4,5.19-7.64,9.17-1.24,3.98-.86,8.2,1.07,11.89,2.77,5.29,8.24,8.34,13.88,8.34m551.2-508.42c-21.06,0-41.87,5.11-60.19,14.78l-431.53,223.71c-41.12,21.31-68.15,63.29-70.55,109.55l-3.53,68.06-20.16,10.57c-17.67,9.26-30.68,24.86-36.62,43.91-5.94,19.05-4.12,39.27,5.15,56.93,12.93,24.66,38.34,39.98,66.32,39.98,11.52,0,23.05-2.73,33.34-7.89l.31-.16.31-.16,30.01-15.73c40.81-21.4,67.63-63.27,70.01-109.28l3.52-68,413.07-214.13,58.34,36.01c20.68,12.77,44.52,19.52,68.93,19.52,21.18,0,42.2-5.19,60.81-15.01l29.39-15.42c36.47-19.14,50.58-64.38,31.45-100.85-12.92-24.65-38.33-39.97-66.31-39.97-11.52,0-23.05,2.73-33.34,7.89l-.31.16-.31.16-20.75,10.88-58.3-35.99c-20.71-12.78-44.59-19.54-69.07-19.54h0Z"/>
      </g>
      <g>
        <g>
          <rect class="cls-7" x="420.93" y="1355.22" width="89.82" height="162.13" transform="translate(-1020.05 1167.81) rotate(-61.79)"/>
          <path class="cls-6" d="m423.59,1384.79l108.51,58.21-24.02,44.78-108.51-58.21,24.02-44.78m-15.93-52.8l-18.44,34.37-24.02,44.78-18.44,34.37,34.37,18.44,108.51,58.21,34.37,18.44,18.44-34.37,24.02-44.78,18.44-34.37-34.37-18.44-108.51-58.21-34.37-18.44h0Z"/>
        </g>
        <g>
          <path class="cls-5" d="m508.08,1519.85c-5.27,0-10.52-1.32-15.16-3.81l-108.5-58.21c-7.54-4.04-13.06-10.78-15.54-18.97-2.48-8.22-1.61-16.89,2.43-24.44l24.03-44.79c4-7.43,10.91-13.09,18.98-15.53,3.02-.91,6.14-1.37,9.28-1.37,5.27,0,10.52,1.32,15.16,3.81l108.5,58.21c7.54,4.04,13.07,10.79,15.54,18.99,2.48,8.2,1.61,16.87-2.44,24.42l-24.02,44.78c-3.16,5.87-7.95,10.53-13.88,13.5-1.64.82-3.37,1.51-5.13,2.04-2.99.9-6.11,1.36-9.25,1.36Z"/>
          <path class="cls-6" d="m423.59,1372.23c2.05,0,4.1.5,5.94,1.49l108.51,58.21c6.12,3.28,8.42,10.9,5.13,17.01l-24.02,44.78c-1.24,2.3-3.14,4.14-5.44,5.29-.64.32-1.31.59-2,.8-1.19.36-2.41.54-3.63.54-2.05,0-4.09-.5-5.94-1.49l-108.51-58.21c-2.94-1.58-5.13-4.25-6.09-7.44-.96-3.19-.62-6.63.96-9.57l24.02-44.78c1.58-2.94,4.27-5.13,7.44-6.09,1.19-.36,2.41-.54,3.63-.54m79.35,98.54l12.14-22.63-86.36-46.33-12.14,22.63,86.36,46.33m-79.35-137.54c-5.05,0-10.07.74-14.91,2.2-12.99,3.93-24.1,13.03-30.52,24.96l-24.04,44.81c-6.51,12.14-7.9,26.08-3.93,39.26v.03s.02.03.02.03c3.99,13.17,12.86,24,24.98,30.5l108.51,58.21c7.46,4.01,15.89,6.13,24.37,6.13,5.05,0,10.07-.74,14.91-2.2,2.78-.84,5.56-1.94,8.21-3.27,9.54-4.78,17.25-12.28,22.3-21.68l24.04-44.82c6.51-12.13,7.9-26.08,3.92-39.27-3.98-13.19-12.86-24.04-25.01-30.55l-108.49-58.2c-7.46-4.01-15.89-6.13-24.38-6.13h0Z"/>
        </g>
        <g>
          <path class="cls-7" d="m343.28,1578.56c-7.29,0-14.24-2.25-20.12-6.52-36.4-26.19-61.08-58.21-73.27-95.12-10.83-32.77-11.15-68.6-.94-103.64,11.37-38.95,35.14-75.15,66.93-101.94,33.02-27.83,72.17-43.16,110.22-43.16,16.77,0,33.25,2.94,48.97,8.72,11.05,4.06,21.86,9.61,32.09,16.48,12.37,8.22,18.08,24.03,13.83,38.4-28.66,96.84-79.57,189.21-151.33,274.54-6.56,7.79-16.17,12.25-26.37,12.25Z"/>
          <path class="cls-6" d="m426.08,1247.67c14.08,0,28.27,2.38,42.23,7.52,9.45,3.47,18.8,8.23,27.96,14.37,5.4,3.59,7.86,10.4,6,16.67-28.02,94.7-77.21,183.87-147.55,267.52-2.93,3.48-7.17,5.3-11.45,5.3-3.03,0-6.07-.91-8.67-2.8-70.04-50.4-84.2-118.32-66.95-177.53,20.99-71.88,88.27-131.05,158.42-131.06m.01-39v39-39h-.02c-42.64,0-86.25,16.97-122.78,47.76-34.69,29.24-60.64,68.79-73.08,111.37-11.33,38.86-10.93,78.71,1.14,115.24,6.57,19.89,16.58,38.78,29.73,56.12,13.57,17.89,30.62,34.28,50.67,48.71,9.22,6.67,20.11,10.19,31.51,10.19,15.96,0,31-6.99,41.27-19.17,36.66-43.6,68.27-89.31,93.97-135.91,25.83-46.84,46.41-95.85,61.15-145.67,3.28-11.09,2.94-22.72-.99-33.63-3.87-10.75-11.21-20.15-20.67-26.49h0c-11.53-7.74-23.72-14-36.25-18.6-17.86-6.58-36.6-9.92-55.67-9.92h0Z"/>
        </g>
        <g>
          <path class="cls-5" d="m343.23,1591.11c-9.91,0-19.37-3.05-27.37-8.81-50.62-36.44-80.4-84.3-86.13-138.38-4.95-46.76,8.53-95.81,37.94-138.1,38.63-55.56,99.57-90.08,159.03-90.08,31.15,0,60.57,9.15,87.44,27.19,16.9,11.34,24.67,32.89,18.89,52.41-29.15,98.53-80.88,192.42-153.76,279.05-4.14,4.91-9.13,8.85-14.85,11.72-6.54,3.28-13.87,5.01-21.2,5.01Zm82.49-311.58c-15.9,0-32.06,4.06-48.03,12.07-21.8,10.94-42.17,28.98-57.36,50.82-20.33,29.23-29.68,62.72-26.32,94.3,3.34,31.43,19.41,60.07,46.72,83.6,58.55-72.42,101.18-149.84,126.91-230.52-13.33-6.83-27.38-10.29-41.92-10.29Z"/>
          <path class="cls-6" d="m426.7,1235.23c25.64,0,51.76,7.23,76.57,23.88,9.9,6.64,14.45,19.26,11.07,30.68-28.39,95.95-78.85,187.48-149.98,272.04-2.46,2.92-5.42,5.21-8.67,6.84-3.88,1.95-8.16,2.94-12.46,2.94-5.57,0-11.17-1.68-15.97-5.13-99.94-71.95-93.9-177.18-43.58-249.53,32.43-46.65,86.56-81.71,143.02-81.71m-83.44,311.26c.7,0,1.4-.29,1.86-.84,68.9-81.89,117.72-170.38,145.12-262.99.29-.98-.12-2.11-.97-2.68-20.67-13.88-42.31-19.95-63.55-19.95-19.61,0-38.89,5.17-56.78,14.14-25.34,12.71-47.89,33.05-64.63,57.12-43.29,62.25-48.45,152.81,37.64,214.79.38.27.84.41,1.31.41m83.45-350.26v39-39c-33.88,0-68.59,9.96-100.41,28.81-29.17,17.28-54.98,41.36-74.65,69.64-32.09,46.14-46.76,99.87-41.32,151.29,4.41,41.67,24.32,101.9,94.13,152.16,11.32,8.16,24.73,12.48,38.76,12.48,10.35,0,20.71-2.45,29.95-7.08,8.09-4.06,15.16-9.63,21-16.57,74.63-88.72,127.64-184.97,157.55-286.1,3.98-13.42,3.53-28.14-1.27-41.43-4.86-13.47-13.67-24.78-25.47-32.7-30.13-20.23-63.21-30.5-98.29-30.5h0Zm-87.86,294.95c-14.72-16.91-23.26-35.83-25.46-56.51-2.86-26.92,5.28-55.72,22.94-81.11,13.36-19.21,31.15-35.02,50.1-44.53,13.23-6.64,26.45-10,39.29-10,5.93,0,11.78.74,17.52,2.22-23.22,65.93-58.2,129.59-104.39,189.93h0Z"/>
        </g>
        <g class="cls-2">
          <g>
            <path class="cls-4" d="m343.28,1578.56c-7.29,0-14.24-2.25-20.12-6.52-36.4-26.19-61.08-58.21-73.27-95.12-10.83-32.77-11.15-68.6-.94-103.64l24.2-83.04,13.77,85.39c2.64,16.36,6.16,35.09,14.63,50.29,8.96,16.08,23.63,26.47,37.36,26.47h.34c12.89-.16,26.91-8.69,44.12-26.86,22.94-24.24,41.17-51.71,52.69-79.41,12.66-30.43,17.02-60.09,12.96-88.14l-4.68-32.38,30.71,11.29c11.06,4.07,21.87,9.61,32.1,16.49,12.37,8.22,18.08,24.03,13.83,38.4-28.66,96.84-79.57,189.21-151.33,274.54-6.56,7.79-16.17,12.25-26.37,12.25Z"/>
            <path class="cls-6" d="m468.32,1255.19c9.45,3.47,18.8,8.23,27.96,14.37,5.4,3.59,7.86,10.4,6,16.67-28.02,94.7-77.21,183.87-147.55,267.52-2.93,3.48-7.17,5.3-11.45,5.3-3.03,0-6.07-.91-8.67-2.8-70.04-50.4-84.2-118.32-66.95-177.53,3.17,19.67,7.2,39.35,16.84,56.67,11.15,20.01,31.54,36.49,54.39,36.49.19,0,.38,0,.57,0,22.86-.28,42.31-16.33,58.05-32.94,46.72-49.36,80.46-116.95,70.8-183.75m-47.97-59.18l9.37,64.77c3.55,24.52-.38,50.71-11.67,77.85-10.62,25.54-27.52,50.96-48.86,73.5-16.15,17.04-25.33,20.69-30.19,20.75h-.1c-6.35,0-15.09-7.08-20.33-16.47-6.92-12.42-10.03-29.17-12.41-43.89l-27.54-170.78-48.4,166.08c-11.32,38.84-10.92,78.69,1.15,115.22,6.57,19.89,16.58,38.78,29.73,56.12,13.58,17.9,30.64,34.3,50.71,48.74,9.21,6.65,20.09,10.16,31.47,10.16,15.96,0,31-6.99,41.27-19.17,36.66-43.6,68.27-89.31,93.97-135.91,25.83-46.84,46.41-95.85,61.15-145.67,3.28-11.09,2.94-22.72-.99-33.63-3.88-10.77-11.24-20.18-20.72-26.52-11.51-7.73-23.69-13.97-36.2-18.57l-61.42-22.58h0Z"/>
          </g>
        </g>
        <g class="cls-3">
          <g>
            <path class="cls-9" d="m333.28,1374.04c-16.84,0-25.2-8.37-28.69-13.35-4.81-6.87-10.72-21.75,3.69-44.12,7.45-11.56,19.33-23.38,33.46-33.26,19.72-13.79,40.4-21.7,56.74-21.7s25.2,8.37,28.69,13.35c4.81,6.87,10.72,21.75-3.69,44.12-7.45,11.57-19.33,23.38-33.46,33.26-19.72,13.79-40.4,21.7-56.74,21.7h0Z"/>
            <path class="cls-6" d="m398.49,1281.1c5.84,0,10.33,1.62,12.71,5.03,7.16,10.24-7.32,32.72-32.35,50.23-16.69,11.67-33.86,18.18-45.57,18.18-5.84,0-10.33-1.62-12.71-5.03-7.16-10.24,7.32-32.72,32.35-50.23,16.7-11.68,33.86-18.18,45.57-18.18m0-39c-20.24,0-45,9.19-67.92,25.22-16.39,11.46-29.77,24.84-38.68,38.68-21.35,33.15-9.4,57.1-3.28,65.86,5.66,8.1,18.99,21.68,44.67,21.68,20.24,0,45-9.19,67.92-25.22,16.39-11.46,29.77-24.84,38.68-38.68,21.35-33.14,9.4-57.1,3.28-65.86-5.66-8.1-19-21.68-44.67-21.68h0Z"/>
          </g>
        </g>
      </g>
      <g>
        <g>
          <rect class="cls-7" x="852.8" y="1156.61" width="162.13" height="89.82" transform="translate(-392.63 1947.28) rotate(-81.49)"/>
          <path class="cls-6" d="m917.85,1136.87l50.26,7.52-18.22,121.78-50.26-7.52,18.22-121.78m-32.8-44.34l-5.77,38.57-18.22,121.78-5.77,38.57,38.57,5.77,50.26,7.52,38.57,5.77,5.77-38.57,18.22-121.78,5.77-38.57-38.57-5.77-50.26-7.52-38.57-5.77h0Z"/>
        </g>
        <g>
          <path class="cls-5" d="m949.88,1298.24c-1.58,0-3.17-.12-4.74-.35l-50.27-7.52c-8.47-1.27-15.94-5.76-21.03-12.64-5.1-6.91-7.2-15.36-5.93-23.82l18.23-121.78c1.27-8.47,5.76-15.95,12.65-21.04,5.49-4.05,12.26-6.28,19.07-6.28,1.58,0,3.17.12,4.74.35l50.26,7.52c8.47,1.27,15.94,5.76,21.04,12.65,5.09,6.89,7.2,15.35,5.93,23.82l-18.22,121.77c-1.27,8.47-5.76,15.95-12.65,21.04-1.46,1.08-3.04,2.05-4.69,2.88-4.44,2.23-9.41,3.4-14.38,3.4Z"/>
          <path class="cls-6" d="m917.86,1124.3c.62,0,1.24.05,1.85.14l50.25,7.52c6.86,1.03,11.6,7.42,10.57,14.29l-18.22,121.78c-.49,3.3-2.27,6.26-4.96,8.24-.58.43-1.2.81-1.84,1.13-1.75.88-3.68,1.34-5.64,1.34-.62,0-1.24-.05-1.86-.14l-50.26-7.52c-3.29-.49-6.26-2.28-8.24-4.96-1.98-2.68-2.82-6.04-2.32-9.33l18.23-121.78c.49-3.3,2.27-6.26,4.96-8.24,2.17-1.6,4.8-2.46,7.48-2.46m21.45,127.58l14.5-96.92-25.4-3.8-14.51,96.93,25.4,3.8m-21.45-166.58h-.01c-10.94,0-21.82,3.58-30.63,10.08-11.1,8.2-18.33,20.23-20.37,33.87l-18.22,121.76c-2.04,13.61,1.34,27.2,9.52,38.27,8.22,11.1,20.23,18.32,33.84,20.36l50.27,7.52c2.53.38,5.09.57,7.63.57,7.99,0,15.98-1.89,23.12-5.47,2.63-1.32,5.17-2.88,7.54-4.63,11.09-8.19,18.31-20.21,20.35-33.85l18.22-121.76c2.04-13.61-1.34-27.22-9.54-38.29-8.19-11.07-20.2-18.3-33.82-20.34l-50.26-7.52c-2.52-.38-5.08-.57-7.62-.57h0Z"/>
        </g>
        <g>
          <path class="cls-7" d="m1043.65,1203.7c-91.68,0-178.68-14.94-258.59-44.4-14.06-5.18-23.31-19.22-22.5-34.13.61-12.22,2.62-24.2,5.98-35.5,10.37-34.99,33.47-64.19,66.81-84.45,29.86-18.14,67.08-28.13,104.79-28.13,25.43,0,49.96,4.34,72.9,12.89,34.2,12.77,62.73,34.46,82.52,62.73,22.29,31.85,33.2,70.77,32.43,115.69-.24,17.84-14.46,32.7-32.38,33.76-17.45,1.02-34.93,1.53-51.97,1.53Z"/>
          <path class="cls-6" d="m940.14,996.6c22.47,0,45.06,3.83,66.09,11.66,57.78,21.57,103.75,73.53,102.26,159.81-.1,7.76-6.28,14.17-14.03,14.63-17.14,1-34.08,1.5-50.81,1.5-89.79,0-173.74-14.4-251.84-43.19-6.14-2.26-10.13-8.31-9.78-14.78.55-11.02,2.33-21.36,5.2-31.01,18.98-64.04,85.36-98.63,152.91-98.63m0-39c-20.32,0-40.41,2.59-59.71,7.7-19.91,5.27-38.48,13.1-55.21,23.26-37.54,22.81-63.61,55.86-75.38,95.58-3.79,12.76-6.06,26.26-6.76,40.11-.59,11.39,2.56,22.91,8.87,32.45,6.39,9.67,15.51,16.9,26.37,20.9,41.1,15.15,84.31,26.67,128.43,34.24,43.95,7.54,90.01,11.36,136.9,11.36,17.41,0,35.27-.53,53.09-1.57,13.62-.81,26.3-6.67,35.75-16.5,9.46-9.86,14.79-22.77,15.01-36.39.43-24.73-2.52-48.22-8.75-69.82-6.03-20.91-15.19-40.22-27.2-57.39-22.06-31.52-53.76-55.66-91.66-69.81-25.15-9.38-51.97-14.13-79.73-14.13h0Z"/>
        </g>
        <g>
          <path class="cls-5" d="m1044.09,1216.25c-93.52,0-182.14-15.19-263.4-45.16-19.09-7.03-31.71-26.15-30.7-46.48,2.44-49.11,24.86-90.73,64.84-120.33,34.09-25.25,79.89-39.73,125.64-39.73,2.43,0,4.89.04,7.31.12,51.49,1.71,98.86,20.24,133.38,52.17,39.93,36.93,60.48,89.42,59.42,151.79-.3,17.51-10.26,33.29-26,41.19-5.73,2.87-11.87,4.52-18.26,4.89-17.49,1.02-35.06,1.54-52.22,1.54Zm-228.72-100.87c70.69,24.38,147.57,36.74,228.71,36.74h.01c10.52,0,21.21-.21,31.94-.63-2.54-35.99-15.89-65.98-39.07-87.44-23.3-21.57-55.74-34.11-91.32-35.29-1.85-.06-3.72-.09-5.57-.09-24.99,0-49.01,5.42-69.46,15.68-22.25,11.16-48.77,32.33-55.24,71.03Z"/>
          <path class="cls-6" d="m940.47,984.04c2.23,0,4.44.04,6.66.11,88.09,2.93,176.04,61.01,173.96,184.14-.18,10.47-6.35,19.63-15.25,24.1-3.24,1.63-6.85,2.63-10.66,2.85-17.2,1.01-34.23,1.51-51.08,1.51-91.27,0-177.4-14.73-256.66-43.95-11.17-4.12-18.56-15.31-17.97-27.22,4.62-92.98,90.29-141.54,171-141.54m103.61,187.58c16.37,0,32.91-.49,49.62-1.47,1.17-.06,2.23-1.11,2.24-2.28,1.8-106.06-73.87-156.08-149.66-158.6-2.07-.07-4.15-.1-6.22-.1-27.27,0-54.66,5.94-78.21,17.75-37.26,18.69-64.92,52.08-67.3,99.91-.05,1.03.61,2.03,1.56,2.38,76.45,28.19,159.66,42.4,247.95,42.4m-103.6-226.58v39-39c-24.38,0-48.47,3.63-71.64,10.78-24.3,7.5-46.38,18.53-65.62,32.79-21.14,15.66-38.1,34.66-50.41,56.48-13.39,23.73-20.89,50.17-22.3,78.56-.71,14.18,3.09,28,10.98,39.95,7.78,11.79,19.31,20.95,32.46,25.79,83.42,30.76,174.31,46.36,270.14,46.36,17.54,0,35.5-.53,53.36-1.58,9.05-.53,17.76-2.86,25.86-6.93,22.26-11.17,36.34-33.51,36.76-58.29,1.46-86.02-34.91-137.99-65.68-166.44-37.96-35.11-89.8-55.47-145.97-57.34-2.63-.09-5.31-.13-7.94-.13h0Zm-101.34,157.61c2.05-4.99,4.64-9.7,7.76-14.08,7.73-10.86,18.65-19.87,32.45-26.79,17.5-8.78,39.06-13.61,60.72-13.61,1.64,0,3.29.03,4.93.08,30.9,1.03,58.86,11.72,78.72,30.11,15.27,14.13,25.32,32.28,30.07,54.2-3.25.04-6.49.06-9.71.06-72.32,0-141.11-10.07-204.94-29.96h0Z"/>
        </g>
        <g class="cls-2">
          <g>
            <path class="cls-4" d="m1043.65,1203.7c-91.68,0-178.68-14.94-258.59-44.4-14.06-5.18-23.31-19.22-22.5-34.13.61-12.22,2.62-24.2,5.98-35.5l9.31-31.37,23.16,23.12c32.01,31.96,81.6,49.56,139.61,49.56,11.21,0,22.63-.67,33.95-2,24.84-2.93,40.06-9.07,47.9-19.31,9.56-12.5,7.55-32.14,1.32-46.05-7.12-15.87-20.02-29.89-31.56-41.79l-60.21-62.1,81.03,30.25c34.19,12.77,62.72,34.46,82.51,62.73,22.29,31.85,33.2,70.77,32.43,115.69-.24,17.84-14.46,32.7-32.38,33.76-17.45,1.02-34.93,1.53-51.97,1.53Z"/>
            <path class="cls-6" d="m1006.23,1008.26c57.78,21.57,103.75,73.53,102.26,159.81-.1,7.76-6.28,14.17-14.03,14.63-17.14,1-34.08,1.5-50.81,1.5-89.79,0-173.74-14.4-251.84-43.19-6.14-2.26-10.13-8.31-9.78-14.78.55-11.02,2.33-21.36,5.2-31.01,39.33,39.26,96.68,55.26,153.39,55.26,12.17,0,24.3-.74,36.23-2.14,22.72-2.68,47.22-8.67,61.11-26.83,14.03-18.34,13.07-44.8,3.62-65.87-8.12-18.09-21.49-33.08-35.35-47.39m-148.4-97.04l120.4,124.19c10.38,10.71,21.94,23.22,27.77,36.21,4.43,9.87,4.85,21.15.98,26.21-2.95,3.86-11.37,9.04-34.71,11.79-10.55,1.24-21.2,1.87-31.66,1.87-52.82,0-97.51-15.58-125.84-43.86l-46.31-46.23-18.63,62.73c-3.79,12.78-6.07,26.28-6.76,40.13-.59,11.39,2.56,22.91,8.87,32.45,6.39,9.67,15.51,16.9,26.37,20.9,41.1,15.15,84.31,26.67,128.43,34.24,43.95,7.54,90.01,11.36,136.9,11.36,17.41,0,35.27-.53,53.09-1.57,13.62-.81,26.3-6.67,35.75-16.5,9.46-9.86,14.79-22.77,15.01-36.39.43-24.73-2.52-48.22-8.75-69.82-6.03-20.91-15.19-40.22-27.2-57.39-22.06-31.52-53.76-55.66-91.66-69.81l-162.04-60.51h0Z"/>
          </g>
        </g>
        <g class="cls-3">
          <g>
            <path class="cls-9" d="m871.21,1097.69c-32.24,0-41.19-16.52-43.54-23.62-2.64-7.96-4.04-23.91,16.18-41.21,10.45-8.94,25.22-16.85,41.59-22.27,14.1-4.67,28.18-7.13,40.7-7.13,32.24,0,41.19,16.52,43.54,23.62,2.64,7.96,4.04,23.91-16.18,41.21-10.45,8.94-25.22,16.85-41.59,22.27-14.1,4.67-28.18,7.13-40.7,7.13Z"/>
            <path class="cls-6" d="m926.14,1022.95c13.2,0,22.8,3.5,25.03,10.25,3.92,11.86-16.4,29.25-45.39,38.85-12.5,4.14-24.57,6.15-34.57,6.15-13.2,0-22.8-3.5-25.03-10.25-3.92-11.86,16.4-29.25,45.39-38.85,12.5-4.14,24.57-6.15,34.57-6.15m0-39c-14.57,0-30.77,2.81-46.82,8.12-18.99,6.28-35.64,15.26-48.14,25.97-29.95,25.64-25.37,52.01-22.02,62.15,4.75,14.35,15.77,25.59,31.03,31.65,8.94,3.55,19.37,5.35,31.02,5.35,14.57,0,30.76-2.81,46.82-8.12,18.99-6.28,35.64-15.26,48.14-25.97,29.95-25.64,25.37-52.01,22.02-62.15-4.75-14.35-15.77-25.59-31.03-31.65-8.94-3.55-19.38-5.35-31.02-5.35h0Z"/>
          </g>
        </g>
      </g>
      <g>
        <g>
          <rect class="cls-11" x="627.41" y="1165.08" width="79.21" height="149.59" transform="translate(-485.1 430.67) rotate(-26.64)"/>
          <path class="cls-6" d="m660.2,1181.44l49.58,98.85-35.94,18.03-49.58-98.85,35.94-18.03m17.37-52.35l-34.86,17.49-35.94,18.03-34.86,17.49,17.49,34.86,49.58,98.85,17.49,34.86,34.86-17.49,35.94-18.03,34.86-17.49-17.49-34.86-49.58-98.85-17.49-34.86h0Z"/>
        </g>
        <g>
          <path class="cls-5" d="m673.84,1326.53c-10.74,0-20.4-5.96-25.22-15.56l-49.58-98.85c-3.38-6.73-3.93-14.38-1.56-21.53,2.37-7.15,7.39-12.95,14.12-16.33l35.95-18.03c3.91-1.96,8.28-3,12.64-3,10.74,0,20.4,5.96,25.22,15.56l49.58,98.85c3.38,6.73,3.93,14.38,1.56,21.53-2.37,7.15-7.39,12.95-14.12,16.33l-35.95,18.03c-3.91,1.96-8.28,3-12.64,3Z"/>
          <path class="cls-6" d="m660.19,1172.73c3.19,0,6.26,1.76,7.79,4.8l49.58,98.85c2.16,4.3.42,9.53-3.88,11.69l-35.95,18.03c-1.25.63-2.58.93-3.9.93-3.19,0-6.26-1.76-7.79-4.8l-49.58-98.85c-2.16-4.3-.42-9.53,3.88-11.69l35.95-18.03c1.25-.63,2.59-.93,3.9-.93m17.52,113.9l20.38-10.22-41.78-83.28-20.38,10.22,41.78,83.28m-17.52-152.9c-7.38,0-14.78,1.75-21.38,5.07l-35.95,18.03c-23.51,11.8-33.04,40.52-21.25,64.03l49.58,98.85c8.15,16.24,24.49,26.32,42.65,26.32,7.38,0,14.78-1.75,21.38-5.07l35.95-18.03c23.51-11.8,33.05-40.52,21.25-64.03l-49.58-98.85c-8.14-16.23-24.48-26.32-42.65-26.32h0Z"/>
        </g>
        <g>
          <path class="cls-11" d="m605.17,1242.74c-16.04,0-30.48-8.9-37.67-23.24-10.41-20.76-2-46.12,18.76-56.53l67.4-33.81c5.84-2.93,12.36-4.48,18.87-4.48,16.04,0,30.48,8.9,37.67,23.24,10.41,20.76,2,46.12-18.76,56.53l-67.4,33.81c-5.84,2.93-12.36,4.48-18.87,4.48Z"/>
          <path class="cls-6" d="m672.53,1144.19c8.29,0,16.27,4.57,20.24,12.48,5.6,11.17,1.09,24.76-10.08,30.36l-67.4,33.81c-3.25,1.63-6.72,2.41-10.12,2.41-8.29,0-16.27-4.57-20.24-12.48-5.6-11.17-1.09-24.76,10.08-30.36l67.4-33.81c3.25-1.63,6.72-2.41,10.12-2.41m0-39h0c-9.53,0-19.07,2.26-27.61,6.55l-67.4,33.81c-30.37,15.23-42.68,52.34-27.45,82.71,5.22,10.41,13.24,19.09,23.19,25.1,9.63,5.82,20.66,8.9,31.91,8.9,9.52,0,19.07-2.26,27.61-6.54l67.4-33.81c14.71-7.38,25.67-20.05,30.85-35.67,5.19-15.62,3.98-32.33-3.4-47.04-5.22-10.41-13.24-19.09-23.19-25.1-9.63-5.82-20.67-8.9-31.91-8.9h0Z"/>
        </g>
        <g>
          <path class="cls-5" d="m605.2,1252.79c-19.9,0-37.79-11.03-46.69-28.78-12.9-25.71-2.47-57.13,23.24-70.03l67.4-33.81c7.22-3.62,15.29-5.54,23.34-5.54,19.9,0,37.79,11.03,46.69,28.78,12.9,25.72,2.47,57.13-23.25,70.03l-67.4,33.81c-7.22,3.62-15.29,5.53-23.34,5.53Z"/>
          <path class="cls-6" d="m672.49,1134.14c11.98,0,23.53,6.6,29.26,18.02,8.08,16.1,1.55,35.78-14.56,43.86l-67.4,33.81c-4.69,2.35-9.68,3.46-14.59,3.46-11.98,0-23.53-6.6-29.26-18.02-8.08-16.1-1.55-35.78,14.55-43.85l67.4-33.81c4.69-2.35,9.68-3.46,14.6-3.47m-67.32,79.04c1.89,0,3.81-.43,5.61-1.33l67.4-33.81c6.19-3.11,8.71-10.67,5.6-16.87-2.2-4.39-6.65-6.93-11.25-6.93-1.89,0-3.81.43-5.62,1.33l-67.4,33.81c-6.19,3.11-8.7,10.67-5.6,16.87,2.2,4.39,6.65,6.93,11.25,6.93m67.32-118.04h0c-11.07,0-22.16,2.63-32.08,7.6l-67.4,33.81c-17.1,8.58-29.84,23.31-35.87,41.49-6.03,18.18-4.63,37.61,3.95,54.71,6.07,12.11,15.41,22.21,27,29.2,11.21,6.76,24.04,10.34,37.12,10.34,11.07,0,22.16-2.63,32.08-7.6l67.4-33.81c35.33-17.72,49.65-60.88,31.93-96.2-6.07-12.11-15.41-22.21-27-29.2-11.21-6.76-24.04-10.34-37.12-10.34h0Z"/>
        </g>
      </g>
      <g>
        <path class="cls-7" d="m887.27,2272.86c-26.41,0-48.67-19.8-51.77-46.05l-19.24-162.63c-3.38-28.57,17.11-54.56,45.68-57.94,2.04-.24,4.12-.36,6.17-.36,26.41,0,48.67,19.8,51.77,46.05l19.24,162.63c3.38,28.57-17.11,54.56-45.68,57.94-2.04.24-4.12.36-6.17.36h0Z"/>
        <path class="cls-6" d="m868.12,2025.38c16.33,0,30.44,12.22,32.41,28.84l19.24,162.63c2.12,17.92-10.69,34.17-28.61,36.28-1.3.15-2.6.23-3.88.23-16.33,0-30.44-12.22-32.41-28.84l-19.24-162.63c-2.12-17.92,10.69-34.17,28.61-36.28,1.3-.15,2.6-.23,3.88-.23m0-39c-2.81,0-5.66.17-8.46.5-39.25,4.64-67.4,40.35-62.76,79.59l19.24,162.63c4.26,36.06,34.85,63.26,71.14,63.26,2.81,0,5.66-.17,8.46-.5,19.01-2.25,36.01-11.77,47.86-26.8,11.85-15.03,17.14-33.78,14.89-52.8l-19.23-162.63c-4.27-36.06-34.85-63.26-71.14-63.26h0Z"/>
      </g>
      <g>
        <path class="cls-5" d="m887.28,2286.12c-33.13,0-61.05-24.82-64.95-57.74l-19.23-162.64c-2.05-17.36,2.78-34.48,13.6-48.2,10.82-13.72,26.34-22.41,43.69-24.46,2.58-.31,5.2-.46,7.78-.46,14.78,0,28.76,4.86,40.42,14.06,13.72,10.82,22.41,26.34,24.46,43.7l19.24,162.63c3.22,27.27-11.12,53.87-35.68,66.19-6.77,3.4-14.04,5.57-21.6,6.47-2.56.3-5.16.46-7.72.46Z"/>
        <path class="cls-6" d="m868.17,2012.12c10.26,0,20.17,3.42,28.35,9.87,9.63,7.6,15.73,18.49,17.17,30.67l19.24,162.63c2.33,19.72-8.26,38.04-25.06,46.47-4.63,2.32-9.72,3.89-15.16,4.54-1.82.22-3.64.32-5.43.32-22.94,0-42.82-17.21-45.58-40.54l-19.23-162.63c-1.44-12.18,1.95-24.2,9.54-33.83,7.6-9.63,18.49-15.73,30.67-17.17,1.83-.22,3.66-.32,5.48-.32m19.13,227.98c.76,0,1.53-.04,2.3-.14,10.63-1.25,18.26-10.93,17-21.56l-19.24-162.63c-.61-5.15-3.18-9.76-7.26-12.97-3.46-2.73-7.64-4.17-11.98-4.17-.77,0-1.54.05-2.32.14-2.28.27-4.45.92-6.44,1.92-2.51,1.26-4.73,3.07-6.52,5.34-3.21,4.07-4.65,9.15-4.04,14.3l19.23,162.63c1.17,9.86,9.57,17.13,19.27,17.13m-19.13-266.98c-3.34,0-6.73.2-10.06.59-22.53,2.67-42.67,13.95-56.72,31.75-14.05,17.81-20.32,40.03-17.65,62.56l19.23,162.64c5.06,42.73,41.31,74.96,84.31,74.96,3.33,0,6.69-.2,10.01-.59,9.83-1.17,19.27-3.99,28.06-8.41,31.88-15.99,50.49-50.51,46.3-85.91l-19.24-162.64c-2.66-22.53-13.94-42.67-31.75-56.72-14.92-11.77-33.57-18.24-52.5-18.24h0Z"/>
      </g>
      <g>
        <path class="cls-7" d="m1328.02,2051.8c-13.41,0-26.15-5.08-35.89-14.31l-118.85-112.66c-10.11-9.59-15.89-22.54-16.26-36.47-.37-13.93,4.7-27.17,14.29-37.29,9.81-10.35,23.61-16.28,37.87-16.28,13.41,0,26.15,5.08,35.89,14.31l118.85,112.66c10.11,9.59,15.89,22.54,16.26,36.47.37,13.93-4.7,27.17-14.29,37.29-9.81,10.35-23.61,16.28-37.87,16.28Z"/>
        <path class="cls-6" d="m1209.17,1854.29c8.07,0,16.15,2.97,22.47,8.96l118.85,112.66c13.1,12.41,13.65,33.09,1.24,46.19h0c-6.42,6.78-15.06,10.2-23.72,10.2-8.07,0-16.15-2.97-22.47-8.96l-118.85-112.66c-13.1-12.41-13.65-33.09-1.24-46.19,6.42-6.78,15.06-10.2,23.72-10.2m0-39c-19.59,0-38.55,8.15-52.02,22.37-13.17,13.89-20.14,32.09-19.63,51.22.51,19.14,8.45,36.93,22.34,50.1l118.85,112.66c13.37,12.67,30.88,19.66,49.3,19.66,19.59,0,38.55-8.15,52.02-22.36,27.19-28.68,25.97-74.14-2.71-101.32l-118.85-112.66c-13.37-12.68-30.88-19.66-49.3-19.66h0Z"/>
      </g>
      <g>
        <path class="cls-5" d="m1328.01,2065.03c-16.83,0-32.81-6.36-45-17.92l-118.85-112.66c-26.18-24.83-27.29-66.32-2.48-92.5,12.03-12.68,28.27-19.92,45.73-20.39.6-.02,1.2-.02,1.79-.02,16.79,0,32.76,6.37,44.97,17.95l118.85,112.66c26.18,24.83,27.29,66.32,2.47,92.5-5.24,5.53-11.33,10.05-18.11,13.45-9.05,4.54-19.22,6.94-29.39,6.94Z"/>
        <path class="cls-6" d="m1209.2,1841.03c11.8,0,22.96,4.45,31.56,12.6l118.85,112.66c18.38,17.43,19.16,46.56,1.73,64.93-3.76,3.97-8.07,7.12-12.7,9.44-6.46,3.24-13.55,4.87-20.65,4.87-11.35,0-22.71-4.17-31.58-12.57l-118.85-112.66c-18.38-17.43-19.16-46.55-1.74-64.93,8.45-8.9,19.84-13.99,32.11-14.32.42-.01.85-.02,1.27-.02m118.81,178c5.15,0,10.28-2.03,14.09-6.05,7.37-7.77,7.04-20.09-.73-27.45l-118.86-112.66c-3.63-3.45-8.35-5.33-13.34-5.33-.18,0-.36,0-.54,0-2.89.08-5.67.78-8.18,2.04-1.99,1-3.81,2.35-5.39,4.01-7.37,7.77-7.04,20.08.74,27.45l118.85,112.66c3.75,3.55,8.56,5.32,13.35,5.32m-118.81-217c-.77,0-1.54.01-2.32.03-22.67.61-43.74,10.01-59.35,26.46-32.22,34-30.78,87.85,3.2,120.07l118.86,112.67c15.83,15,36.58,23.27,58.41,23.27,13.2,0,26.38-3.12,38.14-9.01,8.8-4.42,16.71-10.29,23.52-17.47,32.21-33.98,30.78-87.84-3.2-120.06l-118.86-112.66c-15.85-15.02-36.58-23.29-58.39-23.29h0Z"/>
      </g>
      <g>
        <g>
          <path class="cls-13" d="m880.7,2113.11c-83.09,0-164.68-22.73-235.95-65.74-73.29-44.22-132.36-108.14-170.83-184.83-27.45-54.73-43.35-113.26-47.25-173.97-3.77-58.61,3.75-116.74,22.35-172.77s47.33-107.12,85.39-151.84c39.43-46.33,87.17-83.74,141.9-111.19,63.74-31.97,132.03-48.18,202.99-48.18,83.09,0,164.68,22.73,235.95,65.74,73.29,44.22,132.36,108.14,170.83,184.83,27.45,54.73,43.35,113.26,47.25,173.97,3.77,58.61-3.75,116.74-22.35,172.77s-47.33,107.12-85.39,151.84c-39.43,46.33-87.17,83.74-141.9,111.19-63.74,31.97-132.03,48.18-202.99,48.18Z"/>
          <path class="cls-6" d="m879.28,1224.09c159.41,0,313.15,87.89,389.36,239.81,107.5,214.3,20.6,476.1-193.7,583.6-62.38,31.29-128.79,46.11-194.24,46.11-159.41,0-313.15-87.89-389.36-239.81-107.5-214.3-20.6-476.11,193.7-583.6,62.38-31.29,128.79-46.11,194.24-46.11m.01-39v39-39c-36.07,0-72.12,4.15-107.16,12.35-36.05,8.43-71.24,21.18-104.58,37.9-57.08,28.63-106.87,67.65-148,115.98-39.7,46.65-69.66,99.92-89.05,158.34-19.39,58.42-27.23,119.03-23.3,180.16,4.07,63.34,20.65,124.39,49.28,181.47,40.12,79.99,101.74,146.66,178.19,192.78,74.32,44.84,159.39,68.54,246.03,68.54,36.06,0,72.11-4.15,107.15-12.35,36.05-8.43,71.24-21.18,104.58-37.9,233.52-117.14,328.21-402.42,211.08-635.95-40.12-79.99-101.74-146.65-178.19-192.78-74.32-44.84-159.39-68.55-246.02-68.55h0Z"/>
        </g>
        <g>
          <path class="cls-9" d="m880.27,2040.35c-69.71,0-138.14-19.09-197.89-55.2-61.43-37.13-110.99-90.82-143.33-155.28-23.08-46.02-36.46-95.19-39.77-146.15-3.19-49.21,3.1-98,18.7-145.01s39.73-89.88,71.72-127.41c33.12-38.87,73.25-70.29,119.27-93.37,53.66-26.92,111.1-40.57,170.73-40.57,69.71,0,138.14,19.09,197.89,55.2,61.43,37.13,110.99,90.82,143.33,155.28,23.08,46.02,36.46,95.19,39.77,146.15,3.19,49.21-3.1,98-18.7,145.01-15.6,47.01-39.73,89.88-71.72,127.41-33.12,38.87-73.25,70.29-119.27,93.37-53.66,26.92-111.1,40.57-170.73,40.57Z"/>
          <path class="cls-6" d="m879.71,1296.86c132.6,0,260.28,73.13,323.78,199.73,89.62,178.67,17.43,396.15-161.23,485.77-52.07,26.12-107.45,38.5-161.99,38.5-132.6,0-260.28-73.13-323.78-199.73-89.62-178.66-17.43-396.15,161.23-485.77,52.07-26.12,107.45-38.49,161.99-38.5m0-39v39-39c-30.56,0-61.11,3.53-90.82,10.48-30.55,7.15-60.38,17.97-88.67,32.16-48.36,24.26-90.54,57.28-125.37,98.15-33.62,39.46-58.99,84.52-75.38,133.92-16.4,49.4-23.01,100.68-19.65,152.41,3.48,53.58,17.54,105.27,41.8,153.63,33.98,67.75,86.08,124.2,150.67,163.23,62.8,37.95,134.71,58.01,207.98,58.01,30.54,0,61.1-3.53,90.81-10.48,30.55-7.15,60.38-17.97,88.67-32.16,48.36-24.26,90.54-57.28,125.37-98.15,33.62-39.46,58.99-84.52,75.38-133.92,16.4-49.4,23.01-100.68,19.65-152.42-3.48-53.58-17.54-105.27-41.8-153.63-33.98-67.75-86.08-124.19-150.67-163.22-62.8-37.96-134.71-58.02-207.97-58.02h0Z"/>
        </g>
        <g class="cls-2">
          <g>
            <path class="cls-4" d="m880.27,2040.35c-69.7,0-138.13-19.09-197.89-55.21-61.44-37.13-111-90.82-143.33-155.28-2.64-5.27-5.22-10.76-7.89-16.77l34.82-17.47c60.52,107.49,174.91,174.26,298.52,174.26,53.49,0,105.05-12.25,153.23-36.42,79.16-39.71,139.15-107.49,168.92-190.86,29.67-83.1,26.37-173.18-9.28-253.65l34.82-17.46c3.23,5.73,6.08,11.08,8.72,16.35,23.08,46.02,36.46,95.19,39.77,146.15,3.19,49.21-3.1,98-18.7,145.01s-39.73,89.88-71.72,127.41c-33.12,38.87-73.25,70.29-119.27,93.37-53.66,26.92-111.1,40.57-170.73,40.57Z"/>
            <path class="cls-6" d="m1195.21,1481.06c2.86,5.09,5.64,10.25,8.29,15.53,89.62,178.66,17.43,396.15-161.23,485.77-52.08,26.12-107.44,38.5-161.99,38.5-132.58,0-260.29-73.14-323.78-199.73-2.65-5.27-5.12-10.59-7.49-15.93,65.88,117.02,188.45,184.2,315.52,184.2,54.53,0,109.9-12.37,161.97-38.49,173.39-86.97,246.47-294.37,168.72-469.85m33.99-19.13l-69.64,34.93c33.62,75.88,36.73,160.83,8.74,239.2-28.07,78.62-84.64,142.54-159.3,179.99-22.82,11.45-46.86,20.17-71.46,25.93-23.89,5.59-48.46,8.43-73.02,8.43-56.45,0-112.22-14.88-161.29-43.04-50.21-28.81-91.79-70.75-120.24-121.29l-69.64,34.93c2.79,6.3,5.5,12.07,8.29,17.61,33.98,67.75,86.08,124.19,150.67,163.22,62.8,37.96,134.72,58.02,207.97,58.02,30.55,0,61.1-3.52,90.81-10.48,30.55-7.15,60.38-17.97,88.67-32.16,48.36-24.26,90.54-57.28,125.37-98.15,33.62-39.46,58.99-84.52,75.38-133.92,16.4-49.4,23.01-100.68,19.65-152.41-3.48-53.58-17.54-105.27-41.8-153.63-2.78-5.55-5.78-11.16-9.16-17.17h0Z"/>
          </g>
        </g>
        <g class="cls-2">
          <g>
            <path class="cls-4" d="m548.91,1848.46c-3.23-5.73-6.08-11.08-8.72-16.35-23.08-46.02-36.46-95.19-39.77-146.15-3.19-49.21,3.1-98,18.7-145.01,15.6-47.01,39.73-89.88,71.72-127.41,33.12-38.87,73.25-70.29,119.27-93.37,53.66-26.92,111.1-40.57,170.73-40.57,69.71,0,138.14,19.09,197.89,55.2,61.43,37.13,110.99,90.82,143.33,155.28,2.64,5.27,5.22,10.76,7.89,16.77l-34.82,17.47c-60.52-107.49-174.91-174.26-298.52-174.26-53.49,0-105.04,12.25-153.23,36.42-79.16,39.71-139.15,107.49-168.92,190.86-29.67,83.1-26.37,173.18,9.28,253.65l-34.82,17.46Z"/>
            <path class="cls-6" d="m880.83,1299.1c132.6,0,260.28,73.13,323.79,199.73,2.65,5.27,5.12,10.59,7.49,15.93-65.88-117.01-188.46-184.2-315.52-184.2-54.54,0-109.89,12.37-161.97,38.49-173.39,86.97-246.47,294.37-168.72,469.85-2.86-5.09-5.64-10.25-8.29-15.53-89.62-178.66-17.43-396.15,161.23-485.77,52.07-26.12,107.45-38.5,161.99-38.5m0-39c-30.54,0-61.1,3.53-90.81,10.48-30.55,7.15-60.38,17.97-88.67,32.16-48.36,24.26-90.54,57.28-125.37,98.15-33.62,39.46-58.99,84.52-75.38,133.92-16.4,49.4-23.01,100.68-19.65,152.41,3.48,53.58,17.54,105.27,41.8,153.63,2.78,5.55,5.78,11.17,9.16,17.17l69.64-34.93c-33.62-75.88-36.73-160.83-8.74-239.2,28.07-78.62,84.64-142.54,159.29-179.99,22.82-11.45,46.87-20.17,71.46-25.93,23.88-5.59,48.45-8.42,73.02-8.42,56.44,0,112.21,14.89,161.29,43.05,50.21,28.81,91.79,70.75,120.24,121.28l69.64-34.93c-2.79-6.3-5.5-12.07-8.29-17.61-33.98-67.75-86.08-124.19-150.67-163.23-62.8-37.95-134.71-58.01-207.98-58.01h0Z"/>
          </g>
        </g>
        <g>
          <path class="cls-5" d="m779.06,1508.35c-11.64,0-22.11-6.46-27.33-16.86l-44.17-88.05c-7.56-15.06-1.45-33.47,13.62-41.03l7.17-3.6c4.23-2.12,8.97-3.25,13.7-3.25,11.64,0,22.11,6.46,27.33,16.86l44.17,88.05c7.56,15.07,1.45,33.47-13.62,41.03l-7.17,3.6c-4.23,2.12-8.97,3.25-13.7,3.25Z"/>
          <path class="cls-6" d="m742.05,1375.07c4.05,0,7.96,2.24,9.9,6.11l44.17,88.05c2.74,5.46.53,12.12-4.93,14.86l-7.17,3.6c-1.59.8-3.29,1.18-4.95,1.18-4.05,0-7.96-2.24-9.9-6.11l-44.17-88.05c-2.74-5.46-.53-12.11,4.93-14.86l7.17-3.6c1.59-.8,3.29-1.18,4.95-1.18m0-39c-7.75,0-15.51,1.84-22.44,5.32l-7.17,3.6c-11.96,6-20.86,16.29-25.07,28.98-4.21,12.69-3.23,26.27,2.77,38.22l44.16,88.04c8.54,17.04,25.7,27.62,44.76,27.62,7.75,0,15.51-1.84,22.44-5.32l7.17-3.6c24.68-12.38,34.68-42.53,22.31-67.2l-44.16-88.05c-8.54-17.04-25.7-27.62-44.76-27.62h0Z"/>
        </g>
        <g>
          <g>
            <path class="cls-8" d="m872.13,1687.03c-10.3,0-19.56-5.72-24.18-14.92l-72.12-143.78c-6.68-13.33-1.28-29.61,12.04-36.29,3.75-1.88,7.94-2.87,12.12-2.87,10.3,0,19.56,5.72,24.18,14.92l72.12,143.78c6.68,13.33,1.28,29.61-12.04,36.29-3.75,1.88-7.94,2.87-12.12,2.87Z"/>
            <path class="cls-6" d="m800,1508.67c2.76,0,5.42,1.52,6.75,4.16l72.12,143.78c1.87,3.72.36,8.25-3.36,10.12-1.08.54-2.24.8-3.38.8-2.76,0-5.42-1.52-6.75-4.16l-72.12-143.78c-1.87-3.72-.36-8.25,3.36-10.12,1.08-.54,2.24-.8,3.38-.8m0-39c-7.2,0-14.42,1.71-20.86,4.94-22.94,11.51-32.24,39.53-20.73,62.47l72.12,143.78c7.94,15.84,23.88,25.67,41.61,25.67,7.2,0,14.41-1.71,20.86-4.94,11.12-5.58,19.39-15.15,23.31-26.95,3.92-11.8,3-24.42-2.58-35.53l-72.12-143.77c-7.94-15.84-23.89-25.67-41.61-25.67h0Z"/>
          </g>
          <g>
            <path class="cls-8" d="m768.56,1553.79c-7.2,0-13.93-3.22-18.47-8.84-4.52-5.59-6.25-12.83-4.75-19.88l11.38-53.34c2.32-10.89,12.09-18.79,23.23-18.79,3.44,0,6.78.73,9.91,2.17l49.56,22.77c8.37,3.85,13.67,11.96,13.83,21.17s-4.86,17.5-13.1,21.64l-60.95,30.57c-3.3,1.66-6.98,2.53-10.65,2.53h0Z"/>
            <path class="cls-6" d="m779.95,1472.45c.59,0,1.19.12,1.77.39l49.56,22.77c3.24,1.49,3.32,6.06.13,7.66l-60.95,30.57c-.63.32-1.28.46-1.91.46-2.54,0-4.75-2.35-4.15-5.14l11.38-53.34c.44-2.04,2.23-3.36,4.16-3.36m0-39c-9.67,0-19.18,3.3-26.78,9.29-7.91,6.23-13.42,15.08-15.52,24.93l-11.38,53.35c-2.74,12.83.42,26.03,8.66,36.21,8.26,10.21,20.52,16.07,33.63,16.07,6.69,0,13.4-1.59,19.4-4.6l60.94-30.57c7.6-3.81,13.85-9.71,18.08-17.05,3.91-6.78,5.9-14.51,5.77-22.35-.13-7.84-2.39-15.5-6.53-22.14-4.48-7.19-10.93-12.87-18.66-16.42l-49.56-22.77c-5.71-2.62-11.78-3.95-18.05-3.95h0Z"/>
          </g>
        </g>
        <g>
          <g>
            <path class="cls-8" d="m767.57,1756c-9.82,0-19.2-6.04-23.89-15.4-2.81-5.6-3.74-11.95-2.62-17.88,1.47-7.76,6.23-14.18,13.07-17.61l109.64-55c3.32-1.67,7.06-2.55,10.8-2.55,9.82,0,19.2,6.04,23.89,15.4,6.69,13.33,2,29.25-10.45,35.49l-109.65,55c-3.32,1.67-7.06,2.55-10.8,2.55Z"/>
            <path class="cls-6" d="m874.57,1667.07c2.42,0,5.02,1.77,6.46,4.64,1.87,3.72,1.08,7.89-1.76,9.32l-109.64,55c-.65.32-1.34.48-2.06.48-2.42,0-5.02-1.76-6.46-4.64-1.87-3.72-1.08-7.89,1.76-9.32l109.65-55c.65-.32,1.34-.48,2.06-.48m0-39c-6.76,0-13.52,1.6-19.54,4.62l-109.65,55c-12.32,6.18-20.88,17.63-23.48,31.42-1.91,10.11-.37,20.85,4.35,30.24,8.09,16.13,23.92,26.16,41.32,26.16,6.76,0,13.52-1.6,19.54-4.62l109.64-55c12.32-6.18,20.88-17.63,23.48-31.42,1.91-10.11.36-20.85-4.35-30.25-8.09-16.13-23.92-26.15-41.32-26.15h0Z"/>
          </g>
          <g>
            <path class="cls-8" d="m779.86,1783.58c-2.68,0-5.33-.46-7.87-1.38l-43.75-15.72c-11.67-4.19-17.97-16.76-14.35-28.62l13.56-44.46c3-9.83,11.92-16.44,22.21-16.44,8.83,0,16.77,4.91,20.73,12.8l30.19,60.18c3.64,7.25,3.27,15.69-.98,22.58-4.21,6.81-11.77,11.05-19.74,11.05h0Z"/>
            <path class="cls-6" d="m749.66,1696.48c1.3,0,2.61.67,3.31,2.05l30.18,60.18c1.29,2.58-.7,5.38-3.29,5.38-.42,0-.85-.07-1.28-.23l-43.75-15.72c-1.86-.67-2.87-2.68-2.29-4.57l13.56-44.46c.53-1.72,2.04-2.63,3.56-2.63m0-39c-18.92,0-35.35,12.16-40.86,30.26l-13.56,44.45c-6.66,21.82,4.95,44.95,26.42,52.66l43.74,15.71c4.67,1.68,9.53,2.52,14.47,2.52,14.9,0,28.48-7.59,36.33-20.3,7.83-12.69,8.51-28.22,1.82-41.56l-30.19-60.18c-7.29-14.54-21.92-23.56-38.17-23.56h0Z"/>
          </g>
        </g>
        <g>
          <path class="cls-5" d="m880.72,2126.37c-85.51,0-169.48-23.4-242.84-67.66-75.43-45.51-136.23-111.29-175.82-190.22-115.59-230.45-22.15-511.97,208.29-627.57,65.6-32.9,135.88-49.59,208.91-49.59,85.51,0,169.48,23.4,242.84,67.66,75.43,45.51,136.23,111.29,175.82,190.22,28.25,56.32,44.61,116.56,48.63,179.05,3.88,60.32-3.86,120.15-23,177.81-19.14,57.66-48.71,110.24-87.88,156.27-40.58,47.68-89.71,86.18-146.04,114.44-65.6,32.9-135.88,49.59-208.91,49.59Zm-1.41-869.52c-62.76,0-123.18,14.34-179.58,42.64-48.43,24.29-90.67,57.39-125.54,98.36-33.69,39.58-59.12,84.81-75.58,134.42-16.47,49.61-23.12,101.07-19.79,152.94,3.45,53.7,17.52,105.48,41.81,153.91,34.04,67.86,86.3,124.4,151.14,163.52,63.12,38.08,135.36,58.21,208.92,58.22h.03c62.74,0,123.15-14.34,179.55-42.63,198.16-99.4,278.51-341.48,179.11-539.63-34.04-67.86-86.3-124.4-151.14-163.53-63.12-38.09-135.36-58.22-208.91-58.22Z"/>
          <path class="cls-6" d="m879.26,1210.84c164.27,0,322.7,90.57,401.23,247.12,110.77,220.84,21.23,490.62-199.61,601.39-64.28,32.24-132.72,47.52-200.17,47.52-164.27,0-322.7-90.57-401.23-247.12-110.77-220.84-21.23-490.62,199.61-601.39,64.28-32.24,132.72-47.51,200.17-47.52m1.41,869.52c63.47,0,127.83-14.36,188.32-44.71,207.77-104.22,292.01-358.04,187.8-565.81-73.88-147.28-222.95-232.5-377.49-232.5-63.47,0-127.83,14.36-188.32,44.71-207.77,104.22-292.01,358.04-187.79,565.81,73.88,147.28,222.95,232.5,377.49,232.5m-1.4-908.52v39-39c-37.08,0-74.14,4.27-110.16,12.69-37.06,8.66-73.23,21.77-107.5,38.96-58.67,29.43-109.86,69.54-152.15,119.23-40.81,47.95-71.61,102.71-91.54,162.77-19.93,60.06-27.99,122.37-23.95,185.2,4.18,65.11,21.23,127.87,50.66,186.54,41.25,82.23,104.59,150.76,183.17,198.18,76.4,46.1,163.85,70.46,252.91,70.46,37.07,0,74.12-4.27,110.15-12.69,37.06-8.66,73.23-21.77,107.5-38.97,240.06-120.42,337.4-413.68,216.98-653.74-41.25-82.23-104.58-150.75-183.17-198.17-76.4-46.1-163.85-70.46-252.91-70.46h0Zm1.4,869.52c-70,0-138.76-19.16-198.84-55.41-61.68-37.22-111.4-91.01-143.79-155.57-23.12-46.08-36.5-95.35-39.78-146.42-3.17-49.36,3.17-98.33,18.84-145.54,15.67-47.22,39.87-90.26,71.93-127.92,33.17-38.98,73.35-70.46,119.44-93.57,26.95-13.52,55.35-23.82,84.43-30.62,28.25-6.6,57.32-9.95,86.4-9.95,70,0,138.76,19.16,198.84,55.41,61.68,37.22,111.4,91.01,143.79,155.57,94.58,188.55,18.13,418.88-170.42,513.46-26.95,13.52-55.35,23.82-84.43,30.62-28.25,6.6-57.32,9.95-86.4,9.95h0Z"/>
        </g>
        <g>
          <path class="cls-5" d="m880.6,2050.29c-71.59,0-141.9-19.59-203.31-56.64-63.16-38.11-114.06-93.18-147.21-159.27-96.78-192.95-18.55-428.66,174.4-525.44,54.92-27.55,113.77-41.52,174.92-41.52,71.59,0,141.9,19.59,203.31,56.64,63.16,38.11,114.06,93.18,147.21,159.27,96.78,192.95,18.55,428.66-174.4,525.44-54.92,27.55-113.77,41.52-174.92,41.52Zm-1.18-723.77c-51.88,0-101.82,11.86-148.45,35.25-163.81,82.17-230.23,282.29-148.06,446.11,28.14,56.09,71.34,102.84,124.94,135.18,52.18,31.48,111.91,48.13,172.72,48.13h.02c51.86,0,101.8-11.86,148.42-35.25,79.22-39.74,138.27-108.08,166.27-192.44s21.54-174.45-18.2-253.67c-28.14-56.09-71.34-102.84-124.94-135.18-52.18-31.49-111.91-48.13-172.72-48.13Z"/>
          <path class="cls-6" d="m879.39,1286.92c136.37,0,267.9,75.19,333.09,205.16,91.96,183.33,17.63,407.3-165.71,499.27-53.36,26.77-110.18,39.45-166.17,39.45-136.37,0-267.9-75.19-333.09-205.16-91.96-183.33-17.63-407.3,165.71-499.27,53.37-26.77,110.18-39.45,166.17-39.45m1.18,723.77c52.98,0,106.7-11.99,157.19-37.31,173.42-86.99,243.74-298.85,156.75-472.28-61.66-122.93-186.1-194.07-315.09-194.07-52.98,0-106.7,11.99-157.19,37.31-173.42,86.99-243.74,298.85-156.75,472.28,61.67,122.93,186.1,194.07,315.09,194.07m-1.17-762.77v39-39c-31.29,0-62.56,3.6-92.96,10.71-31.27,7.31-61.79,18.37-90.71,32.88-202.56,101.6-284.69,349.06-183.08,551.61,34.8,69.39,88.25,127.21,154.57,167.22,64.46,38.89,138.24,59.45,213.39,59.45,31.28,0,62.55-3.6,92.95-10.71,31.27-7.31,61.79-18.37,90.71-32.88,49.51-24.83,92.7-58.68,128.38-100.61,34.43-40.46,60.42-86.67,77.24-137.33,16.82-50.67,23.62-103.24,20.21-156.26-3.53-54.94-17.91-107.9-42.75-157.41-34.8-69.38-88.25-127.21-154.56-167.22-64.46-38.89-138.24-59.45-213.38-59.45h0Zm1.17,723.77c-57.26,0-113.5-15.67-162.64-45.33-50.44-30.44-91.1-74.43-117.59-127.23-77.35-154.2-14.82-342.58,139.38-419.93,43.89-22.01,90.89-33.18,139.71-33.18,57.26,0,113.5,15.67,162.64,45.33,50.44,30.44,91.1,74.43,117.58,127.23,77.35,154.2,14.82,342.58-139.38,419.93-43.89,22.01-90.89,33.18-139.71,33.18h0Z"/>
        </g>
        <g>
          <path class="cls-5" d="m1013.45,1975.63c-11.64,0-22.11-6.46-27.33-16.87l-44.17-88.05c-3.66-7.3-4.26-15.58-1.69-23.33,2.57-7.75,8.01-14.03,15.31-17.69l7.17-3.6c4.23-2.12,8.97-3.25,13.7-3.25,11.64,0,22.11,6.46,27.33,16.87l44.17,88.05c7.56,15.07,1.45,33.47-13.62,41.03l-7.17,3.6c-4.23,2.12-8.97,3.25-13.7,3.25Z"/>
          <path class="cls-6" d="m976.44,1842.35c4.05,0,7.96,2.24,9.9,6.11l44.17,88.05c2.74,5.46.53,12.12-4.93,14.86l-7.17,3.6c-1.59.8-3.29,1.18-4.95,1.18-4.05,0-7.96-2.24-9.9-6.11l-44.17-88.05c-2.74-5.46-.53-12.12,4.93-14.86l7.17-3.6c1.59-.8,3.29-1.18,4.95-1.18m0-39h0c-7.75,0-15.5,1.84-22.44,5.32l-7.17,3.6c-24.68,12.38-34.68,42.52-22.31,67.2l44.17,88.05c8.55,17.04,25.7,27.62,44.76,27.62,7.75,0,15.51-1.84,22.44-5.32l7.17-3.6c24.67-12.38,34.68-42.52,22.31-67.2l-44.17-88.05c-8.55-17.04-25.7-27.62-44.76-27.62h0Z"/>
        </g>
        <g>
          <path class="cls-5" d="m601.9,1839.03c-11.64,0-22.12-6.46-27.33-16.87l-3.6-7.17c-7.56-15.07-1.45-33.47,13.62-41.03l88.05-44.17c4.24-2.12,8.97-3.25,13.7-3.25,11.64,0,22.11,6.46,27.33,16.86l3.6,7.17c7.56,15.07,1.45,33.47-13.62,41.03l-88.05,44.17c-4.24,2.12-8.97,3.25-13.7,3.25Z"/>
          <path class="cls-6" d="m686.33,1746.06c4.05,0,7.96,2.24,9.9,6.11l3.6,7.17c2.74,5.46.53,12.12-4.93,14.86l-88.05,44.17c-1.59.8-3.29,1.18-4.95,1.18-4.06,0-7.96-2.24-9.9-6.11l-3.6-7.17c-2.74-5.46-.53-12.12,4.93-14.86l88.05-44.17c1.59-.8,3.29-1.18,4.95-1.18m0-39c-7.75,0-15.51,1.84-22.44,5.32l-88.05,44.17c-24.67,12.38-34.68,42.52-22.31,67.2l3.6,7.18c8.55,17.04,25.7,27.62,44.76,27.62,7.75,0,15.5-1.84,22.44-5.32l88.05-44.17c24.67-12.38,34.68-42.52,22.31-67.2l-3.6-7.18c-8.54-17.03-25.69-27.62-44.76-27.62h0Z"/>
        </g>
        <g>
          <path class="cls-5" d="m1069.17,1604.64c-11.64,0-22.11-6.46-27.33-16.86l-3.6-7.17c-3.66-7.3-4.26-15.59-1.69-23.33s8.01-14.03,15.31-17.69l88.05-44.17c4.23-2.12,8.97-3.25,13.7-3.25,11.64,0,22.11,6.46,27.33,16.86l3.6,7.17c7.56,15.07,1.45,33.47-13.62,41.03l-88.05,44.17c-4.23,2.12-8.97,3.25-13.7,3.25Z"/>
          <path class="cls-6" d="m1153.61,1511.66c4.05,0,7.96,2.24,9.9,6.11l3.6,7.17c2.74,5.46.53,12.12-4.93,14.86l-88.05,44.17c-1.59.8-3.29,1.18-4.95,1.18-4.05,0-7.96-2.24-9.9-6.11l-3.6-7.17c-2.74-5.46-.53-12.12,4.93-14.86l88.05-44.17c1.59-.8,3.29-1.18,4.95-1.18m0-39c-7.75,0-15.51,1.84-22.44,5.32l-88.05,44.17c-11.95,6-20.86,16.29-25.07,28.98-4.21,12.69-3.23,26.27,2.77,38.22l3.59,7.17c8.55,17.04,25.7,27.62,44.76,27.62,7.75,0,15.51-1.84,22.44-5.32l88.05-44.17c11.95-6,20.86-16.29,25.07-28.98,4.21-12.69,3.23-26.27-2.77-38.22l-3.6-7.17c-8.54-17.04-25.7-27.62-44.76-27.62h0Z"/>
        </g>
        <g>
          <path class="cls-5" d="m632.54,1547.63c-13.17,0-25.02-7.31-30.92-19.08-4.14-8.26-4.82-17.63-1.91-26.4,2.91-8.77,9.06-15.88,17.31-20.02,4.79-2.4,10.15-3.67,15.49-3.67,13.17,0,25.02,7.31,30.92,19.08,4.14,8.26,4.82,17.63,1.91,26.4-2.91,8.77-9.06,15.88-17.32,20.02-4.79,2.4-10.15,3.67-15.49,3.67Z"/>
          <path class="cls-6" d="m632.51,1497.97c5.52,0,10.84,3.05,13.49,8.32,3.73,7.44.73,16.51-6.72,20.24-2.17,1.09-4.48,1.6-6.75,1.6-5.52,0-10.84-3.05-13.49-8.32-3.73-7.44-.73-16.51,6.72-20.24,2.17-1.09,4.48-1.6,6.75-1.6m0-39c-8.36,0-16.74,1.99-24.23,5.74-12.91,6.48-22.53,17.6-27.08,31.3-4.55,13.71-3.49,28.37,2.99,41.28,9.23,18.4,27.76,29.83,48.35,29.83,8.37,0,16.75-1.99,24.24-5.74,12.91-6.48,22.53-17.59,27.08-31.3s3.49-28.37-2.99-41.28c-9.23-18.4-27.76-29.83-48.35-29.83h0Z"/>
        </g>
        <g>
          <path class="cls-5" d="m598.99,1682.56c-13.17,0-25.02-7.31-30.92-19.08-4.14-8.26-4.82-17.63-1.91-26.4s9.06-15.88,17.32-20.02c4.79-2.4,10.15-3.67,15.49-3.67,13.17,0,25.02,7.31,30.92,19.08,8.55,17.04,1.64,37.86-15.4,46.41-4.79,2.4-10.15,3.67-15.49,3.67Z"/>
          <path class="cls-6" d="m598.97,1632.89c5.52,0,10.84,3.05,13.49,8.32,3.73,7.44.73,16.51-6.72,20.24-2.17,1.09-4.48,1.6-6.75,1.6-5.52,0-10.84-3.05-13.49-8.32-3.73-7.44-.73-16.51,6.72-20.24,2.17-1.09,4.48-1.6,6.75-1.6m0-39c-8.37,0-16.75,1.99-24.24,5.74-12.91,6.48-22.53,17.59-27.08,31.3s-3.49,28.37,2.99,41.28c9.23,18.4,27.76,29.83,48.35,29.83,8.36,0,16.74-1.99,24.23-5.74,12.92-6.48,22.53-17.6,27.08-31.31,4.55-13.71,3.49-28.37-2.99-41.28-9.23-18.4-27.76-29.83-48.35-29.83h0Z"/>
        </g>
        <g>
          <path class="cls-5" d="m906.61,1410.16c-13.17,0-25.02-7.31-30.92-19.08-4.14-8.26-4.82-17.63-1.91-26.4,2.91-8.77,9.06-15.88,17.32-20.02,4.79-2.4,10.15-3.67,15.49-3.67,13.17,0,25.02,7.31,30.92,19.08,4.14,8.26,4.82,17.63,1.91,26.4-2.91,8.77-9.06,15.88-17.31,20.02-4.79,2.4-10.15,3.67-15.49,3.67h0Z"/>
          <path class="cls-6" d="m906.59,1360.49c5.52,0,10.85,3.05,13.49,8.32,3.73,7.44.73,16.51-6.72,20.24-2.17,1.09-4.48,1.6-6.75,1.6-5.52,0-10.85-3.05-13.49-8.32-3.73-7.44-.73-16.51,6.72-20.24,2.17-1.09,4.48-1.6,6.75-1.6m0-39c-8.37,0-16.75,1.99-24.24,5.74-12.91,6.48-22.53,17.59-27.08,31.3s-3.49,28.37,2.99,41.28c9.23,18.4,27.76,29.83,48.35,29.83,8.36,0,16.74-1.99,24.23-5.74,26.65-13.37,37.46-45.93,24.09-72.58-9.23-18.41-27.76-29.84-48.35-29.84h0Z"/>
        </g>
        <g>
          <path class="cls-5" d="m1034.82,1463.94c-13.17,0-25.02-7.31-30.92-19.08-8.55-17.04-1.64-37.86,15.4-46.41,4.79-2.4,10.15-3.67,15.49-3.67,13.17,0,25.02,7.31,30.92,19.08,4.14,8.26,4.82,17.63,1.91,26.4s-9.06,15.88-17.32,20.02c-4.79,2.4-10.15,3.67-15.49,3.67h0Z"/>
          <path class="cls-6" d="m1034.79,1414.28c5.52,0,10.85,3.05,13.49,8.32,3.73,7.44.73,16.51-6.72,20.24-2.17,1.09-4.48,1.6-6.75,1.6-5.52,0-10.85-3.05-13.49-8.32-3.73-7.44-.73-16.51,6.72-20.24,2.17-1.09,4.48-1.6,6.75-1.6m0-39c-8.36,0-16.74,1.99-24.23,5.74-12.91,6.48-22.53,17.6-27.08,31.3-4.55,13.71-3.49,28.37,2.99,41.28,9.23,18.4,27.76,29.83,48.35,29.83,8.37,0,16.75-1.99,24.24-5.74,26.65-13.37,37.46-45.93,24.09-72.58-9.23-18.41-27.76-29.84-48.35-29.84h0Z"/>
        </g>
        <g>
          <path class="cls-5" d="m846.64,1974.48c-13.17,0-25.02-7.31-30.92-19.08-4.14-8.25-4.82-17.63-1.91-26.4s9.06-15.88,17.32-20.02c4.79-2.4,10.15-3.67,15.49-3.67,13.17,0,25.02,7.31,30.92,19.08,4.14,8.25,4.82,17.63,1.91,26.4-2.91,8.77-9.06,15.87-17.31,20.02-4.79,2.4-10.15,3.67-15.49,3.67h0Z"/>
          <path class="cls-6" d="m846.62,1924.81c5.52,0,10.85,3.05,13.49,8.32,3.73,7.44.73,16.51-6.72,20.24-2.17,1.09-4.48,1.6-6.75,1.6-5.52,0-10.85-3.05-13.49-8.32-3.73-7.44-.73-16.51,6.72-20.24,2.17-1.09,4.48-1.6,6.75-1.6m0-39c-8.36,0-16.74,1.99-24.23,5.74-26.65,13.37-37.46,45.93-24.09,72.58,9.23,18.41,27.76,29.84,48.35,29.84,8.37,0,16.75-1.99,24.24-5.74,26.65-13.37,37.46-45.93,24.09-72.58-9.23-18.41-27.76-29.84-48.35-29.84h0Z"/>
        </g>
        <g>
          <path class="cls-5" d="m718.44,1920.69c-13.17,0-25.02-7.31-30.92-19.08-8.55-17.04-1.64-37.86,15.4-46.41,4.79-2.4,10.15-3.67,15.49-3.67,13.17,0,25.02,7.31,30.92,19.08,4.14,8.25,4.82,17.63,1.91,26.4-2.91,8.77-9.06,15.88-17.32,20.02-4.79,2.4-10.15,3.67-15.49,3.67h0Z"/>
          <path class="cls-6" d="m718.42,1871.02c5.52,0,10.85,3.05,13.49,8.32,3.73,7.44.73,16.51-6.72,20.24-2.17,1.09-4.48,1.6-6.75,1.6-5.52,0-10.85-3.05-13.49-8.32-3.73-7.44-.73-16.51,6.72-20.24,2.17-1.09,4.48-1.6,6.75-1.6m0-39c-8.37,0-16.75,1.99-24.24,5.74-12.91,6.48-22.53,17.59-27.08,31.3-4.55,13.71-3.49,28.37,2.99,41.28,9.23,18.4,27.76,29.84,48.35,29.84,8.36,0,16.74-1.99,24.23-5.74,26.65-13.37,37.46-45.93,24.09-72.58-9.23-18.41-27.76-29.84-48.35-29.84h0Z"/>
        </g>
        <g>
          <path class="cls-5" d="m1120.72,1837c-13.17,0-25.02-7.31-30.92-19.08-8.55-17.04-1.64-37.86,15.4-46.41,4.79-2.4,10.15-3.67,15.49-3.67,13.17,0,25.02,7.31,30.92,19.08,8.55,17.04,1.64,37.86-15.4,46.41-4.79,2.4-10.15,3.67-15.49,3.67Z"/>
          <path class="cls-6" d="m1120.7,1787.33c5.53,0,10.84,3.05,13.49,8.32,3.73,7.44.73,16.51-6.72,20.24-2.17,1.09-4.48,1.6-6.75,1.6-5.52,0-10.84-3.05-13.49-8.32-3.73-7.44-.73-16.51,6.72-20.24,2.17-1.09,4.48-1.6,6.75-1.6m0-39h0c-8.36,0-16.74,1.99-24.23,5.74-12.91,6.48-22.53,17.6-27.08,31.3-4.55,13.71-3.49,28.37,2.99,41.28,9.23,18.4,27.75,29.83,48.35,29.83,8.37,0,16.75-1.99,24.24-5.74,12.91-6.48,22.53-17.59,27.08-31.3s3.49-28.37-2.99-41.28c-9.23-18.4-27.76-29.83-48.35-29.83h0Z"/>
        </g>
        <g>
          <path class="cls-5" d="m1154.27,1702.08c-13.17,0-25.02-7.31-30.92-19.08-4.14-8.26-4.82-17.63-1.91-26.4,2.91-8.77,9.06-15.88,17.32-20.02,4.79-2.4,10.15-3.67,15.49-3.67,13.17,0,25.02,7.31,30.92,19.08,4.14,8.26,4.82,17.63,1.91,26.4s-9.06,15.88-17.32,20.02c-4.79,2.4-10.15,3.67-15.49,3.67Z"/>
          <path class="cls-6" d="m1154.24,1652.41c5.52,0,10.84,3.05,13.49,8.32,3.73,7.44.73,16.51-6.72,20.24-2.17,1.09-4.48,1.6-6.75,1.6-5.52,0-10.84-3.05-13.49-8.32-3.73-7.44-.73-16.51,6.72-20.24,2.17-1.09,4.48-1.6,6.75-1.6m0-39c-8.37,0-16.75,1.99-24.24,5.74-12.91,6.48-22.53,17.59-27.08,31.3s-3.49,28.37,2.99,41.28c9.23,18.4,27.76,29.83,48.35,29.83,8.37,0,16.75-1.99,24.24-5.74,26.65-13.37,37.46-45.93,24.09-72.58-9.23-18.41-27.76-29.84-48.35-29.84h0Z"/>
        </g>
        <g>
          <path class="cls-12" d="m875.72,1721.41c-19.22,0-36.31-10.27-44.6-26.79-12.28-24.48-1.35-54.88,24.37-67.78,7.56-3.79,15.97-5.8,24.3-5.8,19.22,0,36.31,10.27,44.6,26.79,6.08,12.12,6.73,25.96,1.82,38.97-4.7,12.46-14,22.69-26.19,28.81-7.56,3.79-15.97,5.8-24.3,5.8Z"/>
          <path class="cls-6" d="m879.79,1640.53c11.39,0,22.04,5.8,27.17,16.04,7.47,14.89.45,33.52-15.68,41.61-5.04,2.53-10.38,3.73-15.56,3.73-11.39,0-22.04-5.8-27.17-16.04-7.47-14.89-.45-33.52,15.68-41.61,5.04-2.53,10.38-3.73,15.56-3.73m0-39h0c-11.36,0-22.78,2.72-33.04,7.87-16.59,8.32-29.27,22.3-35.7,39.36-6.75,17.9-5.78,37.8,2.64,54.6,11.62,23.16,35.39,37.55,62.03,37.55,11.35,0,22.78-2.72,33.04-7.87,35.32-17.72,50.15-59.87,33.06-93.95-11.62-23.16-35.39-37.55-62.03-37.55h0Z"/>
        </g>
        <g>
          <path class="cls-5" d="m875.76,1728.12c-21.81,0-41.22-11.68-50.66-30.49-6.86-13.67-7.65-29.29-2.23-43.98,5.25-14.24,15.76-25.9,29.6-32.84,8.48-4.25,17.9-6.5,27.27-6.5,21.81,0,41.23,11.68,50.66,30.49,6.86,13.67,7.65,29.28,2.23,43.97-5.25,14.23-15.76,25.9-29.59,32.83-8.48,4.25-17.91,6.5-27.28,6.5Zm4.02-61.36c-1.26,0-2.57.32-3.79.94-1.83.92-3.25,2.38-3.88,4.01-.21.55-.52,1.6-.12,2.4.47.94,1.97,1.56,3.73,1.56h0c1.26,0,2.57-.32,3.79-.94,3.46-1.74,4.7-5,4-6.4-.47-.94-1.97-1.57-3.73-1.57Z"/>
          <path class="cls-6" d="m879.75,1633.82c13.87,0,26.92,7.16,33.23,19.73,9.12,18.18.74,40.89-18.68,50.63-5.99,3.01-12.34,4.43-18.53,4.43-13.87,0-26.92-7.16-33.23-19.73-9.12-18.18-.74-40.9,18.68-50.64,5.99-3,12.34-4.43,18.53-4.43m-4.02,61.35c4.17,0,8.47-.97,12.54-3.01,12.79-6.41,18.48-21.03,12.68-32.58-3.95-7.88-12.24-12.33-21.16-12.33-4.17,0-8.47.97-12.54,3.01-12.79,6.41-18.48,21.03-12.69,32.58,3.95,7.87,12.24,12.32,21.16,12.32m4.02-100.35h0c-12.38,0-24.84,2.96-36.01,8.57-18.27,9.17-32.18,24.62-39.15,43.52-7.2,19.52-6.08,41.2,3.09,59.47,12.76,25.44,38.85,41.25,68.09,41.25,12.39,0,24.84-2.96,36.02-8.57,38.64-19.38,54.82-65.58,36.05-102.98-12.76-25.44-38.85-41.25-68.09-41.25h0Z"/>
        </g>
      </g>
    </g>
    <g>
      <g>
        <path class="cls-13" d="m728.26,2214.23c-5.9,0-11.69-.54-17.21-1.61-53.87-10.29-103.25-31.18-146.71-62.08-13.16-9.36-24.7-21.37-34.32-35.68-22.06-32.88-39-62.12-51.82-89.41-13.88-29.54-14.4-63.96-1.43-94.43l31.51-73.66,20.21,27.6c22.88,31.25,50.25,61.63,81.36,90.29,5.45,5.02,12.6,7.83,20.13,7.91h.55c4.09,0,8.08-.81,11.87-2.42,13.36-5.61,27.4-8.44,41.79-8.44,18.95,0,37.62,5.04,53.97,14.58l67.69,39.35c8.31,4.81,15.93,10.82,22.62,17.83,21.13,22,31.03,51.39,27.13,80.58-3.35,24.99-15.99,46.3-36.55,61.63-20.04,14.94-47.31,24.19-81.05,27.49-3.28.32-6.55.48-9.74.48Z"/>
        <path class="cls-6" d="m512.75,1896.49c23.94,32.7,51.99,63.73,83.88,93.12,9.21,8.49,21.06,12.94,33.15,13.06.25,0,.5,0,.75,0,6.61,0,13.22-1.32,19.48-3.97,10.98-4.61,22.6-6.9,34.18-6.9,15.32,0,30.56,4,44.15,11.92l67.71,39.36c6.82,3.95,12.98,8.84,18.32,14.43,16.36,17.04,25.12,40.54,21.91,64.53-5.25,39.19-38.36,66.25-100.17,72.29-2.6.25-5.22.38-7.85.38-4.52,0-9.06-.39-13.51-1.26-50.75-9.69-97.24-29.05-139.11-58.83-11.63-8.28-21.47-18.81-29.44-30.67-19.84-29.58-37.1-58.6-50.35-86.82-11.61-24.71-11.85-53.33-1.13-78.5l18.04-42.17m-8.95-78.24l-26.91,62.9-18.04,42.17v.03s-.03.03-.03.03c-15.14,35.57-14.51,75.79,1.72,110.35,13.24,28.19,30.67,58.27,53.27,91.96,10.96,16.31,24.15,29.99,39.22,40.72,45.77,32.55,97.71,54.53,154.39,65.36,6.72,1.3,13.73,1.95,20.85,1.95,3.81,0,7.72-.19,11.59-.56,37.37-3.65,67.92-14.17,90.86-31.27,24.86-18.54,40.15-44.35,44.22-74.66,2.36-17.62.47-35.9-5.44-52.88-5.62-16.13-14.93-31.26-26.93-43.78-7.95-8.32-17.01-15.46-26.92-21.21l-67.69-39.35c-19.32-11.26-41.37-17.21-63.75-17.21-17,0-33.58,3.34-49.28,9.94l-.06.02-.06.02c-1.37.58-2.81.88-4.26.88h-.17s-.1,0-.1,0h-.1c-2.69-.03-5.22-1-7.1-2.74-30.19-27.81-56.71-57.24-78.84-87.48l-40.42-55.21h0Z"/>
      </g>
      <g>
        <path class="cls-5" d="m728.28,2229.3c-6.82,0-13.54-.63-20-1.86-56.17-10.72-107.54-32.46-152.68-64.62-14.71-10.48-27.54-23.79-38.12-39.58-22.5-33.55-39.82-63.44-52.92-91.38-15.71-33.48-16.3-72.4-1.62-106.77l18.01-42.18c4.86-11.39,15.54-19.35,27.85-20.77,1.32-.15,2.64-.23,3.95-.23,10.99,0,21.42,5.29,27.91,14.16,22.27,30.41,49,60.07,79.43,88.14,2.72,2.51,6.36,3.89,10.23,3.89,2.16,0,4.28-.43,6.29-1.28,15.04-6.33,31.01-9.54,47.46-9.54,21.73,0,43.06,5.72,61.68,16.55l67.67,39.36c40.74,23.7,63.17,68.23,57.13,113.45-2.82,21.11-14.58,60.07-61.72,83.71-19.12,9.59-42.46,15.78-69.36,18.39-3.74.36-7.5.55-11.19.55Zm-205.43-265.43c-2.77,13.02-1.33,26.6,4.31,38.62,11.6,24.72,27.22,51.62,47.75,82.24,5.92,8.82,12.91,16.14,20.8,21.76,36.99,26.34,79.23,44.18,125.54,53.02,2.2.42,4.56.63,7.02.63,1.46,0,2.98-.08,4.5-.22,19.36-1.88,35.72-6.25,47.32-12.65,13.2-7.28,20.16-16.74,21.9-29.77,2.29-17.17-7.09-35.06-23.35-44.52l-67.67-39.36c-8.09-4.71-17.39-7.19-26.89-7.19-7.18,0-14.12,1.39-20.65,4.14-10.54,4.43-21.67,6.68-33.09,6.68-21.33,0-41.63-7.89-57.15-22.21-17.9-16.51-34.75-33.64-50.33-51.17Z"/>
        <path class="cls-6" d="m512.75,1881.41c4.77,0,9.31,2.27,12.17,6.17,23.03,31.44,50.6,62.04,81.94,90.96,6.44,5.94,14.86,9.06,23.45,9.06,4.66,0,9.38-.92,13.86-2.8,12.73-5.36,26.33-8.01,39.89-8.01,18.03,0,36.01,4.68,51.88,13.91l67.67,39.36c33.91,19.73,52.6,56.63,47.61,94.02-2.65,19.85-13.3,49.88-51.14,68.86-15.69,7.87-36.07,13.85-62.5,16.41-3.13.3-6.24.45-9.3.45-5.6,0-11.06-.5-16.34-1.51-53.39-10.19-102.18-30.83-145.03-61.35-12.8-9.11-23.98-20.74-33.24-34.55-21.96-32.73-38.79-61.79-51.47-88.81-13.35-28.45-13.84-61.56-1.34-90.83l18.01-42.18c2.13-4.99,6.77-8.44,12.15-9.06.57-.07,1.15-.1,1.72-.1m215.53,298.23c2.09,0,4.23-.1,6.39-.32,36.41-3.53,80.98-16.67,86.66-59.25,3.32-24.88-9.89-50.58-32.88-63.95l-67.67-39.36c-11.22-6.53-23.95-9.84-36.7-9.84-9.6,0-19.21,1.87-28.21,5.66-8.24,3.47-16.92,5.16-25.53,5.16-16.05,0-31.83-5.88-43.93-17.04-25.87-23.86-49.31-48.87-69.92-74.58l-7.88,18.46c-9.13,21.38-8.8,45.5.91,66.18,12.02,25.62,28.12,53.36,49.21,84.82,7.23,10.78,15.87,19.79,25.68,26.78,39.29,27.98,84.1,46.92,133.2,56.29,3.41.65,6.98.98,10.67.98m-215.53-337.23c-2.05,0-4.12.12-6.16.35-19.28,2.23-35.96,14.67-43.57,32.49l-18.02,42.18c-16.86,39.48-16.17,84.21,1.9,122.71,13.53,28.85,31.32,59.59,54.39,93.97,11.89,17.74,26.36,32.74,43.01,44.59,47.44,33.79,101.39,56.63,160.34,67.89,7.65,1.46,15.61,2.21,23.65,2.21,4.31,0,8.7-.21,13.06-.64,29.31-2.84,54.95-9.7,76.23-20.37,55.17-27.67,68.98-73.63,72.31-98.57,7.08-53.05-19.08-105.21-66.66-132.88l-67.67-39.36c-21.6-12.56-46.32-19.2-71.49-19.2-18.28,0-36.04,3.42-52.84,10.17-28.64-26.65-53.82-54.7-74.85-83.42-10.13-13.85-26.45-22.13-43.63-22.13h0Zm215.53,298.23c-1.23,0-2.36-.1-3.35-.28-43.55-8.31-83.21-25.05-117.9-49.75-5.96-4.25-11.32-9.88-15.91-16.73-9.21-13.73-17.39-26.67-24.63-38.96,18.13,14.14,40.5,21.84,63.86,21.84,14.04,0,27.72-2.76,40.66-8.21,4.11-1.73,8.52-2.61,13.08-2.61,6.06,0,11.97,1.57,17.09,4.55l67.66,39.36c9.39,5.46,15.07,15.77,13.83,25.08-.6,4.53-2.08,9.81-11.99,15.28-9.29,5.12-23.04,8.69-39.78,10.31-.92.09-1.79.13-2.63.13h0Z"/>
      </g>
      <g>
        <path class="cls-5" d="m565.01,2069.6c-8.38,0-16.17-4.15-20.84-11.1-6.81-10.12-5.37-23.62,3.43-32.09,13.67-13.18,30.14-25.62,48.92-36.98,15.88-9.59,33.3-18.43,53.26-27.03,4.35-1.88,8.97-2.84,13.71-2.84,13.8,0,26.25,8.16,31.76,20.81,4.12,9.34,3.84,20-.76,29.25-4.61,9.26-12.96,15.92-22.92,18.27-39.26,9.49-68.64,21.36-92.45,37.38-4.18,2.84-9.06,4.35-14.11,4.35Z"/>
        <path class="cls-6" d="m663.48,1979.06c5.86,0,11.43,3.42,13.9,9.13,3.77,8.49-1.31,18.61-10.34,20.72-34.75,8.39-69.02,20.11-98.87,40.2-.97.67-2.08.99-3.17.99-1.8,0-3.57-.87-4.66-2.48-1.54-2.29-1.16-5.31.76-7.16,13.67-13.18,29.19-24.49,45.49-34.34,16.32-9.86,33.44-18.3,50.89-25.81,1.96-.85,3.99-1.25,6-1.25m0-39h0c-7.42,0-14.65,1.5-21.47,4.45-20.73,8.93-38.92,18.17-55.57,28.23-20.04,12.12-37.66,25.45-52.39,39.65-15.61,15.02-18.17,39.02-6.04,57.02,8.28,12.32,22.12,19.7,37.01,19.7,8.97,0,17.62-2.66,25.04-7.7,21.81-14.66,49.16-25.64,86.05-34.56,15.59-3.7,28.65-14.09,35.84-28.54,7.18-14.43,7.61-31.09,1.17-45.74-8.61-19.75-28.07-32.5-49.63-32.5h0Z"/>
      </g>
      <g class="cls-2">
        <g>
          <path class="cls-5" d="m728.26,2214.23c-5.9,0-11.69-.54-17.21-1.61-53.87-10.29-103.25-31.18-146.71-62.08-13.16-9.36-24.7-21.37-34.32-35.68-22.06-32.88-39-62.12-51.82-89.41-13.88-29.54-14.4-63.96-1.43-94.43l31.51-73.66,20.21,27.6c22.88,31.25,50.25,61.63,81.36,90.29,5.45,5.02,12.6,7.83,20.13,7.91l37.21.37-21.48,30.38c-2.86,4.04-5.93,8.25-9.14,12.49l-14.74,19.52c.25,2.19.77,4.37,1.57,6.44,4.72,12.17,15.79,22.2,30.96,33.52,18.44,13.75,40.64,28.63,65.37,34.76,7.24,1.8,14.58,2.71,21.83,2.71,11,0,26.86-2.13,39.97-12.28,14.18-10.98,20.83-31.64,14.84-46.07l-39.85-95.89,71.93,74.9c21.17,22.05,31.07,51.43,27.17,80.62-3.35,24.99-15.99,46.3-36.55,61.63-20.04,14.94-47.31,24.19-81.05,27.49-3.28.32-6.55.48-9.74.48Z"/>
          <path class="cls-6" d="m512.75,1896.49c23.94,32.7,51.99,63.73,83.88,93.12,9.21,8.49,21.06,12.94,33.15,13.06-2.89,4.09-5.83,8.1-8.77,11.99l-.82-5.1c-17.1,8.41-21.88,32.06-14.98,49.86,6.88,17.75,22.2,30.7,37.48,42.1,22.01,16.4,45.7,31.46,72.34,38.06,8.6,2.14,17.58,3.28,26.51,3.28,18.7,0,37.24-5.01,51.9-16.36,20.41-15.81,30.69-45.43,20.91-68.97,16.36,17.04,25.12,40.54,21.91,64.53-5.25,39.19-38.36,66.25-100.17,72.29-2.6.25-5.22.38-7.85.38-4.52,0-9.06-.39-13.51-1.26-50.75-9.69-97.24-29.05-139.11-58.83-11.63-8.28-21.47-18.81-29.44-30.67-19.84-29.58-37.1-58.6-50.35-86.82-11.61-24.71-11.85-53.33-1.13-78.5l18.04-42.17m-8.95-78.24l-26.91,62.9-18.04,42.17v.03s-.03.03-.03.03c-15.14,35.57-14.51,75.79,1.72,110.35,13.24,28.19,30.67,58.27,53.27,91.96,10.96,16.31,24.15,29.99,39.22,40.72,45.77,32.55,97.71,54.53,154.39,65.36,6.72,1.3,13.73,1.95,20.85,1.95,3.81,0,7.72-.19,11.59-.56,37.37-3.65,67.92-14.17,90.86-31.27,24.86-18.54,40.15-44.35,44.22-74.66,2.36-17.62.47-35.9-5.44-52.88-5.63-16.15-14.96-31.31-26.99-43.85l-143.85-149.8,79.71,191.78c2.38,5.73-.93,17.1-8.77,23.17-6.82,5.28-16.78,8.19-28.03,8.19-5.66,0-11.42-.72-17.09-2.13-21.41-5.3-41.56-18.89-58.45-31.48-8.62-6.43-17.73-13.79-22.33-20.9l8.45-11.19c3.33-4.41,6.53-8.78,9.5-12.98l42.96-60.77-74.42-.74c-2.69-.03-5.22-1-7.1-2.74-30.19-27.81-56.71-57.24-78.84-87.48l-40.42-55.21h0Z"/>
        </g>
      </g>
    </g>
  </g>
  <g>
    <g>
      <polygon class="cls-9" points="719.68 1571.02 1266.89 1426.06 1256.02 1792.08 763.17 1792.08 719.68 1571.02"/>
      <path class="cls-4" d="m1268.08,1804.49h-515.12l-47.71-242.5,574.55-152.2-11.72,394.7Zm-494.69-24.84h470.57l10.02-337.32-519.86,137.71,39.27,199.61Z"/>
      <g>
        <path class="cls-13" d="m1374.02,2265.29c-133.55-1.91-241.78-51.58-321.76-147.6-57.45-69.02-98.89-160.07-123.09-270.64-10.48-47.92,1.15-97.34,31.93-135.58,30.83-38.28,76.68-60.25,125.82-60.19l590.14.26,2.29.03c48.71.7,93.97,22.98,124.2,61.19,30.23,38.12,41.54,87.21,31.06,134.75-24.62,111.71-66.71,203.42-125.16,272.63-81.39,96.4-191.74,145.25-327.8,145.17-2.54,0-5.11-.03-7.68-.06l.05.03Z"/>
        <path class="cls-5" d="m1679.09,1674.49c87.45,1.25,152.22,82.45,133.29,168.21-36.94,167.56-140.35,400.03-430.64,399.89-2.48.01-4.92-.02-7.39-.06-284.63-4.07-386.41-234.12-422.86-400.28-18.9-86.39,47-168.08,135.43-168.07l590.22.26,1.95.03m.65-45.69l-2.62-.04-590.14-.26c-56.11-.02-108.48,25.03-143.65,68.72-35.17,43.67-48.43,100.07-36.42,154.77,25.05,114.14,68.06,208.48,127.85,280.36,39.28,47.23,85.85,84.29,138.38,110.2,59.2,29.21,126.68,44.54,200.59,45.59,2.68.04,5.35.08,8.05.07,75.23.01,143.95-14.52,204.24-43.32,53.51-25.56,100.96-62.5,141.03-109.98,60.83-72.09,104.64-167.1,130.05-282.49,11.94-54.22-.99-110.31-35.5-153.82-34.61-43.51-86.3-68.99-141.83-69.79l-.05-.02Z"/>
        <path class="cls-5" d="m1499.22,2097.24l-254.95-.14c-54.53-.05-98.78-44.28-98.73-98.83l.12-148.13c.05-54.52,44.29-98.77,98.84-98.72l254.95.13c54.53.05,98.78,44.28,98.73,98.83l-.12,148.13c-.02,54.52-44.28,98.71-98.84,98.72Z"/>
        <path class="cls-10" d="m1322.53,1899.22h-45.16s.06-98.42.06-98.42l44.08.04c19.35.04,31.31,9.98,31.31,25.43v.28c-.02,11.12-5.67,17.3-12.53,21.22,11.01,4.35,17.76,10.99,17.74,24.22v.28c.03,17.92-14.09,26.9-35.49,26.92v.03Zm9.51-69.32c0-6.47-4.89-10.14-13.68-10.13h-20.6s-.01,20.77-.01,20.77l19.26.04c9.23-.01,15.07-3.1,15.08-10.4l-.04-.29Zm5.28,39.34c0-6.61-4.75-10.68-15.43-10.67h-24.11s-.03,21.65-.03,21.65h24.82c9.23,0,14.76-3.34,14.78-10.67v-.28s-.02-.03-.02-.03Z"/>
        <path class="cls-13" d="m1399.9,1899.21l.06-98.41,71.56.03-.04,19.26-50.83-.02v19.96s44.74.05,44.74.05l-.04,19.26-44.73-.05v20.65s51.5.03,51.5.03l-.04,19.26-72.17-.05v.03Z"/>
        <path class="cls-13" d="m1320.9,2047.84c-28.52,0-48.11-20.79-48.09-48.83v-.23c0-26.95,20.32-49.05,48.01-49.04,16.43,0,26.4,4.64,35.93,13.02l-12.69,15.87c-7.09-6.12-13.35-9.63-23.9-9.64-14.62,0-26.28,13.43-26.3,29.55v.23c-.02,17.35,11.46,30.09,27.66,30.13,7.32.01,13.85-1.87,18.94-5.71l-.02-13.52h-20.25s.02-18.04.02-18.04h39.77s-.02,41.18-.02,41.18c-9.35,8.22-22.28,15.01-39.04,15l-.02.02Z"/>
        <path class="cls-10" d="m1442.14,2047.93c-28.26,0-48.48-21.84-48.51-48.84v-.24c-.01-26.95,20.55-49.05,48.83-49.02,28.26,0,48.48,21.84,48.51,48.84v.24c-.06,26.95-20.64,49.02-48.83,49.02Zm27.73-49.07c0-16.27-11.47-29.83-27.67-29.82-16.2,0-27.45,13.29-27.5,29.53v.23c0,16.27,11.46,29.83,27.66,29.82,16.2,0,27.46-13.29,27.5-29.53v-.23Z"/>
        <g class="cls-1">
          <path class="cls-5" d="m1436.12,1645.14s222.94,35.53,242.86,140.98c21.15,111.59-30.12,326.39-236.81,368.73-296.77,60.81-468.07-186.08-468.07-186.08,0,0,45.22,257.83,340.55,291.14,295.3,33.32,403.92-138.43,403.92-138.43,0,0,150.81-242.12,111.73-369.67-39.1-127.62-394.19-106.68-394.19-106.68Z"/>
        </g>
        <path class="cls-5" d="m1481.19,1643.8l-203.6-.1-.06,119.96,203.6.1.06-119.96Z"/>
        <path class="cls-9" d="m1098.36,1703.7s-79.31,2.42-104.29,59.96c-24.98,57.53,46.33,205.17,46.33,205.17,0,0-64.51-165.2,57.94-265.13h.02Z"/>
      </g>
    </g>
    <g>
      <g>
        <path class="cls-13" d="m912.72,1600.47c-152.84-2.18-296.1-63.33-403.46-172.21-107.47-108.96-166.64-253.32-166.56-406.39l.23-407.86c.09-154.45,60.35-299.66,169.64-408.89,109.33-109.23,254.57-169.27,409.11-169.17l989.05.49c2.71.04,5.45,0,8.07.04,152.84,2.18,296.09,63.34,403.46,172.22,107.47,108.96,166.63,253.32,166.56,406.39l-.23,407.86c-.18,318.9-259.79,578.28-578.73,578.05l-989.04-.49c-2.67-.04-5.37,0-8.11-.04Z"/>
        <path class="cls-5" d="m1918.33,72.38c296.13,4.23,534.79,245.61,534.59,542.64l-.23,407.94c-.17,299.52-243.15,542.28-542.74,542.11l-989.04-.49c-2.56-.04-5.04,0-7.64-.04-296.12-4.23-534.79-245.61-534.58-542.64l.23-407.94c.16-299.51,243.15-542.27,542.74-542.1l989.05.49c2.56-.04,5.15,0,7.63.04Zm1.03-71.84c-2.89-.04-5.74-.08-8.64-.05L921.68,0c-164.1-.08-318.44,63.71-434.54,179.7-116.1,115.95-180.15,270.19-180.13,434.27l-.23,407.94c-.06,162.52,62.75,315.87,176.95,431.66,114.05,115.69,266.18,180.56,428.5,182.88,2.89.04,5.74.08,8.64.05l989.05.49c164.09.09,318.44-63.7,434.53-179.7,116.1-115.95,180.16-270.19,180.13-434.27l.23-407.94c.06-162.52-62.75-315.83-176.95-431.66C2233.86,67.73,2081.69,2.86,1919.36.54Z"/>
        <path class="cls-5" d="m1815.52,1523.25l-800.05-.38c-240.18-.1-434.78-194.9-434.73-435.02l.15-215.21c.09-240.15,194.92-434.73,435.07-434.67l800.04.38c240.19.1,434.78,194.9,434.73,435.02l-.14,215.21c-.1,240.15-194.92,434.73-435.07,434.67Z"/>
        <path class="cls-13" d="m1094.82,1176.97c32.07.02,58.11-97.78,58.17-218.43.06-120.64-25.89-218.47-57.96-218.48-32.07-.02-58.12,97.78-58.18,218.43-.05,120.64,25.9,218.47,57.96,218.48Z"/>
        <path class="cls-13" d="m1736.66,1177.25c32.07.02,58.11-97.78,58.17-218.43.06-120.64-25.89-218.47-57.96-218.48-32.07-.02-58.11,97.78-58.17,218.43-.06,120.64,25.89,218.47,57.96,218.48Z"/>
        <path class="cls-5" d="m706.42,693.41l-425.11-.21-.21,425.05,425.11.21.21-425.05Z"/>
        <path class="cls-5" d="m2497.08,694.23l-425.11-.22-.21,425.05,425.1.21.21-425.05Z"/>
        <path class="cls-13" d="m277.53,1116.27c-135.87-1.94-246.45-114.13-246.4-250.05l.03-82.41c.01-117.54,95.81-213.18,213.36-213.17l67.86.05-.27,545.63h-31.2c-1.04-.06-2.26-.08-3.41-.09l.04.04Z"/>
        <path class="cls-5" d="m281.28,601.89l-.2,483.3-3.11-.04c-119.49-1.71-215.76-99.09-215.68-218.89l.03-82.41c.03-100.6,81.61-182.07,182.19-181.96l36.8-.04m62.34-62.32h-62.26s-36.8.03-36.8.03C109.81,539.52.1,649.02.03,783.85L0,866.27c-.06,74.4,28.73,144.55,81.01,197.55,52.2,52.92,121.82,82.67,196.15,83.73l3.93.06h62.26s0-62.25,0-62.25l.23-483.34-.03-62.44.11-.04Z"/>
        <path class="cls-13" d="m2522.76,546.2l67.85.04,2.93.04c115.98,1.66,210.25,97.39,210.16,213.29l-.03,82.41c-.02,66.81-26.01,129.54-73.27,176.78-47.25,47.24-110.07,73.14-176.81,73.15h-31.21s.35-545.68.35-545.68l.04-.03Z"/>
        <path class="cls-5" d="m2593.25,577.4c99.41,1.42,179.48,82.49,179.51,182.13l-.03,82.41c-.06,120.88-98.03,218.74-218.96,218.72l.2-483.3,36.8-.03c.75.04,1.6.06,2.49.07Zm.89-62.28l-3.45-.05-36.8.03h-62.26s0,62.25,0,62.25l-.2,483.31v62.25s62.26,0,62.26,0c75.12.08,145.73-29.15,198.82-82.2,53.16-53.04,82.37-123.7,82.44-198.73l.03-82.41c.03-64.7-24.96-125.68-70.41-171.72-45.33-45.96-105.93-71.8-170.43-72.73Z"/>
        <g class="cls-1">
          <path class="cls-5" d="m62.3,866.26s64.66,83.48,141.73,92.66l.21-357.06,132.29-30.46-23.13,579.14s-251.28-17.04-251.15-150.58l.06-133.74v.04Z"/>
        </g>
        <g class="cls-1">
          <path class="cls-5" d="m2553.89,577.32l36.8-.03-.2,401s158.22,4.53,178.94-253.05c20.69-257.57,52.43,171.87,52.43,171.87,0,0-182.56,241.51-291.92,218.3-109.36-23.16,24.03-538.1,24.03-538.1h-.07Z"/>
        </g>
        <g class="cls-1">
          <path class="cls-5" d="m1095,740.06s63.7,433.72-58.27,397.74c-121.94-36.02,45.7,225.24,129.58,143.77,83.88-81.32,63.08-534.25-71.31-541.54v.03Z"/>
        </g>
        <g class="cls-1">
          <path class="cls-5" d="m1739.46,740.41s63.7,433.71-58.27,397.73c-121.94-36.02,45.7,225.25,129.58,143.78,83.92-81.44,63.19-534.25-71.31-541.55v.04Z"/>
        </g>
        <g class="cls-1">
          <path class="cls-5" d="m1283.68,28.22s535.62,10.99,770.43,205.73c234.85,194.75,140.49,916.16,117,1064.01-23.5,147.85-1013.11,306.64-1397.34,266.55,0,0,924.47,74.53,1199.64,41.19,275.17-33.38,523.3-232.27,523.45-486.21.15-253.94-9.73-680.77-9.73-680.77,0,0-184.07-389.78-486.07-410.1-302.08-20.29-717.37-.43-717.37-.43v.04Z"/>
        </g>
        <path class="cls-9" d="m2623.15,665.39c.02-27.35,32.18-42.3,52.83-24.45,10.69,9.23,22.41,21.55,34.7,37.88,47.68,63.68-15.35,202.92-67.73,242.67,0,0,43.89-142.82-1.84-202.71-11.72-15.33-18.01-34.13-17.95-53.44v.04Z"/>
      </g>
      <path class="cls-13" d="m912.72,1600.47c-152.84-2.18-296.1-63.33-403.46-172.21-107.47-108.96-166.64-253.32-166.56-406.39l.23-407.86c.09-154.45,60.35-299.66,169.64-408.89,109.33-109.23,254.57-169.27,409.11-169.17l989.05.49c2.71.04,5.45,0,8.07.04,152.84,2.18,296.09,63.34,403.46,172.22,107.47,108.96,166.63,253.32,166.56,406.39l-.23,407.86c-.18,318.9-259.79,578.28-578.73,578.05l-989.04-.49c-2.67-.04-5.37,0-8.11-.04Z"/>
      <path class="cls-5" d="m1918.33,72.38c296.13,4.23,534.79,245.61,534.59,542.64l-.23,407.94c-.17,299.52-243.15,542.28-542.74,542.11l-989.04-.49c-2.56-.04-5.04,0-7.64-.04-296.12-4.23-534.79-245.61-534.58-542.64l.23-407.94c.16-299.51,243.15-542.27,542.74-542.1l989.05.49c2.56-.04,5.15,0,7.63.04Zm1.03-71.84c-2.89-.04-5.74-.08-8.64-.05L921.68,0c-164.1-.08-318.44,63.71-434.54,179.7-116.1,115.95-180.15,270.19-180.13,434.27l-.23,407.94c-.06,162.52,62.75,315.87,176.95,431.66,114.05,115.69,266.18,180.56,428.5,182.88,2.89.04,5.74.08,8.64.05l989.05.49c164.09.09,318.44-63.7,434.53-179.7,116.1-115.95,180.16-270.19,180.13-434.27l.23-407.94c.06-162.52-62.75-315.83-176.95-431.66C2233.86,67.73,2081.69,2.86,1919.36.54Z"/>
      <path class="cls-5" d="m1815.52,1523.25l-800.05-.38c-240.18-.1-434.78-194.9-434.73-435.02l.15-215.21c.09-240.15,194.92-434.73,435.07-434.67l800.04.38c240.19.1,434.78,194.9,434.73,435.02l-.14,215.21c-.1,240.15-194.92,434.73-435.07,434.67Z"/>
      <path class="cls-13" d="m1094.82,1176.97c32.07.02,58.11-97.78,58.17-218.43.06-120.64-25.89-218.47-57.96-218.48-32.07-.02-58.12,97.78-58.18,218.43-.05,120.64,25.9,218.47,57.96,218.48Z"/>
      <path class="cls-13" d="m1736.66,1177.25c32.07.02,58.11-97.78,58.17-218.43.06-120.64-25.89-218.47-57.96-218.48-32.07-.02-58.11,97.78-58.17,218.43-.06,120.64,25.89,218.47,57.96,218.48Z"/>
      <path class="cls-5" d="m706.42,693.41l-425.11-.21-.21,425.05,425.11.21.21-425.05Z"/>
      <path class="cls-5" d="m2497.08,694.23l-425.11-.22-.21,425.05,425.1.21.21-425.05Z"/>
      <path class="cls-13" d="m277.53,1116.27c-135.87-1.94-246.45-114.13-246.4-250.05l.03-82.41c.01-117.54,95.81-213.18,213.36-213.17l67.86.05-.27,545.63h-31.2c-1.04-.06-2.26-.08-3.41-.09l.04.04Z"/>
      <path class="cls-5" d="m281.28,601.89l-.2,483.3-3.11-.04c-119.49-1.71-215.76-99.09-215.68-218.89l.03-82.41c.03-100.6,81.61-182.07,182.19-181.96l36.8-.04m62.34-62.32h-62.26s-36.8.03-36.8.03C109.81,539.52.1,649.02.03,783.85L0,866.27c-.06,74.4,28.73,144.55,81.01,197.55,52.2,52.92,121.82,82.67,196.15,83.73l3.93.06h62.26s0-62.25,0-62.25l.23-483.34-.03-62.44.11-.04Z"/>
      <path class="cls-13" d="m2522.76,546.2l67.85.04,2.93.04c115.98,1.66,210.25,97.39,210.16,213.29l-.03,82.41c-.02,66.81-26.01,129.54-73.27,176.78-47.25,47.24-110.07,73.14-176.81,73.15h-31.21s.35-545.68.35-545.68l.04-.03Z"/>
      <path class="cls-5" d="m2593.25,577.4c99.41,1.42,179.48,82.49,179.51,182.13l-.03,82.41c-.06,120.88-98.03,218.74-218.96,218.72l.2-483.3,36.8-.03c.75.04,1.6.06,2.49.07Zm.89-62.28l-3.45-.05-36.8.03h-62.26s0,62.25,0,62.25l-.2,483.31v62.25s62.26,0,62.26,0c75.12.08,145.73-29.15,198.82-82.2,53.16-53.04,82.37-123.7,82.44-198.73l.03-82.41c.03-64.7-24.96-125.68-70.41-171.72-45.33-45.96-105.93-71.8-170.43-72.73Z"/>
      <g class="cls-1">
        <path class="cls-5" d="m62.3,866.26s64.66,83.48,141.73,92.66l.21-357.06,132.29-30.46-23.13,579.14s-251.28-17.04-251.15-150.58l.06-133.74v.04Z"/>
      </g>
      <g class="cls-1">
        <path class="cls-5" d="m2553.89,577.32l36.8-.03-.2,401s158.22,4.53,178.94-253.05c20.69-257.57,52.43,171.87,52.43,171.87,0,0-182.56,241.51-291.92,218.3-109.36-23.16,24.03-538.1,24.03-538.1h-.07Z"/>
      </g>
      <g class="cls-1">
        <path class="cls-5" d="m1095,740.06s63.7,433.72-58.27,397.74c-121.94-36.02,45.7,225.24,129.58,143.77,83.88-81.32,63.08-534.25-71.31-541.54v.03Z"/>
      </g>
      <g class="cls-1">
        <path class="cls-5" d="m1739.46,740.41s63.7,433.71-58.27,397.73c-121.94-36.02,45.7,225.25,129.58,143.78,83.92-81.44,63.19-534.25-71.31-541.55v.04Z"/>
      </g>
      <g class="cls-1">
        <path class="cls-5" d="m1283.68,28.22s535.62,10.99,770.43,205.73c234.85,194.75,140.49,916.16,117,1064.01-23.5,147.85-1013.11,306.64-1397.34,266.55,0,0,924.47,74.53,1199.64,41.19,275.17-33.38,523.3-232.27,523.45-486.21.15-253.94-9.73-680.77-9.73-680.77,0,0-184.07-389.78-486.07-410.1-302.08-20.29-717.37-.43-717.37-.43v.04Z"/>
      </g>
      <path class="cls-9" d="m2623.15,665.39c.02-27.35,32.18-42.3,52.83-24.45,10.69,9.23,22.41,21.55,34.7,37.88,47.68,63.68-15.35,202.92-67.73,242.67,0,0,43.89-142.82-1.84-202.71-11.72-15.33-18.01-34.13-17.95-53.44v.04Z"/>
    </g>
    <g>
      <g>
        <path class="cls-7" d="m256.03,1373.2c-12.47,6.26-27.71,1.39-34.21-11.02-6.58-12.54-1.74-28.05,10.8-34.63l29.44-15.44c9.55-5.01,15.83-14.81,16.39-25.58l4.07-78.52c1.5-28.95,18.41-55.21,44.14-68.55l431.66-223.77c25.3-13.3,56.41-12.03,80.8,3.02l67.21,41.49c9.18,5.67,20.85,6.17,30.37,1.06l29.43-15.44c.14-.07.28-.15.42-.22,12.47-6.26,27.7-1.39,34.21,11.02,6.58,12.55,1.75,28.05-10.8,34.63l-29.44,15.44c-25.42,13.28-56.62,12.3-81.14-2.84l-67.21-41.49c-9.01-5.56-20.43-6.05-29.89-1.31l-.36.18-431.65,223.77c-9.63,4.99-15.96,14.82-16.52,25.65l-4.07,78.52c-1.49,28.79-18.27,54.98-43.8,68.37l-29.44,15.44c-.14.07-.28.15-.42.22Z"/>
        <g class="cls-2">
          <path class="cls-4" d="m971.63,978.45c-26.94,14.04-59.5,13.99-84.66-.42l-68.95-39.47c-9.25-5.29-21.16-5.44-31.18-.41l-.38.19-457.49,236.62c-10.21,5.28-17.11,15.29-18.02,26.14l-6.59,78.62c-2.41,28.83-20.72,55.52-47.78,69.66l-31.2,16.31c-.15.07-.3.15-.44.23-.17.08-.34.12-.51.2,7.4,9.41,20.57,12.61,31.61,7.07.14-.07.28-.15.42-.22l29.44-15.44c25.53-13.39,42.31-39.58,43.8-68.37l4.07-78.52c.56-10.83,6.89-20.66,16.52-25.65l431.65-223.77.36-.18c9.46-4.74,20.88-4.25,29.89,1.31l67.21,41.49c24.53,15.14,55.73,16.12,81.14,2.84l29.44-15.44c10.76-5.65,15.78-17.84,12.87-29.12l-31.19,16.31Z"/>
        </g>
        <path class="cls-5" d="m260.54,1382.18c-17.28,8.67-38.65,1.79-47.63-15.34-4.43-8.44-5.3-18.11-2.46-27.21,2.84-9.11,9.06-16.56,17.5-20.99l29.44-15.44c6.42-3.36,10.64-9.95,11.02-17.2l4.07-78.52c1.69-32.5,20.67-61.98,49.56-76.95l431.66-223.77c28.12-14.89,63.13-13.62,90.7,3.4l67.21,41.49c6.24,3.85,13.99,4.09,20.33.76l30.1-15.79c17.28-8.67,38.64-1.79,47.62,15.34,9.14,17.43,2.4,39.05-15.03,48.2l-29.43,15.44c-28.72,15.17-63.61,13.78-91.1-3.19l-67.21-41.49c-6.04-3.73-13.74-4.06-20.1-.87l-431.89,223.89c-6.47,3.35-10.73,9.96-11.1,17.24l-4.07,78.52c-1.67,32.31-20.51,61.73-49.17,76.75l-30.01,15.73Zm503.64-458.2c-.39.2-.78.4-1.18.6l-431.71,223.8c-22.57,11.7-37.41,34.74-38.73,60.14l-4.07,78.52c-.74,14.3-9.08,27.32-21.76,33.96l-29.43,15.43c-3.69,1.94-6.4,5.19-7.64,9.17-1.24,3.98-.86,8.2,1.07,11.89,3.92,7.48,13.24,10.49,20.79,6.71l29.7-15.57c22.39-11.74,37.12-34.73,38.43-59.99l4.07-78.52c.74-14.38,9.15-27.43,21.93-34.05l432.13-224.01c12.54-6.29,27.74-5.62,39.67,1.74l67.21,41.49c21.48,13.26,48.61,14.04,71.21,2.49l29.42-15.43c7.61-4,10.56-13.44,6.56-21.06-3.92-7.48-13.25-10.49-20.79-6.71l-29.7,15.57c-12.53,6.75-28,6.2-40.32-1.41l-67.21-41.49c-21.16-13.06-47.73-14.28-69.66-3.28Z"/>
        <g>
          <rect class="cls-7" x="442.85" y="1376.21" width="50.82" height="123.13" transform="translate(-1020.09 1170.73) rotate(-61.79)"/>
          <path class="cls-5" d="m516.14,1500.51c-.64.32-1.31.59-2,.8-3.19.96-6.63.62-9.57-.96l-108.51-58.21c-2.94-1.58-5.13-4.25-6.09-7.44-.96-3.19-.62-6.63.96-9.57l24.02-44.78c1.58-2.94,4.27-5.13,7.44-6.09,3.19-.96,6.63-.62,9.57.96l108.51,58.21c6.12,3.28,8.42,10.9,5.13,17.01l-24.02,44.78c-1.24,2.3-3.14,4.14-5.44,5.29Zm-97.13-74.57l86.36,46.33,12.14-22.63-86.36-46.33-12.14,22.63Z"/>
          <path class="cls-7" d="m504.7,1287.73c-28.02,94.7-77.21,183.87-147.55,267.52-5.01,5.94-13.84,7.05-20.12,2.5-70.04-50.4-84.2-118.32-66.95-177.53,25.2-86.31,117.12-154.3,200.65-123.54,9.45,3.47,18.8,8.23,27.96,14.37,5.4,3.59,7.86,10.4,6,16.67Z"/>
          <path class="cls-5" d="m358.11,1570.16c-8.91,4.47-19.94,3.93-28.43-2.19-99.94-71.95-93.9-177.18-43.58-249.53,47.16-67.84,140.17-111.16,219.59-57.83,9.9,6.64,14.45,19.26,11.07,30.68-28.39,95.95-78.85,187.48-149.98,272.04-2.46,2.92-5.42,5.21-8.66,6.84Zm13.25-294.49c-25.34,12.71-47.89,33.05-64.63,57.12-43.29,62.25-48.45,152.81,37.64,214.79.94.68,2.41.48,3.17-.43h0c68.9-81.89,117.72-170.38,145.12-262.99.29-.98-.12-2.11-.97-2.68-39.76-26.69-83.07-24.49-120.33-5.8Z"/>
          <g class="cls-2">
            <path class="cls-4" d="m504.7,1287.73c-28.02,94.7-77.21,183.87-147.55,267.52-5.01,5.94-13.84,7.05-20.12,2.5-70.04-50.4-84.2-118.32-66.95-177.53,3.17,19.67,7.2,39.35,16.84,56.67,11.24,20.17,31.88,36.76,54.97,36.48,22.86-.28,42.31-16.33,58.05-32.94,46.72-49.36,80.46-116.95,70.8-183.75,9.45,3.47,18.8,8.23,27.96,14.37,5.4,3.59,7.86,10.4,6,16.67Z"/>
          </g>
          <g class="cls-3">
            <ellipse class="cls-9" cx="368.31" cy="1319.31" rx="55.29" ry="22.62" transform="translate(-689.61 449.23) rotate(-34.97)"/>
          </g>
        </g>
        <g>
          <rect class="cls-7" x="910.88" y="1141.45" width="50.82" height="123.13" transform="translate(1684.23 2531.35) rotate(-171.49)"/>
          <path class="cls-5" d="m957.94,1278.9c-2.3,1.15-4.91,1.58-7.49,1.2l-50.26-7.52c-3.3-.49-6.26-2.28-8.24-4.96-1.98-2.68-2.82-6.04-2.32-9.33l18.23-121.78c.49-3.3,2.27-6.26,4.96-8.24,2.67-1.97,6.03-2.82,9.33-2.32l50.25,7.52c6.86,1.03,11.6,7.42,10.57,14.29l-18.22,121.78c-.49,3.3-2.27,6.26-4.96,8.24-.58.43-1.2.81-1.84,1.13Zm-41.61-29.32l25.4,3.8,14.5-96.92-25.4-3.8-14.51,96.93Z"/>
          <path class="cls-7" d="m794.23,1142.5c92.66,34.16,193.55,48.06,302.65,41.69,7.76-.46,13.93-6.87,14.03-14.63,1.48-86.28-44.49-138.24-102.26-159.81-84.25-31.41-193.71,1.62-219,86.96-2.87,9.65-4.65,19.99-5.2,31.01-.35,6.47,3.64,12.52,9.78,14.78Z"/>
          <path class="cls-5" d="m1108.25,1193.88c-3.24,1.63-6.85,2.63-10.66,2.85h0c-110.31,6.45-213.85-7.82-307.74-42.45-11.17-4.12-18.56-15.31-17.97-27.22,4.75-95.54,95.07-144.18,177.66-141.43,88.09,2.93,176.04,61.01,173.96,184.14-.18,10.47-6.35,19.63-15.25,24.1Zm-243.96-165.47c-37.26,18.69-64.92,52.08-67.3,99.91-.05,1.03.61,2.03,1.56,2.38,90.62,33.42,190.74,47.19,297.58,40.93h0c1.17-.06,2.23-1.11,2.24-2.28,1.8-106.06-73.87-156.08-149.66-158.6-29.3-.97-59.09,4.94-84.43,17.65Z"/>
          <g class="cls-2">
            <path class="cls-4" d="m794.23,1142.5c92.66,34.16,193.55,48.06,302.65,41.69,7.76-.46,13.93-6.87,14.03-14.63,1.48-86.28-44.49-138.24-102.26-159.81,13.87,14.3,27.24,29.3,35.35,47.39,9.45,21.07,10.4,47.53-3.62,65.87-13.89,18.16-38.39,24.15-61.11,26.83-67.5,7.93-141.85-5.44-189.62-53.12-2.87,9.65-4.65,19.99-5.2,31.01-.35,6.47,3.64,12.52,9.78,14.78Z"/>
          </g>
          <g class="cls-3">
            <ellipse class="cls-9" cx="901.1" cy="1052.06" rx="55.29" ry="22.62" transform="translate(-284.9 336.37) rotate(-18.31)"/>
          </g>
        </g>
        <g>
          <rect class="cls-11" x="649.33" y="1186.08" width="40.21" height="110.59" transform="translate(-485.52 431.92) rotate(-26.64)"/>
          <path class="cls-5" d="m716.11,1289.56l-35.95,18.03c-4.3,2.16-9.53.42-11.69-3.88l-49.58-98.85c-2.16-4.3-.42-9.53,3.88-11.69l35.95-18.03c4.3-2.16,9.53-.42,11.69,3.88l49.58,98.85c2.16,4.3.42,9.53-3.88,11.69Zm-35.97-1.44l20.38-10.22-41.78-83.28-20.38,10.22,41.78,83.28Z"/>
          <rect class="cls-11" x="580.95" y="1162.59" width="120.64" height="45.24" rx="22.62" ry="22.62" transform="translate(-463.33 413.33) rotate(-26.64)"/>
          <path class="cls-5" d="m689.61,1197.51l-67.4,33.81c-16.1,8.08-35.78,1.55-43.85-14.56-8.08-16.1-1.55-35.78,14.55-43.85l67.4-33.81c16.11-8.08,35.78-1.55,43.86,14.55s1.55,35.78-14.56,43.86Zm-87.68-6.63c-6.19,3.11-8.7,10.67-5.6,16.87s10.67,8.71,16.86,5.6l67.4-33.81c6.19-3.11,8.71-10.67,5.6-16.87s-10.68-8.7-16.87-5.6l-67.4,33.81Z"/>
        </g>
        <path class="cls-7" d="m866.66,2027.1h0c-17.92,2.12-30.73,18.36-28.61,36.28l19.24,162.63c2.12,17.92,18.36,30.73,36.28,28.61h0c17.92-2.12,30.73-18.36,28.61-36.28l-19.24-162.63c-2.12-17.92-18.36-30.73-36.28-28.61Z"/>
        <path class="cls-5" d="m910.29,2263.26c-4.63,2.32-9.72,3.89-15.16,4.54-25.15,2.97-48.03-15.07-51.01-40.21l-19.23-162.63c-1.44-12.18,1.95-24.2,9.54-33.83,7.6-9.63,18.49-15.73,30.67-17.17,12.18-1.44,24.2,1.95,33.83,9.54,9.63,7.6,15.73,18.49,17.17,30.67l19.24,162.63c2.33,19.72-8.26,38.04-25.06,46.47Zm-48.51-221.07c-2.51,1.26-4.73,3.07-6.52,5.34-3.21,4.07-4.65,9.15-4.04,14.3l19.23,162.63c1.26,10.63,10.93,18.26,21.57,17,10.63-1.25,18.26-10.93,17-21.56l-19.24-162.63c-.61-5.15-3.18-9.76-7.26-12.97-4.07-3.21-9.15-4.64-14.3-4.03-2.28.27-4.45.92-6.44,1.92Z"/>
        <path class="cls-7" d="m1354.16,2023.6h0c-12.41,13.1-33.09,13.65-46.19,1.24l-118.85-112.66c-13.1-12.41-13.65-33.09-1.24-46.19h0c12.41-13.1,33.09-13.65,46.19-1.24l118.85,112.66c13.1,12.41,13.65,33.09,1.24,46.19Z"/>
        <path class="cls-5" d="m1351.08,2042.15c-16.8,8.43-37.82,5.96-52.23-7.7l-118.85-112.66c-18.38-17.43-19.16-46.55-1.74-64.93,8.45-8.9,19.84-13.99,32.11-14.32,12.27-.33,23.92,4.14,32.83,12.58l118.86,112.66c18.38,17.43,19.16,46.56,1.73,64.93-3.76,3.97-8.07,7.12-12.7,9.44Zm-148.19-171.07c-1.99,1-3.82,2.35-5.39,4.01-7.37,7.77-7.04,20.08.74,27.45l118.85,112.66c7.77,7.37,20.09,7.04,27.45-.73h0c7.37-7.77,7.04-20.09-.73-27.45l-118.86-112.66c-3.76-3.57-8.69-5.46-13.88-5.32-2.89.08-5.67.78-8.18,2.04Z"/>
        <g>
          <circle class="cls-13" cx="882.41" cy="1660.35" r="434.8"/>
          <circle class="cls-9" cx="882.41" cy="1660.35" r="361.92"/>
          <g class="cls-2">
            <path class="cls-4" d="m1028.91,1952.4c-173.39,86.97-383.33,21.54-477.49-145.7,2.37,5.34,4.85,10.65,7.49,15.93,89.62,178.66,307.11,250.85,485.77,161.23,178.66-89.62,250.85-307.11,161.23-485.77-2.65-5.27-5.42-10.44-8.29-15.53,77.75,175.47,4.67,382.87-168.72,469.85Z"/>
          </g>
          <g class="cls-2">
            <path class="cls-4" d="m737.04,1370.54c-173.39,86.97-246.47,294.37-168.72,469.85-2.86-5.09-5.64-10.25-8.29-15.53-89.62-178.66-17.43-396.15,161.23-485.77,178.66-89.62,396.15-17.43,485.77,161.23,2.65,5.27,5.13,10.59,7.49,15.93-94.16-167.24-304.1-232.68-477.49-145.7Z"/>
          </g>
          <rect class="cls-5" x="747.9" y="1373.13" width="30.16" height="120.64" rx="11.07" ry="11.07" transform="translate(-561.72 494.25) rotate(-26.64)"/>
          <g>
            <path class="cls-8" d="m877.93,1668.22c-3.72,1.87-8.25.36-10.12-3.36l-72.12-143.78c-1.87-3.72-.36-8.25,3.36-10.12s8.25-.36,10.12,3.36l72.12,143.78c1.87,3.72.36,8.25-3.36,10.12Z"/>
            <path class="cls-8" d="m778.22,1477.3l-11.38,53.34c-.74,3.48,2.87,6.28,6.06,4.68l60.95-30.57c3.18-1.6,3.11-6.17-.13-7.66l-49.56-22.77c-2.47-1.14-5.36.31-5.93,2.97Z"/>
          </g>
          <g>
            <path class="cls-8" d="m883.45,1673.2c1.87,3.72,1.08,7.89-1.76,9.32l-109.64,55c-2.84,1.42-6.65-.44-8.52-4.16s-1.08-7.89,1.76-9.32l109.64-55c2.84-1.42,6.65.44,8.52,4.16Z"/>
            <path class="cls-8" d="m737.25,1749.63l43.75,15.71c3.15,1.13,6.07-2.16,4.57-5.15l-30.18-60.18c-1.5-2.99-5.89-2.62-6.86.58l-13.56,44.46c-.58,1.89.43,3.9,2.29,4.57Z"/>
          </g>
          <path class="cls-5" d="m1083.31,2060.85c-220.84,110.77-490.62,21.23-601.39-199.61-110.77-220.84-21.23-490.62,199.61-601.39,220.84-110.77,490.62-21.23,601.39,199.61,110.77,220.84,21.23,490.62-199.61,601.39Zm-389.9-777.3c-207.77,104.22-292.01,358.04-187.8,565.81,104.22,207.77,358.04,292.01,565.81,187.8,207.77-104.22,292.01-358.04,187.8-565.81-104.22-207.77-358.04-292.01-565.81-187.8Z"/>
          <path class="cls-5" d="m1049.19,1992.83c-183.34,91.96-407.31,17.62-499.27-165.71-91.96-183.33-17.63-407.3,165.71-499.27,183.34-91.96,407.31-17.62,499.27,165.71,91.96,183.33,17.63,407.3-165.71,499.27Zm-324.54-647c-173.42,86.99-243.74,298.85-156.75,472.28,86.99,173.42,298.85,243.74,472.28,156.75,173.42-86.99,243.74-298.85,156.75-472.28-86.99-173.42-298.85-243.74-472.28-156.75Z"/>
          <rect class="cls-5" x="982.29" y="1840.41" width="30.16" height="120.64" rx="11.07" ry="11.07" transform="translate(-746.35 648.94) rotate(-26.64)"/>
          <rect class="cls-5" x="631.45" y="1723.97" width="30.16" height="120.64" rx="11.07" ry="11.07" transform="translate(-658.48 3162.2) rotate(-116.64)"/>
          <rect class="cls-5" x="1098.73" y="1489.58" width="30.16" height="120.64" rx="11.07" ry="11.07" transform="translate(227.83 3240.4) rotate(-116.64)"/>
          <circle class="cls-5" cx="634.95" cy="1514.54" r="15.08"/>
          <circle class="cls-5" cx="601.4" cy="1649.47" r="15.08" transform="translate(-1153.54 1700.65) rotate(-71.64)"/>
          <circle class="cls-5" cx="909.02" cy="1377.07" r="15.08"/>
          <circle class="cls-5" cx="1037.23" cy="1430.85" r="15.08" transform="translate(-647.51 1964.54) rotate(-71.64)"/>
          <circle class="cls-5" cx="849.05" cy="1941.39" r="15.08" transform="translate(-137.9 66.34) rotate(-4.14)"/>
          <circle class="cls-5" cx="720.85" cy="1887.6" r="15.08" transform="translate(-1043.32 902.54) rotate(-39.92)"/>
          <circle class="cls-5" cx="1123.13" cy="1803.91" r="15.08" transform="translate(-975.94 1473.15) rotate(-49.14)"/>
          <circle class="cls-5" cx="1156.68" cy="1668.99" r="15.08" transform="translate(-354.26 312.34) rotate(-13.36)"/>
          <ellipse class="cls-12" cx="880.18" cy="1672.71" rx="32.67" ry="30.16" transform="translate(-656.55 572.19) rotate(-26.64)"/>
          <path class="cls-5" d="m896.72,1705.68c-19.42,9.74-42.64,2.88-51.76-15.3-9.12-18.18-.74-40.9,18.68-50.64,19.42-9.74,42.64-2.87,51.76,15.31,9.12,18.18.74,40.89-18.68,50.63Zm-27.05-53.92c-12.79,6.41-18.48,21.03-12.69,32.58,5.79,11.55,20.91,15.73,33.7,9.31,12.79-6.41,18.48-21.03,12.68-32.58-5.79-11.55-20.91-15.73-33.7-9.32Z"/>
        </g>
      </g>
      <g>
        <path class="cls-13" d="m838.7,2123.55c-5.25,39.19-38.36,66.25-100.17,72.29-7.08.68-14.32.49-21.36-.87-50.75-9.69-97.24-29.05-139.11-58.83-11.63-8.28-21.47-18.81-29.44-30.67-19.84-29.58-37.1-58.6-50.35-86.82-11.61-24.71-11.85-53.33-1.13-78.5l18.04-42.17c23.94,32.7,51.99,63.73,83.88,93.12,9.21,8.49,21.06,12.94,33.15,13.06,6.86.1,13.73-1.21,20.23-3.96,25.5-10.71,54.48-8.88,78.33,5.03l67.71,39.36c6.82,3.95,12.98,8.84,18.32,14.43,16.36,17.04,25.12,40.54,21.91,64.53Z"/>
        <path class="cls-5" d="m802.5,2194.43c-15.69,7.87-36.07,13.84-62.5,16.41-8.85.86-17.47.5-25.64-1.06-53.39-10.19-102.18-30.83-145.03-61.35-12.8-9.11-23.98-20.74-33.24-34.55-21.96-32.73-38.79-61.78-51.47-88.81-13.35-28.45-13.84-61.56-1.34-90.83l18.01-42.18c2.13-4.99,6.77-8.44,12.15-9.06,5.38-.62,10.69,1.7,13.88,6.07,23.03,31.44,50.6,62.04,81.94,90.96,9.93,9.16,24.58,11.62,37.31,6.26h0c29.65-12.48,63.96-10.28,91.77,5.9l67.67,39.36c33.91,19.73,52.6,56.63,47.61,94.02-2.65,19.86-13.3,49.88-51.14,68.86Zm-283.59-266.8l-7.88,18.46c-9.13,21.38-8.8,45.5.91,66.18,12.02,25.62,28.12,53.36,49.21,84.82,7.23,10.78,15.87,19.79,25.68,26.78,39.29,27.98,84.1,46.92,133.2,56.29,5.34,1.02,11.08,1.25,17.07.66,36.41-3.53,80.98-16.67,86.66-59.24,3.32-24.88-9.89-50.58-32.88-63.95l-67.67-39.36c-19.67-11.44-43.94-13-64.91-4.17-23.61,9.94-50.87,5.27-69.46-11.88-25.87-23.86-49.31-48.87-69.92-74.58Z"/>
        <path class="cls-5" d="m669.47,2010.4c-34.75,8.39-69.02,20.11-98.87,40.2-2.57,1.77-6.09,1.1-7.83-1.49-1.54-2.29-1.16-5.31.76-7.16,13.67-13.18,29.19-24.49,45.49-34.34,16.32-9.86,33.44-18.3,50.89-25.81,7.67-3.32,16.58.21,19.9,7.89,3.77,8.49-1.31,18.61-10.34,20.72h0Z"/>
        <g class="cls-2">
          <path class="cls-5" d="m838.7,2123.55c-5.25,39.19-38.36,66.25-100.17,72.29-7.08.68-14.32.49-21.36-.87-50.75-9.69-97.24-29.05-139.11-58.83-11.63-8.28-21.47-18.81-29.44-30.67-19.84-29.58-37.1-58.6-50.35-86.82-11.61-24.71-11.85-53.33-1.13-78.5l18.04-42.17c23.94,32.7,51.99,63.73,83.88,93.12,9.21,8.49,21.06,12.94,33.15,13.06-2.89,4.09-5.83,8.1-8.77,11.99l-.82-5.1c-17.1,8.41-21.88,32.06-14.98,49.86,6.88,17.75,22.2,30.7,37.48,42.1,22.01,16.4,45.7,31.46,72.34,38.06,26.6,6.62,56.74,3.7,78.42-13.07,20.41-15.81,30.69-45.43,20.91-68.97,16.36,17.04,25.12,40.54,21.91,64.53Z"/>
        </g>
      </g>
    </g>
  </g>
</svg>