
<svg width="36" height="36" viewBox="0 0 36 36" fill="none" xmlns="http://www.w3.org/2000/svg">
<path d="M18 36C22.9705 36 27.4705 33.9854 30.7279 30.728V28.6992L18 36Z" fill="#2D2570"/>
<path d="M30.7281 28.6988V25.3496H25.3501C23.469 27.2306 20.8704 28.394 18.0001 28.394L14.3784 32.1969L18.0001 35.9997C23.2176 35.9997 27.8449 33.1279 30.7281 28.6988Z" fill="#622876"/>
<path d="M33.7112 15.8203L29.8853 29.8854L30.728 30.7282C33.9853 27.4707 36 22.9707 36 18.0002L33.7112 15.8203Z" fill="#2D2570"/>
<path d="M33.7113 15.8198L32.1973 14.3779L28.3945 17.9997C28.3945 20.87 27.2311 23.4685 25.3501 25.3496L29.8854 29.8849C32.3385 26.7143 33.8271 22.5549 33.8271 17.9997C33.8271 17.2617 33.7871 16.5345 33.7113 15.8198Z" fill="#0556B2"/>
<path d="M30.728 5.27246H29.1914L33.827 18.0004H36C36 13.0298 33.9853 8.52985 30.728 5.27246Z" fill="#077CCC"/>
<path d="M25.3501 5.27246V10.6504C27.2311 12.5315 28.3945 15.1301 28.3945 18.0004H33.8271C33.8271 13.0298 32.0557 8.52985 29.1915 5.27246H25.3501Z" fill="#09A1E5"/>
<path d="M18 0L29.8852 6.11478L30.7279 5.27201C27.4705 2.0147 22.9705 0 18 0Z" fill="#49B296"/>
<path d="M18.0001 0L14.3784 3.80282L18.0001 7.60563C20.8704 7.60563 23.469 8.76908 25.3501 10.6501L29.8854 6.11478C26.9849 2.36622 22.7358 0 18.0001 0Z" fill="#89C247"/>
<path d="M10.65 25.3496H5.27197V30.7276C8.52936 33.985 13.0294 35.9997 17.9999 35.9997V28.394C15.1296 28.394 12.531 27.2306 10.65 25.3496Z" fill="#CB2E81"/>
<path d="M7.60563 18.0002L3.80282 15.8271L0 18.0002C0 22.9707 2.0147 27.4707 5.27208 30.7281L10.6501 25.3501C8.76908 23.4691 7.60563 20.8705 7.60563 18.0002Z" fill="#FF5178"/>
<path d="M5.27208 5.27246C2.0147 8.52985 0 13.0298 0 18.0004H7.60563C7.60563 15.1301 8.76908 12.5315 10.6501 10.6504V5.27246H5.27208Z" fill="#FF9259"/>
<path d="M17.9999 7.60563V0C13.0294 0 8.52936 2.0147 5.27197 5.27208L10.65 10.6501C12.531 8.76908 15.1296 7.60563 17.9999 7.60563Z" fill="#FFD23B"/>
<path d="M18.0002 23.9038L15.8271 26.928L18.0002 29.9521C21.3006 29.9521 24.2885 28.6144 26.4513 26.4516V22.1748H22.1746C21.1063 23.2431 19.6304 23.9038 18.0002 23.9038Z" fill="#CB2E81"/>
<path d="M23.9034 18.0002C23.9034 19.6304 23.2427 21.1063 22.1743 22.1745L26.4511 26.4513C28.614 24.2885 29.9517 21.3005 29.9517 18.0002L26.9275 15.8271L23.9034 18.0002Z" fill="#09A1E5"/>
<path d="M23.9035 18H29.9518C29.9518 14.6997 28.6141 11.7117 26.4513 9.54883H22.1318L22.1744 13.8256C23.2428 14.8939 23.9035 16.3698 23.9035 18Z" fill="#7ED7FF"/>
<path d="M22.1745 13.8252L26.4513 9.54847C24.2885 7.38557 21.3005 6.04785 18.0002 6.04785L15.8271 9.072L18.0002 12.0961C19.6304 12.0961 21.1063 12.7569 22.1745 13.8252Z" fill="#C4D983"/>
<path d="M13.8256 22.1748H9.54883V26.4516C11.7117 28.6145 14.6996 29.9522 17.9999 29.9522V23.9039C16.3697 23.9039 14.8938 23.2431 13.8256 22.1748Z" fill="#FF5178"/>
<path d="M12.0966 18.0002L9.07248 15.8271L6.04834 18.0002C6.04834 21.3005 7.38606 24.2885 9.54889 26.4513L13.8256 22.1746C12.7574 21.1063 12.0966 19.6304 12.0966 18.0002Z" fill="#FF9259"/>
<path d="M13.8257 13.8256V9.54883H9.54896C7.38606 11.7117 6.04834 14.6996 6.04834 17.9999H12.0966C12.0966 16.3697 12.7574 14.8938 13.8257 13.8256Z" fill="#FFE17C"/>
<path d="M18 12.0961V6.04785C14.6997 6.04785 11.7117 7.38557 9.54883 9.5484L13.8256 13.8252C14.8939 12.7569 16.3698 12.0961 18 12.0961Z" fill="#FFF0BE"/>
<defs>
<clipPath id="clip0_666_1844">
<rect width="36" height="36" fill="white"/>
</clipPath>
</defs>
</svg>
