<svg width="255" height="266" viewBox="0 0 255 266" fill="none" xmlns="http://www.w3.org/2000/svg">
<g clip-path="url(#clip0_2388_4146)">
<path d="M81.152 238.424C80.2419 237.789 58.7237 222.577 48.903 198.207C45.2978 189.258 44.6487 183.963 46.8005 181.043C47.8271 179.647 49.4674 178.88 51.4146 178.88C54.7587 178.88 58.3956 181.182 58.8013 181.443L59.1117 181.645L59.3481 181.919C59.5033 182.101 75.4126 200.194 96.3981 202.539C99.9362 202.932 104.427 204.249 105.736 208.263C107.207 212.768 104.021 219.084 95.996 227.574C90.4718 233.417 84.6972 238.113 84.4573 238.312L82.8523 239.615L81.1484 238.427L81.152 238.424Z" fill="#FFEE00"/>
<path d="M51.418 181.36C54.0319 181.36 57.2949 183.483 57.2949 183.483C57.2949 183.483 73.7369 202.506 96.0876 205.002C118.438 207.499 82.7322 236.433 82.7322 236.433C82.7322 236.433 61.0377 221.3 51.3792 197.33C46.1443 184.336 48.3243 181.36 51.418 181.36ZM51.418 176.399C48.5748 176.399 46.1619 177.547 44.6274 179.634C41.8936 183.344 42.4333 189.162 46.43 199.086C56.5224 224.127 78.6367 239.763 79.575 240.415L82.9827 242.793L86.1963 240.19C86.4432 239.988 92.3483 235.19 97.9854 229.22C106.79 219.901 110.06 213.012 108.272 207.539C107.319 204.619 104.54 200.951 96.7155 200.078C76.8341 197.856 61.5562 180.53 61.4045 180.355L60.9318 179.812L60.311 179.409C59.2245 178.704 55.3795 176.403 51.418 176.403V176.399Z" fill="#040B11"/>
<path d="M86.1147 181.684C73.9516 181.684 62.4835 177.276 53.8163 169.266C45.142 161.25 40.2704 150.545 40.1011 139.125L39.6567 108.697C39.4909 97.1748 44.1155 86.2746 52.691 78.0135C61.2665 69.7524 72.7523 65.1158 85.0494 64.9604L163.742 63.9451C163.957 63.9451 164.176 63.9385 164.384 63.9385C176.547 63.9385 188.015 68.3468 196.683 76.3566C205.357 84.373 210.229 95.0781 210.398 106.497L210.842 136.926C211.188 160.714 190.83 180.342 165.457 180.666L86.7637 181.681C86.545 181.678 86.3299 181.684 86.1147 181.684Z" fill="#FFEE00"/>
<path d="M164.384 66.6173C187.949 66.6173 207.209 84.3698 207.534 106.527L207.978 136.956C208.306 159.302 189.247 177.666 165.411 177.974L86.7181 178.989C86.5135 178.989 86.3159 178.996 86.1113 178.996C62.5472 178.996 43.2867 161.243 42.9622 139.086L42.5177 108.657C42.1896 86.311 61.249 67.9467 85.0848 67.6392L163.778 66.6239C163.982 66.6173 164.187 66.6173 164.384 66.6173ZM164.384 61.2598C164.155 61.2598 163.926 61.2598 163.697 61.2664L85.0037 62.2817C71.9446 62.4503 59.7392 67.3746 50.6346 76.1483C41.53 84.922 36.6125 96.5002 36.796 108.736L37.2404 139.165C37.4203 151.292 42.5918 162.665 51.8093 171.178C61.0127 179.687 73.1934 184.366 86.1113 184.366C86.3406 184.366 86.5699 184.366 86.7992 184.36L165.492 183.345C178.551 183.176 190.757 178.252 199.861 169.478C208.966 160.704 213.883 149.129 213.7 136.89L213.255 106.461C213.075 94.334 207.904 82.9675 198.686 74.4485C189.483 65.9393 177.302 61.2598 164.384 61.2598Z" fill="#040B11"/>
<path d="M157.855 174.965L94.2003 175.788C75.0915 176.036 59.3867 161.713 59.1186 143.799L58.8823 127.746C58.6177 109.831 73.8956 95.1083 93.0044 94.8569L156.659 94.0334C175.768 93.7854 191.473 108.108 191.741 126.023L191.977 142.076C192.242 159.99 176.964 174.713 157.855 174.965Z" fill="#040B11"/>
<path d="M100.122 149.897C102.674 149.864 104.636 142.542 104.503 133.542C104.371 124.542 102.195 117.273 99.6431 117.306C97.0912 117.338 95.1298 124.661 95.2621 133.661C95.3945 142.661 97.5706 149.93 100.122 149.897Z" fill="#FFEE00"/>
<path d="M151.187 149.237C153.739 149.204 155.7 141.881 155.568 132.881C155.436 123.882 153.26 116.612 150.708 116.645C148.156 116.678 146.194 124.001 146.327 133.001C146.459 142.001 148.635 149.27 151.187 149.237Z" fill="#FFEE00"/>
<path d="M68.6673 114.24L34.8447 114.677L35.3111 146.385L69.1337 145.948L68.6673 114.24Z" fill="#040B11"/>
<path d="M211.14 112.395L177.318 112.832L177.784 144.541L211.607 144.104L211.14 112.395Z" fill="#040B11"/>
<path d="M35.0218 146.246C24.2099 146.246 15.2816 137.994 15.1334 127.855L15.0417 121.707C14.9112 112.94 22.4214 105.701 31.7765 105.578L37.1772 105.509L37.7769 146.216L35.297 146.252C35.2088 146.246 35.1171 146.246 35.0218 146.246Z" fill="#FFEE00"/>
<path d="M34.7395 107.863L35.2722 143.917H35.0253C25.5185 143.917 17.7472 136.754 17.6167 127.818L17.525 121.671C17.4121 114.167 23.8111 108.002 31.8152 107.903L34.7395 107.863ZM39.6252 103.147L34.669 103.21L31.7446 103.25C21.0244 103.389 12.4206 111.676 12.5688 121.733L12.6605 127.881C12.7416 133.431 15.1086 138.633 19.3276 142.532C23.5395 146.424 29.1131 148.57 35.0288 148.57H35.3427L40.299 148.508L40.2319 143.861L39.6993 107.807L39.6252 103.147Z" fill="#040B11"/>
<path d="M213.016 101.322L218.416 101.253H218.653C227.881 101.253 235.49 108.294 235.613 116.942L235.705 123.09C235.779 128.07 233.782 132.779 230.075 136.354C226.371 139.926 221.401 141.927 216.088 141.996L213.608 142.033L213.016 101.322Z" fill="#FFEE00"/>
<path d="M218.656 103.571C226.568 103.571 233.031 109.534 233.144 116.968L233.236 123.116C233.366 132.134 225.683 139.539 216.063 139.668L215.531 103.614L218.455 103.574C218.519 103.571 218.589 103.571 218.656 103.571ZM218.656 98.9277H218.384L215.46 98.9674L210.504 99.0303L210.571 103.677L211.104 139.731L211.171 144.377L216.127 144.314C222.103 144.238 227.69 141.983 231.853 137.971C236.022 133.956 238.269 128.659 238.188 123.056L238.097 116.908C238.03 112.083 235.969 107.559 232.301 104.173C228.639 100.79 223.792 98.9277 218.656 98.9277Z" fill="#040B11"/>
<g opacity="0.34">
<path d="M17.6167 127.819C17.6167 127.819 22.8551 133.977 29.0002 134.582L28.6121 107.946L39.1031 105.532L37.9214 148.763C37.9214 148.763 17.9095 147.761 17.7684 137.796L17.6167 127.819Z" fill="#040B11"/>
</g>
<g opacity="0.34">
<path d="M215.527 103.614L218.452 103.574L218.893 133.487C218.893 133.487 231.486 133.656 232.841 114.418C234.195 95.1808 237.208 127.184 237.208 127.184C237.208 127.184 222.956 145.392 214.226 143.782C205.498 142.168 215.527 103.614 215.527 103.614Z" fill="#040B11"/>
</g>
<g opacity="0.34">
<path d="M99.636 117.305C99.636 117.305 105.199 149.589 95.4558 147.039C85.7127 144.482 99.3467 163.793 105.929 157.628C112.508 151.47 110.339 117.705 99.636 117.305Z" fill="#040B11"/>
</g>
<g opacity="0.34">
<path d="M150.913 116.644C150.913 116.644 156.476 148.927 146.733 146.378C136.99 143.821 150.624 163.131 157.206 156.967C163.785 150.803 161.619 117.044 150.913 116.644Z" fill="#040B11"/>
</g>
<g opacity="0.34">
<path d="M113.838 64.0012C113.838 64.0012 156.465 64.2493 175.369 78.5293C194.274 92.8094 187.585 146.725 185.885 157.777C184.185 168.83 105.626 181.734 75.0137 179.148C75.0137 179.148 148.652 183.725 170.508 180.94C192.365 178.156 211.88 163.055 211.601 144.112C211.322 125.173 210.056 93.3385 210.056 93.3385C210.056 93.3385 194.969 64.4576 170.918 63.2638C146.86 62.0765 113.838 64.0012 113.838 64.0012Z" fill="#040B11"/>
</g>
<path d="M53.8591 98.0445C52.374 99.9527 49.2062 98.4315 49.9858 96.1827C51.5274 91.728 54.2436 86.731 59.0305 82.6765C70.5727 72.904 86.3973 72.6957 86.3973 72.6957L113.962 72.3418C113.962 72.3418 73.7546 72.5435 53.8591 98.0445Z" fill="white"/>
<path d="M26.0829 111.501C26.0829 111.501 19.5393 113.793 19.9097 122.09C19.9097 122.09 21.4689 117.566 26.1641 116.756L26.0829 111.501Z" fill="white"/>
<path d="M221.136 110.109C221.104 108.068 223.648 106.921 225.313 108.231C226.173 108.908 227.119 109.815 228.114 111.018C231.98 115.714 227.122 126.172 222.999 129.194C222.999 129.194 226.325 118.496 222.621 114.074C221.676 112.943 221.154 111.548 221.136 110.109Z" fill="white"/>
<path d="M69.906 117.02C67.7541 117.05 66.3678 114.887 67.419 113.125C68.9853 110.502 71.645 106.993 75.8817 103.938C83.8751 98.1666 96.1722 99.0893 96.1722 99.0893C96.1722 99.0893 77.7513 102.353 73.3453 114.709C72.8515 116.088 71.4546 117.004 69.906 117.02Z" fill="#FFF3D4"/>
<path d="M182.368 152.34C184.52 152.31 185.906 154.473 184.855 156.236C183.289 158.858 180.629 162.367 176.393 165.423C168.399 171.194 156.102 170.271 156.102 170.271C156.102 170.271 174.523 167.007 178.929 154.652C179.419 153.273 180.816 152.363 182.368 152.34Z" fill="#FFF3D4"/>
<path d="M53.072 183.976L53.266 183.754C53.0226 183.685 52.7968 183.612 52.5781 183.529C52.7333 183.678 52.8991 183.83 53.0755 183.979L53.072 183.976Z" fill="white"/>
<path d="M128.079 263.277C111.351 263.277 97.7067 257.628 87.5226 246.486C80.203 238.477 74.8552 227.858 71.6239 214.914C70.227 209.305 71.5922 203.484 75.3772 198.944C79.1694 194.396 84.8734 191.741 91.029 191.665L164.935 190.709H165.221C171.32 190.709 177.031 193.249 180.883 197.687C184.739 202.112 186.242 207.86 185.014 213.455C182.132 226.614 177.02 237.455 169.828 245.676C159.806 257.129 146.08 263.052 129.039 263.273C128.725 263.277 128.4 263.277 128.079 263.277Z" fill="#FFEE00"/>
<path d="M165.228 193.394C176.184 193.394 184.435 202.82 182.22 212.919C177.895 232.656 165.358 260.128 129.007 260.598C128.696 260.605 128.389 260.605 128.079 260.605C92.4294 260.605 79.2715 233.764 74.407 214.315C71.8848 204.202 79.9947 194.499 91.0677 194.353L164.977 193.398C165.058 193.394 165.147 193.394 165.228 193.394ZM165.228 188.03H164.9L90.9937 188.986C83.9667 189.079 77.4513 192.105 73.1301 197.297C68.8053 202.482 67.2461 209.126 68.8441 215.529C72.1847 228.889 77.7406 239.892 85.3531 248.233C90.3587 253.713 96.2533 257.989 102.878 260.939C110.346 264.269 118.819 265.955 128.079 265.955C128.414 265.955 128.746 265.955 129.088 265.949C138.51 265.826 147.089 264.001 154.585 260.522C161.242 257.43 167.118 253.011 172.05 247.376C179.543 238.811 184.855 227.583 187.832 213.988C189.229 207.602 187.511 201.037 183.112 195.987C178.707 190.934 172.188 188.03 165.228 188.03Z" fill="#040B11"/>
<path d="M143.459 243.335L111.531 243.748C104.702 243.834 99.0857 238.715 98.9905 232.312L98.7365 214.92C98.6448 208.518 104.105 203.253 110.935 203.163L142.863 202.75C149.692 202.664 155.308 207.783 155.403 214.186L155.657 231.578C155.749 237.981 150.288 243.245 143.459 243.335Z" fill="#040B11"/>
<path d="M120.978 220.381L115.323 220.457L115.157 208.905L120.674 208.836C123.098 208.806 124.615 209.953 124.639 211.769V211.805C124.657 213.112 123.958 213.846 123.112 214.315C124.498 214.808 125.359 215.575 125.377 217.13V217.166C125.408 219.266 123.655 220.344 120.978 220.381ZM122.043 212.225C122.029 211.465 121.412 211.041 120.311 211.061L117.732 211.098L117.771 213.538L120.184 213.508C121.341 213.492 122.064 213.122 122.054 212.262L122.043 212.225ZM122.773 216.835C122.759 216.058 122.159 215.589 120.819 215.605L117.799 215.645L117.838 218.185L120.942 218.145C122.099 218.128 122.787 217.728 122.773 216.868V216.835Z" fill="#FFF3D4"/>
<path d="M130.664 220.251L130.499 208.7L139.462 208.584L139.494 210.846L133.13 210.929L133.169 213.27L138.774 213.201L138.806 215.463L133.201 215.532L133.239 217.956L139.691 217.874L139.723 220.136L130.664 220.251Z" fill="#FFEE00"/>
<path d="M121.041 237.836C117.471 237.882 114.977 235.475 114.928 232.181V232.151C114.879 228.986 117.383 226.357 120.854 226.311C122.914 226.281 124.17 226.81 125.377 227.779L123.817 229.664C122.921 228.956 122.128 228.556 120.805 228.573C118.974 228.596 117.538 230.19 117.563 232.088V232.118C117.595 234.155 119.055 235.633 121.084 235.61C122.001 235.597 122.816 235.366 123.447 234.909L123.422 233.322L120.886 233.358L120.854 231.242L125.835 231.179L125.902 236.017C124.745 236.989 123.137 237.806 121.041 237.836Z" fill="#FFEE00"/>
<path d="M136.22 237.637C132.682 237.683 130.107 235.154 130.058 231.982V231.952C130.008 228.787 132.545 226.158 136.083 226.112C139.621 226.066 142.196 228.596 142.246 231.767V231.797C142.288 234.965 139.752 237.591 136.22 237.637ZM139.603 231.833C139.572 229.925 138.111 228.348 136.083 228.377C134.055 228.407 132.668 229.985 132.693 231.893V231.923C132.725 233.831 134.185 235.408 136.213 235.378C138.242 235.349 139.628 233.771 139.603 231.863V231.833Z" fill="#FFF3D4"/>
<g opacity="0.34">
<path d="M134.75 190.355C134.75 190.355 162.73 194.155 165.415 206.501C168.261 219.567 162.229 244.876 136.422 250.194C99.3681 257.833 77.4761 229.131 77.4761 229.131C77.4761 229.131 83.5999 259.328 120.643 262.744C157.686 266.161 170.974 245.815 170.974 245.815C170.974 245.815 189.427 217.133 184.305 202.221C179.176 187.306 134.75 190.355 134.75 190.355Z" fill="#040B11"/>
</g>
<path d="M140.391 190.127L114.896 190.457L115.103 204.544L140.598 204.214L140.391 190.127Z" fill="#040B11"/>
<path d="M92.553 197.796C92.553 197.796 82.6229 198.213 79.5998 205.012C76.5731 211.808 85.766 229.028 85.766 229.028C85.766 229.028 77.3986 209.738 92.553 197.796Z" fill="white"/>
<path d="M50.6769 206.584C49.9961 206.584 49.3118 206.498 48.6521 206.326L19.331 198.796C16.9993 198.198 15.1473 196.65 14.2478 194.547C13.3483 192.443 13.5458 190.125 14.7875 188.184L27.6067 168.143C28.4392 166.84 29.6668 165.838 31.1554 165.239L33.3425 164.359C34.302 163.972 35.3179 163.777 36.3621 163.777C36.6655 163.777 36.9724 163.794 37.2722 163.827L43.7312 164.551C46.585 164.872 48.9802 166.638 49.9891 169.158L52.8323 176.272C52.9946 176.678 53.2803 177.029 53.6542 177.287L53.7424 177.346L58.2154 180.968C60.6952 182.697 61.6583 184.916 61.0797 187.555L58.173 200.84C57.4463 204.164 54.2927 206.578 50.6769 206.578V206.584Z" fill="#FFD000"/>
<path d="M36.3588 166.261C36.5563 166.261 36.7574 166.271 36.9549 166.294L43.4139 167.018C45.2729 167.227 46.8533 168.391 47.5094 170.034L50.3526 177.148C50.6983 178.008 51.3015 178.755 52.0952 179.297L56.5646 182.915C58.152 184 58.8858 185.263 58.4907 187.066L55.584 200.354C55.0937 202.589 52.9947 204.107 50.6807 204.107C50.2432 204.107 49.7952 204.054 49.3543 203.939L20.0332 196.408C16.8337 195.588 15.3556 192.129 17.0594 189.463L29.8786 169.422C30.4183 168.576 31.2332 167.911 32.1998 167.521L34.3868 166.641C35.0148 166.39 35.685 166.261 36.3623 166.261M36.3623 161.3C34.9583 161.3 33.5896 161.565 32.2985 162.084L30.1114 162.964C28.1078 163.771 26.4604 165.12 25.3386 166.873L12.5195 186.914C10.8474 189.526 10.5828 192.648 11.7928 195.476C13.0027 198.303 15.4967 200.387 18.6327 201.194L47.9539 208.724C48.8428 208.952 49.76 209.068 50.6807 209.068C55.5487 209.068 59.7888 205.82 60.7695 201.349L63.6762 188.061C64.1277 186.001 64.2195 182.118 59.8806 179.043L55.5558 175.544L55.39 175.408L55.2806 175.332L52.4656 168.291C51.1075 164.898 47.8833 162.521 44.0453 162.091L37.5863 161.366C37.1807 161.32 36.768 161.297 36.3623 161.297V161.3Z" fill="#040B11"/>
<g opacity="0.35">
<path d="M28.4077 200.948C27.7092 200.948 27.0143 200.859 26.3405 200.68L19.042 198.762C16.7773 198.167 14.9535 196.656 14.0469 194.622C13.1368 192.584 13.2709 190.309 14.4103 188.378L27.233 166.634L27.2683 166.581C28.6757 164.461 31.1062 163.194 33.7731 163.194C35.8649 163.194 37.8157 163.972 39.2726 165.384L41.6113 167.652C43.3469 169.336 44.0983 171.71 43.622 174.009L41.1986 185.712C41.0575 186.4 40.807 187.062 40.4613 187.68L35.1841 197.105C33.8577 199.476 31.2615 200.948 28.4041 200.948H28.4077Z" fill="#FFD000"/>
<path d="M33.7695 165.672C35.0642 165.672 36.3694 166.138 37.3677 167.104L39.7064 169.372C40.8423 170.473 41.3326 172.028 41.0222 173.533L38.5988 185.236C38.5071 185.686 38.3448 186.119 38.1155 186.523L32.8383 195.948C31.9564 197.522 30.2279 198.465 28.4006 198.465C27.9526 198.465 27.4975 198.409 27.046 198.289L19.7475 196.371C16.6362 195.554 15.1511 192.228 16.7138 189.575L29.5012 167.887C30.4677 166.432 32.1081 165.672 33.7625 165.672M33.7625 160.711C30.1749 160.711 26.9014 162.414 25.0106 165.268L24.94 165.377L24.873 165.49L12.0856 187.178C10.5546 189.777 10.3747 192.839 11.5988 195.578C12.8193 198.316 15.271 200.346 18.3223 201.15L25.6209 203.068C26.5274 203.306 27.4622 203.429 28.4041 203.429C32.2456 203.429 35.7414 201.448 37.5264 198.256L42.8036 188.831C43.2693 187.998 43.6044 187.108 43.7949 186.182L46.2183 174.478C46.8568 171.386 45.8479 168.192 43.5127 165.926L41.1739 163.658C39.2161 161.759 36.5881 160.711 33.7731 160.711H33.7625Z" fill="#040B11"/>
</g>
<path d="M25.7793 200.221C19.3732 200.221 6.00727 196.127 3.82371 190.296C1.59429 184.343 2.97709 178.953 4.43398 174.921C5.30881 172.501 7.7005 167.914 10.1204 164.015C13.6868 158.27 16.3042 155.429 18.6042 154.808C19.4191 154.586 20.2869 154.474 21.1864 154.474C27.723 154.474 34.3054 160.407 35.0356 161.081C36.0868 162.054 41.3182 167.156 40.8032 171.882C40.5845 173.883 39.2898 179.839 37.4238 185.828C34.1396 196.375 31.7232 198.656 29.9877 199.467C28.8906 199.976 27.5148 200.224 25.7793 200.224V200.221Z" fill="#FFD000"/>
<path d="M21.187 156.954C26.8241 156.954 33.1772 162.844 33.1772 162.844C33.1772 162.844 38.5885 167.848 38.1758 171.628C37.763 175.408 32.9444 195.313 28.8136 197.241C28.0763 197.585 27.0287 197.741 25.7834 197.741C19.4232 197.741 7.89162 193.663 6.32185 189.473C4.44519 184.463 5.4576 179.823 6.9427 175.715C8.42428 171.608 15.9098 158.118 19.3421 157.189C19.9418 157.027 20.5626 156.954 21.1905 156.954M21.1905 151.994C20.0441 151.994 18.9294 152.139 17.8746 152.423C15.8957 152.959 14.079 154.325 11.9836 156.858C10.7137 158.393 9.31675 160.38 7.8387 162.765C5.33766 166.789 2.85425 171.568 1.93003 174.125C0.3391 178.533 -1.16717 184.449 1.33035 191.116C2.58616 194.47 6.23719 197.374 12.1847 199.741C16.834 201.593 21.9172 202.698 25.7834 202.698C27.9388 202.698 29.699 202.364 31.17 201.679C33.6464 200.525 36.4261 197.889 39.9713 186.516C41.721 180.898 43.1814 174.541 43.4424 172.13C43.7458 169.333 42.6417 166.244 40.1547 162.95C38.6273 160.926 37.0716 159.471 36.8988 159.309C36.7083 159.13 34.9022 157.48 32.2918 155.803C28.3515 153.273 24.6193 151.99 21.1941 151.99L21.1905 151.994Z" fill="#040B11"/>
<path d="M46.0667 172.722C44.8991 172.722 42.7826 172.421 37.8722 169.815C34.3693 167.957 33.0006 163.839 34.7573 160.443C40.5919 149.156 43.1247 148.511 44.3417 148.203C45.1954 147.985 46.1796 147.876 47.2626 147.876C50.3386 147.876 54.4588 148.762 55.9474 151.262C56.727 152.572 56.66 154.103 55.7675 155.466C50.6914 163.191 50.3809 166.022 50.1058 168.522C50.0634 168.922 50.0176 169.313 49.9612 169.7C49.6966 171.535 48.1691 172.722 46.0632 172.722H46.0667Z" fill="#FFD000"/>
<path d="M47.2661 150.353C50.7549 150.353 55.0867 151.775 53.517 154.163C47.3649 163.522 47.767 166.409 47.3437 169.369C47.2555 169.991 46.7793 170.242 46.0667 170.242C44.437 170.242 41.5585 168.919 39.1774 167.656C36.8774 166.436 35.9885 163.75 37.1385 161.525C39.3079 157.331 42.8284 151.157 45.0332 150.595C45.6717 150.433 46.4442 150.353 47.2626 150.353M47.2626 145.393C45.9468 145.393 44.7298 145.531 43.6539 145.806C41.1846 146.434 39.1386 148.247 36.5882 152.066C35.2971 154.001 33.8825 156.455 32.3763 159.362C30.0128 163.932 31.8542 169.472 36.567 171.975C41.9571 174.839 44.4758 175.206 46.0632 175.206C49.4638 175.206 52.1447 173.08 52.5822 170.034C52.6457 169.594 52.6915 169.181 52.7338 168.777C52.9772 166.541 53.2559 164.012 58.0146 156.769C59.408 154.649 59.4962 152.139 58.2545 150.056C57.2033 148.293 55.3513 146.993 52.7515 146.196C51.0759 145.68 49.1251 145.399 47.2591 145.399L47.2626 145.393Z" fill="#040B11"/>
<path d="M34.3835 166.641L32.1965 167.521C31.2299 167.911 30.415 168.576 29.8753 169.422L17.0561 189.463C15.3488 192.129 16.8304 195.588 20.0299 196.408L49.351 203.938C52.1448 204.656 55.0022 203.012 55.5842 200.35L58.4909 187.062C58.886 185.26 58.1205 183.405 56.5331 182.32L52.099 179.294C51.3053 178.752 50.7021 178.004 50.3564 177.144L47.5131 170.031C46.857 168.387 45.2767 167.223 43.4176 167.015L36.9587 166.29C36.0838 166.191 35.1984 166.314 34.3871 166.638L34.3835 166.641Z" fill="#FFEE00"/>
<path d="M34.6339 195.512L38.1192 186.526C38.3449 186.123 38.5072 185.686 38.6024 185.24L41.0259 173.536C41.3363 172.031 40.846 170.48 39.7101 169.376L37.3713 167.107C35.1031 164.908 31.2369 165.295 29.5154 167.891L16.728 189.579C15.1653 192.231 16.6469 195.555 19.7617 196.375L27.0603 198.293C29.3391 198.891 33.5404 197.476 34.641 195.512H34.6339Z" fill="#040B11"/>
<path d="M33.1769 162.844C33.1769 162.844 38.5882 167.848 38.1755 171.628C37.7627 175.408 32.9441 195.313 28.8133 197.241C24.3192 199.335 8.19823 194.483 6.32156 189.473C4.4449 184.463 5.45731 179.823 6.94242 175.712C8.42399 171.605 15.9095 158.115 19.3418 157.186C25.3316 155.565 33.1804 162.841 33.1804 162.841L33.1769 162.844Z" fill="#FFEE00"/>
<path d="M47.3435 169.369C47.7668 166.412 47.3647 163.525 53.5167 154.163C55.4534 151.216 48.4018 149.741 45.0365 150.595C42.8317 151.157 39.3077 157.331 37.1418 161.525C35.9883 163.753 36.8807 166.436 39.1807 167.656C42.6024 169.471 47.0542 171.409 47.347 169.369H47.3435Z" fill="#FFEE00"/>
<path d="M55.4394 207.017C55.4394 207.017 55.1713 207.972 56.219 197.439C57.2667 186.906 57.7253 183.483 57.7253 183.483L63.9408 189.859L65.6376 199.999L59.9053 212.239C59.9053 212.239 58.8788 212.239 55.4359 207.02L55.4394 207.017Z" fill="#FFEE00"/>
<path opacity="0.33" d="M6.05688 174.398C6.05688 174.398 26.1993 199.271 35.2757 189.029C35.2757 189.029 42.4296 196.523 49.6329 197.333C56.8362 198.143 57.6934 190.709 57.6934 190.709C57.6934 190.709 58.6388 205.971 61.0375 208.584C63.4362 211.197 71.0911 216.895 71.0911 216.895L75.8321 233.03L67.5176 226.991L52.9206 205.908L37.7767 204.106L10.738 196.682L2.93498 190.101L1.25586 181.363L6.05688 174.398Z" fill="#040B11"/>
<path opacity="0.33" d="M34.8486 190.71L39.1064 171.31L38.1998 167.914C38.1998 167.914 42.0801 169.227 43.7205 173.725C45.3608 178.222 40.6056 192.674 34.8522 190.713L34.8486 190.71Z" fill="#040B11"/>
</g>
<g clip-path="url(#clip1_2388_4146)">
<path d="M142.503 18.7589C142.754 18.928 142.939 19.2031 142.986 19.5006L149.155 58.3176C149.21 58.6579 149.1 59.0043 148.86 59.2488C148.62 59.4954 148.274 59.6136 147.936 59.5667L145.36 59.2142C143.84 60.6609 141.836 62.996 141.354 64.6404C148.374 66.621 191.526 79.1871 209.644 93.7603C211.513 91.5821 213.031 89.4181 213.094 88.7966C213.094 88.1221 211.951 86.2495 210.885 84.9353C210.702 84.7111 210.616 84.4238 210.647 84.1365C210.677 83.8492 210.82 83.5843 211.043 83.403L241.569 58.6946C241.813 58.4969 242.134 58.4154 242.443 58.4704C242.515 58.4827 249.726 59.6645 250.93 56.1047C251.592 54.1445 250.049 52.6122 249.355 52.0458C247.573 50.5889 245.107 50.0713 243.746 50.866C241.009 52.4635 240.921 54.6213 240.919 54.713C240.907 55.1858 240.592 55.6096 240.138 55.7441C214.734 63.2018 214.614 62.8228 214.199 61.5717C213.963 60.8586 213.882 60.2391 213.872 60.1698C213.843 59.9375 213.89 59.7012 214.006 59.4974L227.323 36.0524C227.533 35.6876 227.938 35.4737 228.351 35.5063C228.41 35.5103 234.612 35.8914 235.416 32.676C235.831 31.0092 235.21 29.6195 234.618 28.7454C233.491 27.0867 231.519 25.8499 229.598 25.5952C227.942 25.3792 226.701 26.7179 226.247 27.3068C225.219 28.6415 224.782 30.3653 225.209 31.4045C225.403 31.8732 225.244 32.4152 224.831 32.7066L202.333 48.5696C201.983 48.8161 201.527 48.8324 201.159 48.6205C200.792 48.4045 200.583 47.997 200.626 47.5732L203.639 17.4263C203.686 16.9638 204.02 16.5827 204.471 16.4768C204.681 16.4258 209.676 15.1503 209.385 10.0521C209.281 8.24471 208.632 6.95489 207.46 6.21523C205.523 4.99264 202.656 5.45519 200.788 6.22338C199.84 6.6146 199.214 7.41539 198.925 8.60538C198.402 10.7632 199.177 13.4427 199.942 14.3393C200.27 14.7264 200.288 15.2868 199.985 15.6943L181.41 40.6839C181.157 41.0242 180.726 41.1872 180.313 41.0975C179.898 41.0099 179.572 40.688 179.479 40.2723L173.309 12.8966C173.218 12.485 173.37 12.0592 173.7 11.7984C173.818 11.7046 176.64 9.41432 175.834 5.95441C175.45 4.30596 173.267 3.41551 171.307 3.38699C169.643 3.35438 167.795 3.9616 167.429 5.35127C166.532 8.76431 168.518 11.1545 168.538 11.1789C168.76 11.4397 168.845 11.7922 168.77 12.1264L162.462 39.6427C162.348 40.1378 161.909 40.4883 161.404 40.4883H160.845C160.464 40.4883 160.112 40.2886 159.915 39.9646L147.438 19.3274C147.206 18.9423 147.232 18.4533 147.507 18.0987C147.588 17.9928 149.546 15.3377 148.575 11.4479C148.182 9.87482 145.741 9.49786 143.641 9.94818C141.631 10.3761 139.604 11.6129 139.903 13.3103C140.634 17.4569 142.489 18.7508 142.508 18.765L142.503 18.7589ZM168.621 63.2711C173.248 64.5609 177.8 66.1136 182.291 67.8354C186.755 69.6285 191.152 71.6051 195.39 73.8994C199.604 76.2346 203.68 78.857 207.344 81.9685C203.159 79.6007 198.931 77.4408 194.629 75.4175C190.295 73.4613 185.925 71.5989 181.499 69.8608C177.074 68.1187 172.599 66.4947 168.113 64.8849L154.565 60.1739C159.321 60.8667 164 61.9793 168.623 63.2711H168.621Z" fill="#FFEE00"/>
<g opacity="0.25">
<path d="M227.112 34.1995C227.112 34.1995 203.912 64.3117 190.454 63.1197C176.996 61.9257 157.931 53.8546 157.931 53.8546C157.931 53.8546 160.136 59.6089 160.948 61.3531C163.524 61.9155 166.084 62.5614 168.623 63.2705C173.25 64.5603 177.802 66.113 182.293 67.8348C186.757 69.6279 191.154 71.6044 195.392 73.8988C199.606 76.234 203.682 78.8564 207.346 81.9679C203.161 79.6001 198.933 77.4402 194.631 75.4169C193.364 74.8443 192.084 74.2982 190.81 73.744C172.253 66.9199 150.571 62.6307 150.292 62.7713C150.077 62.8793 148.146 65.2898 147.279 66.3799C160.798 70.4695 190.853 80.3561 206.96 91.7546C208.032 90.1082 210.016 86.954 211.094 85.2036C211.025 85.114 210.956 85.0202 210.885 84.9347C210.701 84.7105 210.616 84.4232 210.647 84.1359C210.677 83.8486 210.819 83.5837 211.043 83.4024L241.568 58.694C241.813 58.4963 242.134 58.4148 242.443 58.4698C242.515 58.4821 249.726 59.6639 250.93 56.1041C251.343 54.8795 250.896 53.822 250.334 53.0619C249.459 55.338 241.202 57.7179 241.202 57.7179L212.185 67.8267L214.751 62.2109C214.38 62.0968 214.297 61.8584 214.201 61.5711C213.965 60.8579 213.884 60.2385 213.874 60.1692C213.845 59.9369 213.892 59.7006 214.008 59.4968L227.325 36.0517C227.535 35.687 227.94 35.4731 228.353 35.5057C228.412 35.5097 234.614 35.8908 235.417 32.6754C235.743 31.3713 235.432 30.2384 234.996 29.3887C233.346 31.8175 227.114 34.2036 227.114 34.2036L227.112 34.1995Z" fill="#021168"/>
</g>
<g opacity="0.4">
<path d="M150.571 52.9602C150.466 49.539 144.526 18.1105 144.526 18.1105C144.526 18.1105 142.213 15.3209 144.264 13.1101C145.627 11.6389 147.499 11.6287 148.618 11.6675C148.602 11.5921 148.589 11.5207 148.571 11.4433C148.178 9.87026 145.737 9.4933 143.637 9.94361C141.627 10.3715 139.6 11.6084 139.899 13.3057C140.63 17.4523 142.485 18.7462 142.504 18.7605C142.754 18.9296 142.939 19.2047 142.986 19.5022L149.155 58.3192C149.159 58.3395 149.149 58.3579 149.151 58.3783C149.509 58.9794 149.784 59.4358 149.784 59.4358C149.784 59.2259 150.677 56.3834 150.573 52.9602H150.571Z" fill="white"/>
</g>
<path d="M180.27 68.2157L197.72 61.4467L186.844 60.2465L175.305 66.5551L169.988 64.0692L179.171 57.7158L172.652 56.7683L163.715 63.0157L160.413 61.6994L166.765 55.0139C166.765 55.0139 160.458 52.2773 159.196 52.2773C157.935 52.2773 156.464 53.8565 156.148 55.0139C155.833 56.1713 156.254 55.9614 156.148 57.0149C156.042 58.0683 156.569 59.7514 156.989 60.1732C157.41 60.595 180.272 68.2178 180.272 68.2178L180.27 68.2157Z" fill="#FFEE00"/>
<g opacity="0.4">
<path d="M202.984 7.89585C205.822 6.23925 208.321 8.26262 209.261 9.19994C209.023 7.84287 208.433 6.82405 207.456 6.20868C205.519 4.9861 202.652 5.44864 200.784 6.21683C199.836 6.60806 199.209 7.40885 198.92 8.59883C198.397 10.7567 199.173 13.4362 199.938 14.3327C200.265 14.7199 200.284 15.2802 199.98 15.6878L191.152 27.5652C189.778 28.476 188.321 29.3868 187.974 29.3888C187.278 29.3929 184.144 36.7264 184.144 36.7264L184.35 36.7121L183.068 38.438C182.472 40.0987 181.902 41.957 181.902 41.957C181.902 41.957 184.516 39.357 187.257 36.5247L201.474 35.6016L203.285 29.018L191.667 31.8279C191.856 31.616 192.039 31.4081 192.204 31.2166C192.82 30.5014 193.612 29.4113 194.474 28.1357L203.944 24.9162L204.671 21.7742L196.733 24.6717C199.517 20.2602 202.245 15.5288 202.245 15.5288C202.245 15.5288 199.376 10.0007 202.982 7.89585H202.984Z" fill="white"/>
</g>
<g opacity="0.4">
<path d="M176.872 25.1441L166.454 33.3863C166.755 32.1352 167.083 30.6579 167.419 29.0645L175.759 21.1442L175.106 17.9858L168.298 24.7447C169.639 17.939 170.866 10.8949 170.866 10.8949C170.866 10.8949 169.026 6.99891 170.866 5.89451C172.278 5.04685 174.705 5.49921 175.761 5.75595C175.252 4.23587 173.185 3.40859 171.307 3.3821C169.643 3.3495 167.795 3.95672 167.429 5.34639C166.532 8.75943 168.518 11.1496 168.538 11.174C168.76 11.4348 168.845 11.7874 168.77 12.1215L164.733 29.7267C164.035 30.825 163.374 31.7786 163.121 31.8968C162.491 32.1923 162.71 40.1655 162.71 40.1655L162.922 40.0514L163.034 40.8502C163.034 40.8502 163.451 40.5343 164.151 39.3831L177.981 31.8825L176.876 25.1441H176.872Z" fill="white"/>
</g>
<path d="M195.581 33.1787C195.581 33.1787 181.615 49.0519 180.956 49.8282C180.296 50.6046 180.406 65.8257 180.406 65.8257L192.82 55.2687L195.581 33.1807V33.1787Z" fill="#FF2E2E"/>
<path d="M209.761 97.562C209.24 97.562 208.715 97.3847 208.286 97.022C190.104 81.6664 140.057 67.786 139.555 67.6474C138.598 67.3846 137.921 66.5369 137.872 65.5466C137.693 61.8667 142.106 57.5856 143.464 56.361C143.964 55.9086 144.642 55.7008 145.307 55.7925L145.333 55.7965L139.781 20.847C138.778 19.8343 137.249 17.7274 136.572 13.8925C135.982 10.5427 138.598 7.55751 142.932 6.63446C147.354 5.69104 151.023 7.3293 151.845 10.6221C152.74 14.2124 151.812 17.1059 151.021 18.7319L160.275 34.0387L165.251 12.3317C164.405 10.887 163.223 8.04655 164.157 4.48883C164.877 1.75228 167.63 0.00195312 171.193 0.00195312C171.244 0.00195312 171.295 0.00195312 171.346 0.00195312C174.623 0.0467811 178.296 1.6667 179.116 5.18163C180.013 9.03276 178.166 11.9181 176.876 13.3852L181.668 34.654L196.358 14.891C195.482 12.9593 195.042 10.2492 195.634 7.80407C196.175 5.56674 197.547 3.8918 199.496 3.08897C202.231 1.9642 206.227 1.44053 209.249 3.34572C210.728 4.27692 212.535 6.16173 212.746 9.85189C213.047 15.1008 209.607 17.9984 206.846 19.2128L204.475 42.9126L221.671 30.7886C221.583 28.971 222.248 26.9497 223.565 25.2401C225.276 23.015 227.634 21.9269 230.033 22.2407C232.91 22.6218 235.735 24.3843 237.405 26.8438C238.793 28.8855 239.247 31.2471 238.685 33.4946C237.645 37.6555 232.994 38.8434 229.573 38.9147L218.592 58.2499C222.885 57.1638 230.558 55.0141 237.859 52.8827C238.376 51.3137 239.586 49.3739 242.036 47.9435C244.962 46.2339 249.001 47.3954 251.484 49.4249C254.066 51.5358 255.052 54.4374 254.123 57.1882C252.558 61.8178 246.763 62.3985 242.905 61.9563L214.852 84.6637C215.67 85.9271 216.464 87.494 216.464 88.8124C216.464 89.4114 216.464 91.2372 211.46 96.804C211.009 97.3073 210.384 97.564 209.757 97.564L209.761 97.562ZM143.038 63.8656C152.929 66.7162 191.64 78.4306 209.466 92.0889C210.624 90.6687 211.58 89.3238 211.859 88.6962C211.674 88.1481 210.799 86.7401 209.951 85.6948C209.566 85.2221 209.385 84.6149 209.448 84.0097C209.511 83.4025 209.812 82.8462 210.286 82.4631L240.811 57.7547C241.328 57.335 242 57.1618 242.657 57.282C244.608 57.6243 249.115 57.7099 249.789 55.715C250.196 54.5128 249.213 53.4838 248.592 52.9764C247.101 51.7559 245.158 51.4319 244.352 51.9047C242.284 53.113 242.134 54.5964 242.122 54.7614C242.122 55.7802 241.452 56.6096 240.478 56.8969C240.417 56.9152 234.294 58.7104 228.227 60.4057C224.651 61.4041 221.789 62.1743 219.721 62.6939C215.656 63.7168 213.802 64.1814 213.058 61.9502C212.789 61.1433 212.693 60.4464 212.677 60.316C212.616 59.825 212.716 59.3257 212.96 58.8958L226.277 35.4507C226.717 34.6764 227.581 34.2302 228.446 34.2974C230.086 34.4197 233.816 34.1018 234.247 32.378C234.496 31.3877 234.286 30.3933 233.623 29.4193C232.695 28.0521 231.014 26.9945 229.439 26.7867C228.373 26.6441 227.453 27.7077 227.199 28.0378C226.318 29.183 226.123 30.4585 226.32 30.9414C226.727 31.9317 226.393 33.0728 225.518 33.6882L203.018 49.5512C202.286 50.0667 201.317 50.1095 200.544 49.6571C199.771 49.2048 199.331 48.3408 199.421 47.4483L202.434 17.3015C202.532 16.3255 203.236 15.5206 204.188 15.2965C204.605 15.1905 208.404 14.1126 208.174 10.1147C208.054 8.01191 207.118 7.42303 206.811 7.22742C205.553 6.43478 203.313 6.47757 201.24 7.33134C200.869 7.48416 200.349 7.81018 200.088 8.88198C199.655 10.6751 200.345 12.9532 200.851 13.5482C201.543 14.3632 201.582 15.5471 200.945 16.4049L182.37 41.3945C181.837 42.1138 180.929 42.4561 180.058 42.2687C179.183 42.0832 178.496 41.4027 178.298 40.5285L172.131 13.1529C171.936 12.2869 172.257 11.3862 172.957 10.8401C173.036 10.7749 175.285 8.9105 174.658 6.22082C174.448 5.32834 172.967 4.60905 171.284 4.58664C169.927 4.56015 168.751 5.03492 168.588 5.65232C167.862 8.41943 169.435 10.3735 169.451 10.3919C169.919 10.9441 170.1 11.6858 169.937 12.3908L163.628 39.907C163.39 40.9483 162.464 41.6879 161.396 41.6879H160.836C160.034 41.6879 159.292 41.2682 158.877 40.5815L146.4 19.9443C145.909 19.1333 145.968 18.1043 146.546 17.3545C146.599 17.2811 148.219 15.0234 147.397 11.7326C147.248 11.1336 145.677 10.7362 143.885 11.1193C142.418 11.4331 140.94 12.2991 141.081 13.0938C141.703 16.6311 143.134 17.7253 143.195 17.7702C143.757 18.1227 144.068 18.6524 144.172 19.3086L150.341 58.1256C150.455 58.8428 150.223 59.5702 149.716 60.0898C149.21 60.6074 148.489 60.858 147.769 60.7582L145.777 60.4851C144.654 61.612 143.641 62.8712 143.034 63.8636L143.038 63.8656Z" fill="#080C0F"/>
<path d="M154.565 60.1709C172.29 61.3364 194.686 69.1956 207.344 81.9655C190.468 74.2102 171.504 67.7407 154.565 60.1709Z" fill="#080C0F"/>
<g opacity="0.4">
<path d="M183.676 61.2069C183.676 61.0398 184.84 51.4385 184.84 51.4385C184.84 51.4385 192.653 41.56 192.987 41.3379C193.319 41.1158 192.987 37.4521 192.987 37.4521L181.515 49.7737L181.904 63.538L183.678 61.2069H183.676Z" fill="white"/>
</g>
<path d="M180.406 68.1201C180.083 68.1201 179.757 68.0529 179.452 67.9123C178.644 67.5414 178.123 66.7345 178.115 65.8441C177.999 49.7732 178.614 49.0478 179.208 48.3469C179.875 47.5624 193.292 32.3127 193.862 31.6647C194.527 30.9108 195.606 30.6765 196.521 31.0901C197.439 31.5038 197.978 32.4676 197.854 33.466L195.093 55.556C195.022 56.1266 194.739 56.6482 194.302 57.0191L181.888 67.5761C181.466 67.9347 180.937 68.1221 180.404 68.1221L180.406 68.1201ZM183.021 50.9469C182.836 52.2897 182.724 56.418 182.695 60.8702L190.659 54.0991L192.387 40.2839C188.442 44.7708 184.232 49.5613 183.021 50.9469Z" fill="#080C0F"/>
</g>
<g clip-path="url(#clip2_2388_4146)">
<path d="M195.894 114.732C198.552 116.911 197.427 118.316 197.427 118.316C191.675 110.337 179.204 109.635 164.756 109.635C160.881 109.635 157.142 109.685 153.639 109.914H95.3891C91.8863 109.685 88.1544 109.635 84.272 109.635C69.7811 109.635 57.2816 110.344 51.5511 118.402C51.5511 118.402 50.3764 116.911 53.0339 114.739C55.6771 112.559 60.025 108 79.924 108H168.997C188.889 108 193.244 112.559 195.901 114.732H195.894Z" fill="white"/>
<path d="M48.2349 129.091H46.7879C46.351 129.091 46 129.442 46 129.879V131.887C46 132.324 46.351 132.675 46.7879 132.675H48.2349C48.2062 132.087 48.1919 131.492 48.1919 130.897C48.1919 130.302 48.2062 129.679 48.2349 129.098V129.091Z" fill="#1F1F1F"/>
<path d="M202.212 129.091H200.787C200.815 129.672 200.83 130.274 200.83 130.891C200.83 131.507 200.815 132.081 200.787 132.668H202.212C202.649 132.668 203 132.317 203 131.88V129.873C203 129.435 202.649 129.084 202.212 129.084V129.091Z" fill="#1F1F1F"/>
<path d="M120.353 130.891C120.353 150.834 104.2 167 84.2722 167C64.3446 167 48.1919 150.834 48.1919 130.891C48.1919 110.947 64.3446 109.613 84.2722 109.613C104.2 109.613 120.353 110.947 120.353 130.891Z" fill="#B3BCC0"/>
<path d="M200.837 130.891C200.837 150.834 184.684 167 164.757 167C144.829 167 128.676 150.834 128.676 130.891C128.676 110.947 144.829 109.613 164.757 109.613C184.684 109.613 200.837 110.947 200.837 130.891Z" fill="#B3BCC0"/>
<path d="M128.676 131.163C127.795 131.78 126.355 132.533 124.514 132.533C122.673 132.533 121.226 131.78 120.345 131.163C120.324 133.909 119.994 136.583 119.393 139.15H119.4C119.4 139.15 121.391 136.992 124.514 136.992C127.637 136.992 129.629 139.157 129.629 139.157C129.629 139.157 129.629 139.15 129.636 139.142C129.034 136.576 128.705 133.902 128.683 131.156L128.676 131.163Z" fill="white"/>
<path d="M118.548 131.263C118.548 150.211 103.204 165.566 84.2723 165.566C65.3403 165.566 49.9971 150.203 49.9971 131.263C49.9971 112.323 65.3403 111.047 84.2723 111.047C103.204 111.047 118.548 112.316 118.548 131.263Z" fill="#1F1F1F"/>
<path d="M199.031 131.263C199.031 150.211 183.688 165.566 164.756 165.566C145.824 165.566 130.481 150.211 130.481 131.263C130.481 112.316 145.824 111.047 164.756 111.047C183.688 111.047 199.031 112.316 199.031 131.263Z" fill="#1F1F1F"/>
<path opacity="0.8" d="M89.5298 111.09L62.0093 157.336C63.1482 158.311 64.3516 159.207 65.6123 160.032L94.6084 111.298C92.9609 111.197 91.2704 111.133 89.5226 111.09H89.5298Z" fill="white"/>
<path opacity="0.8" d="M100.425 111.893L70.2686 162.569C71.6439 163.186 73.0693 163.717 74.5306 164.154L105.06 112.853C103.605 112.452 102.058 112.136 100.425 111.893Z" fill="white"/>
<path opacity="0.8" d="M170.014 111.09L142.501 157.336C143.64 158.311 144.843 159.207 146.104 160.032L175.1 111.298C173.453 111.197 171.762 111.133 170.014 111.09Z" fill="white"/>
<path opacity="0.8" d="M180.916 111.893L150.76 162.569C152.135 163.186 153.561 163.717 155.022 164.154L185.544 112.853C184.089 112.452 182.542 112.136 180.909 111.893H180.916Z" fill="white"/>
</g>
<g clip-path="url(#clip3_2388_4146)">
<path d="M148.89 195.48C148.75 190.87 146.8 184.78 142 183.24C137.62 181.83 133.01 187.1 129.65 190.23C128.95 189.35 128.05 188.81 126.95 188.94C125.86 188.81 124.95 189.35 124.25 190.23C120.9 187.09 116.28 181.82 111.9 183.24C107.1 184.78 105.15 190.87 105 195.48C104.88 199.4 106.33 205.07 110.68 206.32C113.02 206.99 115.49 206.68 117.71 205.71C119.93 204.74 123.26 202.98 124.91 200.91C125.51 201.43 126.2 201.72 126.94 201.68C127.68 201.73 128.37 201.43 128.97 200.91C130.62 202.98 133.95 204.74 136.17 205.71C138.39 206.68 140.86 206.99 143.19 206.32C147.54 205.07 149 199.41 148.87 195.48H148.89Z" fill="#404041"/>
<path d="M129.34 198.49C129.3 198.54 129.2 198.51 129.21 198.44C129.45 197.08 129.8 195.93 129.72 194.51C129.67 193.61 129.6 192.74 129.68 191.83C129.68 191.78 129.77 191.78 129.77 191.83C130 193.76 130.69 196.83 129.34 198.48V198.49ZM141.54 189.8C139.59 190.07 137.69 190.12 135.85 190.87C134.13 191.58 132.62 192.92 131.53 194.41C131.51 194.43 131.55 194.46 131.57 194.44C132.78 193.02 134.27 191.91 135.93 191.06C137.63 190.18 139.71 190.25 141.57 189.99C141.69 189.97 141.67 189.79 141.55 189.8H141.54ZM143.05 197.93C138.86 198.75 135.61 198.62 131.95 196.16C131.92 196.14 131.87 196.18 131.9 196.21C134.46 198.91 139.81 200.08 143.11 198.08C143.18 198.04 143.13 197.92 143.05 197.93ZM117.86 193.99C117.8 194.03 117.85 194.13 117.91 194.12C119.68 193.87 121.34 194.05 123.12 194.25C123.14 194.25 123.14 194.23 123.12 194.23C121.67 193.95 119.21 193.08 117.85 193.99H117.86ZM119.88 190.8C118.27 189.97 116.42 188.98 114.56 189.05C114.45 189.05 114.46 189.22 114.56 189.24C117.34 189.7 121.48 191.22 123.1 193.7C123.12 193.73 123.18 193.7 123.16 193.66C122.43 192.33 121.2 191.49 119.88 190.8ZM123.15 195.57C122.01 196.51 120.89 197.49 119.68 198.34C117.93 199.56 115.68 199.33 113.68 199.65C113.61 199.66 113.62 199.77 113.7 199.77C115.39 199.65 117.07 199.64 118.7 199.13C120.47 198.57 121.9 196.87 123.23 195.66C123.29 195.61 123.22 195.52 123.16 195.57H123.15ZM139.7 194.25C137.54 192.94 134.66 194.7 132.49 195.14C132.44 195.14 132.45 195.22 132.49 195.21C134.89 194.83 137.2 193.47 139.63 194.35C139.69 194.37 139.74 194.28 139.69 194.25H139.7ZM127.55 199.39C125.71 198.76 125.65 195.99 125.6 194.36C125.6 194.33 125.55 194.34 125.55 194.36C125.51 195.95 125.45 199.11 127.51 199.53C127.59 199.55 127.62 199.42 127.55 199.39Z" fill="#EDEDED"/>
</g>
<defs>
<clipPath id="clip0_2388_4146">
<rect width="238.192" height="204.696" fill="white" transform="translate(0 61.2598)"/>
</clipPath>
<clipPath id="clip1_2388_4146">
<rect width="117.982" height="97.5621" fill="white" transform="translate(136.491)"/>
</clipPath>
<clipPath id="clip2_2388_4146">
<rect width="157" height="59" fill="white" transform="translate(46 108)"/>
</clipPath>
<clipPath id="clip3_2388_4146">
<rect width="43.9" height="23.68" fill="white" transform="translate(105 183)"/>
</clipPath>
</defs>
</svg>
