<svg width="23" height="21" viewBox="0 0 23 21" fill="none" xmlns="http://www.w3.org/2000/svg">
<path fill-rule="evenodd" clip-rule="evenodd" d="M11.4999 0.34375C10.9276 0.34375 10.3684 0.515193 9.89439 0.835973C9.4204 1.15675 9.05337 1.61216 8.84062 2.14349C8.62786 2.67481 8.57915 3.25768 8.70075 3.81695C8.82235 4.37621 9.10869 4.88624 9.52285 5.28125L9.31451 5.65208L7.44264 9.00937C7.323 9.23484 7.19336 9.45485 7.0541 9.66875C7.03484 9.69667 7.01397 9.72346 6.9916 9.74896C6.96268 9.73044 6.93485 9.71027 6.90826 9.68854C6.71545 9.52083 6.5302 9.34461 6.35306 9.16042L6.26972 9.07812C5.97438 8.77748 5.67151 8.48433 5.36139 8.19896C5.52503 7.76278 5.55497 7.28774 5.4474 6.83447C5.33983 6.3812 5.09961 5.97027 4.75743 5.65414C4.41524 5.33802 3.98661 5.13104 3.52626 5.05963C3.0659 4.98822 2.59471 5.05562 2.17284 5.25322C1.75096 5.45083 1.39755 5.76967 1.15771 6.16905C0.917872 6.56843 0.802495 7.03023 0.826307 7.49548C0.850119 7.96073 1.01204 8.40833 1.2914 8.78114C1.57076 9.15394 1.95488 9.43504 2.39472 9.58854L2.40514 9.76875C2.43014 10.1073 2.47389 10.5125 2.52285 10.975L2.71556 12.7635L2.80618 13.6281C2.92285 14.7562 3.03535 15.8344 3.20201 16.7437C3.30618 17.3187 3.43951 17.8604 3.62285 18.3302C3.80514 18.7969 4.05722 19.2417 4.4291 19.575C5.08535 20.1625 5.87701 20.4187 6.82076 20.5396C7.73222 20.6562 8.88118 20.6562 10.3124 20.6562H12.6874C14.1187 20.6562 15.2676 20.6562 16.1791 20.5396C17.1239 20.4187 17.9145 20.1625 18.5708 19.575C18.9426 19.2417 19.1947 18.7969 19.377 18.3302C19.5603 17.8604 19.6937 17.3187 19.7989 16.7437C19.9656 15.8344 20.077 14.7562 20.1937 13.6292L20.2843 12.7646L20.477 10.976C20.526 10.5125 20.5708 10.1073 20.5937 9.76875L20.6051 9.58854C21.045 9.43504 21.4291 9.15394 21.7085 8.78114C21.9878 8.40833 22.1497 7.96073 22.1736 7.49548C22.1974 7.03023 22.082 6.56843 21.8421 6.16905C21.6023 5.76967 21.2489 5.45083 20.827 5.25322C20.4051 5.05562 19.934 4.98822 19.4736 5.05963C19.0132 5.13104 18.5846 5.33802 18.2424 5.65414C17.9002 5.97027 17.66 6.3812 17.5525 6.83447C17.4449 7.28774 17.4748 7.76278 17.6385 8.19896C17.3635 8.44583 17.0614 8.74687 16.7291 9.07812L16.6468 9.16042C16.3781 9.42917 16.2176 9.5875 16.0916 9.68854C16.065 9.71027 16.0372 9.73045 16.0083 9.74896C15.9859 9.72344 15.965 9.69666 15.9458 9.66875C15.8065 9.45486 15.6768 9.23485 15.5572 9.00937L13.6853 5.65208L13.477 5.28125C13.8912 4.88624 14.1775 4.37621 14.2991 3.81695C14.4207 3.25768 14.372 2.67481 14.1592 2.14349C13.9465 1.61216 13.5795 1.15675 13.1055 0.835973C12.6315 0.515193 12.0723 0.34375 11.4999 0.34375ZM10.1978 3.20833C10.1978 2.863 10.335 2.53181 10.5792 2.28762C10.8234 2.04343 11.1546 1.90625 11.4999 1.90625C11.8453 1.90625 12.1765 2.04343 12.4206 2.28762C12.6648 2.53181 12.802 2.863 12.802 3.20833C12.802 3.55367 12.6648 3.88486 12.4206 4.12905C12.1765 4.37323 11.8453 4.51042 11.4999 4.51042C11.1546 4.51042 10.8234 4.37323 10.5792 4.12905C10.335 3.88486 10.1978 3.55367 10.1978 3.20833ZM10.6718 6.42708C10.7551 6.27604 10.8333 6.1375 10.9051 6.01042C11.2973 6.09347 11.7025 6.09347 12.0947 6.01042C12.1676 6.1375 12.2437 6.27604 12.3281 6.42708L14.2103 9.80208C14.3718 10.0917 14.5208 10.3594 14.6666 10.5667C14.8218 10.7865 15.0322 11.0302 15.3562 11.1729C15.6353 11.2958 15.9437 11.3385 16.2458 11.2969C16.5958 11.2479 16.8656 11.0719 17.0749 10.9031C17.2708 10.7437 17.4885 10.5271 17.7249 10.2927L17.7499 10.2677C18.1406 9.87813 18.427 9.59583 18.6458 9.39583C18.7708 9.46875 18.902 9.53125 19.0406 9.58125L19.0353 9.65833C19.0145 9.96458 18.9728 10.3427 18.9208 10.8208L18.7312 12.5969L18.6353 13.5031C18.5624 14.201 18.4958 14.8521 18.4176 15.4479H4.58222C4.50081 14.8003 4.42789 14.1516 4.36347 13.5021C4.33431 13.2083 4.30201 12.9062 4.26972 12.5958L4.07806 10.8208C4.0311 10.4084 3.99151 9.99512 3.95931 9.58125C4.09785 9.53125 4.23014 9.46875 4.35514 9.39583C4.57389 9.59583 4.85931 9.87813 5.25097 10.2677L5.27493 10.2927C5.51139 10.5271 5.7291 10.7437 5.92493 10.9031C6.13431 11.0719 6.4041 11.2479 6.7541 11.2969C7.05618 11.3385 7.36451 11.2958 7.64368 11.1719C7.9666 11.0302 8.1791 10.7865 8.33326 10.5667C8.49787 10.3191 8.65014 10.0636 8.78951 9.80104L10.6718 6.42708ZM4.85201 17.0104C4.91972 17.2979 4.99472 17.5479 5.07806 17.7604C5.21347 18.1042 5.34993 18.3021 5.47076 18.4104C5.80097 18.7052 6.24056 18.8896 7.01972 18.9896C7.81972 19.0927 8.86868 19.0938 10.3666 19.0938H12.6333C14.1312 19.0938 15.1801 19.0927 15.9801 18.9896C16.7593 18.8906 17.1989 18.7052 17.5291 18.4104C17.6499 18.3021 17.7874 18.1042 17.9218 17.7615C18.0051 17.5479 18.0801 17.2979 18.1478 17.0104H4.85201ZM2.38535 7.375C2.38536 7.22088 2.43095 7.07022 2.51639 6.94195C2.60183 6.81369 2.72329 6.71356 2.8655 6.65416C3.00771 6.59476 3.16431 6.57875 3.3156 6.60815C3.46688 6.63754 3.6061 6.71102 3.71572 6.81934C3.82534 6.92767 3.90048 7.06599 3.93168 7.21692C3.96287 7.36784 3.94873 7.52462 3.89103 7.66753C3.83334 7.81044 3.73466 7.93309 3.60743 8.02005C3.48019 8.10701 3.33008 8.1544 3.17597 8.15625H3.1666C2.9594 8.15625 2.76068 8.07394 2.61417 7.92743C2.46766 7.78091 2.38535 7.5822 2.38535 7.375ZM19.052 7.375C19.052 7.22048 19.0978 7.06944 19.1837 6.94096C19.2695 6.81248 19.3915 6.71235 19.5343 6.65322C19.677 6.59409 19.8341 6.57862 19.9857 6.60876C20.1372 6.63891 20.2764 6.71331 20.3857 6.82257C20.4949 6.93183 20.5694 7.07104 20.5995 7.22259C20.6296 7.37413 20.6142 7.53122 20.555 7.67397C20.4959 7.81673 20.3958 7.93874 20.2673 8.02459C20.1388 8.11043 19.9878 8.15625 19.8333 8.15625H19.8239C19.6181 8.1546 19.4213 8.07146 19.2766 7.92504C19.1319 7.77861 19.0512 7.58083 19.052 7.375Z" fill="#080C0F"/>
</svg>
