<svg width="265" height="431" viewBox="0 0 265 431" fill="none" xmlns="http://www.w3.org/2000/svg">
<g clip-path="url(#clip0_2765_4131)">
<path d="M127.855 399.426C113.479 399.426 101.83 394.249 93.2334 384.036C87.0612 376.704 82.6177 366.988 80.024 355.156C78.9121 350.081 80.138 344.846 83.3878 340.795C86.6419 336.74 91.4873 334.413 96.6804 334.413H159.03C164.224 334.413 169.069 336.738 172.323 340.795C175.573 344.846 176.799 350.081 175.687 355.156C173.093 366.987 168.65 376.704 162.477 384.036C153.881 394.249 142.232 399.426 127.855 399.426Z" fill="#FFEE00"/>
<path d="M159.03 336.831C168.375 336.831 175.336 345.488 173.33 354.636C169.44 372.381 158.519 397.008 127.855 397.008C97.1917 397.008 86.2706 372.381 82.3808 354.636C80.376 345.488 87.3358 336.831 96.6817 336.831H159.03ZM159.03 331.995H96.6817C90.7536 331.995 85.2243 334.65 81.5084 339.28C77.7984 343.905 76.3986 349.879 77.6684 355.673C80.3468 367.892 84.9628 377.96 91.3906 385.594C95.6179 390.617 100.628 394.537 106.28 397.245C112.648 400.296 119.906 401.844 127.857 401.844C135.807 401.844 143.065 400.298 149.433 397.245C155.085 394.537 160.095 390.617 164.323 385.594C170.749 377.96 175.367 367.892 178.044 355.673C179.313 349.879 177.914 343.903 174.204 339.28C170.489 334.65 164.958 331.995 159.032 331.995H159.03Z" fill="#040B11"/>
<path d="M140.258 345.009H113.327C107.563 345.009 102.891 349.692 102.891 355.469V371.153C102.891 376.93 107.563 381.613 113.327 381.613H140.258C146.022 381.613 150.694 376.93 150.694 371.153V355.469C150.694 349.692 146.022 345.009 140.258 345.009Z" fill="#040B11"/>
<path d="M121.581 360.651H116.812V350.23H121.465C123.514 350.23 124.774 351.287 124.774 352.925V352.954C124.774 354.13 124.172 354.785 123.456 355.202C124.616 355.664 125.332 356.364 125.332 357.762V357.792C125.332 359.697 123.843 360.651 121.579 360.651H121.581ZM122.583 353.311C122.583 352.626 122.068 352.239 121.137 352.239H118.96V354.442H120.994C121.967 354.442 122.583 354.114 122.583 353.341V353.311ZM123.142 357.48C123.142 356.78 122.64 356.349 121.509 356.349H118.96V358.641H121.581C122.554 358.641 123.142 358.284 123.142 357.51V357.481V357.48Z" fill="#FFF3D4"/>
<path d="M127.341 363.069V347.812H139.728V354.687H139.084V356.192H139.8V363.069H127.341Z" fill="#FFEE00"/>
<path d="M137.315 350.23V352.269H131.944V354.382H136.67V356.422H131.944V358.611H137.387V360.649H129.754V350.229H137.315M142.14 345.393H124.929V365.485H142.212V353.774H142.14V345.393Z" fill="#040B11"/>
<path d="M121.42 378.812C117.148 378.812 113.926 375.55 113.926 371.225C113.926 366.9 117.212 363.582 121.407 363.582C123.584 363.582 125.247 364.192 126.801 365.563L128.526 367.086L127.784 368.016H127.964V375.893L127.144 376.615C125.513 378.052 123.535 378.81 121.422 378.81L121.42 378.812Z" fill="#FFEE00"/>
<path d="M121.406 366C123.146 366 124.195 366.487 125.203 367.378L123.863 369.058C123.118 368.412 122.455 368.038 121.335 368.038C119.788 368.038 118.559 369.459 118.559 371.168V371.198C118.559 373.036 119.775 374.384 121.487 374.384C122.26 374.384 122.952 374.184 123.489 373.781V372.346H121.349V370.436H125.548V374.8C124.553 375.676 123.187 376.394 121.419 376.394C118.407 376.394 116.337 374.197 116.337 371.225V371.196C116.337 368.339 118.477 365.998 121.406 365.998M121.406 361.162C115.857 361.162 111.512 365.569 111.512 371.196V371.225C111.512 376.928 115.771 381.23 121.419 381.23C124.126 381.23 126.656 380.263 128.734 378.434L130.375 376.99V368.642L131.845 366.799L128.395 363.752C126.397 361.987 124.176 361.165 121.407 361.165L121.406 361.162Z" fill="#040B11"/>
<path d="M134.224 376.394C131.24 376.394 129.099 374.083 129.099 371.225V371.196C129.099 368.338 131.268 365.998 134.251 365.998C137.235 365.998 139.376 368.309 139.376 371.167V371.196C139.376 374.053 137.207 376.394 134.224 376.394ZM137.152 371.196C137.152 369.474 135.936 368.037 134.224 368.037C132.511 368.037 131.323 369.444 131.323 371.167V371.196C131.323 372.918 132.539 374.355 134.251 374.355C135.964 374.355 137.152 372.948 137.152 371.225V371.196Z" fill="#FFF3D4"/>
<path d="M138.321 333.605H116.812V346.312H138.321V333.605Z" fill="#040B11"/>
<path d="M97.8873 339.958C97.8873 339.958 89.5072 340.22 86.8741 346.311C84.241 352.402 91.778 368.037 91.778 368.037C91.778 368.037 84.9599 350.549 97.8873 339.958Z" fill="white"/>
<path d="M45.266 259.247L52.4033 224.022C57.9888 196.456 84.8524 178.62 112.355 184.219L197.565 201.564C225.068 207.162 242.862 234.088 237.276 261.655L230.139 296.881C224.553 324.447 197.69 342.283 170.187 336.684L84.977 319.339C57.4744 313.741 39.6803 286.815 45.2657 259.248L45.266 259.247Z" fill="#FFEE00"/>
<path d="M196.93 204.649C222.741 209.903 239.417 235.133 234.176 261.004L227.041 296.231C221.801 322.101 196.627 338.817 170.816 333.563L85.6056 316.222C59.7947 310.97 43.1179 285.738 48.3593 259.868L55.4944 224.641C60.7343 198.77 85.9081 182.055 111.719 187.309L196.93 204.649ZM198.186 198.442L112.976 181.102C98.8384 178.225 84.4293 181.039 72.4021 189.024C60.3748 197.009 52.1716 209.212 49.3003 223.382L42.1652 258.608C39.2953 272.778 42.1009 287.22 50.0689 299.275C58.0354 311.331 70.2103 319.553 84.3475 322.431L169.558 339.772C183.695 342.648 198.105 339.835 210.132 331.85C222.159 323.865 230.362 311.662 233.234 297.492L240.369 262.265C243.238 248.095 240.433 233.651 232.465 221.598C224.497 209.543 212.324 201.32 198.186 198.442Z" fill="#040B11"/>
<path d="M68.3891 250.521L64.6241 269.103C60.4218 289.843 73.7894 310.07 94.4815 314.282L163.407 328.313C184.099 332.525 204.28 319.126 208.482 298.386L212.247 279.805C216.45 259.065 203.082 238.837 182.39 234.625L113.464 220.595C92.7723 216.383 72.5914 229.781 68.3891 250.521Z" fill="#040B11"/>
<path d="M116.17 267.956C118.281 257.537 117.754 248.635 114.993 248.073C112.232 247.511 108.283 255.501 106.172 265.921C104.061 276.34 104.587 285.242 107.348 285.804C110.109 286.366 114.059 278.375 116.17 267.956Z" fill="#FFEE00"/>
<path d="M171.464 279.21C173.575 268.791 173.048 259.889 170.287 259.327C167.526 258.765 163.577 266.756 161.466 277.175C159.354 287.594 159.881 296.496 162.642 297.058C165.403 297.62 169.353 289.629 171.464 279.21Z" fill="#FFEE00"/>
<path d="M45.696 229.795L38.2583 266.503L74.8812 273.958L82.3189 237.25L45.696 229.795Z" fill="#040B11"/>
<path d="M199.971 261.194L192.533 297.902L229.156 305.357L236.594 268.649L199.971 261.194Z" fill="#040B11"/>
<path d="M38.2942 266.318C26.4175 263.902 18.7183 252.251 21.1293 240.348L22.5716 233.23C24.629 223.076 34.5433 216.493 44.6739 218.555L50.5231 219.745L40.9785 266.866L38.2942 266.32V266.318Z" fill="#FFF000"/>
<path d="M47.2955 221.888L38.8409 263.629C28.4283 261.51 21.7009 251.331 23.8153 240.894L25.2575 233.776C27.0168 225.091 35.467 219.48 44.132 221.244L47.2985 221.888M53.7556 217.601L48.3885 216.509L45.2221 215.864C33.6127 213.502 22.2489 221.046 19.8919 232.684L18.4497 239.801C15.7377 253.188 24.3968 266.29 37.7538 269.008L43.1208 270.101L44.2109 264.722L52.6655 222.981L53.7556 217.601Z" fill="#040B11"/>
<path d="M231.849 303.401L241.393 256.281L247.243 257.471C257.373 259.534 263.941 269.471 261.884 279.625L260.442 286.743C258.031 298.647 246.407 306.364 234.531 303.948L231.847 303.401H231.849Z" fill="#FFEE00"/>
<path d="M246.697 260.162C255.362 261.925 260.96 270.395 259.201 279.08L257.759 286.198C255.644 296.635 245.489 303.378 235.076 301.258L243.531 259.517L246.697 260.162ZM247.787 254.782L244.621 254.138L239.254 253.045L238.164 258.425L229.709 300.166L228.619 305.545L233.986 306.638C247.342 309.356 260.414 300.677 263.126 287.289L264.568 280.171C266.925 268.534 259.397 257.145 247.787 254.782Z" fill="#040B11"/>
<g style="mix-blend-mode:multiply" opacity="0.34">
<path d="M23.814 240.893C23.814 240.893 27.9317 249.233 34.4107 251.373L40.6574 220.536L52.5853 220.218L40.4894 269.833C40.4894 269.833 19.1396 263.97 21.476 252.432L23.814 240.894V240.893Z" fill="#724E05"/>
</g>
<g style="mix-blend-mode:multiply" opacity="0.34">
<path d="M243.532 259.518L246.697 260.162L239.683 294.788C239.683 294.788 253.236 297.943 259.519 276.06C265.803 254.178 261.04 291.822 261.04 291.822C261.04 291.822 241.098 309.49 232.073 305.57C223.049 301.653 243.534 259.516 243.534 259.516L243.532 259.518Z" fill="#724E05"/>
</g>
<g style="mix-blend-mode:darken">
<g style="mix-blend-mode:multiply" opacity="0.34">
<path d="M114.989 248.059C114.989 248.059 112.91 286.633 103.03 281.391C93.1526 276.15 103.036 301.647 111.687 296.081C120.339 290.516 126.445 251.039 114.988 248.059H114.989Z" fill="#724E05"/>
</g>
</g>
<g style="mix-blend-mode:darken">
<g style="mix-blend-mode:multiply" opacity="0.34">
<path d="M170.514 259.358C170.514 259.358 168.435 297.932 158.555 292.691C148.678 287.449 158.561 312.946 167.212 307.381C175.863 301.815 181.97 262.338 170.512 259.358H170.514Z" fill="#724E05"/>
</g>
</g>
<g style="mix-blend-mode:multiply" opacity="0.34">
<path d="M143.671 189.877C143.671 189.877 189.628 200.196 206.46 221.12C223.292 242.045 202.574 302.704 197.969 315.065C193.363 327.425 105.325 323.837 72.9224 313.643C72.9224 313.643 151.273 336.248 175.565 338.174C199.858 340.1 224.707 327.265 229.148 305.34C233.589 283.415 240.189 246.374 240.189 246.374C240.189 246.374 231.132 209.487 205.466 202.454C179.8 195.421 143.67 189.877 143.67 189.877H143.671Z" fill="#724E05"/>
</g>
<path d="M70.3987 215.056C68.315 216.907 65.2815 214.41 66.6828 211.999C69.4606 207.217 73.644 202.092 79.8279 198.539C94.7352 189.974 111.869 193.46 111.869 193.46L141.716 199.534C141.716 199.534 98.2553 190.307 70.4002 215.056H70.3987Z" fill="white"/>
<path d="M37.0408 224.051C37.0408 224.051 29.4001 225.157 27.7241 234.821C27.7241 234.821 30.5399 229.966 35.809 230.133L37.0408 224.051Z" fill="white"/>
<path d="M247.96 268.33C248.438 265.969 251.47 265.24 252.938 267.145C253.697 268.129 254.494 269.396 255.266 271.025C258.266 277.359 250.405 288.281 245.194 290.797C245.194 290.797 251.467 279.233 248.574 273.258C247.833 271.728 247.624 269.995 247.961 268.329L247.96 268.33Z" fill="white"/>
<path d="M82.9696 240.736C80.6419 240.263 79.6848 237.439 81.2585 235.655C83.6052 232.997 87.3547 229.574 92.694 227.04C102.766 222.261 115.809 226.219 115.809 226.219C115.809 226.219 95.1035 225.655 87.2568 238.876C86.3815 240.349 84.6456 241.077 82.9681 240.736H82.9696Z" fill="#FFF3D4"/>
<path d="M195.533 307.958C197.86 308.431 198.817 311.254 197.244 313.038C194.897 315.697 191.148 319.119 185.808 321.653C175.736 326.432 162.693 322.475 162.693 322.475C162.693 322.475 183.399 323.039 191.245 309.818C192.121 308.344 193.857 307.616 195.534 307.958H195.533Z" fill="#FFF3D4"/>
<path d="M100.861 327.084L86.1709 344.618L80.2618 351.674C58.4546 337.572 50.7014 320.164 51.1661 304.744C51.3867 297.278 53.5288 290.275 56.9364 284.337C67.9861 265.052 88.2356 255.604 96.8612 271.435C106.154 288.499 93.873 296.708 90.3398 301.994C85.3702 309.422 87.7885 322.855 100.859 327.084H100.861Z" fill="#FFEE00"/>
<g opacity="0.35">
<path d="M86.1724 344.618L80.2632 351.674C58.4561 337.572 50.7029 320.163 51.1675 304.744C54.6569 315.909 64.0613 337.301 86.1724 344.618Z" fill="#371A45"/>
</g>
<path d="M80.2619 353.889C79.8513 353.889 79.4363 353.774 79.0666 353.534C63.8729 343.71 53.9644 331.264 50.4122 317.543C47.3918 305.873 49.0284 293.688 55.0223 283.234C62.5841 270.043 74.3673 261.227 84.4029 261.227C84.4658 261.227 84.5257 261.227 84.5885 261.227C90.6628 261.292 95.5783 264.456 98.8017 270.373C107.215 285.817 99.2518 294.937 94.4926 300.385C93.5385 301.478 92.7143 302.421 92.1766 303.225C90.0082 306.467 89.5479 311.04 90.9755 315.162C92.5828 319.805 96.3338 323.289 101.539 324.972C102.7 325.347 103.337 326.594 102.963 327.759C102.589 328.922 101.344 329.562 100.183 329.185C93.6276 327.066 88.8757 322.6 86.8023 316.613C84.9304 311.206 85.5836 305.132 88.5075 300.759C89.203 299.719 90.1587 298.625 91.1684 297.468C95.6806 292.301 101.86 285.225 94.9251 272.494C92.4776 268.003 88.9853 265.701 84.5418 265.653C76.1281 265.557 65.584 273.696 58.8536 285.436C49.2549 302.183 49.4156 329.089 81.463 349.811C82.4873 350.473 82.7825 351.844 82.122 352.871C81.6997 353.527 80.9895 353.884 80.2633 353.884L80.2619 353.889Z" fill="#040B11"/>
<path d="M93.6113 332.056L98.7475 316.703C97.3579 322.119 95.5957 327.251 93.6113 332.056Z" fill="white"/>
<path d="M61.4663 277.604C61.4663 277.604 71.011 264.25 86.9674 265.033C98.2538 265.588 103.399 286.84 91.1918 298.258C85.4521 303.625 80.278 305.233 78.7496 316.76" fill="#FFEE00"/>
<path d="M78.7527 318.974C78.6562 318.974 78.5569 318.968 78.459 318.955C77.2491 318.794 76.4001 317.681 76.5608 316.468C77.8935 306.421 82.0185 303.045 86.386 299.47C87.46 298.591 88.5706 297.682 89.6855 296.639C96.4436 290.318 97.088 280.78 94.8289 274.593C93.2085 270.158 90.2305 267.41 86.8609 267.245C72.3379 266.534 63.35 278.772 63.2609 278.897C62.5463 279.886 61.1669 280.113 60.1792 279.399C59.1899 278.686 58.962 277.306 59.6721 276.315C60.0915 275.731 70.1213 261.978 87.0787 262.823C92.2806 263.078 96.7285 266.911 98.9788 273.072C101.815 280.839 100.973 292.138 92.7014 299.877C91.4798 301.021 90.3109 301.978 89.1813 302.9C85.0373 306.292 82.0433 308.743 80.9416 317.053C80.794 318.166 79.8457 318.974 78.7541 318.974H78.7527Z" fill="#040B11"/>
<g opacity="0.35">
<path d="M156.958 341.624L154.928 363.426C106.759 398.197 88.031 348.591 83.0263 339.052C81.9947 337.087 78.6164 331.243 76.5298 329.871C74.2707 328.381 72.0497 323.257 71.8013 319.532C71.8013 319.532 73.2055 306.062 77.7791 302.01C82.4681 297.859 93.1087 299.431 98.4202 302.514C105.764 306.775 110.944 316.833 119.709 325.656C130.472 336.482 153.618 332.498 156.959 341.624H156.958Z" fill="#371A45"/>
</g>
<path d="M159.667 337.058L155.117 362.369L154.93 363.426C109.527 379.51 89.9891 341.341 81.9159 330.931C80.557 329.177 76.5766 326.874 74.4886 325.502C72.2295 324.012 71.0869 320.885 70.8384 317.161V317.155C70.3519 309.954 73.2071 300.528 77.7792 296.476C82.4682 292.326 93.1088 293.897 98.4203 296.98C105.764 301.242 110.944 311.3 119.709 320.122C130.472 330.949 156.327 327.932 159.667 337.059V337.058Z" fill="#FFEE00"/>
<g opacity="0.35">
<path d="M155.117 362.369L154.93 363.426C109.527 379.51 89.989 341.342 81.9158 330.931C80.5569 329.177 76.5766 326.874 74.4885 325.502C72.2295 324.013 71.0868 320.886 70.8384 317.161C72.1023 318.916 73.7491 320.432 75.7364 320.626C80.7556 321.114 87.7695 320.919 89.7684 323.554C91.7674 326.195 95.4335 339.417 108.434 350.582C121.554 361.846 144.091 365.509 155.118 362.372L155.117 362.369Z" fill="#371A45"/>
</g>
<path d="M158.812 337.374C157.889 335.6 155.957 334.61 153.923 333.835C151.851 333.09 149.618 332.568 147.352 332.09C142.815 331.124 138.132 330.298 133.463 329.049C131.129 328.422 128.794 327.687 126.506 326.722C124.221 325.758 121.979 324.526 119.951 322.905C119.429 322.521 118.969 322.047 118.483 321.612C118.027 321.171 117.629 320.74 117.2 320.304C116.355 319.434 115.547 318.535 114.748 317.631C113.148 315.825 111.644 313.959 110.16 312.104C107.186 308.41 104.395 304.611 101.151 301.575C99.5263 300.063 97.805 298.785 95.8849 297.982C93.9401 297.119 91.7701 296.572 89.6105 296.257C87.4479 295.942 85.24 295.902 83.2162 296.276C82.1977 296.443 81.2509 296.756 80.4267 297.171L79.8262 297.497C79.6567 297.632 79.4857 297.764 79.3118 297.891C78.9655 298.152 78.6031 298.527 78.2729 298.894C76.9374 300.41 75.8575 302.336 75.0363 304.372C74.202 306.409 73.6058 308.574 73.2171 310.762C72.8445 312.95 72.6765 315.182 72.8489 317.325C73.0096 319.444 73.5357 321.566 74.595 322.923C74.7236 323.091 74.8551 323.255 75.0056 323.385C75.1415 323.539 75.2993 323.651 75.4513 323.766L75.5638 323.857L75.7406 323.973L76.1001 324.206L76.8365 324.677C77.8331 325.311 78.8486 325.957 79.8627 326.66C80.8797 327.379 81.885 328.082 82.9166 329.135C83.5041 329.758 83.7919 330.225 84.1748 330.72L85.2254 332.195C87.9359 336.119 90.5515 339.956 93.4666 343.575C94.9132 345.388 96.4416 347.122 98.0125 348.811C99.6125 350.467 101.251 352.087 102.997 353.572C103.856 354.332 104.766 355.027 105.658 355.743C106.588 356.402 107.481 357.124 108.45 357.726L109.876 358.67L111.347 359.538C112.316 360.141 113.348 360.62 114.356 361.149C118.439 363.152 122.819 364.517 127.321 365.217C131.821 365.951 136.445 365.995 141.023 365.465C145.612 364.97 150.15 363.909 154.623 362.562L154.636 362.558C155.12 362.413 155.628 362.686 155.774 363.171C155.912 363.631 155.669 364.116 155.231 364.289C150.783 366.027 146.146 367.363 141.38 368.133C136.613 368.876 131.714 369.03 126.866 368.433C122.032 367.796 117.245 366.475 112.828 364.358C108.408 362.257 104.28 359.56 100.599 356.384C98.7372 354.819 97.0013 353.123 95.3107 351.39C93.6522 349.63 92.0463 347.824 90.534 345.952C87.4946 342.225 84.7592 338.258 82.075 334.421L81.0609 333.015C80.7219 332.576 80.3551 332.05 80.1199 331.824C79.4989 331.186 78.571 330.505 77.6548 329.875C76.724 329.236 75.7435 328.621 74.7455 327.993L73.9872 327.514L73.6029 327.267L73.4085 327.141L73.1689 326.965C72.846 326.731 72.5303 326.487 72.2644 326.206C71.9736 325.94 71.7281 325.65 71.4958 325.351C70.5606 324.156 69.9864 322.838 69.5948 321.541C69.2061 320.239 68.9971 318.939 68.8875 317.653C68.6683 315.078 68.8539 312.555 69.2587 310.082C69.6824 307.613 70.3341 305.188 71.2766 302.842C72.2162 300.498 73.4348 298.212 75.2102 296.163C75.6661 295.652 76.1249 295.166 76.7123 294.707L77.6124 294.035L78.5637 293.509C79.8466 292.866 81.1763 292.458 82.4841 292.241C85.1099 291.772 87.6817 291.853 90.1833 292.216C92.6863 292.592 95.1353 293.21 97.5113 294.263C99.9529 295.302 102.07 296.907 103.891 298.612C107.542 302.067 110.349 305.951 113.263 309.634C114.716 311.481 116.164 313.309 117.683 315.053C118.443 315.926 119.207 316.792 120.001 317.622C120.397 318.031 120.797 318.47 121.187 318.854C121.582 319.205 121.935 319.592 122.368 319.91C125.682 322.618 130.025 324.214 134.438 325.443C138.88 326.685 143.509 327.482 148.157 328.69C150.477 329.304 152.82 330.024 155.092 331.138C156.22 331.716 157.339 332.387 158.333 333.296C159.326 334.187 160.175 335.391 160.525 336.741C160.652 337.233 160.357 337.734 159.867 337.862C159.445 337.971 159.017 337.768 158.824 337.397L158.811 337.372L158.812 337.374Z" fill="#040B11"/>
<g style="mix-blend-mode:multiply" opacity="0.34">
<path d="M159.03 334.414C159.03 334.414 159.761 400.842 117.461 398.432C117.461 398.432 135.29 406.46 154.433 392.629C173.576 378.797 175.686 355.156 175.686 355.156L170.186 336.667L159.03 334.413V334.414Z" fill="#724E05"/>
</g>
<path d="M83.9482 262.787C82.6551 262.787 81.5124 261.854 81.2888 260.533C79.1116 247.723 75.9306 237.899 72.8532 228.397C66.5087 208.806 61.0291 191.886 70.2567 160.189C70.6746 158.754 72.1738 157.929 73.6058 158.348C75.0378 158.767 75.8604 160.269 75.4425 161.705C66.6811 191.799 71.6726 207.211 77.9909 226.724C80.9805 235.958 84.3705 246.424 86.6135 259.622C86.8634 261.097 85.8756 262.495 84.4041 262.746C84.2507 262.772 84.0973 262.785 83.9468 262.785L83.9482 262.787Z" fill="white"/>
<path d="M80.0471 332.83C79.6993 334.334 79.3092 335.689 78.8708 337.089C78.4354 338.477 77.9503 339.845 77.4228 341.2C76.8938 342.555 76.3239 343.895 75.7175 345.22C75.095 346.54 74.4346 347.845 73.7244 349.126C70.8838 354.233 67.2191 359.084 62.2977 362.728L61.3684 363.397C61.0528 363.614 60.7225 363.81 60.3996 364.015C59.7611 364.437 59.0699 364.786 58.3934 365.152C57.7197 365.505 56.9731 365.814 56.3141 366.12L54.508 366.934C52.1452 368.087 49.9344 369.491 48.0567 371.195C46.1688 372.879 44.6726 374.915 43.7695 377.119C43.3268 378.223 43.0784 379.373 43.0112 380.496C42.9469 381.643 43.1032 382.644 43.4948 383.77C44.2473 385.958 45.824 387.937 47.7294 389.744C49.6465 391.556 51.8749 393.208 54.1178 394.961C55.2401 395.84 56.371 396.745 57.4801 397.714C58.5789 398.697 59.6485 399.756 60.6378 400.923C61.6212 402.092 62.5359 403.368 63.2373 404.793C63.9489 406.207 64.4516 407.745 64.7014 409.311C64.9761 410.88 64.9265 412.457 64.773 413.983C64.6006 415.503 64.2514 417.007 63.7136 418.447C62.6426 421.334 60.7488 423.887 58.4182 425.753C56.0876 427.635 53.4019 428.913 50.646 429.741C47.8902 430.572 45.0422 431.003 42.2148 430.999C44.9969 430.52 47.6856 429.675 50.212 428.566C52.7253 427.435 55.0779 425.98 56.9599 424.108C58.8361 422.239 60.2579 419.995 60.9403 417.508C61.6299 415.042 61.8258 412.351 61.2895 409.95C61.0075 408.746 60.572 407.597 59.9788 406.512C59.3914 405.425 58.6111 404.421 57.7417 403.472C55.9955 401.572 53.8475 399.916 51.6221 398.252C49.3908 396.588 47.0339 394.943 44.7997 392.937C43.6862 391.928 42.6049 390.825 41.6376 389.567C40.6761 388.31 39.8096 386.894 39.2456 385.322C38.9738 384.534 38.7269 383.751 38.5881 382.865C38.4887 382.433 38.4887 382.006 38.4463 381.576C38.3981 381.144 38.4259 380.722 38.4376 380.297C38.5121 378.607 38.8642 376.965 39.4502 375.442C40.6381 372.405 42.5743 369.784 44.8537 367.69C47.1479 365.596 49.743 363.96 52.4345 362.64L54.4773 361.714C55.0925 361.424 55.6507 361.196 56.2249 360.896C56.7831 360.587 57.3559 360.306 57.8892 359.947C58.1581 359.772 58.4357 359.611 58.7031 359.433L59.4922 358.875C63.6932 355.839 67.0394 351.528 69.7704 346.872C71.1235 344.527 72.3319 342.079 73.4015 339.564C73.9348 338.306 74.4258 337.029 74.8949 335.744C75.3537 334.473 75.7979 333.13 76.1369 331.898L76.153 331.838C76.4481 330.766 77.5572 330.138 78.6268 330.435C79.6672 330.724 80.2882 331.787 80.0486 332.831" fill="white"/>
<path d="M73.4147 162.365C73.4147 162.365 84.9816 173.118 80.1859 176.323C77.0881 178.394 70.8371 176.359 70.8371 176.359C70.8371 176.359 64.5875 178.392 61.4882 176.323C56.6925 173.118 68.2595 162.365 68.2595 162.365" fill="#FFEE00"/>
<path d="M76.2654 180.002C74.0868 180.002 72.0294 179.545 70.837 179.217C68.616 179.826 63.3936 180.888 59.9714 178.603C58.5804 177.673 57.7416 176.247 57.6087 174.584C57.1908 169.354 64.2323 162.373 66.4008 160.356C67.5069 159.326 69.237 159.392 70.2628 160.501C70.5243 160.783 70.7158 161.107 70.837 161.45C70.9583 161.109 71.1483 160.785 71.4098 160.502C72.4371 159.392 74.1657 159.328 75.2733 160.356C77.4417 162.371 84.4819 169.354 84.0639 174.584C83.931 176.247 83.0922 177.673 81.7012 178.603C80.1172 179.662 78.146 180.002 76.2654 180.002ZM70.8385 173.621C71.1234 173.621 71.4084 173.665 71.6816 173.754C73.6776 174.395 77.2445 174.931 78.6253 174.072C78.7437 172.56 75.38 167.931 71.556 164.375C71.2199 164.063 70.9802 163.685 70.837 163.281C70.6953 163.685 70.4557 164.061 70.1196 164.373C66.3 167.932 62.9377 172.557 63.0488 174.067C64.472 174.924 68.0081 174.391 69.9983 173.751C70.2715 173.663 70.555 173.619 70.8385 173.619V173.621Z" fill="#040B11"/>
<path d="M76.1644 172.2C75.6121 172.604 75.1679 173.1 74.7222 173.606C74.2809 174.112 73.8528 174.638 73.4232 175.167C72.564 176.227 71.7092 177.308 70.7419 178.383L68.4521 175.012C69.6781 174.584 70.9391 174.052 72.2119 173.528C72.8504 173.266 73.4948 173.004 74.1509 172.762C74.804 172.525 75.4806 172.289 76.1644 172.2Z" fill="#040B11"/>
<path d="M70.8372 2.74023C101.226 2.74023 138.18 21.8562 138.931 72.8505C139.712 125.945 95.4104 164.184 70.8372 164.184C46.2639 164.184 1.96283 125.946 2.74458 72.8505C3.49419 21.8562 40.4483 2.74023 70.8372 2.74023Z" fill="#FFEE00"/>
<g style="mix-blend-mode:multiply" opacity="0.34">
<path d="M133.302 73.1318C133.602 97.1761 123.698 121.204 106.109 139.096C94.4938 150.911 80.6503 158.544 70.8368 158.544C61.0233 158.544 47.1783 150.911 35.5631 139.096C24.395 127.735 16.3247 113.902 12.0024 99.1606C15.6569 104.436 36.6093 131.049 69.5962 128.335C106.165 125.327 127.896 88.2055 133.302 73.1304" fill="#724E05"/>
</g>
<g clip-path="url(#clip1_2765_4131)">
<path d="M21.378 78.0766C21.6317 78.0927 21.8833 78.2132 22.0441 78.4088L43.0611 103.901C43.246 104.124 43.3138 104.422 43.2437 104.701C43.1745 104.981 42.9738 105.214 42.7087 105.324L40.6889 106.164C40.2021 107.858 39.7424 110.401 40.0931 111.797C46.032 110.247 82.7065 101 102.066 103.852C102.495 101.479 102.674 99.2664 102.455 98.7894C102.168 98.3009 100.54 97.4308 99.2062 96.9322C98.9777 96.8478 98.7933 96.676 98.693 96.4549C98.5928 96.2339 98.5833 95.9814 98.6685 95.7549L110.296 64.8792C110.389 64.6322 110.587 64.4365 110.835 64.3448C110.892 64.3234 116.63 62.1132 115.987 59.0227C115.632 57.3217 113.86 56.8677 113.115 56.7524C111.2 56.4551 109.19 57.1288 108.54 58.2832C107.235 60.6039 108.091 62.2041 108.128 62.2714C108.321 62.619 108.272 63.06 108 63.3504C92.74 79.5538 92.4914 79.3303 91.657 78.6006C91.1818 78.1844 90.8588 77.7704 90.8219 77.7245C90.7023 77.5684 90.6355 77.3773 90.6329 77.1804L90.3091 54.5365C90.3058 54.1832 90.5085 53.8561 90.8222 53.7041C90.8667 53.6819 95.5304 51.3209 94.7437 48.6502C94.3348 47.2665 93.2923 46.5238 92.4901 46.1424C90.9652 45.4204 89.0071 45.3629 87.5045 45.9951C86.2103 46.5429 85.8799 48.0403 85.8015 48.6598C85.6244 50.0634 86.0413 51.498 86.7943 52.069C87.1342 52.3263 87.25 52.7863 87.0744 53.173L77.5042 74.2289C77.3552 74.5562 77.0314 74.7618 76.6738 74.765C76.3159 74.7642 75.9902 74.5582 75.8406 74.233L65.1826 51.1163C65.0195 50.7614 65.0994 50.3435 65.3821 50.0747C65.5125 49.9487 68.5946 46.9008 66.2111 43.3319C65.3657 42.0669 64.345 41.4087 63.1792 41.3713C61.2524 41.3094 59.3686 42.8635 58.3402 44.2141C57.8187 44.9007 57.705 45.7472 58.0024 46.7319C58.5423 48.5172 60.2466 50.1283 61.1839 50.4524C61.5866 50.5935 61.8387 50.9916 61.7923 51.4157L58.9581 77.4139C58.92 77.7676 58.6764 78.0691 58.3384 78.1798C57.9998 78.2928 57.6263 78.1981 57.3813 77.9368L41.2392 60.7318C40.9973 60.4726 40.9267 60.0993 41.0548 59.7702C41.1005 59.6521 42.173 56.7932 40.1139 54.6298C39.1324 53.5994 37.1684 53.8828 35.7341 54.6953C34.5121 55.3794 33.4299 56.6048 33.7562 57.767C34.5592 60.6206 37.019 61.5074 37.0442 61.5165C37.3163 61.6111 37.5285 61.8301 37.6162 62.1041L44.7624 84.7162C44.8906 85.1233 44.721 85.564 44.3547 85.7786L43.9486 86.0165C43.6724 86.1783 43.3319 86.1834 43.0506 86.0326L25.2015 76.3903C24.8691 76.21 24.6799 75.8446 24.7282 75.471C24.7421 75.3596 25.0316 72.6043 22.6697 70.1995C21.7144 69.2272 19.7816 69.9923 18.4494 71.2114C17.1727 72.3761 16.2288 74.1337 17.1691 75.2359C19.466 77.9287 21.3642 78.0768 21.3836 78.0793L21.378 78.0766ZM59.3004 99.2115C63.2083 98.1783 67.1735 97.3675 71.1665 96.7051C75.1706 96.1057 79.2042 95.6676 83.258 95.5273C87.3114 95.4269 91.3869 95.5933 95.3724 96.2888C91.3257 96.3535 87.3366 96.5869 83.3525 96.9504C79.3734 97.3764 75.4076 97.8858 71.455 98.5087C67.5006 99.1286 63.5611 99.8548 59.6188 100.597L47.7789 102.945C51.5254 101.425 55.3961 100.241 59.3019 99.2106L59.3004 99.2115Z" fill="#FFEE00"/>
<g opacity="0.25">
<path d="M89.3663 53.2849C89.3663 53.2849 85.358 84.96 75.0824 89.8189C64.806 94.6763 47.5292 96.9371 47.5292 96.9371C47.5292 96.9371 51.5819 100.167 52.9144 101.085C55.0236 100.397 57.1567 99.7767 59.3019 99.2106C63.2097 98.1774 67.175 97.3666 71.1679 96.7042C75.1721 96.1048 79.2056 95.6667 83.2595 95.5264C87.3129 95.4259 91.3884 95.5924 95.3739 96.2879C91.3272 96.3526 87.3381 96.586 83.3539 96.9495C82.1899 97.0738 81.0283 97.2224 79.8677 97.3626C63.4915 100.31 45.927 106.423 45.7845 106.643C45.674 106.813 45.2996 109.38 45.135 110.538C56.6894 107.752 82.716 102.134 99.2633 103.541C99.34 101.892 99.4359 98.7642 99.4729 97.0379C99.3844 97.0024 99.2943 96.9639 99.2061 96.9322C98.9777 96.8477 98.7933 96.676 98.693 96.4549C98.5928 96.2338 98.5833 95.9814 98.6684 95.7549L110.296 64.8792C110.389 64.6322 110.587 64.4365 110.835 64.3448C110.892 64.3234 116.63 62.1132 115.987 59.0227C115.765 57.9601 114.99 57.3844 114.258 57.0727C114.593 59.0933 109.614 64.328 109.614 64.328L92.8604 83.988L92.3298 78.8295C92.0124 78.9044 91.8503 78.7672 91.6585 78.5997C91.1833 78.1835 90.8603 77.7695 90.8234 77.7236C90.7037 77.5675 90.637 77.3764 90.6344 77.1795L90.3105 54.5356C90.3072 54.1823 90.5099 53.8552 90.8236 53.7032C90.8682 53.681 95.5319 51.32 94.7452 48.6493C94.4258 47.5663 93.7172 46.8781 93.0391 46.4478C92.8763 48.9087 89.3695 53.287 89.3695 53.287L89.3663 53.2849Z" fill="#021168"/>
</g>
<g opacity="0.4">
<path d="M41.8067 99.4184C40.2722 96.9854 22.5701 76.7471 22.5701 76.7471C22.5701 76.7471 19.7024 75.7104 20.2491 73.2369C20.6117 71.5917 21.966 70.7884 22.7948 70.3406C22.7508 70.2929 22.7116 70.2464 22.6653 70.1981C21.71 69.2257 19.7772 69.9909 18.445 71.2099C17.1682 72.3747 16.2243 74.1322 17.1646 75.2344C19.4616 77.9272 21.3598 78.0753 21.3791 78.0779C21.6329 78.094 21.8845 78.2145 22.0452 78.4101L43.0622 103.902C43.0739 103.915 43.0743 103.933 43.0845 103.947C43.6005 104.23 43.9944 104.443 43.9944 104.443C43.9049 104.291 43.3421 101.853 41.8082 99.4175L41.8067 99.4184Z" fill="white"/>
</g>
<path d="M69.8625 97.8403L79.6435 85.5177L71.2385 89.2728L65.5515 98.7485L60.6334 99.2086L64.5911 90.7023L59.4557 92.7881L55.6315 101.113L52.6737 101.564L54.4358 94.0203C54.4358 94.0203 48.6916 94.7203 47.776 95.2567C46.8604 95.7931 46.4655 97.5624 46.7297 98.5348C46.994 99.5072 47.2102 99.1761 47.5823 99.9841C47.9544 100.792 49.054 101.787 49.538 101.914C50.0234 102.041 69.8649 97.8409 69.8649 97.8409L69.8625 97.8403Z" fill="#FFEE00"/>
<g opacity="0.4">
<path d="M60.6465 44.492C62.0008 42.0852 64.6765 42.4883 65.7581 42.7675C65.0071 41.8858 64.1448 41.3988 63.1737 41.3683C61.2468 41.3065 59.3631 42.8605 58.3347 44.2112C57.8132 44.8977 57.6995 45.7442 57.9968 46.7289C58.5367 48.5142 60.2411 50.1254 61.1784 50.4494C61.5811 50.5906 61.8332 50.9886 61.7868 51.4127L60.4396 63.7695C59.8309 65.0132 59.1616 66.2924 58.9099 66.4418C58.4066 66.7407 59.2569 73.3847 59.2569 73.3847L59.4 73.287L59.205 75.0821C59.4799 76.5384 59.8582 78.1266 59.8582 78.1266C59.8582 78.1266 60.6481 75.1317 61.4305 71.9148L71.3557 65.2013L69.8649 59.6628L62.6296 66.6381C62.6766 66.4042 62.721 66.1758 62.759 65.967C62.9017 65.1868 63.0117 64.0607 63.0944 62.7699L68.5957 56.4115L67.7842 53.8269L63.2577 59.3006C63.3983 54.9218 63.3627 50.3347 63.3627 50.3347C63.3627 50.3347 58.925 47.5505 60.645 44.4929L60.6465 44.492Z" fill="white"/>
</g>
<g opacity="0.4">
<path d="M49.0439 68.088L44.9945 78.4876C44.6799 77.4534 44.2883 76.2441 43.853 74.9472L46.5317 65.6642L44.712 63.6543L42.6504 71.4446C40.7238 65.9451 38.6129 60.3213 38.6129 60.3213C38.6129 60.3213 35.6179 58.2816 36.4823 56.6996C37.1461 55.4852 39.1007 54.7807 39.9765 54.5176C38.9596 53.6329 37.1067 53.9127 35.7323 54.6921C34.5104 55.3762 33.4282 56.6016 33.7544 57.7638C34.5574 60.6174 37.0172 61.5042 37.0424 61.5133C37.3145 61.6079 37.5267 61.8269 37.6145 62.1009L42.1858 76.5689C42.1472 77.6611 42.0735 78.633 41.9408 78.8259C41.6088 79.3081 45.1656 84.9897 45.1656 84.9897L45.2706 84.8171L45.6922 85.3481C45.6922 85.3481 45.8603 84.9419 45.8778 83.8105L52.7199 72.4972L49.0468 68.0863L49.0439 68.088Z" fill="white"/>
</g>
<path d="M66.0469 65.9523C66.0469 65.9523 62.6734 83.3879 62.5257 84.2305C62.378 85.0731 68.9432 96.0511 68.9432 96.0511L73.4551 83.1262L66.0478 65.9538L66.0469 65.9523Z" fill="#FF2E2E"/>
<path d="M103.771 106.556C103.393 106.778 102.937 106.872 102.471 106.792C82.731 103.401 40.493 114.628 40.0692 114.741C39.2631 114.957 38.4102 114.631 37.9528 113.935C36.2548 111.346 37.6339 106.368 38.0972 104.904C38.2677 104.364 38.671 103.925 39.193 103.709L39.2139 103.7L20.2922 80.7474C19.1326 80.4404 17.1258 79.5641 15 77.0747C13.1444 74.8992 13.7717 71.6245 16.524 69.1131C19.3311 66.5497 22.6919 66.1764 24.6915 68.2119C26.8711 70.4317 27.4305 72.9219 27.5489 74.4362L40.7874 81.5881L35.1507 63.7495C33.9208 63.063 31.8525 61.5083 31.0144 58.5343C30.3712 56.246 31.6236 53.8076 34.2095 52.2927C34.2464 52.2711 34.2833 52.2495 34.3202 52.2278C36.7185 50.8665 40.0744 50.4782 42.1672 52.6754C44.4594 55.0832 44.3478 57.9586 44.0366 59.5697L56.5769 72.9373L58.8187 52.3763C57.3592 51.3501 55.8855 49.5741 55.2734 47.5513C54.7129 45.7007 54.9946 43.9044 56.0673 42.494C57.5729 40.5166 60.2502 38.4381 63.2551 38.5332C64.7255 38.5787 66.84 39.1756 68.5659 41.7584C71.021 45.4322 69.7583 48.9939 68.2717 51.0475L76.6493 69.2212L83.9641 53.1282C83.1261 51.849 82.7478 50.102 82.9749 48.304C83.2688 45.9647 84.5168 44.1739 86.3917 43.3811C88.6422 42.4337 91.4431 42.5095 93.7034 43.5805C95.5806 44.4693 96.9162 45.9869 97.4662 47.8536C98.4844 51.3094 95.6146 54.1476 93.1624 55.6536L93.4305 74.3274C96.0838 71.7153 100.737 66.8957 105.128 62.2477C104.834 60.8915 104.886 58.9717 106.055 56.894C107.45 54.4116 110.877 53.5355 113.543 53.9499C116.317 54.381 118.269 56.063 118.766 58.4508C119.603 62.4693 115.645 65.3539 112.656 66.674L101.971 95.0493C103.103 95.6165 104.346 96.414 104.908 97.3689C105.163 97.8028 105.941 99.1252 104.682 105.285C104.568 105.841 104.224 106.293 103.769 106.559L103.771 106.556ZM40.9861 110.521C49.3796 108.38 82.4673 100.405 101.225 102.717C101.46 101.196 101.582 99.8158 101.516 99.2427C101.149 98.9244 99.9136 98.2766 98.8523 97.8803C98.3718 97.7014 97.9816 97.3386 97.7696 96.8734C97.5566 96.4068 97.5382 95.8758 97.719 95.3968L109.346 64.5211C109.543 63.9973 109.956 63.5863 110.484 63.394C112.047 62.8122 115.354 60.9578 114.993 59.2266C114.776 58.1828 113.624 57.8554 112.958 57.7517C111.355 57.5019 109.807 58.0935 109.423 58.7785C108.438 60.5327 108.961 61.6711 109.022 61.7959C109.456 62.5338 109.324 63.4191 108.739 64.0416C108.702 64.0809 105.023 67.9844 101.342 71.7923C99.1724 74.0356 97.4227 75.8108 96.1437 77.0661C93.6288 79.5356 92.4814 80.6603 90.9902 79.3609C90.4515 78.8907 90.0851 78.4266 90.0177 78.339C89.7642 78.0093 89.6239 77.6053 89.6179 77.1901L89.294 54.5462C89.2831 53.7985 89.7206 53.1076 90.3769 52.7886C91.6193 52.1798 94.1909 50.3637 93.7695 48.9317C93.5277 48.1089 92.9519 47.4778 92.0555 47.0544C90.7995 46.4586 89.129 46.4073 87.8974 46.9264C87.0628 47.2764 86.8485 48.4379 86.8045 48.7851C86.653 49.9892 87.0547 50.9961 87.4037 51.262C88.121 51.8062 88.365 52.7746 87.9922 53.5923L78.4206 74.649C78.1086 75.3339 77.4238 75.7767 76.6699 75.7779C75.916 75.779 75.2289 75.3401 74.9136 74.6556L64.2556 51.5389C63.9106 50.7904 64.0786 49.9081 64.6743 49.3408C64.9319 49.0867 67.2298 46.6907 65.3595 43.8928C64.3764 42.4208 63.4462 42.3922 63.1398 42.3812C61.8894 42.3418 60.2817 43.3253 59.1406 44.8253C58.9369 45.0935 58.6977 45.5511 58.9654 46.4382C59.4149 47.9212 60.8861 49.2779 61.5074 49.4934C62.3568 49.7896 62.8893 50.6307 62.7926 51.5228L59.9584 77.521C59.878 78.2686 59.3652 78.9025 58.6532 79.137C57.9392 79.3747 57.15 79.1742 56.6343 78.625L40.4937 61.4191C39.9829 60.8749 39.8325 60.0859 40.1079 59.3927C40.1377 59.3117 40.9752 57.0053 39.3743 55.3236C38.8419 54.7663 37.4603 54.8752 36.2294 55.5745C35.2331 56.1324 34.5818 56.9763 34.7267 57.4927C35.3785 59.8058 37.3527 60.5524 37.3723 60.5587C37.9473 60.7597 38.3947 61.2199 38.577 61.7998L45.7217 84.4127C45.9925 85.2681 45.6357 86.1975 44.8604 86.6517L44.4543 86.8897C43.8724 87.2306 43.1545 87.2423 42.5607 86.9214L24.7116 77.2792C24.0102 76.9003 23.6146 76.1299 23.7145 75.341C23.7216 75.2654 23.9352 72.9415 21.9364 70.9075C21.5733 70.5368 20.2639 70.9169 19.1261 71.9566C18.195 72.8076 17.4918 74.063 17.9323 74.5789C19.8914 76.8762 21.3959 77.0606 21.4593 77.0671C22.0171 77.0836 22.4688 77.335 22.8236 77.7661L43.8407 103.258C44.229 103.729 44.3706 104.355 44.2243 104.946C44.0771 105.537 43.6611 106.024 43.0957 106.258L41.5336 106.908C41.1985 108.201 40.9996 109.544 40.9823 110.521L40.9861 110.521Z" fill="#080C0F"/>
<path d="M47.7783 102.943C61.1395 96.251 80.7435 92.4204 95.3718 96.2874C79.8187 97.846 63.2982 101.224 47.7783 102.943Z" fill="#080C0F"/>
<g opacity="0.4">
<path d="M69.3481 91.3151C69.277 91.1941 66.0307 83.7449 66.0307 83.7449C66.0307 83.7449 67.4926 73.2677 67.6402 72.9649C67.7862 72.663 65.9845 70.1505 65.9845 70.1505L62.9083 83.9529L69.0551 93.7571L69.3496 91.3143L69.3481 91.3151Z" fill="white"/>
</g>
<path d="M69.9207 97.7128C69.6859 97.8504 69.4209 97.9401 69.1395 97.9681C68.3952 98.0429 67.6733 97.68 67.288 97.0385C60.3563 85.4477 60.4932 84.661 60.6258 83.9006C60.7759 83.0487 64.0164 66.2983 64.1538 65.5868C64.3155 64.7578 64.9983 64.1295 65.8391 64.0398C66.6814 63.9492 67.4835 64.418 67.8188 65.1939L75.227 82.3678C75.4184 82.8113 75.4354 83.3094 75.2759 83.764L70.764 96.6889C70.6111 97.1278 70.307 97.4885 69.9201 97.7152L69.9207 97.7128ZM64.5012 84.1625C64.9389 85.2138 66.6167 88.2515 68.493 91.4884L71.3882 83.1978L66.7556 72.4569C65.8039 77.3843 64.7895 82.6441 64.5012 84.1625Z" fill="#080C0F"/>
</g>
<path d="M70.8371 166.926C58.7134 166.926 42.9147 158.516 29.6045 144.977C10.41 125.451 -0.376655 99.1473 0.0105668 72.811C0.361258 49.0083 8.62442 29.5643 23.9087 16.5822C36.3144 6.04439 53.4194 0 70.8371 0C88.2548 0 105.358 6.04439 117.765 16.5822C133.05 29.5643 141.313 49.0083 141.664 72.811C142.051 99.1473 131.264 125.451 112.068 144.977C98.7594 158.516 82.9608 166.926 70.8371 166.926ZM70.8371 5.48052C38.7985 5.48052 6.16228 26.3247 5.47843 72.8915C5.11167 97.7706 15.3256 122.642 33.5001 141.13C45.8182 153.661 60.1249 161.445 70.8371 161.445C81.5492 161.445 95.856 153.661 108.174 141.131C126.349 122.644 136.562 97.7721 136.197 72.8915C135.512 26.3247 102.877 5.48052 70.8371 5.48052Z" fill="#040B11"/>
<g opacity="0.7">
<path d="M20.6545 93.4498C16.4096 93.9815 12.647 88.2652 12.0669 75.8058C11.4883 63.3465 14.7029 45.8724 24.6596 37.6165C31.0232 32.3381 41.468 34.5511 41.5484 43.1102C41.6156 50.2428 35.0533 57.1527 31.5449 67.6788C27.4842 79.8613 25.5188 92.8406 20.6545 93.4513" fill="white"/>
</g>
<g opacity="0.7">
<path d="M45.1281 33.5395C41.4459 32.7471 33.5743 29.8136 36.3097 22.4437C39.669 13.3954 50.672 11.7448 55.8286 15.459C60.9838 19.1733 61.2541 24.5923 56.7156 29.3244C53.5856 32.589 49.6053 34.5017 45.1281 33.5395Z" fill="white"/>
</g>
</g>
<defs>
<clipPath id="clip0_2765_4131">
<rect width="265" height="431" fill="white"/>
</clipPath>
<clipPath id="clip1_2765_4131">
<rect width="99.2444" height="81.9847" fill="white" transform="matrix(0.862836 -0.505483 0.507043 0.861921 9.02148 67.0464)"/>
</clipPath>
</defs>
</svg>
