<svg viewBox="0 0 50 58" fill="none" xmlns="http://www.w3.org/2000/svg">
<g clip-path="url(#clip0_1849_1056)">
<g opacity="0.8">
<path d="M37.4164 21.469V7.29465L24.9997 0.192261L12.583 7.29465V21.469L24.9997 28.5714L37.4164 21.469Z" fill="#FFE000"/>
</g>
<g opacity="0.6">
<path d="M49.892 42.5517V28.2215L37.5186 21.1989L24.9414 28.5069L25.0195 42.772L37.3258 49.9145L49.892 42.5517Z" fill="#FFE000"/>
</g>
<g opacity="0.4">
<path d="M25.0197 42.7713L25.0734 28.7132L12.5987 21.2572L0.236314 28.2409L0.124023 42.7944L12.5987 49.8511L25.0197 42.7713Z" fill="#FFE000"/>
</g>
<path d="M25 0L0 14.3009V42.8419L25 57.1429L49.9164 42.89L50.0006 42.8419V14.3009L25 0ZM37.3666 35.2089L28.575 29.6492C28.4969 29.5999 28.3937 29.623 28.3443 29.7009C28.2949 29.7788 28.3181 29.8816 28.3962 29.9309L37.2074 35.5028L25.1672 42.2924V28.5848L35.963 22.3928L37.366 21.5926V35.2089H37.3666ZM21.0503 29.5847C20.9972 29.5098 20.8928 29.4916 20.8172 29.5445L12.8665 35.1486V21.668L24.8328 28.5483V42.2906L12.9745 35.4742C12.9818 35.4706 12.9897 35.4693 12.9965 35.4645L21.0106 29.8159C21.0857 29.763 21.104 29.6589 21.0509 29.5834L21.0503 29.5847ZM25.1166 24.4497C25.2087 24.4497 25.2838 24.3749 25.2838 24.283V14.6095L37.1152 21.3485L35.9081 22.0411L25.0006 28.2611L13.0502 21.3887L24.95 14.6107V24.2836C24.95 24.3755 25.025 24.4503 25.1172 24.4503L25.1166 24.4497ZM37.366 21.1088L25.1989 14.1786L25.1172 14.1318L12.8671 21.1094V7.36163L24.9396 0.418682L25 0.383995L37.366 7.45778V21.1088ZM49.6662 42.6496L25 56.7595L0.334432 42.649V14.4938L12.5326 7.51559V21.4763V35.6069L24.9359 42.7233L25.0189 42.7719L25.0744 42.7403L25.3198 42.5906L37.615 35.6556L37.6992 35.6069V21.4027V7.64887L49.665 14.4938V42.649L49.6662 42.6496Z" fill="#FFE000"/>
<path d="M26.6483 29.3894V27.5157L24.9999 26.5767L23.3516 27.5157V29.3894L24.9999 30.3284L26.6483 29.3894Z" fill="#FFE000"/>
</g>
<defs>
<clipPath id="clip0_1849_1056">
<rect width="50" height="57.1429" fill="white"/>
</clipPath>
</defs>
</svg>
