<svg xmlns="http://www.w3.org/2000/svg" xmlns:xlink="http://www.w3.org/1999/xlink" viewBox="0 0 1058 1209.13"><defs><style>.cls-1,.cls-2,.cls-5,.cls-7{fill:#fcbd0b;}.cls-1,.cls-4{stroke:#fcbd0b;}.cls-1,.cls-2,.cls-4,.cls-5,.cls-6{stroke-miterlimit:10;}.cls-1,.cls-2,.cls-4,.cls-5{stroke-width:8px;}.cls-1{opacity:0.78;}.cls-2,.cls-6{stroke:#f4bf16;}.cls-2{opacity:0.21;}.cls-3{opacity:0.32;fill:url(#Degradado_sin_nombre_16);}.cls-4,.cls-6{fill:none;}.cls-4{opacity:0.67;}.cls-5{opacity:0.55;stroke:url(#Degradado_sin_nombre_16-2);}.cls-6{stroke-width:5px;}.cls-7{opacity:0.83;}</style><linearGradient id="Degradado_sin_nombre_16" x1="268" y1="602.06" x2="793" y2="602.06" gradientUnits="userSpaceOnUse"><stop offset="0" stop-color="#f4bf16" stop-opacity="0.55"/><stop offset="1" stop-color="#f4bf16"/></linearGradient><linearGradient id="Degradado_sin_nombre_16-2" x1="527" y1="758.54" x2="1058" y2="758.54" xlink:href="#Degradado_sin_nombre_16"/></defs><g id="Capa_2" data-name="Capa 2"><g id="Capa_1-2" data-name="Capa 1"><polygon class="cls-1" points="789 460.11 789 160.74 527.5 10.73 266 160.74 266 460.11 527.5 610.12 789 460.11"/><polygon class="cls-2" points="530 899.7 530 601.98 267 452.79 4 601.98 4 899.7 267 1048.88 530 899.7"/><polygon class="cls-3" points="793 751.86 793 452.25 530.5 302.12 268 452.25 268 751.86 530.5 902 793 751.86"/><polygon class="cls-4" points="1051 904.22 1051 304.92 527.5 4.61 4 304.92 4 904.22 527.5 1204.52 1051 904.22"/><polygon class="cls-5" points="1054 907.59 1054 609.48 792.5 460.1 531 609.48 531 907.59 792.5 1056.97 1054 907.59"/><polygon class="cls-6" points="791.5 751.11 791.5 453 530 303.62 268.5 453 268.5 751.11 530 900.49 791.5 751.11"/><line class="cls-4" x1="529" y1="771.6" x2="530.07" y2="900.6"/><line class="cls-4" x1="530" y1="303.6" x2="530" y2="475.6"/><line class="cls-4" x1="444.64" y1="625.98" x2="270" y2="749.42"/><line class="cls-4" x1="598.36" y1="628.44" x2="790.35" y2="750.19"/><polygon class="cls-7" points="562 609.44 562 570.11 527.5 550.4 493 570.11 493 609.44 527.5 629.15 562 609.44"/></g></g></svg>