<svg width="130" height="96" viewBox="0 0 130 96" fill="none" xmlns="http://www.w3.org/2000/svg">
<path d="M123.5 0.333496H6.5C2.91561 0.333496 0 3.2491 0 6.8335V89.1669C0 92.7513 2.91561 95.6669 6.5 95.6669H123.5C127.084 95.6669 130 92.7513 130 89.1669V57.0351C130 57.0346 130 57.0343 130 57.0338V6.8335C130 3.2491 127.084 0.333496 123.5 0.333496ZM6.5 91.3335C5.30562 91.3335 4.33342 90.3613 4.33342 89.1669V62.2876L24.4862 42.1338C25.3007 41.3086 26.6888 41.298 27.5247 42.1445L48.9399 63.5399L21.1379 91.3335H6.5ZM125.667 89.1666C125.667 90.361 124.694 91.3332 123.5 91.3332H27.2665L91.6528 26.967C92.4673 26.1418 93.8564 26.1311 94.6903 26.9777L125.667 57.9334V89.1666H125.667ZM125.667 51.8061L97.7633 23.9224C95.3068 21.4362 91.0168 21.4468 88.5793 23.9117L52.0041 60.4765L30.597 39.0892C28.1404 36.603 23.8504 36.6126 21.4129 39.0798L4.33342 56.1601V6.8335C4.33342 5.63912 5.30562 4.66691 6.5 4.66691H123.5C124.694 4.66691 125.667 5.63912 125.667 6.8335V51.8061Z" fill="#1C232A"/>
</svg>
