<svg width="282" height="279" viewBox="0 0 282 279" fill="none" xmlns="http://www.w3.org/2000/svg">
<path d="M203.502 92.5148C203.502 92.5148 213.589 114.901 207.648 140.978C203.505 159.233 185.177 177.219 185.177 177.219L161.596 165.591C161.596 165.591 178.533 146.511 182.342 134.232C187.372 117.9 184.934 107.958 184.057 104.149" fill="#040B11"/>
<path d="M203.502 92.5148C203.502 92.5148 213.589 114.901 207.648 140.978C203.505 159.233 185.177 177.219 185.177 177.219L161.596 165.591C161.596 165.591 178.533 146.511 182.342 134.232C187.372 117.9 184.934 107.958 184.057 104.149" stroke="#040B11" stroke-width="10" stroke-miterlimit="10" stroke-linejoin="round"/>
<path d="M185.721 178.885C185.287 179.027 184.833 178.991 184.401 178.8L160.787 167.183C160.3 166.936 159.937 166.501 159.829 165.946C159.732 165.424 159.88 164.859 160.226 164.451C160.382 164.252 176.951 145.514 180.591 133.733C185.406 118.099 183.155 108.391 182.323 104.715L182.279 104.582C182.106 103.826 182.443 103.052 183.1 102.69L202.578 91.0447C202.701 90.9678 202.801 90.9351 202.934 90.8915C203.267 90.7825 203.667 90.7626 203.999 90.8754C204.486 91.0114 204.861 91.3685 205.08 91.8134C205.486 92.7142 214.858 113.932 209.741 139.481C209.604 140.079 209.49 140.744 209.331 141.386C206.736 152.752 198.974 163.888 192.897 171.262C189.244 175.666 186.511 178.368 186.4 178.479C186.232 178.644 185.987 178.798 185.721 178.885Z" fill="#040B11"/>
<path d="M203.502 92.5136C203.502 92.5136 213.095 113.844 208.035 139.115C207.909 139.747 207.773 140.345 207.647 140.977C205.098 152.143 197.28 163.223 191.572 170.144C187.953 174.538 185.187 177.251 185.187 177.251L161.595 165.59C161.595 165.59 178.532 146.51 182.341 134.231C187.371 117.899 184.933 107.957 184.056 104.148L203.502 92.5136ZM202.412 89.1797C202.178 89.256 201.922 89.3765 201.7 89.4862L182.232 101.164C180.941 101.956 180.256 103.471 180.635 104.971L180.679 105.104C181.566 108.947 183.677 117.999 178.975 133.191C177.539 137.83 173.685 144.441 167.75 152.359C163.178 158.467 159.002 163.19 158.946 163.245C158.22 164.073 157.915 165.169 158.119 166.246C158.324 167.323 159.028 168.237 160.002 168.731L183.616 180.348C184.456 180.774 185.388 180.801 186.255 180.518C186.755 180.355 187.222 180.091 187.613 179.705C187.724 179.595 190.547 176.827 194.244 172.334C200.421 164.816 208.396 153.426 211.026 141.717C211.174 141.041 211.333 140.399 211.459 139.767C214.199 126.14 212.774 113.653 211.102 105.602C209.267 96.8285 206.792 91.2903 206.716 91.057C206.31 90.1562 205.527 89.4528 204.575 89.1368C203.844 88.9329 203.112 88.9508 202.412 89.1797Z" fill="#040B11"/>
<path d="M185.722 178.882C185.289 179.024 184.834 178.988 184.403 178.797L160.788 167.18C160.302 166.933 159.938 166.498 159.83 165.943C159.734 165.421 159.881 164.857 160.227 164.448C160.384 164.249 176.953 145.511 180.592 133.73C185.408 118.096 183.157 108.388 182.324 104.712L182.28 104.579C182.107 103.823 182.445 103.049 183.101 102.687L202.58 91.0418C202.702 90.9648 202.802 90.9321 202.935 90.8885C203.269 90.7795 203.635 90.7706 204 90.8725C204.488 91.0084 204.863 91.3655 205.082 91.8105C205.115 91.9105 206.035 93.9346 207.168 97.5128C209.695 105.469 213.351 121.507 209.742 139.478C209.606 140.076 209.491 140.741 209.332 141.383C206.737 152.749 198.975 163.885 192.898 171.259C189.246 175.664 186.513 178.365 186.401 178.476C186.234 178.641 185.989 178.795 185.722 178.882Z" fill="#040B11"/>
<path d="M203.503 92.5118C203.503 92.5118 204.412 94.5026 205.523 98.0141C208.04 105.937 211.565 121.575 208.036 139.114C207.911 139.745 207.774 140.343 207.648 140.975C205.099 152.141 197.282 163.221 191.574 170.143C187.955 174.536 185.188 177.249 185.188 177.249L161.596 165.588C161.596 165.588 178.533 146.508 182.342 134.229C187.372 117.897 184.934 107.956 184.058 104.146L194.153 98.1147L203.503 92.5118ZM202.413 89.1779C202.18 89.2542 201.924 89.3747 201.701 89.4844L192.318 95.0982L182.223 101.129C180.932 101.921 180.246 103.436 180.626 104.936L180.669 105.069C181.557 108.912 183.667 117.964 178.965 133.155C177.53 137.795 173.653 144.45 167.718 152.368C163.146 158.476 158.992 163.155 158.97 163.199C158.244 164.027 157.938 165.123 158.143 166.2C158.347 167.277 159.052 168.191 160.025 168.685L183.64 180.301C184.48 180.728 185.412 180.755 186.279 180.472C186.779 180.309 187.246 180.045 187.636 179.659C187.748 179.549 190.57 176.781 194.268 172.288C200.445 164.77 208.42 153.38 211.05 141.671C211.198 140.995 211.357 140.353 211.482 139.721C215.149 121.363 211.428 105.014 208.846 96.8908C207.691 93.2459 206.728 91.0885 206.695 90.9885C206.29 90.0877 205.506 89.3844 204.554 89.0683C203.845 88.9311 203.113 88.949 202.413 89.1779Z" fill="#040B11"/>
<path d="M192.108 171.778C191.874 171.855 191.663 171.887 191.397 171.863C190.821 171.793 190.313 171.48 190.038 170.979C181.903 156.368 182.05 156.025 182.399 155.062C182.602 154.553 182.992 154.167 183.492 154.003C183.526 153.993 183.559 153.982 183.659 153.949C183.826 153.894 184.192 153.775 184.692 153.611C188.36 152.412 200.821 147.748 206.544 138.164C206.757 137.799 207.114 137.535 207.514 137.404C207.88 137.285 208.291 137.298 208.7 137.422C209.497 137.715 209.958 138.561 209.787 139.392C209.662 140.023 209.536 140.655 209.377 141.297C206.782 152.663 199.02 163.799 192.943 171.173C192.709 171.471 192.408 171.68 192.108 171.778Z" fill="#040B11"/>
<path d="M208.036 139.116C207.91 139.747 207.774 140.345 207.648 140.977C205.099 152.143 197.281 163.223 191.573 170.145C187.731 163.245 183.714 155.813 184.048 155.704C184.114 155.682 184.548 155.54 185.248 155.311C189.215 154.014 201.966 149.219 208.036 139.116ZM206.946 135.782C206.179 136.032 205.466 136.561 205.018 137.335C199.597 146.377 187.669 150.866 184.136 152.022C183.669 152.174 183.335 152.283 183.135 152.349C183.035 152.381 182.969 152.403 182.935 152.414C181.935 152.741 181.11 153.491 180.738 154.498C180.062 156.269 180.698 157.537 183.2 162.254C184.868 165.436 186.998 169.242 188.457 171.901C189.006 172.903 190.045 173.597 191.22 173.692C191.708 173.717 192.174 173.676 192.641 173.523C193.274 173.316 193.82 172.953 194.267 172.401C200.444 164.883 208.419 153.493 211.049 141.784C211.197 141.108 211.356 140.466 211.481 139.834C211.824 138.173 210.902 136.481 209.308 135.895C208.522 135.525 207.713 135.531 206.946 135.782Z" fill="#040B11"/>
<path d="M186.012 180.563C185.578 180.705 185.124 180.669 184.692 180.478L158.567 167.615C158.081 167.368 157.717 166.934 157.609 166.378C157.513 165.856 157.66 165.292 158.006 164.883L159.223 163.526C159.38 163.327 175.781 144.754 179.308 133.305C184.011 118.003 181.814 108.573 181.025 105.031L180.981 104.897C180.602 103.287 181.487 101.706 183.054 101.193C183.154 101.161 183.221 101.139 183.321 101.106C184.998 100.705 186.711 101.769 187.079 103.457L187.122 103.591C188.064 107.6 190.51 118.241 185.298 135.148C183.818 139.876 180.522 145.935 175.389 153.149C172.134 157.755 168.827 161.862 166.571 164.556L184.478 173.389C188.686 168.876 201.337 154.408 204.536 140.262C210.146 115.659 200.699 93.9857 200.6 93.7966C199.9 92.2174 200.587 90.369 202.166 89.6683C202.266 89.6356 202.355 89.5695 202.489 89.5259C204.022 89.0246 205.66 89.7439 206.328 91.223C206.755 92.1905 216.762 114.898 210.673 141.65C206.348 160.593 188.13 178.69 187.349 179.461L186.647 180.134C186.49 180.333 186.245 180.487 186.012 180.563Z" fill="#040B11"/>
<path d="M203.066 91.1813C203.733 90.9633 204.463 91.2781 204.748 91.9231C205.164 92.8572 214.952 115.009 208.955 141.252C204.767 159.707 186.872 177.439 186.114 178.167L185.411 178.84L159.286 165.977L160.503 164.62C160.66 164.421 177.284 145.627 180.936 133.769C185.785 118.013 183.512 108.239 182.646 104.573L182.603 104.44C182.44 103.718 182.844 103.033 183.51 102.815C183.544 102.804 183.577 102.793 183.644 102.771C184.399 102.598 185.14 103.057 185.313 103.812L185.356 103.946C186.254 107.822 188.657 118.107 183.571 134.605C180.292 145.234 167.715 160.491 163.728 165.115L184.832 175.486C188.168 172.034 202.646 156.267 206.241 140.626C212.022 115.303 202.278 93.2842 202.201 93.0509C201.895 92.3392 202.188 91.5423 202.889 91.2025C203 91.2031 203.033 91.1922 203.066 91.1813ZM201.976 87.8474C201.81 87.9019 201.643 87.9564 201.487 88.0442C199.041 89.1393 197.926 92.05 199.032 94.53C199.043 94.5633 201.407 99.9899 203.067 108.341C204.532 115.87 205.707 127.479 202.862 139.885C199.938 152.724 188.88 165.971 184.102 171.223L169.369 163.972C171.503 161.356 174.185 157.933 176.869 154.177C182.102 146.82 185.488 140.584 187.014 135.656C192.372 118.295 189.818 107.321 188.877 103.201L188.833 103.067C188.53 101.801 187.771 100.721 186.655 100.016C185.538 99.3103 184.219 99.1141 182.953 99.4173C182.82 99.4609 182.676 99.4712 182.542 99.5148C180.108 100.31 178.741 102.787 179.292 105.264L179.336 105.397C180.126 108.829 182.258 117.948 177.658 132.774C174.832 141.964 162.476 157.222 157.943 162.32L156.726 163.677C156 164.505 155.695 165.601 155.899 166.678C156.104 167.756 156.808 168.669 157.781 169.163L183.907 182.025C184.747 182.452 185.679 182.479 186.545 182.196C187.046 182.032 187.513 181.769 187.903 181.383L188.606 180.71C189.387 179.938 207.973 161.5 212.389 142.048C218.615 114.698 208.367 91.4782 207.94 90.5107C206.932 88.2199 204.377 87.0626 201.976 87.8474Z" fill="#040B11"/>
<path d="M173.075 150.362C161.261 139.168 129.153 169.186 131.583 176.621C136.085 190.39 166.961 229.413 200.447 219.979C228.567 212.077 236.728 178.005 223.643 167.891C211.739 158.683 195.599 158.756 184.014 155.716" fill="#040B11"/>
<path d="M173.075 150.362C161.261 139.168 129.153 169.186 131.583 176.621C136.085 190.39 166.961 229.413 200.447 219.979C228.567 212.077 236.728 178.005 223.643 167.891C211.739 158.683 195.599 158.756 184.014 155.716" stroke="#040B11" stroke-width="10" stroke-miterlimit="10" stroke-linejoin="round"/>
<path d="M202.67 221.135C202.103 221.32 201.536 221.506 200.958 221.657C191.526 224.298 181.67 223.498 171.567 219.236C163.468 215.795 155.248 210.068 147.771 202.66C141.606 196.557 136.101 189.426 132.611 183.039C131.403 180.814 130.505 178.856 129.949 177.156C128.391 172.389 135.78 164.401 139.004 161.169C145.642 154.608 153.492 149.385 159.96 147.27C165.861 145.341 170.76 145.879 174.07 148.893L184.645 154.035C187.79 154.852 191.27 155.448 194.982 156.08C204.744 157.723 215.837 159.595 224.737 166.501C231.263 171.564 233.299 182.079 229.851 193.318C225.848 206.472 215.672 216.884 202.67 221.135Z" fill="#040B11"/>
<path d="M160.505 148.938C165.439 147.325 169.964 147.395 173.075 150.364L176.271 151.902L184.036 155.674C195.588 158.724 211.76 158.64 223.664 167.849C229.837 172.621 231.266 182.634 228.19 192.755C224.81 203.75 216.083 214.869 202.147 219.425C201.614 219.599 201.047 219.784 200.503 219.925C180.815 225.513 162.034 214.346 148.987 201.414C142.326 194.809 137.175 187.747 134.113 182.217C132.938 180.091 132.095 178.19 131.583 176.623C129.795 171.155 146.736 153.439 160.505 148.938ZM159.415 145.604C152.68 147.806 144.574 153.15 137.747 159.921C134.646 162.964 132.143 166.033 130.453 168.763C128.202 172.377 127.498 175.301 128.282 177.702C128.871 179.502 129.802 181.56 131.075 183.874C134.642 190.384 140.279 197.693 146.544 203.874C154.187 211.449 162.605 217.333 170.904 220.819C181.349 225.228 191.627 226.075 201.426 223.314C202.037 223.151 202.637 222.955 203.204 222.769C216.739 218.344 227.328 207.502 231.512 193.772C235.141 181.847 232.899 170.587 225.777 165.055C216.534 157.892 205.209 155.985 195.247 154.297C191.657 153.699 188.255 153.114 185.231 152.331L177.776 148.716L175.022 147.402C172.296 145.046 167.416 142.988 159.415 145.604Z" fill="#040B11"/>
<path d="M156.15 182.688C155.883 182.775 155.616 182.863 155.383 182.939C143.493 186.641 136.525 185.081 133.449 183.799C133.073 183.664 132.753 183.363 132.566 183.018C131.359 180.792 130.461 178.835 129.905 177.135C129.382 175.534 129.232 170.786 138.96 161.148C145.597 154.586 153.447 149.363 159.915 147.249C165.816 145.319 170.716 145.858 174.026 148.872L176.968 150.309C177.366 150.511 177.653 150.823 177.828 151.245C179.72 155.904 179.444 161.493 177.096 166.504C174.827 171.527 169.285 178.394 156.15 182.688Z" fill="#040B11"/>
<path d="M160.505 148.938C165.439 147.325 169.964 147.395 173.075 150.364L176.271 151.902C179.497 159.962 176.542 174.176 155.605 181.021C155.338 181.108 155.105 181.185 154.838 181.272C143.515 184.789 137.001 183.376 134.102 182.183C132.927 180.058 132.084 178.156 131.572 176.59C129.795 171.155 146.736 153.439 160.505 148.938ZM159.415 145.604C152.68 147.806 144.574 153.15 137.747 159.921C134.646 162.964 132.143 166.033 130.453 168.763C128.202 172.377 127.498 175.301 128.282 177.702C128.871 179.502 129.802 181.56 131.075 183.874C131.448 184.564 132.077 185.133 132.797 185.415C136.083 186.776 143.471 188.494 155.928 184.606C156.195 184.519 156.462 184.431 156.728 184.344C170.464 179.854 176.307 172.556 178.812 167.235C181.35 161.792 181.651 155.715 179.573 150.601C179.234 149.789 178.65 149.132 177.865 148.761L175.11 147.447C172.296 145.046 167.416 142.988 159.415 145.604Z" fill="#040B11"/>
<path d="M151.396 184.056C151.362 184.067 151.296 184.089 151.262 184.1C142.655 186.102 137.114 185.183 134.004 184.022C133.373 183.786 132.932 183.228 132.87 182.585C132.807 181.941 133.077 181.299 133.656 180.925L138.778 177.517C138.9 177.44 139.056 177.352 139.189 177.308C139.389 177.243 139.567 177.222 139.789 177.223C140.055 177.247 146.532 177.417 151.813 180.931C152.388 181.333 152.683 182.012 152.579 182.71C152.454 183.341 151.996 183.86 151.396 184.056Z" fill="#040B11"/>
<path d="M139.723 178.942C139.723 178.942 145.901 179.099 150.84 182.356C142.476 184.315 137.291 183.353 134.601 182.35L139.723 178.942ZM138.633 175.608C138.333 175.706 138.044 175.837 137.777 176.035L132.655 179.444C131.563 180.17 130.957 181.475 131.127 182.785C131.297 184.095 132.178 185.209 133.395 185.66C136.749 186.888 142.611 187.887 151.63 185.788C151.73 185.755 151.83 185.722 151.93 185.69C153.163 185.286 154.046 184.26 154.286 182.963C154.538 181.589 153.936 180.199 152.765 179.438C147.063 175.656 140.087 175.427 139.799 175.448C139.422 175.424 139 175.488 138.633 175.608Z" fill="#040B11"/>
<path d="M203.395 222.447C191.859 226.218 179.078 224.935 167.433 218.889C153.532 211.699 141.419 200.16 132.409 185.466L132.398 185.433C131.135 183.263 129.708 180.703 128.715 177.78C128.584 177.38 128.345 176.536 128.361 175.793C128.39 172.61 130.136 169.935 131.546 167.814C131.546 167.814 131.568 167.77 131.602 167.759C136.086 161.495 142.119 155.796 149.624 150.87L149.657 150.859C152.229 149.243 155.668 147.233 159.435 146.002C161.569 145.304 163.646 144.884 165.709 144.762C169.371 144.562 172.957 145.825 175.285 148.09C176.112 148.927 176.427 150.004 176.177 151.046C175.938 152.12 175.112 152.981 174.045 153.329C172.979 153.678 171.826 153.427 170.977 152.635C168.88 150.737 165.699 150.486 161.531 151.848C155.43 153.843 149.302 158.577 146.95 160.527C140.207 166.2 135.739 171.609 134.652 175.397C134.663 175.43 134.617 175.629 134.595 175.674L134.606 175.707C135.25 177.563 136.203 179.576 137.752 182.17C147.884 198.489 162.244 210.807 177.155 216.006C184.992 218.758 193.266 218.895 201.067 216.344C214.37 211.995 224.019 200.649 226.218 186.719C226.726 183.194 227.298 174.446 221.334 170.086C221.323 170.052 221.29 170.063 221.279 170.03C221.135 169.929 220.782 169.639 219.843 169.023C213.147 164.459 205.38 162.939 197.171 161.305C192.562 160.413 187.82 159.454 183.303 157.942C182.262 157.581 181.635 156.679 181.653 155.603C181.67 154.527 182.33 153.61 183.33 153.283C183.697 153.163 184.129 153.133 184.517 153.19C186.744 153.569 189.094 153.871 191.377 154.195C203.126 155.816 215.273 157.528 225.179 164.917C230.613 169.008 233.304 175.545 232.99 183.84C232.729 190.494 230.446 197.846 226.853 203.56C221.198 212.789 213.096 219.275 203.395 222.447Z" fill="#040B11"/>
<path d="M159.936 147.646C161.803 147.036 163.736 146.625 165.766 146.515C168.706 146.366 171.874 147.249 174.036 149.347C174.918 150.24 174.334 151.39 173.467 151.673C173.034 151.815 172.569 151.746 172.105 151.344C169.181 148.72 165.12 148.83 160.953 150.192C155.152 152.089 149.148 156.413 145.782 159.211C141.38 162.901 134.364 169.549 132.89 175.087C132.832 175.586 132.742 175.873 132.928 176.329C133.724 178.652 134.953 180.944 136.227 183.148C145.458 198.065 159.764 211.912 176.569 217.711C185.081 220.722 193.822 220.595 201.59 218.055C214.893 213.706 225.541 202.254 227.913 187.05C228.86 180.578 227.951 172.83 222.363 168.716C222.009 168.425 221.203 167.877 220.827 167.631C209.911 160.203 196.078 160.445 183.856 156.359C183.192 156.133 183.297 155.213 183.864 155.028C183.964 154.995 184.074 154.996 184.185 154.996C197.738 157.171 212.609 157.845 224.084 166.419C235.006 174.657 231.642 192.584 225.327 202.73C219.706 211.838 211.763 217.903 202.828 220.824C191.926 224.388 179.575 223.297 168.229 217.374C153.974 210.004 142.252 198.19 133.856 184.587C132.505 182.261 131.21 179.88 130.305 177.224C130.196 176.89 130.022 176.246 130.046 175.869C130.062 173.207 131.584 170.864 132.938 168.798C137.646 162.203 143.778 156.803 150.481 152.361C153.52 150.482 156.602 148.736 159.936 147.646ZM158.846 144.312C154.912 145.598 151.351 147.685 148.679 149.334C148.646 149.345 148.646 149.345 148.623 149.389C140.941 154.447 134.729 160.278 130.121 166.73C130.099 166.774 130.077 166.818 130.043 166.829C128.588 169.039 126.619 172.045 126.575 175.749C126.546 176.902 126.928 178.069 127.015 178.336C128.051 181.392 129.522 184.085 130.84 186.311C130.851 186.345 130.862 186.378 130.895 186.367C140.104 201.328 152.437 213.09 166.648 220.438C178.702 226.719 191.971 228.027 203.973 224.103C214.075 220.801 222.489 214.028 228.356 204.545C232.095 198.599 234.48 190.881 234.731 183.972C234.876 179.902 234.354 176.161 233.098 172.882C231.667 169.069 229.355 165.95 226.219 163.58C215.926 155.912 203.557 154.199 191.609 152.532C189.359 152.198 187.01 151.896 184.782 151.517C184.117 151.402 183.429 151.442 182.796 151.649C181.096 152.205 179.922 153.807 179.922 155.615C179.912 157.39 181.034 159.015 182.706 159.613L182.75 159.635C187.388 161.182 192.197 162.119 196.85 163.033C204.894 164.611 212.506 166.108 218.87 170.448C219.831 171.13 220.162 171.354 220.206 171.377C220.251 171.399 220.295 171.422 220.306 171.455C222.195 172.83 223.513 174.945 224.207 177.744C224.847 180.266 224.941 183.261 224.467 186.442C222.372 199.674 213.214 210.491 200.512 214.644C193.077 217.074 185.214 216.951 177.753 214.335C163.185 209.281 149.179 197.254 139.266 181.269C137.926 178.976 137.005 177.174 136.437 175.551C137.577 172.152 141.866 167.097 148.085 161.853C149.891 160.377 156.142 155.455 162.11 153.504C165.644 152.349 168.238 152.497 169.816 153.937C171.129 155.131 172.924 155.541 174.591 154.996C176.224 154.462 177.475 153.094 177.861 151.455C178.248 149.815 177.759 148.093 176.546 146.866C176.546 146.866 176.535 146.833 176.501 146.843C173.799 144.221 169.748 142.778 165.587 143.031C163.334 143.14 161.147 143.56 158.846 144.312Z" fill="#040B11"/>
<path d="M230.69 178.61C230.49 178.676 230.312 178.697 230.09 178.696C229.869 178.694 224.212 178.551 217.785 177.515C208.831 176.088 202.932 173.736 200.189 170.536C198.757 168.864 198.169 166.953 198.447 164.869C199.341 158.009 204.399 152.148 211.334 149.881C218.135 147.658 224.902 149.505 229.485 154.833C238.387 165.245 231.984 177.265 231.704 177.762C231.48 178.205 231.09 178.48 230.69 178.61Z" fill="#040B11"/>
<path d="M211.846 151.56C217.347 149.761 223.619 150.774 228.125 155.98C236.356 165.578 230.145 176.944 230.145 176.944C230.145 176.944 198.693 176.119 200.154 165.124C201.046 158.596 205.978 153.478 211.846 151.56ZM210.756 148.226C203.188 150.7 197.693 157.146 196.685 164.672C196.337 167.221 197.1 169.665 198.84 171.716C201.892 175.295 208.012 177.759 217.509 179.267C224.081 180.292 229.825 180.481 230.047 180.482C230.457 180.496 230.846 180.442 231.246 180.311C232.079 180.039 232.815 179.466 233.252 178.659C233.432 178.305 235.114 175.098 235.728 170.543C236.552 164.259 234.833 158.437 230.823 153.733C228.245 150.701 224.918 148.651 221.229 147.754C217.829 146.947 214.223 147.092 210.756 148.226Z" fill="#040B11"/>
<path d="M230.69 178.61C230.49 178.676 230.312 178.697 230.09 178.696C229.869 178.694 224.212 178.551 217.785 177.515C208.831 176.088 202.932 173.736 200.189 170.536C198.757 168.864 198.169 166.953 198.447 164.869C199.189 159.35 202.511 154.5 207.597 151.545C208.777 150.864 210.034 150.306 211.334 149.881C218.135 147.658 224.902 149.505 229.485 154.833C232.405 158.233 233.968 162.224 234.153 166.629C234.395 172.786 231.827 177.574 231.704 177.762C231.48 178.205 231.09 178.48 230.69 178.61Z" fill="#040B11"/>
<path d="M211.846 151.56C217.347 149.761 223.619 150.774 228.092 155.991C231.133 159.535 232.198 163.357 232.334 166.708C232.578 172.422 230.112 176.955 230.112 176.955C230.112 176.955 198.693 176.119 200.121 165.135C200.816 159.926 204.125 155.597 208.409 153.126C209.522 152.467 210.679 151.941 211.846 151.56ZM210.756 148.226C209.356 148.684 207.976 149.319 206.674 150.077C201.121 153.295 197.474 158.62 196.685 164.672C196.337 167.221 197.1 169.665 198.84 171.716C201.892 175.295 208.012 177.759 217.509 179.267C224.081 180.292 229.825 180.481 230.047 180.482C230.457 180.496 230.846 180.442 231.246 180.311C232.079 180.039 232.815 179.466 233.252 178.659C233.364 178.438 236.167 173.241 235.884 166.617C235.679 161.813 233.962 157.466 230.789 153.743C228.211 150.711 224.885 148.662 221.196 147.765C217.829 146.947 214.223 147.092 210.756 148.226Z" fill="#040B11"/>
<path d="M230.691 178.613C230.491 178.678 230.313 178.699 230.092 178.698C229.87 178.697 224.214 178.553 217.786 177.518C208.832 176.091 202.934 173.738 200.19 170.539C198.758 168.867 198.17 166.956 198.448 164.872C199.19 159.352 202.512 154.502 207.599 151.548C207.688 151.482 207.821 151.438 207.921 151.405C208.121 151.34 208.332 151.308 208.521 151.32C212.025 151.429 215.699 152.959 219.464 155.898C220.69 156.826 221.836 158.185 223.07 159.59C226.276 163.302 228.813 165.868 231.934 165.032C232.445 164.902 232.988 164.983 233.43 165.318C233.861 165.62 234.135 166.121 234.165 166.665C234.407 172.822 231.839 177.61 231.716 177.798C231.481 178.207 231.091 178.482 230.691 178.613Z" fill="#040B11"/>
<path d="M208.444 153.116C211.172 153.221 214.482 154.316 218.38 157.322C222.134 160.228 226.158 168.47 232.39 166.765C232.634 172.479 230.168 177.012 230.168 177.012C230.168 177.012 198.749 176.176 200.177 165.192C200.851 159.916 204.159 155.587 208.444 153.116ZM207.354 149.782C207.12 149.859 206.898 149.968 206.675 150.078C201.122 153.296 197.475 158.621 196.686 164.673C196.338 167.222 197.101 169.667 198.841 171.718C201.893 175.296 208.013 177.76 217.51 179.268C224.082 180.294 229.826 180.482 230.048 180.483C230.458 180.497 230.847 180.444 231.247 180.313C232.08 180.04 232.816 179.468 233.253 178.661C233.365 178.439 236.168 173.242 235.885 166.619C235.836 165.565 235.32 164.552 234.447 163.915C233.575 163.278 232.478 163.083 231.467 163.377C230.111 163.746 228.814 163.616 224.374 158.499C223.074 157.006 221.884 155.623 220.537 154.551C216.484 151.41 212.434 149.745 208.586 149.601C208.142 149.598 207.754 149.652 207.354 149.782Z" fill="#040B11"/>
<path d="M231.491 180.049C231.291 180.114 231.113 180.135 230.891 180.134L230.037 180.118C227.575 180.037 205.729 179.246 199.096 171.487C197.421 169.525 196.692 167.181 197.039 164.742C197.99 157.494 203.541 150.993 210.842 148.606C211.008 148.551 211.209 148.486 211.375 148.431C218.542 146.31 225.673 148.37 230.466 153.999C239.974 165.135 232.931 178.36 232.864 178.493L232.449 179.256C232.27 179.61 231.924 179.907 231.491 180.049ZM212.826 154.562C207.759 156.219 203.928 160.645 203.279 165.544C203.208 166.231 203.383 166.765 203.923 167.4C207.217 171.268 219.75 173.259 228.144 173.763C229.271 170.663 230.774 163.972 225.75 158.087C222.577 154.364 218.015 153.051 213.204 154.476C213.059 154.486 212.926 154.53 212.826 154.562Z" fill="#040B11"/>
<path d="M211.42 150.262C211.587 150.207 211.754 150.153 211.921 150.098C218.409 148.161 224.854 150.04 229.173 155.123C237.899 165.334 231.439 177.52 231.372 177.653L230.957 178.415L230.103 178.399C229.138 178.383 206.703 177.71 200.467 170.375C199.09 168.759 198.535 166.947 198.779 164.986C199.65 158.28 204.719 152.453 211.42 150.262ZM229.288 175.566C230.434 172.977 233.467 164.421 227.066 156.919C223.419 152.649 218.17 151.155 212.715 152.754C212.582 152.798 212.448 152.841 212.281 152.896C206.58 154.759 202.293 159.704 201.539 165.301C201.366 166.465 201.715 167.531 202.552 168.512C206.871 173.595 222.545 175.261 229.288 175.566ZM210.33 146.928C206.43 148.203 202.945 150.523 200.276 153.647C197.54 156.792 195.854 160.554 195.332 164.489C194.938 167.459 195.809 170.237 197.803 172.611C200.987 176.368 207.184 178.955 216.703 180.529C223.385 181.666 229.384 181.845 230.017 181.86L230.871 181.876C231.281 181.889 231.669 181.836 232.07 181.705C232.903 181.433 233.638 180.86 234.076 180.053L234.49 179.29C234.558 179.157 236.464 175.619 237.103 170.576C237.918 163.925 236.123 157.759 231.893 152.832C226.637 146.689 218.808 144.415 210.975 146.754C210.731 146.797 210.531 146.863 210.33 146.928ZM226.869 171.892C224.185 171.699 219.984 171.264 215.719 170.408C208.119 168.833 205.855 166.99 205.216 166.276C204.974 165.986 204.985 165.909 204.986 165.798C205.554 161.553 208.904 157.69 213.338 156.24C213.438 156.208 213.571 156.164 213.671 156.131C217.838 154.88 221.636 156 224.38 159.199C226.528 161.707 227.576 164.686 227.468 167.969C227.471 169.444 227.174 170.796 226.869 171.892Z" fill="#040B11"/>
<path d="M138.292 213.508C129.757 216.298 122.638 215.858 117.08 212.176C111.622 208.573 104.923 200.726 103.901 183.716C103.254 172.819 105.301 162.261 107.658 157.505C108.567 155.657 109.805 154.478 111.372 153.966C114.872 152.821 119.296 155.176 124.863 161.142C128.666 165.213 131.614 169.489 131.746 169.668C131.9 169.913 132.02 170.168 132.041 170.457L133.299 181.079L138.689 177.472C138.811 177.395 138.967 177.307 139.1 177.264C139.3 177.198 139.478 177.177 139.7 177.179C139.844 177.168 143.315 177.288 147.234 178.664C152.613 180.559 156.254 184.018 157.758 188.619C161.355 199.621 155.415 204.367 155.148 204.565C154.902 204.83 147.46 210.511 138.292 213.508Z" fill="#040B11"/>
<path d="M111.961 155.654C118.595 153.485 130.342 170.679 130.342 170.679L131.939 184.143L139.722 178.941C139.722 178.941 152.887 179.25 156.135 189.186C159.383 199.121 154.113 203.205 154.113 203.205C154.113 203.205 146.715 208.908 137.713 211.851C131.245 213.966 123.943 214.655 118.009 210.728C101.103 199.538 104.828 167.137 109.206 158.289C109.979 156.818 110.927 155.992 111.961 155.654ZM110.871 152.32C109.47 152.778 107.512 153.898 106.12 156.752C103.651 161.729 101.502 172.653 102.17 183.838C102.544 190.063 103.743 195.649 105.701 200.396C108.075 206.189 111.598 210.646 116.128 213.667C122.151 217.64 129.779 218.172 138.847 215.207C148.282 212.123 155.959 206.255 156.282 206.002C156.638 205.738 158.399 204.239 159.637 201.252C160.672 198.662 161.518 194.252 159.513 188.118C155.535 175.949 140.474 175.485 139.842 175.47C139.432 175.457 139.043 175.51 138.677 175.63C138.377 175.728 138.087 175.859 137.82 176.058L134.791 178.081L133.871 170.3C133.797 169.734 133.589 169.212 133.282 168.722C133.149 168.543 130.158 164.134 126.255 159.985C120.126 153.427 115.105 150.936 110.871 152.32Z" fill="#040B11"/>
<path d="M138.292 213.508C129.757 216.298 122.638 215.858 117.08 212.176C111.622 208.573 104.923 200.726 103.901 183.716C103.254 172.819 105.301 162.261 107.658 157.505C108.567 155.657 109.805 154.478 111.372 153.966C114.872 152.821 119.296 155.176 124.863 161.142C128.666 165.213 131.614 169.489 131.746 169.668C131.9 169.913 132.02 170.168 132.041 170.457L133.299 181.079L138.689 177.472C138.811 177.395 138.967 177.307 139.1 177.264C139.3 177.198 139.478 177.177 139.7 177.179C139.844 177.168 143.315 177.288 147.234 178.664C152.613 180.559 156.254 184.018 157.758 188.619C158.99 192.386 159.225 195.815 158.475 198.828C157.544 202.638 155.382 204.378 155.148 204.565C154.902 204.83 147.46 210.511 138.292 213.508Z" fill="#040B11"/>
<path d="M111.961 155.654C118.595 153.485 130.342 170.679 130.342 170.679L131.738 182.511L131.939 184.143L139.722 178.941C139.722 178.941 152.887 179.25 156.135 189.186C157.432 193.153 157.359 196.203 156.825 198.407C156.029 201.73 154.102 203.172 154.102 203.172C154.102 203.172 146.704 208.875 137.702 211.818C131.234 213.932 123.932 214.622 117.998 210.694C101.092 199.505 104.818 167.104 109.195 158.256C109.979 156.818 110.927 155.992 111.961 155.654ZM110.871 152.32C109.47 152.778 107.512 153.898 106.12 156.752C103.651 161.729 101.502 172.653 102.17 183.838C102.544 190.063 103.743 195.649 105.701 200.396C108.075 206.189 111.598 210.646 116.128 213.667C122.151 217.64 129.779 218.172 138.847 215.207C148.282 212.123 155.959 206.255 156.282 206.002C156.75 205.628 159.213 203.568 160.247 199.281C161.076 195.947 160.809 192.196 159.48 188.129C155.501 175.96 140.441 175.496 139.809 175.481C139.399 175.468 139.01 175.521 138.643 175.641C138.343 175.739 138.054 175.87 137.787 176.068L134.758 178.092L133.838 170.311C133.764 169.745 133.556 169.222 133.248 168.733C133.116 168.554 130.125 164.145 126.222 159.996C120.126 153.427 115.105 150.936 110.871 152.32Z" fill="#040B11"/>
<path d="M151.396 184.056C151.362 184.067 151.296 184.089 151.262 184.1C142.655 186.102 137.114 185.183 134.004 184.022C133.373 183.786 132.932 183.228 132.87 182.585C132.807 181.941 133.077 181.299 133.656 180.925L138.778 177.517C138.9 177.44 139.056 177.352 139.189 177.308C139.389 177.243 139.567 177.222 139.789 177.223C140.055 177.247 146.532 177.417 151.813 180.931C152.388 181.333 152.683 182.012 152.579 182.71C152.454 183.341 151.996 183.86 151.396 184.056Z" fill="#040B11"/>
<path d="M139.723 178.942C139.723 178.942 145.901 179.099 150.84 182.356C142.476 184.315 137.291 183.353 134.601 182.35L139.723 178.942ZM138.633 175.608C138.333 175.706 138.044 175.837 137.777 176.035L132.655 179.444C131.563 180.17 130.957 181.475 131.127 182.785C131.297 184.095 132.178 185.209 133.395 185.66C136.749 186.888 142.611 187.887 151.63 185.788C151.73 185.755 151.83 185.722 151.93 185.69C153.163 185.286 154.046 184.26 154.286 182.963C154.538 181.589 153.936 180.199 152.765 179.438C147.063 175.656 140.087 175.427 139.799 175.448C139.422 175.424 139 175.488 138.633 175.608Z" fill="#040B11"/>
<path d="M138.292 213.508C129.757 216.298 122.638 215.858 117.08 212.176C111.622 208.573 104.923 200.726 103.901 183.716C103.254 172.819 105.301 162.261 107.658 157.505C108.567 155.657 109.805 154.478 111.372 153.966C114.872 152.821 119.296 155.176 124.863 161.142C128.666 165.213 131.614 169.489 131.746 169.668C131.9 169.913 132.02 170.168 132.041 170.457L133.436 182.289C133.489 182.789 133.353 183.276 133.029 183.64C132.817 183.894 132.539 184.059 132.239 184.157C132.072 184.211 131.894 184.232 131.75 184.243C130.253 184.289 127.29 184.483 124.289 185.464C119.222 187.121 116.464 190.199 116.095 194.601C115.82 198.049 117.067 201.073 119.64 203.073C124.023 206.548 131.786 206.815 140.921 203.829C145.555 202.314 150.616 199.958 155.869 196.838C155.992 196.761 156.092 196.729 156.225 196.685C156.758 196.511 157.346 196.614 157.821 196.938C158.395 197.341 158.635 198.075 158.487 198.75C157.555 202.561 155.393 204.301 155.159 204.488C154.902 204.83 147.46 210.511 138.292 213.508Z" fill="#040B11"/>
<path d="M111.961 155.654C118.595 153.485 130.342 170.679 130.342 170.679L131.738 182.511C130.196 182.536 127.022 182.761 123.788 183.819C119.387 185.257 114.911 188.271 114.398 194.49C113.633 204.003 123.084 211.578 141.521 205.551C146.088 204.057 151.193 201.724 156.825 198.407C156.029 201.73 154.102 203.172 154.102 203.172C154.102 203.172 146.704 208.875 137.702 211.818C131.234 213.932 123.932 214.622 117.998 210.694C101.092 199.505 104.818 167.104 109.195 158.256C109.979 156.818 110.927 155.992 111.961 155.654ZM110.871 152.32C109.47 152.778 107.512 153.898 106.12 156.752C103.651 161.729 101.502 172.653 102.17 183.838C102.544 190.063 103.743 195.649 105.701 200.396C108.075 206.189 111.598 210.646 116.128 213.667C122.151 217.64 129.779 218.172 138.847 215.207C148.282 212.123 155.959 206.255 156.282 206.002C156.75 205.628 159.213 203.568 160.247 199.281C160.577 197.918 160.064 196.462 158.937 195.613C158.01 194.92 156.813 194.758 155.746 195.106C155.512 195.183 155.29 195.292 155.034 195.413C149.87 198.467 144.932 200.745 140.397 202.228C131.829 205.029 124.687 204.854 120.756 201.748C118.073 199.636 117.701 196.805 117.857 194.799C117.965 193.435 118.31 189.3 124.845 187.163C127.612 186.259 130.386 186.053 131.784 186.039C132.117 186.041 132.461 185.965 132.794 185.856C133.394 185.66 133.94 185.297 134.375 184.823C135.012 184.061 135.328 183.109 135.223 182.11L133.827 170.278C133.753 169.712 133.545 169.189 133.237 168.699C133.105 168.521 130.114 164.111 126.211 159.962C120.126 153.427 115.105 150.936 110.871 152.32Z" fill="#040B11"/>
<path d="M138.44 214.857C133.706 216.405 129.199 216.956 125.065 216.499C119.444 215.901 113.796 212.507 110.01 207.361C104.342 199.619 101.873 189.245 102.484 175.65C102.682 172.19 103.647 160.582 107.461 155.203C107.483 155.158 107.506 155.114 107.539 155.103C108.522 153.933 109.691 153.108 110.992 152.683C116.559 150.863 123.716 156.162 132.86 168.893L132.871 168.926C133.157 169.349 133.354 169.838 133.407 170.338L134.412 178.718L137.93 176.387C138.175 176.233 138.431 176.113 138.698 176.025C140.031 175.589 141.493 176.108 142.284 177.288C142.735 177.99 142.897 178.823 142.759 179.643C142.621 180.463 142.118 181.181 141.416 181.632L133.633 186.833C133.388 186.987 133.132 187.107 132.865 187.195C131.532 187.631 130.071 187.112 129.29 185.965C129.015 185.575 128.851 185.075 128.776 184.62L127.252 171.944C124.061 167.489 121.031 164.088 118.073 161.475L117.974 161.397C116.627 160.325 114.165 158.325 112.798 158.772L112.764 158.783C112.609 158.87 112.218 159.256 111.869 160.109C110.656 162.83 110.051 165.833 109.546 168.691C107.978 179.02 107.661 193.516 115.022 203.73C117.885 207.517 121.686 209.891 125.733 210.303C129.213 210.678 133.076 210.19 137.277 208.816C141.978 207.28 147.062 204.658 152.407 201.029C152.641 200.841 152.93 200.71 153.197 200.623C154.464 200.209 155.836 200.793 156.473 201.951C157.12 203.141 156.846 204.559 155.776 205.463C155.742 205.474 155.753 205.507 155.72 205.518C151.81 208.457 145.508 212.547 138.44 214.857Z" fill="#040B11"/>
<path d="M111.592 154.295C118.46 152.05 128.266 165.34 131.512 169.851C131.645 170.029 131.721 170.262 131.753 170.473L133.097 181.695L131.215 182.938L133.35 183.937L133.097 181.695L139.009 177.769C139.132 177.692 139.232 177.66 139.365 177.616C139.932 177.431 140.585 177.623 140.948 178.169C141.377 178.804 141.217 179.668 140.582 180.097L132.832 185.287C132.709 185.364 132.609 185.397 132.476 185.441C131.909 185.626 131.256 185.434 130.893 184.888C130.761 184.71 130.685 184.476 130.664 184.299L129.109 171.19C129.175 171.279 129.241 171.368 129.307 171.457L129.067 170.835L129.109 171.19C126.259 167.214 123.043 163.246 119.368 160.019C117.568 158.578 114.731 156.221 112.398 156.984C112.331 157.006 112.264 157.028 112.198 157.05C111.363 157.433 110.77 158.439 110.421 159.291C109.173 162.135 108.512 165.192 107.973 168.284C106.14 180.286 106.468 194.497 113.764 204.621C116.648 208.476 120.857 211.418 125.712 211.934C129.725 212.356 133.899 211.693 137.967 210.363C143.601 208.521 149.043 205.413 153.575 202.345C153.698 202.268 153.787 202.202 153.887 202.169C154.887 201.842 155.778 203.212 154.819 204.005C149.995 207.648 144.129 211.153 137.962 213.169C133.794 214.532 129.509 215.194 125.341 214.749C119.798 214.162 114.771 210.75 111.513 206.317C105.119 197.595 103.865 186.196 104.314 175.716C104.645 170.294 105.832 160.607 108.964 156.188C109.757 155.228 110.625 154.611 111.592 154.295ZM110.502 150.961C108.902 151.485 107.454 152.475 106.27 153.932C106.214 153.987 106.17 154.075 106.08 154.141C104.381 156.505 103.051 160.114 102.103 164.889C101.235 169.232 100.9 173.401 100.777 175.507L100.788 175.541C100.174 189.58 102.719 200.298 108.651 208.396C112.712 213.933 118.824 217.617 124.932 218.241C129.333 218.721 134.051 218.138 139.018 216.514C146.319 214.127 152.766 209.916 156.91 206.79C156.944 206.779 157 206.724 157.022 206.68C158.738 205.27 159.185 202.91 158.109 200.973C157.044 199.071 154.786 198.148 152.719 198.824C152.286 198.965 151.874 199.174 151.485 199.449C146.295 202.99 141.333 205.535 136.799 207.017C132.865 208.304 129.224 208.793 126.01 208.441C122.451 208.055 119.08 205.983 116.482 202.552C112.62 197.172 108.575 186.944 111.331 168.847C111.801 166.11 112.406 163.218 113.541 160.707L113.563 160.662C113.608 160.574 113.653 160.486 113.664 160.408C114.627 160.757 116.339 162.154 116.935 162.623L116.99 162.679C119.782 165.124 122.603 168.335 125.618 172.479L127.067 184.699C127.174 185.476 127.447 186.199 127.843 186.845C129.063 188.66 131.355 189.461 133.422 188.785C133.855 188.643 134.233 188.446 134.601 188.215L142.384 183.013C143.475 182.287 144.225 181.194 144.465 179.897C144.717 178.634 144.469 177.313 143.743 176.222C142.523 174.407 140.231 173.606 138.164 174.282C137.731 174.423 137.353 174.621 136.985 174.852L135.838 175.632L135.171 170.094C135.098 169.306 134.814 168.55 134.341 167.893C134.33 167.859 134.33 167.859 134.286 167.837C132.195 164.941 128.981 160.641 125.297 157.048C122.97 154.783 120.761 153.106 118.715 152.04C115.785 150.526 113.003 150.144 110.502 150.961Z" fill="#040B11"/>
<path d="M198.832 190.322C197.365 190.801 195.768 190.77 194.34 190.24L178.037 184.167C176.52 183.593 175.43 182.178 175.262 180.535L174.637 173.544C174.553 172.722 175.046 171.971 175.846 171.709L212.497 159.764C212.963 159.612 213.462 159.67 213.86 159.872C214.258 160.074 214.578 160.486 214.73 160.953L216.524 167.341C216.85 168.452 216.588 169.682 215.884 170.576L202.073 188.044C201.213 189.137 200.099 189.907 198.832 190.322Z" fill="#040B11"/>
<path d="M176.425 173.366L213.075 161.421L214.868 167.809C215.02 168.387 214.895 169.018 214.537 169.504L200.693 186.983C200.067 187.778 199.221 188.35 198.321 188.644C197.254 188.993 196.1 188.964 194.982 188.592L178.679 182.519C177.76 182.192 177.155 181.356 177.061 180.391L176.425 173.366ZM175.335 170.032C173.768 170.544 172.783 172.047 172.94 173.656L173.543 180.692C173.74 182.989 175.281 184.995 177.429 185.806L193.732 191.879C195.536 192.544 197.544 192.588 199.377 191.989C200.978 191.466 202.392 190.487 203.431 189.151L217.242 171.683C218.315 170.336 218.68 168.519 218.213 166.863L216.419 160.475C216.158 159.564 215.531 158.773 214.679 158.313C213.828 157.854 212.841 157.77 211.941 158.065L175.335 170.032Z" fill="#040B11"/>
<path d="M248.62 216.076C245.22 217.188 241.479 217.71 238.374 217.47C228.496 216.714 217.71 205.959 214.832 202.914C212.656 203.367 207.605 204.059 203.602 201.862C198.151 198.847 196.679 192.538 196.625 192.26C196.571 191.983 196.551 191.694 196.652 191.439C198.047 186.223 203.355 175.484 213.624 172.127C215.757 171.429 218.044 171.087 220.374 171.101C229.802 171.155 238.59 178.172 246.508 191.894C246.519 191.927 246.53 191.961 246.574 191.983C249.492 191.989 256.047 192.06 259.393 196.539C260.438 197.931 261.656 200.19 261.341 202.95C260.652 208.858 256.021 213.656 248.62 216.076Z" fill="#040B11"/>
<path d="M214.191 173.749C216.058 173.139 218.123 172.796 220.375 172.798C235.06 172.905 244.543 192.204 245.578 193.674C247.23 193.762 254.709 193.162 258.023 197.54C258.98 198.777 259.868 200.59 259.601 202.707C258.889 208.881 253.643 212.589 248.075 214.409C244.675 215.521 241.19 215.922 238.506 215.729C227.796 214.913 215.409 200.954 215.409 200.954C215.409 200.954 208.976 202.836 204.432 200.336C199.611 197.668 198.313 191.893 198.313 191.893C199.48 187.673 204.29 176.986 214.191 173.749ZM213.101 170.415C202.133 174.001 196.454 185.415 194.98 190.953C194.822 191.484 194.83 192.072 194.926 192.594C194.991 192.905 196.603 199.98 202.762 203.354C206.764 205.551 211.491 205.224 214.223 204.774C215.612 206.202 217.895 208.444 220.744 210.724C227.18 215.963 233.087 218.792 238.231 219.177C241.558 219.418 245.52 218.897 249.154 217.709C257.222 215.072 262.3 209.722 263.082 203.082C263.292 201.242 263.065 198.401 260.786 195.382C257.274 190.736 251.055 190.223 247.561 190.148C246.112 187.632 243.276 183.024 239.23 178.774C233.31 172.518 226.951 169.32 220.362 169.259C217.866 169.3 215.402 169.663 213.101 170.415Z" fill="#040B11"/>
<path d="M248.62 216.075C245.219 217.187 241.478 217.709 238.374 217.469C228.495 216.713 217.709 205.958 214.832 202.913C212.655 203.366 207.604 204.058 203.602 201.861C198.151 198.846 196.668 192.504 196.625 192.259C196.571 191.982 196.551 191.693 196.652 191.439C196.924 190.464 197.693 187.851 199.542 184.589C202.019 180.2 206.478 174.425 213.613 172.092C215.746 171.395 218.033 171.053 220.362 171.067C223.579 171.085 226.78 171.958 229.92 173.662C238.755 178.449 244.597 188.532 246.497 191.86C246.508 191.893 246.519 191.927 246.563 191.949C249.48 191.955 256.035 192.026 259.381 196.504L259.513 196.683C260.515 198.053 261.634 200.233 261.33 202.916C260.652 208.857 256.021 213.655 248.62 216.075Z" fill="#040B11"/>
<path d="M214.191 173.749C216.058 173.139 218.123 172.796 220.375 172.798C223.525 172.838 226.47 173.72 229.124 175.178C238.766 180.402 244.797 192.527 245.611 193.664C247.263 193.751 254.743 193.151 258.056 197.529C258.078 197.596 258.122 197.618 258.177 197.674C259.102 198.922 259.901 200.69 259.668 202.685C258.955 208.859 253.71 212.567 248.142 214.387C244.741 215.499 241.256 215.9 238.573 215.707C227.863 214.891 215.476 200.932 215.476 200.932C215.476 200.932 209.043 202.814 204.499 200.314C199.678 197.646 198.38 191.871 198.38 191.871C198.766 190.342 199.656 187.985 201.113 185.442C203.623 180.931 207.857 175.82 214.191 173.749ZM213.101 170.415C205.4 172.933 200.673 179.017 198.039 183.716C196.1 187.155 195.274 189.934 194.98 190.953C194.822 191.484 194.83 192.072 194.926 192.594C194.991 192.905 196.603 199.98 202.762 203.354C206.764 205.551 211.491 205.224 214.223 204.774C215.612 206.202 217.895 208.444 220.744 210.724C227.18 215.963 233.087 218.792 238.231 219.177C241.558 219.418 245.52 218.897 249.154 217.709C257.222 215.072 262.3 209.722 263.082 203.082C263.385 200.51 262.646 197.91 260.962 195.582C260.951 195.549 260.896 195.493 260.885 195.46C260.874 195.427 260.874 195.427 260.83 195.404C257.319 190.759 251.099 190.246 247.605 190.17C245.255 186.141 239.419 176.757 230.772 172.092C227.4 170.243 223.922 169.313 220.406 169.282C217.866 169.3 215.402 169.663 213.101 170.415Z" fill="#040B11"/>
<path d="M249.267 217.488C247.434 218.088 245.479 218.542 243.425 218.808C238.33 219.588 233.167 218.471 228.082 215.447C225.396 213.89 222.701 211.966 220.118 209.711C217.359 207.255 215.188 204.902 213.494 202.429C212.724 201.316 212.999 199.787 214.113 199.017C214.291 198.885 214.513 198.775 214.747 198.699C215.547 198.437 216.455 198.62 217.084 199.189C217.89 199.848 218.663 200.518 219.469 201.177C220.992 202.451 222.56 203.746 224.105 204.975C228.599 208.562 233.504 211.94 238.67 212.502C241.342 212.662 244.44 212.203 247.174 211.309C254.742 208.835 256.22 204.44 256.4 202.056C256.451 200.97 255.694 199.556 254.689 198.741C253.596 197.881 252.101 197.373 249.829 197.082C248.942 196.966 247.967 196.916 246.702 196.887C246.669 196.898 246.669 196.898 246.625 196.875C246.514 196.875 246.403 196.874 246.292 196.873C245.482 196.88 243.785 196.881 242.895 195.401C239.052 188.723 234.576 182.031 227.965 178.177C224.152 175.881 219.462 175.421 215.062 176.86C212.795 177.601 210.691 178.843 208.929 180.452C207.268 181.917 205.727 183.75 204.16 186.07C202.728 188.236 201.539 190.47 200.617 192.727C200.358 193.402 199.822 193.909 199.122 194.138C198.322 194.4 197.38 194.228 196.751 193.659C196.1 193.133 195.817 192.267 195.954 191.447C195.954 191.447 195.943 191.413 195.977 191.402C197.762 181.851 204.743 173.517 213.345 170.705C216.212 169.768 219.175 169.463 222.157 169.78C229.928 170.635 236.976 175.6 243.732 184.979C245.019 186.772 246.206 188.709 247.338 190.59C251.264 190.635 255.31 191.158 258.601 193.661C258.601 193.661 258.611 193.695 258.645 193.684C263.061 197.259 264.094 202.788 261.312 208.163C259.047 212.409 254.868 215.657 249.267 217.488Z" fill="#040B11"/>
<path d="M213.912 172.329C216.445 171.5 219.176 171.161 222.003 171.455C230.804 172.415 237.465 179.131 242.351 185.948C243.825 187.975 245.122 190.134 246.374 192.271C246.152 192.27 245.897 192.28 245.675 192.278L246.714 192.861C246.615 192.672 246.472 192.46 246.374 192.271C250.245 192.26 254.358 192.539 257.594 194.987C261.547 198.16 262.085 202.855 259.808 207.29C257.498 211.625 253.279 214.296 248.745 215.778C246.911 216.377 245.045 216.766 243.213 217.033C238.118 217.813 233.278 216.443 229.012 213.889C226.237 212.287 223.663 210.398 221.29 208.332C218.951 206.255 216.768 203.98 214.953 201.363C214.744 201.062 214.824 200.63 215.125 200.421C215.18 200.366 215.247 200.344 215.314 200.322C215.547 200.246 215.791 200.314 215.99 200.47C218.363 202.425 220.67 204.402 223.022 206.29C227.549 209.865 232.785 213.578 238.516 214.177C241.299 214.337 244.596 213.924 247.696 212.91C252.997 211.177 257.71 207.644 258.141 202.078C258.207 200.359 257.197 198.401 255.762 197.284C254.128 196.01 252.123 195.521 250.039 195.243C248.964 195.115 247.833 195.042 246.724 195.035C246.014 195.009 244.893 195.191 244.453 194.412C240.522 187.579 235.837 180.586 228.883 176.586C224.473 173.932 219.262 173.569 214.561 175.105C212.094 175.912 209.768 177.263 207.772 179.059C205.854 180.756 204.201 182.81 202.735 184.987C201.27 187.163 200.014 189.53 199.001 191.964C198.922 192.174 198.778 192.296 198.578 192.361C198.144 192.503 197.558 192.178 197.672 191.624C199.33 183.037 205.644 175.032 213.912 172.329ZM212.822 168.995C203.62 172.003 196.148 180.867 194.27 191.038C194.281 191.072 194.259 191.116 194.259 191.116C194.029 192.557 194.542 194.013 195.657 194.94C196.782 195.9 198.322 196.208 199.723 195.751C200.889 195.369 201.849 194.465 202.288 193.325C203.143 191.201 204.298 189.089 205.674 186.978C207.14 184.801 208.603 183.068 210.119 181.724C210.119 181.724 210.153 181.713 210.142 181.68C211.703 180.247 213.628 179.138 215.662 178.473C219.563 177.197 223.72 177.61 227.08 179.648L227.124 179.67C233.393 183.267 237.692 189.759 241.393 196.225L241.404 196.258C242.799 198.606 245.339 198.588 246.293 198.571C246.37 198.583 246.437 198.561 246.515 198.572C246.548 198.561 246.592 198.584 246.626 198.573C247.779 198.602 248.711 198.629 249.531 198.767C251.415 199 252.655 199.407 253.505 200.088C254.156 200.613 254.551 201.481 254.548 201.924C254.348 203.909 253.041 207.473 246.506 209.609C244.006 210.426 241.153 210.842 238.702 210.684C233.991 210.158 229.396 206.937 225.112 203.54C223.61 202.333 222.043 201.038 220.519 199.764C219.713 199.105 218.941 198.435 218.135 197.776C217.02 196.849 215.513 196.53 214.113 196.987C213.713 197.118 213.368 197.305 213.034 197.525C212.098 198.163 211.494 199.135 211.299 200.232C211.104 201.329 211.353 202.429 211.991 203.364C213.795 205.948 216.043 208.423 218.902 210.958L218.912 210.991C221.583 213.292 224.345 215.304 227.131 216.94C232.458 220.143 238.175 221.374 243.582 220.529C245.702 220.242 247.767 219.788 249.701 219.155C255.769 217.172 260.304 213.66 262.793 208.971C262.793 208.971 262.793 208.971 262.816 208.927C264.308 206.04 264.858 202.982 264.408 200.14C263.927 197.087 262.301 194.371 259.706 192.304C259.695 192.271 259.662 192.282 259.651 192.248C256.25 189.633 252.272 188.978 248.313 188.833C247.335 187.197 246.269 185.516 245.124 183.934C238.082 174.132 230.614 168.898 222.311 167.996C219.141 167.667 215.922 167.981 212.822 168.995Z" fill="#040B11"/>
<path d="M222.965 210.179C221.698 210.593 220.303 210.163 219.521 209.127C219.092 208.604 209.393 195.869 212.67 183.543C214.586 176.311 218.973 173.474 222.307 172.384C225.941 171.196 229.121 171.78 229.132 171.814C230.827 172.145 231.949 173.771 231.629 175.5C231.4 176.608 230.596 177.535 229.529 177.883C229.029 178.047 228.486 178.077 227.976 177.985C227.976 177.985 226.292 177.687 224.358 178.319C221.591 179.224 219.725 181.532 218.739 185.175C216.301 194.423 224.436 205.196 224.512 205.318C225.581 206.667 225.314 208.673 223.955 209.708C223.61 209.894 223.298 210.07 222.965 210.179Z" fill="#040B11"/>
<path d="M222.819 174.063C225.986 173.027 228.734 173.531 228.767 173.52C229.52 173.68 230.015 174.404 229.856 175.157C229.764 175.667 229.374 176.053 228.907 176.205C228.707 176.271 228.452 176.28 228.219 176.246C228.064 176.223 226.069 175.878 223.735 176.641C221.235 177.459 218.339 179.55 216.967 184.722C214.268 194.866 222.943 206.275 223.042 206.353C223.505 206.977 223.411 207.819 222.787 208.282C222.676 208.392 222.509 208.446 222.376 208.49C221.842 208.664 221.233 208.494 220.859 208.026C220.473 207.525 211.259 195.481 214.287 183.974C215.976 177.739 219.618 175.109 222.819 174.063ZM221.729 170.729C217.961 171.96 213.052 175.115 210.942 183.112C209.491 188.605 210.241 194.965 213.098 201.559C215.211 206.441 217.831 209.828 218.106 210.218C219.372 211.833 221.554 212.523 223.487 211.89C224.021 211.716 224.521 211.442 224.967 211.112C227.084 209.46 227.479 206.379 225.827 204.262C225.761 204.172 218.133 194.046 220.378 185.673C221.194 182.639 222.68 180.75 224.847 180.042C226.281 179.573 227.522 179.758 227.633 179.759C228.42 179.907 229.252 179.857 230.052 179.595C231.752 179.039 233.014 177.594 233.335 175.865C233.575 174.569 233.305 173.291 232.579 172.2C231.854 171.109 230.737 170.404 229.43 170.13C229.297 170.063 225.796 169.399 221.729 170.729Z" fill="#040B11"/>
<path d="M203.23 166.52C202.263 166.836 201.186 166.93 200.134 166.757C196.975 166.24 194.728 163.543 195.199 160.806L195.715 157.758C195.785 157.293 196.053 156.873 196.41 156.609C196.555 156.488 196.721 156.433 196.888 156.379C197.155 156.292 197.443 156.271 197.72 156.328L205.799 157.673C206.74 157.844 207.401 158.736 207.229 159.677L206.712 162.725C206.436 164.476 205.13 165.899 203.23 166.52Z" fill="#040B11"/>
<path d="M197.456 158.001L205.534 159.346L205.018 162.393C204.844 163.557 203.919 164.45 202.718 164.842C202.052 165.06 201.264 165.133 200.444 164.995C198.216 164.616 196.651 162.877 196.939 161.048L197.456 158.001ZM196.366 154.667C196.033 154.776 195.721 154.952 195.42 155.161C194.674 155.7 194.17 156.529 193.987 157.437L193.471 160.485C193.138 162.402 193.748 164.38 195.092 165.896C196.271 167.245 197.974 168.164 199.847 168.475C201.176 168.704 202.541 168.59 203.775 168.187C206.275 167.369 208.062 165.383 208.453 162.967L208.97 159.92C209.302 158.003 208.015 156.21 206.098 155.877L198.02 154.532C197.476 154.452 196.899 154.493 196.366 154.667Z" fill="#040B11"/>
<g opacity="0.7">
<path d="M199.605 166.266C199.172 166.408 198.717 166.372 198.286 166.181C196.085 165.092 194.866 162.944 195.2 160.805L195.717 157.758C195.786 157.293 196.055 156.873 196.411 156.609C196.556 156.487 196.723 156.433 196.889 156.378C197.156 156.291 197.445 156.271 197.722 156.328L205.8 157.672C206.265 157.741 206.685 158.01 206.949 158.367C207.214 158.723 207.333 159.201 207.264 159.666L207.149 160.331C207.034 160.996 206.576 161.515 205.976 161.711C205.709 161.798 205.421 161.818 205.144 161.761L200.146 160.923L199.917 162.253C199.825 162.762 200.144 163.174 200.354 163.364C200.927 163.989 201.011 164.921 200.496 165.606C200.273 165.937 199.972 166.146 199.605 166.266Z" fill="#040B11"/>
<path d="M197.457 158.001L205.535 159.346L205.42 160.011L198.672 158.896L198.155 161.943C197.983 162.885 198.366 163.83 199.049 164.566C197.6 163.859 196.699 162.456 196.94 161.049L197.457 158.001ZM196.367 154.668C195.167 155.06 194.218 156.108 193.988 157.438L193.471 160.485C192.978 163.377 194.592 166.282 197.5 167.729C198.341 168.156 199.306 168.172 200.139 167.9C200.806 167.682 201.441 167.253 201.866 166.634C202.66 165.563 202.756 164.166 202.197 163.02L204.813 163.457C205.4 163.56 205.966 163.486 206.466 163.322C207.666 162.93 208.615 161.882 208.845 160.552L208.959 159.887C209.098 158.956 208.904 158.023 208.364 157.277C207.825 156.531 206.996 156.027 206.088 155.844L198.009 154.5C197.444 154.463 196.9 154.493 196.367 154.668Z" fill="#040B11"/>
</g>
<path d="M203.241 166.553C202.274 166.87 201.197 166.963 200.145 166.791C199.879 166.767 199.635 166.699 199.38 166.598C198.771 166.428 198.319 165.948 198.167 165.371C198.015 164.793 198.174 164.15 198.61 163.676C198.777 163.511 198.889 163.289 198.935 163.09L199.164 161.76L196.937 161.381C195.995 161.21 195.335 160.318 195.507 159.377L195.782 157.737C195.852 157.271 196.12 156.851 196.477 156.587C196.622 156.466 196.788 156.411 196.955 156.357C197.222 156.27 197.51 156.249 197.787 156.306L205.866 157.651C206.331 157.72 206.751 157.989 207.015 158.345C207.29 158.735 207.398 159.179 207.329 159.645L206.812 162.692C206.436 164.476 205.141 165.932 203.241 166.553Z" fill="#040B11"/>
<path d="M197.456 158.002L205.534 159.346L205.018 162.394C204.845 163.557 203.919 164.45 202.719 164.843C202.052 165.061 201.264 165.134 200.444 164.996C200.244 164.951 200.045 164.905 199.846 164.86C200.258 164.429 200.539 163.932 200.642 163.345L201.159 160.297L197.214 159.631L197.456 158.002ZM196.366 154.668C196.033 154.777 195.721 154.953 195.42 155.162C194.674 155.701 194.17 156.53 193.988 157.438L193.712 159.078C193.379 160.995 194.666 162.789 196.583 163.121L196.783 163.167C196.346 163.974 196.207 164.905 196.435 165.827C196.75 167.016 197.687 167.964 198.861 168.281C199.182 168.361 199.503 168.44 199.814 168.486C201.143 168.716 202.508 168.602 203.742 168.199C206.242 167.381 208.028 165.395 208.42 162.979L208.936 159.932C209.075 159.001 208.881 158.068 208.341 157.322C207.802 156.575 206.973 156.071 206.065 155.889L197.986 154.544C197.477 154.453 196.9 154.494 196.366 154.668Z" fill="#040B11"/>
<path d="M203.558 167.517C202.424 167.888 201.193 167.959 199.985 167.763C196.239 167.142 193.64 163.933 194.214 160.609L194.731 157.561C194.857 156.819 195.238 156.178 195.873 155.749C196.117 155.595 196.362 155.441 196.629 155.354C197.062 155.212 197.495 155.181 197.961 155.251L206.039 156.595C206.781 156.721 207.423 157.102 207.852 157.737C208.27 158.338 208.443 159.094 208.35 159.825L207.833 162.872C207.421 165 205.792 166.787 203.558 167.517ZM199.721 161.539C199.721 161.65 200.106 162.151 200.915 162.256C201.259 162.291 201.591 162.293 201.858 162.206C202.158 162.108 202.259 161.964 202.292 161.953L202.338 161.643L199.767 161.229L199.721 161.539Z" fill="#040B11"/>
<path d="M197.141 157.033C197.308 156.978 197.452 156.968 197.64 156.98L205.719 158.325C205.996 158.382 206.228 158.527 206.404 158.728C206.547 158.94 206.645 159.24 206.588 159.517L206.071 162.564C205.807 164.126 204.613 165.329 203.046 165.841C202.213 166.113 201.281 166.197 200.306 166.036C197.535 165.576 195.563 163.269 195.965 160.886L196.482 157.839C196.539 157.562 196.684 157.33 196.885 157.153C196.941 157.098 197.041 157.066 197.141 157.033ZM202.403 163.874C203.237 163.601 203.895 163.017 204.01 162.241L204.343 160.214L198.337 159.225L198.004 161.253C197.786 162.505 198.999 163.732 200.639 164.008C201.26 164.1 201.87 164.048 202.403 163.874ZM196.051 153.699C195.618 153.841 195.206 154.049 194.816 154.324C193.825 155.017 193.175 156.078 192.98 157.286L192.463 160.333C191.762 164.622 194.988 168.734 199.709 169.515C201.193 169.768 202.703 169.643 204.103 169.186C206.97 168.248 209.058 165.942 209.517 163.172L210.034 160.124C210.23 158.917 209.948 157.717 209.255 156.726C208.562 155.735 207.501 155.085 206.293 154.89L198.215 153.545C197.472 153.419 196.751 153.47 196.051 153.699Z" fill="#040B11"/>
<path d="M203.746 163.473C202.779 163.789 201.703 163.883 200.65 163.71C197.492 163.193 195.245 160.495 195.715 157.758C196.014 155.963 197.32 154.54 199.22 153.919C200.187 153.603 201.264 153.509 202.316 153.681C205.475 154.199 207.722 156.896 207.251 159.633C206.952 161.428 205.646 162.852 203.746 163.473Z" fill="#040B11"/>
<path d="M199.765 155.584C200.432 155.366 201.22 155.293 202.04 155.431C204.267 155.81 205.832 157.549 205.544 159.378C205.371 160.542 204.445 161.435 203.245 161.827C202.578 162.045 201.79 162.118 200.97 161.98C198.743 161.601 197.178 159.862 197.466 158.034C197.639 156.87 198.565 155.977 199.765 155.584ZM198.675 152.25C196.175 153.068 194.389 155.054 193.997 157.47C193.366 161.182 196.229 164.748 200.374 165.46C201.703 165.689 203.068 165.575 204.302 165.172C206.802 164.355 208.588 162.368 208.98 159.952C209.312 158.035 208.703 156.058 207.358 154.541C206.179 153.192 204.476 152.273 202.603 151.963C201.274 151.733 199.909 151.847 198.675 152.25Z" fill="#040B11"/>
<g opacity="0.7">
<path d="M202.226 163.674C202.026 163.74 201.848 163.761 201.626 163.759C201.294 163.758 200.983 163.711 200.673 163.665C197.515 163.148 195.267 160.451 195.738 157.714C196.037 155.918 197.343 154.495 199.243 153.874C200.21 153.558 201.286 153.464 202.339 153.637C202.65 153.683 202.971 153.762 203.303 153.875C204.122 154.124 204.661 154.981 204.501 155.845C204.386 156.51 203.928 157.029 203.328 157.225C203.161 157.279 202.95 157.312 202.728 157.31C202.396 157.308 202.074 157.34 201.774 157.438C201.14 157.645 200.717 158.042 200.647 158.507C200.543 159.205 201.215 160.019 202.234 160.313C203.064 160.595 203.592 161.419 203.432 162.284C203.284 162.959 202.826 163.478 202.226 163.674Z" fill="#040B11"/>
<path d="M199.766 155.586C200.432 155.368 201.22 155.295 202.04 155.433C202.273 155.467 202.517 155.535 202.76 155.603C202.206 155.6 201.706 155.653 201.206 155.816C200.006 156.209 199.08 157.102 198.907 158.265C198.62 159.872 199.842 161.465 201.692 162.042C201.47 162.04 201.204 162.017 200.971 161.982C198.744 161.603 197.179 159.864 197.466 158.035C197.64 156.872 198.565 155.978 199.766 155.586ZM198.676 152.252C196.175 153.07 194.389 155.056 193.998 157.472C193.665 159.389 194.275 161.367 195.619 162.883C196.798 164.232 198.501 165.151 200.374 165.462C200.762 165.519 201.183 165.566 201.593 165.58C202.004 165.593 202.392 165.54 202.759 165.42C203.959 165.027 204.908 163.979 205.138 162.65C205.368 161.209 204.688 159.807 203.483 159.057C203.617 159.014 203.728 159.014 203.861 158.971C205.061 158.578 206.01 157.53 206.24 156.2C206.527 154.483 205.505 152.824 203.855 152.293C203.479 152.158 203.08 152.067 202.659 152.02C201.274 151.735 199.909 151.849 198.676 152.252Z" fill="#040B11"/>
</g>
<path d="M203.747 163.473C202.78 163.789 201.704 163.882 200.64 163.676C199.743 163.527 198.946 163.234 198.239 162.764C197.542 162.327 197.27 161.494 197.496 160.719C197.688 160.176 198.112 159.78 198.612 159.616C198.845 159.54 199.056 159.508 199.322 159.531C199.743 159.578 200.132 159.525 200.499 159.405C201.132 159.198 201.556 158.801 201.625 158.336C201.717 157.826 201.343 157.247 200.691 156.833C199.995 156.396 199.689 155.574 199.948 154.788C200.14 154.245 200.553 153.815 201.053 153.652C201.253 153.586 201.497 153.543 201.73 153.578C201.919 153.59 202.107 153.602 202.307 153.648C205.498 154.154 207.712 156.862 207.241 159.599C206.954 161.428 205.648 162.851 203.747 163.473Z" fill="#040B11"/>
<path d="M201.62 155.385C201.731 155.385 201.886 155.408 202.008 155.442C204.235 155.821 205.8 157.561 205.512 159.389C205.339 160.553 204.413 161.446 203.213 161.838C202.546 162.056 201.758 162.129 200.938 161.991C200.273 161.877 199.687 161.663 199.167 161.316C199.81 161.364 200.454 161.301 201.021 161.116C202.221 160.723 203.147 159.83 203.32 158.667C203.56 157.37 202.858 156.124 201.62 155.385ZM200.563 152.04C199.53 152.378 198.66 153.216 198.31 154.29C197.903 155.529 198.239 156.896 199.121 157.788C198.788 157.786 198.444 157.862 198.111 157.971C197.077 158.309 196.23 159.103 195.88 160.176C195.349 161.715 195.972 163.394 197.331 164.278C198.26 164.86 199.278 165.265 200.397 165.416C201.727 165.645 203.092 165.531 204.325 165.128C206.826 164.31 208.612 162.324 209.003 159.908C209.635 156.196 206.771 152.63 202.627 151.919C202.394 151.884 202.128 151.86 201.895 151.826C201.418 151.834 200.963 151.909 200.563 152.04Z" fill="#040B11"/>
<path d="M204.074 164.473C202.94 164.844 201.709 164.914 200.501 164.719C198.75 164.443 197.169 163.557 196.078 162.253C194.932 160.893 194.421 159.215 194.719 157.531C195.053 155.392 196.683 153.605 198.916 152.874C200.05 152.504 201.282 152.433 202.489 152.629C204.251 152.939 205.821 153.791 206.912 155.095C208.058 156.455 208.569 158.132 208.271 159.817C207.984 161.534 206.944 162.981 205.33 163.915C204.952 164.112 204.507 164.332 204.074 164.473ZM200.627 158.22C200.327 158.318 200.226 158.461 200.226 158.461C200.236 158.606 200.678 159.052 201.42 159.178C201.764 159.213 202.096 159.215 202.363 159.128C202.463 159.095 202.53 159.074 202.586 159.019C202.675 158.952 202.73 158.897 202.764 158.886C202.709 158.72 202.312 158.296 201.57 158.17C201.26 158.123 200.894 158.132 200.627 158.22Z" fill="#040B11"/>
<path d="M199.473 154.574C200.306 154.302 201.238 154.219 202.213 154.38C205.017 154.828 206.956 157.147 206.554 159.529C206.347 160.704 205.609 161.72 204.463 162.39C204.152 162.566 203.862 162.697 203.529 162.806C202.662 163.089 201.719 163.139 200.788 163.001C197.984 162.552 196.046 160.234 196.448 157.851C196.678 156.3 197.872 155.098 199.473 154.574ZM202.875 160.806C203.075 160.74 203.264 160.642 203.42 160.554C204.01 160.213 204.368 159.727 204.482 159.173C204.677 157.965 203.487 156.694 201.847 156.418C201.215 156.293 200.571 156.356 200.071 156.519C199.238 156.792 198.58 157.376 198.465 158.151C198.269 159.359 199.46 160.631 201.1 160.906C201.731 161.032 202.342 160.98 202.875 160.806ZM198.383 151.241C195.515 152.178 193.428 154.484 192.968 157.254C192.601 159.404 193.253 161.626 194.718 163.398C196.096 165.015 198.031 166.08 200.18 166.447C201.665 166.7 203.219 166.598 204.619 166.14C205.186 165.955 205.697 165.714 206.198 165.439C208.257 164.286 209.643 162.32 209.989 160.104C210.356 157.954 209.704 155.732 208.205 153.971C206.828 152.354 204.893 151.289 202.744 150.922C201.303 150.692 199.783 150.783 198.383 151.241Z" fill="#040B11"/>
<path d="M216.169 186.567C215.903 186.654 215.603 186.752 215.292 186.817C211.259 187.914 206.974 186.658 202.945 183.252C196.763 178.003 192.294 168.283 192.987 161.598C193.562 156.133 196.86 151.771 201.627 150.212C206.761 148.534 214.239 150.185 219.829 159.834L227.361 169.328C227.614 169.651 227.756 170.085 227.743 170.495C227.762 171.006 227.005 183.025 216.169 186.567Z" fill="#040B11"/>
<path d="M202.205 151.869C207.172 150.245 213.615 152.457 218.414 160.814L226.012 170.397C226.012 170.397 225.426 181.697 215.624 184.901C215.357 184.988 215.124 185.065 214.846 185.119C204.303 187.975 193.763 171.198 194.738 161.765C195.277 156.865 198.271 153.155 202.205 151.869ZM201.115 148.535C195.681 150.312 191.903 155.237 191.268 161.423C190.516 168.717 195.138 178.904 201.827 184.577C206.264 188.33 211.226 189.734 215.769 188.507C216.069 188.409 216.414 188.333 216.714 188.235C221.715 186.6 225.518 182.995 227.7 177.817C229.263 174.132 229.47 170.928 229.505 170.584C229.554 169.719 229.282 168.886 228.731 168.217L221.276 158.845C218.684 154.416 215.508 151.247 211.858 149.451C208.418 147.735 204.582 147.402 201.115 148.535Z" fill="#040B11"/>
<path d="M216.202 186.557C215.902 186.655 215.635 186.742 215.324 186.807C211.291 187.904 207.006 186.648 202.966 183.208C196.785 177.959 192.316 168.239 193.009 161.554C193.584 156.089 196.881 151.727 201.649 150.168C204.449 149.253 207.487 149.403 210.408 150.662C213.54 152.001 216.343 154.479 218.752 158.009C218.762 158.043 218.762 158.043 218.807 158.065C219.17 158.611 219.543 159.19 219.895 159.813L227.427 169.307C227.68 169.63 227.822 170.063 227.808 170.474C227.783 170.962 227.05 182.604 216.769 186.371C216.535 186.448 216.368 186.502 216.202 186.557Z" fill="#040B11"/>
<path d="M202.205 151.869C206.772 150.376 212.63 152.151 217.271 159.011C217.645 159.59 218.018 160.169 218.414 160.814L226.012 170.397C226.012 170.397 225.45 181.32 216.091 184.749C215.924 184.803 215.79 184.847 215.624 184.901C215.357 184.988 215.124 185.065 214.846 185.119C204.303 187.975 193.763 171.198 194.738 161.765C195.277 156.865 198.271 153.155 202.205 151.869ZM201.115 148.535C195.681 150.312 191.903 155.237 191.268 161.423C190.516 168.717 195.138 178.904 201.827 184.577C206.264 188.33 211.226 189.734 215.769 188.507C216.08 188.442 216.414 188.333 216.747 188.224C216.947 188.159 217.147 188.094 217.314 188.039C228.718 183.868 229.502 171.139 229.538 170.573C229.588 169.708 229.315 168.875 228.765 168.206L221.309 158.835C220.969 158.245 220.595 157.666 220.232 157.12C220.221 157.087 220.177 157.064 220.166 157.031C217.593 153.223 214.536 150.532 211.062 149.048C207.808 147.676 204.349 147.478 201.115 148.535Z" fill="#040B11"/>
<path d="M216.671 187.993C215.737 188.298 214.771 188.503 213.783 188.642C210.254 189.021 203.415 188.194 196.837 178.683C192.713 172.503 190.917 166.559 191.548 161.038C192.146 155.418 196.045 150.527 201.213 148.838C202.78 148.325 204.378 148.135 205.997 148.233C210.233 148.435 214.545 150.789 217.519 154.467C218.83 156.105 219.895 157.897 220.638 159.831C221.13 161.11 220.523 162.526 219.244 163.018C219.211 163.029 219.144 163.05 219.111 163.061C218.144 163.377 217.048 163.071 216.409 162.247C213.215 158.346 209.986 154.789 205.639 154.587C204.851 154.549 204.074 154.655 203.308 154.906C200.54 155.811 198.372 158.66 198.043 161.83C197.762 164.358 198.345 167.156 199.911 170.704C201.378 173.951 203.557 177.003 205.796 179.112C208.544 181.646 211.3 182.627 213.965 182.088C214.209 182.045 214.476 181.957 214.71 181.881C216.643 181.249 218.369 180.094 219.632 178.538C221.397 176.374 222.367 173.584 223.371 170.673L223.619 169.964C223.845 169.189 224.414 168.56 225.215 168.299C225.915 168.07 226.724 168.174 227.332 168.566C227.939 168.958 228.335 169.603 228.431 170.347C229.264 177.75 224.072 185.573 216.671 187.993Z" fill="#040B11"/>
<path d="M201.747 150.472C203.047 150.047 204.424 149.855 205.899 149.963C209.913 150.164 213.693 152.471 216.137 155.546C217.36 157.029 218.315 158.709 219.004 160.477C219.157 160.833 218.955 161.231 218.599 161.384L218.566 161.395C218.266 161.493 217.978 161.403 217.791 161.169C214.663 157.357 210.983 153.099 205.727 152.824C204.673 152.763 203.685 152.901 202.752 153.206C199.218 154.362 196.669 157.852 196.303 161.588C195.918 164.924 196.941 168.28 198.31 171.338C201.005 177.21 207.103 185.254 214.378 183.688C214.688 183.623 214.989 183.525 215.289 183.427C217.522 182.697 219.516 181.344 221.024 179.522C223.191 176.895 224.231 173.529 225.325 170.33C225.382 170.053 225.549 169.887 225.783 169.811C226.183 169.68 226.659 169.894 226.711 170.393C227.426 177.208 222.605 184.135 216.104 186.26C215.271 186.533 214.449 186.728 213.561 186.833C207.101 187.506 201.684 182.561 198.263 177.627C195.074 172.839 192.622 167.035 193.255 161.182C193.805 156.316 197.18 151.965 201.747 150.472ZM200.657 147.138C194.856 149.034 190.487 154.522 189.819 160.829C189.174 166.76 191.057 173.082 195.401 179.596C195.411 179.629 195.411 179.629 195.422 179.663C196.951 181.857 199.451 184.988 202.821 187.281C206.39 189.731 210.166 190.785 213.951 190.396C213.984 190.385 213.984 190.385 214.017 190.374C215.083 190.247 216.182 189.999 217.216 189.661C225.384 186.99 231.091 178.372 230.218 170.059C230.059 168.782 229.4 167.669 228.328 166.986C227.256 166.303 225.937 166.107 224.704 166.511C223.37 166.947 222.377 167.972 222.003 169.312C221.924 169.523 221.856 169.766 221.778 169.977C220.841 172.755 219.927 175.379 218.341 177.3C217.291 178.602 215.866 179.548 214.232 180.082C214.032 180.148 213.832 180.213 213.621 180.245C211.544 180.666 209.342 179.799 207.036 177.711C204.928 175.78 202.926 172.929 201.557 169.871C200.134 166.646 199.605 164.125 199.851 161.941C199.851 161.941 199.84 161.908 199.873 161.897C200.131 159.414 201.797 157.172 203.931 156.474C204.464 156.3 205.03 156.225 205.629 156.251C209.266 156.427 212.099 159.561 215.161 163.283C216.262 164.62 218.067 165.174 219.734 164.629C219.801 164.608 219.901 164.575 219.968 164.553C221.013 164.138 221.827 163.355 222.299 162.315C222.737 161.286 222.766 160.133 222.351 159.087C221.52 156.997 220.4 155.039 218.935 153.267C215.686 149.199 210.887 146.598 206.13 146.382C204.233 146.338 202.391 146.571 200.657 147.138Z" fill="#040B11"/>
<path d="M203.879 92.6504C203.879 92.6504 213.965 115.037 208.024 141.113C203.881 159.369 185.553 177.354 185.553 177.354L161.939 165.737C161.939 165.737 178.876 146.657 182.685 134.378C187.715 118.046 185.277 108.105 184.401 104.295" fill="white"/>
<path d="M208.412 139.254C208.287 139.885 208.15 140.484 208.024 141.115C205.475 152.281 197.658 163.361 191.95 170.283C188.33 174.677 185.564 177.389 185.564 177.389L161.95 165.773C161.95 165.773 178.887 146.692 182.696 134.413C187.726 118.082 185.288 108.14 184.411 104.331L203.89 92.6856C203.879 92.6522 213.472 113.982 208.412 139.254Z" fill="white"/>
<path d="M205.865 98.1646C208.382 106.088 211.907 121.726 208.379 139.264C208.253 139.896 208.116 140.494 207.991 141.125C205.442 152.291 197.624 163.371 191.916 170.293C188.297 174.687 185.53 177.4 185.53 177.4L161.916 165.783C161.916 165.783 178.853 146.703 182.662 134.423C187.692 118.092 185.254 108.15 184.378 104.341L194.473 98.3095L203.856 92.6957C203.879 92.6515 204.754 94.6531 205.865 98.1646Z" fill="#FFEE00"/>
<path d="M208.412 139.253C208.286 139.885 208.149 140.483 208.024 141.115C205.475 152.281 197.657 163.361 191.949 170.282C188.107 163.383 184.09 155.95 184.423 155.841C184.924 155.678 201.266 151.147 208.412 139.253Z" fill="#CFB500"/>
<path d="M185.81 179.042L159.685 166.179L160.902 164.822C161.058 164.623 177.683 145.83 181.334 133.971C186.184 118.215 183.911 108.441 183.045 104.776L183.001 104.642C182.828 103.887 183.287 103.146 184.042 102.973C184.798 102.8 185.538 103.259 185.711 104.015L185.755 104.148C186.653 108.024 189.056 118.309 183.969 134.807C180.691 145.437 168.113 160.693 164.127 165.318L185.23 175.689C188.567 172.236 203.044 156.469 206.64 140.828C212.421 115.505 202.71 93.4756 202.6 93.2531C202.294 92.5415 202.587 91.7445 203.287 91.4047C203.999 91.0983 204.796 91.3913 205.136 92.092C205.552 93.0262 215.34 115.178 209.343 141.421C205.154 159.876 187.26 177.608 186.502 178.336L185.81 179.042Z" fill="#040B11"/>
<path d="M173.451 150.498C161.636 139.304 129.529 169.322 131.959 176.757C136.461 190.526 167.337 229.549 200.823 220.114C228.943 212.213 237.104 178.141 224.019 168.027C212.115 158.819 195.975 158.892 184.39 155.852" fill="white"/>
<path d="M228.544 192.932C225.05 204.37 215.755 215.896 200.823 220.114C181.158 225.657 162.411 214.479 149.33 201.559C142.669 194.954 137.518 187.891 134.456 182.361C133.281 180.236 132.438 178.334 131.926 176.767C129.506 169.366 161.614 139.348 173.429 150.541L176.625 152.079L184.39 155.851C195.941 158.902 212.114 158.818 224.018 168.027C230.147 172.776 231.619 182.812 228.544 192.932Z" fill="#FFEE00"/>
<path d="M158.092 180.722L174.799 162.972C178.393 159.177 184.35 159.001 188.167 162.55L198.504 172.271C202.299 175.865 202.476 181.822 198.926 185.639L182.219 203.39C178.625 207.185 172.668 207.361 168.85 203.812L158.48 194.102C154.685 190.508 154.509 184.551 158.092 180.722Z" fill="#040B11"/>
<path d="M173.507 184.983L170.549 188.127L163.676 181.665L166.545 178.587C167.806 177.252 169.293 177.061 170.363 178.076L170.374 178.11C171.168 178.846 171.208 179.645 171.038 180.365C172.061 179.883 172.971 179.844 173.886 180.726L173.897 180.759C175.199 181.92 174.902 183.493 173.507 184.983ZM169.3 179.789C168.869 179.377 168.27 179.462 167.701 180.091L166.361 181.525L167.806 182.898L169.067 181.563C169.659 180.89 169.829 180.281 169.3 179.789ZM172.382 181.992C171.907 181.557 171.341 181.631 170.627 182.382L169.042 184.081L170.542 185.509L172.16 183.799C172.775 183.082 172.911 182.483 172.382 181.992Z" fill="#FFF3D4"/>
<path d="M178.573 179.599L171.7 173.137L176.377 168.139L177.712 169.4L174.364 172.93L175.754 174.247L178.689 171.147L180.024 172.408L177.088 175.508L178.523 176.848L181.893 173.273L183.228 174.535L178.573 179.599Z" fill="#FFD000"/>
<path d="M183.743 194.847C181.88 196.822 179.151 196.828 177.187 194.998L177.176 194.965C175.301 193.179 175.073 190.338 176.915 188.408C177.975 187.249 178.964 186.889 180.174 186.752L180.44 188.694C179.552 188.8 178.908 188.974 178.194 189.724C177.234 190.739 177.413 192.415 178.538 193.486L178.549 193.519C179.774 194.669 181.404 194.689 182.475 193.564C182.933 193.046 183.258 192.46 183.328 191.883L182.379 191.013L181.029 192.413L179.76 191.241L182.361 188.472L185.24 191.184C185.211 192.338 184.837 193.678 183.743 194.847Z" fill="#FFD000"/>
<path d="M191.69 186.419C189.826 188.394 186.975 188.366 185.111 186.614L185.1 186.58C183.225 184.795 183.031 181.943 184.894 179.968C186.758 177.994 189.609 178.021 191.473 179.773L191.484 179.807C193.348 181.559 193.553 184.444 191.69 186.419ZM190.111 181.252C188.986 180.181 187.267 180.115 186.229 181.229C185.158 182.355 185.37 184.02 186.495 185.091L186.506 185.124C187.631 186.196 189.35 186.261 190.388 185.147C191.449 183.988 191.236 182.323 190.111 181.252Z" fill="#FFF3D4"/>
<path d="M164.49 155.704L151.145 169.877L161.104 179.254L174.449 165.081L164.49 155.704Z" fill="#040B11"/>
<path d="M151.194 182.536C142.83 184.495 137.645 183.534 134.955 182.531L140.077 179.122C140.077 179.122 146.244 179.246 151.194 182.536Z" fill="#E8E8E8"/>
<path d="M172.492 151.511C165.54 145.26 151.976 154.565 146.169 159.379C141.766 163.069 134.751 169.717 133.277 175.255C133.219 175.753 133.128 176.041 133.314 176.497C134.111 178.82 135.34 181.112 136.614 183.316C145.845 198.232 160.151 212.08 176.955 217.879C200.013 225.987 224.523 211.332 228.3 187.218C229.247 180.745 228.338 172.998 222.749 168.884C222.396 168.593 221.589 168.045 221.214 167.799C210.298 160.371 196.465 160.612 184.243 156.526C183.446 156.233 183.763 155.06 184.583 155.197C198.136 157.372 213.006 158.046 224.482 166.62C235.404 174.858 232.039 192.785 225.725 202.931C213.23 223.069 189.241 228.254 168.594 217.476C154.339 210.106 142.617 198.291 134.221 184.688C132.87 182.362 131.575 179.981 130.67 177.325C130.561 176.992 130.387 176.347 130.411 175.97C130.427 173.308 131.949 170.965 133.303 168.899C138.011 162.304 144.143 156.905 150.846 152.462C155.477 149.583 160.45 146.961 166.075 146.672C169.016 146.522 172.183 147.406 174.345 149.503C175.69 150.798 173.849 152.728 172.492 151.511Z" fill="#040B11"/>
<path d="M230.499 177.126C230.499 177.126 236.677 165.77 228.48 156.162C219.225 145.349 202.19 152.616 200.53 165.262C199.08 176.29 230.499 177.126 230.499 177.126Z" fill="white"/>
<path d="M232.722 166.879C232.967 172.593 230.5 177.127 230.5 177.127C230.5 177.127 199.081 176.29 200.509 165.307C201.205 160.097 204.513 155.768 208.798 153.297C214.908 149.75 223.016 149.83 228.458 156.206C231.521 159.707 232.586 163.529 232.722 166.879Z" fill="#FFEE00"/>
<path d="M232.721 166.879C232.965 172.593 230.499 177.126 230.499 177.126C230.499 177.126 199.08 176.29 200.508 165.306C201.203 160.097 204.512 155.768 208.796 153.297C211.524 153.402 214.835 154.497 218.733 157.503C222.476 160.375 226.489 168.584 232.721 166.879Z" fill="#CFB500"/>
<path d="M231.324 178.518L230.47 178.502C229.505 178.485 207.07 177.812 200.834 170.477C199.457 168.861 198.902 167.05 199.146 165.088C200.028 158.415 205.064 152.599 211.765 150.408C211.932 150.354 212.098 150.299 212.265 150.245C218.754 148.308 225.199 150.186 229.517 155.269C238.243 165.48 231.784 177.666 231.716 177.799L231.324 178.518ZM212.626 153.042C206.925 154.906 202.637 159.85 201.884 165.447C201.711 166.611 202.059 167.678 202.897 168.659C207.215 173.742 222.89 175.407 229.621 175.679C230.768 173.09 233.801 164.534 227.4 157.032C223.753 152.762 218.504 151.268 213.048 152.867C212.926 152.944 212.759 152.998 212.626 153.042Z" fill="#040B11"/>
<path d="M153.511 203.625C153.511 203.625 132.184 220.34 118.285 210.898C101.679 199.61 105.138 167.297 109.348 158.503C114.467 147.862 130.04 171.001 130.04 171.001L131.704 184.443L139.254 179.318C139.254 179.318 152.152 179.714 155.366 189.66C158.581 199.606 153.511 203.625 153.511 203.625Z" fill="#FFEE00"/>
<path d="M155.522 189.682C156.819 193.65 156.78 196.689 156.245 198.893C155.483 202.205 153.623 203.625 153.623 203.625C153.623 203.625 132.218 220.328 118.319 210.886C101.68 199.609 105.139 167.296 109.349 158.502C114.468 147.861 130.085 171.023 130.085 171.023L131.548 182.833L131.749 184.465L139.332 179.329C139.343 179.362 152.274 179.747 155.522 189.682Z" fill="#FFEE00"/>
<path d="M151.194 182.536C142.83 184.495 137.645 183.534 134.955 182.531L140.077 179.122C140.077 179.122 146.244 179.246 151.194 182.536Z" fill="#FFEE00"/>
<path d="M157.212 198.576C156.417 201.899 154.489 203.341 154.489 203.341C154.489 203.341 132.551 220.218 118.419 210.852C101.513 199.662 105.238 167.262 109.615 158.413C114.902 147.718 130.685 170.825 130.685 170.825L132.081 182.657C128.42 182.747 115.613 183.871 114.741 194.636C113.796 206.533 128.719 215.382 157.212 198.576Z" fill="#CFB500"/>
<path d="M155.128 204.166C147.073 210.231 136.025 216.057 125.649 214.91C120.107 214.324 115.08 210.911 111.822 206.478C105.428 197.756 104.174 186.357 104.623 175.878C104.954 170.456 106.141 160.768 109.272 156.349C115.929 148.379 128.124 164.91 131.832 170.045C131.964 170.224 132.04 170.457 132.072 170.668L133.703 184.121L131.568 183.121L139.318 177.931C139.953 177.502 140.817 177.662 141.246 178.297C141.675 178.932 141.514 179.796 140.88 180.225L133.13 185.415C132.495 185.844 131.631 185.684 131.202 185.049C131.07 184.871 130.993 184.638 130.972 184.46L129.375 170.996L129.616 171.619C126.733 167.542 123.451 163.486 119.677 160.181C117.822 158.684 114.885 156.249 112.506 157.211C111.672 157.594 111.078 158.6 110.73 159.452C109.482 162.296 108.821 165.353 108.282 168.445C106.449 180.447 106.777 194.658 114.072 204.783C116.956 208.637 121.165 211.579 126.021 212.095C135.665 213.149 146.089 207.785 153.884 202.506C154.953 201.714 156.175 203.307 155.128 204.166Z" fill="#040B11"/>
<path d="M198.723 192.018C200.039 187.012 206.632 172.863 220.729 172.978C235.414 173.085 244.897 192.384 245.932 193.854C247.584 193.942 255.063 193.342 258.377 197.72C259.335 198.957 260.223 200.77 259.955 202.887C258.811 212.819 245.89 216.415 238.894 215.898C228.184 215.082 215.797 201.123 215.797 201.123C215.797 201.123 209.364 203.005 204.819 200.505C199.999 197.837 198.723 192.018 198.723 192.018Z" fill="white"/>
<path d="M259.955 202.886C258.811 212.818 245.89 216.414 238.894 215.897C228.184 215.081 215.797 201.122 215.797 201.122C215.797 201.122 209.364 203.004 204.819 200.504C199.999 197.836 198.701 192.061 198.701 192.061C199.087 190.532 199.977 188.175 201.434 185.632C204.717 179.761 210.902 172.942 220.707 173.021C223.857 173.061 226.802 173.944 229.456 175.401C239.098 180.625 245.128 192.751 245.943 193.887C247.595 193.974 255.074 193.374 258.388 197.752C258.409 197.819 258.454 197.841 258.509 197.897C259.378 199.089 260.211 200.846 259.955 202.886Z" fill="#FFEE00"/>
<path d="M198.081 191.86C200.187 180.581 210.318 170.368 222.356 171.635C231.158 172.596 237.819 179.312 242.704 186.128C244.311 188.334 245.683 190.727 247.068 193.042L246.028 192.459C250.077 192.427 254.513 192.563 257.948 195.168C261.9 198.341 262.439 203.036 260.162 207.471C256.943 213.541 250.005 216.363 243.567 217.213C238.471 217.993 233.632 216.623 229.365 214.07C226.59 212.468 224.017 210.578 221.644 208.512C219.304 206.436 217.121 204.16 215.306 201.543C215.097 201.242 215.177 200.81 215.478 200.601C215.745 200.403 216.089 200.438 216.343 200.651C218.716 202.606 221.023 204.582 223.375 206.47C227.902 210.046 233.138 213.759 238.869 214.358C246.465 214.79 257.789 211.051 258.505 202.292C258.571 200.573 257.562 198.615 256.126 197.498C254.492 196.224 252.487 195.735 250.403 195.457C249.328 195.329 248.197 195.256 247.088 195.249C246.378 195.223 245.257 195.405 244.818 194.626C240.886 187.793 236.202 180.8 229.248 176.8C222.505 172.768 213.879 174.038 208.136 179.273C206.219 180.97 204.565 183.024 203.1 185.201C201.634 187.377 200.378 189.744 199.366 192.178C199.106 192.964 197.932 192.647 198.081 191.86Z" fill="#040B11"/>
<path d="M222.764 208.66C222.23 208.834 221.621 208.664 221.247 208.196C220.861 207.695 211.647 195.651 214.675 184.144C217.986 171.696 229.033 173.656 229.111 173.668C229.864 173.827 230.359 174.551 230.199 175.305C230.04 176.058 229.316 176.553 228.563 176.393C228.208 176.325 219.93 174.935 217.311 184.869C214.612 195.014 223.287 206.422 223.386 206.5C223.848 207.124 223.755 207.967 223.131 208.429C223.064 208.562 222.897 208.616 222.764 208.66Z" fill="#040B11"/>
<path d="M200.798 165.174C203.026 165.553 205.073 164.367 205.372 162.572L205.889 159.525L197.811 158.18L197.294 161.228C197.006 163.056 198.571 164.795 200.798 165.174Z" fill="#22A7F0"/>
<g opacity="0.7">
<path d="M199.437 164.735C198.753 163.999 198.382 163.087 198.542 162.112L199.059 159.065L205.808 160.18L205.923 159.515L197.844 158.17L197.327 161.218C197.086 162.625 197.988 164.028 199.437 164.735Z" fill="white"/>
</g>
<path d="M200.798 165.174C203.026 165.553 205.073 164.367 205.372 162.572L205.889 159.525L197.811 158.18L197.535 159.82L201.48 160.486L200.963 163.534C200.86 164.121 200.58 164.618 200.167 165.049C200.4 165.083 200.599 165.129 200.798 165.174Z" fill="#1C7AEA"/>
<path d="M203.356 166C202.523 166.272 201.59 166.356 200.615 166.195C197.845 165.735 195.873 163.427 196.275 161.045L196.792 157.998C196.849 157.721 196.994 157.489 197.195 157.312C197.406 157.169 197.706 157.071 197.983 157.128L206.062 158.473C206.339 158.53 206.571 158.675 206.747 158.876C206.89 159.088 206.988 159.388 206.931 159.665L206.414 162.712C206.15 164.274 204.956 165.477 203.356 166ZM198.68 159.373L198.347 161.401C198.129 162.653 199.342 163.88 200.982 164.156C202.655 164.421 204.169 163.631 204.364 162.423L204.697 160.395L198.68 159.373Z" fill="#371A45"/>
<path d="M205.899 159.496C206.201 157.68 204.632 155.908 202.396 155.537C200.161 155.166 198.104 156.337 197.803 158.152C197.501 159.968 199.07 161.74 201.306 162.111C203.542 162.482 205.598 161.311 205.899 159.496Z" fill="#22A7F0"/>
<g opacity="0.7">
<path d="M201.315 162.127C201.548 162.162 201.814 162.185 202.036 162.187C200.187 161.61 198.965 160.017 199.251 158.41C199.504 156.815 201.175 155.715 203.104 155.748C202.861 155.68 202.651 155.602 202.384 155.578C200.157 155.199 198.109 156.385 197.811 158.18C197.512 159.975 199.088 161.748 201.315 162.127Z" fill="white"/>
</g>
<path d="M201.315 162.128C203.542 162.507 205.59 161.321 205.889 159.526C206.188 157.731 204.612 155.958 202.385 155.579C202.263 155.545 202.118 155.555 201.997 155.521C203.201 156.271 203.948 157.54 203.73 158.792C203.443 160.51 201.629 161.62 199.544 161.453C200.053 161.766 200.65 162.013 201.315 162.128Z" fill="#1C7AEA"/>
<path d="M203.905 162.943C203.038 163.226 202.095 163.276 201.164 163.138C198.361 162.689 196.422 160.371 196.824 157.988C197.226 155.606 199.819 154.057 202.59 154.516C205.393 154.965 207.332 157.284 206.93 159.666C206.724 160.841 205.986 161.857 204.839 162.527C204.528 162.702 204.205 162.845 203.905 162.943ZM200.425 156.7C199.592 156.973 198.934 157.557 198.818 158.332C198.623 159.54 199.813 160.812 201.453 161.087C202.307 161.214 203.117 161.097 203.774 160.735C204.364 160.394 204.721 159.908 204.835 159.354C205.031 158.147 203.84 156.875 202.2 156.599C201.58 156.507 200.958 156.526 200.425 156.7Z" fill="#371A45"/>
<path d="M226.367 170.581C226.367 170.581 225.755 182.48 215.212 185.336C204.669 188.192 194.129 171.415 195.104 161.982C196.255 150.83 210.137 145.996 218.769 160.998L226.367 170.581Z" fill="white"/>
<path d="M226.4 170.569C226.4 170.569 225.837 181.491 216.478 184.92C216.078 185.051 215.644 185.193 215.244 185.323C204.701 188.18 194.161 171.403 195.136 161.969C196.23 151.316 209.014 146.399 217.658 159.182C218.032 159.761 218.406 160.34 218.801 160.986L226.4 170.569Z" fill="#FFEE00"/>
<path d="M227.077 170.606C227.887 178.275 221.63 186.115 213.927 187.046C207.468 187.719 202.05 182.774 198.629 177.84C195.44 173.052 192.989 167.248 193.622 161.395C194.324 155.076 199.69 149.706 206.221 150.154C210.235 150.354 214.015 152.661 216.46 155.737C217.682 157.219 218.638 158.899 219.326 160.667C219.479 161.023 219.277 161.421 218.922 161.574C218.632 161.706 218.3 161.593 218.113 161.359C214.985 157.547 211.305 153.289 206.049 153.014C201.048 152.73 197.107 157.045 196.636 161.812C196.251 165.148 197.274 168.504 198.643 171.562C201.338 177.434 207.436 185.478 214.711 183.912C217.31 183.283 219.636 181.821 221.357 179.746C223.524 177.119 224.564 173.753 225.658 170.553C225.873 169.745 226.971 169.829 227.077 170.606Z" fill="#040B11"/>
<path d="M62.9327 73.4102L130.936 31.5094C152.899 17.982 181.666 24.8147 195.193 46.7775L212.479 74.8183C226.006 96.7811 219.173 125.548 197.211 139.075L129.207 180.976C107.244 194.503 78.4776 187.671 64.9502 165.708L47.6646 137.667C34.1372 115.704 40.9699 86.9375 62.9327 73.4102Z" fill="#FFEE00"/>
<path d="M132.441 33.9691C153.046 21.2547 180.018 27.6777 192.721 48.2492L210.007 76.2901C222.721 96.8949 216.298 123.867 195.727 136.57L127.723 178.471C107.118 191.186 80.1464 184.763 67.4429 164.191L50.1572 136.15C37.4428 115.545 43.8658 88.5734 64.4374 75.8699L132.441 33.9691ZM129.386 29.0266L61.3823 70.9274C50.1169 77.8946 42.2117 88.819 39.1534 101.701C36.0952 114.584 38.2366 127.907 45.2038 139.172L62.4895 167.213C69.4567 178.478 80.381 186.383 93.2634 189.442C106.146 192.5 119.469 190.359 130.734 183.391L198.749 141.524C210.014 134.557 217.919 123.632 220.977 110.75C224.036 97.8676 221.894 84.5447 214.927 73.2793L197.641 45.2385C190.674 33.973 179.75 26.0678 166.867 23.0096C153.985 19.9513 140.651 22.0594 129.386 29.0266Z" fill="#040B11"/>
<path d="M86.4446 97.0161L141.457 63.1263C157.977 52.9284 179.588 58.078 189.786 74.5976L198.907 89.4028C209.104 105.922 203.955 127.533 187.435 137.731L132.422 171.621C115.903 181.819 94.292 176.669 84.0941 160.15L74.9733 145.344C64.8196 128.847 69.9584 107.203 86.4446 97.0161Z" fill="#040B11"/>
<path d="M123.22 144.489C125.43 143.127 123.076 135.298 117.962 127.004C112.849 118.709 106.912 113.089 104.702 114.451C102.493 115.814 104.847 123.642 109.96 131.937C115.074 140.232 121.011 145.851 123.22 144.489Z" fill="#FFEE00"/>
<path d="M167.359 117.285C169.568 115.923 167.214 108.094 162.101 99.7995C156.987 91.5048 151.05 85.885 148.84 87.2472C146.631 88.6095 148.985 96.438 154.098 104.733C159.212 113.027 165.149 118.647 167.359 117.285Z" fill="#FFEE00"/>
<path d="M76.0377 127.729L46.8062 145.75L64.8272 174.982L94.0588 156.96L76.0377 127.729Z" fill="#040B11"/>
<path d="M199.133 51.8344L169.902 69.8555L187.923 99.0871L217.155 81.066L199.133 51.8344Z" fill="#040B11"/>
<path d="M64.7202 174.823C55.2249 180.658 42.7856 177.714 36.9506 168.218L33.4782 162.563C28.5113 154.482 31.0131 143.848 39.0946 138.881L43.7589 135.991L66.8687 173.494L64.7202 174.823Z" fill="#FFEE00"/>
<path d="M42.9293 139.436L63.4239 172.664C55.1308 177.774 44.2199 175.216 39.0992 166.889L35.6268 161.234C31.3741 154.321 33.5008 145.249 40.4135 140.997L42.9293 139.436ZM44.5777 132.513L37.7541 136.7C28.4813 142.425 25.5936 154.588 31.319 163.86L34.7913 169.515C41.3739 180.168 55.375 183.488 66.0391 176.939L70.3027 174.29L47.1929 136.788L44.5777 132.513Z" fill="#040B11"/>
<path d="M217.706 78.0537L194.596 40.5509L199.261 37.6607C207.342 32.6938 217.976 35.1955 222.943 43.2771L226.415 48.9319C232.25 58.4272 229.306 70.8665 219.81 76.7015L217.706 78.0537Z" fill="#FFEE00"/>
<path d="M200.557 39.82C207.47 35.5674 216.542 37.694 220.795 44.6068L224.267 50.2616C229.377 58.5547 226.818 69.4656 218.492 74.5864L197.997 41.3581L200.557 39.82ZM197.942 35.5455L191.119 39.7322L216.888 81.5318L221.151 78.8833C231.805 72.3007 235.124 58.2996 228.575 47.6355L225.103 41.9807C219.377 32.7079 207.182 29.8311 197.942 35.5455Z" fill="#040B11"/>
<path opacity="0.34" d="M39.0991 166.888C39.0991 166.888 47.0902 169.885 52.7624 167.256L37.6194 142.721L45.4285 135.002L68.3972 175.798C68.3972 175.798 50.4286 185.289 44.7693 176.105L39.0991 166.888Z" fill="black"/>
<path opacity="0.34" d="M198.042 41.3806L200.558 39.8201L217.536 67.3711C217.536 67.3711 228.587 60.9905 219.111 42.3898C209.602 23.8 229.993 51.9697 229.993 51.9697C229.993 51.9697 227.689 76.3034 219.197 79.3379C210.727 82.4391 198.042 41.3806 198.042 41.3806Z" fill="black"/>
<path opacity="0.34" d="M104.69 114.448C104.69 114.448 127.46 141.544 117.573 144.26C107.674 146.942 130.261 157.788 132.588 148.65C134.915 139.513 114.248 109.256 104.69 114.448Z" fill="black"/>
<path opacity="0.34" d="M149.006 87.1176C149.006 87.1176 171.776 114.214 161.889 116.93C151.99 119.612 174.577 130.458 176.904 121.32C179.187 112.16 158.564 81.9263 149.006 87.1176Z" fill="black"/>
<path opacity="0.34" d="M87.4826 57.5235C87.4826 57.5235 124.768 35.555 149.14 38.9903C173.511 42.4255 197.659 95.9733 202.309 107.148C206.959 118.322 145.713 171.188 117.594 184.735C117.594 184.735 184.277 150.646 201.783 136.694C219.29 122.741 227.904 98.5219 217.146 81.0785C206.387 63.635 187.598 34.7203 187.598 34.7203C187.598 34.7203 158.403 15.7394 136.818 27.1504C115.234 38.5613 87.4826 57.5235 87.4826 57.5235Z" fill="black"/>
<path d="M54.1539 120.378C53.9173 122.927 50.3 123.151 49.7487 120.674C48.6126 115.731 48.2151 109.662 50.1257 103.428C54.7496 88.3362 68.4193 79.9187 68.4193 79.9187L92.219 65.2373C92.2081 65.204 57.3013 86.3211 54.1539 120.378Z" fill="white"/>
<path d="M37.3926 147.335C37.3926 147.335 32.9681 152.878 37.8939 160.382C37.8939 160.382 36.7361 155.373 40.3707 152.155L37.3926 147.335Z" fill="white"/>
<path d="M206.553 44.5032C205.388 42.633 206.966 40.2351 209.149 40.5916C210.279 40.7756 211.608 41.116 213.136 41.7238C219.112 44.0877 220.672 56.3091 218.79 61.2785C218.79 61.2785 215.752 49.6143 210.052 47.4184C208.58 46.8664 207.355 45.8278 206.553 44.5032Z" fill="white"/>
<path d="M78.6574 129.637C76.8205 130.791 74.3989 129.479 74.3226 127.327C74.2194 124.077 74.59 119.453 76.5827 114.374C80.3314 104.845 91.5552 99.3306 91.5552 99.3306C91.5552 99.3306 77.3065 111.96 80.3327 125.731C80.6789 127.242 79.982 128.835 78.6574 129.637Z" fill="#FFF3D4"/>
</svg>
