<svg width="29" height="29" viewBox="0 0 29 29" fill="none" xmlns="http://www.w3.org/2000/svg">
<g clip-path="url(#clip0_1374_5683)">
<path d="M17.816 17.5816L16.6522 13.9811L16.644 13.9562C16.273 12.8916 15.2747 12.1772 14.1603 12.1772H5.76752C4.65312 12.1777 3.65482 12.8925 3.28381 13.9562L2.10907 17.592C1.6927 17.768 1.30989 18.0293 0.981967 18.369C0.348791 19.024 0 19.8826 0 20.7866V26.7339C0 27.9831 1.01644 28.9995 2.26555 28.9995C3.41897 28.9995 4.37281 28.1332 4.51297 27.017H15.4248C15.5645 28.1328 16.5188 28.9995 17.6722 28.9995C18.8256 28.9995 19.9378 28.0543 19.9378 27.017V20.7299C19.9378 19.3075 19.0588 18.0869 17.8165 17.5812L17.816 17.5816ZM5.76798 14.4438H14.1603C14.3072 14.4433 14.446 14.5463 14.5018 14.6946L15.3541 17.3317H4.5742L5.42644 14.6946C5.48178 14.5463 5.62102 14.4438 5.76798 14.4438ZM17.6718 23.6192C17.6718 24.2438 17.1638 24.7522 16.5388 24.7522H3.39856C2.774 24.7522 2.26555 24.2438 2.26555 23.6192V20.7871C2.26555 20.1421 2.78443 19.5978 3.39856 19.5978H16.5392C17.1638 19.5978 17.6722 20.1058 17.6722 20.7308V23.6197L17.6718 23.6192ZM7.41986 21.0138H12.5742V23.2795H7.41986V21.0138ZM16.2557 22.1469C16.2557 22.7724 15.7487 23.2799 15.1227 23.2799C14.4968 23.2799 13.9897 22.7724 13.9897 22.1469C13.9897 21.5214 14.4968 21.0138 15.1227 21.0138C15.7487 21.0138 16.2557 21.5209 16.2557 22.1469ZM6.00383 22.1469C6.00383 22.7724 5.49675 23.2799 4.87083 23.2799C4.24491 23.2799 3.73782 22.7724 3.73782 22.1469C3.73782 21.5214 4.24491 21.0138 4.87083 21.0138C5.49675 21.0138 6.00383 21.5209 6.00383 22.1469ZM24.1854 15.8598C23.5595 15.8598 23.0524 15.3523 23.0524 14.7268C23.0524 14.1013 23.5595 13.5938 24.1854 13.5938C24.8113 13.5938 25.3184 14.1009 25.3184 14.7268C25.3184 15.3527 24.8113 15.8598 24.1854 15.8598ZM7.13684 8.43928C7.76275 8.43928 8.26984 8.94638 8.26984 9.57232C8.26984 10.1983 7.76275 10.7054 7.13684 10.7054C6.51092 10.7054 6.00383 10.1978 6.00383 9.57232C6.00383 8.94684 6.51092 8.43928 7.13684 8.43928ZM2.28279 11.3812C2.27145 11.2705 2.26601 11.1585 2.26601 11.0455V8.43928C2.26601 7.5353 2.6148 6.67668 3.24797 6.02126C3.57953 5.6779 3.96733 5.41437 4.38914 5.23883L5.55208 1.77259C5.924 0.712119 6.92094 0 8.03308 0H16.4254C17.538 0 18.5345 0.712119 18.9068 1.77259L19.1658 2.71784H16.7551C16.6939 2.58404 16.5633 2.26472 16.4254 2.26472H8.03308C7.8834 2.26472 7.74189 2.37222 7.68882 2.52462L7.68565 2.53414L6.88783 4.98392H10.7091C10.5055 5.30233 10.3363 5.64796 10.2079 6.01627L10.1952 6.05346L9.80878 7.25H5.66502C5.05089 7.25 4.53202 7.79475 4.53202 8.43928V10.0735C3.67523 10.2994 2.89918 10.7539 2.28324 11.3812H2.28279ZM29 13.3107V19.5978C29 20.6351 27.9201 21.5804 26.7344 21.5804C25.5488 21.5804 24.6272 20.714 24.487 19.5978H22.089C21.919 18.7609 21.5634 17.9907 21.0676 17.3321H25.6014C26.226 17.3321 26.7344 16.8237 26.7344 16.1991V13.3103C26.7344 12.6857 26.2265 12.1772 25.6014 12.1772H18.2809C17.3933 10.7884 15.8489 9.9116 14.1598 9.9116H24.3922L23.5649 7.5031C23.5132 7.35568 23.3717 7.24955 23.222 7.24955H14.8297C14.681 7.24955 14.5399 7.35523 14.4864 7.50673L13.6623 9.96784H11.2674L12.3465 6.7624C12.7175 5.69876 13.7158 4.98392 14.8302 4.98392H23.2225C24.3369 4.98392 25.3352 5.69831 25.7062 6.7624L26.8728 10.1593C28.1187 10.6636 29 11.8856 29 13.3103V13.3107ZM19.6402 15.8598L18.9077 13.5942H21.6368V15.8598H19.6402Z" fill="#ffe000"/>
</g>
<defs>
<clipPath id="clip0_1374_5683">
<rect width="29" height="29" fill="none"/>
</clipPath>
</defs>
</svg>
