<?xml version="1.0" encoding="UTF-8"?>
<svg width="24px" height="15px" viewBox="0 0 24 15" version="1.1" xmlns="http://www.w3.org/2000/svg" xmlns:xlink="http://www.w3.org/1999/xlink">
    <title>95964DF1-9193-4EC4-AF3C-59F65FA95EBF</title>
    <g id="Manager" stroke="none" stroke-width="1" fill="none" fill-rule="evenodd">
        <g id="Home-Driver-manager-button" transform="translate(-323.000000, -638.000000)" fill="#C1C7D0" fill-rule="nonzero">
            <g id="button-open" transform="translate(231.000000, 623.000000)">
                <g id="Truck" transform="translate(81.000000, 0.000000)">
                    <g id="truck" transform="translate(11.000000, 15.000000)">
                        <path d="M23.4971597,6.88452529 L22.1678173,6.0730478 L21.4083538,2.66170106 C21.2061692,1.75371484 20.4454907,1.11959578 19.5585424,1.11959578 L15.7384549,1.11959578 L15.7384549,0.482496296 C15.7384549,0.216009225 15.5329403,0 15.2795008,0 L1.14466839,0 C0.891228884,0 0.685714286,0.216009225 0.685714286,0.482496296 L0.685714286,11.9836392 C0.685714286,12.2501263 0.891228884,12.4661355 1.14466839,12.4661355 L2.61972051,12.4661355 C2.83302009,13.5680854 3.76181828,14.4 4.87201111,14.4 C5.98220394,14.4 6.91104713,13.5680854 7.12434671,12.4661355 L16.4157486,12.4661355 L16.4157486,12.4661829 C16.6290481,13.5681327 17.5578463,14.4 18.6680392,14.4 C19.778232,14.4 20.7070752,13.5681327 20.9203748,12.4661829 L23.2667602,12.4661829 C23.5201997,12.4661829 23.7257143,12.2501736 23.7257143,11.9836866 L23.7257143,7.30178358 C23.7257143,7.1298656 23.6386395,6.97091006 23.4971597,6.88452529 Z M4.87201111,13.4350547 C4.1108376,13.4350547 3.49154881,12.783952 3.49154881,11.9837339 C3.49154881,11.1835157 4.1108376,10.532413 4.87201111,10.532413 C5.63322962,10.532413 6.25251841,11.1834684 6.25251841,11.9837339 C6.25251841,12.7839993 5.63322962,13.4350547 4.87201111,13.4350547 Z M14.8205917,9.77094028 L10.6808698,9.77094028 C10.4274303,9.77094028 10.2219157,9.98694951 10.2219157,10.2534366 C10.2219157,10.5199236 10.4274303,10.7359329 10.6808698,10.7359329 L14.8205917,10.7359329 L14.8205917,11.5011903 L7.12434671,11.5011903 C6.91104713,10.3992404 5.98220394,9.56737311 4.87201111,9.56737311 C3.76181828,9.56737311 2.83302009,10.3991931 2.61972051,11.5011903 L1.60362249,11.5011903 L1.60362249,9.0056829 L14.8205917,9.0056829 L14.8205917,9.77094028 Z M14.8205917,1.60213938 L14.8205917,8.04069031 L1.60362249,8.04069031 L1.60362249,0.9650399 L14.8205917,0.9650399 L14.8205917,1.60213938 L14.8205917,1.60213938 Z M18.4008747,2.08468299 L19.5586324,2.08468299 C20.0170465,2.08463568 20.4102108,2.41238686 20.5146106,2.88163686 L21.1873142,5.90330599 L18.4009197,5.90330599 L18.4009197,2.08468299 L18.4008747,2.08468299 Z M18.6680392,13.4350547 C17.9377806,13.4350547 17.3384718,12.8357072 17.2909519,12.0803845 C17.2970268,12.0491611 17.3001768,12.0168496 17.3001768,11.9837339 C17.3001768,11.9506181 17.2969818,11.9183066 17.2909519,11.8870832 C17.3384718,11.1317606 17.9377806,10.532413 18.6680392,10.532413 C19.4292577,10.532413 20.0485465,11.1834684 20.0485465,11.9837339 C20.0485465,12.7839993 19.4292577,13.4350547 18.6680392,13.4350547 Z M22.8077611,9.2111897 L21.9346278,9.2111897 L21.9346278,8.70040311 L22.8077611,8.70040311 L22.8077611,9.2111897 Z M22.8077611,7.73541051 L21.4756737,7.73541051 C21.2222342,7.73541051 21.0167196,7.95141974 21.0167196,8.21790681 L21.0167196,9.693686 C21.0167196,9.96017307 21.2222342,10.1761823 21.4756737,10.1761823 L22.8077611,10.1761823 L22.8077611,11.5011903 L20.9203748,11.5011903 C20.7070752,10.3992404 19.778232,9.56737311 18.6680392,9.56737311 C17.5578463,9.56737311 16.6290481,10.3991931 16.4157486,11.5011903 L15.7384999,11.5011903 L15.7384999,2.08463568 L17.4829665,2.08463568 L17.4829665,6.38580228 C17.4829665,6.65228936 17.6884811,6.86829858 17.9419206,6.86829858 L21.6424884,6.86829858 L22.8077611,7.57967193 L22.8077611,7.73541051 L22.8077611,7.73541051 Z" id="Shape"></path>
                        <path d="M9.94813878,9.6 L9.66328979,9.6 C9.47687688,9.6 9.32571429,9.81489166 9.32571429,10.08 C9.32571429,10.3451083 9.47684379,10.56 9.66328979,10.56 L9.94813878,10.56 C10.1345517,10.56 10.2857143,10.3451083 10.2857143,10.08 C10.2857143,9.81489166 10.1345517,9.6 9.94813878,9.6 Z" id="Path"></path>
                    </g>
                </g>
            </g>
        </g>
    </g>
</svg>