<svg width="28" height="28" viewBox="0 0 28 28" fill="none" xmlns="http://www.w3.org/2000/svg">
<path d="M5.19678 25.375C5.08828 25.375 4.9789 25.3347 4.89403 25.2534C4.7199 25.0862 4.71378 24.8097 4.88003 24.6347L10.3208 18.9481C10.4888 18.774 10.7662 18.767 10.9394 18.9341C11.1135 19.1012 11.1197 19.3777 10.9534 19.5527L5.51265 25.2394C5.4269 25.3295 5.31228 25.375 5.19678 25.375Z" fill="#EDEDED"/>
<path d="M21.875 10.5C20.4277 10.5 19.25 9.32225 19.25 7.875C19.25 6.42775 20.4277 5.25 21.875 5.25C23.3222 5.25 24.5 6.42775 24.5 7.875C24.5 9.32225 23.3222 10.5 21.875 10.5ZM21.875 6.125C20.9099 6.125 20.125 6.90987 20.125 7.875C20.125 8.84013 20.9099 9.625 21.875 9.625C22.8401 9.625 23.625 8.84013 23.625 7.875C23.625 6.90987 22.8401 6.125 21.875 6.125Z" fill="#EDEDED"/>
<path d="M19.6875 27.125H3.5C3.2585 27.125 3.0625 26.929 3.0625 26.6875C3.0625 26.446 3.2585 26.25 3.5 26.25H19.6875C19.929 26.25 20.125 26.446 20.125 26.6875C20.125 26.929 19.929 27.125 19.6875 27.125Z" fill="#EDEDED"/>
<path d="M19.6877 27.125H3.87903C3.18953 27.125 2.58141 26.7365 2.29178 26.1117C2.00216 25.487 2.09753 24.7712 2.54291 24.2454L8.85428 16.7799C9.01091 16.5952 9.28653 16.5734 9.47116 16.7282C9.65491 16.884 9.67853 17.1605 9.52278 17.3451L3.21141 24.8106C2.98566 25.0775 2.93841 25.4266 3.08541 25.7434C3.23153 26.061 3.52903 26.25 3.87903 26.25H19.6877C19.9292 26.25 20.1252 26.446 20.1252 26.6875C20.1252 26.929 19.9292 27.125 19.6877 27.125Z" fill="#EDEDED"/>
<path d="M13.9626 23.933C13.8261 23.933 13.6905 23.8691 13.6056 23.7484C13.4665 23.5506 13.5128 23.2776 13.7097 23.1385L17.698 20.3158C17.8975 20.1556 18.02 19.8844 18.0069 19.6044C17.9937 19.3244 17.8441 19.0654 17.6096 18.9131L14.8052 16.8464C14.7046 16.772 14.6407 16.6583 14.6293 16.534C14.618 16.4098 14.6609 16.2864 14.7466 16.1954L18.2221 12.4985C18.3875 12.3218 18.6648 12.3139 18.8407 12.4793C19.0166 12.6446 19.0253 12.9211 18.8591 13.0979L15.7213 16.4351L18.1083 18.1948C18.5572 18.4853 18.8538 19.0024 18.881 19.5624C18.9081 20.1224 18.6631 20.6658 18.2256 21.0158L14.2172 23.8543C14.1385 23.9068 14.051 23.933 13.9626 23.933Z" fill="#EDEDED"/>
<path d="M12.7601 25.375C12.635 25.375 12.5116 25.3216 12.425 25.2184L12.0758 24.801C11.3452 23.9313 11.3968 22.666 12.1957 21.8575L14.1986 19.8319L11.3776 18.0259C10.7668 17.6348 10.3416 17.0021 10.2112 16.289C10.0808 15.5759 10.2532 14.833 10.6855 14.2511L14.441 9.18925L12.5588 7.35L9.26883 8.7675C8.94333 8.9075 8.58633 8.91188 8.26171 8.78238C7.93708 8.65288 7.68246 8.4035 7.54421 8.0815C7.25896 7.41913 7.56521 6.64475 8.22933 6.35775L12.3278 4.592C12.8205 4.37938 13.3831 4.48438 13.7646 4.858L16.0378 6.45925C16.618 6.8705 17.15 7.34825 17.619 7.87938L22.1226 12.9824L25.2542 11.2674C25.8921 10.9209 26.6901 11.1545 27.0357 11.7889C27.3822 12.4241 27.1486 13.223 26.5142 13.5704L22.5076 15.764C22.3947 15.8253 22.2748 15.8699 22.1515 15.8961C21.7175 15.988 21.2756 15.8585 20.9606 15.5514L19.3838 14.2905C19.1948 14.1391 19.1651 13.8644 19.3156 13.6754C19.4687 13.4864 19.7435 13.4575 19.9307 13.6071L21.5398 14.8969C21.6772 15.0281 21.826 15.071 21.9686 15.0404C22.0115 15.0316 22.05 15.0168 22.0885 14.9966L26.0942 12.8039C26.306 12.6884 26.3838 12.4215 26.2683 12.2098C26.152 11.998 25.8851 11.9184 25.6733 12.0365L22.2355 13.9186C22.0552 14.0175 21.833 13.9781 21.6973 13.825L16.9618 8.4595C16.5383 7.97913 16.0571 7.54688 15.5312 7.175L13.2055 5.53C13.0261 5.362 12.838 5.327 12.6752 5.397L8.57583 7.161C8.35446 7.25638 8.25208 7.51363 8.34746 7.735C8.39383 7.8435 8.47783 7.92663 8.58546 7.9695C8.69308 8.01238 8.81471 8.01063 8.92233 7.96425L12.4801 6.43125C12.6446 6.3595 12.8318 6.39625 12.9596 6.51963L15.3256 8.82963C15.4822 8.98275 15.5015 9.22775 15.3711 9.40363L11.3872 14.7726C11.095 15.1664 10.983 15.6485 11.0713 16.1315C11.1606 16.6136 11.4362 17.0249 11.8492 17.29L15.1252 19.3874C15.2363 19.4583 15.3098 19.5764 15.3247 19.7076C15.3396 19.8389 15.2941 19.9693 15.2005 20.0638L12.817 22.4744C12.3375 22.9591 12.3068 23.7186 12.7452 24.241L13.0943 24.6584C13.2501 24.8439 13.2256 25.1195 13.0401 25.2753C12.9596 25.3418 12.859 25.375 12.7601 25.375Z" fill="#EDEDED"/>
<path d="M3.0625 6.125H1.3125C1.071 6.125 0.875 5.929 0.875 5.6875C0.875 5.446 1.071 5.25 1.3125 5.25H3.0625C3.304 5.25 3.5 5.446 3.5 5.6875C3.5 5.929 3.304 6.125 3.0625 6.125Z" fill="#EDEDED"/>
<path d="M8.3125 14.875H1.3125C1.071 14.875 0.875 14.679 0.875 14.4375C0.875 14.196 1.071 14 1.3125 14H8.3125C8.554 14 8.75 14.196 8.75 14.4375C8.75 14.679 8.554 14.875 8.3125 14.875Z" fill="#EDEDED"/>
<path d="M10.0625 4.375H3.9375C3.696 4.375 3.5 4.179 3.5 3.9375C3.5 3.696 3.696 3.5 3.9375 3.5H10.0625C10.304 3.5 10.5 3.696 10.5 3.9375C10.5 4.179 10.304 4.375 10.0625 4.375Z" fill="#EDEDED"/>
<path d="M21.4375 27.125C21.6791 27.125 21.875 26.9291 21.875 26.6875C21.875 26.4459 21.6791 26.25 21.4375 26.25C21.1959 26.25 21 26.4459 21 26.6875C21 26.9291 21.1959 27.125 21.4375 27.125Z" fill="#EDEDED"/>
</svg>
