<svg width="28" height="28" viewBox="0 0 28 28" fill="none" xmlns="http://www.w3.org/2000/svg">
<g clip-path="url(#clip0_441_381)">
<path d="M28.0001 14.0001L24.8303 10.4809L25.3266 5.76946L20.6916 4.78826L18.3273 0.68103L14.0001 2.61501L13.416 14.0001L14.0001 25.3851L18.3274 27.3191L20.6916 23.2119L25.3266 22.2306L24.8303 17.5192L28.0001 14.0001Z" fill="#FFE000"/>
<path d="M9.67268 0.68103L7.30844 4.78826L2.67344 5.76952L3.16973 10.4809L0 14.0001L3.16973 17.5192L2.67344 22.2306L7.30844 23.2119L9.67274 27.3191L14 25.3851V2.61501L9.67268 0.68103Z" fill="#FDD45C"/>
<path d="M20.0557 11.1011L20.2222 10.9146L20.0357 10.7481L18.8102 9.65431L18.6237 9.48783L18.4572 9.67435L13.8136 14.8769L13.788 14.9055L13.7722 14.9404L13.1882 16.2334L13.1394 16.3414L13.1922 16.4476L13.7763 17.6215L13.9407 17.9521L14.1866 17.6766L20.0557 11.1011Z" fill="#0A0F14" stroke="#0A0F14" stroke-width="0.5"/>
<path d="M9.29672 12.5863L9.11994 12.4095L8.94316 12.5863L7.78172 13.7478L7.60495 13.9246L7.78172 14.1013L12.665 18.9847L12.8521 19.1718L13.0283 18.9744L14.1866 17.6766L14.2501 17.6055V17.5102V15.0434V14.3878L13.8136 14.8769L12.7637 16.0532L9.29672 12.5863Z" fill="#271D00" stroke="#271D00" stroke-width="0.5"/>
</g>
<defs>
<clipPath id="clip0_441_381">
<rect width="28" height="28" fill="white"/>
</clipPath>
</defs>
</svg>
