<svg width="28" height="29" viewBox="0 0 28 29" fill="none" xmlns="http://www.w3.org/2000/svg">
<path d="M14 28.009C21.732 28.009 28 21.7389 28 14.0045C28 6.27002 21.732 0 14 0C6.26801 0 0 6.27002 0 14.0045C0 21.7389 6.26801 28.009 14 28.009Z" fill="#F02A1E"/>
<path d="M14.0142 0V28.0086C21.7396 28.001 28.0001 21.734 28.0001 14.0043C28.0001 6.27459 21.7396 0.00765434 14.0142 0Z" fill="#AF2119"/>
<path d="M20.3526 9.99849L17.9627 7.60859C17.8453 7.49115 17.6548 7.49115 17.5374 7.60859L14.1929 10.9531C14.0754 11.0705 13.885 11.0705 13.7676 10.9531L10.4231 7.60859C10.3056 7.49115 10.1152 7.49115 9.99776 7.60859L7.60785 9.99849C7.49042 10.1159 7.49042 10.3064 7.60785 10.4238L10.9524 13.7683C11.0698 13.8857 11.0698 14.0762 10.9524 14.1936L7.60785 17.5381C7.49042 17.6556 7.49042 17.846 7.60785 17.9634L9.99776 20.3533C10.1152 20.4708 10.3056 20.4708 10.4231 20.3533L13.7676 17.0088C13.885 16.8914 14.0754 16.8914 14.1929 17.0088L17.5374 20.3533C17.6548 20.4708 17.8453 20.4708 17.9627 20.3533L20.3526 17.9634C20.47 17.846 20.47 17.6556 20.3526 17.5381L17.0081 14.1936C16.8906 14.0762 16.8906 13.8857 17.0081 13.7683L20.3526 10.4238C20.47 10.3064 20.47 10.116 20.3526 9.99849Z" fill="#590D09"/>
<path d="M20.3524 10.4238C20.4699 10.3064 20.4699 10.1159 20.3524 9.99849L17.9625 7.60859C17.8451 7.49115 17.6547 7.49115 17.5372 7.60859L14.1927 10.9531C14.1376 11.0082 14.0663 11.0365 13.9941 11.0398V16.9221C14.0663 16.9255 14.1376 16.9537 14.1927 17.0088L17.5372 20.3533C17.6547 20.4708 17.8451 20.4708 17.9625 20.3533L20.3524 17.9634C20.4699 17.846 20.4699 17.6556 20.3524 17.5381L17.0079 14.1936C16.8905 14.0762 16.8905 13.8857 17.0079 13.7683L20.3524 10.4238Z" fill="#290604"/>
</svg>
