<svg width="144" height="149" viewBox="0 0 144 149" fill="none" xmlns="http://www.w3.org/2000/svg">
<path d="M50.8975 89.6093C44.3486 89.6089 38.0632 87.0301 33.4011 82.4309C28.739 77.8317 26.075 71.5819 25.9857 65.0336L25.7428 47.4568C25.653 40.8485 28.1916 34.4751 32.8002 29.7382C37.4088 25.0013 43.7102 22.2888 50.3185 22.1972L92.9275 21.6143H93.2773C99.8252 21.6157 106.109 24.1942 110.771 28.7924C115.433 33.3905 118.098 39.6388 118.189 46.186L118.432 63.759C118.626 77.4983 107.596 88.8243 93.8563 89.0186L51.2472 89.6015L50.8975 89.6093Z" fill="#FFEE00"/>
<path d="M93.2775 23.1568C99.4194 23.1583 105.314 25.5774 109.686 29.891C114.058 34.2046 116.556 40.0659 116.641 46.2072L116.882 63.7781C116.925 66.8472 116.362 69.8947 115.227 72.7466C114.092 75.5984 112.407 78.1987 110.266 80.3989C108.126 82.5992 105.574 84.3562 102.754 85.5698C99.935 86.7833 96.9043 87.4296 93.8352 87.4717L51.2241 88.0662H50.8957C44.7535 88.0642 38.859 85.6443 34.4872 81.33C30.1154 77.0156 27.6177 71.1536 27.5345 65.012L27.2935 47.4371C27.209 41.2401 29.5895 35.2633 33.9115 30.8214C38.2335 26.3795 44.143 23.8363 50.34 23.7514L92.9491 23.1684H93.2775M93.2775 20.0712H92.9044L50.2973 20.6541C43.2788 20.7504 36.586 23.6307 31.6911 28.6614C26.7963 33.6922 24.1003 40.4614 24.1963 47.4799L24.4373 65.0528C24.5328 72.0081 27.3624 78.6462 32.3142 83.5314C37.2659 88.4167 43.9417 91.1562 50.8977 91.1576H51.2688L93.876 90.5747C97.3522 90.5271 100.785 89.7951 103.978 88.4205C107.172 87.0459 110.063 85.0556 112.487 82.5634C114.911 80.0712 116.82 77.1259 118.106 73.8957C119.391 70.6654 120.028 67.2136 119.979 63.7373L119.738 46.1625C119.642 39.2079 116.812 32.5705 111.861 27.6857C106.91 22.801 100.235 20.0615 93.2794 20.0596L93.2775 20.0712Z" fill="#040B11"/>
<path d="M89.739 85.736L55.2732 86.2101C52.813 86.244 50.3702 85.793 48.0844 84.8828C45.7985 83.9726 43.7143 82.6211 41.9507 80.9053C40.1872 79.1896 38.7789 77.1433 37.8062 74.8833C36.8336 72.6233 36.3156 70.1938 36.2819 67.7336L36.1536 58.4634C36.1197 56.0032 36.5707 53.5604 37.4809 51.2745C38.3911 48.9886 39.7427 46.9044 41.4584 45.1409C43.1741 43.3773 45.2204 41.969 47.4804 40.9963C49.7404 40.0237 52.1699 39.5057 54.6301 39.472L89.0959 38.9979C91.5562 38.9637 93.9992 39.4146 96.2853 40.3246C98.5714 41.2347 100.656 42.5862 102.42 44.302C104.183 46.0177 105.592 48.0641 106.565 50.3242C107.537 52.5844 108.055 55.014 108.089 57.4743L108.215 66.7427C108.284 71.7115 106.376 76.504 102.911 80.0659C99.4458 83.6278 94.7078 85.6674 89.739 85.736Z" fill="#040B11"/>
<path d="M72.6752 136.216C63.6167 136.216 56.2292 132.956 50.7187 126.52C46.7569 121.896 43.8598 115.762 42.111 108.289C41.7404 106.696 41.7313 105.041 42.0845 103.445C42.4377 101.848 43.1442 100.352 44.1521 99.0641C45.1599 97.7767 46.4434 96.7315 47.9083 96.0054C49.3732 95.2793 50.9823 94.8907 52.6171 94.8682L92.6439 94.3164H92.7993C94.4222 94.3167 96.0246 94.6779 97.4907 95.3738C98.9567 96.0698 100.25 97.0831 101.276 98.3404C102.302 99.5977 103.035 101.067 103.423 102.643C103.811 104.219 103.844 105.861 103.519 107.451C101.965 115.053 99.1919 121.313 95.2961 126.062C89.8692 132.668 82.439 136.096 73.2114 136.222C73.023 136.216 72.8481 136.216 72.6752 136.216Z" fill="#FFEE00"/>
<path d="M92.7876 95.854C94.1801 95.8545 95.5551 96.1646 96.813 96.7617C98.071 97.3588 99.1804 98.2281 100.061 99.3067C100.942 100.385 101.572 101.646 101.905 102.998C102.239 104.35 102.268 105.759 101.99 107.124C99.6582 118.522 92.8576 134.389 73.1764 134.659H72.6751C53.3729 134.659 46.2497 119.157 43.6169 107.926C43.2974 106.558 43.2888 105.137 43.5916 103.765C43.8944 102.394 44.5009 101.107 45.3665 100.001C46.2321 98.8952 47.3347 97.9973 48.5932 97.3737C49.8517 96.7502 51.234 96.4168 52.6384 96.3981L92.6652 95.8462H92.7973M92.7973 92.749H92.6108L52.584 93.3125C50.7166 93.3375 48.8786 93.7811 47.2053 94.6105C45.532 95.4399 44.0661 96.6341 42.9154 98.1051C41.7647 99.576 40.9586 101.286 40.5564 103.11C40.1542 104.934 40.1662 106.825 40.5915 108.643C42.3966 116.361 45.4064 122.717 49.5296 127.532C52.1409 130.619 55.3747 133.12 59.0194 134.87C63.0609 136.792 67.6524 137.767 72.6635 137.767H73.2075C78.31 137.698 82.9558 136.642 87.0148 134.633C90.672 132.807 93.8953 130.219 96.4678 127.042C100.525 122.097 103.401 115.611 105.017 107.761C105.389 105.945 105.352 104.07 104.909 102.271C104.466 100.471 103.628 98.7928 102.456 97.3572C101.284 95.9216 99.8077 94.7647 98.1335 93.9703C96.4592 93.176 94.6291 92.7641 92.776 92.7646L92.7973 92.749Z" fill="#040B11"/>
<path d="M41.4479 50.6606L23.1345 50.9131L23.387 69.2265L41.7005 68.974L41.4479 50.6606Z" fill="#040B11"/>
<path d="M118.586 49.5971L100.273 49.8496L100.525 68.163L118.839 67.9105L118.586 49.5971Z" fill="#040B11"/>
<path d="M23.2442 69.1436C20.4171 69.1323 17.7068 68.014 15.6942 66.0284C13.6817 64.0427 12.5271 61.3477 12.4778 58.521L12.4292 54.971C12.3976 52.5349 13.3339 50.1857 15.0326 48.4393C16.7313 46.6929 19.0536 45.6919 21.4897 45.656L24.414 45.6152L24.7385 69.1261L23.3958 69.1455L23.2442 69.1436Z" fill="#FFEE00"/>
<path d="M23.0809 46.9771L23.3665 67.8007H23.2441C20.7661 67.8005 18.3879 66.8246 16.6239 65.0842C14.8599 63.3439 13.8521 60.9791 13.8184 58.5013L13.7698 54.9514C13.7418 52.8731 14.5395 50.8686 15.988 49.3779C17.4364 47.8872 19.4171 47.0321 21.4954 47.0004L23.077 46.9771M25.7215 44.2568L23.0381 44.2937L21.4546 44.3171C18.6632 44.3585 16.0024 45.5055 14.0557 47.5065C12.109 49.5074 11.0356 52.1988 11.0709 54.9902L11.1195 58.5402C11.1644 61.7252 12.462 64.7644 14.7312 66.9998C17.0004 69.2352 20.0588 70.487 23.2441 70.4841H23.4131L26.0965 70.4491L26.0596 67.7658L25.7701 46.9382L25.7331 44.2549L25.7215 44.2568Z" fill="#040B11"/>
<path d="M119.608 43.198L122.522 43.1572H122.652C125.064 43.167 127.375 44.1209 129.092 45.8145C130.808 47.5081 131.793 49.8067 131.835 52.2177L131.886 55.7676C131.927 58.6237 130.832 61.3791 128.842 63.428C126.851 65.4769 124.129 66.6514 121.273 66.6934L119.932 66.7128L119.608 43.198Z" fill="#FFEE00"/>
<path d="M122.66 44.4998C124.721 44.5011 126.699 45.3134 128.166 46.7612C129.633 48.209 130.472 50.176 130.5 52.237L130.549 55.7869C130.583 58.2874 129.623 60.6991 127.88 62.4918C126.136 64.2845 123.752 65.3114 121.251 65.3467L120.964 44.5211L122.548 44.4998H122.658M122.658 41.8164H122.511L120.927 41.8378L118.244 41.8747L118.281 44.56L118.568 65.3836L118.605 68.067L121.288 68.0301C122.879 68.0085 124.45 67.6738 125.911 67.0451C127.372 66.4163 128.696 65.5059 129.805 64.3657C130.914 63.2255 131.788 61.8779 132.376 60.4C132.965 58.922 133.256 57.3426 133.234 55.7519L133.186 52.202C133.145 49.4364 132.019 46.7977 130.05 44.8556C128.08 42.9135 125.426 41.824 122.66 41.8222L122.658 41.8164Z" fill="#040B11"/>
<path opacity="0.34" d="M13.8086 58.5016C13.8086 58.5016 16.6474 62.0574 19.972 62.4052L19.7602 47.0201L25.4397 45.627L24.7985 70.5912C24.7985 70.5912 13.9641 70.0083 13.8844 64.2569C13.8047 58.5055 13.8086 58.5016 13.8086 58.5016Z" fill="#040B11"/>
<path opacity="0.34" d="M120.968 44.5223L122.551 44.501L122.79 61.7766C122.79 61.7766 129.608 61.8718 130.343 50.7634C131.077 39.655 132.71 58.147 132.71 58.147C132.71 58.147 124.994 68.6628 120.274 67.732C115.554 66.8013 120.968 44.5223 120.968 44.5223Z" fill="#040B11"/>
<path d="M81.0011 124.697L63.708 124.936C62.8284 124.948 61.9551 124.787 61.1379 124.462C60.3206 124.136 59.5755 123.653 58.9451 123.039C58.3147 122.426 57.8113 121.694 57.4636 120.886C57.116 120.078 56.9309 119.21 56.919 118.33L56.781 108.288C56.7677 107.408 56.928 106.533 57.2529 105.715C57.5778 104.896 58.0608 104.15 58.6744 103.518C59.288 102.887 60.02 102.382 60.8287 102.034C61.6374 101.685 62.5069 101.5 63.3874 101.488L80.6805 101.249C81.5601 101.237 82.4334 101.398 83.2507 101.723C84.0679 102.049 84.813 102.532 85.4434 103.146C86.0739 103.759 86.5773 104.491 86.9249 105.299C87.2726 106.107 87.4576 106.975 87.4695 107.855L87.6075 117.899C87.6211 118.779 87.4609 119.654 87.1361 120.472C86.8113 121.291 86.3283 122.037 85.7146 122.668C85.101 123.3 84.3688 123.804 83.56 124.152C82.7512 124.501 81.8816 124.686 81.0011 124.697Z" fill="#040B11"/>
<path d="M68.8301 111.439L65.7678 111.48L65.6765 104.808L68.663 104.767C69.9765 104.748 70.8003 105.414 70.8003 106.463V106.483C70.815 106.778 70.7452 107.072 70.5989 107.329C70.4526 107.586 70.236 107.796 69.9745 107.934C70.7226 108.22 71.1889 108.661 71.2025 109.557V109.576C71.2375 110.8 70.2815 111.418 68.8301 111.439ZM69.413 106.729C69.413 106.292 69.073 106.049 68.4745 106.057L67.0775 106.075L67.0969 107.487L68.4026 107.47C69.0263 107.47 69.4188 107.244 69.413 106.751V106.729ZM69.8016 109.393C69.8016 108.947 69.4713 108.673 68.7446 108.684L67.1085 108.706L67.1299 110.173L68.8126 110.149C69.4363 110.149 69.8094 109.906 69.8035 109.413L69.8016 109.393Z" fill="#EDEDED"/>
<path d="M74.0742 111.365L73.981 104.693L78.8386 104.625L78.8561 105.931L75.4091 105.977L75.4285 107.337L78.4616 107.295L78.4791 108.6L75.446 108.643L75.4635 110.044L78.961 109.996L78.9765 111.301L74.0742 111.365Z" fill="#FFEE00"/>
<path d="M68.8629 121.523C66.9315 121.548 65.581 120.163 65.5597 118.256V118.239C65.5344 116.409 66.8868 114.893 68.7676 114.866C69.8849 114.85 70.563 115.153 71.2178 115.715L70.3726 116.803C69.8868 116.395 69.4594 116.162 68.7424 116.172C67.7475 116.185 66.9723 117.106 66.9936 118.2V118.22C67.0092 119.397 67.8019 120.25 68.8998 120.234C69.3587 120.241 69.8077 120.1 70.1802 119.832L70.1686 118.911L68.7948 118.931L68.7774 117.708L71.4724 117.67L71.5112 120.466C70.7896 121.134 69.846 121.51 68.8629 121.523Z" fill="#FFEE00"/>
<path d="M77.082 121.407C76.6464 121.42 76.2126 121.346 75.8066 121.187C75.4007 121.029 75.0309 120.79 74.7195 120.485C74.4081 120.18 74.1615 119.816 73.9945 119.413C73.8275 119.01 73.7436 118.578 73.7477 118.143V118.125C73.7147 117.677 73.7735 117.226 73.9207 116.801C74.0678 116.376 74.3001 115.986 74.6035 115.654C74.9068 115.322 75.2747 115.056 75.6846 114.871C76.0945 114.686 76.5379 114.587 76.9875 114.58C77.4371 114.572 77.8834 114.657 78.2992 114.828C78.715 114.999 79.0915 115.253 79.4056 115.575C79.7197 115.897 79.9648 116.279 80.1259 116.699C80.287 117.119 80.3607 117.567 80.3424 118.016V118.036C80.3565 118.473 80.2826 118.908 80.1251 119.317C79.9676 119.725 79.7298 120.097 79.4257 120.411C79.1216 120.726 78.7574 120.976 78.3548 121.147C77.9522 121.318 77.5194 121.406 77.082 121.407ZM78.9143 118.053C78.8987 116.95 78.106 116.042 77.0081 116.058C75.9103 116.073 75.1584 116.983 75.1739 118.086V118.106C75.1895 119.209 75.9803 120.117 77.08 120.101C78.1798 120.086 78.9279 119.176 78.9143 118.073V118.053Z" fill="#EDEDED"/>
<path opacity="0.34" d="M76.2893 94.0998C76.2893 94.0998 91.4451 96.2916 92.8927 103.426C94.4355 110.973 91.1692 125.591 77.1929 128.663C57.129 133.072 45.2764 116.493 45.2764 116.493C45.2764 116.493 48.5912 133.934 68.6473 135.906C88.7035 137.879 95.9005 126.127 95.9005 126.127C95.9005 126.127 105.894 109.561 103.117 100.949C100.34 92.3375 76.2893 94.0998 76.2893 94.0998Z" fill="#040B11"/>
<path opacity="0.34" d="M65.9095 21.6453C65.9095 21.6453 88.9909 21.791 99.225 30.0373C109.459 38.2836 105.831 69.4209 104.918 75.8077C104.005 82.1945 61.4618 89.6442 44.8779 88.148C44.8779 88.148 84.7473 90.7906 96.5805 89.1817C108.414 87.5729 118.99 78.8525 118.842 67.9151C118.694 56.9776 118.003 38.5925 118.003 38.5925C118.003 38.5925 109.842 21.9095 96.8117 21.2217C83.7816 20.5338 65.9095 21.6453 65.9095 21.6453Z" fill="#040B11"/>
<path d="M79.336 93.9718L65.532 94.1621L65.6442 102.299L79.4482 102.108L79.336 93.9718Z" fill="#040B11"/>
<path d="M33.4335 41.3059C32.6291 42.4076 30.9173 41.5313 31.337 40.2333C32.1705 37.6588 33.6414 34.7734 36.2334 32.432C42.4803 26.7874 51.0511 26.667 51.0511 26.667L65.9757 26.4727C65.9757 26.4727 44.2038 26.5815 33.4335 41.3059Z" fill="#EDEDED"/>
<path d="M53.4392 98.3975C53.4392 98.3975 48.0627 98.6384 46.4267 102.563C44.7907 106.488 49.7649 116.435 49.7649 116.435C49.7649 116.435 45.2356 105.293 53.4392 98.3975Z" fill="#EDEDED"/>
<path d="M18.3866 49.0771C18.3866 49.0771 14.8425 50.4004 15.0426 55.1939C15.0426 55.1939 15.8878 52.5805 18.4274 52.1122L18.3866 49.0771Z" fill="#EDEDED"/>
<path d="M124.003 48.2731C123.999 48.0093 124.071 47.75 124.21 47.5258C124.349 47.3016 124.549 47.1218 124.787 47.0078C125.025 46.8938 125.29 46.8502 125.552 46.8823C125.814 46.9144 126.061 47.0208 126.265 47.1889C126.827 47.6695 127.336 48.2096 127.782 48.7997C129.879 51.5199 127.248 57.5434 125.013 59.2921C125.013 59.2921 126.816 53.1113 124.819 50.5601C124.306 49.9048 124.023 49.0992 124.013 48.2673L124.003 48.2731Z" fill="#EDEDED"/>
<path d="M42.1227 52.2678C41.8571 52.2715 41.5953 52.2053 41.3634 52.076C41.1315 51.9466 40.9376 51.7585 40.8013 51.5307C40.6649 51.3028 40.5908 51.0431 40.5864 50.7776C40.582 50.5121 40.6474 50.2501 40.7761 50.0178C41.931 47.9588 43.4893 46.154 45.3578 44.7113C49.685 41.379 56.3419 41.9133 56.3419 41.9133C56.3419 41.9133 46.3682 43.8 43.9841 50.933C43.8497 51.3205 43.5985 51.6568 43.2652 51.8959C42.9319 52.1349 42.5328 52.2648 42.1227 52.2678Z" fill="#EDEDED"/>
<path d="M103.012 72.6633C103.278 72.659 103.54 72.7248 103.772 72.8541C104.004 72.9833 104.199 73.1714 104.335 73.3995C104.471 73.6275 104.546 73.8875 104.55 74.1532C104.554 74.419 104.488 74.6811 104.358 74.9133C103.204 76.9722 101.647 78.7771 99.7787 80.2198C95.4516 83.5502 88.7927 83.0178 88.7927 83.0178C88.7927 83.0178 98.7664 81.1311 101.151 73.9982C101.285 73.6108 101.536 73.2746 101.87 73.0356C102.203 72.7966 102.602 72.6666 103.012 72.6633Z" fill="#EDEDED"/>
<path d="M120.94 47.0431C120.94 23.2544 99.1414 3.9677 72.2516 3.9677C45.3617 3.9677 23.5627 23.2524 23.5627 47.0431H19.0801C19.0801 21.0626 42.8863 0 72.2516 0C101.617 0 125.425 21.0626 125.425 47.0431H120.94Z" fill="#FFEE00"/>
<path d="M129.917 40.4053C131.648 41.111 133.261 42.0747 134.703 43.2635C142.813 49.9806 143.202 62.0897 135.57 70.3107C134.221 71.7622 132.683 73.0249 130.996 74.0647L129.917 40.4053Z" fill="#00FFD2"/>
<path d="M130.992 75.2428C130.686 75.243 130.393 75.1243 130.173 74.9118C129.953 74.6993 129.825 74.4097 129.815 74.1042L128.736 40.4428C128.73 40.2466 128.774 40.0519 128.862 39.8766C128.951 39.7013 129.081 39.5508 129.243 39.4389C129.404 39.327 129.591 39.2571 129.786 39.2356C129.981 39.2141 130.179 39.2417 130.361 39.3159C132.2 40.0668 133.916 41.0927 135.447 42.3587C137.415 43.9749 139.029 45.9794 140.187 48.2471C141.345 50.5147 142.024 52.9968 142.18 55.5384C142.545 61.1033 140.449 66.7809 136.425 71.1119C135.005 72.6415 133.386 73.9722 131.61 75.068C131.424 75.1829 131.21 75.2435 130.992 75.2428Z" fill="#FFEE00"/>
<path d="M129.918 40.4058C131.648 41.1115 133.261 42.0752 134.703 43.264C142.814 49.9811 143.202 62.0902 135.57 70.3112C134.221 71.7627 132.683 73.0254 130.996 74.0652L129.918 40.4058ZM129.918 38.0508C129.602 38.0514 129.29 38.1153 129 38.2385C128.71 38.3617 128.448 38.5419 128.228 38.7683C128.009 38.9947 127.837 39.2628 127.723 39.5568C127.609 39.8507 127.555 40.1645 127.565 40.4796L128.643 74.1429C128.656 74.5555 128.778 74.9573 128.996 75.308C129.213 75.6588 129.519 75.9462 129.883 76.1414C130.247 76.3366 130.655 76.4328 131.068 76.4204C131.48 76.4079 131.882 76.2872 132.234 76.0704C134.101 74.9182 135.806 73.5203 137.301 71.9142C139.422 69.6496 141.063 66.9794 142.126 64.0643C143.131 61.3133 143.553 58.3834 143.365 55.4605C143.199 52.7589 142.478 50.1207 141.247 47.7103C140.015 45.2999 138.301 43.1692 136.209 41.4511C134.585 40.1104 132.767 39.0235 130.817 38.2276C130.534 38.1107 130.23 38.0506 129.923 38.0508H129.918Z" fill="#040B11"/>
<path d="M123.7 80.1655C122.075 80.1655 120.661 79.6253 119.714 78.646C119.307 78.2212 118.99 77.717 118.786 77.1648C118.581 76.6126 118.491 76.0242 118.523 75.4361C118.813 64.0383 118.447 52.6332 117.427 41.2773C117.152 38.5474 119.147 36.2604 122.285 35.728C122.67 35.6625 123.06 35.6293 123.451 35.6289C126.115 35.6289 128.068 37.2708 128.309 39.7093C129.369 51.5095 129.749 63.361 129.447 75.2049C129.346 78.0184 126.997 80.0994 123.857 80.1674L123.7 80.1655Z" fill="#FFEE00"/>
<path d="M123.443 36.797C125.373 36.797 126.941 37.8482 127.135 39.8262C128.186 51.5776 128.564 63.3796 128.266 75.1742C128.182 77.5058 126.191 78.9359 123.828 78.9884H123.7C121.401 78.9884 119.619 77.6865 119.707 75.4695C119.995 64.0231 119.629 52.5695 118.609 41.165C118.384 38.9344 120.132 37.2789 122.495 36.8806C122.816 36.8258 123.141 36.7979 123.467 36.797M123.467 34.444C123.011 34.4446 122.556 34.4836 122.106 34.5606C120.5 34.8049 119.014 35.5605 117.871 36.7154C117.28 37.3294 116.831 38.0646 116.553 38.87C116.276 39.6753 116.177 40.5314 116.264 41.3787C117.279 52.6868 117.643 64.0439 117.354 75.3937C117.318 76.1381 117.434 76.8819 117.694 77.5802C117.954 78.2786 118.354 78.9169 118.867 79.4566C120.033 80.6691 121.755 81.3375 123.7 81.3375H123.894C127.677 81.2539 130.512 78.6969 130.634 75.2538V75.2422C130.937 63.3574 130.556 51.4652 129.494 39.6241C129.495 39.6158 129.495 39.6073 129.494 39.5989C129.43 38.8422 129.211 38.1068 128.85 37.4383C128.49 36.7698 127.996 36.1824 127.399 35.7128C126.262 34.8549 124.868 34.4058 123.443 34.4382L123.467 34.444Z" fill="#040B11"/>
<path d="M134.115 50.7923C134.099 52.4575 134.814 53.7632 135.712 53.7068C136.609 53.6505 137.35 52.2632 137.365 50.598C137.381 48.9328 136.666 47.627 135.768 47.6834C134.87 47.7397 134.13 49.1271 134.115 50.7923Z" fill="#EDEDED"/>
<path opacity="0.34" d="M139.666 47.0505C139.666 47.0505 139.567 63.0029 130.66 67.1008L128.223 71.2356C128.223 71.2356 124.007 73.8354 122.783 68.7738C121.558 63.7122 122.361 36.8573 122.361 36.8573C122.361 36.8573 119.446 35.367 118.485 41.1417C117.523 46.9164 117.21 55.1705 117.21 55.1705C117.21 55.1705 113.623 81.8019 123.709 78.9631C123.709 78.9631 127.224 80.9062 130.877 74.0433C130.889 74.0453 148.45 66.9065 139.666 47.0505Z" fill="#040B11"/>
<path d="M57.224 69.6621C58.2735 69.6621 59.1243 66.4581 59.1243 62.5059C59.1243 58.5536 58.2735 55.3496 57.224 55.3496C56.1745 55.3496 55.3237 58.5536 55.3237 62.5059C55.3237 66.4581 56.1745 69.6621 57.224 69.6621Z" fill="#FFEE00"/>
<path d="M85.8608 69.6621C86.9103 69.6621 87.7611 66.4581 87.7611 62.5059C87.7611 58.5536 86.9103 55.3496 85.8608 55.3496C84.8112 55.3496 83.9604 58.5536 83.9604 62.5059C83.9604 66.4581 84.8112 69.6621 85.8608 69.6621Z" fill="#FFEE00"/>
<path opacity="0.34" d="M57.2241 55.3496C57.2241 55.3496 59.3167 69.5552 55.3238 68.368C51.3308 67.1808 56.8238 75.7516 59.5693 73.078C62.3149 70.4043 61.627 55.5867 57.2241 55.3496Z" fill="#040B11"/>
<path opacity="0.34" d="M85.9502 55.3496C85.9502 55.3496 88.0428 69.5552 84.0499 68.368C80.0569 67.1808 85.5499 75.7516 88.2954 73.078C91.0409 70.4043 90.3531 55.5867 85.9502 55.3496Z" fill="#040B11"/>
<path d="M21.8411 87.8731C17.8773 87.8731 14.6519 84.4184 14.6519 80.1709V66.2295H18.9266V80.1786C18.9266 81.9604 20.2323 83.4119 21.8411 83.4119H63.5836V87.8809L21.8411 87.8731Z" fill="#FFEE00"/>
<path d="M17.959 67.1999V80.1775C17.959 82.4956 19.7078 84.3823 21.8451 84.3823H62.6122V86.9082H21.8412C18.4137 86.9082 15.6235 83.8887 15.6235 80.1775V67.1999H17.9551M19.8982 65.2568H13.6804V80.1775C13.6804 84.9593 17.3411 88.8513 21.8412 88.8513H64.5552V82.4314H21.8412C20.7706 82.4314 19.8982 81.4172 19.8982 80.1697V65.2568Z" fill="#040B11"/>
<path d="M13.4841 40.4053C11.7544 41.1111 10.1415 42.0747 8.70036 43.2635C0.588134 49.9806 0.201469 62.0897 7.83376 70.3107C9.18203 71.7627 10.7206 73.0255 12.4077 74.0647L13.4841 40.4053Z" fill="#00FFD2"/>
<path d="M12.4077 75.2429C12.189 75.2424 11.9747 75.1819 11.7879 75.068C10.0122 73.9713 8.39206 72.6407 6.97108 71.112C2.95092 66.7809 0.854367 61.1034 1.21772 55.5385C1.37372 52.9966 2.05209 50.5141 3.21049 48.2461C4.3689 45.9781 5.98244 43.9733 7.95038 42.3568C9.4823 41.0915 11.1975 40.0662 13.0373 39.316C13.219 39.2418 13.4163 39.2142 13.6114 39.2355C13.8065 39.2569 13.9932 39.3266 14.1545 39.4384C14.3166 39.5496 14.4479 39.7001 14.5362 39.8757C14.6246 40.0514 14.667 40.2465 14.6597 40.4429L13.5833 74.1043C13.5762 74.4088 13.4502 74.6983 13.2323 74.9111C13.0145 75.1239 12.722 75.243 12.4174 75.2429H12.4077Z" fill="#FFEE00"/>
<path d="M13.4842 40.4054L12.4077 74.0765C10.7212 73.0365 9.18266 71.7738 7.8338 70.3225C0.20151 62.0995 0.588175 49.9924 8.7004 43.2753C10.141 42.0852 11.754 41.1209 13.4842 40.4151M13.4842 38.0601H13.4123C13.1111 38.0682 12.8142 38.1341 12.5379 38.2544C10.6073 39.0475 8.80731 40.127 7.19843 41.4566C5.10647 43.1746 3.39126 45.3056 2.15996 47.7164C0.928664 50.1271 0.207725 52.7659 0.0421791 55.4679C-0.142678 58.3886 0.281455 61.3158 1.28767 64.0639C2.35021 66.9796 3.99128 69.6504 6.11226 71.9158C7.60272 73.5209 9.30186 74.9188 11.1642 76.072C11.5156 76.2887 11.9178 76.4092 12.3304 76.4216C12.7431 76.4341 13.1517 76.3379 13.5155 76.1427C13.8793 75.9475 14.1855 75.6602 14.4033 75.3095C14.6212 74.9588 14.7431 74.5571 14.7569 74.1445L15.8333 40.5297C15.8333 40.4889 15.8333 40.4501 15.8333 40.4093C15.8334 39.7889 15.5884 39.1936 15.1517 38.7529C14.7151 38.3123 14.122 38.0619 13.5017 38.0562C13.4934 38.0542 13.4847 38.0542 13.4764 38.0562L13.4842 38.0601Z" fill="#040B11"/>
<path d="M19.7059 80.1665H19.5524C16.4144 80.0984 14.0633 78.0174 13.9623 75.2195C13.6602 63.3749 14.0397 51.5228 15.0989 39.7219C15.3438 37.2659 17.2985 35.624 19.9566 35.624C20.3472 35.6246 20.7372 35.6577 21.1224 35.7231C24.2546 36.2555 26.2481 38.5425 25.98 41.2841C24.9576 52.6379 24.5885 64.041 24.8744 75.4371C24.9078 76.0239 24.8197 76.6114 24.6158 77.1627C24.4118 77.714 24.0964 78.2173 23.6892 78.6412C22.7448 79.6263 21.3303 80.1665 19.7059 80.1665Z" fill="#FFEE00"/>
<path d="M19.9565 36.7978C20.2821 36.7991 20.607 36.827 20.928 36.8814C23.2791 37.2817 25.0278 38.9352 24.8044 41.1658C23.7839 52.5703 23.4167 64.0239 23.7046 75.4703C23.7843 77.6873 22.0122 78.9892 19.7117 78.9892H19.5795C17.2148 78.9367 15.2213 77.5027 15.1397 75.175C14.8433 63.3804 15.2215 51.5785 16.2725 39.827C16.4668 37.849 18.0309 36.7978 19.9642 36.7978M19.9642 34.4448C18.546 34.4145 17.1586 34.8606 16.0237 35.7117C15.427 36.1813 14.9331 36.7686 14.5728 37.4371C14.2124 38.1056 13.9934 38.8411 13.9291 39.5978C13.9291 39.5978 13.9291 39.6153 13.9291 39.623C12.8629 51.4645 12.4782 63.3574 12.7769 75.243V75.2682C12.8993 78.7113 15.7342 81.2684 19.5173 81.3519H19.7117C21.6547 81.3519 23.3724 80.6855 24.544 79.4711C25.0578 78.9313 25.4569 78.293 25.717 77.5947C25.9772 76.8963 26.0931 76.1525 26.0576 75.4081C25.7684 64.0583 26.1324 52.7012 27.1477 41.3931C27.2341 40.5458 27.1351 39.6898 26.8576 38.8846C26.5802 38.0793 26.1308 37.3441 25.5408 36.7298C24.4015 35.5775 22.922 34.8221 21.3205 34.575C20.8712 34.4977 20.4162 34.4587 19.9604 34.4584L19.9642 34.4448Z" fill="#040B11"/>
<path d="M9.28538 50.7923C9.30092 52.4575 8.58588 53.7632 7.68819 53.7068C6.79051 53.6505 6.04826 52.2632 6.03272 50.598C6.01717 48.9328 6.73416 47.627 7.63184 47.6834C8.52953 47.7397 9.26983 49.1271 9.28538 50.7923Z" fill="#EDEDED"/>
<path opacity="0.34" d="M3.63486 47.0681C3.63486 47.0681 3.73396 63.0186 12.6409 67.1165L15.0833 71.2571C15.0833 71.2571 19.2997 73.8569 20.5238 68.7953C21.748 63.7336 20.9455 36.8788 20.9455 36.8788C20.9455 36.8788 23.8698 35.3885 24.8219 41.1632C25.774 46.9379 26.0965 55.192 26.0965 55.192C26.0965 55.192 29.6834 81.8234 19.597 78.9866C19.597 78.9866 16.082 80.9296 12.431 74.0648C12.4194 74.0765 -5.14965 66.93 3.63486 47.0681Z" fill="#040B11"/>
<path d="M56.3421 92.1134C51.3893 92.1134 47.3613 89.1192 47.3613 85.4429C47.3613 81.7667 51.3893 78.7725 56.3421 78.7725C61.2949 78.7725 65.3229 81.7648 65.3229 85.4429C65.3229 89.1211 61.2949 92.1134 56.3421 92.1134Z" fill="#FFEE00"/>
<path d="M56.3419 79.8424C60.7118 79.8424 64.254 82.349 64.254 85.4442C64.254 88.5395 60.7118 91.0461 56.3419 91.0461C51.972 91.0461 48.4298 88.5376 48.4298 85.4442C48.4298 82.3509 51.972 79.8424 56.3419 79.8424ZM56.3419 77.7051C53.7907 77.7051 51.3638 78.426 49.5121 79.7375C47.4661 81.187 46.2925 83.2661 46.2925 85.4442C46.2925 87.6224 47.4583 89.6995 49.5121 91.149C51.3638 92.4606 53.7868 93.1834 56.3419 93.1834C58.897 93.1834 61.32 92.4606 63.1717 91.149C65.2178 89.6995 66.3914 87.6205 66.3914 85.4442C66.3914 83.268 65.2255 81.187 63.1717 79.7375C61.32 78.426 58.897 77.7051 56.3419 77.7051Z" fill="#040B11"/>
<path opacity="0.34" d="M16.7388 79.8423C16.7388 79.8423 17.3062 84.6843 20.3626 85.7958C23.419 86.9072 47.2816 85.7958 47.2816 85.7958C47.2816 85.7958 50.1107 88.6132 56.785 88.2518C63.4594 87.8904 63.4536 81.0897 60.6925 80.1668C60.6925 80.1668 65.6142 81.3326 65.1751 86.1552C64.736 90.9779 56.342 92.4624 56.342 92.4624L48.0161 89.4448L39.591 87.9234L20.757 87.8379C20.757 87.8379 16.904 87.5018 15.6255 84.4084C14.8572 82.5784 14.5246 80.5948 14.6539 78.6143L16.7388 79.8423Z" fill="#040B11"/>
<path d="M95.4672 79.654C88.0836 79.654 83.7429 78.6319 80.9585 76.2323C78.077 73.751 77.1268 70.1758 76.5575 68.0404C76.4487 67.6285 76.3632 67.2632 76.2621 66.9795C75.7803 65.4581 75.4072 64.0144 75.0769 62.7398C74.6688 61.1717 74.3191 59.8252 73.9111 58.9081C73.4933 57.9521 72.9026 57.3536 72.3702 57.3536C71.8378 57.3536 71.2452 57.9365 70.8274 58.9081C70.4388 59.8155 70.0794 61.1717 69.6733 62.7398C69.341 64.0144 68.9679 65.46 68.4861 66.9795C68.3947 67.2709 68.2918 67.6285 68.1907 68.0404C67.6214 70.1777 66.6713 73.751 63.7897 76.2323C61.0073 78.6319 56.6684 79.654 49.281 79.654C42.354 79.654 38.7885 79.1857 36.5696 77.9849C34.199 76.7044 33.5559 74.6526 32.7398 72.0547L32.563 71.4893C31.9276 69.4841 31.3836 67.2282 30.857 65.0481C30.1458 62.0986 29.1724 58.0531 28.4068 57.4994C26.6192 56.1878 25.9858 55.6282 25.6691 53.5258C25.2105 50.4616 26.7572 49.6028 29.7747 49.0898C31.5235 48.7906 40.5917 47.584 49.5841 47.584C54.7215 47.584 58.8583 47.9862 61.8778 48.7809C64.1123 49.3638 65.8221 49.8554 67.1959 50.246C69.8248 50.996 71.1461 51.371 72.3702 51.371C73.5943 51.371 74.9137 50.996 77.5426 50.246C78.9163 49.8573 80.6262 49.3677 82.8607 48.7809C85.8802 47.9862 90.017 47.584 95.1544 47.584C104.147 47.584 113.205 48.7906 114.973 49.0898C117.991 49.6028 119.538 50.4616 119.079 53.5258C118.762 55.6282 118.129 56.1878 116.343 57.4994C115.576 58.0609 114.595 62.0986 113.891 65.0481C113.365 67.2282 112.821 69.4841 112.185 71.4893L112.008 72.0547C111.194 74.6526 110.551 76.7044 108.179 77.9849C105.958 79.1857 102.394 79.654 95.4672 79.654ZM94.3655 51.8684C91.3941 51.8746 88.4332 52.2201 85.5402 52.8982C82.6703 53.5841 81.0712 54.3983 80.5155 54.9306C79.7616 55.6651 79.3244 57.4177 79.3186 59.7377C79.303 65.7787 81.7415 71.4446 84.044 73.7063C85.5985 75.2316 90.2832 76.106 96.907 76.106C97.3967 76.106 97.8999 76.106 98.3973 76.0904C101.619 76.0244 103.752 75.729 105.796 74.3553C107.262 73.3702 107.74 71.7399 108.408 69.4841C108.49 69.2043 108.575 68.9186 108.662 68.6252C111.956 57.7578 107.265 54.0116 106.98 53.7959C104.203 51.8898 99.2348 51.8859 94.4277 51.8801L94.3655 51.8684ZM37.7781 53.7901C37.4944 54.0058 32.8039 57.7519 36.0955 68.6194C36.1829 68.9128 36.2684 69.2023 36.35 69.4782C37.0165 71.7341 37.4964 73.3643 38.9615 74.3495C41.0055 75.7232 43.139 76.0185 46.3606 76.0846C46.858 76.0846 47.3612 76.1001 47.8528 76.1001C54.4747 76.1001 59.1633 75.2258 60.7139 73.7005C63.0164 71.4388 65.4549 65.7728 65.4394 59.7319C65.4394 57.4119 64.9963 55.6515 64.2424 54.9248C62.9328 53.6521 57.0318 51.8742 50.3943 51.8742H50.3302C45.5251 51.8801 40.5547 51.8839 37.7781 53.7901Z" fill="#4D6277"/>
<path d="M95.1641 48.5554C103.869 48.5554 112.891 49.7212 114.812 50.0476C117.707 50.5392 118.446 51.196 118.115 53.3819C117.849 55.152 117.406 55.5193 115.766 56.7142C114.126 57.9092 113.013 65.6775 111.264 71.1958C109.515 76.714 109.405 78.6823 95.4711 78.6823C88.1555 78.6823 84.1101 77.6622 81.5977 75.4977C78.4267 72.7619 77.7894 68.5901 77.187 66.6937C76.1125 63.2895 75.5762 60.272 74.8107 58.5232C74.1889 57.1029 73.2834 56.3859 72.3799 56.3859C71.4764 56.3859 70.569 57.0951 69.9472 58.5232C69.1817 60.272 68.6454 63.2895 67.5709 66.6937C66.9705 68.596 66.339 72.7677 63.164 75.5035C60.6517 77.6681 56.6063 78.6882 49.2907 78.6882C35.3571 78.6882 35.2463 76.7218 33.4976 71.2016C31.7488 65.6814 30.6297 57.9228 28.9897 56.7201C27.3498 55.5173 26.9068 55.1656 26.6406 53.3877C26.3122 51.2018 27.0506 50.5451 29.9438 50.0535C31.8654 49.727 40.887 48.5612 49.5919 48.5612C54.0123 48.5612 58.3531 48.8624 61.6387 49.727C68.2917 51.4758 70.3339 52.3502 72.378 52.3502C74.4221 52.3502 76.4584 51.4758 83.1153 49.727C86.4029 48.8643 90.7398 48.5612 95.1622 48.5612M96.9109 77.0774C97.4239 77.0774 97.9291 77.0774 98.4206 77.0618C101.53 76.9977 104.013 76.7276 106.342 75.1615C108.305 73.8403 108.762 71.6641 109.597 68.9069C113.194 57.0329 107.547 53.005 107.547 53.005C104.52 50.9142 99.4699 50.9142 94.4024 50.9084H94.3597C87.899 50.9084 81.5356 52.5833 79.8315 54.2349C76.8003 57.1845 78.6035 69.7268 83.3562 74.3979C85.4935 76.4984 91.6064 77.0774 96.9012 77.0774M47.8451 77.0774C53.1399 77.0774 59.2527 76.4945 61.39 74.3979C66.1427 69.7346 67.9478 57.1845 64.9147 54.2349C63.2185 52.5833 56.8491 50.9084 50.3885 50.9084H50.3555C45.2861 50.9084 40.2361 50.9084 37.2088 53.005C37.2088 53.005 31.5623 57.0329 35.1589 68.9069C35.9964 71.6679 36.451 73.8403 38.4135 75.1615C40.7452 76.7276 43.2167 76.9977 46.3353 77.0618C46.8269 77.0618 47.3321 77.0774 47.8451 77.0774ZM95.1583 46.6182C89.9373 46.6182 85.7189 47.032 82.6178 47.8462C80.3736 48.4291 78.6579 48.9246 77.2803 49.319C74.7368 50.0418 73.4622 50.4052 72.3741 50.4052C71.286 50.4052 70.0094 50.0418 67.466 49.319C66.0883 48.9304 64.3726 48.4369 62.1284 47.8462C59.0195 47.032 54.8089 46.6182 49.588 46.6182C40.5275 46.6182 31.3913 47.8365 29.6154 48.1376C27.9366 48.4233 26.6309 48.7983 25.7137 49.6921C24.4663 50.922 24.5479 52.5483 24.7131 53.6656C25.0842 56.1372 25.9722 56.9085 27.7773 58.2356C27.8608 58.3464 28.1795 58.8399 28.6808 60.4915C29.0869 61.8303 29.491 63.5013 29.9166 65.2714C30.447 67.469 30.9949 69.7404 31.64 71.7787C31.7003 71.973 31.7605 72.1673 31.8169 72.3422C32.6621 75.0391 33.3927 77.3669 36.111 78.8358C38.4873 80.1202 42.1811 80.6215 49.2849 80.6215C56.9249 80.6215 61.4522 79.5276 64.427 76.9647C67.5359 74.2872 68.5366 70.5313 69.1331 68.287C69.24 67.8848 69.3274 67.539 69.4168 67.2689C69.9045 65.7144 70.2834 64.2649 70.6176 62.9786C71.0062 61.4514 71.3559 60.1301 71.7212 59.2868C71.9855 58.6864 72.2497 58.4222 72.3741 58.3406C72.4965 58.4222 72.7627 58.6864 73.025 59.2868C73.3923 60.1262 73.7342 61.4456 74.1306 62.9786C74.4629 64.2649 74.8418 65.7222 75.3295 67.2689C75.415 67.539 75.5063 67.8848 75.6132 68.287C76.2116 70.5313 77.2103 74.2872 80.3192 76.9647C83.294 79.5276 87.8213 80.6215 95.4614 80.6215C102.565 80.6215 106.259 80.1202 108.635 78.8358C111.356 77.3669 112.084 75.0391 112.929 72.3422C112.986 72.1595 113.046 71.971 113.106 71.7787C113.751 69.7404 114.299 67.469 114.83 65.2714C115.255 63.5013 115.659 61.8303 116.065 60.4915C116.567 58.8399 116.885 58.3542 116.969 58.2356C118.774 56.9085 119.662 56.1372 120.033 53.6656C120.2 52.5483 120.28 50.922 119.032 49.6921C118.117 48.7885 116.81 48.4135 115.131 48.1376C113.355 47.8365 104.219 46.6182 95.1583 46.6182ZM96.907 75.1343C89.5234 75.1343 85.7675 74.0385 84.7241 73.0125C82.5343 70.8596 80.2765 65.3064 80.2901 59.7396C80.2901 57.3457 80.7797 56.0283 81.1936 55.6261C82.1884 54.6546 87.5901 52.8515 94.3655 52.8515H94.4257C99.0677 52.8515 103.869 52.8515 106.403 54.5788C106.546 54.6954 107.528 55.5504 108.206 57.4798C109.195 60.2992 109.032 64.057 107.734 68.3434C107.644 68.6387 107.559 68.9263 107.475 69.21C106.787 71.5416 106.375 72.793 105.254 73.5488C103.41 74.7885 101.415 75.0566 98.3779 75.1188C97.8863 75.1188 97.3908 75.1343 96.907 75.1343ZM38.3552 54.573C40.8812 52.8553 45.6902 52.8515 50.3322 52.8456H50.3943C57.1678 52.8456 62.5695 54.6527 63.5643 55.6203C63.9782 56.0225 64.462 57.3399 64.4678 59.7337C64.4775 64.1056 62.8221 70.2651 60.0338 73.0067C58.9904 74.0326 55.2422 75.1285 47.8509 75.1285C47.3671 75.1285 46.8794 75.1285 46.38 75.113C43.343 75.0508 41.3475 74.7826 39.5036 73.543C38.3824 72.7871 37.9705 71.5358 37.2827 69.2041C37.1991 68.9224 37.1136 68.6329 37.0242 68.3376C35.7263 64.0512 35.5631 60.2933 36.5521 57.474C37.2302 55.5406 38.2114 54.6896 38.3552 54.573Z" fill="#040B11"/>
<path opacity="0.34" d="M25.9236 52.1357C25.9236 52.1357 30.3188 53.5406 31.2708 54.9221C32.2229 56.3036 31.1737 76.5812 41.8177 77.2088C52.4617 77.8364 62.4004 78.2445 65.8279 71.9393C69.2555 65.6341 72.7763 70.5908 72.7763 70.5908H78.347C78.347 70.5908 80.7389 76.9077 90.5008 77.7412C100.263 78.5748 106.675 78.5068 109.56 72.6893C112.446 66.8718 111.892 57.2557 114.041 55.4117C116.19 53.5678 119.297 52.7711 119.297 52.7711L114.179 67.5655C114.179 67.5655 113.013 79.9816 103.113 79.8417C93.2133 79.7018 70.1124 78.2736 70.1124 78.2736L46.0905 80.1662C46.0905 80.1662 35.2327 81.4816 32.936 72.6971C30.6394 63.9126 26.5628 58.8781 26.5628 58.8781L25.9236 52.1357Z" fill="#040B11"/>
<path d="M69.2962 106.123L66.8499 98.9921L69.5002 96.3418H74.3636L77.0139 98.9921L74.5676 106.123H69.2962Z" fill="#FFEE00"/>
<path d="M74.082 97.0213L76.2329 99.1722L74.082 105.442H69.782L67.6311 99.1722L69.782 97.0213H74.082ZM74.6455 95.6611H69.2185L68.8202 96.0497L66.6692 98.2007L66.0688 98.8011L66.3448 99.6036L68.4957 105.874L68.8105 106.793H75.0535L75.3683 105.874L77.5192 99.6036L77.7932 98.8011L77.1947 98.2007L75.0438 96.0497L74.6455 95.6611Z" fill="#040B11"/>
<path d="M66.032 140.985L69.1583 104.763H74.7057L77.8321 140.985L71.9311 147.292L66.032 140.985Z" fill="#FFEE00"/>
<path d="M74.082 105.443L77.1287 140.742L71.9311 146.296L66.7354 140.742L69.7821 105.443H74.082ZM75.3294 104.083H68.5288L68.42 105.327L65.3752 140.624L65.3228 141.228L65.7366 141.671L70.9323 147.226L71.9252 148.287L72.9201 147.226L78.1158 141.671L78.5297 141.228L78.4772 140.624L75.4363 105.327L75.3294 104.083Z" fill="#040B11"/>
<path d="M74.082 105.443H71.9311H69.782L66.7354 140.743L71.9311 146.296L77.1287 140.743L74.082 105.443Z" fill="#FFEE00"/>
<mask id="mask0_2513_18353" style="mask-type:luminance" maskUnits="userSpaceOnUse" x="66" y="105" width="12" height="42">
<path d="M74.082 105.443H71.9311H69.782L66.7354 140.743L71.9311 146.296L77.1287 140.743L74.082 105.443Z" fill="white"/>
</mask>
<g mask="url(#mask0_2513_18353)">
<path d="M63.2634 97.8921L62.6072 99.2129L102.033 118.801L102.689 117.48L63.2634 97.8921Z" fill="#FFEE00"/>
<path d="M63.3953 98.2811L102.301 117.601L101.912 118.401L62.9989 99.0816L63.3875 98.2811M63.1252 97.5039L62.8823 98.0227L62.4937 98.8213L62.2158 99.3362L62.7385 99.5946L101.644 118.924L102.165 119.182L102.425 118.66L102.814 117.861L103.074 117.339L102.552 117.08L63.6595 97.7604L63.1388 97.5L63.1252 97.5039Z" fill="#040B11"/>
<path d="M62.3374 99.7584L61.6812 101.079L101.107 120.667L101.763 119.347L62.3374 99.7584Z" fill="#FFEE00"/>
<path d="M62.4685 100.146L101.374 119.474L100.976 120.274L62.0721 100.947L62.4607 100.146M62.1984 99.3691L61.9381 99.8918L61.5494 100.69L61.291 101.213L61.8118 101.471L100.717 120.801L101.238 121.059L101.499 120.537L101.887 119.738L102.147 119.215L101.633 118.961L62.7289 99.6256L62.2062 99.3652L62.1984 99.3691Z" fill="#040B11"/>
<path d="M61.4103 101.62L60.7542 102.94L100.18 122.529L100.836 121.208L61.4103 101.62Z" fill="#FFEE00"/>
<path d="M61.5415 102.012L100.447 121.339L100.049 122.14L61.1451 102.812L61.5337 102.012M61.2714 101.234L61.011 101.757L60.6224 102.556L60.3562 103.074L60.8769 103.333L99.8001 122.662L100.323 122.921L100.581 122.398L100.97 121.599L101.23 121.077L100.707 120.818L61.8018 101.491L61.2791 101.23L61.2714 101.234Z" fill="#040B11"/>
<path d="M60.4846 103.486L59.8284 104.807L99.254 124.395L99.9102 123.074L60.4846 103.486Z" fill="#FFEE00"/>
<path d="M60.6148 103.877L99.5204 123.204L99.1318 124.005L60.2184 104.677L60.607 103.877M60.3447 103.1L60.0941 103.611L59.7055 104.409L59.447 104.932L59.9678 105.19L98.8734 124.52L99.3961 124.778L99.6545 124.255L100.043 123.457L100.303 122.934L99.7808 122.676L60.8752 103.356L60.3564 103.096L60.3447 103.1Z" fill="#040B11"/>
<path d="M59.5566 105.351L58.9004 106.672L98.326 126.26L98.9822 124.939L59.5566 105.351Z" fill="#FFEE00"/>
<path d="M59.688 105.748L98.5936 125.075L98.205 125.876L59.2916 106.543L59.6802 105.742M59.4179 104.965L59.1595 105.488L58.7709 106.286L58.5125 106.809L59.0332 107.067L97.9388 126.395L98.4615 126.655L98.7199 126.132L99.1183 125.334L99.3767 124.811L98.854 124.553L59.9484 105.221L59.4257 104.971L59.4179 104.965Z" fill="#040B11"/>
<path d="M58.6308 107.217L57.9746 108.538L97.4003 128.126L98.0565 126.806L58.6308 107.217Z" fill="#FFEE00"/>
<path d="M58.761 107.607L97.6627 126.927L97.2741 127.728L58.3646 108.408L58.7532 107.607M58.4909 106.83L58.2325 107.353L57.8342 108.151L57.5835 108.662L58.1062 108.921L97.0099 128.248L97.5326 128.509L97.791 127.986L98.1893 127.187L98.4477 126.665L97.925 126.406L59.0214 107.087L58.4987 106.826L58.4909 106.83Z" fill="#040B11"/>
<path d="M57.705 109.083L57.0488 110.403L96.4745 129.992L97.1307 128.671L57.705 109.083Z" fill="#FFEE00"/>
<path d="M57.8304 109.473L96.7341 128.801L96.3455 129.602L57.4418 110.274L57.8304 109.473ZM57.5661 108.696L57.3077 109.219L56.9152 110.023L56.6646 110.536L57.1872 110.795L96.0909 130.122L96.6136 130.383L96.872 129.86L97.2704 129.061L97.5288 128.539L97.0003 128.288L58.0946 108.953L57.572 108.692L57.5661 108.696Z" fill="#040B11"/>
<path d="M56.7773 110.948L56.1211 112.269L95.5467 131.857L96.2029 130.536L56.7773 110.948Z" fill="#FFEE00"/>
<path d="M56.9094 111.338L95.8131 130.665L95.4245 131.466L56.5111 112.138L56.8997 111.338M56.6354 110.561L56.377 111.083L55.9884 111.882L55.728 112.404L56.2507 112.663L95.1563 131.979L95.679 132.239L95.9375 131.716L96.3261 130.918L96.5845 130.395L96.0638 130.137L57.1678 110.817L56.6452 110.557L56.6354 110.561Z" fill="#040B11"/>
<path d="M55.8513 112.814L55.1951 114.135L94.6207 133.723L95.2769 132.402L55.8513 112.814Z" fill="#FFEE00"/>
<path d="M55.9824 113.204L94.8861 132.531L94.4975 133.332L55.5841 114.004L55.9727 113.204M55.7085 112.427L55.4598 112.938L55.0712 113.736L54.8108 114.259L55.3335 114.517L94.2372 133.845L94.7482 134.117L95.0086 133.594L95.3972 132.796L95.6556 132.273L95.1348 132.015L56.2409 112.683L55.7182 112.423L55.7085 112.427Z" fill="#040B11"/>
<path d="M54.9235 114.68L54.2673 116.001L93.693 135.589L94.3492 134.268L54.9235 114.68Z" fill="#FFEE00"/>
<path d="M55.0557 115.075L93.9594 134.403L93.5708 135.203L54.6573 115.87L55.0557 115.069M54.7934 114.292L54.5272 114.811L54.1385 115.609L53.8782 116.132L54.4009 116.39L93.3046 135.718L93.8272 135.978L94.0876 135.456L94.4762 134.657L94.7346 134.134L94.2139 133.876L55.3141 114.548L54.7934 114.298V114.292Z" fill="#040B11"/>
<path d="M53.9975 116.544L53.3413 117.864L92.767 137.452L93.4232 136.132L53.9975 116.544Z" fill="#FFEE00"/>
<path d="M54.1386 116.934L93.0326 136.254L92.644 137.055L53.7306 117.735L54.1289 116.934M53.8666 116.157L53.6062 116.68L53.2176 117.478L52.9495 117.99L53.4721 118.248L92.3778 137.583L92.8985 137.844L93.1589 137.321L93.5475 136.522L93.8079 136L93.2852 135.741L54.3873 116.414L53.8666 116.153V116.157Z" fill="#040B11"/>
<path d="M53.0698 118.41L52.4136 119.73L91.8392 139.319L92.4954 137.998L53.0698 118.41Z" fill="#FFEE00"/>
<path d="M53.2019 118.8L92.1056 138.127L91.717 138.928L52.8055 119.6L53.1941 118.8M52.9318 118.022L52.6714 118.545L52.2828 119.344L52.0225 119.866L52.5451 120.127L91.445 139.448L91.9657 139.709L92.2261 139.186L92.6147 138.388L92.875 137.865L92.366 137.614L53.4603 118.279L52.9396 118.019L52.9318 118.022Z" fill="#040B11"/>
<path d="M52.144 120.276L51.4878 121.597L90.9134 141.185L91.5696 139.864L52.144 120.276Z" fill="#FFEE00"/>
<path d="M52.2751 120.666L91.1808 139.993L90.7922 140.794L51.8788 121.466L52.2674 120.666M52.0051 119.889L51.7447 120.411L51.3561 121.21L51.0957 121.733L51.6184 121.991L90.524 141.307L91.0448 141.567L91.3051 141.045L91.6937 140.246L91.9541 139.723L91.445 139.473L52.5336 120.145L52.0128 119.885L52.0051 119.889Z" fill="#040B11"/>
<path d="M51.218 122.139L50.5618 123.46L89.9874 143.048L90.6436 141.727L51.218 122.139Z" fill="#FFEE00"/>
<path d="M51.3485 122.53L90.2541 141.858L89.8655 142.658L50.9521 123.331L51.3407 122.53M51.0784 121.753L50.8355 122.264L50.4469 123.063L50.1885 123.585L50.7092 123.844L89.6149 143.171L90.1356 143.431L90.396 142.909L90.7846 142.11L91.0449 141.588L90.5223 141.329L51.6127 122.007L51.09 121.749L51.0784 121.753Z" fill="#040B11"/>
<path d="M50.2912 124.004L49.635 125.325L89.0607 144.913L89.7169 143.593L50.2912 124.004Z" fill="#FFEE00"/>
<path d="M50.4216 124.401L89.3272 143.729L88.9289 144.529L50.0252 125.196L50.4138 124.395M50.1515 123.618L49.8931 124.141L49.4948 124.939L49.2363 125.462L49.7571 125.721L88.6627 145.048L89.1854 145.308L89.4438 144.786L89.8324 143.987L90.0928 143.464L89.5701 143.206L50.682 123.873L50.1593 123.624L50.1515 123.618Z" fill="#040B11"/>
<path d="M49.3652 125.87L48.709 127.19L88.1346 146.779L88.7908 145.458L49.3652 125.87Z" fill="#FFEE00"/>
<path d="M49.4946 126.262L88.4002 145.581L88.0019 146.382L49.0982 127.062L49.4868 126.262M49.2245 125.484L48.9661 126.007L48.5677 126.806L48.3093 127.317L48.8301 127.575L87.7532 146.91L88.2759 147.171L88.5343 146.648L88.9229 145.849L89.1833 145.327L88.6606 145.068L49.755 125.739L49.2323 125.48L49.2245 125.484Z" fill="#040B11"/>
<path d="M48.4374 127.736L47.7812 129.057L87.2069 148.645L87.8631 147.324L48.4374 127.736Z" fill="#FFEE00"/>
<path d="M48.5679 128.126L87.4735 147.453L87.0849 148.254L48.1715 128.926L48.5601 128.126M48.2978 127.349L48.0394 127.871L47.6508 128.67L47.3923 129.193L47.9208 129.453L86.8265 148.78L87.3492 149.041L87.6076 148.518L87.9962 147.72L88.2546 147.197L87.7319 146.938L48.8282 127.603L48.3095 127.345L48.2978 127.349Z" fill="#040B11"/>
<path d="M47.5114 129.6L46.8552 130.921L86.2809 150.509L86.9371 149.188L47.5114 129.6Z" fill="#FFEE00"/>
<path d="M47.6411 129.992L86.5467 149.32L86.1581 150.12L47.2447 130.793L47.6333 129.992M47.371 129.215L47.1126 129.738L46.7142 130.536L46.4558 131.059L46.9785 131.317L85.89 150.633L86.4126 150.893L86.6711 150.371L87.0694 149.572L87.3278 149.049L86.8051 148.791L47.9014 129.469L47.3788 129.211L47.371 129.215Z" fill="#040B11"/>
<path d="M46.5837 131.465L45.9275 132.786L85.3531 152.374L86.0093 151.054L46.5837 131.465Z" fill="#FFEE00"/>
<path d="M46.7163 131.856L85.6161 151.184L85.2275 151.984L46.318 132.657L46.7163 131.856ZM46.452 131.079L46.1936 131.59L45.7953 132.389L45.5369 132.911L46.0595 133.17L84.9632 152.497L85.4859 152.758L85.7443 152.235L86.1427 151.436L86.4011 150.914L85.8804 150.655L46.9747 131.334L46.452 131.075V131.079Z" fill="#040B11"/>
<path d="M45.6579 133.332L45.0017 134.652L84.4274 154.241L85.0836 152.92L45.6579 133.332Z" fill="#FFEE00"/>
<path d="M45.7835 133.728L84.6872 153.056L84.2986 153.856L45.3949 134.523L45.7835 133.723M45.5193 132.945L45.2608 133.468L44.8722 134.267L44.6177 134.785L45.1404 135.044L84.0441 154.371L84.5667 154.632L84.8252 154.109L85.2235 153.31L85.4819 152.788L84.9612 152.529L46.0478 133.2L45.5251 132.951L45.5193 132.945Z" fill="#040B11"/>
<path d="M44.7319 135.198L44.0757 136.519L83.5013 156.107L84.1575 154.786L44.7319 135.198Z" fill="#FFEE00"/>
<path d="M44.8625 135.588L83.7662 154.907L83.3776 155.708L44.4642 136.386L44.8625 135.588ZM44.5983 134.811L44.3399 135.333L43.9512 136.132L43.6831 136.643L44.2058 136.901L83.1095 156.229L83.6322 156.489L83.8925 155.966L84.2811 155.168L84.5396 154.645L84.0188 154.385L45.121 135.065L44.5983 134.807V134.811Z" fill="#040B11"/>
<path d="M43.8041 137.062L43.1479 138.383L82.5736 157.971L83.2298 156.65L43.8041 137.062Z" fill="#FFEE00"/>
<path d="M43.9356 137.453L82.8393 156.78L82.4507 157.581L43.5373 138.252L43.9356 137.453ZM43.6733 136.676L43.4129 137.198L43.0243 137.997L42.7639 138.52L43.2866 138.778L82.1903 158.106L82.713 158.366L82.9734 157.843L83.362 157.045L83.6204 156.522L83.0996 156.262L44.194 136.93L43.6733 136.672V136.676Z" fill="#040B11"/>
<path d="M42.8784 138.928L42.2222 140.249L81.6478 159.837L82.304 158.517L42.8784 138.928Z" fill="#FFEE00"/>
<path d="M43.0088 139.318L81.9125 158.646L81.5239 159.446L42.6182 140.117L43.0166 139.318M42.7542 138.541L42.4803 139.06L42.0917 139.858L41.8313 140.381L42.354 140.639L81.2577 159.959L81.7784 160.22L82.0388 159.697L82.4274 158.898L82.6878 158.376L82.1651 158.115L43.2672 138.796L42.7465 138.537L42.7542 138.541Z" fill="#040B11"/>
</g>
<path d="M74.082 97.0215H71.9311H69.7821L67.6311 99.1724L69.7821 105.443H71.9311H74.082L76.233 99.1724L74.082 97.0215Z" fill="#FFEE00"/>
<mask id="mask1_2513_18353" style="mask-type:luminance" maskUnits="userSpaceOnUse" x="67" y="97" width="10" height="9">
<path d="M74.082 97.0205H71.9311H69.7821L67.6311 99.1715L69.7821 105.442H71.9311H74.082L76.233 99.1715L74.082 97.0205Z" fill="white"/>
</mask>
<g mask="url(#mask1_2513_18353)">
<path d="M94.7523 77.1149L55.3267 96.7031L55.9829 98.0239L95.4085 78.4357L94.7523 77.1149Z" fill="#FFEE00"/>
<path d="M94.6201 77.5116L95.0087 78.3101L56.1128 97.6376L55.7242 96.8391L94.6279 77.5116M94.8902 76.7343L94.3597 76.9908L55.456 96.3164L54.9333 96.5748L55.1937 97.0975L55.5823 97.898L55.8427 98.4188L56.3634 98.1603L95.2691 78.8328L95.7917 78.5725L95.5314 78.0498L95.1428 77.2512L94.8824 76.7285L94.8902 76.7343Z" fill="#040B11"/>
<path d="M95.6798 78.9782L56.2542 98.5664L56.9103 99.8871L96.336 80.2989L95.6798 78.9782Z" fill="#FFEE00"/>
<path d="M95.5469 79.3758L95.9355 80.1744L57.0395 99.5019L56.6509 98.7033L95.5566 79.3758M95.8189 78.5986L95.2982 78.859L56.3828 98.1806L55.8601 98.4391L56.1205 98.9617L56.5091 99.7603L56.7695 100.283L57.2902 100.025L96.1958 80.6971L96.7185 80.4367L96.4581 79.914L96.0695 79.1155L95.8092 78.5928L95.8189 78.5986Z" fill="#040B11"/>
<path d="M96.6053 80.8434L57.1797 100.432L57.8359 101.752L97.2615 82.1642L96.6053 80.8434Z" fill="#FFEE00"/>
<path d="M96.4739 81.2401L96.8625 82.0406L57.9665 101.368L57.5682 100.57L96.4739 81.2401ZM96.7362 80.4629L96.2135 80.7233L57.3098 100.047L56.7871 100.307L57.0475 100.83L57.4361 101.628L57.6965 102.151L58.2172 101.893L97.1228 82.5653L97.6436 82.3049L97.3852 81.7822L96.9965 80.9836L96.7362 80.4609V80.4629Z" fill="#040B11"/>
<path d="M97.5328 82.7087L58.1072 102.297L58.7634 103.618L98.189 84.0294L97.5328 82.7087Z" fill="#FFEE00"/>
<path d="M97.4006 83.1053L97.7892 83.9059L58.8933 103.233L58.495 102.444L97.4006 83.115M97.6629 82.3378L97.1402 82.5982L58.2365 101.912L57.7139 102.171L57.9742 102.693L58.3628 103.492L58.6213 104.014L59.1439 103.756L98.0515 84.4285L98.5723 84.1682L98.3138 83.6455L97.9252 82.8469L97.6629 82.3242V82.3378Z" fill="#040B11"/>
<path d="M98.4603 84.5739L59.0347 104.162L59.6909 105.483L99.1165 85.8946L98.4603 84.5739Z" fill="#FFEE00"/>
<path d="M98.3274 84.9706L98.716 85.7711L59.8201 105.099L59.4314 104.3L98.3371 84.9706M98.5994 84.1933L98.0767 84.4537L59.1633 103.777L58.6406 104.036L58.901 104.558L59.2896 105.357L59.548 105.88L60.0707 105.621L98.9841 86.2938L99.5049 86.0334L99.2464 85.5107L98.8578 84.7121L98.5994 84.1895V84.1933Z" fill="#040B11"/>
<path d="M99.3878 86.4401L59.9622 106.028L60.6184 107.349L100.044 87.7608L99.3878 86.4401Z" fill="#FFEE00"/>
<path d="M99.2544 86.8358L99.643 87.6363L60.7451 106.964L60.3565 106.165L99.2621 86.8358M99.5245 86.0586L98.994 86.317L60.0903 105.643L59.5676 105.901L59.8261 106.424L60.2244 107.222L60.4828 107.745L61.0055 107.487L99.9111 88.159L100.432 87.8986L100.173 87.376L99.7848 86.5774L99.5264 86.0547L99.5245 86.0586Z" fill="#040B11"/>
<path d="M100.313 88.3044L60.8877 107.893L61.5439 109.213L100.97 89.6251L100.313 88.3044Z" fill="#FFEE00"/>
<path d="M100.189 88.702L100.578 89.5025L61.6719 108.83L61.2833 108.031L100.189 88.702ZM100.451 87.9248L99.9285 88.1852L61.0171 107.509L60.4944 107.767L60.7528 108.29L61.1511 109.088L61.4096 109.611L61.9322 109.353L100.836 90.0252L101.359 89.7648L101.1 89.2422L100.702 88.4436L100.443 87.9209L100.451 87.9248Z" fill="#040B11"/>
<path d="M101.241 90.1706L61.8152 109.759L62.4714 111.08L101.897 91.4913L101.241 90.1706Z" fill="#FFEE00"/>
<path d="M101.108 90.5663L101.497 91.3668L62.5986 110.694L62.21 109.896L101.116 90.5663M101.378 89.789L100.855 90.0494L61.9419 109.373L61.4211 109.633L61.6796 110.156L62.0779 110.955L62.3363 111.477L62.859 111.219L101.763 91.8895L102.285 91.6291L102.027 91.1064L101.629 90.3078L101.37 89.7852L101.378 89.789Z" fill="#040B11"/>
</g>
<path d="M74.7699 104.798H68.9641V106.432H74.7699V104.798Z" fill="#040B11"/>
</svg>
