<svg width="62" height="39" viewBox="0 0 62 39" fill="none" xmlns="http://www.w3.org/2000/svg">
<path d="M20.1631 35.214C16.8286 35.214 13.6851 33.925 11.3093 31.5832C8.93141 29.2394 7.59537 26.1089 7.54933 22.7694L7.42724 13.8714C7.3812 10.5018 8.65019 7.31533 11 4.89845C13.3508 2.48157 16.5003 1.12652 19.8709 1.08048L41.4447 0.78325C41.5037 0.78325 41.5638 0.78125 41.6208 0.78125C44.9554 0.78125 48.0989 2.07025 50.4747 4.41207C52.8526 6.7559 54.1886 9.88633 54.2346 13.2259L54.3567 22.1238C54.4518 29.0803 48.8705 34.8197 41.9141 34.9148L20.3403 35.212C20.2822 35.212 20.2222 35.214 20.1631 35.214Z" fill="#FFEE00"/>
<path d="M41.6219 1.56722C48.082 1.56722 53.3631 6.75826 53.4511 13.2383L53.5732 22.1372C53.6633 28.6713 48.4382 34.0425 41.9042 34.1325L20.3304 34.4298C20.2743 34.4298 20.2203 34.4318 20.1642 34.4318C13.7042 34.4318 8.42311 29.2407 8.33505 22.7607L8.21295 13.8618C8.12288 7.3277 13.3479 1.95652 19.882 1.86645L41.4558 1.56922C41.5119 1.56722 41.5679 1.56722 41.6219 1.56722ZM41.6219 0C41.5589 0 41.4968 1.95462e-06 41.4338 0.00200351L19.86 0.299235C16.2802 0.348273 12.9336 1.78839 10.4377 4.35439C7.94174 6.92038 6.59269 10.305 6.64373 13.8838L6.76583 22.7827C6.81486 26.3285 8.23297 29.6541 10.7599 32.144C13.2839 34.6319 16.6225 36 20.1632 36C20.2263 36 20.2883 36 20.3514 35.998L41.9252 35.7008C45.505 35.6517 48.8516 34.2116 51.3475 31.6456C53.8434 29.0796 55.1925 25.695 55.1415 22.1162L55.0194 13.2173C54.9703 9.67152 53.5522 6.34694 51.0253 3.856C48.5023 1.36806 45.1627 0 41.6219 0Z" fill="#040B11"/>
<path d="M39.8306 33.2484L22.38 33.4896C17.1409 33.5626 12.8356 29.3734 12.7625 24.1353L12.6985 19.4407C12.6254 14.2016 16.8147 9.89624 22.0527 9.82318L39.5033 9.582C44.7424 9.50894 49.0477 13.6982 49.1208 18.9363L49.1848 23.6309C49.2579 28.869 45.0696 33.1754 39.8306 33.2484Z" fill="#040B11"/>
<path d="M15.3809 15.4892L6.10864 15.6172L6.23661 24.8895L15.5089 24.7615L15.3809 15.4892Z" fill="#040B11"/>
<path d="M54.4393 14.9531L45.167 15.0811L45.295 24.3533L54.5673 24.2254L54.4393 14.9531Z" fill="#040B11"/>
<path d="M6.15741 24.8498C3.19311 24.8498 0.746204 22.4369 0.705173 19.4716L0.680153 17.6742C0.644125 15.1102 2.70373 12.9935 5.26772 12.9575L6.74787 12.9375L6.912 24.8408L6.23147 24.8508C6.20745 24.8498 6.18243 24.8498 6.15741 24.8498Z" fill="#FFEE00"/>
<path d="M6.07925 13.6242L6.22537 24.1674C6.20335 24.1674 6.18133 24.1674 6.15731 24.1674C3.55029 24.1674 1.42063 22.0727 1.3846 19.4597L1.35958 17.6623C1.32856 15.4676 3.08292 13.6652 5.27663 13.6362L6.07925 13.6242ZM7.4183 12.2461L6.06024 12.2651L5.25762 12.2771C2.31833 12.3181 -0.0405046 14.741 0.000527302 17.6823L0.0255468 19.4797C0.0475639 21.103 0.697068 22.6242 1.85397 23.7641C3.00887 24.9019 4.53706 25.5294 6.15832 25.5294C6.18734 25.5294 6.21636 25.5294 6.24438 25.5294L7.60244 25.5104L7.58342 24.1524L7.43731 13.6092L7.4183 12.2461Z" fill="#040B11"/>
<path d="M54.9531 11.7114L56.4333 11.6914H56.4973C59.0273 11.6914 61.1139 13.75 61.1479 16.279L61.173 18.0764C61.193 19.5335 60.6456 20.9106 59.6298 21.9554C58.614 23.0002 57.2519 23.5847 55.7958 23.6057L55.1153 23.6157L54.9531 11.7114Z" fill="#FFEE00"/>
<path d="M56.4992 12.3698C58.6679 12.3698 60.4402 14.1131 60.4713 16.2868L60.4963 18.0842C60.5323 20.7213 58.4257 22.887 55.7886 22.924L55.6425 12.3808L56.4451 12.3688C56.4621 12.3698 56.4812 12.3698 56.4992 12.3698ZM56.4992 11.0117C56.4741 11.0117 56.4501 11.0117 56.4241 11.0117L55.6215 11.0237L54.2634 11.0427L54.2824 12.4008L54.4286 22.944L54.4476 24.3021L55.8056 24.283C57.4439 24.261 58.9751 23.6015 60.117 22.4276C61.2599 21.2537 61.8754 19.7035 61.8533 18.0662L61.8283 16.2688C61.8093 14.8577 61.2449 13.5347 60.2391 12.5449C59.2363 11.5561 57.9073 11.0117 56.4992 11.0117Z" fill="#040B11"/>
<g opacity="0.34">
<path d="M1.38477 19.4604C1.38477 19.4604 2.82089 21.2618 4.5052 21.438L4.39811 13.6489L7.27435 12.9434L6.9501 25.5842C6.9501 25.5842 1.46383 25.291 1.4248 22.3777C1.38477 19.4604 1.38477 19.4604 1.38477 19.4604Z" fill="#040B11"/>
</g>
<g opacity="0.34">
<path d="M55.6418 12.3821L56.4444 12.3701L56.5645 21.1179C56.5645 21.1179 60.0172 21.167 60.3885 15.5416C60.7598 9.91621 61.5854 19.2745 61.5854 19.2745C61.5854 19.2745 57.6784 24.5996 55.2855 24.1283C52.8926 23.6569 55.6418 12.3821 55.6418 12.3821Z" fill="#040B11"/>
</g>
<path d="M11.3213 10.7532C10.914 11.3116 10.0463 10.8672 10.2595 10.2087C10.6818 8.90672 11.4264 7.44458 12.7384 6.25866C15.9029 3.40143 20.2413 3.34038 20.2413 3.34038L27.7981 3.2373C27.7981 3.2373 16.7746 3.29635 11.3213 10.7532Z" fill="#FFEE00"/>
<path d="M3.70652 14.6895C3.70652 14.6895 1.91213 15.359 2.01421 17.7859C2.01421 17.7859 2.44154 16.4628 3.72854 16.2256L3.70652 14.6895Z" fill="#FFEE00"/>
<path d="M57.18 14.28C57.172 13.6835 57.8685 13.3472 58.3249 13.7305C58.5611 13.9287 58.8203 14.1939 59.0935 14.5462C60.1533 15.9202 58.8223 18.9776 57.6914 19.8613C57.6914 19.8613 58.6041 16.7319 57.5883 15.4399C57.3271 15.1096 57.185 14.7003 57.18 14.28Z" fill="#FFEE00"/>
<path d="M15.7198 16.3018C15.1293 16.3098 14.75 15.6773 15.0382 15.1619C15.4676 14.3953 16.1961 13.3695 17.358 12.4759C19.5487 10.7885 22.9204 11.0577 22.9204 11.0577C22.9204 11.0577 17.8704 12.0125 16.6625 15.6253C16.5274 16.0286 16.1441 16.2968 15.7198 16.3018Z" fill="#EDEDED"/>
<path d="M46.5517 26.6319C47.1421 26.6239 47.5214 27.2564 47.2332 27.7718C46.8039 28.5384 46.0753 29.5642 44.9134 30.4579C42.7227 32.1452 39.3511 31.876 39.3511 31.876C39.3511 31.876 44.401 30.9212 45.6089 27.3084C45.743 26.9051 46.1263 26.6389 46.5517 26.6319Z" fill="#EDEDED"/>
<path d="M42.6028 19.0142H40.8879V18.1133H45.3133V19.0142H43.5985V23.7082H42.6028V19.0142Z" fill="white"/>
<path d="M36.626 18.1133H38.5068C38.7754 18.1133 39.0336 18.1396 39.2812 18.1923C39.5341 18.245 39.7553 18.3345 39.945 18.461C40.1347 18.5822 40.2848 18.7481 40.3954 18.9588C40.5113 19.1643 40.5693 19.4225 40.5693 19.7333C40.5693 20.0863 40.5087 20.3707 40.3875 20.5867C40.2664 20.8027 40.103 20.9713 39.8976 21.0925C39.6921 21.2084 39.4524 21.2874 39.1785 21.3296C38.9098 21.3717 38.6279 21.3928 38.3329 21.3928H37.6217V23.7082H36.626V18.1133ZM38.2223 20.5393C38.3645 20.5393 38.512 20.5341 38.6648 20.5235C38.8176 20.513 38.9572 20.4814 39.0836 20.4287C39.2153 20.376 39.3207 20.297 39.3997 20.1916C39.484 20.0863 39.5262 19.9387 39.5262 19.7491C39.5262 19.5752 39.4893 19.4383 39.4155 19.3382C39.3418 19.2328 39.247 19.1538 39.1311 19.1011C39.0151 19.0431 38.8861 19.0063 38.7438 18.9905C38.6016 18.9746 38.4646 18.9667 38.3329 18.9667H37.6217V20.5393H38.2223Z" fill="white"/>
<path d="M34.502 19.9147H35.4503V23.7079H34.502V19.9147ZM34.3677 18.6266C34.3677 18.4738 34.423 18.3421 34.5336 18.2315C34.6495 18.1156 34.7944 18.0576 34.9683 18.0576C35.1421 18.0576 35.287 18.1129 35.4029 18.2236C35.5241 18.3289 35.5847 18.4633 35.5847 18.6266C35.5847 18.7899 35.5241 18.9269 35.4029 19.0375C35.287 19.1429 35.1421 19.1956 34.9683 19.1956C34.7944 19.1956 34.6495 19.1403 34.5336 19.0296C34.423 18.9137 34.3677 18.7794 34.3677 18.6266Z" fill="white"/>
<path d="M29.5085 17.7334H30.4568V20.3965H30.4805C30.528 20.3333 30.5885 20.2701 30.6623 20.2069C30.7361 20.1384 30.8256 20.0752 30.931 20.0172C31.0364 19.9593 31.1575 19.9118 31.2945 19.875C31.4315 19.8381 31.5895 19.8196 31.7686 19.8196C32.0373 19.8196 32.2849 19.8723 32.5115 19.9777C32.738 20.0778 32.9303 20.2174 33.0884 20.3965C33.2517 20.5756 33.3781 20.7864 33.4677 21.0287C33.5572 21.2711 33.602 21.5318 33.602 21.8111C33.602 22.0903 33.5599 22.3511 33.4756 22.5934C33.3913 22.8357 33.2675 23.0465 33.1042 23.2256C32.9408 23.4047 32.7433 23.547 32.5115 23.6523C32.2797 23.7524 32.0189 23.8025 31.7291 23.8025C31.4604 23.8025 31.2102 23.7498 30.9784 23.6444C30.7466 23.5391 30.5622 23.3705 30.4252 23.1387H30.4094V23.7076H29.5085V17.7334ZM32.6537 21.8111C32.6537 21.6635 32.6274 21.5213 32.5747 21.3843C32.5273 21.2473 32.4535 21.1262 32.3534 21.0208C32.2586 20.9154 32.1427 20.8312 32.0057 20.7679C31.8687 20.7047 31.7133 20.6731 31.5395 20.6731C31.3656 20.6731 31.2102 20.7047 31.0732 20.7679C30.9363 20.8312 30.8177 20.9154 30.7176 21.0208C30.6228 21.1262 30.549 21.2473 30.4963 21.3843C30.4489 21.5213 30.4252 21.6635 30.4252 21.8111C30.4252 21.9586 30.4489 22.1008 30.4963 22.2378C30.549 22.3748 30.6228 22.4959 30.7176 22.6013C30.8177 22.7067 30.9363 22.791 31.0732 22.8542C31.2102 22.9174 31.3656 22.949 31.5395 22.949C31.7133 22.949 31.8687 22.9174 32.0057 22.8542C32.1427 22.791 32.2586 22.7067 32.3534 22.6013C32.4535 22.4959 32.5273 22.3748 32.5747 22.2378C32.6274 22.1008 32.6537 21.9586 32.6537 21.8111Z" fill="white"/>
<path d="M27.4715 19.9147H28.4198V23.7079H27.4715V19.9147ZM27.3372 18.6266C27.3372 18.4738 27.3925 18.3421 27.5031 18.2315C27.619 18.1156 27.7639 18.0576 27.9377 18.0576C28.1116 18.0576 28.2565 18.1129 28.3724 18.2236C28.4935 18.3289 28.5541 18.4633 28.5541 18.6266C28.5541 18.7899 28.4935 18.9269 28.3724 19.0375C28.2565 19.1429 28.1116 19.1956 27.9377 19.1956C27.7639 19.1956 27.619 19.1403 27.5031 19.0296C27.3925 18.9137 27.3372 18.7794 27.3372 18.6266Z" fill="white"/>
<path d="M23.8663 20.4439H23.8821C23.9558 20.2859 24.0849 20.1436 24.2693 20.0172C24.4589 19.8855 24.7013 19.8196 24.9963 19.8196C25.2492 19.8196 25.4626 19.8618 25.6364 19.9461C25.8155 20.0304 25.9604 20.141 26.071 20.278C26.1817 20.415 26.2607 20.573 26.3081 20.7521C26.3555 20.9313 26.3792 21.1183 26.3792 21.3132V23.7076H25.4309V21.7873C25.4309 21.682 25.4257 21.5661 25.4151 21.4396C25.4046 21.3079 25.3756 21.1868 25.3282 21.0761C25.2861 20.9602 25.2176 20.8654 25.1227 20.7916C25.0279 20.7126 24.8988 20.6731 24.7355 20.6731C24.5775 20.6731 24.4431 20.6994 24.3325 20.7521C24.2271 20.8048 24.1376 20.8759 24.0638 20.9655C23.9953 21.0551 23.9453 21.1578 23.9137 21.2737C23.8821 21.3896 23.8663 21.5108 23.8663 21.6372V23.7076H22.918V17.7334H23.8663V20.4439Z" fill="white"/>
<path d="M21.4358 19.4248C21.2303 19.2035 21.0301 19.056 20.8352 18.9822C20.6456 18.9085 20.4533 18.8716 20.2583 18.8716C19.9686 18.8716 19.7052 18.9243 19.4681 19.0296C19.2363 19.1297 19.0361 19.272 18.8675 19.4564C18.6989 19.6355 18.5672 19.8462 18.4724 20.0886C18.3828 20.3309 18.338 20.5917 18.338 20.8709C18.338 21.1712 18.3828 21.4478 18.4724 21.7007C18.5672 21.9535 18.6989 22.1722 18.8675 22.3566C19.0361 22.5409 19.2363 22.6858 19.4681 22.7912C19.7052 22.8966 19.9686 22.9492 20.2583 22.9492C20.4849 22.9492 20.7035 22.8966 20.9142 22.7912C21.1302 22.6806 21.3304 22.5067 21.5148 22.2696L22.3367 22.8544C22.0838 23.2021 21.7756 23.455 21.4121 23.613C21.0486 23.7711 20.6614 23.8501 20.2504 23.8501C19.8184 23.8501 19.4207 23.7816 19.0572 23.6447C18.6989 23.5024 18.3881 23.3048 18.1247 23.052C17.8665 22.7938 17.6637 22.4856 17.5162 22.1274C17.3687 21.7691 17.2949 21.3714 17.2949 20.9341C17.2949 20.4863 17.3687 20.0807 17.5162 19.7171C17.6637 19.3484 17.8665 19.0349 18.1247 18.7768C18.3881 18.5186 18.6989 18.321 19.0572 18.1841C19.4207 18.0418 19.8184 17.9707 20.2504 17.9707C20.6298 17.9707 20.9801 18.0392 21.3015 18.1762C21.6281 18.3079 21.931 18.5344 22.2102 18.8558L21.4358 19.4248Z" fill="white"/>
<path d="M54.7951 37.244L45.8881 32.6981L50.1316 27.9031L54.7951 37.244Z" fill="#FFEE00"/>
</svg>
