<?xml version="1.0" encoding="utf-8"?>
<!-- Generator: Adobe Illustrator 27.9.1, SVG Export Plug-In . SVG Version: 6.00 Build 0)  -->
<svg version="1.1" id="Layer_1" xmlns="http://www.w3.org/2000/svg" xmlns:xlink="http://www.w3.org/1999/xlink" x="0px" y="0px"
	 viewBox="0 0 58 58" style="enable-background:new 0 0 58 58;" xml:space="preserve">
<style type="text/css">
	.st0{fill:#FFEE00;}
	.st1{fill:#040B11;}
	.st2{opacity:0.34;}
	.st3{fill:#EDEDED;}
</style>
<g>
	<circle class="st0" cx="29" cy="29" r="29"/>
</g>
<path class="st0" d="M19.9,43.3c-2.8,0-5.5-1.1-7.5-3.1c-2-2-3.2-4.7-3.2-7.5l-0.1-7.6c0-2.9,1-5.6,3-7.6c2-2.1,4.7-3.2,7.5-3.2
	L38,14c0.1,0,0.1,0,0.1,0c2.8,0,5.5,1.1,7.5,3.1c2,2,3.2,4.7,3.2,7.5l0.1,7.6c0.1,5.9-4.7,10.8-10.6,10.9l-18.4,0.3
	C20,43.3,20,43.3,19.9,43.3z"/>
<path class="st1" d="M38.2,14.7c5.5,0,10,4.4,10.1,9.9l0.1,7.6c0.1,5.6-4.4,10.1-9.9,10.2l-18.4,0.3c0,0-0.1,0-0.1,0
	c-5.5,0-10-4.4-10.1-9.9l-0.1-7.6C9.7,19.6,14.1,15,19.7,15L38,14.7C38.1,14.7,38.1,14.7,38.2,14.7z M38.2,13.4c-0.1,0-0.1,0-0.2,0
	l-18.4,0.3c-3,0-5.9,1.3-8,3.4c-2.1,2.2-3.3,5.1-3.2,8.1l0.1,7.6c0,3,1.2,5.8,3.4,8c2.1,2.1,5,3.3,8,3.3c0.1,0,0.1,0,0.2,0l18.4-0.3
	c3,0,5.9-1.3,8-3.4c2.1-2.2,3.3-5.1,3.2-8.1l-0.1-7.6c0-3-1.2-5.8-3.4-8C44,14.5,41.2,13.4,38.2,13.4z"/>
<path class="st1" d="M36.7,41.7l-14.8,0.2c-4.5,0.1-8.1-3.5-8.2-8l-0.1-4c-0.1-4.5,3.5-8.1,8-8.2l14.8-0.2c4.5-0.1,8.1,3.5,8.2,8
	l0.1,4C44.7,37.9,41.1,41.6,36.7,41.7z"/>
<path class="st0" d="M23.2,35.4c0.6,0,1.1-1.8,1-4.1c0-2.2-0.5-4-1.1-4c-0.6,0-1.1,1.8-1,4.1C22.1,33.6,22.6,35.4,23.2,35.4z"/>
<path class="st0" d="M35.1,35.3c0.6,0,1.1-1.8,1-4.1c0-2.2-0.5-4-1.1-4c-0.6,0-1.1,1.8-1,4.1C34,33.5,34.5,35.3,35.1,35.3z"/>
<path class="st1" d="M15.9,26.6L8,26.7l0.1,7.9l7.9-0.1L15.9,26.6z"/>
<path class="st1" d="M49.1,26.1l-7.9,0.1l0.1,7.9l7.9-0.1L49.1,26.1z"/>
<path class="st0" d="M8,34.5c-2.5,0-4.6-2.1-4.6-4.6l0-1.5c0-2.2,1.7-4,3.9-4l1.3,0l0.1,10.1L8,34.5C8.1,34.5,8,34.5,8,34.5z"/>
<path class="st1" d="M7.9,25l0.1,9c0,0,0,0-0.1,0c-2.2,0-4-1.8-4.1-4l0-1.5c0-1.9,1.5-3.4,3.3-3.4L7.9,25z M9.1,23.8l-1.2,0l-0.7,0
	c-2.5,0-4.5,2.1-4.5,4.6l0,1.5c0,1.4,0.6,2.7,1.6,3.6c1,1,2.3,1.5,3.7,1.5c0,0,0,0,0.1,0l1.2,0l0-1.2l-0.1-9L9.1,23.8z"/>
<path class="st0" d="M49.5,23.3l1.3,0h0.1c2.2,0,3.9,1.8,4,3.9l0,1.5c0,1.2-0.4,2.4-1.3,3.3c-0.9,0.9-2,1.4-3.3,1.4l-0.6,0
	L49.5,23.3z"/>
<path class="st1" d="M50.8,23.9c1.8,0,3.4,1.5,3.4,3.3l0,1.5c0,2.2-1.8,4.1-4,4.1l-0.1-9L50.8,23.9C50.8,23.9,50.8,23.9,50.8,23.9z
	 M50.8,22.7C50.8,22.7,50.8,22.7,50.8,22.7l-0.7,0l-1.2,0l0,1.2l0.1,9l0,1.2l1.2,0c1.4,0,2.7-0.6,3.7-1.6c1-1,1.5-2.3,1.5-3.7l0-1.5
	c0-1.2-0.5-2.3-1.4-3.2C53.2,23.2,52,22.7,50.8,22.7z"/>
<g class="st2">
	<path class="st1" d="M4,29.9c0,0,1.2,1.5,2.7,1.7L6.5,25L9,24.4L8.7,35.1c0,0-4.7-0.2-4.7-2.7C4,29.9,4,29.9,4,29.9z"/>
</g>
<g class="st2">
	<path class="st1" d="M50.1,23.9l0.7,0l0.1,7.4c0,0,2.9,0,3.3-4.7c0.3-4.8,1,3.2,1,3.2s-3.3,4.5-5.4,4.1
		C47.8,33.5,50.1,23.9,50.1,23.9z"/>
</g>
<g class="st2">
	<path class="st1" d="M23.1,27.3c0,0,1.3,8-1,7.4c-2.3-0.6,0.9,4.2,2.4,2.6C26.1,35.8,25.6,27.4,23.1,27.3z"/>
</g>
<g class="st2">
	<path class="st1" d="M35,27.2c0,0,1.3,8-1,7.4c-2.3-0.6,0.9,4.2,2.4,2.6C38,35.6,37.5,27.3,35,27.2z"/>
</g>
<g class="st2">
	<path class="st1" d="M26.4,14.1c0,0,9.9,0.1,14.3,3.6c4.4,3.6,2.8,17,2.5,19.7c-0.4,2.7-18.7,6-25.9,5.3c0,0,17.2,1.1,22.3,0.4
		c5.1-0.7,9.6-4.4,9.6-9.2c-0.1-4.7-0.4-12.6-0.4-12.6s-3.5-7.2-9.1-7.5C34.1,13.6,26.4,14.1,26.4,14.1z"/>
</g>
<path class="st0" d="M12.4,22.5c-0.3,0.5-1.1,0.1-0.9-0.5c0.4-1.1,1-2.4,2.1-3.4c2.7-2.4,6.4-2.5,6.4-2.5l6.4-0.1
	C26.4,16.1,17,16.2,12.4,22.5z"/>
<path class="st0" d="M5.9,25.9c0,0-1.5,0.6-1.4,2.6c0,0,0.4-1.1,1.5-1.3L5.9,25.9z"/>
<path class="st0" d="M51.4,25.5c0-0.5,0.6-0.8,1-0.5c0.2,0.2,0.4,0.4,0.7,0.7c0.9,1.2-0.2,3.8-1.2,4.5c0,0,0.8-2.7-0.1-3.8
	C51.5,26.2,51.4,25.9,51.4,25.5z"/>
<path class="st3" d="M16.1,27.2c-0.5,0-0.8-0.5-0.6-1c0.4-0.7,1-1.5,2-2.3c1.9-1.4,4.7-1.2,4.7-1.2s-4.3,0.8-5.3,3.9
	C16.8,27,16.5,27.2,16.1,27.2z"/>
<path class="st3" d="M42.4,36c0.5,0,0.8,0.5,0.6,1c-0.4,0.7-1,1.5-2,2.3c-1.9,1.4-4.7,1.2-4.7,1.2s4.3-0.8,5.3-3.9
	C41.7,36.3,42,36,42.4,36z"/>
</svg>
