<svg width="22" height="126" viewBox="0 0 22 126" fill="none" xmlns="http://www.w3.org/2000/svg">
<g filter="url(#filter0_ii_2500_15184)">
<path d="M19.5059 37.0901L21.5 0V125.5L19.4394 81.8152C19.1866 76.4569 15.0605 72.0853 9.72573 71.5238C4.19708 70.9418 -1.90735e-06 66.2797 -1.90735e-06 60.7205V59.9338C-1.90735e-06 54.3443 3.94173 49.5303 9.42136 48.4276L9.76172 48.3591C15.1998 47.2648 19.2081 42.6292 19.5059 37.0901Z" fill="#10161C"/>
</g>
<line x1="0.5" y1="-0.5" x2="12.5" y2="-0.5" transform="matrix(0 1 1 0 21.0001 54)" stroke="#EDEDED" stroke-linecap="round"/>
<path d="M5.84618 60C5.57004 60 5.34619 60.2239 5.34619 60.5C5.3462 60.7761 5.57006 61 5.8462 61L5.84618 60ZM17.1997 60.8534C17.395 60.6581 17.395 60.3416 17.1997 60.1463L14.0177 56.9644C13.8225 56.7691 13.5059 56.7691 13.3106 56.9644C13.1153 57.1596 13.1154 57.4762 13.3106 57.6715L16.1391 60.4999L13.3107 63.3283C13.1154 63.5236 13.1154 63.8402 13.3107 64.0354C13.506 64.2307 13.8226 64.2307 14.0178 64.0354L17.1997 60.8534ZM5.8462 61L16.8462 60.9999L16.8462 59.9999L5.84618 60L5.8462 61Z" fill="#EDEDED"/>
<defs>
<filter id="filter0_ii_2500_15184" x="-2" y="-2" width="25.5" height="129.5" filterUnits="userSpaceOnUse" color-interpolation-filters="sRGB">
<feFlood flood-opacity="0" result="BackgroundImageFix"/>
<feBlend mode="normal" in="SourceGraphic" in2="BackgroundImageFix" result="shape"/>
<feColorMatrix in="SourceAlpha" type="matrix" values="0 0 0 0 0 0 0 0 0 0 0 0 0 0 0 0 0 0 127 0" result="hardAlpha"/>
<feOffset dx="2" dy="2"/>
<feGaussianBlur stdDeviation="1"/>
<feComposite in2="hardAlpha" operator="arithmetic" k2="-1" k3="1"/>
<feColorMatrix type="matrix" values="0 0 0 0 0.109804 0 0 0 0 0.137255 0 0 0 0 0.164706 0 0 0 1 0"/>
<feBlend mode="normal" in2="shape" result="effect1_innerShadow_2500_15184"/>
<feColorMatrix in="SourceAlpha" type="matrix" values="0 0 0 0 0 0 0 0 0 0 0 0 0 0 0 0 0 0 127 0" result="hardAlpha"/>
<feOffset dx="-2" dy="-2"/>
<feGaussianBlur stdDeviation="2"/>
<feComposite in2="hardAlpha" operator="arithmetic" k2="-1" k3="1"/>
<feColorMatrix type="matrix" values="0 0 0 0 0.054902 0 0 0 0 0.0784314 0 0 0 0 0.101961 0 0 0 1 0"/>
<feBlend mode="normal" in2="effect1_innerShadow_2500_15184" result="effect2_innerShadow_2500_15184"/>
</filter>
</defs>
</svg>
